<?xml version="1.0" encoding="utf-8"?>
<!-- Generator: Adobe Illustrator 22.0.1, SVG Export Plug-In . SVG Version: 6.00 Build 0)  -->
<svg version="1.1" id="Layer_1" xmlns="http://www.w3.org/2000/svg" xmlns:xlink="http://www.w3.org/1999/xlink" x="0px" y="0px"
	 viewBox="0 0 25 25" style="enable-background:new 0 0 25 25;" xml:space="preserve">
<path d="M4.4,4.3l0.9-1.2h14.1l1.1,1.2 M12.5,18.9L6,12.5h4.1v-2.3h4.7v2.3h4.1L12.5,18.9 M22.5,4.5l-1.6-2
	c-0.3-0.4-0.8-0.6-1.3-0.6H5.5c-0.6,0-1,0.2-1.4,0.6l-1.6,2C2.1,4.9,1.9,5.4,1.9,6v14.6C1.9,22,3,23,4.3,23h16.4
	c1.3,0,2.3-1,2.3-2.3V6C23,5.4,22.8,4.9,22.5,4.5z"/>
</svg>
