<?xml version="1.0" encoding="utf-8"?>
<!-- Generator: Adobe Illustrator 22.0.1, SVG Export Plug-In . SVG Version: 6.00 Build 0)  -->
<svg version="1.1" id="Layer_1" xmlns="http://www.w3.org/2000/svg" xmlns:xlink="http://www.w3.org/1999/xlink" x="0px" y="0px"
	 viewBox="0 0 50 50" style="enable-background:new 0 0 50 50;" xml:space="preserve">
<path d="M8.9,8.5l1.9-2.3h28.1l2.2,2.3 M25,37.8L12.1,24.9h8.2v-4.7h9.4v4.7h8.2L25,37.8 M45,9l-3.3-3.9c-0.6-0.8-1.6-1.3-2.7-1.3
	H10.9c-1.1,0-2.1,0.5-2.7,1.3L5,9c-0.7,0.8-1.1,1.8-1.1,3v29.3C3.9,43.9,6,46,8.6,46h32.8c2.6,0,4.7-2.1,4.7-4.7V12
	C46.1,10.8,45.7,9.8,45,9z"/>
</svg>
