<svg xmlns="http://www.w3.org/2000/svg" viewBox="0 0 50 50"><path d="M35.8,10.46a1,1,0,0,1,1,1V38.54a1,1,0,0,1-1,1H14.2a1,1,0,0,1-1-1V11.46a1,1,0,0,1,1-1H35.8m0-2H14.2a3,3,0,0,0-3,3V38.54a3,3,0,0,0,3,3H35.8a3,3,0,0,0,3-3V11.46A3,3,0,0,0,35.8,8.46Z" fill="none"/><path d="M32.8,16.08H17.2a1,1,0,0,1,0-2H32.8a1,1,0,1,1,0,2Z" fill="none"/><path d="M22.53,22.69H17.2a1,1,0,0,1,0-2h5.32a1,1,0,0,1,0,2Z" fill="none"/><path d="M22.53,29.31H17.2a1,1,0,0,1,0-2h5.32a1,1,0,0,1,0,2Z" fill="none"/><path d="M22.53,35.92H17.2a1,1,0,0,1,0-2h5.32a1,1,0,0,1,0,2Z" fill="none"/><path d="M33.55,31.49c0-2.16-2.24-3.21-3.78-3.91V23.73a2,2,0,0,1,1.5,1.43.75.75,0,0,0,1.46-.33,3.5,3.5,0,0,0-3-2.62v-.62a.5.5,0,0,0-1,0v.62a3.43,3.43,0,0,0-3,3.33c0,1.81,1.6,2.57,3,3.22V34a2.71,2.71,0,0,1-2.23-2,.75.75,0,0,0-1.48.23l0,.1a4.22,4.22,0,0,0,3.7,3.18v.88a.5.5,0,0,0,1,0v-.88A4.14,4.14,0,0,0,33.55,31.49Zm-6.32-5.94a1.92,1.92,0,0,1,1.55-1.82v3.38C27.8,26.64,27.23,26.22,27.23,25.55ZM29.77,34V29.23c1.11.54,2.28,1.24,2.28,2.25A2.64,2.64,0,0,1,29.77,34Z" fill="none"/></svg>
