<svg width="24" height="24" viewBox="0 0 24 24" fill="none" xmlns="http://www.w3.org/2000/svg">
<path fill-rule="evenodd" clip-rule="evenodd" d="M11.4786 1.95224L11.9998 1.64656L12.5209 1.95224L12.6106 2.00164C14.926 3.27715 16.2961 4.03192 19.1432 4.43242L20.7657 4.60096V6.11448C20.7657 6.11448 21.2366 6.12149 21.3923 6.14008C21.5047 6.1535 21.8362 6.22835 21.8362 6.22835L21.8298 4.44916C21.8298 4.4412 21.8298 4.42987 21.8299 4.41617C21.8302 4.3364 21.8309 4.1761 21.8245 4.13019L21.8182 4.08562C21.8043 3.98664 21.7646 3.89221 21.7001 3.81588C21.6948 3.80961 21.6893 3.80333 21.6837 3.7973C21.6206 3.72897 21.5308 3.67554 21.442 3.64809L21.3927 3.63257C21.3472 3.61854 21.2943 3.6098 21.2469 3.6045L19.5367 3.40974C17.3789 3.14641 16.4178 2.80441 14.5272 1.83861L13.4291 1.24387C13.0679 1.04675 12.7354 0.847968 12.4991 0.706698C12.4151 0.656501 12.3433 0.613565 12.2866 0.580547C12.2352 0.550508 12.18 0.527487 12.1225 0.512098C12.1032 0.506927 12.0832 0.503603 12.0633 0.501756C12.0577 0.501264 12.0522 0.501141 12.0465 0.501018L12 0.500648H11.9995L11.953 0.501018C11.9473 0.501141 11.9418 0.501264 11.9362 0.501756C11.9163 0.503603 11.8964 0.506927 11.877 0.512098C11.8195 0.527487 11.7644 0.550508 11.7129 0.580547C11.6563 0.613565 11.5844 0.6565 11.5005 0.706696C11.2642 0.847967 10.9316 1.04675 10.5705 1.24387L9.47231 1.83861C7.58171 2.80441 6.62058 3.14641 4.46283 3.40974L2.75258 3.6045C2.70518 3.6098 2.65237 3.61854 2.60682 3.63257L2.55757 3.64809C2.46869 3.67554 2.37894 3.72897 2.31579 3.7973C2.31025 3.80333 2.30471 3.80961 2.29941 3.81588C2.2349 3.89221 2.19526 3.98664 2.18135 4.08562L2.17507 4.13019C2.16866 4.1761 2.16934 4.33641 2.16967 4.41617C2.16973 4.42988 2.16978 4.4412 2.16978 4.44916L2.16374 6.11448H3.23382V4.60096L4.85629 4.43242C7.70346 4.03192 9.07357 3.27715 11.389 2.00164L11.4786 1.95224ZM11.9998 1.93907L10.6009 2.72353L10.4727 2.79175C8.66603 3.75366 7.65402 4.29247 4.96721 4.67249L3.48029 4.83425V6.1146H11.9998H20.5192V4.83425L19.0323 4.67249C16.3455 4.29247 15.3335 3.75366 13.5268 2.79175L13.3987 2.72353L11.9998 1.93907ZM9.60613 6.5674C10.6401 6.58291 11.4906 6.88847 12.1974 7.55216C12.7592 8.07981 13.1124 8.72626 13.2262 9.49065C13.3915 10.6018 13.0828 11.572 12.3093 12.3855C11.7679 12.9549 11.0972 13.2927 10.324 13.4229C9.5122 13.5597 8.72836 13.4616 7.994 13.085C7.00826 12.5796 6.357 11.788 6.1519 10.6945C5.89005 9.29811 6.35737 8.15207 7.47805 7.2823C7.96827 6.90177 8.53544 6.68817 9.15087 6.60815C9.27708 6.59175 9.40425 6.58245 9.50465 6.57511L9.50466 6.5751C9.54293 6.57231 9.57731 6.56979 9.60625 6.56728L9.60613 6.5674ZM11.8064 10.0301C11.8064 8.84359 10.8639 7.89416 9.68505 7.89305C8.50171 7.89194 7.5444 8.83706 7.54108 10.0045C7.53751 11.2031 8.48004 12.1474 9.6438 12.1559C10.8561 12.1647 11.8062 11.2233 11.8064 10.0301ZM5.3885 10.191C5.201 10.0344 4.989 9.92068 4.745 9.83721H4.74488C4.75543 9.83148 4.76423 9.82659 4.77199 9.82228L4.77216 9.82219L4.77218 9.82217C4.78416 9.81552 4.79367 9.81024 4.80335 9.80533C5.43971 9.48536 5.71892 8.87757 5.61563 8.21006C5.53635 7.69792 5.25234 7.3185 4.81665 7.04901C4.41777 6.80217 3.97494 6.7139 3.5134 6.71194C2.86279 6.7092 2.21217 6.70982 1.56155 6.71043C1.30374 6.71067 1.04592 6.71092 0.788111 6.71095C0.772756 6.71095 0.757401 6.71191 0.741422 6.71291H0.741419H0.741415H0.741412H0.741408H0.741404H0.7414H0.741395H0.741389H0.741384H0.741378H0.741371H0.741364C0.734428 6.71334 0.727376 6.71378 0.720154 6.71415V13.3361H0.801653C1.06295 13.3361 1.32425 13.3362 1.58554 13.3362H1.58807C2.30614 13.3363 3.0242 13.3364 3.74227 13.3358C4.05373 13.3355 4.35819 13.2882 4.6534 13.1872C5.47036 12.9072 5.98977 12.2339 5.96662 11.3916C5.9532 10.9053 5.76287 10.5035 5.3885 10.191ZM2.15665 12.108C2.14929 12.1076 2.14158 12.1071 2.13334 12.1068L2.13321 12.1069C2.1328 12.0981 2.13231 12.0898 2.13183 12.0818C2.13088 12.066 2.13001 12.0514 2.13001 12.0367C2.12998 11.9118 2.13004 11.7869 2.1301 11.6621C2.13026 11.2988 2.13043 10.9356 2.12841 10.5724C2.12804 10.5079 2.14897 10.4944 2.20917 10.4946C2.40747 10.4955 2.60577 10.4953 2.80407 10.4951C3.0795 10.4947 3.35493 10.4944 3.63036 10.4972C3.8948 10.4999 4.1356 10.5727 4.32051 10.7781C4.63272 11.1249 4.60034 11.9309 3.86304 12.0832C3.78338 12.0996 3.70065 12.1082 3.61928 12.1086C3.25774 12.1104 2.8962 12.1101 2.53466 12.1098C2.42247 12.1097 2.31028 12.1096 2.19809 12.1096C2.18484 12.1096 2.17164 12.1088 2.15707 12.108L2.15689 12.108L2.15665 12.108ZM3.01697 9.26797C2.95876 9.26765 2.90054 9.26733 2.84233 9.26733L2.84245 9.26746C2.78583 9.26746 2.7292 9.26737 2.67258 9.26729C2.51401 9.26705 2.35543 9.26681 2.19686 9.26844C2.1486 9.26906 2.12866 9.25946 2.1289 9.20541C2.131 8.8037 2.13063 8.40199 2.12927 8.00028C2.12903 7.95362 2.14109 7.9354 2.19132 7.93565C2.3784 7.93646 2.5655 7.9364 2.75262 7.93634H2.75305C2.9634 7.93627 3.17377 7.9362 3.38414 7.93737C3.52165 7.93811 3.65769 7.95461 3.78585 8.01136C4.04425 8.12586 4.19051 8.36703 4.17278 8.65104C4.15579 8.92398 3.97827 9.14693 3.70447 9.22659C3.621 9.25084 3.53187 9.26315 3.44483 9.26561C3.3023 9.26955 3.15965 9.26876 3.01697 9.26797ZM2.37906 13.8815H3.45542C3.47472 13.9428 3.49343 14.0039 3.51208 14.0649C3.55314 14.1991 3.5939 14.3323 3.63996 14.4637C3.86747 15.1133 4.20085 15.7008 4.67458 16.2047C4.80712 16.3457 4.93883 16.4875 5.07054 16.6293L5.07067 16.6294L5.07081 16.6296L5.07095 16.6297L5.07109 16.6299C5.34231 16.9219 5.61354 17.2139 5.89202 17.4988C6.91851 18.5489 7.99092 19.5505 9.10938 20.502C9.76384 21.0588 10.4308 21.6001 11.1602 22.0579C11.3131 22.1539 11.4749 22.2362 11.6365 22.3184C11.683 22.3421 11.7295 22.3657 11.7757 22.3897C11.9239 22.4665 12.0741 22.4561 12.2262 22.3915C12.4688 22.2885 12.6931 22.1535 12.9116 22.0084C13.5171 21.6063 14.0828 21.1519 14.64 20.6868C15.4569 20.0048 16.2473 19.2931 17.0187 18.5601C17.7768 17.8399 18.5204 17.1055 19.2143 16.3222C19.5388 15.9559 19.8359 15.5714 20.0544 15.1298C20.245 14.7447 20.3944 14.3451 20.5025 13.9299C20.5128 13.8904 20.5275 13.8761 20.5679 13.8779C20.9154 13.8939 21.2599 13.8698 21.6002 13.795C21.6022 13.7945 21.6046 13.7954 21.6091 13.797C21.6119 13.798 21.6155 13.7993 21.6203 13.8007C21.6115 13.8384 21.6028 13.8762 21.5941 13.914C21.5761 13.9928 21.5579 14.0718 21.538 14.1502C21.352 14.8799 21.0789 15.5745 20.6529 16.1979C20.4729 16.4614 20.2598 16.7035 20.048 16.944L20.017 16.9793C19.4223 17.6553 18.7925 18.2983 18.1513 18.93C17.2049 19.8626 16.2318 20.7662 15.2043 21.6097C14.5845 22.1186 13.9501 22.6077 13.2598 23.0194C13.008 23.1696 12.747 23.3008 12.4725 23.4064C12.1493 23.5308 11.8321 23.5299 11.5084 23.4064C11.1076 23.2535 10.7392 23.0416 10.382 22.8083C9.62878 22.3163 8.93099 21.7517 8.24872 21.1673C7.51375 20.5378 6.80414 19.8805 6.11078 19.2056C5.31438 18.4304 4.54457 17.6301 3.80013 16.8044C3.15934 16.0937 2.75652 15.2632 2.49442 14.3545C2.46652 14.2577 2.44283 14.1596 2.41914 14.0616L2.41913 14.0615C2.40916 14.0203 2.39919 13.979 2.38891 13.9379C2.38602 13.9263 2.38418 13.9144 2.38216 13.9014C2.38118 13.8951 2.38015 13.8885 2.37894 13.8815H2.37906ZM17.1431 18.1307C17.0659 18.2034 16.9899 18.2753 16.9147 18.3465C16.7594 18.4934 16.607 18.6376 16.4534 18.7802C15.6555 19.5208 14.8421 20.2438 13.9926 20.9253C13.508 21.3139 13.0176 21.6949 12.4817 22.0122C12.3973 22.0622 12.3099 22.1076 12.2214 22.15C12.0778 22.2187 11.9321 22.2159 11.7884 22.1485C11.4214 21.976 11.0871 21.7497 10.7592 21.5142C9.95884 20.9394 9.20812 20.3034 8.47869 19.6426C8.10369 19.3028 7.73489 18.9562 7.36608 18.6097C7.20467 18.458 7.04326 18.3064 6.88133 18.1553C6.87775 18.1519 6.87469 18.148 6.87047 18.1426L6.87042 18.1426C6.86782 18.1392 6.86478 18.1353 6.86089 18.1307H17.1428H17.1431ZM18.8537 11.819C18.645 12.0276 18.4361 12.2364 18.2251 12.4474L18.2256 12.4473C18.2288 12.451 18.2321 12.4549 18.2354 12.4588L18.2355 12.4588C18.2438 12.4685 18.2522 12.4785 18.2613 12.4879C18.5293 12.7658 18.8443 12.9771 19.193 13.1393C19.7558 13.401 20.3491 13.5034 20.9674 13.473C21.3349 13.4549 21.6898 13.3819 22.0278 13.2349C22.8139 12.8932 23.3664 12.1575 23.2687 11.2226C23.221 10.7666 23.0301 10.3886 22.6784 10.0935C22.3966 9.85703 22.0699 9.7008 21.7282 9.57548C21.5465 9.50886 21.3636 9.44543 21.1806 9.382L21.1805 9.38197L21.1804 9.38194L21.1804 9.38191L21.1803 9.38188L21.1802 9.38185L21.1801 9.38182L21.18 9.38179L21.1799 9.38176L21.1798 9.38173L21.1798 9.3817C21.0131 9.32391 20.8464 9.26613 20.6806 9.2059C20.4877 9.13585 20.3017 9.04881 20.1478 8.9076C19.991 8.76381 19.9366 8.5853 19.9788 8.37811C20.0289 8.13213 20.1953 7.99019 20.4225 7.92272C21.0023 7.75061 21.5318 7.85636 22.0043 8.23579C22.0504 8.27291 22.0939 8.31338 22.1343 8.35099C22.1519 8.36739 22.1689 8.38325 22.1853 8.39805C22.4894 8.09398 22.7918 7.79165 23.1051 7.47844L23.1368 7.44678C23.0942 7.41258 23.052 7.37694 23.0094 7.34107L23.0094 7.34104L23.0093 7.34098C22.9161 7.26232 22.8215 7.18255 22.7191 7.1145C21.9002 6.56986 21.0075 6.44897 20.062 6.6798C19.6522 6.77989 19.2899 6.97637 18.9974 7.2855C18.6344 7.66899 18.4735 8.12647 18.5065 8.65449C18.5382 9.16133 18.7439 9.57621 19.1419 9.89396C19.3632 10.0706 19.6088 10.2072 19.8722 10.3066C20.1044 10.3945 20.3389 10.4766 20.5733 10.5588L20.5734 10.5588L20.5734 10.5588L20.5735 10.5588L20.5735 10.5589L20.5735 10.5589L20.5736 10.5589L20.5736 10.5589L20.5736 10.5589L20.5736 10.5589L20.5737 10.5589L20.5737 10.5589C20.7098 10.6066 20.8459 10.6543 20.9816 10.7032C21.1725 10.7717 21.3609 10.8473 21.5289 10.9642C21.6506 11.0489 21.7521 11.1513 21.7947 11.2991C21.8721 11.5684 21.7491 11.8663 21.4956 12.0254C21.2873 12.156 21.0537 12.1954 20.8145 12.2038C20.2541 12.2233 19.7651 12.0387 19.3422 11.6743C19.299 11.6371 19.2582 11.5972 19.219 11.5587C19.2009 11.541 19.1832 11.5237 19.1658 11.5071L18.8537 11.819ZM13.0972 12.4457L14.0402 11.5026C14.1929 11.6734 14.373 11.8179 14.5766 11.9314C15.0529 12.197 15.5573 12.2761 16.0889 12.1448C16.2734 12.0992 16.437 12.0117 16.5556 11.8561C16.7739 11.5696 16.7261 11.2093 16.4399 10.9922C16.253 10.8504 16.0361 10.7685 15.8182 10.69C15.6932 10.645 15.5678 10.6011 15.4424 10.5571C15.199 10.4719 14.9557 10.3866 14.7153 10.2936C14.4062 10.1738 14.121 10.0078 13.8797 9.77541C13.5939 9.50001 13.4346 9.16269 13.3896 8.76948C13.3491 8.41578 13.3889 8.07476 13.5462 7.75172C13.7543 7.32404 14.0897 7.02882 14.515 6.82987C14.8361 6.67968 15.1761 6.60569 15.5287 6.5807C16.065 6.54266 16.5823 6.61812 17.0779 6.82987C17.3916 6.96394 17.6751 7.14516 17.9246 7.3787C17.944 7.39692 17.9625 7.41625 17.9807 7.43558C17.9869 7.44214 17.9923 7.44961 17.9955 7.45417C17.9966 7.45568 17.9975 7.45688 17.9981 7.45761C17.7089 7.74646 17.4216 8.03353 17.1418 8.31311L17.1326 8.32229L17.068 8.38685C17.0244 8.3548 16.9807 8.32092 16.9366 8.28664C16.8376 8.20967 16.736 8.13071 16.626 8.06615C16.1931 7.81205 15.731 7.77647 15.2586 7.93602C14.9715 8.03303 14.8267 8.25377 14.8389 8.53889C14.8463 8.71063 14.9342 8.84027 15.0637 8.94515C15.2171 9.06925 15.3945 9.15001 15.5778 9.216C15.7415 9.27496 15.9059 9.33185 16.0703 9.38874L16.0704 9.38878C16.2481 9.4503 16.4259 9.51182 16.6027 9.57597C16.8688 9.67249 17.1242 9.79265 17.3608 9.95035C17.9145 10.3194 18.1751 10.8401 18.1489 11.5004C18.1195 12.2379 17.7425 12.7632 17.1187 13.1247C16.7732 13.325 16.3946 13.4249 15.9984 13.461C15.3368 13.5212 14.6998 13.4267 14.0928 13.1516C13.7425 12.9928 13.4264 12.7832 13.1545 12.5093C13.152 12.5068 13.1495 12.5042 13.1469 12.5017C13.1393 12.4941 13.1317 12.4865 13.1245 12.4784C13.1179 12.471 13.1116 12.4632 13.1054 12.4555L13.1054 12.4555L13.1004 12.4493L13.0974 12.4455L13.0972 12.4457ZM15.0208 14.2268V17.3617H15.0209H15.0982C15.2074 17.3617 15.3167 17.3617 15.4259 17.3618C15.7534 17.3619 16.0809 17.362 16.4083 17.3611C16.4881 17.3608 16.5685 17.3581 16.6473 17.3472C16.909 17.3107 17.1404 17.211 17.3142 17.0038C17.5815 16.6851 17.5711 16.2098 17.2926 15.9265C17.1934 15.8257 17.0742 15.7565 16.9361 15.7054C16.939 15.7035 16.9417 15.7018 16.9442 15.7001L16.949 15.6968L16.9506 15.6957L16.9507 15.6957L16.9507 15.6956C16.954 15.6934 16.957 15.6914 16.9599 15.6895C16.9611 15.6887 16.9623 15.6879 16.9635 15.6872C16.9647 15.6865 16.9658 15.6858 16.9669 15.6851C16.9681 15.6844 16.9694 15.6837 16.9706 15.6831C17.4138 15.4473 17.4412 14.9191 17.2009 14.6006C17.0026 14.3379 16.7222 14.2338 16.4066 14.2269C16.0922 14.2202 15.7775 14.2212 15.4628 14.2223C15.3326 14.2228 15.2023 14.2232 15.072 14.2231C15.0611 14.2231 15.0504 14.2241 15.0385 14.2253C15.0329 14.2258 15.027 14.2263 15.0208 14.2268ZM15.6947 16.7779V16.0298C15.7765 16.0298 15.8581 16.0284 15.9395 16.027C16.1279 16.0238 16.3153 16.0206 16.5013 16.0347C16.7021 16.05 16.8161 16.2132 16.811 16.4129C16.8062 16.6036 16.6772 16.7476 16.4801 16.7708C16.3964 16.7806 16.3116 16.7811 16.2269 16.7816C16.2111 16.7817 16.1953 16.7818 16.1795 16.782C16.0663 16.7831 15.9533 16.7826 15.8401 16.7821H15.8401H15.8401H15.84H15.84H15.84H15.84H15.8399H15.8395C15.797 16.7819 15.7545 16.7817 15.712 16.7816C15.7111 16.7816 15.7101 16.7815 15.709 16.7813C15.7084 16.7812 15.7077 16.7811 15.707 16.7809L15.7048 16.7804L15.7032 16.78C15.7009 16.7794 15.6982 16.7787 15.6947 16.7779ZM15.8935 15.4312C15.8267 15.4306 15.7594 15.43 15.6916 15.43V15.4299V14.8162C15.6935 14.8151 15.6953 14.8139 15.697 14.8127C15.7007 14.8102 15.7041 14.8078 15.7075 14.8078C15.7723 14.8081 15.8371 14.8076 15.902 14.8071H15.902C16.0565 14.806 16.211 14.8048 16.3648 14.8147C16.578 14.8283 16.7034 15.0243 16.6382 15.2188C16.5941 15.3502 16.4928 15.4217 16.3612 15.4274C16.2063 15.434 16.051 15.4326 15.8935 15.4312ZM12.5859 14.2283V14.2285H11.9141V14.3073C11.9141 14.4562 11.914 14.6051 11.914 14.754V14.7541V14.7541C11.9139 15.171 11.9138 15.588 11.9146 16.005C11.9148 16.0929 11.9165 16.1816 11.9273 16.2687C11.966 16.584 12.0895 16.8602 12.3251 17.0784C12.758 17.4795 13.5031 17.5518 14.0217 17.2393C14.4499 16.9814 14.6406 16.5846 14.6466 16.0974C14.6518 15.6756 14.6506 15.2539 14.6493 14.8321L14.6493 14.8312C14.6488 14.6525 14.6483 14.4738 14.6482 14.295C14.6482 14.2806 14.6474 14.2662 14.6465 14.2511L14.6465 14.251L14.6465 14.2509L14.6465 14.2508L14.6465 14.2508C14.646 14.243 14.6455 14.235 14.6452 14.2267H13.9795V14.3027C13.9795 14.4398 13.9796 14.5769 13.9796 14.714V14.714V14.714V14.714V14.714V14.714V14.714V14.714C13.9798 15.1428 13.98 15.5715 13.9784 16.0004C13.978 16.0879 13.9729 16.1775 13.9538 16.2626C13.8943 16.5284 13.7365 16.713 13.4679 16.7782C13.196 16.8442 12.9491 16.7885 12.758 16.5708C12.6209 16.4145 12.585 16.2229 12.5855 16.0207C12.5863 15.612 12.5862 15.2035 12.586 14.7949V14.7948V14.7948V14.7948V14.7948V14.7948V14.7948V14.7948L12.586 14.788C12.586 14.6268 12.5859 14.4657 12.5859 14.3045V14.2285H12.5861L12.5859 14.2283ZM9.09128 16.8096C8.93715 16.6553 8.7909 16.509 8.64058 16.3589V16.3586L8.63537 16.3647L8.62971 16.3714C8.62157 16.3811 8.6134 16.3907 8.60488 16.4001C8.35312 16.6759 8.0462 16.8241 7.66739 16.7979C6.93919 16.7475 6.50585 15.9448 6.86077 15.3066C7.17483 14.7419 7.91103 14.6114 8.42107 15.0317C8.47031 15.0724 8.51591 15.1173 8.56025 15.1611L8.56028 15.1611C8.58067 15.1812 8.60079 15.201 8.62088 15.2201C8.70203 15.1395 8.78368 15.0583 8.86596 14.9766L9.06568 14.7781C9.05992 14.7713 9.05415 14.7641 9.04826 14.7568C9.03563 14.7411 9.02251 14.7247 9.00806 14.7098C8.51501 14.2 7.91927 14.0433 7.24303 14.2286C6.21469 14.5104 5.72914 15.6767 6.25088 16.5864C6.805 17.5522 8.14998 17.7043 8.93801 16.969C8.97531 16.9341 9.01013 16.8966 9.04424 16.8598L9.04426 16.8597C9.06003 16.8427 9.07564 16.8259 9.09128 16.8096ZM10.1715 16.7346H11.6256V17.3563H9.50604V14.2263H10.1715V16.7346ZM17.2143 14.3227H17.3354V14.6368H17.4273V14.3227H17.5485V14.2308H17.2143V14.3227ZM17.669 14.418V14.6368H17.5772V14.2308H17.669H17.6788H17.7213L17.7797 14.4945L17.839 14.2308H17.8862H17.9732V14.6368H17.8814V14.459L17.8436 14.6368H17.7166L17.669 14.418Z" fill="black"/>
</g>
</svg>
