<svg id="Layer_2" data-name="Layer 2" xmlns="http://www.w3.org/2000/svg" width="40" height="40" viewBox="0 0 40 40"><path d="M24.38,26.2A0.35,0.35,0,0,0,24,25.85l-0.24,0v0.72H24A0.33,0.33,0,0,0,24.38,26.2Zm-0.31,1.17h-0.3v0.74a0.74,0.74,0,0,0,.26,0,0.39,0.39,0,0,0,.45-0.42A0.34,0.34,0,0,0,24.06,27.38ZM16.83,14.67v0a2.79,2.79,0,0,0,1.76-2.7c0-1.65-1.11-2.94-4-2.94-1.23,0-2.86.05-3.55,0.08V20.92C11.72,21,13.3,21,14.42,21,17,21,19,19.88,19,17.44A2.67,2.67,0,0,0,16.83,14.67ZM13,11c0.39,0,1-.05,1.51-0.05,1.16,0,1.93.51,1.93,1.48A1.59,1.59,0,0,1,14.62,14H13V11Zm1.58,8C14,19,13.3,19,13,19V15.82h1.69c1.35,0,2.14.51,2.14,1.51S16,19,14.58,19ZM29.2,12.69C29.2,10.62,28.1,9,24.74,9L21,9V21h2V16.52h1.67L28.06,21h2.62l-3.85-4.89A3.47,3.47,0,0,0,29.2,12.69Zm-4.64,1.86H23V11l1.64,0c1.76,0,2.28.8,2.28,1.74C26.92,13.94,25.81,14.56,24.57,14.56ZM36.73,6.75l0-.8-0.79-.13C24.27,3.82,20.74.5,20.71,0.48L20-.22l-0.71.69S15.73,3.82,4.09,5.82L3.31,6l0,0.8c0,0.58-.78,14.25.42,18.42C4.74,28.11,9,31.9,13.55,35.91l0.91,0.83C16.19,38.34,18,40,20,40s3.81-1.66,5.54-3.26l0.91-.83c4.53-4,8.8-7.8,9.88-10.81C37.52,21,36.77,7.33,36.73,6.75ZM19,29H17V25h1v3h1v1Zm3-1.49A1.43,1.43,0,0,1,20.5,29,1.41,1.41,0,0,1,19,27.48V25h1v2.31c0,0.52,0,.69.5,0.69s0.5-.11.5-0.64V25h1v2.51ZM23,29V25c0.19,0,.65,0,1,0a1,1,0,0,1,1.13,1,1,1,0,0,1-.38.88h0a0.92,0.92,0,0,1,.48.9A1.15,1.15,0,0,1,24,29C23.64,29,23.2,29,23,29Zm11.43-4.51c-0.89,2.46-5.17,6.26-9.31,9.92l-0.94.86L24,35.44V30h1a3,3,0,0,0,2.22-1H30l-2-2,2-2H27.22A3,3,0,0,0,25,24H24V22.72A2,2,0,0,1,23,23H21a2,2,0,0,1-1.91-1.43A6.62,6.62,0,0,1,16,22.86V24H15a3,3,0,0,0-2.22,1H10l2,2-2,2h2.78A3,3,0,0,0,15,30h1v5.44l-0.19-.17-0.94-.86C10.73,30.75,6.45,27,5.59,24.55,4.65,21.3,5.08,10.65,5.22,7.65A51.15,51.15,0,0,0,16,4.62V7.1a5.77,5.77,0,0,1,3.1,1.35A2,2,0,0,1,21,7l2.37,0H24V4.62a51.16,51.16,0,0,0,10.78,3C34.92,10.65,35.35,21.29,34.43,24.49ZM25.85,25.6V25.36h0.93V25.6H26.44v0.88H26.18V25.6H25.85Zm1.72,0.6h0l-0.31-.43v0.71H27V25.36h0.26l0.35,0.47,0.33-.47h0.24v1.12H27.88V25.77ZM15,28a2.07,2.07,0,0,0,.73-0.11L16,28.55a1.43,1.43,0,0,1-1.09.45,2,2,0,0,1,0-4,1.57,1.57,0,0,1,1.1.4l-0.41.66A3.64,3.64,0,0,0,14.9,26a0.84,0.84,0,0,0-.9,1A0.89,0.89,0,0,0,15,28Z" fill="none" fill-rule="evenodd"/></svg>