<svg id="Layer_2" data-name="Layer 2" xmlns="http://www.w3.org/2000/svg" width="25" height="25" viewBox="0 0 25 25"><path d="M14.75,16.78H14.57v0.56a0.37,0.37,0,0,0,.16,0A0.26,0.26,0,0,0,15,17.05,0.23,0.23,0,0,0,14.75,16.78Zm0.19-.88a0.24,0.24,0,0,0-.22-0.27l-0.14,0v0.54h0.15C14.85,16.19,14.94,16.12,14.94,15.9ZM22.83,4.68l0-.78L22,3.77C15.28,2.61,13.22.7,13.21,0.69L12.51,0l-0.71.68S9.72,2.61,3,3.77l-0.77.13,0,0.78c0,0.88-.46,8.64.27,11.18,0.66,1.85,3.24,4.15,6,6.59l0.53,0.49C10,24,11.14,25,12.5,25s2.48-1,3.57-2.06l0.53-.49c2.73-2.44,5.3-4.74,6-6.65C23.29,13.33,22.88,5.56,22.83,4.68ZM10,21.25L9.73,21c-1.1-1-2.27-2-3.24-3h1a2.49,2.49,0,0,0,2,1H10v2.25ZM9.11,17.38a0.61,0.61,0,0,0,.44-0.21l0.18,0.5a0.8,0.8,0,0,1-.66.34A1.27,1.27,0,0,1,8,16.5,1.26,1.26,0,0,1,9.06,15a0.77,0.77,0,0,1,.62.3l-0.21.5a0.59,0.59,0,0,0-.41-0.18,0.72,0.72,0,0,0-.57.88A0.75,0.75,0,0,0,9.11,17.38ZM11.46,18H10V15h0.64v2.45h0.83V18Zm1.89-1.09A0.9,0.9,0,0,1,12.53,18a0.93,0.93,0,0,1-.88-1.12V15h0.46v1.76c0,0.4.1,0.7,0.42,0.7s0.37-.26.37-0.67V15h0.46v1.91ZM14,18V15l0.72,0a0.65,0.65,0,0,1,.68.74,0.86,0.86,0,0,1-.23.66h0a0.73,0.73,0,0,1,.29.68,0.78,0.78,0,0,1-.77.91C14.5,18,14.12,18,14,18Zm1.27,3L15,21.25V19h0.5a2.49,2.49,0,0,0,2-1h1C17.53,19,16.37,20,15.27,21ZM16,15.21V15h0.81v0.21H16.52V16H16.29V15.21H16Zm4.7,0a8.65,8.65,0,0,1-1.92,2.53L18,16.81a2.46,2.46,0,0,0,0-.31,2.46,2.46,0,0,0,0-.31L19,15H18v1H17.78V15.36l-0.27.39h0l-0.27-.39V16H17V15H17.2l0.3,0.42L17.79,15h-0.3a2.49,2.49,0,0,0-2-1h-6a2.49,2.49,0,0,0-2,1H6l1,1.19a2.46,2.46,0,0,0,0,.31,2.46,2.46,0,0,0,0,.31l-0.81.93a8.58,8.58,0,0,1-1.9-2.47c-0.47-1.65-.34-7-0.22-9.71C5,5.39,9.2,4.23,10,3.9V5h5V3.9a30.78,30.78,0,0,0,5.89,1.66C21,8.27,21.15,13.61,20.7,15.21ZM10.53,9.31v0a1.63,1.63,0,0,0,1.06-1.57c0-1-.67-1.71-2.45-1.71C8.4,6,7.41,6,7,6V13c0.44,0,1.39,0,2.07,0,1.57,0,2.76-.65,2.76-2.08A1.57,1.57,0,0,0,10.53,9.31ZM8.21,7.17c0.23,0,.62,0,0.92,0A1,1,0,0,1,10.3,8a1,1,0,0,1-1.11.92h-1V7.17Zm1,4.69c-0.37,0-.78,0-1,0V10h1c0.82,0,1.3.3,1.3,0.88S10.05,11.86,9.17,11.86ZM18,8.15C18,6.95,17.29,6,15.26,6L13,6v7h1.21V10.39h1L17.27,13h1.58l-2.33-2.85A2,2,0,0,0,18,8.15ZM15.16,9.24H14.21V7.17l1,0c1.06,0,1.38.47,1.38,1A1.22,1.22,0,0,1,15.16,9.24Z" fill="none" fill-rule="evenodd"/></svg>