<?xml version="1.0" encoding="UTF-8"?>
<svg width="32px" height="32px" viewBox="0 0 32 32" version="1.1" xmlns="http://www.w3.org/2000/svg" xmlns:xlink="http://www.w3.org/1999/xlink">
    <title>br-link-sm</title>
    <g id="pinless/regular" stroke="none" stroke-width="1" fill="none" fill-rule="evenodd">
        <path d="M6.86926943,2.3153302 L12.8828644,10.9376397 L8.16389686,15.656 L8.34840592,15.9392826 C9.26590266,17.3109337 10.3295858,18.6244509 11.5400658,19.8803561 L11.9489969,20.2968581 C13.3302312,21.6780924 14.7825199,22.8780117 16.3065791,23.8974535 L16.5888969,24.081 L21.3082153,19.3629905 L29.9305276,25.3765876 L27.5258428,27.7812588 C26.226653,29.0804486 24.3195813,29.5624302 22.5591259,29.0365163 C18.0912435,27.7017924 14.0798302,25.2561185 10.5347833,21.7110717 C6.98974165,18.1660301 4.54406964,14.1546232 3.20934793,9.68675986 C2.70627542,8.00284185 3.1253823,6.18476799 4.29977928,4.89285591 L4.4645902,4.72000943 L6.86926943,2.3153302 Z M21.5378969,21.961 L18.3618969,25.137 L18.646585,25.2913627 C19.9233918,25.9627016 21.2463607,26.5188029 22.6158583,26.9600953 L23.1316016,27.1201991 C24.1218569,27.4160254 25.1894294,27.1803448 25.9613085,26.5074284 L26.1116313,26.3670432 L26.8278969,25.65 L21.5378969,21.961 Z M16.8928969,2 C24.0725986,2 29.8928969,7.82029825 29.8928969,15 C29.8928969,15.5522847 29.4451816,16 28.8928969,16 C28.3406121,16 27.8928969,15.5522847 27.8928969,15 C27.8928969,8.92486775 22.9680291,4 16.8928969,4 C16.3406121,4 15.8928969,3.55228475 15.8928969,3 C15.8928969,2.44771525 16.3406121,2 16.8928969,2 Z M16.8928969,6 C21.8634596,6 25.8928969,10.0294373 25.8928969,15 C25.8928969,15.5522847 25.4451816,16 24.8928969,16 C24.3406121,16 23.8928969,15.5522847 23.8928969,15 C23.8928969,11.1340067 20.7588901,8 16.8928969,8 C16.3406121,8 15.8928969,7.55228475 15.8928969,7 C15.8928969,6.44771525 16.3406121,6 16.8928969,6 Z M16.8928969,10 C19.6543206,10 21.8928969,12.2385763 21.8928969,15 C21.8928969,15.5522847 21.4451816,16 20.8928969,16 C20.3406121,16 19.8928969,15.5522847 19.8928969,15 C19.8928969,13.4023191 18.6439769,12.0963391 17.0691696,12.0050927 L16.8928969,12 C16.3406121,12 15.8928969,11.5522847 15.8928969,11 C15.8928969,10.4477153 16.3406121,10 16.8928969,10 Z M6.59389686,5.418 L5.87880376,6.13422299 C5.09928302,6.91374373 4.81009649,8.05799171 5.12566129,9.11427136 C5.58983326,10.6680461 6.19924192,12.1628752 6.95449777,13.5992805 L7.10789686,13.883 L10.2838969,10.707 L6.59389686,5.418 Z" id="Combined-Shape" fill="#E21B23" fill-rule="nonzero"></path>
    </g>
</svg>