<?xml version="1.0" encoding="UTF-8"?>
<svg width="32px" height="32px" viewBox="0 0 32 32" version="1.1" xmlns="http://www.w3.org/2000/svg" xmlns:xlink="http://www.w3.org/1999/xlink">
    <title>br-market-sm</title>
    <g id="br-market-sm" stroke="none" stroke-width="1" fill="none" fill-rule="evenodd">
        <path d="M27.677033,7 L32.477033,19 L28.399967,19 L28.4,32 L4,32 L3.99996704,19 L-0.477032961,19 L4.32296704,7 L27.677033,7 Z M26.399967,19 L5.99996704,19 L5.999,29.999 L26.399,29.999 L26.399967,19 Z M14,23.5 C14.5522847,23.5 15,23.9477153 15,24.5 C15,25.0128358 14.6139598,25.4355072 14.1166211,25.4932723 L14,25.5 L10,25.5 C9.44771525,25.5 9,25.0522847 9,24.5 C9,23.9871642 9.38604019,23.5644928 9.88337887,23.5067277 L10,23.5 L14,23.5 Z M26.323,9 L5.676,9 L2.476,17 L29.523,17 L26.323,9 Z M27,1.5 C27.5522847,1.5 28,1.94771525 28,2.5 C28,3.01283584 27.6139598,3.43550716 27.1166211,3.49327227 L27,3.5 L5,3.5 C4.44771525,3.5 4,3.05228475 4,2.5 C4,1.98716416 4.38604019,1.56449284 4.88337887,1.50672773 L5,1.5 L27,1.5 Z" id="Combined-Shape" fill="#E21B23" fill-rule="nonzero"></path>
    </g>
</svg>