<?xml version="1.0" encoding="utf-8"?>
<svg width="32px" height="33px" viewBox="0 0 32 33" version="1.1" xmlns:xlink="http://www.w3.org/1999/xlink" xmlns="http://www.w3.org/2000/svg">
  <g id="Group">
    <path d="M14.5657 0.0436523C12.3848 0.239613 10.5516 0.751646 8.65519 1.69353C6.16457 2.93884 4.17966 4.62664 2.60564 6.84544C2.09994 7.55976 1.41723 8.6976 1.4678 8.74817C1.48676 8.76714 2.4729 9.01999 3.66131 9.31077C5.3744 9.73431 5.91172 9.84177 6.27836 9.84177C6.95475 9.84177 7.44149 9.67109 8.14948 9.17803C9.69822 8.09707 11.5251 7.0983 12.5934 6.73166C13.0801 6.5673 13.2698 6.5357 13.7439 6.5357C14.3697 6.5357 14.9513 6.66844 15.4254 6.90866C15.7351 7.06037 16.1776 7.41436 16.1776 7.50286C16.1776 7.52815 15.7288 7.83158 15.1852 8.16661C13.5543 9.17803 12.1256 10.1642 11.7527 10.5371C11.1458 11.144 10.8045 11.9847 10.8045 12.876C10.8045 14.0644 11.4366 15.0759 12.4923 15.5816C12.9537 15.8028 13.0233 15.8155 13.5859 15.8155C14.3128 15.8155 14.5341 15.7333 16.1776 14.8546C18.3775 13.6788 18.5418 13.6093 19.0159 13.584C19.825 13.5398 19.7429 13.4766 23.1943 16.8775C24.8821 18.54 26.3234 20.0002 26.3993 20.133C26.8038 20.7967 26.5067 21.7007 25.7671 22.0736C25.3815 22.2633 25.0339 22.2759 24.6672 22.1052C24.5029 22.0294 24.0224 21.6122 23.3903 20.9927C22.834 20.4427 22.2967 19.9433 22.1956 19.8801C22.0312 19.779 21.9996 19.7726 21.9301 19.8611C21.81 20.0065 22.0249 20.2847 23.1501 21.4541C24.0224 22.3581 24.1489 22.5161 24.2374 22.8132C24.4333 23.4896 24.1299 24.1597 23.4851 24.4757C22.7834 24.8171 22.3662 24.6085 20.8997 23.1862C19.8819 22.2 19.4142 21.7892 19.3193 21.7892C19.2245 21.7892 19.2814 22.0673 19.4142 22.2506C19.49 22.3644 19.9894 22.8954 20.5141 23.4327C21.0387 23.9763 21.5192 24.5137 21.5824 24.6274C21.6393 24.7412 21.6899 24.9814 21.6899 25.1648C21.6962 26.1825 20.6848 26.9284 19.7998 26.5618C19.6481 26.4986 19.1297 26.0182 18.3206 25.1964C17.0626 23.9068 16.873 23.7677 16.8224 24.1091C16.8098 24.2166 17.031 24.4821 17.7516 25.2217C18.27 25.759 18.7567 26.3153 18.8263 26.4543C19.4015 27.5795 18.1436 28.9007 17.0247 28.3571C16.873 28.2875 16.5822 28.0473 16.3736 27.8197L15.988 27.4088L15.988 26.8589C15.988 25.6136 15.438 24.6527 14.4519 24.1597C14.2117 24.0396 13.9715 23.9384 13.9272 23.9384C13.8766 23.9384 13.8387 23.8878 13.8387 23.8246C13.8387 23.7614 13.7439 23.5149 13.6238 23.2684C13.3456 22.6805 12.8968 22.238 12.29 21.9472C12.0308 21.8208 11.8159 21.688 11.8159 21.6501C11.8159 21.4415 11.3797 20.7461 11.051 20.4301C10.7223 20.114 10.1407 19.7663 9.93843 19.7663C9.89418 19.7663 9.85625 19.7284 9.85625 19.6841C9.85625 19.6462 9.77407 19.4313 9.67293 19.2227C9.35686 18.5463 8.84483 18.0848 8.11788 17.8067C7.58056 17.5981 6.58811 17.5981 6.00022 17.8004C5.06466 18.1291 4.29977 18.8055 3.90785 19.6652C3.71188 20.1013 3.68028 20.1393 3.53489 20.114C3.44639 20.095 2.69414 20.0002 1.85972 19.8927C1.0253 19.7916 0.260418 19.6905 0.159276 19.6715C-0.0177227 19.6399 -0.0177227 19.6462 0.0202057 19.8801C0.0834194 20.31 0.431095 21.4225 0.728199 22.1937C2.37175 26.4038 5.7284 29.7478 9.98268 31.4166C11.8791 32.1562 13.7313 32.4912 15.9248 32.4912C17.8085 32.4849 19.3067 32.251 21.0451 31.6758C21.987 31.3597 23.6242 30.5948 24.4586 30.0701C27.8026 27.9841 30.2996 24.7159 31.4374 20.9484C31.6776 20.1646 31.8989 19.1405 31.9558 18.5716L32 18.2049L30.4576 18.5779C28.125 19.1468 27.7078 19.1152 26.8544 18.3377C26.6332 18.1354 25.0907 16.6499 23.4282 15.0316C21.7594 13.4133 20.2992 12.029 20.1727 11.9594C19.9894 11.8646 19.8187 11.833 19.4015 11.833C18.7567 11.833 18.8642 11.7824 16.3673 13.2174C15.4127 13.7673 14.4898 14.273 14.3128 14.3426C13.7186 14.5765 13.0865 14.469 12.5934 14.0518C12.3469 13.8432 12.0814 13.3248 12.0308 12.9329C11.9549 12.383 12.3153 11.5738 12.7767 11.2451C13.2508 10.9164 16.4052 8.89357 18.2321 7.75572C21.083 5.97309 21.3359 5.85931 22.0755 6.07423C22.5685 6.21963 23.0869 6.58627 24.8695 8.07179C25.7292 8.7861 26.5067 9.40559 26.5952 9.45617C26.6901 9.50674 26.9935 9.56363 27.2716 9.57627C27.7394 9.60156 27.8658 9.57627 29.01 9.24124C29.6864 9.04528 30.2616 8.86828 30.2932 8.84931C30.3628 8.80507 29.9772 8.11604 29.3577 7.1868C27.1389 3.85544 23.7 1.43435 19.8124 0.479824C18.2194 0.0879026 16.0638 -0.0890987 14.5657 0.0436523L14.5657 0.0436523ZM7.56159 19.1658C7.95984 19.3301 8.21902 19.5767 8.38337 19.937C8.5098 20.2151 8.53508 20.3542 8.51612 20.7208L8.49716 21.1633L8.79426 21.1254C9.78672 20.9863 10.6591 21.865 10.5263 22.8638L10.4884 23.1609L10.9435 23.1546C11.2975 23.1546 11.4682 23.1862 11.6642 23.2936C11.9929 23.4643 12.3405 23.8626 12.4354 24.185C12.5302 24.4821 12.5302 25.0131 12.448 25.2343C12.3848 25.3987 12.3911 25.3987 12.5871 25.3607C13.7565 25.1016 14.6795 25.8854 14.5846 27.0612C14.5088 27.9967 13.8324 28.7616 12.7767 29.1156C11.8854 29.419 11.1395 29.1978 10.7981 28.5404C10.6275 28.2117 10.6527 27.8387 10.8677 27.2951C10.9688 27.0359 11.0447 26.8083 11.0257 26.7957C11.0131 26.783 10.8108 26.8336 10.5706 26.9158C9.69189 27.2129 9.07872 27.0485 8.78794 26.4543C8.61094 26.0877 8.61726 25.74 8.81322 25.228C8.90172 24.9941 8.96494 24.7981 8.9523 24.7855C8.94597 24.7728 8.71208 24.8361 8.44658 24.9182C8.17477 25.0067 7.87134 25.0763 7.76388 25.0763C7.28978 25.0763 6.82199 24.6654 6.69557 24.1217C6.62603 23.8499 6.63868 23.7741 6.80935 23.281C6.91049 22.9839 6.98635 22.7374 6.97371 22.7374C6.96106 22.7374 6.7335 22.8132 6.46168 22.9017C5.65254 23.1735 5.15315 23.0092 4.8118 22.3518C4.68537 22.1115 4.66641 22.0041 4.69169 21.5932C4.74227 20.5438 5.57669 19.4123 6.50593 19.1279C6.77774 19.0457 7.32138 19.0646 7.56159 19.1658L7.56159 19.1658Z" id="Shape" fill="#000000" fill-rule="evenodd" stroke="none" />
  </g>
</svg>