<?xml version="1.0" encoding="UTF-8"?>
<svg width="32px" height="32px" viewBox="0 0 32 32" version="1.1" xmlns="http://www.w3.org/2000/svg" xmlns:xlink="http://www.w3.org/1999/xlink">
    <title>br-market</title>
    <g id="br-market" stroke="none" stroke-width="1" fill="none" fill-rule="evenodd">
        <path d="M28.0155494,6.5 L33.2155494,19.5 L28.8994506,19.5 L28.9,32.5 L3.5,32.5 L3.49945056,19.5 L-1.21554944,19.5 L3.98445056,6.5 L28.0155494,6.5 Z M25.8994506,19.5 L6.49945056,19.5 L6.499,29.499 L25.899,29.499 L25.8994506,19.5 Z M14,23 C14.8284271,23 15.5,23.6715729 15.5,24.5 C15.5,25.2796961 14.9051119,25.9204487 14.14446,25.9931334 L14,26 L10,26 C9.17157288,26 8.5,25.3284271 8.5,24.5 C8.5,23.7203039 9.09488808,23.0795513 9.85553999,23.0068666 L10,23 L14,23 Z M25.984,9.5 L6.015,9.5 L3.215,16.5 L28.784,16.5 L25.984,9.5 Z M27,1 C27.8284271,1 28.5,1.67157288 28.5,2.5 C28.5,3.27969612 27.9051119,3.92044868 27.14446,3.99313342 L27,4 L5,4 C4.17157288,4 3.5,3.32842712 3.5,2.5 C3.5,1.72030388 4.09488808,1.07955132 4.85553999,1.00686658 L5,1 L27,1 Z" id="Combined-Shape" fill="#5AA617" fill-rule="nonzero"></path>
    </g>
</svg>