<svg id="Layer_2" data-name="Layer 2" xmlns="http://www.w3.org/2000/svg" width="25" height="25" viewBox="0 0 25 25"><path d="M1.37,0.16A0.91,0.91,0,0,0,.11.36,0.73,0.73,0,0,0,0,.93a1.06,1.06,0,0,0,.51.64,1.14,1.14,0,0,0,.57.16l0.1,0L4.88,3.9l0.05-.11,0.53-.86L1.86,0.78A1,1,0,0,0,1.37.16ZM17.85,6.75l0.46-.82,0.27-.47L19,4.64l-1.82-.73L17,4.51l-0.39.9-0.2.47,1.39,0.19ZM12.63,5.32L15,5.57l0.09-.17,1-2-2.25-.57-0.19.38L13.1,4.35l-0.27.54Zm9.1,5.47L23.8,7.85,22.52,6.68l-2,3.54ZM18.23,9.73l1.19,0.42,0.21-.4,1.9-3.63,0.13-.24-1.42-.78,0,0-0.45,1-0.88,2Zm6.09-.89-1.78,2.51L22.06,12l-0.76-.36-1.21-.57,0,0-0.16.28-0.79-.28-1.26-.44L17.69,11,22,13.56l0.64,0.38,2.26-3.67A1.16,1.16,0,0,0,24.32,8.85ZM17,10.34l0.27,0.38,0.15,0.09,0-.34-0.2-.07Zm-0.42,1.14L15.28,9.69l-1.79-.23L14,9l-0.46-.51L14,8.68l0.78,0.27L17,8.23l0.45-.15L17.35,6.53l-5.41-.75-0.53.84-0.15.24L9.34,9.92l4.84,6.34L13.78,25h7l-0.55-9.15S21,15,21.5,14.42ZM8.42,5.19l2,1.16,0.69-1.1,0.34-.55,0.36,0,0.55-1.12L10.17,2.35Zm1.45,2L7.89,6a1.06,1.06,0,0,1-.5-0.63,0.74,0.74,0,0,1,.08-0.57L9.41,1.67a0.91,0.91,0,0,1,1.26-.19l2.12,1.24,0.16-.32L13,2.21,9.74,0.28a2,2,0,0,0-1-.28A0.87,0.87,0,0,0,8,.36l-2.44,4a1.25,1.25,0,0,0,.75,1.54L9.53,7.74Z" fill="none"/></svg>