<svg id="Layer_2" data-name="Layer 2" xmlns="http://www.w3.org/2000/svg" width="40" height="40" viewBox="0 0 40 40"><path d="M2.19,1A1.28,1.28,0,0,0,1.57.2,1.07,1.07,0,0,0,.11.38,0.78,0.78,0,0,0,0,1a1.28,1.28,0,0,0,.62.76,1.42,1.42,0,0,0,.71.2A1,1,0,0,0,1.6,1.89l6,3.59,0.52-.85L2.2,1.09A0.81,0.81,0,0,0,2.19,1Zm27,8.09,0,0.51,0.46-.81,0.75-1.32-3-1.18-0.42,1L26.48,8.67,28,8.88Zm-4.89-.68,1.41-2.9-3.62-.92-1,2L20.53,7.85Zm10.41,8.88,2.77-3.93,0.54-.76L36,10.68l-3.18,5.67Zm-5.61-1.69,1.93,0.68L31.24,16l0.19-.36,2.35-4.49,0.69-1.31,0.2-.39-2.3-1.26,0,0.06L30.23,13.1ZM13.46,8.31l3.19,1.87L17.76,8.4l0.54-.87,0.57,0.08,0.89-1.82-3.5-2.05Zm13.63,8.21,0.47,0.67,0.28,0.16-0.08-.6-0.34-.12Zm-11.27-5L12.63,9.65a1.68,1.68,0,0,1-.8-1A1.17,1.17,0,0,1,12,7.74l3.11-5.05a1.45,1.45,0,0,1,2-.31l3.41,2,0.25-.52,0.15-.3-5.29-3.1A3.12,3.12,0,0,0,14,0,1.4,1.4,0,0,0,12.8.57L8.9,6.91C8.46,7.62,9,8.72,10.1,9.37l5.17,3ZM38.9,14.15l-2.84,4-0.76,1.08-1.2-.57-1.94-.91-0.09,0-0.25.45-1.25-.44-2-.72-0.25.58,6.93,4.11,1,0.61,3.62-5.88C40.25,15.78,39.82,14.8,38.9,14.15ZM26.47,18.37l-2-2.86-2.87-.37,0.74-.74-0.17-.19-0.56-.63,0.87,0.3,1.26,0.44,4.24-1.39-0.19-2.48L19.1,9.24,15,15.87,22.7,26,22.05,40H33L32.37,25.36s1.22-1.44,2-2.3Z" fill="none"/></svg>