<?xml version="1.0" encoding="utf-8"?>
<svg width="25px" height="26px" viewbox="0 0 25 26" version="1.1" xmlns:xlink="http://www.w3.org/1999/xlink" xmlns="http://www.w3.org/2000/svg">
  <path d="M23.8743 13.0066L19.4417 20.0747C19.2682 20.3511 18.9975 20.5434 18.6791 20.6165C18.3603 20.6898 18.033 20.6334 17.7563 20.4603L13.0314 17.4951C12.6214 17.2377 12.2846 16.8792 12.0532 16.454L11.6903 15.7871C11.6627 15.7361 11.7207 15.6815 11.77 15.7122L17.8853 19.5505C18.0067 19.6269 18.1442 19.6662 18.2843 19.6662C18.3403 19.6662 18.3972 19.6597 18.4533 19.6469C18.6494 19.602 18.816 19.4837 18.9227 19.3133L23.7176 11.6335C23.7384 11.5999 23.789 11.5967 23.8127 11.6282C24.1062 12.0208 24.1499 12.5671 23.8743 13.0066L23.8743 13.0066ZM17.3275 24.7953L9.20723 24.7953C9.15719 24.7953 9.11526 24.7535 9.11526 24.7036L9.11526 24.5515C9.11542 24.064 9.25858 21.0421 9.16775 20.8451C9.1021 20.7031 5.72202 14.4091 4.99927 13.0508C4.90406 12.8718 4.91295 12.6568 5.0215 12.4855L7.79742 8.10218C7.81578 8.08219 7.83707 8.06952 7.8525 8.06854L15.2548 9.60202C15.2986 9.60868 15.3285 9.64638 15.3314 9.69627C15.3301 9.80774 15.3291 9.93172 15.3278 10.0737C15.3275 10.1064 15.3272 10.1345 15.3268 10.1656L15.3259 10.2232C15.3359 10.7073 15.1744 11.1581 14.8944 11.4286C14.7581 11.5603 14.5876 11.6452 14.3891 11.6946C14.3871 11.6951 14.3848 11.6956 14.3826 11.6961C14.2503 11.7284 14.1079 11.7481 13.9467 11.7452C13.9209 11.7449 13.8987 11.7481 13.8722 11.747L13.7955 11.7468L9.66791 11.7429C9.4045 11.7463 9.17912 11.8724 9.04977 12.089C8.9981 12.1753 8.97177 12.2723 8.95796 12.3721C8.93472 12.5413 8.96105 12.7215 9.04831 12.8942L9.04717 12.8934L9.05026 12.8989C9.05156 12.9015 9.05205 12.9044 9.05335 12.907L9.21714 13.2081L11.3203 17.1036C11.5491 17.5274 11.8821 17.8851 12.2886 18.1436C13.638 19.0008 16.6573 20.9181 17.2085 21.2683C17.2521 21.2959 17.2717 21.3482 17.2527 21.3961C17.1468 21.6657 17.4217 24.5014 17.4217 24.6987C17.4217 24.7506 17.3793 24.7953 17.3275 24.7953L17.3275 24.7953ZM4.65113 11.3111L4.26278 11.9254C4.24616 11.9515 4.21156 11.9597 4.18522 11.9431L1.51304 10.266C0.942273 9.90799 0.769312 9.15222 1.127 8.58154L5.52654 1.5661C5.69879 1.29148 5.95764 1.07 6.27012 0.984362C6.37883 0.954786 6.48852 0.940002 6.59772 0.940002C6.82488 0.940002 7.04767 1.0037 7.24477 1.12736L9.90077 2.79441C9.92709 2.81082 9.93505 2.84527 9.91913 2.87176L9.53938 3.49087C9.5228 3.51752 9.4877 3.5258 9.46122 3.50907L7.11591 2.03718C6.94546 1.93042 6.74347 1.89678 6.54848 1.94098C6.35218 1.98567 6.18579 2.10397 6.0787 2.27475L2.06559 8.68537C1.9528 8.86444 1.91662 9.07682 1.96372 9.28352C2.0112 9.49005 2.13605 9.66587 2.31506 9.77815L4.63348 11.2333C4.65982 11.2499 4.66795 11.2848 4.65113 11.3111L4.65113 11.3111ZM5.24378 10.3729C5.21078 10.4259 5.14102 10.4416 5.08814 10.4086L3.03549 9.12038C2.98268 9.08723 2.96681 9.01752 2.99981 8.96487L6.71568 3.02922C6.74867 2.97625 6.81838 2.96032 6.87119 2.99363L8.9227 4.28109C8.97535 4.31408 8.99128 4.38363 8.95813 4.43644L5.24378 10.3729ZM11.146 2.64102C11.1723 2.59844 11.2238 2.57797 11.2722 2.59146L14.0603 3.3612C14.1323 3.38119 14.1655 3.46439 14.1268 3.52857L11.5233 7.83114C11.5108 7.85161 11.4869 7.86201 11.4633 7.85714L8.42255 7.22714C8.3842 7.21918 8.36535 7.17579 8.38583 7.14248L11.146 2.64102ZM15.0928 3.72179C15.1187 3.67921 15.1691 3.65841 15.2173 3.67077L17.9785 4.36625C18.0527 4.38493 18.0872 4.4709 18.0462 4.53589L15.4547 8.6472C15.4422 8.66719 15.4198 8.67743 15.3969 8.67255C15.0608 8.603 12.5581 8.08415 12.5581 8.08415C12.5199 8.07603 12.501 8.03297 12.521 7.99966L15.0928 3.72179ZM18.8449 5.03197C18.8853 4.96762 18.9765 4.96112 19.0259 5.01848L20.8164 7.10591C20.8484 7.14328 20.8528 7.1969 20.8268 7.23883L18.2474 11.4026C18.0195 11.7341 17.8715 11.8901 17.257 11.5537L16.2911 10.9567C16.2745 10.9467 16.2643 10.9307 16.2643 10.9112C16.2613 10.4457 16.2735 9.46697 16.2813 9.11224C16.2815 9.10201 16.2844 9.09372 16.2901 9.08478L18.8449 5.03197ZM21.7002 13.1046L18.2859 18.5586C18.2527 18.6114 18.183 18.6274 18.1302 18.5942L11.2956 14.3048C10.8857 14.0474 10.549 13.6889 10.3176 13.2639L10.0925 12.8503C10.0517 12.7751 10.1062 12.6834 10.1916 12.6834L13.8463 12.6863C14.1725 12.7031 14.4771 12.6646 14.7542 12.5754C15.0548 12.4787 15.3228 12.322 15.5477 12.1046C15.6312 12.0242 15.7068 11.9351 15.776 11.8404C15.8041 11.802 15.8564 11.7907 15.8969 11.8159L16.7839 12.3659C16.8445 12.3992 16.9026 12.4254 16.9612 12.4533C17.2682 12.5997 17.5501 12.6777 17.8083 12.6777C18.1154 12.6777 18.3905 12.5718 18.6413 12.3605C18.7792 12.2444 18.9102 12.0976 19.0343 11.9164L19.4053 11.3175C19.432 11.2749 19.4877 11.2619 19.5301 11.2886L21.0277 12.2286L21.327 12.4164C21.386 12.4535 21.452 12.4905 21.5085 12.5281C21.7212 12.6698 21.8658 12.8302 21.7003 13.1046L21.7002 13.1046ZM21.6127 8.03655L23.4525 10.2307C23.485 10.2694 23.4877 10.3251 23.4591 10.3669L22.7306 11.4311C22.5339 11.7345 22.1242 11.8237 21.819 11.6324L20.0358 10.5131C19.9832 10.4803 19.9671 10.4109 19.9999 10.3583L21.4304 8.04971C21.4708 7.98422 21.5634 7.97756 21.6127 8.03654L21.6127 8.03655ZM24.3507 10.8131C24.3246 10.7874 24.32 10.7474 24.3405 10.7174L24.3582 10.6916C24.5412 10.4242 24.5238 10.0682 24.3158 9.81992L22.0257 7.08869L22.0321 7.07862L20.19 4.92977L19.7222 4.38378C19.4874 4.11014 19.2035 3.88589 18.8874 3.72047C18.6924 3.61859 18.4851 3.5388 18.2693 3.48437L15.0337 2.66993L11.3055 1.64052C10.8923 1.50532 10.6457 1.69431 10.4771 1.95998C10.4554 1.99427 10.4089 2.00353 10.3744 1.98176L7.78605 0.357127C7.66873 0.283679 7.54523 0.221114 7.41816 0.168956C7.08293 0.0314852 6.71942 -0.0287999 6.35738 0.0131196C6.14906 0.0370046 5.95163 0.0919303 5.76557 0.168956C5.35413 0.339088 5.0048 0.628981 4.76347 1.01393L3.06596 3.72047L2.30763 4.92976L0.330699 8.08202C-0.303604 9.09372 0.00188844 10.4278 1.01318 11.0625L3.59407 12.6803C3.7334 12.7676 3.84701 12.8891 3.92414 13.0342C4.59952 14.3022 8.14549 21.0071 8.24575 21.1473C8.32147 21.2536 8.17522 24.2307 8.17522 24.5511L8.17522 24.7036C8.17522 25.2735 8.6372 25.7354 9.20724 25.7354L17.3275 25.7354C17.8987 25.7354 18.3887 25.2715 18.3619 24.7008C18.2301 21.8943 17.8808 21.5687 18.5075 21.5823C18.6348 21.5851 18.762 21.5619 18.8887 21.5328C19.452 21.4039 19.9312 21.0635 20.2379 20.5741L24.6707 13.506C25.2199 12.6296 25.0612 11.5086 24.3507 10.8131" id="brand-manual" fill="#262321" fill-rule="evenodd" stroke="none" />
</svg>