<?xml version="1.0" encoding="utf-8"?>
<svg width="40px" height="42px" viewbox="0 0 40 42" version="1.1" xmlns:xlink="http://www.w3.org/1999/xlink" xmlns="http://www.w3.org/2000/svg">
  <path d="M38.1989 20.8106L31.1068 32.1195C30.8291 32.5618 30.3959 32.8694 29.8866 32.9864C29.3765 33.1036 28.8529 33.0134 28.4101 32.7365L20.8503 27.9921C20.1943 27.5803 19.6553 27.0068 19.2851 26.3264L18.7045 25.2593C18.6603 25.1777 18.7532 25.0904 18.8319 25.1395L28.6165 31.2808C28.8108 31.403 29.0307 31.4659 29.2548 31.4659C29.3445 31.4659 29.4355 31.4555 29.5252 31.435C29.839 31.3632 30.1055 31.1739 30.2763 30.9012L37.9482 18.6137C37.9815 18.5598 38.0624 18.5546 38.1003 18.6051C38.5699 19.2332 38.6398 20.1073 38.1989 20.8106L38.1989 20.8106ZM27.724 39.6724L14.7316 39.6724C14.6515 39.6724 14.5844 39.6056 14.5844 39.5258L14.5844 39.2824C14.5847 38.5024 14.8137 33.6673 14.6684 33.3522C14.5633 33.125 9.15523 23.0546 7.99883 20.8813C7.8465 20.5948 7.86072 20.2508 8.03439 19.9768L12.4759 12.9635C12.5052 12.9315 12.5393 12.9112 12.564 12.9097L24.4077 15.3632C24.4777 15.3739 24.5255 15.4342 24.5302 15.514C24.5281 15.6924 24.5266 15.8908 24.5245 16.118C24.524 16.1702 24.5234 16.2152 24.5229 16.2649L24.5214 16.3572C24.5375 17.1317 24.279 17.8529 23.8311 18.2858C23.6129 18.4964 23.3402 18.6324 23.0225 18.7114C23.0194 18.7122 23.0157 18.713 23.0121 18.7138C22.8005 18.7655 22.5727 18.797 22.3148 18.7923C22.2735 18.7918 22.2378 18.797 22.1955 18.7951L22.0727 18.7949L15.4686 18.7886C15.0472 18.7941 14.6866 18.9959 14.4796 19.3424C14.3969 19.4805 14.3548 19.6357 14.3327 19.7953C14.2956 20.066 14.3377 20.3543 14.4773 20.6307L14.4755 20.6294L14.4804 20.6382C14.4825 20.6424 14.4833 20.6471 14.4853 20.6512L14.7474 21.133L18.1125 27.3658C18.4786 28.0439 19.0113 28.6161 19.6618 29.0298C21.8208 30.4013 26.6517 33.4689 27.5336 34.0292C27.6033 34.0734 27.6348 34.1571 27.6044 34.2338C27.4348 34.6652 27.8748 39.2023 27.8748 39.5179C27.8748 39.6009 27.8069 39.6724 27.724 39.6724L27.724 39.6724ZM7.44179 18.0978L6.82043 19.0806C6.79383 19.1225 6.73848 19.1355 6.69634 19.1089L2.42085 16.4255C1.50762 15.8528 1.23088 14.6436 1.80318 13.7305L8.84245 2.50575C9.11804 2.06636 9.53221 1.71199 10.0322 1.57497C10.2061 1.52765 10.3816 1.504 10.5563 1.504C10.9198 1.504 11.2762 1.60591 11.5916 1.80377L15.8412 4.47104C15.8833 4.49731 15.8961 4.55242 15.8706 4.5948L15.263 5.58538C15.2365 5.62802 15.1803 5.64128 15.1379 5.6145L11.3854 3.25948C11.1127 3.08866 10.7895 3.03485 10.4775 3.10557C10.1635 3.17707 9.89724 3.36634 9.7259 3.6396L3.30493 13.8966C3.12447 14.1831 3.06657 14.5229 3.14194 14.8536C3.21791 15.1841 3.41766 15.4654 3.70407 15.645L7.41355 17.9733C7.4557 17.9998 7.4687 18.0557 7.44179 18.0978L7.44179 18.0978ZM8.39004 16.5966C8.33723 16.6814 8.22562 16.7066 8.14101 16.6538L4.85678 14.5926C4.77228 14.5396 4.74688 14.428 4.79968 14.3438L10.7451 4.84675C10.7979 4.762 10.9094 4.73651 10.9939 4.78982L14.2763 6.84974C14.3606 6.90253 14.386 7.0138 14.333 7.0983L8.39004 16.5966ZM17.8336 4.22562C17.8757 4.1575 17.9581 4.12475 18.0356 4.14632L22.4965 5.37792C22.6117 5.40989 22.6648 5.54301 22.6029 5.64571L18.4373 12.5298C18.4172 12.5626 18.379 12.5792 18.3413 12.5714L13.4761 11.5634C13.4147 11.5507 13.3846 11.4813 13.4173 11.428L17.8336 4.22562ZM24.1485 5.95483C24.1899 5.88672 24.2705 5.85344 24.3477 5.8732L28.7655 6.98597C28.8843 7.01587 28.9394 7.15341 28.8739 7.25741L24.7276 13.8355C24.7075 13.8675 24.6716 13.8839 24.635 13.8761C24.0973 13.7648 20.0929 12.9346 20.0929 12.9346C20.0318 12.9216 20.0016 12.8527 20.0336 12.7994L24.1485 5.95483ZM30.1518 8.05116C30.2165 7.94821 30.3624 7.93781 30.4414 8.02958L33.3063 11.3695C33.3575 11.4293 33.3645 11.5151 33.3229 11.5821L29.1958 18.2442C28.8313 18.7746 28.5944 19.0242 27.6111 18.486L26.0657 17.5308C26.0392 17.5147 26.0228 17.4892 26.0228 17.458C26.0182 16.7131 26.0377 15.1472 26.0501 14.5796C26.0504 14.5632 26.0551 14.55 26.0642 14.5357L30.1518 8.05116ZM34.7204 20.9674L29.2574 29.6938C29.2044 29.7783 29.0928 29.8038 29.0083 29.7507L18.073 22.8877C17.417 22.4759 16.8783 21.9023 16.5081 21.2222L16.148 20.5605C16.0828 20.4401 16.1699 20.2935 16.3066 20.2935L22.1541 20.2982C22.6759 20.3249 23.1634 20.2633 23.6067 20.1206C24.0877 19.9659 24.5164 19.7153 24.8763 19.3674C25.0099 19.2387 25.1308 19.0962 25.2416 18.9446C25.2865 18.8833 25.3702 18.8651 25.435 18.9054L26.8543 19.7855C26.9513 19.8388 27.0441 19.8806 27.1379 19.9253C27.6291 20.1596 28.0802 20.2844 28.4933 20.2844C28.9847 20.2844 29.4248 20.1149 29.826 19.7769C30.0467 19.591 30.2563 19.3562 30.4549 19.0663L31.0485 18.108C31.0911 18.0399 31.1803 18.0191 31.2482 18.0617L33.6443 19.5658L34.1232 19.8663C34.2176 19.9256 34.3231 19.9849 34.4136 20.0449C34.7539 20.2716 34.9853 20.5283 34.7204 20.9674L34.7204 20.9674ZM34.5803 12.8585L37.5239 16.3691C37.5759 16.431 37.5803 16.5202 37.5346 16.587L36.369 18.2897C36.0542 18.7751 35.3987 18.9179 34.9105 18.6119L32.0573 16.821C31.973 16.7685 31.9473 16.6575 31.9998 16.5732L34.2886 12.8795C34.3533 12.7747 34.5015 12.7641 34.5803 12.8584L34.5803 12.8585ZM38.9612 17.301C38.9193 17.2599 38.912 17.1959 38.9448 17.1478L38.9731 17.1065C39.2659 16.6788 39.238 16.1091 38.9053 15.7119L35.2412 11.3419L35.2513 11.3258L32.304 7.88763L31.5555 7.01405C31.1798 6.57622 30.7256 6.21743 30.2199 5.95275C29.9079 5.78974 29.5762 5.66208 29.2309 5.57499L24.0539 4.27189L18.0889 2.62483C17.4277 2.40852 17.033 2.71089 16.7634 3.13597C16.7286 3.19083 16.6542 3.20565 16.5991 3.17082L12.4577 0.571403C12.27 0.453887 12.0724 0.353783 11.8691 0.270329C11.3327 0.0503763 10.7511 -0.0460799 10.1718 0.0209914C9.8385 0.0592073 9.52261 0.147088 9.22491 0.270329C8.56661 0.542542 8.00768 1.00637 7.62156 1.62229L4.90554 5.95275L3.6922 7.88762L0.529118 12.9312C-0.485767 14.55 0.00302151 16.6845 1.62109 17.7L5.75052 20.2885C5.97343 20.4281 6.15522 20.6226 6.27862 20.8548C7.35923 22.8835 13.0328 33.6114 13.1932 33.8358C13.3144 34.0058 13.0804 38.7691 13.0804 39.2818L13.0804 39.5257C13.0804 40.4375 13.8195 41.1767 14.7316 41.1767L27.724 41.1767C28.6379 41.1767 29.422 40.4344 29.3791 39.5213C29.1682 35.0309 28.6093 34.5099 29.612 34.5318C29.8156 34.5362 30.0192 34.499 30.222 34.4525C31.1231 34.2463 31.8898 33.7016 32.3807 32.9185L39.4731 21.6096C40.3519 20.2074 40.0979 18.4137 38.9612 17.3009" id="brand-manual" fill="#262321" fill-rule="evenodd" stroke="none" />
</svg>