<svg xmlns="http://www.w3.org/2000/svg" viewBox="0 0 25 25" xml:space="preserve">
<g><path fill="none" d="M23.9,13.15c0-0.02,0-0.04,0-0.06c0-0.06-0.01-0.13-0.01-0.18c-0.07-1.19-0.63-2.27-1.57-2.99c0,0,0,0,0,0
		L22.1,9.76l0.02,0L20.5,8.51l-2.38-1.85V4.23c0-0.94-0.77-1.71-1.71-1.71H8.66c-0.94,0-1.71,0.77-1.71,1.71v4.86H4.04
		c-0.79,0-1.09,0.7-1.09,1.14c0,0.46,0.3,1.14,1.14,1.14h2.87v0.91H2.25c-0.46,0-1.14,0.36-1.14,1.14c0,0.78,0.68,1.13,1.14,1.13
		h4.71v0.92h-3.8c-0.52,0-1.14,0.34-1.14,1.14c0,0.8,0.58,1.14,1.13,1.13h3.81v0.92H5.45c-0.61,0-1.15,0.36-1.15,1.14
		c0,0.79,0.55,1.13,1.18,1.13c0.11,0,0.67,0,1.5,0c0.07,0.88,0.8,1.57,1.7,1.57h7.75c0.9,0,1.63-0.69,1.7-1.57c1.02,0,1.68,0,1.68,0
		c2.57,0,4.1-2.09,4.1-4.1V13.2C23.9,13.18,23.9,13.17,23.9,13.15C23.9,13.15,23.9,13.15,23.9,13.15z M8.09,4.23
		c0-0.31,0.26-0.57,0.57-0.57h7.75c0.31,0,0.57,0.26,0.57,0.57v1.55l-1.47-1.15c-0.04-0.03-0.08-0.05-0.12-0.06l-0.07-0.05
		c-0.64-0.64-1.64-0.64-2.23,0c-0.45,0.45-0.57,1.07-0.39,1.61h-4.6V4.23z M12.54,21c-0.31,0-0.57-0.26-0.57-0.57
		c0-0.31,0.26-0.57,0.57-0.57s0.57,0.26,0.57,0.57C13.11,20.74,12.86,21,12.54,21z M8.09,18.34V7.27h5.59
		c0.86,0.75,2.45,2.15,3.3,2.95v8.12H8.09z"/>
	<path fill="none" d="M14.98,11.93h-3.25l0.91-0.75c0.26-0.19,0.32-0.56,0.13-0.82c-0.19-0.26-0.56-0.32-0.82-0.13
		c-0.02,0.01-0.04,0.03-0.06,0.05h-0.01l-2.05,1.69c-0.09,0.07-0.15,0.17-0.19,0.28c-0.1,0.17-0.1,0.37,0,0.54
		c0.04,0.11,0.11,0.2,0.19,0.28l2.05,1.69c0.26,0.19,0.63,0.13,0.82-0.13c0.17-0.24,0.14-0.57-0.07-0.77l-0.9-0.75h3.25
		c0.32,0,0.59-0.26,0.59-0.59S15.31,11.93,14.98,11.93z"/>
</g>
</svg>
