<svg xmlns="http://www.w3.org/2000/svg" viewBox="0 0 40 40" xml:space="preserve">
<g><path fill="none" d="M38,21.03c0-0.03-0.01-0.06-0.01-0.09c0-0.1-0.01-0.2-0.02-0.29c-0.11-1.89-0.99-3.59-2.48-4.72
		c0,0,0,0,0-0.01l-0.33-0.25l0.03,0l-2.55-1.97L29.17,11V6.52c0-1.54-1.25-2.79-2.79-2.79H13.75c-1.54,0-2.79,1.25-2.79,2.79v8.09
		H6.63c-1.25,0-1.72,1.1-1.72,1.8c0,0.73,0.48,1.8,1.8,1.8h4.25v1.44H3.81C3.08,19.66,2,20.24,2,21.47c0,1.23,1.08,1.79,1.81,1.79
		h7.15v1.45H5.25c-0.82,0-1.81,0.54-1.81,1.8c0,1.26,0.91,1.8,1.79,1.79h5.73v1.46h-2.1c-0.97,0-1.82,0.57-1.82,1.8
		c0,1.24,0.87,1.78,1.86,1.78c0.17,0,0.92,0,2.06,0v0.2c0,1.54,1.25,2.79,2.79,2.79h12.63c1.54,0,2.79-1.25,2.79-2.79v-0.2
		c1.44,0,2.35,0,2.35,0c4.06,0,6.48-3.29,6.48-6.48V21.1c0-0.02,0-0.04,0-0.06C38,21.03,38,21.03,38,21.03z M12.82,6.52
		c0-0.51,0.42-0.93,0.93-0.93h12.63c0.51,0,0.93,0.42,0.93,0.93v3.03l-2.55-1.98c-0.06-0.05-0.13-0.07-0.19-0.1l-0.1-0.08
		c-1.01-1.01-2.59-1.01-3.53,0c-0.62,0.62-0.85,1.45-0.71,2.22h-7.4V6.52z M20.07,33.85c-0.51,0-0.93-0.42-0.93-0.93
		c0-0.51,0.42-0.93,0.93-0.93s0.93,0.42,0.93,0.93C20.99,33.43,20.58,33.85,20.07,33.85z M12.82,29.51V11.48h8.75
		c1.32,1.16,4.37,3.83,5.74,5.12v12.91H12.82z"/>
	<path fill="none" d="M23.92,19.09h-5.14l1.43-1.18c0.42-0.3,0.51-0.88,0.21-1.3c-0.3-0.42-0.88-0.51-1.3-0.21
		c-0.03,0.02-0.06,0.05-0.09,0.07h-0.01l-3.24,2.68c-0.14,0.12-0.24,0.27-0.31,0.44c-0.16,0.26-0.16,0.59,0,0.85
		c0.06,0.17,0.17,0.32,0.31,0.44l3.24,2.68c0.42,0.3,1,0.21,1.3-0.21c0.27-0.38,0.22-0.9-0.12-1.22l-1.42-1.18h5.14
		c0.51,0,0.93-0.42,0.93-0.93C24.85,19.51,24.43,19.09,23.92,19.09z"/>
</g></svg>
