<svg xmlns="http://www.w3.org/2000/svg" viewBox="0 0 50 50"><path d="M23,40.16h0a2.6,2.6,0,0,1,0-.48v-.09a3.1,3.1,0,0,1,.16-.55c-1.41-.12-3.19-3.3-4-8.7H27.4a28.81,28.81,0,0,1-.59,2.89h0a2.26,2.26,0,0,1,.31-.18,2,2,0,0,1,.37-.14,2.38,2.38,0,0,1,.4-.06h.71l.3.07h0c.19-.84.36-1.72.49-2.62h5a17.38,17.38,0,0,0,.93-2H29.68a46.13,46.13,0,0,0,.23-4.62,46.12,46.12,0,0,0-.23-4.62h5l1.16-2H29.43a22.46,22.46,0,0,0-2.64-8.3,15.34,15.34,0,0,1,9.81,7.37h0a2.58,2.58,0,0,1,.46-.31h0a2.41,2.41,0,0,1,.51-.2,2,2,0,0,1,.51-.06h.08a3,3,0,0,1,.48.05h0A17.32,17.32,0,1,0,23.2,41h0A2.37,2.37,0,0,1,23,40.16ZM27.91,23.7a45.52,45.52,0,0,1-.23,4.62H18.93a46.35,46.35,0,0,1,0-9.24h8.75A45.5,45.5,0,0,1,27.91,23.7ZM23.31,8.37c1.42,0,3.26,3.2,4.12,8.72H19.19C20,11.57,21.88,8.37,23.31,8.37Zm-3.48.41a22.46,22.46,0,0,0-2.63,8.3H9.5A15.37,15.37,0,0,1,19.83,8.79ZM8,23.7a15.28,15.28,0,0,1,.71-4.62H17a45.85,45.85,0,0,0,0,9.24H8.69A15.28,15.28,0,0,1,8,23.7Zm1.5,6.62h7.69a22.46,22.46,0,0,0,2.63,8.3A15.37,15.37,0,0,1,9.5,30.32Z" fill="none"/><path d="M28.62,43.63a7.71,7.71,0,0,1-3.81-1,3.91,3.91,0,0,1-1.42-1.24,2.64,2.64,0,0,1,.09-2.9L26,34.07a2.38,2.38,0,0,1,1.49-1.17,3.28,3.28,0,0,1,2.31.41l1.57.9a16.33,16.33,0,0,0,3-3.72,16.16,16.16,0,0,0,1.72-4.42l-1.59-.92A3.27,3.27,0,0,1,33,23.39a2.38,2.38,0,0,1,.27-1.87l2.56-4.43a2.87,2.87,0,0,1,1.73-1.45,4,4,0,0,1,2.52.53A7.89,7.89,0,0,1,43.68,21c1,3.51-.09,7.92-3.09,13.11s-6.29,8.29-9.81,9.23A8.39,8.39,0,0,1,28.62,43.63Zm-.49-8.8H28s-.13,0-.24.23L25.21,39.5c-.31.54-.19.74-.13.83a2.21,2.21,0,0,0,.73.57,5.89,5.89,0,0,0,4.47.5c2.94-.79,5.91-3.65,8.59-8.29s3.68-8.65,2.89-11.59A5.87,5.87,0,0,0,39.1,17.9h0c-.23-.13-.71-.41-1-.33s-.39.31-.51.52L35,22.52a.39.39,0,0,0-.07.33,1.34,1.34,0,0,0,.54.58L38.26,25l-.07.65a17.35,17.35,0,0,1-6.1,10.57l-.52.38L28.81,35A1.54,1.54,0,0,0,28.13,34.83Z" fill="none"/></svg>
