<svg id="Layer_2" data-name="Layer 2" xmlns="http://www.w3.org/2000/svg" width="25" height="25" viewBox="0 0 25 25"><path d="M24.87,16c0-3.48-3.14-6.3-7-6.3s-7,2.82-7,6.3,3.14,6.3,7,6.3A7.77,7.77,0,0,0,19.72,22,24.64,24.64,0,0,1,25,24.61s-1.33-2.41-2.1-4.25A6,6,0,0,0,24.87,16Zm-7-8.06A9,9,0,0,1,25,11.22c0-.22,0-0.45,0-0.67C25,4.72,19.45,0,12.61,0S0.22,4.72.22,10.55a9.76,9.76,0,0,0,3.49,7.33C2.35,21,0,25,0,25c1.88-1.43,6.22-3.16,9.32-4.28q0.63,0.15,1.28.24a8,8,0,0,1-1.53-4.69A8.61,8.61,0,0,1,17.92,7.91Z" fill="none"/></svg>