<svg id="Layer_1" data-name="Layer 1" xmlns="http://www.w3.org/2000/svg" viewBox="0 0 50 50"><title>combo-plans-sm</title><path d="M28.58,4.28a17.5,17.5,0,0,0-13.89,6.89,5.34,5.34,0,0,1,2,2.75l.11.32a14,14,0,1,1,20,18.84,5.66,5.66,0,0,1,2.29,2.65A17.49,17.49,0,0,0,28.58,4.28Zm6.27,30.84L27.7,33.34a2.49,2.49,0,0,0-2.38.65l-.72.73a2.5,2.5,0,0,1-3,.42,19.85,19.85,0,0,1-7.45-7.54,2.5,2.5,0,0,1,.4-3l1-1a2.5,2.5,0,0,0,.6-2.56l-2.09-6.27a3.16,3.16,0,0,0-2.51-2,6.15,6.15,0,0,0-.84-.06c-4.65,0-6.63,5-6.71,5.23L4,18v.08c-.81,4.5,1.47,10.35,6.23,16,5.72,6.84,13.52,11.61,19,11.62h0a8.11,8.11,0,0,0,2.25-.3h0l.05,0c5.55-2.26,5.42-6.61,5.36-7.27A3,3,0,0,0,34.85,35.12ZM11.7,17.92l-.1,0a22.69,22.69,0,0,0-4.23,2.18l-.17.12c-.09.06-.17,0-.17-.09V20c0-.19,0-.38,0-.56a4.86,4.86,0,0,1,1-2,3.61,3.61,0,0,1,2.73-1.54H11a5.15,5.15,0,0,1,.41,1A3.13,3.13,0,0,1,11.7,17.92ZM30.59,37.46l-.17.14A17,17,0,0,1,28,39.24l0,0h-.1c-.81-.14-1.6-.32-2.32-.52l-.19-.05c-.1,0,.31-.54.91-1.14A3.23,3.23,0,0,1,29,36.89h.07C30,37.14,30.69,37.39,30.59,37.46Z"/><path d="M33.68,24.14c0-2.49-2.58-3.7-4.36-4.51V15.2a2.31,2.31,0,0,1,1.73,1.65.87.87,0,1,0,1.71-.27.45.45,0,0,0,0-.11,4,4,0,0,0-3.46-3v-.72a.56.56,0,0,0-.57-.57.57.57,0,0,0-.58.57v.72a4,4,0,0,0-3.46,3.84c0,2.09,1.85,3,3.46,3.71v6a3.11,3.11,0,0,1-2.57-2.31.87.87,0,1,0-1.71.27s0,.07,0,.11a4.89,4.89,0,0,0,4.27,3.67v1a.58.58,0,0,0,1.16,0v-1A4.78,4.78,0,0,0,33.68,24.14ZM26.44,17.3a2.21,2.21,0,0,1,1.78-2.1v3.9C27.05,18.55,26.44,18.07,26.44,17.3ZM29.32,27v-5.5C30.6,22.17,32,23,32,24.14A3,3,0,0,1,29.32,27Z"/></svg>