<?xml version="1.0" encoding="utf-8"?>
<!-- Generator: Adobe Illustrator 21.1.0, SVG Export Plug-In . SVG Version: 6.00 Build 0)  -->
<svg version="1.1" id="Layer_1" xmlns="http://www.w3.org/2000/svg" xmlns:xlink="http://www.w3.org/1999/xlink" x="0px" y="0px"
	 viewBox="0 0 25 25" style="enable-background:new 0 0 25 25;" xml:space="preserve">
<g>
	<path d="M10.1,0c0.1,0,0.2,0,0.3,0.1c0.5,0.1,0.9,0.5,1.2,0.9c0.1,0.2,0.3,0.4,0.4,0.7c0.3,0.6,0.8,1.1,1.4,1.4
		c0.3,0.2,0.7,0.3,1,0.5c0.5,0.3,0.7,0.7,0.8,1.3V5c-3.6,0-7,0-10.5,0c0-0.5,0.1-0.9,0.5-1.2C5.5,3.6,5.7,3.4,6,3.3
		C6.3,3.1,6.6,3,6.9,2.8c0.4-0.2,0.7-0.5,0.9-0.9C8,1.5,8.2,1.1,8.4,0.8c0.3-0.4,0.7-0.7,1.2-0.7l0,0C9.8,0,9.9,0,10.1,0z M9.9,1.4
		C9.5,1.4,9.2,1.6,9.2,2s0.3,0.7,0.7,0.7s0.7-0.3,0.7-0.7C10.6,1.7,10.3,1.4,9.9,1.4z"/>
	<path d="M16.2,22.2c-0.8-0.8-1.7-1.7-2.6-2.6c0.4-0.4,0.8-0.8,1.2-1.2c0.4,0.4,0.9,0.9,1.3,1.3c1.1-1.1,2.2-2.2,3.2-3.2
		c0.4,0.4,0.9,0.9,1.3,1.3C19.2,19.2,17.7,20.7,16.2,22.2z"/>
	<path d="M13.9,10.1H9.3c-0.3,0-0.5-0.2-0.5-0.5S9,9.1,9.3,9.1h4.6c0.3,0,0.5,0.2,0.5,0.5C14.4,9.9,14.2,10.1,13.9,10.1z"/>
	<path d="M13.9,13.5H9.3c-0.3,0-0.5-0.2-0.5-0.5s0.2-0.5,0.5-0.5h4.6c0.3,0,0.5,0.2,0.5,0.5C14.4,13.2,14.2,13.5,13.9,13.5z"/>
	<path d="M10.8,16.8H9.3c-0.3,0-0.5-0.2-0.5-0.5c0-0.3,0.2-0.5,0.5-0.5h1.6c0.3,0,0.5,0.2,0.5,0.5C11.3,16.6,11.1,16.8,10.8,16.8z"
		/>
	<path d="M5.6,10.8C5.2,10.4,4.7,10,4.3,9.6C4.5,9.4,4.7,9.2,4.9,9c0.2,0.2,0.4,0.4,0.6,0.6C6.1,9.1,6.6,8.5,7.2,8
		c0.2,0.2,0.4,0.4,0.6,0.6C7.1,9.4,6.3,10.1,5.6,10.8z"/>
	<path d="M5.6,14.2c-0.4-0.4-0.8-0.8-1.3-1.3c0.2-0.2,0.4-0.4,0.6-0.6c0.2,0.2,0.4,0.4,0.6,0.6c0.5-0.5,1.1-1.1,1.6-1.6
		c0.2,0.2,0.4,0.4,0.6,0.6C7.1,12.7,6.3,13.5,5.6,14.2z"/>
	<path d="M5.6,17.6c-0.4-0.4-0.8-0.8-1.3-1.3c0.2-0.2,0.4-0.4,0.6-0.6c0.2,0.2,0.4,0.4,0.6,0.6c0.5-0.5,1.1-1.1,1.6-1.6
		c0.2,0.2,0.4,0.4,0.6,0.6C7.1,16.1,6.3,16.8,5.6,17.6z"/>
	<path d="M21.5,15.1c-1-1-2.2-1.6-3.6-1.7V4.7c0-0.5-0.4-0.8-0.8-0.8h-1.2C16,4.1,16,4.4,16.1,4.7c0,0.1,0,0.2,0,0.3h0.7v8.5
		c-1.4,0.1-2.6,0.7-3.6,1.7c-1.1,1.1-1.8,2.6-1.8,4.1c0,1.3,0.4,2.5,1.1,3.5H2.9V4.9h0.8V4.8c0-0.2,0.1-0.6,0.2-0.9H2.7
		c-0.5,0-0.8,0.4-0.8,0.8v18.1c0,0.5,0.4,0.8,0.8,0.8h10.9c1,0.9,2.3,1.3,3.7,1.3c1.6,0,3-0.6,4.1-1.7s1.7-2.6,1.7-4.1
		C23.1,17.6,22.5,16.2,21.5,15.1z M17.3,24c-2.6,0-4.7-2.1-4.7-4.8s2.1-4.8,4.7-4.8s4.8,2.1,4.8,4.8S20,24,17.3,24z"/>
</g>
</svg>
