<?xml version="1.0" encoding="utf-8"?>
<!-- Generator: Adobe Illustrator 21.1.0, SVG Export Plug-In . SVG Version: 6.00 Build 0)  -->
<svg version="1.1" id="Layer_1" xmlns="http://www.w3.org/2000/svg" xmlns:xlink="http://www.w3.org/1999/xlink" x="0px" y="0px"
	 viewBox="0 0 50 50" style="enable-background:new 0 0 50 50;" xml:space="preserve">
<g>
	<path d="M20.2,0c0.2,0,0.4,0,0.6,0.2c1,0.2,1.8,1,2.4,1.8c0.2,0.4,0.6,0.8,0.8,1.4c0.6,1.2,1.6,2.2,2.8,2.8c0.6,0.4,1.4,0.6,2,1
		c1,0.6,1.4,1.4,1.6,2.6V10c-7.2,0-14,0-21,0c0-1,0.2-1.8,1-2.4c0.6-0.4,1-0.8,1.6-1c0.6-0.4,1.2-0.6,1.8-1c0.8-0.4,1.4-1,1.8-1.8
		s0.8-1.6,1.2-2.2c0.6-0.8,1.4-1.4,2.4-1.4l0,0C19.6,0,19.8,0,20.2,0z M19.8,2.8c-0.8,0-1.4,0.4-1.4,1.2s0.6,1.4,1.4,1.4
		c0.8,0,1.4-0.6,1.4-1.4C21.2,3.4,20.6,2.8,19.8,2.8z"/>
	<path d="M32.4,44.5c-1.6-1.6-3.4-3.4-5.2-5.2c0.8-0.8,1.6-1.6,2.4-2.4c0.8,0.8,1.8,1.8,2.6,2.6c2.2-2.2,4.4-4.4,6.4-6.4
		c0.8,0.8,1.8,1.8,2.6,2.6C38.4,38.5,35.4,41.5,32.4,44.5z"/>
	<path d="M27.8,20.2h-9.2c-0.6,0-1-0.4-1-1c0-0.6,0.4-1,1-1h9.2c0.6,0,1,0.4,1,1C28.8,19.8,28.4,20.2,27.8,20.2z"/>
	<path d="M27.8,27.1h-9.2c-0.6,0-1-0.4-1-1c0-0.6,0.4-1,1-1h9.2c0.6,0,1,0.4,1,1C28.8,26.5,28.4,27.1,27.8,27.1z"/>
	<path d="M21.6,33.7h-3c-0.6,0-1-0.4-1-1s0.4-1,1-1h3.2c0.6,0,1,0.4,1,1C22.6,33.3,22.2,33.7,21.6,33.7z"/>
	<path d="M11.2,21.6c-0.8-0.8-1.8-1.6-2.6-2.4C9,18.8,9.4,18.4,9.8,18c0.4,0.4,0.8,0.8,1.2,1.2c1.2-1,2.2-2.2,3.4-3.2
		c0.4,0.4,0.8,0.8,1.2,1.2C14.2,18.8,12.6,20.2,11.2,21.6z"/>
	<path d="M11.2,28.5c-0.8-0.8-1.6-1.6-2.6-2.6c0.4-0.4,0.8-0.8,1.2-1.2c0.4,0.4,0.8,0.8,1.2,1.2c1-1,2.2-2.2,3.2-3.2
		c0.4,0.4,0.8,0.8,1.2,1.2C14.2,25.5,12.6,27.1,11.2,28.5z"/>
	<path d="M11.2,35.3c-0.8-0.8-1.6-1.6-2.6-2.6c0.4-0.4,0.8-0.8,1.2-1.2c0.4,0.4,0.8,0.8,1.2,1.2c1-1,2.2-2.2,3.2-3.2
		c0.4,0.4,0.8,0.8,1.2,1.2C14.2,32.3,12.6,33.7,11.2,35.3z"/>
	<path d="M43,30.3c-2-2-4.4-3.2-7.2-3.4V9.4c0-1-0.8-1.6-1.6-1.6h-2.4c0.2,0.4,0.2,1,0.4,1.6c0,0.2,0,0.4,0,0.6h1.4v17
		c-2.8,0.2-5.2,1.4-7.2,3.4c-2.2,2.2-3.6,5.2-3.6,8.2c0,2.6,0.8,5,2.2,7H5.8V9.8h1.6V9.6c0-0.4,0.2-1.2,0.4-1.8H5.4
		c-1,0-1.6,0.8-1.6,1.6v36.3c0,1,0.8,1.6,1.6,1.6h21.8c2,1.8,4.6,2.6,7.4,2.6c3.2,0,6-1.2,8.2-3.4s3.4-5.2,3.4-8.2
		C46.2,35.3,45,32.5,43,30.3z M34.6,48.1c-5.2,0-9.4-4.2-9.4-9.6s4.2-9.6,9.4-9.6s9.6,4.2,9.6,9.6S40,48.1,34.6,48.1z"/>
</g>
</svg>
