<svg xmlns="http://www.w3.org/2000/svg" viewBox="0 0 50 50"><path d="M32,27.43l-2.88-3.49a1.13,1.13,0,0,0-.47-.33.9.9,0,0,0-.92,0,1.14,1.14,0,0,0-.47.33l-2.88,3.49a1,1,0,0,0,1.54,1.27l1.27-1.54V32.7a1,1,0,0,0,2,0V27.17l1.27,1.54A1,1,0,1,0,32,27.43Z" fill="none"/><path d="M18.36,5.68A6.32,6.32,0,0,1,24.67,12c0,7.47-6.1,11.39-6.1,11.39a.42.42,0,0,1-.42,0S12,19.47,12,12a6.31,6.31,0,0,1,6.3-6.32h0m0-2A8.32,8.32,0,0,0,10,12h0c0,8.47,6.74,12.89,7,13.08a2.42,2.42,0,0,0,2.58,0,16.29,16.29,0,0,0,7-13.08,8.32,8.32,0,0,0-8.31-8.32Z" fill="none"/><path d="M18.36,16.22a4.16,4.16,0,1,1,4.16-4.16h0A4.16,4.16,0,0,1,18.36,16.22Zm0-6.32a2.16,2.16,0,1,0,2.16,2.16h0A2.16,2.16,0,0,0,18.36,9.9Z" fill="none"/><path d="M35,11.1H26.62a8.36,8.36,0,0,1,0,.9,8,8,0,0,1,0,1.1H35a1,1,0,0,1,1,1v3.33H25.67a15.51,15.51,0,0,1-.94,2H36V38.84H20.36V24.55a7.53,7.53,0,0,1-.71.51,2.38,2.38,0,0,1-1.29.37V43.17a3,3,0,0,0,3,3H35a3,3,0,0,0,3-3V14.1A3,3,0,0,0,35,11.1ZM28.2,43.51a1,1,0,1,1,1-1,1,1,0,0,1-1,1h0Z" fill="none"/></svg>
