<svg xmlns="http://www.w3.org/2000/svg" viewBox="0 0 50 50"><path d="M12.36,23.25a6.32,6.32,0,0,1,6.32,6.31C18.68,37,12.57,41,12.57,41a.43.43,0,0,1-.42,0S6,37,6,29.56a6.32,6.32,0,0,1,6.32-6.31m0-2A8.32,8.32,0,0,0,4,29.56C4,38,10.74,42.45,11,42.64a2.42,2.42,0,0,0,2.58,0,16.29,16.29,0,0,0,7-13.08,8.32,8.32,0,0,0-8.32-8.31Z" fill="none"/><path d="M12.36,33.79a4.16,4.16,0,1,1,4.16-4.16,4.16,4.16,0,0,1-4.16,4.16Zm0-6.32a2.16,2.16,0,1,0,2.16,2.16h0a2.16,2.16,0,0,0-2.16-2.15Z" fill="none"/><path d="M16.67,15.92c-2-1.42-3-3.2-2.61-4.89A4.51,4.51,0,0,1,17.9,7.75c1.48-.23,5.26-.13,8.6,5.66a1.64,1.64,0,0,0,1.34.73,1.81,1.81,0,0,0,1.32-.63l.1-.15c3.31-5.75,7.09-5.85,8.57-5.62A4.51,4.51,0,0,1,41.68,11c.37,1.7-.58,3.47-2.61,4.89h3a6,6,0,0,0,1.58-5.32,6.52,6.52,0,0,0-5.49-4.82c-3.76-.58-7.56,1.67-10.27,6-2.71-4.37-6.51-6.62-10.27-6a6.51,6.51,0,0,0-5.49,4.82,6,6,0,0,0,1.58,5.32Z" fill="none"/><rect x="26.45" y="25.48" width="2.83" height="2" fill="none"/><path d="M42.31,15.92H31.63v2H42.31a1,1,0,0,1,1,1v5.56a1,1,0,0,1-1,1H31.63v2h9.68a1,1,0,0,1,1,1V40.12a1,1,0,0,1-1,1H31.63v2h9.68a3,3,0,0,0,3-3V28.48a3,3,0,0,0-.4-1.47,3,3,0,0,0,1.4-2.53V18.92A3,3,0,0,0,42.31,15.92Z" fill="none"/><polygon points="26.45 17.92 29.28 17.92 29.28 15.92 29.27 15.92 26.46 15.92 26.45 15.92 26.45 17.92" fill="none"/><path d="M20.4,27.48h3.7v-2H19.6A8.25,8.25,0,0,1,20.4,27.48Z" fill="none"/><path d="M24.1,17.92v-2H13.36a3,3,0,0,0-3,3V21.5a8.28,8.28,0,0,1,2-.25V18.92a1,1,0,0,1,1-1Z" fill="none"/><rect x="26.45" y="41.12" width="2.83" height="2" fill="none"/><path d="M15.53,41.12a14.25,14.25,0,0,1-1.88,1.53,2.32,2.32,0,0,1-.49.22,3,3,0,0,0,1.2.25H24.1v-2Z" fill="none"/><path d="M38.54,10.19a2.65,2.65,0,0,0-2.28-.9c-2,.19-4.32,2.41-7,6.56h0v.06h0v27.2h2.35V15.92h0c2.21-3.26,3.9-4.55,4.8-4.64a.67.67,0,0,1,.61.26.53.53,0,0,1,.18.51c-.15.76-1.6,2.21-5.12,3.86h4.11c1.49-1,2.71-2.19,3-3.47A2.51,2.51,0,0,0,38.54,10.19Z" fill="none"/><path d="M26.46,15.92v-.06h0c-2.63-4.16-5-6.38-7-6.56a2.66,2.66,0,0,0-2.28.9,2.51,2.51,0,0,0-.66,2.26c.26,1.27,1.47,2.46,3,3.47h4.12c-3.52-1.65-5-3.11-5.12-3.86a.53.53,0,0,1,.18-.51.67.67,0,0,1,.61-.26c.89.08,2.58,1.37,4.8,4.64h0v27.2h2.35V15.92Z" fill="none"/></svg>
