<svg xmlns="http://www.w3.org/2000/svg" viewBox="0 0 50 50"><path d="M19.52,12.48a4.16,4.16,0,1,0-4.16,4.16A4.16,4.16,0,0,0,19.52,12.48Zm-4.16,2.16a2.16,2.16,0,0,1,0-4.32h0a2.16,2.16,0,1,1,0,4.31ZM26.68,37H21.36a1,1,0,0,0,0,2h5.32a1,1,0,0,0,0-2Zm0-13.25H21.36a1,1,0,0,0,0,2h5.32a1,1,0,0,0,0-2ZM40,11.52H23.53A8.29,8.29,0,0,0,7,12.4v0c0,8.47,6.74,12.89,7,13.08a2.41,2.41,0,0,0,1.36.36V41.6a3,3,0,0,0,3,3H40a3,3,0,0,0,3-3V14.52A3,3,0,0,0,40,11.52ZM15.57,23.81a.43.43,0,0,1-.42,0S9,19.89,9,12.42A6.32,6.32,0,0,1,15.32,6.1h0a6.32,6.32,0,0,1,6.31,6.32C21.67,19.89,15.57,23.81,15.57,23.81ZM41,41.6a1,1,0,0,1-1,1H18.36a1,1,0,0,1-1-1V24.93A17.24,17.24,0,0,0,22,19.13H37a1,1,0,0,0,0-2H22.83a15.09,15.09,0,0,0,.7-3.61H40a1,1,0,0,1,1,1Zm-7.07-11V26.79a2,2,0,0,1,1.5,1.43.75.75,0,1,0,1.47-.29v-.05a3.5,3.5,0,0,0-3-2.62v-.62a.5.5,0,1,0-1,0v.62a3.43,3.43,0,0,0-3,3.33c0,1.81,1.67,2.6,3,3.22v5.25a2.7,2.7,0,0,1-2.23-2,.75.75,0,0,0-1.46.33,4.22,4.22,0,0,0,3.7,3.18v.88a.5.5,0,0,0,1,0v-.88a4.14,4.14,0,0,0,3.81-4C37.71,32.38,35.47,31.33,33.93,30.63Zm-1-.47c-.94-.46-1.55-.88-1.55-1.55h0a1.92,1.92,0,0,1,1.55-1.82Zm1,6.91h0V32.29c1.11.54,2.28,1.24,2.28,2.25A2.64,2.64,0,0,1,33.93,37.07Zm-7.25-6.7H21.36a1,1,0,0,0,0,2h5.32a1,1,0,0,0,0-2Z" fill="none"/></svg>
