<svg id="Layer_2" data-name="Layer 2" xmlns="http://www.w3.org/2000/svg" width="25" height="25" viewBox="0 0 25 25"><path d="M24.61,10l-5.45,5.35,1.29,7.56a2.05,2.05,0,0,1,0,.3,0.64,0.64,0,0,1-.62.76,1.22,1.22,0,0,1-.6-0.18L12.5,20.25,5.75,23.82a1.26,1.26,0,0,1-.6.18,0.66,0.66,0,0,1-.63-0.76,2.08,2.08,0,0,1,0-.3l1.29-7.56L0.38,10A1.18,1.18,0,0,1,0,9.3,0.83,0.83,0,0,1,.84,8.6L8.38,7.5l3.38-6.88A0.94,0.94,0,0,1,12.5,0a0.94,0.94,0,0,1,.74.62L16.62,7.5l7.54,1.1a0.84,0.84,0,0,1,.84.7A1.13,1.13,0,0,1,24.61,10Zm-2.93.18-6.34-.94L12.5,3.49,9.66,9.27l-6.34.94,4.6,4.49-1.1,6.37,5.68-3,5.66,3L17.08,14.7Z" fill="none"/></svg>