<?xml version="1.0" encoding="UTF-8"?>
<svg width="32px" height="32px" viewBox="0 0 32 32" version="1.1" xmlns="http://www.w3.org/2000/svg" xmlns:xlink="http://www.w3.org/1999/xlink">
    <title>globe</title>
    <g id="globe" stroke="none" stroke-width="1" fill="none" fill-rule="evenodd">
        <path d="M16.3333333,0.64853921 L16.7263628,1.0052844 C24.4607367,1.21350408 30.6666667,7.5486824 30.6666667,15.3333333 C30.6666667,23.1176481 24.4612726,29.4526155 16.7273647,29.6613553 L16.3333333,30.0181275 L15.939302,29.6613553 C8.20539405,29.4526155 2,23.1176481 2,15.3333333 C2,7.5486824 8.20592998,1.21350408 15.9403039,1.0052844 L16.3333333,0.64853921 Z M10.5082617,20.3332638 L5.0556084,20.3333407 C6.64096403,23.9038644 9.87218405,26.5815302 13.7862899,27.4033595 C12.1863846,25.3844212 11.094087,23.0243064 10.5082617,20.3332638 Z M27.6110583,20.3333407 L22.1584049,20.3332639 C21.5725797,23.0243064 20.4802821,25.3844213 18.8812363,27.4033981 C22.7947082,26.5813433 26.025758,23.9037398 27.6110583,20.3333407 Z M20.1065644,20.333665 L12.5601023,20.333665 C13.2046121,22.9796706 14.4052762,25.2294423 16.1617129,27.0971068 L16.1617129,27.0971068 L16.333,27.274 L16.5049537,27.0971068 C18.2613905,25.2294424 19.4620546,22.9796706 20.1065644,20.333665 Z M10.1734457,12.3324602 L4.36759797,12.3326096 C4.12748127,13.2931788 4,14.2983686 4,15.3333333 C4,16.3680025 4.12740848,17.3729138 4.3673923,18.3332342 L10.1733828,18.3336829 C10.0577907,17.370927 10,16.3706792 10,15.3333333 C10,14.2957994 10.0578117,13.2953771 10.1734457,12.3324602 Z M20.4778927,12.3323894 L12.1887739,12.3323894 C12.0629295,13.2873202 12,14.2874557 12,15.3333333 C12,16.3789919 12.0629031,17.3789276 12.1886949,18.3336773 L20.4779718,18.3336773 C20.5847042,17.5235866 20.6461614,16.6809654 20.6623345,15.8054856 L20.6623345,15.8054856 L20.6666667,15.3333333 C20.6666667,14.2874557 20.6037372,13.2873202 20.4778927,12.3323894 Z M28.2990687,12.3326096 L22.493221,12.3324602 C22.608855,13.2953771 22.6666667,14.2957994 22.6666667,15.3333333 C22.6666667,16.3706792 22.608876,17.370927 22.4932839,18.3336829 L28.2992744,18.3332342 C28.5392582,17.3729138 28.6666667,16.3680025 28.6666667,15.3333333 C28.6666667,14.2983686 28.5391854,13.2931788 28.2990687,12.3326096 Z M13.7852254,3.2635274 L13.6684676,3.28865103 C9.80775578,4.13897668 6.62562845,6.79819069 5.05605224,10.3323265 L10.5084806,10.3323977 C11.094334,7.64188756 12.1864903,5.28219573 13.7852254,3.2635274 Z M16.333,3.392 L16.1617129,3.56955984 C14.4054977,5.43698882 13.2049149,7.6864287 12.5603461,10.3320007 L20.1063205,10.3320007 C19.4617518,7.68642867 18.261169,5.43698881 16.5049537,3.56955984 L16.5049537,3.56955984 L16.333,3.392 Z M18.8817833,3.26360257 L18.945515,3.34496069 C20.5093906,5.34557193 21.5801927,7.67798422 22.1581861,10.3323977 L27.6106144,10.3323265 C26.0252896,6.76273022 22.7948915,4.08570124 18.8817833,3.26360257 Z" id="Combined-Shape" fill="#E21B23" fill-rule="nonzero"></path>
    </g>
</svg>