<?xml version="1.0" encoding="utf-8"?>
<svg width="32px" height="22px" viewBox="0 0 32 22" version="1.1" xmlns:xlink="http://www.w3.org/1999/xlink" xmlns="http://www.w3.org/2000/svg">
  <g id="hardcard-activation">
    <path d="M29.5157 7.96151e-06C30.1755 -0.00166714 30.8087 0.259845 31.275 0.726603C31.7413 1.19336 32.0023 1.82682 32 2.48661L32 2.48661L32 19.1908C32.0018 19.8505 31.7407 20.4836 31.2745 20.9503C30.8083 21.417 30.1753 21.6786 29.5157 21.6774L29.5157 21.6774L2.48432 21.6774C1.82458 21.6789 1.19145 21.4174 0.725158 20.9506C0.258864 20.4839 -0.00211323 19.8505 1.28896e-05 19.1908L1.28896e-05 19.1908L1.28896e-05 2.48661C-0.00165266 1.82701 0.259472 1.1939 0.725666 0.72728C1.19186 0.260656 1.82472 -0.00105331 2.48432 7.96151e-06L2.48432 7.96151e-06L29.5157 7.96151e-06ZM14.9219 7.86925C12.0086 7.86925 11.5108 9.50251 11.1593 10.8376C10.8077 12.1726 10.6059 13.8368 13.3586 13.8053L13.3586 13.8053C16.0923 13.838 16.7685 12.1738 17.1206 10.8376C17.4727 9.50136 17.8351 7.86925 14.9219 7.86925L14.9219 7.86925ZM21.054 7.86867C19.3657 7.86867 18.291 8.50064 18.0043 9.57992C17.526 11.3961 20.4806 11.2447 20.2586 12.0843C20.1938 12.3326 19.9616 12.5563 19.1587 12.5563C18.6076 12.5563 18.0915 12.3894 17.7738 12.1233L17.7738 12.1233L17.5444 12.1296L17.2278 13.3339C17.6367 13.6304 18.3036 13.8064 18.9758 13.8064C20.8229 13.8064 21.9492 13.1819 22.2641 11.9902C22.7251 10.2388 19.8767 10.2864 20.0522 9.62752C20.1428 9.27312 20.648 9.16874 21.175 9.16874C21.733 9.16874 22.2308 9.34079 22.5021 9.60803L22.5021 9.60803L22.6667 9.60803C22.7601 9.25018 22.9849 8.39685 22.9849 8.39685C22.5451 8.02867 22.0433 7.86867 21.054 7.86867L21.054 7.86867ZM26.4229 7.8704C24.7346 7.8704 23.6599 8.50237 23.3732 9.58165C22.8937 11.3978 25.8494 11.2464 25.6281 12.086C25.5598 12.3343 25.3304 12.558 24.5276 12.558C23.977 12.558 23.4603 12.3911 23.1438 12.125L23.1438 12.125L22.9144 12.1296L22.5967 13.3339C23.0073 13.6304 23.6731 13.8064 24.3446 13.8064C26.1901 13.8064 27.3158 13.1831 27.6318 11.9925C28.094 10.2411 25.245 10.2887 25.4211 9.62466C25.5111 9.27025 26.0152 9.16588 26.5433 9.16588C27.0939 9.16588 27.5899 9.34079 27.8623 9.61204L27.8623 9.61204L28.0344 9.60745C28.1296 9.24903 28.3538 8.39857 28.3544 8.39857C27.9105 8.03039 27.4116 7.8704 26.4229 7.8704L26.4229 7.8704ZM8.93248 7.97936L5.8598 7.97936L4.3831 13.5782L4.4284 13.6929L6.83356 13.6929C8.53449 13.6929 9.8208 13.1647 10.1144 12.0533C10.2893 11.3898 10.1242 10.8129 8.87686 10.7412L8.87686 10.7412L8.88259 10.7252C10.1087 10.5732 10.5589 9.9653 10.7246 9.34079C10.962 8.43756 10.4092 7.98222 8.93248 7.97936L8.93248 7.97936L8.93248 7.97936ZM7.45608 11.3342C8.13276 11.3342 8.40507 11.5997 8.27302 12.1742C8.14097 12.7487 7.75234 13.0038 7.07634 13.0038L7.07634 13.0038L6.63571 13.0038L7.01613 11.3342L7.45608 11.3342ZM14.5812 9.16874C15.4133 9.16874 15.2551 9.80989 14.9832 10.8416C14.7114 11.8733 14.5285 12.5127 13.6981 12.5127C12.8677 12.5127 13.0242 11.8738 13.2966 10.8416C13.569 9.80932 13.7503 9.16874 14.5812 9.16874L14.5812 9.16874ZM8.11952 9.13376C8.73614 9.13376 9.015 9.34083 8.88078 9.93844C8.74658 10.5361 8.3596 10.8034 7.72658 10.8034L7.72658 10.8034L7.24417 10.8034L7.6207 9.13376L8.11952 9.13376Z" id="Shape" fill="none" fill-rule="evenodd" stroke="none" />
  </g>
</svg>