<?xml version="1.0" encoding="UTF-8"?><svg xmlns="http://www.w3.org/2000/svg" viewBox="0 0 22 22"><path d="M20.0777466,5.6 C20.4729126,5.59899647 20.8521641,5.75562343 21.1314605,6.03517776 C21.410757,6.31473209 21.5670338,6.69412802 21.5656697,7.08929285 L21.5656697,7.08929285 L21.5656697,17.0939011 C21.5667579,17.4889819 21.4103923,17.8682174 21.1311558,18.1477118 C20.8519194,18.4272061 20.4728283,18.5839216 20.0777466,18.5831931 L20.0777466,18.5831931 L3.88792194,18.5831931 C3.4927841,18.5841054 3.11358612,18.4274489 2.83430969,18.1479146 C2.55503325,17.8683803 2.3987268,17.4890379 2.4,17.0939011 L2.4,17.0939011 L2.4,7.08929285 C2.39900253,6.69423996 2.5553976,6.31505785 2.83461414,6.03558349 C3.11383068,5.75610913 3.49286829,5.59936417 3.88792194,5.6 L3.88792194,5.6 Z M11.3371098,10.3131068 C9.59227973,10.3131068 9.29414735,11.2913107 9.08359994,12.09091 C8.87305253,12.8905093 8.75215092,13.8872607 10.4008092,13.8683698 L10.4008092,13.8683698 C12.038133,13.8879476 12.4430847,12.8911963 12.6539756,12.09091 C12.8648665,11.2906238 13.0819398,10.3131068 11.3371098,10.3131068 Z M15.0098397,10.3127633 C13.9986626,10.3127633 13.3549989,10.6912678 13.1832636,11.3376793 C12.8968092,12.4254503 14.6663692,12.3347741 14.5334461,12.8376149 C14.4946339,12.9863376 14.3555284,13.1202911 13.8746697,13.1202911 C13.5445946,13.1202911 13.2354711,13.0203412 13.0451885,12.8609708 L13.0451885,12.8609708 L12.9078003,12.864749 L12.7182046,13.586037 C12.963099,13.7636113 13.3625552,13.8690567 13.7651026,13.8690567 C14.8714211,13.8690567 15.5459971,13.4950174 15.7345624,12.7812857 C16.0107126,11.7323268 14.3046948,11.7608349 14.4097967,11.3661873 C14.4640651,11.1539225 14.7666626,11.0914109 15.0823119,11.0914109 C15.4165087,11.0914109 15.7146411,11.1944521 15.8771026,11.3545093 L15.8771026,11.3545093 L15.9756787,11.3545093 C16.0316643,11.1401837 16.1663048,10.6290997 16.1663048,10.6290997 C15.9028629,10.4085916 15.6023262,10.3127633 15.0098397,10.3127633 Z M18.2254103,10.3137937 C17.2142332,10.3137937 16.5705695,10.6922982 16.3988343,11.3387097 C16.111693,12.4264807 17.8819398,12.3358045 17.7493602,12.8386453 C17.7084872,12.987368 17.571099,13.1213215 17.0902404,13.1213215 C16.7605087,13.1213215 16.4510418,13.0213716 16.2614461,12.8620013 L16.2614461,12.8620013 L16.1240579,12.864749 L15.9337753,13.586037 C16.1797001,13.7636113 16.5784694,13.8690567 16.9806733,13.8690567 C18.0859613,13.8690567 18.7601939,13.4957043 18.9494461,12.7826596 C19.2262833,11.7337007 17.5199219,11.7622088 17.6253674,11.36447 C17.6792922,11.1522052 17.9812028,11.0896936 18.2975391,11.0896936 C18.6272708,11.0896936 18.9243727,11.1944521 19.0875212,11.3569136 L19.0875212,11.3569136 L19.1905624,11.3541658 C19.2475785,11.1394968 19.3818754,10.6301301 19.3822189,10.6301301 C19.1163727,10.409622 18.8175534,10.3137937 18.2254103,10.3137937 Z M7.74990406,10.3790531 L5.90958921,10.3790531 L5.02515271,13.7323555 L5.05228688,13.8010496 L6.49280209,13.8010496 C7.51153554,13.8010496 8.28193983,13.4847132 8.45779672,12.8190675 C8.56255522,12.4216721 8.46363572,12.0761408 7.71658742,12.033207 L7.71658742,12.033207 L7.72002212,12.0235898 C8.45436202,11.9325701 8.72398635,11.5684914 8.82324931,11.1944521 C8.96544609,10.6534861 8.63434055,10.3807705 7.74990406,10.3790531 L7.74990406,10.3790531 Z M6.78612588,12.3883555 C7.12581819,12.3883555 7.26251944,12.5034181 7.19622964,12.7524342 C7.12993983,13.0014503 6.9348486,13.1120478 6.59549976,13.1120478 L6.59549976,13.1120478 L6.37430477,13.1120478 L6.56527436,12.3883555 Z M11.1330883,11.0914109 C11.631464,11.0914109 11.5366661,11.4754109 11.3738611,12.0933143 C11.2110561,12.7112177 11.101489,13.0941873 10.6041438,13.0941873 C10.1067985,13.0941873 10.200566,12.7115612 10.3637144,12.0933143 C10.5268629,11.4750675 10.6353996,11.0914109 11.1330883,11.0914109 Z M7.1419613,11.0704592 C7.42601139,11.0704592 7.55446935,11.1518617 7.49264466,11.3867955 C7.43081998,11.6217293 7.2525588,11.7268313 6.96095236,11.7268313 L6.96095236,11.7268313 L6.73872695,11.7268313 L6.91217955,11.0704592 Z" fill="none"></path></svg>
