<?xml version="1.0" encoding="UTF-8"?>
<svg width="32px" height="32px" viewBox="0 0 32 32" version="1.1" xmlns="http://www.w3.org/2000/svg" xmlns:xlink="http://www.w3.org/1999/xlink">
    <title>info-new</title>
    <g id="info-new" stroke="none" stroke-width="1" fill="none" fill-rule="evenodd">
        <path d="M16.3333333,1 C24.2494147,1 30.6666667,7.41725192 30.6666667,15.3333333 C30.6666667,23.2494147 24.2494147,29.6666667 16.3333333,29.6666667 C8.41725192,29.6666667 2,23.2494147 2,15.3333333 C2,7.41725192 8.41725192,1 16.3333333,1 Z M16.3333333,3 C9.52182142,3 4,8.52182142 4,15.3333333 C4,22.1448452 9.52182142,27.6666667 16.3333333,27.6666667 C23.1448452,27.6666667 28.6666667,22.1448452 28.6666667,15.3333333 C28.6666667,8.52182142 23.1448452,3 16.3333333,3 Z M16.3333333,14.3333333 C16.8461692,14.3333333 17.2688405,14.7193735 17.3266056,15.2167122 L17.3333333,15.3333333 L17.3333333,19.3333333 C17.3333333,19.8856181 16.8856181,20.3333333 16.3333333,20.3333333 C15.8204975,20.3333333 15.3978262,19.9472931 15.3400611,19.4499545 L15.3333333,19.3333333 L15.3333333,15.3333333 C15.3333333,14.7810486 15.7810486,14.3333333 16.3333333,14.3333333 Z M16.9462328,10.5430379 L17.0404401,10.6262266 L17.2071068,10.7928932 C17.5976311,11.1834175 17.5976311,11.8165825 17.2071068,12.2071068 C16.8466228,12.5675907 16.2793918,12.5953203 15.8871006,12.2902954 L15.7928932,12.2071068 L15.6262266,12.0404401 C15.2357023,11.6499158 15.2357023,11.0167508 15.6262266,10.6262266 C15.9867105,10.2657426 16.5539416,10.2380131 16.9462328,10.5430379 Z" id="Combined-Shape" fill="#E21B23" fill-rule="nonzero"></path>
    </g>
</svg>