<svg xmlns="http://www.w3.org/2000/svg" viewBox="0 0 50 50"><path d="M24.77,26.58a1,1,0,0,0,1.41-.13h0l1.27-1.54v5.53a1,1,0,0,0,2,0V24.91l1.27,1.54a1,1,0,1,0,1.62-1.17l-.08-.1-2.88-3.49a1.21,1.21,0,0,0-.52-.36h-.81a1.22,1.22,0,0,0-.52.36l-2.88,3.49A1,1,0,0,0,24.77,26.58Z" fill="none"/><path d="M38.25,15.17V11.84a3,3,0,0,0-3-3H27.78a10,10,0,0,1,.68,2h6.78a1,1,0,0,1,1,1v3.33H28.49a10,10,0,0,1-.66,2h8.42V36.58H20.65V22.92a10.07,10.07,0,0,1-2,.2h0V40.91a3,3,0,0,0,3,3h13.6a3,3,0,0,0,3-3V17.17h0Zm-9.8,26.08a1,1,0,1,1,1-1A1,1,0,0,1,28.45,41.25Z" fill="none"/><path d="M18.65,3A10.07,10.07,0,1,0,28.72,13.07V13A10.08,10.08,0,0,0,18.65,3Zm6.93,6H22.44a14.64,14.64,0,0,0-.94-3.43,8.1,8.1,0,0,1,4.08,3.36Zm1.14,4a8,8,0,0,1-.29,2.12H22.68c.06-.7.09-1.42.09-2.12a16.71,16.71,0,0,0-.09-2.12h3.75A8,8,0,0,1,26.72,13Zm-8.07,8.07c-.43,0-1.28-1.36-1.76-4h3.52c-.48,2.63-1.34,4-1.76,4Zm-2-5.95c-.06-.66-.09-1.36-.09-2.12a15.94,15.94,0,0,1,.09-2.12h4c.06.66.09,1.36.09,2.12a15.94,15.94,0,0,1-.09,2.12Zm-6-2.12a8,8,0,0,1,.29-2.12h3.75c-.06.7-.09,1.42-.09,2.12a16.71,16.71,0,0,0,.09,2.12H10.87A8,8,0,0,1,10.58,13Zm8-8c.43,0,1.28,1.36,1.76,3.95H16.89C17.37,6.34,18.22,5,18.65,5Zm-2.84.52a14.64,14.64,0,0,0-.94,3.43H11.72A8.1,8.1,0,0,1,15.81,5.5ZM11.72,17.17h3.14a14.64,14.64,0,0,0,.94,3.43A8.1,8.1,0,0,1,11.72,17.17Zm9.77,3.43a14.64,14.64,0,0,0,.94-3.43h3.14A8.1,8.1,0,0,1,21.49,20.6Z" fill="none"/></svg>
