<svg xmlns="http://www.w3.org/2000/svg" viewBox="0 0 50 50"><path d="M18.13,15c-2-1.43-3-3.2-2.61-4.89a4.51,4.51,0,0,1,3.85-3.27c1.48-.23,5.26-.13,8.6,5.67a1.64,1.64,0,0,0,1.34.73,1.81,1.81,0,0,0,1.32-.63l.1-.15c3.27-5.71,7.09-5.8,8.56-5.57a4.51,4.51,0,0,1,3.85,3.27c.37,1.7-.58,3.47-2.61,4.89h3a6,6,0,0,0,1.58-5.32,6.52,6.52,0,0,0-5.5-4.82c-3.75-.58-7.56,1.67-10.27,6-2.71-4.37-6.51-6.61-10.27-6a6.52,6.52,0,0,0-5.49,4.82A6,6,0,0,0,15.15,15Z" fill="none"/><path d="M43.78,15H33.1v2H43.78a1,1,0,0,1,1,1v5.56a1,1,0,0,1-1,1H33.1v2h9.68a1,1,0,0,1,1,1V39.25a1,1,0,0,1-1,1H33.1v2h9.68a3,3,0,0,0,3-3V27.61a3,3,0,0,0-.4-1.47,3,3,0,0,0,1.4-2.53V18A3,3,0,0,0,43.78,15Z" fill="none"/><polygon points="30.73 15.05 27.93 15.05 27.92 15.05 27.92 17.05 30.75 17.05 30.75 15.05 30.73 15.05" fill="none"/><rect x="27.92" y="40.25" width="2.83" height="2" fill="none"/><rect x="27.92" y="24.61" width="2.83" height="2" fill="none"/><path d="M40,9.32a2.65,2.65,0,0,0-2.28-.9c-2,.19-4.32,2.41-7,6.56h0v0h0V42.2H33.1V15h0c2.21-3.26,3.9-4.55,4.8-4.64a.68.68,0,0,1,.61.26.53.53,0,0,1,.18.51c-.15.76-1.6,2.21-5.12,3.86H37.7c1.49-1,2.71-2.19,3-3.47A2.51,2.51,0,0,0,40,9.32Z" fill="none"/><path d="M27.93,15h0c-2.63-4.16-5-6.38-7-6.56a2.66,2.66,0,0,0-2.28.9,2.51,2.51,0,0,0-.7,2.24c.26,1.27,1.47,2.46,3,3.47h4.11c-3.52-1.65-5-3.11-5.12-3.86a.53.53,0,0,1,.18-.51.69.69,0,0,1,.61-.26c.89.08,2.58,1.37,4.8,4.64h0v27.2h2.35Z" fill="none"/><path d="M25.55,15H14.83a3,3,0,0,0-3,3v4.27c.33,0,.66,0,1,0a6.63,6.63,0,0,1,1,0V18a1,1,0,0,1,1-1H25.57V15Z" fill="none"/><path d="M15.09,42.15a3,3,0,0,0,.73.1h9.74v-2H19A10,10,0,0,1,15.09,42.15Z" fill="none"/><path d="M21.1,26.61h4.47v-2h-6.3A10.15,10.15,0,0,1,21.1,26.61Z" fill="none"/><path d="M12.83,22.26A10.07,10.07,0,1,0,22.9,32.34,10.07,10.07,0,0,0,12.83,22.26Zm6.93,6H16.61a14.67,14.67,0,0,0-.94-3.43,8.1,8.1,0,0,1,4.08,3.39Zm1.14,4.12a8,8,0,0,1-.29,2.12H16.85c.06-.7.09-1.42.09-2.12a16.71,16.71,0,0,0-.09-2.12H20.6a8,8,0,0,1,.3,2.08Zm-8.07,8.07c-.43,0-1.28-1.37-1.76-4h3.52c-.49,2.55-1.34,4-1.76,4Zm-2-6c-.06-.66-.09-1.36-.09-2.12a15.94,15.94,0,0,1,.09-2.12h4c.06.66.09,1.36.09,2.12a15.94,15.94,0,0,1-.09,2.12Zm-6-2.12A8,8,0,0,1,5,30.22H8.8c-.06.7-.09,1.42-.09,2.12a16.71,16.71,0,0,0,.09,2.12H5a8,8,0,0,1-.24-2.12Zm8.07-8.07c.43,0,1.28,1.37,1.76,4H11.07c.48-2.63,1.33-4,1.76-4Zm-2.9.53a14.67,14.67,0,0,0-1,3.43H5.9A8.1,8.1,0,0,1,10,24.79ZM5.9,36.46H9a14.67,14.67,0,0,0,1,3.42A8.1,8.1,0,0,1,5.9,36.46Zm9.77,3.43a14.67,14.67,0,0,0,.94-3.43h3.14a8.1,8.1,0,0,1-4.08,3.42Z" fill="none"/></svg>
