<svg xmlns="http://www.w3.org/2000/svg" width="40px" height="40px" viewBox="0 0 40 40">
<path d="M20.6,33c1.6,0,3.2,0,4.8,0c0.9,0,1.6-0.3,2.1-1c0.5-0.7,0.4-1.6,0.2-2.4c-0.2-0.8-1-1.2-1.8-1.3c-2.3-0.2-4.6-0.5-6.9-0.7
	c-0.1,0-0.3-0.2-0.4-0.3c-0.5-1.2-1-2.4-1.5-3.5c-0.6-1.5-1.2-3-2-4.5c-2.1-4-6.1-3.9-8.4-2.6C5.1,17.6,4.6,19.3,4,21
	c-1,3-1,14-1,16h9.9c0-1.1,0-2.2,0-3.2c0-0.2-0.1-0.5-0.2-0.7c-0.8-1.5-1.5-3-2.3-4.5c-0.5-1-0.9-2-1.4-3c-0.1-0.2-0.2-0.5-0.3-0.8
	c0.5-0.1,0.9-0.2,1.3-0.4c0.3-0.1,0.4,0,0.5,0.2c1,2.1,2,4.2,3,6.3c0.6,1.3,1.6,2,3.1,2C18,33,19.3,33,20.6,33z M37,36.5
	c0-2.5,0-5,0-7.6c0-2.9,0-5.8,0-8.7c0-0.2-0.1-0.5-0.1-0.7c-0.5-1.3-1.1-2.6-1.7-4c-0.2-0.5-0.6-0.8-1.1-0.7c-1.6,0-3.2,0-4.8,0
	c-1.4,0-2.8,0.1-4.2,0.1c-0.9,0-1.8,0-2.6,0c-0.5,0-1,0.1-1.2,0.7c-0.1,0.2-0.2,0.5-0.3,0.7c-0.9,1.7-1.8,3.3-2.7,5
	c-0.1,0.1-0.1,0.3-0.1,0.4c0.2,0.6,0.5,1.2,0.8,1.9c0.2-0.4,0.4-0.7,0.6-1c1-1.9,2-3.8,3-5.7c0.1-0.2,0.2-0.3,0.5-0.3
	c0.8,0,1.7,0,2.5,0c2.3,0,4.5,0,6.8,0h0.5c-2,3.5-3.9,6.8-5.8,10.2c0.1,0.1,0.2,0.1,0.3,0.2c0.8,0.4,1.5,0.9,1.8,1.8
	c0.7,1.8,0.5,4-1.1,5.2c-0.9,0.6-1.9,0.8-3,0.8c-2.9,0-5.7,0-8.6,0c-0.3,0-0.2,0-0.6-0.1V37h21C37,36.8,37,36.7,37,36.5z M15.3,15.6
	c3.1-0.2,5.8-3.1,5.6-6.2c-0.1-3.3-2.9-5.9-6.2-5.8C11.3,3.8,8.8,6.6,9,10C9.2,13.3,12,15.8,15.3,15.6z" fill="none"/>
</svg>
