<svg xmlns="http://www.w3.org/2000/svg" width="25px" height="25px" viewBox="0 0 25 25">
<path d="M12.9,22.1c1.2,0,2.3,0,3.5,0c0.6,0,1.2-0.2,1.6-0.7c0.4-0.5,0.3-1.2,0.1-1.7c-0.2-0.6-0.7-0.9-1.3-0.9
	c-1.7-0.2-3.4-0.3-5.1-0.5c-0.1,0-0.3-0.1-0.3-0.2c-0.4-0.9-0.7-1.7-1.1-2.6c-0.5-1.1-0.9-2.2-1.5-3.3c-1.6-2.9-4.5-2.9-6.2-1.9
	c-1.2,0.6-1.6,1.9-2,3.2C0,15.4,0,23.5,0,25h7.3c0-0.8,0-1.6,0-2.4c0-0.2,0-0.3-0.1-0.5C6.6,21,6,19.9,5.5,18.8
	c-0.4-0.7-0.7-1.5-1-2.2c-0.1-0.2-0.2-0.4-0.3-0.6c0.3-0.1,0.6-0.2,0.9-0.3c0.2-0.1,0.3,0,0.4,0.2c0.7,1.5,1.5,3.1,2.2,4.6
	c0.5,1,1.2,1.5,2.3,1.5C11.1,22,12,22.1,12.9,22.1z M25,19.1c0-2.1,0-4.2,0-6.4c0-0.2,0-0.4-0.1-0.5c-0.4-1-0.8-1.9-1.2-2.9
	c-0.2-0.4-0.4-0.6-0.8-0.6c-1.2,0-2.3,0-3.5,0c-1,0-2.1,0-3.1,0.1c-0.6,0-1.3,0-1.9,0c-0.4,0-0.7,0.1-0.8,0.5
	c-0.1,0.2-0.2,0.4-0.3,0.5c-0.7,1.2-1.3,2.4-2,3.7c0,0.1-0.1,0.2,0,0.3c0.2,0.5,0.4,0.9,0.6,1.4c0.2-0.3,0.3-0.5,0.4-0.8
	c0.7-1.4,1.5-2.8,2.2-4.2c0.1-0.1,0.2-0.2,0.4-0.2c0.6,0,1.2,0,1.8,0c1.7,0,3.3,0,5,0h0.4c-1.4,2.5-2.8,5-4.3,7.5
	c0.1,0,0.2,0.1,0.3,0.1c0.6,0.3,1.1,0.6,1.4,1.3c0.5,1.4,0.3,3-0.8,3.8c-0.7,0.5-1.4,0.6-2.2,0.6c-2.1,0-4.2,0-6.3,0
	c-0.2,0-0.2,0-0.4,0V25H25c0-0.1,0-0.2,0-0.4C25,22.8,25,20.9,25,19.1z M8.8,9c2.4-0.1,4.4-2.3,4.2-4.6C12.9,1.8,10.8-0.1,8.3,0
	C5.8,0.1,3.9,2.3,4,4.8C4.2,7.3,6.3,9.1,8.8,9z" fill="none"/>
</svg>
