<svg id="Layer_1" data-name="Layer 1" xmlns="http://www.w3.org/2000/svg" width="50" height="50" viewBox="0 0 50 50"><path d="M33,3H31V6a2,2,0,0,1-2,2H26a2,2,0,0,1-2-2V3H21V6a2,2,0,0,1-2,2H16a2,2,0,0,1-2-2V3H11V6A2,2,0,0,1,9,8H6A2,2,0,0,1,4,6V3H2A2,2,0,0,0,0,5V48a2,2,0,0,0,2,2H33a2,2,0,0,0,2-2V5A2,2,0,0,0,33,3ZM31,42H4V39H31v3Zm0-6H4V33H31v3Zm0-6H4V27H31v3Zm0-6H4V21H31v3Zm0-6H4V15H31v3ZM47,7H43a3,3,0,0,0-3,3v4H50V10A3,3,0,0,0,47,7ZM40,41H50V17H40V41Zm5,9,5-6H40ZM9,0H6V6H9V0ZM19,0H16V6h3V0ZM29,0H26V6h3V0Z" fill="none"/></svg>