<svg id="Layer_1" data-name="Layer 1" xmlns="http://www.w3.org/2000/svg" width="50" height="50" viewBox="0 0 50 50"><path d="M25.74,38.2L27,31l1,4.95,4.31-4.31L29.9,20.06A2.62,2.62,0,0,0,27.15,18H24.86L20,32V21H18V32L13.14,18H10.85A2.62,2.62,0,0,0,8.1,20.06l-4,19.36a2.55,2.55,0,1,0,5,1.05L11,31l2.91,17a2.53,2.53,0,0,0,2.4,2h4.58l1.77-8.36,0.1-.49,2.53-2.53ZM18,20h2V18H18v2Zm1-4a8,8,0,1,0-8-8A8,8,0,0,0,19,16ZM45.12,30.13l-1.41-1.41a3,3,0,0,0-4.24,0l-1.41,1.41,5.66,5.66,1.41-1.41A3,3,0,0,0,45.12,30.13ZM26.74,41.44L32.4,47.1l9.9-9.9-5.66-5.66ZM24,50l7-1.49L25.47,43Z" fill="none"/></svg>