<svg id="Layer_1" data-name="Layer 1" xmlns="http://www.w3.org/2000/svg" width="25" height="25" viewBox="0 0 25 25"><path d="M9,11h2V9H9v2Zm6,7h1V17h1V16h0.2L16,10a1.31,1.31,0,0,0-1.38-1H13.43L11,16V12H9v4L6.57,9H5.43A1.31,1.31,0,0,0,4,10L2,19.71a1.27,1.27,0,1,0,2.49.53l1-4.75L7,24a1.27,1.27,0,0,0,1.2,1h3.67A1.07,1.07,0,0,0,12,25V21h1V20h0.72l0.77-4.51ZM10,8A4,4,0,1,0,6,4,4,4,0,0,0,10,8Zm6,15H15V22H14v3h3V24H16V23Zm5-6H19v1H18v1H17v1H16v2h1v1h2V22h1V21h1V20h1V18H21V17Zm3-2V14H22v1H21v1h1v1h1v1h1V17h1V15H24Z" fill="none"/></svg>