<svg id="Layer_1" data-name="Layer 1" xmlns="http://www.w3.org/2000/svg" width="25" height="25" viewBox="0 0 25 25"><path d="M22,0.76A0.79,0.79,0,0,0,21.21,0H3.79A0.79,0.79,0,0,0,3,.76V2H22V0.76ZM24,14H22v1H21v1h1v1h1v1h1V17h1V15H24V14Zm-3,3H19v1H18v1H17v1H16v2h1v1h2V22h1V21h1V20h1V18H21V17Zm-5,6H15V22H14v3h3V24H16V23Zm4-10h1V12h1V11.68a3.41,3.41,0,0,1-2-.77V13Zm-6,6h1V18h1V17h1V16H5V11a3.56,3.56,0,0,1-2,.68v9.55a0.79,0.79,0,0,0,.79.76H12V21h1V20h1V19ZM5,6.5H5a2.5,2.5,0,0,0,5,0h0a2.5,2.5,0,0,0,5,0h0a2.5,2.5,0,0,0,5,0h0a2.5,2.5,0,0,0,5,0h0a0.25,0.25,0,0,0,0,0L22,3H3L0,6.5s0,0,0,0H0A2.5,2.5,0,0,0,5,6.5Z" fill="none"/></svg>