<svg id="Layer_1" data-name="Layer 1" xmlns="http://www.w3.org/2000/svg" width="50" height="50" viewBox="0 0 50 50"><path d="M10,13h0a5,5,0,0,0,10,0h0a5,5,0,0,0,10,0h0a5,5,0,0,0,10,0h0a5,5,0,0,0,10,0h0a0.5,0.5,0,0,0,0-.08L44,6H6L0,13c0,0.05,0-.07,0,0H0A5,5,0,0,0,10,13ZM44,1.53A1.58,1.58,0,0,0,42.41,0H7.59A1.58,1.58,0,0,0,6,1.53V4H44V1.53ZM30,37.94V25h9v3.94l0.65-.65,1.7-1.7A6,6,0,0,1,44,25.06V22H6V42a2,2,0,0,0,2,2H26.19l0.5-2.36,0.1-.49,2.53-2.53ZM25,35H11V25H25V35Zm22.71-6.28a3,3,0,0,0-4.24,0l-1.41,1.41,5.66,5.66,1.41-1.41a3,3,0,0,0,0-4.24Zm-17,12.73L36.4,47.1l9.9-9.9-5.66-5.66ZM28,50l7-1.49L29.47,43Z" fill="none"/></svg>