<svg id="Layer_1" data-name="Layer 1" xmlns="http://www.w3.org/2000/svg" width="50" height="50" viewBox="0 0 50 50"><path d="M10,13h0a5,5,0,0,0,10,0h0a5,5,0,0,0,10,0h0a5,5,0,0,0,10,0h0a5,5,0,0,0,10,0h0a0.5,0.5,0,0,0,0-.08L44,6H6L0,13c0,0.05,0-.07,0,0H0A5,5,0,0,0,10,13ZM44,1.53A1.58,1.58,0,0,0,42.41,0H7.59A1.58,1.58,0,0,0,6,1.53V4H44V1.53ZM36.94,31H10V19.83h0a8.47,8.47,0,0,1-4,1.54V36H6v6a2,2,0,0,0,2,2H26.19l0.5-2.36,0.1-.49,2.53-2.53ZM40,27.94l1.35-1.35A6,6,0,0,1,44,25.07v-3.7a8.48,8.48,0,0,1-4-1.54v8.11Zm7.71,0.77a3,3,0,0,0-4.24,0l-1.41,1.41,5.66,5.66,1.41-1.41a3,3,0,0,0,0-4.24Zm-17,12.73L36.4,47.1l9.9-9.9-5.66-5.66ZM28,50l7-1.49L29.47,43Z" fill="none"/></svg>