<svg id="Layer_1" data-name="Layer 1" xmlns="http://www.w3.org/2000/svg" width="25" height="25" viewBox="0 0 25 25"><path d="M5,6.5H5a2.5,2.5,0,0,0,5,0h0a2.5,2.5,0,0,0,5,0h0a2.5,2.5,0,0,0,5,0h0a2.5,2.5,0,0,0,5,0h0a0.25,0.25,0,0,0,0,0L22,3H3L0,6.5s0,0,0,0H0A2.5,2.5,0,0,0,5,6.5ZM22,0.76A0.79,0.79,0,0,0,21.21,0H3.79A0.79,0.79,0,0,0,3,.76V2H22V0.76ZM14,19h1V13h4v1h1V13h1V12h1V11H3V21a1,1,0,0,0,1,1h8V21h1V20h1V19Zm-1-1H6V13h7v5Zm3,5H15V22H14v3h3V24H16V23Zm8-9H22v1H21v1h1v1h1v1h1V17h1V15H24V14Zm-3,3H19v1H18v1H17v1H16v2h1v1h2V22h1V21h1V20h1V18H21V17Z" fill="none"/></svg>