<svg xmlns="http://www.w3.org/2000/svg" viewBox="0 0 50 50"><path d="M22.73,25.06,24,23.53v5.53a1,1,0,0,0,2,0V23.53l1.27,1.54a1,1,0,0,0,1.62-1.17l-.08-.1h0L25.93,20.3a1.13,1.13,0,0,0-.47-.33.9.9,0,0,0-.92,0,1.14,1.14,0,0,0-.47.33l-2.88,3.49a1,1,0,0,0,1.54,1.27ZM31.8,7.46H18.2a3,3,0,0,0-3,3V39.54a3,3,0,0,0,3,3H31.8a3,3,0,0,0,3-3V10.46A3,3,0,0,0,31.8,7.46ZM25,39.87a1,1,0,1,1,1-1A1,1,0,0,1,25,39.87Zm7.8-4.67H17.2V15.79H32.8Zm0-21.41H17.2V10.46a1,1,0,0,1,1-1H31.8a1,1,0,0,1,1,1Z" fill="none"/></svg>
