<svg id="Layer_1" data-name="Layer 1" xmlns="http://www.w3.org/2000/svg" width="50" height="50" viewBox="0 0 50 50"><path d="M12.65,7.93a1.42,1.42,0,0,0-2,0l-0.82.82a1.44,1.44,0,0,0,0,2L13,14H6.75A1.67,1.67,0,0,0,5,15.28v1.38A1.7,1.7,0,0,0,6.75,18H13L9.82,21.21a1.4,1.4,0,0,0,0,2L10.65,24a1.46,1.46,0,0,0,2,0L19.81,17a1.37,1.37,0,0,0,0-2ZM2.81,16A13.17,13.17,0,0,1,16,2.78,13,13,0,0,1,24,5.56a4.94,4.94,0,0,1,.52.44h3.82L28,5.56A16,16,0,1,0,16,31.94a9.74,9.74,0,0,0,4-.65V28.52a11.47,11.47,0,0,1-4,.64A13.2,13.2,0,0,1,2.81,16ZM28,40H44V14H28V40ZM48.47,8H23.79A2,2,0,0,0,22,9.71V48.5A1.78,1.78,0,0,0,23.79,50H48.47A1.52,1.52,0,0,0,50,48.5V9.71A1.71,1.71,0,0,0,48.47,8Zm-12,41h-1a2.5,2.5,0,0,1,0-5h1A2.5,2.5,0,0,1,36.5,49ZM47,41a2,2,0,0,1-2,2H27a2,2,0,0,1-2-2V13a2,2,0,0,1,2-2H45a2,2,0,0,1,2,2V41Z" fill="none" fill-rule="evenodd"/></svg>