<svg id="Layer_1" data-name="Layer 1" xmlns="http://www.w3.org/2000/svg" width="25" height="25" viewBox="0 0 25 25"><path d="M6.32,4a0.71,0.71,0,0,0-1,0l-0.41.41a0.72,0.72,0,0,0,0,1L6.52,7H4C3.12,7,3,7.27,3,7.64V8.33C3,8.71,3.11,9,4,9H6.52L4.91,10.6a0.7,0.7,0,0,0,0,1L5.32,12a0.73,0.73,0,0,0,1,0L9.9,8.48a0.68,0.68,0,0,0,0-1ZM1.4,8A6.59,6.59,0,0,1,8,1.39a6.51,6.51,0,0,1,4,1.39,2.47,2.47,0,0,1,.26.22h1.91L14,2.78A8,8,0,1,0,8,16a4.87,4.87,0,0,0,2-.33V14.26a5.73,5.73,0,0,1-2,.32A6.6,6.6,0,0,1,1.4,8ZM24.24,4H11.9a1,1,0,0,0-.9.85v19.4a0.89,0.89,0,0,0,.9.75H24.24A0.76,0.76,0,0,0,25,24.25V4.85A0.86,0.86,0,0,0,24.24,4ZM19,24H17V23h2v1Zm5-3a1,1,0,0,1-1,1H13a1,1,0,0,1-1-1V6a1,1,0,0,1,1-1H23a1,1,0,0,1,1,1V21ZM14,20h8V7H14V20Z" fill="none" fill-rule="evenodd"/></svg>