<svg xmlns="http://www.w3.org/2000/svg" viewBox="0 0 50 50"><path d="M42.31,13.8H7.69a3,3,0,0,0-3,3V33.2a3,3,0,0,0,3,3H42.31a3,3,0,0,0,3-3V16.8A3,3,0,0,0,42.31,13.8ZM36.26,34.2H13.74a1,1,0,0,0,0-.24,9.29,9.29,0,0,0-6.8-6.8H6.7V22.87h.24a9.29,9.29,0,0,0,6.8-6.8,1,1,0,0,0,0-.24H36.26a1,1,0,0,0,0,.24,9.29,9.29,0,0,0,6.8,6.8h.24v4.28h-.24a9.29,9.29,0,0,0-6.8,6.8A1,1,0,0,0,36.26,34.2Zm7.05-17.4v4a7.27,7.27,0,0,1-5-5h4A1,1,0,0,1,43.31,16.8Zm-35.63-1h4a7.27,7.27,0,0,1-5,5v-4a1,1,0,0,1,1-1h0Zm-1,17.41v-4a7.27,7.27,0,0,1,5,5h-4a1,1,0,0,1-1-1h0Zm35.63,1h-4a7.27,7.27,0,0,1,5-5v4a1,1,0,0,1-1,1Z" fill="none"/><path d="M29.28,27.49c0-2.16-2.24-3.21-3.78-3.91V19.74A2,2,0,0,1,27,21.17a.75.75,0,1,0,1.48-.23l0-.1a3.5,3.5,0,0,0-3-2.62V17.6a.5.5,0,0,0-1,0v.62a3.43,3.43,0,0,0-3,3.33c0,1.81,1.6,2.57,3,3.22V30a2.7,2.7,0,0,1-2.23-2,.75.75,0,1,0-1.48.23l0,.1a4.22,4.22,0,0,0,3.7,3.18v.88a.5.5,0,0,0,1,0v-.88A4.14,4.14,0,0,0,29.28,27.49ZM23,21.56a1.92,1.92,0,0,1,1.55-1.82v3.38C23.53,22.64,23,22.23,23,21.56ZM25.5,30V25.24c1.11.54,2.28,1.24,2.28,2.25A2.64,2.64,0,0,1,25.5,30Z" fill="none"/></svg>
