<?xml version="1.0" encoding="utf-8"?>
<svg width="18.4663px" height="22.8181px" viewBox="0 0 18.4663 22.8181" version="1.1" xmlns:xlink="http://www.w3.org/1999/xlink" xmlns="http://www.w3.org/2000/svg">
  <g id="bonus">
    <path d="M18.4663 21.2072L15.3998 11.5L9.23316 12.5264L3.06653 11.5L0 21.2072L4.2365 19.5977L6.9039 22.8181L9.23317 15.0649L11.5624 22.8181L14.2298 19.5977L18.4663 21.2072L18.4663 21.2072ZM12.2354 19.4973L10.5267 13.8096L14.3022 12.9074L16 18.5586L13.7279 17.6955L12.2354 19.4973L12.2354 19.4973ZM2.46634 18.5586L4.16415 12.9074L7.93964 13.8096L6.2309 19.4973L4.73845 17.6955L2.46634 18.5586L2.46634 18.5586Z" id="Shape" fill="#FFFFFF" fill-rule="evenodd" stroke="none" />
    <path d="M17 0L17 12.3077L1.61538 12.3077C1.27552 12.3077 1 12.0322 1 11.6923C1 11.3767 1.23756 11.1166 1.54362 11.0811L1.61538 11.0769L15.7692 11.0769L15.7692 1.23077L1.61538 1.23077C1.29979 1.23077 1.03969 0.993206 1.00414 0.687151L1 0.615385C1 0.299793 1.23756 0.0396879 1.54362 0.00414014L1.61538 0L17 0L17 0ZM10.1189 3.07692C10.4345 3.07692 10.6946 3.31449 10.7301 3.62054L10.7343 3.69231L10.7347 3.75797C11.2985 3.89012 11.6917 4.223 11.8334 4.76837C11.9188 5.09732 11.7214 5.43326 11.3925 5.5187C11.087 5.59804 10.7755 5.43349 10.6642 5.1462L10.6421 5.07778C10.6178 4.98391 10.5072 4.92308 10.1189 4.92308C9.69853 4.92308 9.61539 5.02224 9.61539 5.23077C9.61539 5.35722 9.68776 5.41197 10.1728 5.54347L10.2895 5.57454C11.3767 5.86038 11.8531 6.16356 11.8531 7.07692C11.8531 7.75504 11.4787 8.33558 10.7349 8.53842L10.7343 8.61538C10.7343 8.95525 10.4587 9.23077 10.1189 9.23077C9.80329 9.23077 9.54318 8.99321 9.50764 8.68715L9.5035 8.61538L9.50368 8.54986C8.93953 8.41781 8.54608 8.08488 8.40438 7.53932C8.31894 7.21037 8.51634 6.87444 8.84529 6.78899C9.15075 6.70965 9.46222 6.8742 9.57357 7.16149L9.59562 7.22991C9.62 7.32379 9.7306 7.38461 10.1189 7.38461C10.5392 7.38461 10.6224 7.28545 10.6224 7.07692C10.6224 6.97756 10.5635 6.92769 10.1676 6.81656L9.96239 6.76115C8.87224 6.4745 8.38462 6.15886 8.38462 5.23077C8.38462 4.55246 8.7593 3.97179 9.50346 3.7691L9.5035 3.69231C9.5035 3.35244 9.77901 3.07692 10.1189 3.07692L10.1189 3.07692ZM4.07692 7.23722C4.41679 7.23722 4.69231 7.51273 4.69231 7.8526C4.69231 8.16819 4.45474 8.4283 4.14869 8.46385L4.07692 8.46799L1.61538 8.46799C1.27552 8.46799 1 8.19247 1 7.8526C1 7.53701 1.23756 7.2769 1.54362 7.24136L1.61538 7.23722L4.07692 7.23722L4.07692 7.23722ZM4.07692 4C4.41679 4 4.69231 4.27552 4.69231 4.61538C4.69231 4.93098 4.45474 5.19108 4.14869 5.22663L4.07692 5.23077L1.61538 5.23077C1.27552 5.23077 1 4.95525 1 4.61538C1 4.29979 1.23756 4.03969 1.54362 4.00414L1.61538 4L4.07692 4L4.07692 4Z" id="Shape" fill="#FFFFFF" fill-rule="evenodd" stroke="none" />
  </g>
</svg>