<svg xmlns="http://www.w3.org/2000/svg" width="50" height="50" viewBox="0 0 50 50">
  <g fill="#FFFFFF">
    <g transform="translate(14 6)">
      <path d="M18.2,2.5 C18.8,2.5 19.3,3 19.3,3.6 L19.3,34.4 C19.3,35 18.8,35.5 18.2,35.5 L3.8,35.5 C3.2,35.5 2.7,35 2.7,34.4 L2.7,3.6 C2.7,3 3.2,2.5 3.8,2.5 L18.2,2.5 L18.2,2.5 Z M18.2,0.4 L3.8,0.4 C2.1,0.4 0.6,1.8 0.6,3.6 L0.6,34.4 C0.6,36.1 2,37.6 3.8,37.6 L18.2,37.6 C19.9,37.6 21.4,36.2 21.4,34.4 L21.4,3.6 C21.4,1.9 19.9,0.4 18.2,0.4 L18.2,0.4 Z"/>
      <rect width="20.7" height="2.1" x=".6" y="7.1"/>
      <path d="M1.7,29.8 L1.7,35.7 L20.3,35.7 L20.3,29.8 L1.7,29.8 Z M11,34.7 C10.4,34.7 9.9,34.2 9.9,33.6 C9.9,33 10.4,32.5 11,32.5 C11.6,32.5 12.1,33 12.1,33.6 C12,34.3 11.6,34.7 11,34.7 Z"/>
    </g>
    <g transform="translate(2.046 10)">
      <path d="M12.4,2.1 C12.8,2.1 13.1,2.4 13.1,2.8 L13.1,23.5 C13.1,23.9 12.8,24.2 12.4,24.2 L2.7,24.2 C2.3,24.2 2,23.9 2,23.5 L2,2.8 C2,2.4 2.3,2.1 2.7,2.1 L12.4,2.1 L12.4,2.1 Z M12.4,0.6 L2.7,0.6 C1.5,0.6 0.6,1.6 0.6,2.7 L0.6,23.4 C0.6,24.6 1.6,25.5 2.7,25.5 L12.4,25.5 C13.6,25.5 14.5,24.5 14.5,23.4 L14.5,2.8 C14.5,1.6 13.6,0.6 12.4,0.6 L12.4,0.6 Z"/>
      <rect width="13.9" height="1.4" x=".6" y="5.1"/>
      <path d="M1.3,20.4 L1.3,24.4 L13.8,24.4 L13.8,20.4 C13.8,20.4 1.3,20.4 1.3,20.4 Z M7.6,23.7 C7.2,23.7 6.9,23.4 6.9,23 C6.9,22.6 7.2,22.3 7.6,22.3 C8,22.3 8.3,22.6 8.3,23 C8.3,23.4 8,23.7 7.6,23.7 Z"/>
    </g>
    <g transform="translate(33.038 10)">
      <path d="M12.3,2.1 C12.7,2.1 13,2.4 13,2.8 L13,23.5 C13,23.9 12.7,24.2 12.3,24.2 L2.6,24.2 C2.2,24.2 1.9,23.9 1.9,23.5 L1.9,2.8 C1.9,2.4 2.2,2.1 2.6,2.1 L12.3,2.1 L12.3,2.1 Z M12.3,0.6 L2.6,0.6 C1.4,0.6 0.5,1.6 0.5,2.7 L0.5,23.4 C0.5,24.6 1.5,25.5 2.6,25.5 L12.3,25.5 C13.5,25.5 14.4,24.5 14.4,23.4 L14.4,2.8 C14.4,1.6 13.4,0.6 12.3,0.6 L12.3,0.6 Z"/>
      <rect width="13.9" height="1.4" x=".5" y="5.1"/>
      <path d="M1.2,20.4 L1.2,24.4 L13.7,24.4 L13.7,20.4 C13.7,20.4 1.2,20.4 1.2,20.4 Z M6.7,23 C6.7,22.6 7,22.3 7.4,22.3 C7.8,22.3 8.1,22.6 8.1,23 C8.1,23.4 7.8,23.7 7.4,23.7 C7,23.7 6.7,23.4 6.7,23 Z"/>
    </g>
  </g>
</svg>
