<svg xmlns="http://www.w3.org/2000/svg" version="1.1" x="0" y="0" viewBox="0 0 50 50" xml:space="preserve">
  <path d="M13.2 17.3c-0.2 0-0.5-0.1-0.6-0.3 -2.8-2.7-2.8-7.1-0.1-9.9 0 0 0.1-0.1 0.1-0.1 0.3-0.3 0.9-0.3 1.2 0s0.3 0.9 0 1.2c-2.1 2.1-2.1 5.4 0 7.5 0 0 0 0 0 0 0.3 0.4 0.3 0.9 0 1.2C13.6 17.1 13.4 17.2 13.2 17.3L13.2 17.3zM10.8 20.9c-0.2 0-0.5-0.1-0.6-0.3 -4.7-4.7-4.7-12.3 0-17 0 0 0 0 0 0 0.4-0.3 0.9-0.3 1.2 0.1 0.3 0.3 0.3 0.8 0 1.1 -4 4-4 10.5 0 14.6 0.3 0.4 0.3 0.9 0 1.2C11.2 20.8 11 20.9 10.8 20.9L10.8 20.9zM28.8 10.7h1.8c-0.3-2.7-1.5-5.2-3.4-7.2 -0.4-0.3-0.9-0.3-1.2 0.1 -0.3 0.3-0.3 0.8 0 1.1C27.5 6.4 28.5 8.5 28.8 10.7zM24.9 11.1c0.4-0.2 0.9-0.4 1.4-0.4h0.3C26.4 9.3 25.7 8 24.7 7c-0.3-0.3-0.9-0.3-1.2 0s-0.3 0.9 0 1.2C24.3 9 24.8 10 24.9 11.1zM23.3 21.6l-1.8-6c-0.1-0.2-0.1-0.3-0.3-0.4 1.8-1.4 2.1-4 0.7-5.8 -1.4-1.8-4-2.1-5.8-0.7s-2.1 4-0.7 5.8c0.2 0.2 0.3 0.4 0.5 0.6 -0.1 0.1-0.1 0.2-0.1 0.2L6.1 44.8c-0.2 0.5 0.1 1.1 0.6 1.3 0.5 0.2 1.1-0.1 1.3-0.6l0 0 1.5-4.7L23.3 32V21.6zM17.7 16c0.6 0.2 1.3 0.2 1.9 0 0 0.1 0 0.1 0 0.2l0.7 2.5 -4.5 3L17.7 16zM14.8 24.8l6.2-4.1 2.3 7.7L14.8 24.8 14.8 24.8zM10.5 37.8l3.7-11 8.4 3.5L10.5 37.8zM25.3 38.5V19.1l17.6 0v-5.3c0-1.7-1.3-3-3-3H26.3c-1.7 0-3 1.3-3 3v29.1c0 1.7 1.3 3 3 3h13.6c1.7 0 3-1.3 3-3v-4.3L25.3 38.5zM25.3 13.7c0-0.6 0.4-1 1-1h13.6c0.6 0 1 0.4 1 1v3.3H25.3V13.7zM33.1 43.2c-0.6 0-1-0.4-1-1 0-0.6 0.4-1 1-1 0.6 0 1 0.4 1 1C34.1 42.7 33.7 43.2 33.1 43.2zM36.6 32.2c0.4 0.4 0.8 0.6 1.3 0.7v-3.6c-0.1 0-0.1 0-0.2-0.1 -0.1 0-0.2-0.1-0.3-0.1 -0.4-0.1-0.8-0.2-1.2-0.4 -0.4-0.2-0.8-0.4-1.1-0.6 -0.3-0.3-0.6-0.6-0.8-1 -0.2-0.4-0.3-0.9-0.3-1.4 0-0.6 0.1-1.1 0.3-1.5 0.2-0.4 0.5-0.8 0.9-1.1 0.4-0.3 0.8-0.5 1.3-0.7 0.5-0.2 1-0.3 1.5-0.3v-1.3h1v1.3c0.5 0.1 1 0.2 1.4 0.3 0.4 0.2 0.8 0.4 1.2 0.7s0.6 0.6 0.8 1.1c0.2 0.4 0.3 0.9 0.4 1.5h-2.4c0-0.5-0.2-0.8-0.4-1.2 -0.3-0.3-0.6-0.5-1-0.5v3c0.1 0 0.3 0.1 0.4 0.1s0.3 0.1 0.5 0.1c0.8 0.2 1.5 0.5 1.9 0.8 0.5 0.3 0.8 0.7 1 1 0.2 0.4 0.3 0.7 0.4 1.1 0 0.4 0.1 0.7 0.1 1 0 0.2-0.1 0.6-0.2 0.9 -0.1 0.4-0.3 0.8-0.7 1.1 -0.3 0.4-0.8 0.7-1.3 1s-1.2 0.5-2.1 0.5v1.4h-1v-1.4c-1.3-0.1-2.3-0.5-3-1.2s-1.1-1.7-1.2-3h2.4C36.1 31.3 36.3 31.8 36.6 32.2zM37.4 24.3c-0.2 0.1-0.3 0.1-0.5 0.3 -0.1 0.1-0.3 0.3-0.3 0.4s-0.1 0.4-0.1 0.6c0 0.4 0.1 0.7 0.4 0.9 0.2 0.2 0.6 0.4 1.2 0.5v-2.8C37.8 24.2 37.6 24.2 37.4 24.3zM39.6 32.8c0.2-0.1 0.4-0.2 0.6-0.3s0.3-0.3 0.4-0.5c0.1-0.2 0.2-0.4 0.2-0.7 0-0.4-0.1-0.8-0.4-1 -0.3-0.2-0.8-0.4-1.4-0.6v3.3C39.2 32.9 39.4 32.8 39.6 32.8z"/>
</svg>
