<svg xmlns="http://www.w3.org/2000/svg" width="50" height="50" viewBox="0 0 50 50">
  <g fill="#FFFFFF">
    <path d="M32.2,8.3 C32.8,8.3 33.4,8.8 33.4,9.5 L33.4,40.4 C33.4,41 32.9,41.6 32.2,41.6 L17.8,41.6 C17.2,41.6 16.6,41.1 16.6,40.4 L16.6,9.5 C16.6,8.9 17.1,8.3 17.8,8.3 L32.2,8.3 L32.2,8.3 Z M32.2,6.3 L17.8,6.3 C16,6.3 14.6,7.7 14.6,9.5 L14.6,40.4 C14.6,42.2 16,43.6 17.8,43.6 L32.3,43.6 C34.1,43.6 35.5,42.2 35.5,40.4 L35.5,9.5 C35.4,7.8 34,6.3 32.2,6.3 L32.2,6.3 Z"/>
    <rect width="20.9" height="2" x="14.6" y="13.1"/>
    <path d="M15.6 35.9L15.6 41.9 34.3 41.9 34.3 35.9 15.6 35.9zM25 40.8C24.4 40.8 23.9 40.3 23.9 39.7 23.9 39.1 24.4 38.6 25 38.6 25.6 38.6 26.1 39.1 26.1 39.7 26.1 40.3 25.6 40.8 25 40.8zM23.4 30.7L20.1 26.3C19.8 25.9 19.9 25.3 20.3 25 20.7 24.7 21.3 24.8 21.6 25.2L23.4 27.6 28.6 20.2C28.9 19.8 29.4 19.7 29.9 20 30.3 20.3 30.4 20.8 30.1 21.3L23.4 30.7z"/>
  </g>
</svg>
