<svg xmlns="http://www.w3.org/2000/svg" viewBox="0 0 50 50" xml:space="preserve">
<path fill="none" d="M43.9,37.5c0,0,0-0.1,0-0.2L44,23.7h-0.1c3.6-1,6-4.2,6.1-7.9c0-0.6-0.2-1.3-0.6-1.8l-5.5-7.5c-0.7-0.9-1.8-1.4-3-1.4L9.5,5
	c-1.2,0-2.3,0.5-3,1.4l-5.7,7.4c-0.4,0.5-0.6,1.1-0.6,1.8c0,3.4,2.1,6.5,5.3,7.7L5.5,37.1c0,0,0,0.1,0,0.1l-5,7.7
	c-0.3,0.5-0.4,1.1-0.1,1.7c0.3,0.5,0.9,0.9,1.5,0.8h45.7c0.6,0,1.2-0.3,1.5-0.8c0.3-0.5,0.3-1.2,0-1.7L43.9,37.5z M38.7,8.1h2.1
	c0.1,0,0.2,0,0.3,0.1l5.6,7.5c-0.1,2.7-2.1,5-4.8,5.3c-1,0.1-2,0-3-0.3l-0.3-0.1L38.7,8.1z M3.5,15.5l5.6-7.4C9.2,8,9.4,8,9.5,8h3.1
	l-0.1,11.9c-0.4,0.3-0.8,0.5-1.3,0.7c-1,0.3-2,0.4-3,0.3C5.5,20.6,3.5,18.3,3.5,15.5z M4.9,44.4l2.9-5.5h10.3
	c-1.1-0.9-2.1-1.9-2.7-3.2H8.8L8.9,24c1.2,0,2.4-0.2,3.6-0.6l0,0c0.7-0.3,1.3-0.6,1.9-1c0.6,0.4,1.3,0.8,2,1c-0.5-1-0.8-2.2-0.8-3.3
	c0-0.7,0.1-1.3,0.3-1.9L16,8h7.1v1.6c0.5-0.3,1.1-0.4,1.7-0.4c0.6,0,1.2,0.1,1.7,0.4V8.1l8.8,0.1l-0.1,10.5l-0.7,0.8
	c-0.2,0.2-0.4,0.4-0.7,0.6c-0.3,1.7-1.6,3-3.3,3.3c0.4,0.2,0.8,0.5,1.1,0.8c1.5-0.2,2.8-0.7,4.1-1.6c0.6,0.4,1.3,0.8,2,1.1
	c1,0.3,2,0.5,3,0.6l-0.1,11.6h-6.5c-0.7,1.2-1.6,2.3-2.7,3.2h10l3,5.5H4.9z M25.8,23.8v-7c1.3,0.3,2.4,1.3,2.8,2.6
	c0.1,0.8,0.8,1.3,1.6,1.2s1.3-0.8,1.2-1.6v-0.1v-0.1c-0.7-2.6-2.9-4.5-5.5-4.8v-1.1c0.1-0.5-0.3-1-0.8-1c-0.5-0.1-1,0.3-1,0.8
	c0,0.1,0,0.1,0,0.2V14c-3.1,0.4-5.4,3-5.5,6.1c0,3.3,3,4.8,5.5,5.9v9.6c-2-0.3-3.6-1.7-4.1-3.7c-0.2-0.7-1-1.1-1.7-0.9
	c-0.6,0.2-1,0.8-0.9,1.5c0.8,3.2,3.5,5.5,6.8,5.8V40c0.1,0.5,0.5,0.9,1,0.8c0.4,0,0.8-0.4,0.8-0.8v-1.7c3.9-0.3,6.9-3.5,7-7.3
	C32.7,27,28.6,25.1,25.8,23.8z M23.9,22.9c-1.7-0.9-2.8-1.6-2.8-2.8c0-1.6,1.2-3,2.8-3.3V22.9z M25.8,35.6v-8.7c2,1,4.2,2.3,4.2,4.1
	C29.8,33.3,28.1,35.3,25.8,35.6z"/>
</svg>
