<svg id="Layer_1" data-name="Layer 1" xmlns="http://www.w3.org/2000/svg" width="24" height="25" viewBox="0 0 24 25"><path d="M19,7.54H16.88L18,4.78h2Zm-6,0V8.45h2l-1.15,2.76h1.61l1.07-2.76h2.08l-1.07,2.76h1.61l1.07-2.76h1.93V7.54H20.58l1.07-2.76H24V3.86H22L23.07,1.1h-1.6L20.4,3.86H18.31L19.38,1.1h-1.6L16.7,3.86H14.77V4.78h1.58L15.27,7.54H13Zm3.69,9.36c-0.69.11-1.44,0.75-3,2.11a19.85,19.85,0,0,1-5.13-4.11,17.21,17.21,0,0,1-3.2-5.25C7.13,8.1,7.85,7.45,7.89,6.71c0-.39-0.79-5.29-1.66-5.78L6,0.76A3.2,3.2,0,0,0,3.66,0,2,2,0,0,0,3,.32,8.15,8.15,0,0,0,.19,3.13C-0.24,4-.43,11.78,5.43,18.37s12.95,6.8,14,6.58h0.09a8.15,8.15,0,0,0,3.14-2.47c0.85-1,.24-2.3-0.08-3l-0.13-.28c-0.39-.91-5.17-2.32-5.57-2.34Z" transform="translate(0)" fill="none"/></svg>