<svg xmlns="http://www.w3.org/2000/svg" viewBox="0 0 50 50"><path d="M37.58,33.74l-4.71-4c-1.47-1.24-2.89.54-2.89.54l-2,2.33a18.81,18.81,0,0,1-6-3.45,18.78,18.78,0,0,1-4.45-5.34l2-2.33s1.5-1.7,0-2.94l-4.71-3.95c-1.74-1.46-2.91-.11-3.47.56S4.82,22.91,18,34s19.08,4,19.63,3.28S39.33,35.2,37.58,33.74Z" fill="none"/><path d="M33.26,27.56H33.1a1,1,0,0,1-.83-1.14h0A7.15,7.15,0,0,0,30,19.67a7.15,7.15,0,0,0-7-1.06,1,1,0,1,1-.66-1.89h0a8.87,8.87,0,0,1,12,10A1,1,0,0,1,33.26,27.56Z" fill="none"/><path d="M36.63,27.72h-.18a1,1,0,0,1-.8-1.16,10.15,10.15,0,0,0-3.2-9.78,10.16,10.16,0,0,0-10.2-1.48,1,1,0,0,1-.69-1.88,12.13,12.13,0,0,1,12.17,1.8A12.12,12.12,0,0,1,37.61,26.9,1,1,0,0,1,36.63,27.72Z" fill="none"/><path d="M40.25,27.89h-.16a1,1,0,0,1-.82-1.15A13.63,13.63,0,0,0,34.9,13.83a13.63,13.63,0,0,0-13.46-2.05,1,1,0,1,1-.67-1.89h0A15.61,15.61,0,0,1,36.19,12.3a15.61,15.61,0,0,1,5,14.75A1,1,0,0,1,40.25,27.89Z" fill="none"/></svg>
