<svg xmlns="http://www.w3.org/2000/svg" viewBox="0 0 25 25"><title>Boss-xgen_icons_for-svg</title><path d="M24,14.69,22.08,10H22V7a1,1,0,0,0-1-1H18V3h3V0H13V3h3V6H11V2H5V6H4A1,1,0,0,0,3,7v3H2.92L1,14.69V19H24ZM6,3h4v7H6ZM6,17H4V16H6Zm0-2H4V14H6Zm1-2H5V12H7Zm3,4H8V16h2Zm0-2H8V14h2Zm1-2H9V12h2Zm3,4H12V16h2Zm0-2H12V14h2Zm0-2H12V12h2Zm0-5h6v2H14Zm1,4h2v1H15Zm3,5H16V16h2Zm0-2H16V14h2Zm1-3h2v1H19Zm3,5H20V16h2Zm0-2H20V14h2ZM7,7H9V6H7ZM7,9H9V8H7ZM7,5H9V4H7ZM24,20H1a1,1,0,0,0-1,1v3a1,1,0,0,0,1,1H24a1,1,0,0,0,1-1V21A1,1,0,0,0,24,20ZM14,24H11V21h3Z" fill="#fff" fill-rule="evenodd"/></svg>
