<svg xmlns="http://www.w3.org/2000/svg" viewBox="0 0 40 40"><title>Boss-xgen_icons_for-svg</title><path d="M38,24l-3-8V12a3,3,0,0,0-3-3H29V5h4a1,1,0,0,0,1-1V1a1,1,0,0,0-1-1H22a1,1,0,0,0-1,1V4a1,1,0,0,0,1,1h4V9H17V5a1,1,0,0,0-1-1H9A1,1,0,0,0,8,5V9a3,3,0,0,0-3,3v4L2,24v7H38ZM8,28H4V26H8Zm1-4H5V22H9Zm1-4H6V18h4Zm5,8H11V26h4Zm1-4H12V22h4Zm0-4H12V18h4Zm0-4H9V5h7Zm6,12H18V26h4Zm0-4H18V22h4Zm0-4H18V18h4Zm1-8h9v3H23Zm5,6v2H24V18Zm-4,4h4v2H24Zm5,6H25V26h4Zm1-10h4v2H30Zm1,4h4v2H31Zm5,6H32V26h4Zm1.17,4H2.83A2.83,2.83,0,0,0,0,34.83v2.34A2.83,2.83,0,0,0,2.83,40H37.17A2.83,2.83,0,0,0,40,37.17V34.83A2.83,2.83,0,0,0,37.17,32ZM20,38a2,2,0,1,1,2-2A2,2,0,0,1,20,38ZM14,7H11V8h3Zm0,3H11v1h3Zm0,3H11v1h3Z" fill="#fff" fill-rule="evenodd"/></svg>
