<svg xmlns="http://www.w3.org/2000/svg" viewBox="0 0 40 40"><path d="M13.7,11.38a2.16,2.16,0,0,0-1.06-1.93A4.9,4.9,0,0,0,9.73,8.8,15.39,15.39,0,0,0,7,9v10a18.2,18.2,0,0,0,2.29.14c1.88,0,3.08-.32,3.8-.94a2.74,2.74,0,0,0,1-2.12A2.57,2.57,0,0,0,12,13.62v0A2.36,2.36,0,0,0,13.7,11.38ZM8.85,10.25a5.06,5.06,0,0,1,1.06-.08c1.18,0,1.91.44,1.91,1.41s-.71,1.47-2,1.47h-1Zm3.26,5.84c0,1.26-1.08,1.7-2.27,1.7a5.92,5.92,0,0,1-1,0V14.41h.92C11.06,14.41,12.11,14.89,12.11,16.09Zm7,8.71A11.23,11.23,0,1,1,25.19,19a3,3,0,0,1,2.22,1.63l.18.36h.19c.1-.19.19-.38.28-.58a3,3,0,0,1,.49-1.16,14.4,14.4,0,1,0-22.5,6.39L1,37.39l6.68-3.52L10.17,40,15,28.83,19.83,40l2.51-6.13.06,0c0-.08,0-.15,0-.23a4.71,4.71,0,0,1,.6-2.32l.46-.84L21.7,27A3,3,0,0,1,19.12,24.81Zm3.73-13.13A2.6,2.6,0,0,0,22,9.62a4.76,4.76,0,0,0-3.15-.82A16,16,0,0,0,16,9V19.09h1.85v-4.2h.94c1.06,0,1.53.46,1.83,1.79a13.13,13.13,0,0,0,.68,2.41A3,3,0,0,1,22,19h1.18c-.19-.46-.45-1.56-.76-2.76a2.53,2.53,0,0,0-1.43-2v0A2.68,2.68,0,0,0,22.85,11.68ZM19,13.53H17.85V10.3A5.36,5.36,0,0,1,19,10.21c1.21,0,2,.53,2,1.64S20.21,13.53,19,13.53ZM28,25h3v3h1V25h3V24H32V21H31v3H28Zm8.24,11.38A1.81,1.81,0,1,0,38,38.19,1.81,1.81,0,0,0,36.24,36.38Zm-9,0A1.81,1.81,0,1,0,29,38.19,1.81,1.81,0,0,0,27.19,36.38Zm1-4.38h6.74a1.94,1.94,0,0,0,1.58-1.07L40,24.58l-1.57-.87h0l-1,1.81L34.92,30H28.57l-.12-.2-2-4.28-.86-1.81L24.72,22H22v2h1.57l3.26,6.58L25.61,32.8a1.75,1.75,0,0,0-.23.87c0,1,.81,1.33,1.81,1.33H38V33H28C27.88,33,28.18,32,28.18,32Z" fill="none"/></svg>
