<svg xmlns="http://www.w3.org/2000/svg" viewBox="0 0 25 25"><path d="M11,9V7h2V9h1V6H10v7h1V10h2V9Zm3,3V10H13v2Zm-2.16,4.62a7.53,7.53,0,1,1,4.46-4,2,2,0,0,1,.28.38A2,2,0,0,1,17,13a2,2,0,0,1,1.86-2A9.49,9.49,0,1,0,3.54,16.89L.74,23.37l4.18-2.2L6.48,25l2.6-6a4,4,0,0,0,.83,0l2.6,6,1-2.34A3,3,0,0,1,12.94,21a3.19,3.19,0,0,1,.53-1.63l.11-.16.21-.29L12.86,17A2,2,0,0,1,11.84,16.62ZM6,9V7H8V9H9V6H5v7H9V10H8v2H6V10H8V9ZM17,20h4.84a1.11,1.11,0,0,0,1-.57L25,15.53,24,15l-.63,1.14L21.79,19H17.18l-.07-.15-1.24-2.63-.53-1.11L14.82,14H13v1h1.11l2,4.09-.92,1.27a1.54,1.54,0,0,0-.25.61c0,.59.44,1.05,1.4,1H24V21H16.15A10.18,10.18,0,0,1,17,20Zm7-5h0Zm-5-2v2H17v1h2v2h1V16h2V15H20V13ZM16,25h2V23H16Zm5,0h2V23H21Z" fill="none"/></svg>
