<svg id="Layer_1" data-name="Layer 1" xmlns="http://www.w3.org/2000/svg" width="50" height="50" viewBox="0 0 50 50"><path d="M25,0A25,25,0,1,0,50,25,25,25,0,0,0,25,0Zm0,48A23,23,0,0,1,4,15.66c0,0.5,0,1,0,1.49,0,0-.66,3.43,0,4.27,0.09,0.11.46,0,.56,0.14C5,22,4.93,23.44,5.22,24S6,25.71,6.48,25.55s0.22-1.37,0-1.75A5.18,5.18,0,0,1,6,23.51a0.82,0.82,0,0,1,.29-0.77,1.33,1.33,0,0,1,1,.63c0.25,0.45-.2,1.59,0,2.06a3.78,3.78,0,0,0,1.5,1.51c0.49,0.2,1.6-.16,2.1,0a5.25,5.25,0,0,1,2.37,1.75c0.44,0.87-.39,3,0,3.91A7.08,7.08,0,0,0,14.78,34a8.78,8.78,0,0,1,1.9,1.78c0.76,1.77-.78,5.93,0,7.69,0.44,1,2.22,3.37,3.22,2.93s-0.43-2.93,0-3.77,2.46-1.31,2.86-2.1-0.24-2.39,0-3.14a3.06,3.06,0,0,1,1-1.4c0.42-.22,1.55.33,1.89,0s0-1.49,0-2c0-.78.55-2.56,0-3.11-0.32-.32-1.41.2-1.82,0C23,30.52,22.34,28.4,21.5,28c-0.47-.23-1.73.37-2.1,0-0.1-.1.1-0.46,0-0.56-1-1-4.5.54-5.87,0a7.21,7.21,0,0,1-2.94-2.79,1.6,1.6,0,0,1,0-1.27,3,3,0,0,1,3,0c0.2,0.2-.2.92,0,1.12a0.92,0.92,0,0,0,.92,0c0.37-.37-0.2-1.61,0-2.1a3.27,3.27,0,0,1,.66-0.66l1-1L17,19.91a3.31,3.31,0,0,0,.66-0.67c0.06-.14-0.06-0.48,0-0.63a1.33,1.33,0,0,1,.74-0.73c0.11,0,.21.31,0.32,0.31a1,1,0,0,0,.76-0.77c-0.11-.27-1,0.21-1.19,0a0.63,0.63,0,0,1,0-.63c0.15-.15.69,0.15,0.84,0s-0.17-.81,0-1,0.69,0.15.84,0a2.4,2.4,0,0,0,0-2.38c-0.35-.35-1.61.35-2,0-0.07-.07.07-0.35,0-0.42a1.91,1.91,0,0,0-1.9,0c-0.61.61,0.51,2.74,0,3.43a0.81,0.81,0,0,1-.69.21c-0.33-.15-0.34-1-0.56-1.33s-1.31-.83-1.68-1.19-1.19-1-1-1.33,1.29,0.39,1.67.21a1.31,1.31,0,0,0,.56-0.91A2.58,2.58,0,0,0,14,11.56a1,1,0,0,1-.21-0.7c0.3-.43,1.71.21,2.1-0.14a1.54,1.54,0,0,0,.27-1.47c-1.11-1.35-7-.07-7-0.07a7.26,7.26,0,0,0-.83,0,23.12,23.12,0,0,1,3-2.7,6.07,6.07,0,0,0,.82,1.1,2.63,2.63,0,0,0,2.06,0h0C14.32,7.32,15,7,15.07,6.73s-0.21-1,0-1.19a0.92,0.92,0,0,1,.91,0c0.36,0.36-.36,1.67,0,2s1.15-.25,1.4,0c0.74,0.74-.74,3.46,0,4.2a2,2,0,0,0,2,0c1-1,1-4.78,0-5.81a1.73,1.73,0,0,0-.9,0c-0.44,0-1.44.31-1.75,0a1.27,1.27,0,0,1,0-1.25c0.22-.22,1,0.12,1.26,0A1.32,1.32,0,0,0,18.75,4,5.69,5.69,0,0,0,18,3.08,22.94,22.94,0,0,1,24.1,2c0,0.37.07,0.7,0.06,0.73-0.09.43,0.31,1.44,0,1.75s-1.15-.25-1.4,0a3.45,3.45,0,0,0,0,3.42,0.4,0.4,0,0,0,.21,0,1.48,1.48,0,0,1,.77,0,1.34,1.34,0,0,1,0,1.33c-0.2.2-.92-0.2-1.12,0-0.51.51-.27,2.2,0,2.87a2,2,0,0,0,1.12,1.12c0.47,0,1-1,1.33-1.33l2.55-2.56a5.18,5.18,0,0,1,1.05-1c0.28-.12,1,0.22,1.22,0,0.45-.45,0-1.91,0-2.55,0-.45.32-1.5,0-1.82s-1.32.28-1.6,0a6.28,6.28,0,0,1-.23-1.73A22.93,22.93,0,0,1,41.42,8.9c-1.08-.17-3.36-0.48-3.77-0.14a3.79,3.79,0,0,0-.14.69,1.65,1.65,0,0,1-.63.42,1.82,1.82,0,0,1-1.33.14c-0.15-.15.2-0.67,0.07-0.84s-1,0-1.19-.21,0.36-.68.21-0.84c-0.33-.33-1.44.14-1.82,0.42a13.05,13.05,0,0,0-1,1.68,13.36,13.36,0,0,0-1.68,1.26A2.11,2.11,0,0,0,30,13.1c0.25,0.35,1.27.28,1.67,0.42a3,3,0,0,0,1,.42,1,1,0,0,0,.49-0.49c0.26-.61-0.47-2.19,0-2.66a0.64,0.64,0,0,1,.63,0c0.24,0.24-.24,1.1,0,1.33s1-.21,1.19,0a1.41,1.41,0,0,1,0,1.39c-0.2.2-.92-0.2-1.12,0s0.17,0.81,0,1c-0.49.49-2.3-.49-2.8,0-0.17.17,0.17,0.81,0,1a1.16,1.16,0,0,1-.91,0,3.16,3.16,0,0,1-1.25-1.26,3.44,3.44,0,0,0,0-.84,1.48,1.48,0,0,0-1.47,0,2.68,2.68,0,0,0,0,1.4,2.42,2.42,0,0,1,0,.7,2.27,2.27,0,0,0-.39.38,1,1,0,0,0,.73.74c0.32,0,.59-0.91.92-0.91a1,1,0,0,1,.69.7,2.26,2.26,0,0,1-.39.38,2.2,2.2,0,0,1,0,.53c-0.1.1-.48-0.1-0.59,0-0.4.4,0,1.68,0,2.24a1.33,1.33,0,0,0,0,.69,1.62,1.62,0,0,0,1.61,0c0.26-.26-0.14-1.13,0-1.46a4,4,0,0,1,.8-0.81A2.55,2.55,0,0,1,31.78,17,2.26,2.26,0,0,1,33,18.27c0.05,0.13-.05.43,0,0.56a2.12,2.12,0,0,0,.84.84,1.12,1.12,0,0,0,1,0c0.17-.42-1.47-0.87-1.29-1.29a0.94,0.94,0,0,1,.88,0c0.46,0.19.95,1.6,1.41,1.41,0.24-.1-0.1-0.79,0-1a3.32,3.32,0,0,1,1.32-1.32,2.23,2.23,0,0,1,1.25,0,1.26,1.26,0,0,1,.84.83c-0.13.31-1-.13-1.32,0a3.83,3.83,0,0,0-.77.77c-0.2.2-.91,0.54-0.8,0.8s1.12-.24,1.36,0a1,1,0,0,1,0,.95c-1,1-4.43,1-5.38,0-0.14-.14.14-0.64,0-0.77a1.88,1.88,0,0,0-1,0,2.69,2.69,0,0,0-.77,0c-0.48.2-1,1.27-1.47,1.47s-1.77-.22-2.31,0a3.42,3.42,0,0,0-1.36,1.36,7.16,7.16,0,0,0,0,4,4,4,0,0,0,1.59,1.59c0.93,0.39,3.11-.39,4,0a4.86,4.86,0,0,1,1.93,1.93c0.35,0.84,0,2.73,0,3.64a4.29,4.29,0,0,0,0,1.22c0.21,0.51,1.34,1,1.55,1.55s-0.47,2.17,0,2.64,2.22,0.28,2.88,0a3.07,3.07,0,0,0,1.22-1.22c0.28-.69-0.53-2.45,0-3,0.28-.28,1.29.28,1.57,0a2.34,2.34,0,0,0,0-1.22V32.47a10.52,10.52,0,0,1,0-3c0.28-.67,1.79-1.39,2.07-2.06a2.09,2.09,0,0,0,0-1.64c-0.4-.4-1.75.22-2.28,0a5,5,0,0,1-2-2,1.74,1.74,0,0,1,0-1.37,0.88,0.88,0,0,1,.87,0,4,4,0,0,1,0,1,3.7,3.7,0,0,0,1.47,1.47c0.69,0.29,2.47.53,3,0a2.31,2.31,0,0,0,0-1.82c-0.2-.48-1.47-0.95-1.47-1.47a0.7,0.7,0,0,1,.49-0.49c1.72,0,4.87,4.87,4.87,4.87S47.64,26,48,26.06A23,23,0,0,1,25,48Z" fill="none"/></svg>