<svg id="Layer_1" data-name="Layer 1" xmlns="http://www.w3.org/2000/svg" width="25" height="25" viewBox="0 0 25 25"><path d="M12.5,0A12.5,12.5,0,1,0,25,12.5,12.51,12.51,0,0,0,12.5,0Zm0,24A11.49,11.49,0,0,1,2,7.84a4.53,4.53,0,0,0,0,.73s-0.33,1.72,0,2.14c0,0.06.23,0,.28,0.07A5.69,5.69,0,0,1,2.61,12a1.18,1.18,0,0,0,.63.77,0.86,0.86,0,0,0,0-.88A2.6,2.6,0,0,1,3,11.76a0.41,0.41,0,0,1,.14-0.38,0.66,0.66,0,0,1,.5.31c0.13,0.23-.1.79,0,1a1.89,1.89,0,0,0,.75.75c0.24,0.1.8-.08,1.05,0a2.63,2.63,0,0,1,1.19.87c0.22,0.44-.19,1.51,0,2a3.54,3.54,0,0,0,.77.72,4.39,4.39,0,0,1,.95.89c0.38,0.88-.39,3,0,3.85,0.22,0.5,1.11,1.69,1.61,1.47s-0.21-1.47,0-1.89,1.23-.65,1.43-1.05a13.87,13.87,0,0,0,0-1.57,1.53,1.53,0,0,1,.49-0.7,5.14,5.14,0,0,0,.94,0,1.9,1.9,0,0,0,0-1c0-.39.27-1.28,0-1.56a4.5,4.5,0,0,0-.91,0c-0.42-.2-0.73-1.26-1.15-1.47a5.18,5.18,0,0,1-1,0s0-.23,0-0.28c-0.52-.52-2.25.27-2.93,0a3.61,3.61,0,0,1-1.47-1.4,0.8,0.8,0,0,1,0-.63,1.51,1.51,0,0,1,1.5,0c0.1,0.1-.1.46,0,0.56a0.46,0.46,0,0,0,.46,0,4.31,4.31,0,0,0,0-1,1.63,1.63,0,0,1,.33-0.33l0.49-.49L8.5,10a1.66,1.66,0,0,0,.33-0.33c0-.07,0-0.24,0-0.31A0.66,0.66,0,0,1,9.2,8.94c0.06,0,.1.16,0.16,0.16a0.48,0.48,0,0,0,.38-0.38,3.64,3.64,0,0,0-.59,0,0.32,0.32,0,0,1,0-.31c0.07-.07.35,0.07,0.42,0s-0.09-.4,0-0.49S9.91,8,10,7.91a1.2,1.2,0,0,0,0-1.19c-0.17-.17-0.81.17-1,0s0-.17,0-0.21a1,1,0,0,0-.95,0c-0.3.3,0.26,1.37,0,1.71a0.4,0.4,0,0,1-.35.1,2.45,2.45,0,0,1-.28-0.66c-0.16-.2-0.65-0.41-0.84-0.59A1,1,0,0,1,6.1,6.41c0.11-.18.65,0.19,0.84,0.1a0.66,0.66,0,0,0,.28-0.45A1.29,1.29,0,0,0,7,5.78a0.51,0.51,0,0,1-.11-0.35C7,5.21,7.73,5.54,7.92,5.36a0.77,0.77,0,0,0,.14-0.74C7.67,4.15,5.34,4.53,4,4.79A11.54,11.54,0,0,1,5.5,3.39C5.76,3.58,6,3.78,6.07,3.8a1.31,1.31,0,0,0,1,0h0c0.06-.14.38-0.29,0.44-0.44a2.43,2.43,0,0,1,0-.59,0.46,0.46,0,0,1,.45,0c0.18,0.18-.18.83,0,1s0.58-.12.7,0c0.37,0.37-.37,1.73,0,2.1a1,1,0,0,0,1,0A2.93,2.93,0,0,0,9.7,3a0.86,0.86,0,0,0-.45,0,1.67,1.67,0,0,1-.88,0,0.63,0.63,0,0,1,0-.63,2.59,2.59,0,0,1,.63,0A0.66,0.66,0,0,0,9.37,2a0.55,0.55,0,0,0-.21-0.21,0.78,0.78,0,0,0-.23-0.21A11.47,11.47,0,0,1,12.08,1c0,0.18,0,.34,0,0.35a2.35,2.35,0,0,1,0,.88c-0.12.12-.58-0.12-0.7,0a1.73,1.73,0,0,0,0,1.71,0.2,0.2,0,0,0,.11,0,0.74,0.74,0,0,1,.39,0,0.67,0.67,0,0,1,0,.67c-0.1.1-.46-0.1-0.56,0a1.82,1.82,0,0,0,0,1.43,1,1,0,0,0,.56.56A1.79,1.79,0,0,0,12.54,6l1.27-1.28a2.6,2.6,0,0,1,.53-0.52,2.5,2.5,0,0,0,.61,0,2.44,2.44,0,0,0,0-1.28,1.74,1.74,0,0,0,0-.91c-0.14-.14-0.66.14-0.8,0a1.09,1.09,0,0,1,0-.58,1.17,1.17,0,0,0,0-.26A11.44,11.44,0,0,1,20.26,4a4.65,4.65,0,0,0-1.43.35,1.9,1.9,0,0,0-.07.35,0.82,0.82,0,0,1-.32.21,0.91,0.91,0,0,1-.66.07c-0.08-.07.1-0.34,0-0.42s-0.51,0-.59-0.1,0.18-.34.11-0.42a1,1,0,0,0-.91.21,6.52,6.52,0,0,0-.49.84,6.68,6.68,0,0,0-.84.63,1.05,1.05,0,0,0-.07.8,2,2,0,0,0,.84.21,1.5,1.5,0,0,0,.49.21,0.5,0.5,0,0,0,.25-0.24c0.13-.31-0.24-1.1,0-1.33a0.32,0.32,0,0,1,.31,0c0.12,0.12-.12.55,0,0.67s0.49-.1.59,0a0.7,0.7,0,0,1,0,.7c-0.1.1-.46-0.1-0.56,0s0.09,0.4,0,.49c-0.25.25-1.15-.25-1.4,0-0.09.09,0.09,0.4,0,.49a0.58,0.58,0,0,1-.46,0,1.58,1.58,0,0,1-.63-0.63,1.72,1.72,0,0,0,0-.42,0.74,0.74,0,0,0-.73,0,1.34,1.34,0,0,0,0,.7,1.21,1.21,0,0,1,0,.35,1.14,1.14,0,0,0-.19.19,0.52,0.52,0,0,0,.36.37c0.16,0,.3-0.46.46-0.45a0.5,0.5,0,0,1,.35.35,1.13,1.13,0,0,1-.19.19,1.1,1.1,0,0,1,0,.26c-0.05.05-.24-0.05-0.29,0a2.14,2.14,0,0,0,0,1.12,0.66,0.66,0,0,0,0,.35,0.81,0.81,0,0,0,.8,0,3,3,0,0,0,0-.73,2,2,0,0,1,.4-0.4,1.28,1.28,0,0,1,.47-0.47,1.13,1.13,0,0,1,.63.63c0,0.06,0,.22,0,0.28a1.06,1.06,0,0,0,.42.42,0.56,0.56,0,0,0,.52,0c0.09-.21-0.73-0.43-0.65-0.65a0.47,0.47,0,0,1,.44,0c0.23,0.1.47,0.8,0.71,0.71a1.27,1.27,0,0,0,0-.51,1.66,1.66,0,0,1,.66-0.66,1.11,1.11,0,0,1,.63,0,0.63,0.63,0,0,1,.42.42,1.63,1.63,0,0,1-.66,0,1.91,1.91,0,0,0-.39.39,0.83,0.83,0,0,0-.4.4,4.16,4.16,0,0,0,.68,0,0.48,0.48,0,0,1,0,.47,2.71,2.71,0,0,1-2.69,0c-0.07-.07.07-0.32,0-0.39a0.94,0.94,0,0,0-.49,0,1.35,1.35,0,0,0-.38,0c-0.24.1-.49,0.64-0.73,0.74s-0.89-.11-1.15,0a1.71,1.71,0,0,0-.68.68,3.58,3.58,0,0,0,0,2,2,2,0,0,0,.79.8c0.47,0.19,1.55-.19,2,0a2.43,2.43,0,0,1,1,1,6.37,6.37,0,0,1,0,1.82,2.14,2.14,0,0,0,0,.61c0.1,0.25.67,0.52,0.78,0.78s-0.23,1.09,0,1.32a1.83,1.83,0,0,0,1.44,0,1.54,1.54,0,0,0,.61-0.61c0.14-.34-0.26-1.22,0-1.49s0.65,0.14.78,0a1.17,1.17,0,0,0,0-.61V16.23a5.26,5.26,0,0,1,0-1.51c0.14-.34.89-0.69,1-1a1,1,0,0,0,0-.82,4.69,4.69,0,0,0-1.14,0,2.5,2.5,0,0,1-1-1,0.87,0.87,0,0,1,0-.68,0.44,0.44,0,0,1,.43,0,2,2,0,0,1,0,.49,1.85,1.85,0,0,0,.74.73,1.91,1.91,0,0,0,1.5,0,1.16,1.16,0,0,0,0-.91A4.27,4.27,0,0,1,21,10.78a0.35,0.35,0,0,1,.25-0.24c0.86,0,2.43,2.43,2.43,2.43l0.31,0A11.49,11.49,0,0,1,12.5,24Z" fill="none"/></svg>