<svg id="Layer_1" data-name="Layer 1" xmlns="http://www.w3.org/2000/svg" width="25" height="25" viewBox="0 0 25 25"><path d="M20.5,9A4.5,4.5,0,0,0,25,4.5s0-.07,0-0.11,0-.07,0-0.11A4.28,4.28,0,0,0,20.72,0H20.5A4.5,4.5,0,0,0,16,4.5a4.46,4.46,0,0,0,.06.62L7.72,9.36A4.49,4.49,0,0,0,.34,10.78,4.27,4.27,0,0,0,0,12.46v0a4.49,4.49,0,0,0,7.75,3.1l8.31,4.26A4.38,4.38,0,0,0,20.5,25h0.22A4.28,4.28,0,0,0,25,20.72s0-.07,0-0.11,0-.07,0-0.11a4.48,4.48,0,0,0-7.86-3L8.92,13.31a4.2,4.2,0,0,0,0-1.68l8.22-4.18A4.47,4.47,0,0,0,20.5,9Z" fill="none"/></svg>