<svg id="Layer_1" data-name="Layer 1" xmlns="http://www.w3.org/2000/svg" width="50" height="50" viewBox="0 0 50 50"><path d="M10,13h0a5,5,0,0,0,10,0h0a5,5,0,0,0,10,0h0a5,5,0,0,0,10,0h0a5,5,0,0,0,10,0h0a0.5,0.5,0,0,0,0-.08L44,6H6L0,13c0,0.05,0-.07,0,0H0A5,5,0,0,0,10,13ZM44,1.53A1.58,1.58,0,0,0,42.41,0H7.59A1.58,1.58,0,0,0,6,1.53V4H44V1.53ZM40,26h4V21.37a8.48,8.48,0,0,1-4-1.54V26Zm-6,5H10V19.83h0a8.47,8.47,0,0,1-4,1.54V42.47A1.54,1.54,0,0,0,7.59,44H26V34h8V31Zm8-2H37v8H29v5h8v8h5V42h8V37H42V29Z" fill="none"/></svg>