<svg id="Layer_1" data-name="Layer 1" xmlns="http://www.w3.org/2000/svg" width="25" height="25" viewBox="0 0 25 25"><path d="M5,6.5H5a2.5,2.5,0,0,0,5,0h0a2.5,2.5,0,0,0,5,0h0a2.5,2.5,0,0,0,5,0h0a2.5,2.5,0,0,0,5,0h0a0.25,0.25,0,0,0,0,0L22,3H3L0,6.5s0,0,0,0H0A2.5,2.5,0,0,0,5,6.5ZM22,0.76A0.79,0.79,0,0,0,21.21,0H3.79A0.79,0.79,0,0,0,3,.76V2H22V0.76ZM21,15H19v4H15v2h4v4h2V21h4V19H21V15Zm-1-2h2V11.68a3.41,3.41,0,0,1-2-.77V13Zm-3,3H5V11a3.77,3.77,0,0,1-2,.68v9.55a0.79,0.79,0,0,0,.79.76H13V17h4V16Z" fill="none"/></svg>