<svg xmlns="http://www.w3.org/2000/svg" viewBox="0 0 40 40"><path d="M7.22,3.65a3.6,3.6,0,1,0,3.6,3.6A3.6,3.6,0,0,0,7.22,3.65Zm0,5.46a1.87,1.87,0,1,1,0-3.73h0a1.86,1.86,0,1,1,0,3.72Zm16,13.82V19.61a1.73,1.73,0,0,1,1.3,1.24.65.65,0,1,0,1.27-.25v0a3,3,0,0,0-2.59-2.26v-.54a.43.43,0,0,0-.86,0v.54a3,3,0,0,0-2.59,2.88c0,1.56,1.44,2.25,2.59,2.78v4.54a2.33,2.33,0,0,1-1.93-1.73.65.65,0,0,0-1.26.29,3.65,3.65,0,0,0,3.2,2.75v.76a.43.43,0,1,0,.86,0v-.76a3.58,3.58,0,0,0,3.29-3.48C26.54,24.44,24.6,23.53,23.27,22.93Zm-.86-.41c-.81-.4-1.34-.76-1.34-1.34h0a1.66,1.66,0,0,1,1.34-1.57Zm.86,6h0V24.36c1,.47,2,1.07,2,1.94A2.28,2.28,0,0,1,23.27,28.49ZM17,17h-4.6a.86.86,0,1,0,0,1.73H17A.86.86,0,0,0,17,17Zm0,11.45h-4.6a.86.86,0,0,0,0,1.73H17a.86.86,0,0,0,0-1.73Zm8.92-17.17H13.68a13,13,0,0,0,.6-3.12H28.52a.86.86,0,0,1,.86.86V25.85l1.73-1.53V9a2.59,2.59,0,0,0-2.59-2.59H14.28A7.16,7.16,0,0,0,0,7.17v0a14.17,14.17,0,0,0,6,11.3,2.08,2.08,0,0,0,1.18.31v13.6A2.59,2.59,0,0,0,9.82,35H19l2-1.73H9.82A.86.86,0,0,1,9,32.41V18a14.9,14.9,0,0,0,4-5H25.92a.86.86,0,1,0,0-1.73ZM7.4,17A.37.37,0,0,1,7,17,12.39,12.39,0,0,1,1.73,7.19,5.46,5.46,0,0,1,7.19,1.73h0a5.46,5.46,0,0,1,5.45,5.46A12.4,12.4,0,0,1,7.4,17ZM17,22.7h-4.6a.86.86,0,1,0,0,1.73H17a.86.86,0,0,0,0-1.73ZM39,24H36a1,1,0,0,0-1,1V39a1,1,0,0,0,1,1h3a1,1,0,0,0,1-1V25A1,1,0,0,0,39,24ZM25,35H22a1,1,0,0,0-1,1v3a1,1,0,0,0,1,1h3a1,1,0,0,0,1-1V36A1,1,0,0,0,25,35Zm7-5H29a1,1,0,0,0-1,1v8a1,1,0,0,0,1,1h3a1,1,0,0,0,1-1V31A1,1,0,0,0,32,30Z" fill="none" fill-rule="evenodd"/></svg>
