<svg xmlns="http://www.w3.org/2000/svg" viewBox="0 0 25 25"><path d="M12.09,11.11l9.1-6.51,1.27,1.74c.32.44.72.38.88-.15L25,1a.72.72,0,0,0-.71-1H18.84c-.55,0-.74.36-.41.81L19.7,2.55l-7.27,5.2-1.79-2.5a.3.3,0,0,0-.42-.07L0,12.48V15.6L9.88,8.54,11.67,11A.3.3,0,0,0,12.09,11.11ZM6,19H1a1,1,0,0,0-1,1v4a1,1,0,0,0,1,1H6a1,1,0,0,0,1-1V20A1,1,0,0,0,6,19Zm9-4H11a1,1,0,0,0-1,1v8a1,1,0,0,0,1,1h4a1,1,0,0,0,1-1V16A1,1,0,0,0,15,15Zm9-4H20a1,1,0,0,0-1,1V24a1,1,0,0,0,1,1h4a1,1,0,0,0,1-1V12A1,1,0,0,0,24,11Z" fill="none"/></svg>