<svg xmlns="http://www.w3.org/2000/svg" viewBox="0 0 40 40"><path d="M9,14h2a1,1,0,0,0,1-1V11a1,1,0,0,0-1-1H9a1,1,0,0,0-1,1v2A1,1,0,0,0,9,14Zm3.29,7.71a1,1,0,0,0,0-1.41l-1.59-1.59a1,1,0,0,0-1.41,0L.71,27.29a1,1,0,0,0,0,1.41l8.59,8.59a1,1,0,0,0,1.41,0l1.59-1.59a1,1,0,0,0,0-1.41L8,30H19V26H8ZM3,14a1,1,0,0,0,1-1V11a1,1,0,0,0-1-1H1a1,1,0,0,0-1,1v2a1,1,0,0,0,1,1Zm14,0H32l-4.29,4.29a1,1,0,0,0,0,1.41l1.59,1.59a1,1,0,0,0,1.41,0l8.59-8.59a1,1,0,0,0,0-1.41L30.71,2.71a1,1,0,0,0-1.41,0L27.71,4.29a1,1,0,0,0,0,1.41L32,10H17a1,1,0,0,0-1,1v2A1,1,0,0,0,17,14Zm6,24H38V26H23Zm7.5-11a5,5,0,1,1-5,5A5,5,0,0,1,30.5,27Zm7.75-3H22.74A1.74,1.74,0,0,0,21,25.74V38.25A1.75,1.75,0,0,0,22.75,40H38.25A1.75,1.75,0,0,0,40,38.25V25.74A1.74,1.74,0,0,0,38.26,24ZM39,37.11A1.86,1.86,0,0,1,37.17,39H23.83A1.86,1.86,0,0,1,22,37.11V26.89A1.86,1.86,0,0,1,23.83,25H37.17A1.86,1.86,0,0,1,39,26.89ZM29,32h1v1h1v1H29v1h1v1h1V35h1V34h1V33H32V32H31V31H30V30h2V29H31V28H30v1H29v1H28v1h1Z" fill="none"/></svg>