<svg xmlns="http://www.w3.org/2000/svg" viewBox="0 0 40 40"><path d="M23.6,24a.6.6,0,0,0-.6.58V25H38v-.42a.6.6,0,0,0-.6-.58ZM40,28.66s0,0,0,0L38,26H23l-2,2.66s0,0,0,0h0a1.9,1.9,0,0,0,3.8,0h0a1.9,1.9,0,0,0,3.8,0h0a1.9,1.9,0,0,0,3.8,0h0a1.9,1.9,0,0,0,3.8,0h0a1.9,1.9,0,0,0,3.8,0ZM36,32.1V36H25V32.1A2.55,2.55,0,0,1,23,33V39.4a.58.58,0,0,0,.58.58H37.42A.58.58,0,0,0,38,39.4V33A2.32,2.32,0,0,1,36,32.1ZM9,14h2a1,1,0,0,0,1-1V11a1,1,0,0,0-1-1H9a1,1,0,0,0-1,1v2A1,1,0,0,0,9,14Zm3.29,7.71a1,1,0,0,0,0-1.41l-1.59-1.59a1,1,0,0,0-1.41,0L.71,27.29a1,1,0,0,0,0,1.41l8.59,8.59a1,1,0,0,0,1.41,0l1.59-1.59a1,1,0,0,0,0-1.41L8,30H19V26H8ZM3,14a1,1,0,0,0,1-1V11a1,1,0,0,0-1-1H1a1,1,0,0,0-1,1v2a1,1,0,0,0,1,1Zm14,0H32l-4.29,4.29a1,1,0,0,0,0,1.41l1.59,1.59a1,1,0,0,0,1.41,0l8.59-8.59a1,1,0,0,0,0-1.41L30.71,2.71a1,1,0,0,0-1.41,0L27.71,4.29a1,1,0,0,0,0,1.41L32,10H17a1,1,0,0,0-1,1v2A1,1,0,0,0,17,14Z" fill="none"/></svg>
