<svg xmlns="http://www.w3.org/2000/svg" viewBox="0 0 40 40"><path d="M14.4,13.62v0a2.36,2.36,0,0,0,1.7-2.2A2.16,2.16,0,0,0,15,9.45a4.9,4.9,0,0,0-2.91-.65A20.88,20.88,0,0,0,9,9v10a26.69,26.69,0,0,0,2.69.14c1.88,0,3.08-.32,3.8-.94a2.74,2.74,0,0,0,1-2.12A2.57,2.57,0,0,0,14.4,13.62ZM11,10.26a8.4,8.4,0,0,1,1.31-.08c1.18,0,1.91.44,1.91,1.41s-.71,1.47-2,1.47H11Zm1.23,7.53a9.62,9.62,0,0,1-1.23,0V14.41h1.17c1.29,0,2.34.49,2.34,1.68S13.43,17.79,12.23,17.79Zm11-3.52v0a2.68,2.68,0,0,0,1.87-2.55,2.6,2.6,0,0,0-.88-2.06A4.76,4.76,0,0,0,21,8.8,18.88,18.88,0,0,0,18,9V19h2V14.89h1c1.06,0,1.53.45,1.83,1.79A11.32,11.32,0,0,0,23.51,19h1.91a22.69,22.69,0,0,1-.8-2.76A2.53,2.53,0,0,0,23.19,14.27Zm-2-.74H20V10.3a5.94,5.94,0,0,1,1.2-.09c1.21,0,2,.53,2,1.64S22.41,13.53,21.16,13.53ZM22.23,40h0ZM36,24H33a1,1,0,0,0-1,1V39a1,1,0,0,0,1,1h3a1,1,0,0,0,1-1V25A1,1,0,0,0,36,24Zm-7.82.26A14.48,14.48,0,1,0,8.4,25.78l-5,11.61,6.68-3.52L12.57,40l4.76-11h.14l1.48,3.42ZM6,14.5A11.5,11.5,0,1,1,17.5,26,11.5,11.5,0,0,1,6,14.5ZM22,35H19a1,1,0,0,0-1,1v3a1,1,0,0,0,1,1h3a1,1,0,0,0,1-1V36A1,1,0,0,0,22,35Zm7-5H26a1,1,0,0,0-1,1v8a1,1,0,0,0,1,1h3a1,1,0,0,0,1-1V31A1,1,0,0,0,29,30Z" fill="none" fill-rule="evenodd"/></svg>