<svg xmlns="http://www.w3.org/2000/svg" viewBox="0 0 25 25"><path d="M11,0a11,11,0,0,0,0,22c.34,0,.67,0,1-.05v-.06l9.91-9.55A10.94,10.94,0,0,0,11,0Zm1,17.2V19H10V17.22a4.9,4.9,0,0,1-3.7-2L8,13.93a3.56,3.56,0,0,0,2.75,1.38c1,0,1.72-.5,1.72-1.43C12.42,11.48,7,12.07,7,8.1a3.43,3.43,0,0,1,3-3.25V3h2V4.81A4.18,4.18,0,0,1,14.34,6l-1.23,1.6a2.9,2.9,0,0,0-2.2-.91c-1.24,0-1.86.54-1.86,1.34,0,2.52,5.72,1.72,5.72,5.78A3.12,3.12,0,0,1,12,17.2ZM22,15V25h3V15ZM18,25h3V19H18Zm-4,0h3V22H14Z" fill="none"/></svg>