<svg xmlns="http://www.w3.org/2000/svg" viewBox="0 0 40 40"><path d="M26.17,0,23.75,2.4,21.33,0,18.92,2.4,16.5,0,14.08,2.4,11.67,0,9.25,2.4,6.83,0,4.42,2.4,2,0V32l2.42-2.4L6.83,32l2.42-2.4L11.67,32l2.42-2.4L16.5,32l2.42-2.4,2,2L31,22.65V0L28.58,2.4ZM13,17H12V16H11V15H9v2h2v1h1v1h1v2H12v1H11v1H9V22H8V21H7V19H8v1H9v1h2V19H9V18H8V17H7V15H8V14H9V13h2v1h1v1h1Zm13,6H16V20H26Zm0-6H16V14H26Zm0-6H7V8H26ZM23,35H20a1,1,0,0,0-1,1v3a1,1,0,0,0,1,1h3a1,1,0,0,0,1-1V36A1,1,0,0,0,23,35Zm7-5H27a1,1,0,0,0-1,1v8a1,1,0,0,0,1,1h3a1,1,0,0,0,1-1V31A1,1,0,0,0,30,30Zm7-6H34a1,1,0,0,0-1,1V39a1,1,0,0,0,1,1h3a1,1,0,0,0,1-1V25A1,1,0,0,0,37,24Z" fill="none" fill-rule="evenodd"/></svg>