<svg xmlns="http://www.w3.org/2000/svg" viewBox="0 0 40 40"><path d="M33.5,11a4.5,4.5,0,1,0-4.16-6.2,9.48,9.48,0,0,1,.16,1.7,9.36,9.36,0,0,1-.17,1.68A4.5,4.5,0,0,0,33.5,11Zm-27,0a4.5,4.5,0,0,0,4.17-2.82A9.36,9.36,0,0,1,10.5,6.5a9.48,9.48,0,0,1,.16-1.7A4.5,4.5,0,1,0,6.5,11ZM33,15h1V14H33ZM7,21.2V16H6v5.2L2.49,13H1.07A1,1,0,0,0,0,14.18L3,31.57A1.74,1.74,0,0,0,4.47,33H8.71a1.78,1.78,0,0,0,1.49-1.47l.48-2.78L8.75,17.31ZM6,15H7V14H6Zm32.93-2H37.51L34,21.2V16H33v5.2l-1.75-3.89-.47,2.79-1.46,8.66.48,2.8A1.74,1.74,0,0,0,31.29,33h4.25A1.78,1.78,0,0,0,37,31.53l2.45-14.29L40,14.18A1,1,0,0,0,38.93,13ZM19,17h2V15H19Zm1-4a6.5,6.5,0,1,0-6.5-6.5A6.51,6.51,0,0,0,20,13Zm7.13,1H25.3L21,25V18H19v7L14.7,14H12.87a1.36,1.36,0,0,0-1.36,1.66l3.82,22.68A2,2,0,0,0,17.26,40h5.49a2,2,0,0,0,1.92-1.66L27.82,19.6l.66-3.94A1.36,1.36,0,0,0,27.13,14Z" fill="none" fill-rule="evenodd"/></svg>