<svg xmlns="http://www.w3.org/2000/svg" viewBox="0 0 40 40"><path d="M17.5,0a17.5,17.5,0,0,0,0,35c.55,0,1.08,0,1.62-.08L34.59,21.25A17.47,17.47,0,0,0,17.5,0Zm1.4,26.73v2H16.1V26.76c-2.1-.31-3.75-1.24-4.45-2.72l1.83-2.18a5.47,5.47,0,0,0,4.18,2c1.5,0,2.63-.83,2.63-2.21,0-3.57-8.4-2.49-8.4-8.4a4.94,4.94,0,0,1,4.2-5v-2h2.8v2a5.56,5.56,0,0,1,3.91,1.84l-1.65,2.38A4.12,4.12,0,0,0,18,11.16c-1.84,0-2.73.8-2.73,2,0,3.76,8.55,2.51,8.55,8.54C23.8,24.29,21.7,26.21,18.9,26.73ZM32,30H29a1,1,0,0,0-1,1v8a1,1,0,0,0,1,1h3a1,1,0,0,0,1-1V31A1,1,0,0,0,32,30Zm-7,5H22a1,1,0,0,0-1,1v3a1,1,0,0,0,1,1h3a1,1,0,0,0,1-1V36A1,1,0,0,0,25,35ZM39,24H36a1,1,0,0,0-1,1V39a1,1,0,0,0,1,1h3a1,1,0,0,0,1-1V25A1,1,0,0,0,39,24Z" fill="none" fill-rule="evenodd"/></svg>