<svg xmlns="http://www.w3.org/2000/svg" viewBox="0 0 40 40"><path d="M17,10V8H16v2Zm-3,1h2V10H14V8h2V7H13v7h1Zm-3,2V11H10v2Zm7,1V13H17V11H16v3ZM15.16,26.89l4.63-6.61L19,18.52a10.32,10.32,0,0,0,4-8.13,10.5,10.5,0,0,0-21,0,10.32,10.32,0,0,0,4,8.13L2.28,27l4.87-2.54L9,28.85,12.5,20.8ZM4.5,10.5a8,8,0,1,1,8,8A8,8,0,0,1,4.5,10.5ZM8,8h2V7H7v7h3V13H8V11h2V10H8Zm2,2h1V8H10Zm5.36,20.08h-.53a.63.63,0,0,0-.64.64v2.09L11.67,30.3a.6.6,0,0,0-.87,0l-.46.46a.6.6,0,0,0,0,.87l2.51,2.51H10.72a.64.64,0,0,0-.65.65v.53a.65.65,0,0,0,.19.45.66.66,0,0,0,.46.19h4.64a.65.65,0,0,0,.46-.19.63.63,0,0,0,.19-.45V30.72a.65.65,0,0,0-.19-.46A.64.64,0,0,0,15.36,30.08ZM26.65,19h.54a.64.64,0,0,0,.65-.65V16.23l2.54,2.54a.61.61,0,0,0,.88,0l.46-.46a.61.61,0,0,0,0-.88l-2.54-2.54h2.11a.65.65,0,0,0,.66-.66v-.54a.66.66,0,0,0-.19-.46.67.67,0,0,0-.46-.19H26.65a.66.66,0,0,0-.46.19.64.64,0,0,0-.19.46v4.69a.65.65,0,0,0,.19.47A.64.64,0,0,0,26.65,19Zm9.45,7H33.82a3,3,0,0,0-5.32-2.65A3,3,0,0,0,23.18,26H20.9A1.69,1.69,0,0,0,19,27.65V38.1A1.89,1.89,0,0,0,20.9,40H36.1A1.89,1.89,0,0,0,38,38.1V27.65A1.7,1.7,0,0,0,36.1,26ZM30,24h2v2H30Zm-5,0h2v2H25ZM36,38H21V36H36Zm0-4H21V28h4.73l-2,2.34,1.54,1.11,2.26-3.08,1-1.29,1,1.29,2.26,3.08,1.54-1.11-2-2.34H36Z" fill="none" fill-rule="evenodd"/></svg>