<svg xmlns="http://www.w3.org/2000/svg" viewBox="0 0 25 25"><path d="M12.85,16.82a.41.41,0,0,0-.79.18,2.29,2.29,0,0,0,2,1.73v.48a.27.27,0,1,0,.54,0v-.48a2.23,2.23,0,0,0,1.08-.39l.55-.53a2.23,2.23,0,0,0,.44-1.27c0-1.17-1.22-1.74-2.05-2.12V12.33a1.09,1.09,0,0,1,.81.78.41.41,0,1,0,.8-.16v0a1.9,1.9,0,0,0-1.63-1.42v-.34a.27.27,0,1,0-.54,0v.34a1.86,1.86,0,0,0-1.63,1.81c0,1,.91,1.41,1.63,1.75V17.9A1.47,1.47,0,0,1,12.85,16.82Zm1.78,1.09V15.31c.6.29,1.24.67,1.24,1.22a1.43,1.43,0,0,1-1.24,1.37Zm-1.39-4.59h0a1,1,0,0,1,.84-1v1.84C13.58,13.91,13.25,13.68,13.25,13.31Zm-8.71-11A2.26,2.26,0,1,0,6.8,4.55,2.26,2.26,0,0,0,4.54,2.29Zm0,3.43a1.17,1.17,0,1,1,0-2.35h0a1.17,1.17,0,1,1,0,2.34Zm6.15,12.15H7.8A.54.54,0,1,0,7.8,19h2.89a.54.54,0,0,0,0-1.09Zm0-7.2H7.8a.54.54,0,1,0,0,1.09h2.89a.54.54,0,0,0,0-1.09Zm0,3.6H7.8a.54.54,0,0,0,0,1.09h2.89a.54.54,0,1,0,0-1.09Zm7.78-8.61v10l1.09-1.05V5.66A1.63,1.63,0,0,0,17.93,4H9a4.5,4.5,0,0,0-9,.48H0a8.91,8.91,0,0,0,3.8,7.11,1.31,1.31,0,0,0,.74.2v8.55A1.63,1.63,0,0,0,6.17,22h5.75L13,20.91H6.17a.54.54,0,0,1-.54-.54V11.32A9.36,9.36,0,0,0,8.17,8.16H16.3a.54.54,0,0,0,0-1.09H8.6a8.19,8.19,0,0,0,.38-2h8.95A.54.54,0,0,1,18.47,5.66Zm-13.81,5a.23.23,0,0,1-.23,0A7.79,7.79,0,0,1,1.09,4.52,3.43,3.43,0,0,1,4.52,1.09h0A3.43,3.43,0,0,1,8,4.52,7.79,7.79,0,0,1,4.66,10.71ZM14,25h3V22H14Zm8-10V25h3V15ZM18,25h3V19H18Z" fill="none"/></svg>
