<svg xmlns="http://www.w3.org/2000/svg" viewBox="0 0 25 25"><path d="M10.49,15a5.7,5.7,0,0,1-4.68-3,14.06,14.06,0,0,0-3.7,1.85A8.9,8.9,0,0,0,0,19.37C1.26,20.55,7.78,20.9,10.55,21l.71,0a7.89,7.89,0,0,1,1.07-6.36A4.58,4.58,0,0,1,10.49,15Zm4.94-7.58c.2-1-.08-1.67-.43-1.76C15.12,2.49,14.09.08,10.61,0h-.22C6.91.08,5.88,2.49,6,5.67c-.34.09-.63.74-.43,1.76s.81,2,1.17,2C7.56,11.55,9,13,10.5,13s2.95-1.45,3.77-3.57C14.63,9.43,15.23,8.43,15.43,7.42ZM19,13a6,6,0,1,0,6,6A6,6,0,0,0,19,13Zm4,7H22v1H21V20H19v1H15V17h4v1h4Zm-7,0h2V18H16Z" fill="none" fill-rule="evenodd"/></svg>