<svg xmlns="http://www.w3.org/2000/svg" viewBox="0 0 25 25"><path d="M4,9H7V7H6V8H5V7H6V6H5V5H6V6H7V4H4ZM9,7h1V6H9V5h1V6h1V4H8V9H9Zm2,2V7H10V9ZM9.49,17.42l2.82-4.2-.77-1.76a6.39,6.39,0,0,0,2.46-5,6.5,6.5,0,0,0-13,0,6.39,6.39,0,0,0,2.46,5L1.17,16.7l3-1.57,1.13,2.74,2.18-5ZM2,6.5A5.5,5.5,0,1,1,7.5,12,5.5,5.5,0,0,1,2,6.5ZM9.56,19H9.2a.43.43,0,0,0-.43.43v1.41L7.08,19.15a.41.41,0,0,0-.59,0l-.31.31a.41.41,0,0,0,0,.59l1.69,1.69H6.44A.44.44,0,0,0,6,22.2v.36a.44.44,0,0,0,.13.31.45.45,0,0,0,.31.13H9.56a.44.44,0,0,0,.31-.13.42.42,0,0,0,.13-.31V19.44a.44.44,0,0,0-.13-.31A.43.43,0,0,0,9.56,19Zm6.87-8h.36a.43.43,0,0,0,.43-.43V9.16l1.69,1.69a.41.41,0,0,0,.59,0l.31-.31a.41.41,0,0,0,0-.59L18.15,8.23h1.41A.44.44,0,0,0,20,7.8V7.43a.44.44,0,0,0-.13-.31A.45.45,0,0,0,19.57,7H16.44a.44.44,0,0,0-.31.13.42.42,0,0,0-.13.31v3.13a.44.44,0,0,0,.13.31A.43.43,0,0,0,16.44,11Zm6.36,5H21.72A2,2,0,0,0,22,15a2,2,0,0,0-4,0,2,2,0,0,0,.28,1h-.55A2,2,0,0,0,18,15a2,2,0,0,0-4,0,2,2,0,0,0,.28,1H13.2A1.19,1.19,0,0,0,12,17.2v6.6A1.2,1.2,0,0,0,13.2,25h9.6A1.2,1.2,0,0,0,24,23.8V17.2A1.2,1.2,0,0,0,22.8,16ZM19,14h2v2H19Zm-4,0h2v2H15Zm8,10H13V22H23Zm0-3H13V17h3.5L15,18.9l1,.7,1.43-1.94.6-.82.6.82L20,19.6l1-.7L19.5,17H23Z" fill="none" fill-rule="evenodd"/></svg>