<svg xmlns="http://www.w3.org/2000/svg" viewBox="0 0 40 40"><path d="M16.88,19.18h0S16.86,19.18,16.88,19.18Z" fill="none"/><path d="M25.64,20.09c-.78-.32-1.6-.63-2.42-.94C21.53,21.58,19.31,23,17,23s-4.56-1.45-6.25-3.92c-3.18,1.17-6.31,2.5-7.37,3.51C1,24.88,0,29.41,0,31.41c2,1.88,12.45,2.44,16.88,2.6l2.64-.12a11.48,11.48,0,0,1,6.12-13.8ZM30.5,21A9.5,9.5,0,1,0,40,30.5,9.5,9.5,0,0,0,30.5,21ZM37,32H36v2H33V32H30.65a3.5,3.5,0,1,1,0-3H37Zm-9.5-3A1.5,1.5,0,1,0,29,30.5,1.5,1.5,0,0,0,27.5,29ZM11,15.23C12.29,18.66,14.57,21,17,21s4.71-2.33,6-5.76c.58,0,1.55-1.62,1.87-3.24s-.14-2.69-.69-2.84c.19-5.13-1.47-9-7-9.15h-.35c-5.57.13-7.23,4-7,9.15-.55.15-1,1.19-.69,2.84S10.4,15.23,11,15.23Z" fill="none" fill-rule="evenodd"/></svg>