<svg xmlns="http://www.w3.org/2000/svg" viewBox="0 0 25 25"><path d="M20,10h1V9H20ZM4.5,7A3,3,0,0,0,6.76,6a6,6,0,0,1-.32-1.9,6,6,0,0,1,.34-2A3,3,0,1,0,4.5,7ZM18.24,6a3,3,0,1,0,0-3.88,6,6,0,0,1,.34,2A6,6,0,0,1,18.24,6Zm6,2h-1L21,14V11H20v3l-.47-1.23v0l-1.35,7.63A1.1,1.1,0,0,0,19,21H22a1.19,1.19,0,0,0,1-1l1.67-9.29.35-2A.65.65,0,0,0,24.27,8ZM4,10H5V9H4Zm1,4V11H4v3L1.7,8h-1A.65.65,0,0,0,0,8.77l2,11.3A1.17,1.17,0,0,0,3,21H6a1.11,1.11,0,0,0,.87-.59L5.47,12.77Zm7-3h1V10H12Zm.5-2.87A4.06,4.06,0,1,0,8.44,4.06,4.07,4.07,0,0,0,12.5,8.13ZM17.11,9H15.92L13,16V12H12v4L9.08,9H7.89A.85.85,0,0,0,7,10L9.49,24a1.3,1.3,0,0,0,1.24,1h3.55a1.3,1.3,0,0,0,1.24-1l2-11.53L18,10A.85.85,0,0,0,17.11,9Z" fill="none" fill-rule="evenodd"/></svg>