<svg id="Layer_1" data-name="Layer 1" xmlns="http://www.w3.org/2000/svg" width="50" height="50" viewBox="0 0 50 50"><path d="M23.33,22.07a0.6,0.6,0,0,0,.85.14l18.2-13,2.53,3.48c0.65,0.89,1.44.76,1.77-.29L49.92,1.91A1.43,1.43,0,0,0,48.5,0H37.68c-1.1,0-1.47.73-.82,1.62L39.4,5.1,24.86,15.5l-3.58-5a0.6,0.6,0,0,0-.85-0.14L0,25v6.23L19.76,17.07ZM12,37H1a1,1,0,0,0-1,1V49a1,1,0,0,0,1,1H12a1,1,0,0,0,1-1V38A1,1,0,0,0,12,37ZM49,22H38a1,1,0,0,0-1,1V49a1,1,0,0,0,1,1H49a1,1,0,0,0,1-1V23A1,1,0,0,0,49,22ZM31,30H19a1,1,0,0,0-1,1V49a1,1,0,0,0,1,1H31a1,1,0,0,0,1-1V31A1,1,0,0,0,31,30Z" fill="none"/></svg>