<svg xmlns="http://www.w3.org/2000/svg" viewBox="0 0 40 40"><path d="M30.71,21.29l8.59-8.59a1,1,0,0,0,0-1.41L30.71,2.71a1,1,0,0,0-1.41,0L27.71,4.29a1,1,0,0,0,0,1.41L32,10H17a1,1,0,0,0-1,1v2a1,1,0,0,0,1,1H32l-4.29,4.29a1,1,0,0,0,0,1.41l1.59,1.59A1,1,0,0,0,30.71,21.29ZM9,14h2a1,1,0,0,0,1-1V11a1,1,0,0,0-1-1H9a1,1,0,0,0-1,1v2A1,1,0,0,0,9,14ZM3,14a1,1,0,0,0,1-1V11a1,1,0,0,0-1-1H1a1,1,0,0,0-1,1v2a1,1,0,0,0,1,1ZM23,26H8l4.29-4.29a1,1,0,0,0,0-1.41l-1.59-1.59a1,1,0,0,0-1.41,0L.71,27.29a1,1,0,0,0,0,1.41l8.59,8.59a1,1,0,0,0,1.41,0l1.59-1.59a1,1,0,0,0,0-1.41L8,30H23a1,1,0,0,0,1-1V27A1,1,0,0,0,23,26Zm8,0H29a1,1,0,0,0-1,1v2a1,1,0,0,0,1,1h2a1,1,0,0,0,1-1V27A1,1,0,0,0,31,26Zm8,0H37a1,1,0,0,0-1,1v2a1,1,0,0,0,1,1h2a1,1,0,0,0,1-1V27A1,1,0,0,0,39,26Z" fill="none" fill-rule="evenodd"/></svg>