<svg xmlns="http://www.w3.org/2000/svg" viewBox="0 0 40 40"><path d="M35,1.22A1.1,1.1,0,0,0,33.93,0H6.07A1.1,1.1,0,0,0,5,1.22V3H35Zm5,9s0,0,0,0v0Zm-40,0H0s0,0,0,0ZM8,16v.08L8.08,16Zm24,7.53,3-2.65V17.09a6.94,6.94,0,0,1-3-1.23ZM8,25V16.08a4.56,4.56,0,0,1-3,1V33.6A1.28,1.28,0,0,0,6.4,35H19L30.34,25ZM0,10.29H0s0-.06,0-.09S0,10.32,0,10.29Zm8-.1H8A3.91,3.91,0,0,0,12,14a3.91,3.91,0,0,0,4-3.81h0a4,4,0,0,0,8,0h0a4,4,0,0,0,8,0h0a4,4,0,0,0,8,0h0L35.16,5H4.84L0,10.28A3.91,3.91,0,0,0,4,14,3.91,3.91,0,0,0,8,10.19ZM25,35H22a1,1,0,0,0-1,1v3a1,1,0,0,0,1,1h3a1,1,0,0,0,1-1V36A1,1,0,0,0,25,35ZM39,24H36a1,1,0,0,0-1,1V39a1,1,0,0,0,1,1h3a1,1,0,0,0,1-1V25A1,1,0,0,0,39,24Zm-7,6H29a1,1,0,0,0-1,1v8a1,1,0,0,0,1,1h3a1,1,0,0,0,1-1V31A1,1,0,0,0,32,30Z" fill="none" fill-rule="evenodd"/></svg>