<svg xmlns="http://www.w3.org/2000/svg" viewBox="0 0 40 40"><path d="M18.67,17.66a.48.48,0,0,0,.68.11L33.91,7.36l2,2.78c.52.71,1.15.6,1.41-.24l2.58-8.38A1.15,1.15,0,0,0,38.8,0H30.14c-.88,0-1.18.58-.66,1.29l2,2.79L19.89,12.4,17,8.4a.48.48,0,0,0-.68-.11L0,20v5l15.81-11.3ZM10,30.8a.8.8,0,0,0-.8-.8H.8a.8.8,0,0,0-.8.8v8.4a.8.8,0,0,0,.8.8H9.2a.8.8,0,0,0,.8-.8Zm30-12a.8.8,0,0,0-.8-.8H30.8a.8.8,0,0,0-.8.8V39.2a.8.8,0,0,0,.8.8h8.4a.8.8,0,0,0,.8-.8Zm-15,6a.8.8,0,0,0-.8-.8H16c-.44,0-1,.36-1,.8V39.2c0,.44.56.8,1,.8h8.2a.8.8,0,0,0,.8-.8Z" fill="none"/></svg>