<svg id="Layer_1" data-name="Layer 1" xmlns="http://www.w3.org/2000/svg" width="50" height="50" viewBox="0 0 50 50"><path d="M43,18A18,18,0,1,0,13.81,32.09L7.48,46.74l8.35-4.4L19,50l6-14,6,14,3.13-7.67,8.35,4.4L36.19,32.09A18,18,0,0,0,43,18ZM25,32A14,14,0,1,1,39,18,14,14,0,0,1,25,32ZM21.25,17V17a3,3,0,0,0,2.12-2.75A2.7,2.7,0,0,0,22,11.81,6.13,6.13,0,0,0,18.41,11a19.24,19.24,0,0,0-3.41.28V23.83a22.76,22.76,0,0,0,2.86.17c2.35,0,3.85-.4,4.76-1.17a3.43,3.43,0,0,0,1.21-2.65A3.21,3.21,0,0,0,21.25,17Zm-3.94-4.21a6.33,6.33,0,0,1,1.33-.09c1.48,0,2.39.55,2.39,1.76s-0.89,1.84-2.52,1.84H17.31V12.82Zm1.23,9.42a7.39,7.39,0,0,1-1.23-.06V18h1.16c1.61,0,2.92.61,2.92,2.1S20,22.24,18.54,22.24ZM34,20.3a3.16,3.16,0,0,0-1.78-2.46V17.78a3.36,3.36,0,0,0,2.33-3.18A3.25,3.25,0,0,0,33.47,12a6,6,0,0,0-3.94-1,20,20,0,0,0-3.52.28V23.87h2.31V18.62h1.17c1.33,0,1.91.57,2.29,2.24a16.35,16.35,0,0,0,.85,3H35A32.42,32.42,0,0,1,34,20.3ZM29.7,16.91H28.31v-4a6.7,6.7,0,0,1,1.44-.11c1.52,0,2.48.66,2.48,2S31.27,16.91,29.7,16.91Z" fill="none"/></svg>