<?xml version="1.0" encoding="utf-8"?>
<!-- Generator: Adobe Illustrator 21.1.0, SVG Export Plug-In . SVG Version: 6.00 Build 0)  -->
<svg version="1.1" id="Layer_1" xmlns="http://www.w3.org/2000/svg" xmlns:xlink="http://www.w3.org/1999/xlink" x="0px" y="0px"
	 viewBox="0 0 50 50" style="enable-background:new 0 0 50 50;" xml:space="preserve">
<g>
	<path d="M11.2,11.7c0,1.8,1.5,2.3,2.3,2.3c0.1,0,0.2,0,0.4,0c0.7,0,2.1-0.7,2-2.7C15.8,10.2,15,9.7,14,9.5c-0.1,0-0.4,0-0.5,0
		C12.5,9.6,11.2,10.3,11.2,11.7L11.2,11.7z M42.7,35.9c1.1-1.1,1.6-2,1.6-2s0.4,2.4-1.1,5.4c-0.1,0.2-0.2,0.5-0.5,0.7
		c-1.7,2.3-5.5,3.3-8.9,3.3c-2,0-3.8-0.4-4.9-0.7c-1-0.4-1.7-0.7-1.7-0.7c-3.8-1.7-3.5-7.9-3.5-7.9s2.2,5,9.8,5.4
		C38,39.6,41,37.6,42.7,35.9L42.7,35.9z M42.7,27.8c0.2,0,0.5,0,0.6,0c0.7-0.1,3.3-1.1,3.1-4.9c-0.1-3.7-2.1-4.8-3.7-4.8
		c0,0,0,0-0.1,0c0,0-0.7,0-1.5,0.5c-1,0.6-2.1,2-2.1,4.5c0,3.4,2.1,4.5,3.4,4.8C42.5,27.8,42.6,27.8,42.7,27.8L42.7,27.8z
		 M42.7,14.9c5.3,0.1,7,4.8,7.2,6.5c0.1,1.2,0.2,5.3-2.3,7.7c-1.1,1-2.6,1.8-4.8,1.8h-0.1c-2.4,0-4-1.1-5.1-2.2
		c-2.3-2.4-2.1-6.1-2.1-6.1c0-1.2,0.4-2.7,1.2-4.2C37.6,16.6,39.6,14.9,42.7,14.9C42.6,14.9,42.6,14.9,42.7,14.9L42.7,14.9z
		 M42.7,6.8c0.1,0,0.4,0,0.5,0c4.6,0,6.5,3.8,6.5,3.8v2.6c0,0-1.5-3.2-6.5-3.4c-0.1,0-0.2,0-0.4,0c-4.6-0.1-6.5,3.2-6.5,3.2v-2.2
		C36.9,9.2,38.3,7,42.7,6.8L42.7,6.8z M3.5,15.5v-3.7c0,0-2.3-0.4-3.5,2.6v12.1c0,0,0.1,1.3,1,2.4c0.6,1.1,2,2,3.8,2
		c3.8,0.1,4.5-1.7,4.2-3.8c0,0-4.3,2.3-5.3-1.2v-7.2h3.8c0,0,1.7-0.1,1.5-3.2H3.5L3.5,15.5z M11.7,15.3v11.5c0,0,0.4,3.8,3.1,3.9
		c2.8,0.1,3.7-1.1,3.7-3.1c0,0-1.3,0.5-2.3-0.1c-0.9-0.6-0.9-1.6-0.9-1.6v-8.7C15.4,17.3,14.8,15.2,11.7,15.3L11.7,15.3z M33,19.5
		c0,0,0.4,0.1,0.5-0.2c0.1-0.4,0.4-3.2-2.8-4c-3.8-1-8.2,0.4-9.8,3.5c-0.5,1.1-1.1,2.7-1.2,4.3c-0.1,2.9,1,6.1,4,7.7
		c0,0,3.7,1.7,7.2,0.5c0,0,2.7-1.1,2.7-3.1s0.2-4.8-1.5-4.8c-1.7,0-2.3,0-2.3,0s0.4,3.3,0.2,3.7c-0.1,0.5-1.1,1.6-3.9,0.7
		c-2.8-0.9-3.2-4.4-2.4-6.7s3.5-3.2,5.3-3.1C30.8,18.3,33,19.5,33,19.5L33,19.5z"/>
</g>
</svg>
