<?xml version="1.0" encoding="utf-8"?>
<!-- Generator: Adobe Illustrator 21.1.0, SVG Export Plug-In . SVG Version: 6.00 Build 0)  -->
<svg version="1.1" id="Layer_1" xmlns="http://www.w3.org/2000/svg" xmlns:xlink="http://www.w3.org/1999/xlink" x="0px" y="0px"
	 viewBox="0 0 25 25" style="enable-background:new 0 0 25 25;" xml:space="preserve">
<g>
	<path d="M5.6,5.9C5.6,6.8,6.4,7,6.8,7C6.9,7,6.9,7,7,7c0.4,0,1-0.4,1-1.3C7.9,5.1,7.5,4.9,7,4.8c-0.1,0-0.2,0-0.2,0
		C6.2,4.8,5.6,5.2,5.6,5.9L5.6,5.9z M21.4,17.9c0.5-0.5,0.8-1,0.8-1s0.2,1.2-0.5,2.7c-0.1,0.1-0.1,0.2-0.2,0.4
		c-0.9,1.2-2.7,1.6-4.5,1.6c-1,0-1.9-0.2-2.4-0.4c-0.5-0.2-0.9-0.4-0.9-0.4c-1.9-0.9-1.8-4-1.8-4s1.1,2.5,4.9,2.7
		C19,19.8,20.5,18.8,21.4,17.9L21.4,17.9z M21.4,13.9c0.1,0,0.2,0,0.3,0c0.4-0.1,1.6-0.5,1.5-2.4c-0.1-1.8-1-2.4-1.8-2.4
		c0,0,0,0-0.1,0c0,0-0.4,0-0.7,0.2c-0.5,0.3-1,1-1,2.3c0,1.7,1,2.3,1.7,2.4C21.3,13.9,21.3,13.9,21.4,13.9L21.4,13.9z M21.4,7.4
		c2.6,0.1,3.5,2.4,3.6,3.2c0.1,0.6,0.1,2.6-1.2,3.8c-0.5,0.5-1.3,0.9-2.4,0.9h-0.1c-1.2,0-2-0.5-2.6-1.1c-1.2-1.2-1-3.1-1-3.1
		c0-0.6,0.2-1.3,0.6-2.1C18.8,8.3,19.8,7.4,21.4,7.4C21.3,7.4,21.3,7.4,21.4,7.4L21.4,7.4z M21.4,3.4c0.1,0,0.2,0,0.2,0
		c2.3,0,3.2,1.9,3.2,1.9v1.3c0,0-0.7-1.6-3.2-1.7c-0.1,0-0.1,0-0.2,0c-2.3-0.1-3.2,1.6-3.2,1.6V5.4C18.4,4.6,19.2,3.5,21.4,3.4
		L21.4,3.4z M1.8,7.8V5.9c0,0-1.2-0.2-1.8,1.3v6c0,0,0.1,0.7,0.5,1.2c0.3,0.5,1,1,1.9,1c1.9,0.1,2.3-0.9,2.1-1.9
		c0,0-2.1,1.2-2.6-0.6V9.3h1.9c0,0,0.9-0.1,0.7-1.6H1.8L1.8,7.8z M5.9,7.7v5.7c0,0,0.2,1.9,1.5,2c1.4,0.1,1.8-0.5,1.8-1.5
		c0,0-0.7,0.2-1.2-0.1C7.6,13.5,7.6,13,7.6,13V8.7C7.7,8.7,7.4,7.6,5.9,7.7L5.9,7.7z M16.5,9.8c0,0,0.2,0.1,0.2-0.1
		c0.1-0.2,0.2-1.6-1.4-2c-1.9-0.5-4.1,0.2-4.9,1.8c-0.2,0.5-0.5,1.3-0.6,2.1c-0.1,1.5,0.5,3.1,2,3.8c0,0,1.8,0.9,3.6,0.2
		c0,0,1.3-0.5,1.3-1.5s0.1-2.4-0.7-2.4c-0.9,0-1.2,0-1.2,0s0.2,1.6,0.1,1.8c-0.1,0.2-0.5,0.8-2,0.4c-1.4-0.4-1.6-2.2-1.2-3.4
		C12.2,9.4,13.6,9,14.5,9C15.4,9.2,16.5,9.8,16.5,9.8L16.5,9.8z"/>
</g>
</svg>
