<svg id="Layer_1" data-name="Layer 1" xmlns="http://www.w3.org/2000/svg" width="50" height="50" viewBox="0 0 50 50"><path d="M25,31.25c9.94-19,10-18.4,10-21.41a10,10,0,0,0-20,0C15,12.86,15.15,12.45,25,31.25ZM25,6a4,4,0,1,1-4,4A4,4,0,0,1,25,6ZM38.9,29c-6.57,0-12.5,5-12.5,6.09a0.79,0.79,0,0,0,.79.78,5.43,5.43,0,0,0,1.65-1.16c6.75-4.81,16.3-3.07,16.3,4.62A6.45,6.45,0,0,1,38.79,46c-4.59.17-7-.34-13.23-7.93C21.89,33.59,17.85,29,11,29,4.87,29,0,33.51,0,39.65S5.09,50,11.1,50a18.08,18.08,0,0,0,11.15-4.37c0.41-.36,1.35-1.16,1.35-1.72a0.79,0.79,0,0,0-.79-0.78,5.43,5.43,0,0,0-1.65,1.16,15.26,15.26,0,0,1-8.59,2.38c-2.88.08-7.7-2.22-7.7-7C4.87,34,12.93,26.28,25.53,42,29.26,46.65,33,50,39,50c6.15,0,11-4.51,11-10.65S44.91,29,38.9,29Z" fill="none"/></svg>