<svg id="Layer_1" data-name="Layer 1" xmlns="http://www.w3.org/2000/svg" width="25" height="25" viewBox="0 0 25 25"><path d="M17.3,4.72a4.8,4.8,0,0,0-9.6,0C7.7,6.17,7.77,6,12.5,15,17.27,5.9,17.3,6.17,17.3,4.72ZM10,5a2.5,2.5,0,1,1,2.5,2.5A2.5,2.5,0,0,1,10,5Zm9.45,9.5c-3.29,0-6.25,2.48-6.25,3a0.4,0.4,0,0,0,.39.39,2.72,2.72,0,0,0,.82-0.58C17.79,15,22,16.79,22,19.67,22,22,20.75,22.94,19.39,23c-2.3.09-3.51-.17-6.61-4-1.83-2.24-3.85-4.53-7.27-4.53a5.26,5.26,0,1,0,0,10.5,9,9,0,0,0,5.57-2.19A1.84,1.84,0,0,0,11.8,22a0.4,0.4,0,0,0-.39-0.39,2.72,2.72,0,0,0-.82.58,7.63,7.63,0,0,1-4.3,1.19A3.31,3.31,0,0,1,3,19.83C3,17,6.47,13.14,12.76,21c1.87,2.33,3.75,4,6.73,4A5.26,5.26,0,1,0,19.45,14.5Z" fill="none"/></svg>