<svg id="Layer_1" data-name="Layer 1" xmlns="http://www.w3.org/2000/svg" width="50" height="50" viewBox="0 0 50 50"><path d="M42,9.93A2.88,2.88,0,0,0,39,7H29a4.36,4.36,0,0,0-4-4,4.36,4.36,0,0,0-4,4H11A2.88,2.88,0,0,0,8,9.93V11H42V9.93ZM49,13H1a1,1,0,0,0-1,1V45a1,1,0,0,0,1,1H49a1,1,0,0,0,1-1V14A1,1,0,0,0,49,13ZM27,19H40v4H27V19Zm0,12H37v4H27V31Zm-3,9.41c0,0.65-.46.59-0.46,0.59H5.46S5,41.06,5,40.41V38s6-3.31,7-4.28v-1.1C11,32.19,10.76,31,10.3,30h0a2.23,2.23,0,0,1-.73-3.12c-1.79-2.76-1.49-5.83,2-6.55A3.77,3.77,0,0,1,14.71,19c2.13,0,2.78,2.6,2.78,2.6,2.88-.88,4.1,3.32,1.88,5.54a2.35,2.35,0,0,1-.66,3.14C18.28,31.42,18,32.13,17,32.61v1.17C18,34.47,24,38,24,38v2.38ZM40,41H27V37H40v4Zm4-12H27V25H44v4Z" fill="none" fill-rule="evenodd"/></svg>