<svg id="Layer_1" data-name="Layer 1" xmlns="http://www.w3.org/2000/svg" width="25" height="25" viewBox="0 0 25 25"><path d="M21,4.47A1.44,1.44,0,0,0,19.5,3h-5a2.18,2.18,0,0,0-2-2,2.18,2.18,0,0,0-2,2h-5A1.44,1.44,0,0,0,4,4.47V5H21V4.47ZM24.5,7H0.5a0.5,0.5,0,0,0-.5.5v16a0.5,0.5,0,0,0,.5.5h24a0.5,0.5,0,0,0,.5-0.5V7.5A0.5,0.5,0,0,0,24.5,7ZM14,10h7v2H14V10Zm0,6h5v2H14V16Zm-2,4.7c0,0.33-.24.3-0.24,0.3H2.24S2,21,2,20.7V19.51a38.48,38.48,0,0,0,3.68-2.14V16.82a2.24,2.24,0,0,1-.89-1.32h0a1.08,1.08,0,0,1-.38-1.56C3.46,12.56,3.62,11,5.47,10.66A2,2,0,0,1,7.11,10a1.7,1.7,0,0,1,1.46,1.3c1.51-.44,2.16,1.66,1,2.77a1.14,1.14,0,0,1-.35,1.57,1.73,1.73,0,0,1-.9,1.17v0.59C8.84,17.74,12,19.51,12,19.51V20.7ZM21,21H14V19h7v2Zm2-6H14V13h9v2Z" fill="none" fill-rule="evenodd"/></svg>