<?xml version="1.0" encoding="UTF-8"?>
<svg viewBox="0 0 30 30" version="1.1" xmlns="http://www.w3.org/2000/svg" xmlns:xlink="http://www.w3.org/1999/xlink">
    <title>vip-program</title>
    <defs>
        <path d="M5.73913043,8.34782609 C6.05,8.34782609 6.28913043,8.16659784 6.46847826,7.88342871 L11.4782609,0 L9.7326087,0 L5.79891304,6.34298861 L1.85326087,0 L0,0 L4.99782609,7.88342871 C5.17717391,8.16659784 5.40434783,8.34782609 5.73913043,8.34782609 Z M13.5652174,8.34782609 L13.5652174,0 L12.5217391,0 L12.5217391,8.34782609 L13.5652174,8.34782609 Z M16.1316099,8.34782609 L16.1316099,1.45828599 L20.7849589,1.45828599 C21.8606681,1.45828599 22.501259,2.06686203 22.501259,3.03139764 C22.501259,3.97296812 21.8606681,4.61599187 20.7849589,4.61599187 L17.2556656,4.61599187 L17.2556656,6.02834759 L20.7849589,6.02834759 C22.8155112,6.02834759 24,4.78823037 24,2.98546738 C24,1.15973925 22.8155112,0 20.7849589,0 L14.6086957,0 L14.6086957,8.34782609 L16.1316099,8.34782609 Z" id="path-1"></path>
    </defs>
    <g id="vip-program" stroke="none" stroke-width="1" fill="none" fill-rule="evenodd">
        <g id="palette" transform="translate(3.000000, 11.000000)">
            <mask id="mask-2" fill="white">
                <use xlink:href="#path-1"></use>
            </mask>
            <use id="Mask" fill="#E21B23" fill-rule="nonzero" xlink:href="#path-1"></use>
            <g id="palette/secondary/money-green" mask="url(#mask-2)" fill="#E21B23" fill-rule="nonzero">
                <g transform="translate(-59.000000, -47.000000)" id="color">
                    <rect x="0.96" y="0" width="141.12" height="101.76"></rect>
                </g>
            </g>
        </g>
    </g>
</svg>