<svg xmlns="http://www.w3.org/2000/svg" viewBox="0 0 56.16 56.16"><defs><style>.cls-1{fill:#e21b23;}.cls-2{fill:#020202;}</style></defs><title>billpay-water</title><g id="Layer_2" data-name="Layer 2"><g id="Layer_1-2" data-name="Layer 1"><path class="cls-1" d="M45.49,56.16H10.68A10.69,10.69,0,0,1,0,45.48V10.68A10.69,10.69,0,0,1,10.68,0H45.49A10.69,10.69,0,0,1,56.16,10.68v34.8A10.69,10.69,0,0,1,45.49,56.16M10.68,2.42a8.27,8.27,0,0,0-8.26,8.26v34.8a8.27,8.27,0,0,0,8.26,8.26H45.49a8.27,8.27,0,0,0,8.25-8.26V10.68a8.27,8.27,0,0,0-8.25-8.26Z"/><path class="cls-2" d="M19.94,42.79a.72.72,0,0,0-.23-.54.79.79,0,0,0-1,0,.87.87,0,0,0-.22.35,3.8,3.8,0,0,0-.1.39L18,44.75l-.44-1.62q-.1-.36-.15-.51a1,1,0,0,0-.28-.39,1,1,0,0,0-1.17,0,1,1,0,0,0-.3.4,4.87,4.87,0,0,0-.16.51L15,44.75,14.63,43a2.2,2.2,0,0,0-.19-.59.65.65,0,0,0-.63-.33.76.76,0,0,0-.54.21.73.73,0,0,0-.23.53,2.22,2.22,0,0,0,.09.52L14,46.68,14,47a1.63,1.63,0,0,0,.15.37.83.83,0,0,0,.3.3,1,1,0,0,0,1-.08.94.94,0,0,0,.28-.38c0-.1.09-.28.16-.51l.54-2,.53,2c.07.25.12.42.16.52a.9.9,0,0,0,.28.38.94.94,0,0,0,1.13,0,1,1,0,0,0,.27-.4c0-.11.09-.29.15-.53l.83-3.37a2.31,2.31,0,0,0,.08-.52"/><path class="cls-2" d="M25.88,47a1.81,1.81,0,0,0-.18-.64L24.4,43.18c-.06-.17-.11-.3-.15-.4a1.57,1.57,0,0,0-.18-.32,1,1,0,0,0-.32-.3,1.11,1.11,0,0,0-1,0,1,1,0,0,0-.33.3,2.15,2.15,0,0,0-.19.38l-1.41,3.59c-.06.14-.1.25-.12.32a1,1,0,0,0,0,.3.72.72,0,0,0,.24.53.77.77,0,0,0,.54.22.66.66,0,0,0,.55-.25,2.45,2.45,0,0,0,.28-.58l.17-.46h1.64l.29.73a1.46,1.46,0,0,0,.16.29.71.71,0,0,0,.57.27.77.77,0,0,0,.55-.23.73.73,0,0,0,.23-.52m-3-1.87.34-.93.34.93Z"/><path class="cls-2" d="M30,42.13H26.73a.85.85,0,0,0-.57.18.71.71,0,0,0,0,1,.84.84,0,0,0,.58.19h.82V46.9a.94.94,0,0,0,.22.66.77.77,0,0,0,.58.25.76.76,0,0,0,.57-.25,1,1,0,0,0,.22-.66V43.54H30a.85.85,0,0,0,.58-.18.66.66,0,0,0,.23-.52.68.68,0,0,0-.22-.52.85.85,0,0,0-.58-.19"/><path class="cls-2" d="M35.44,46.33H33.36v-.85h1.82a.75.75,0,0,0,.54-.18.68.68,0,0,0,0-1,.78.78,0,0,0-.54-.18H33.36v-.66h2a.79.79,0,0,0,.55-.18.66.66,0,0,0,.21-.5.64.64,0,0,0-.21-.49.79.79,0,0,0-.55-.18H32.68a1.13,1.13,0,0,0-.47.09.68.68,0,0,0-.35.34,1.11,1.11,0,0,0-.09.48v3.77a.93.93,0,0,0,.23.68.91.91,0,0,0,.68.23h2.76a.8.8,0,0,0,.55-.19.7.7,0,0,0,0-1,.8.8,0,0,0-.55-.19"/><path class="cls-2" d="M42,46.64a4.72,4.72,0,0,0-.32-.61,4.45,4.45,0,0,0-.47-.64l-.12-.13a1.69,1.69,0,0,0,.56-.38,1.53,1.53,0,0,0,.39-1.09,1.71,1.71,0,0,0-.11-.62,1.5,1.5,0,0,0-.34-.53,1.57,1.57,0,0,0-.5-.34,1.76,1.76,0,0,0-.52-.14,5.18,5.18,0,0,0-.62,0H38.32a.81.81,0,0,0-.91.91v3.85a1,1,0,0,0,.2.65.74.74,0,0,0,.6.26.77.77,0,0,0,.58-.24.94.94,0,0,0,.22-.67V45.57h.07a.92.92,0,0,1,.34.05.7.7,0,0,1,.24.19,3.54,3.54,0,0,1,.36.53l.41.68.24.38a1.06,1.06,0,0,0,.27.28.78.78,0,0,0,.45.13.83.83,0,0,0,.39-.09.71.71,0,0,0,.28-.25.64.64,0,0,0,.11-.35,1.28,1.28,0,0,0-.13-.46m-1.56-2.78a.35.35,0,0,1-.06.23.44.44,0,0,1-.23.13,2.25,2.25,0,0,1-.54.05H39v-.8h.65a1.82,1.82,0,0,1,.59.05.35.35,0,0,1,.17.13.36.36,0,0,1,.06.21"/><path class="cls-1" d="M27.7,35.92a8.54,8.54,0,0,1-8.48-8.37c0-3.57,1.54-5.9,3.33-8.59a37.08,37.08,0,0,0,4-9.34,1.21,1.21,0,0,1,2.33,0,37,37,0,0,0,4,9.33c1.78,2.69,3.32,5,3.32,8.59a8.54,8.54,0,0,1-8.48,8.37m0-22.1a33.66,33.66,0,0,1-3.13,6.47c-1.7,2.56-2.93,4.41-2.93,7.26a6.06,6.06,0,0,0,12.12,0c0-2.85-1.23-4.7-2.92-7.26a33.82,33.82,0,0,1-3.14-6.47"/></g></g></svg>