<svg xmlns="http://www.w3.org/2000/svg" viewBox="0 0 56.16 56.16"><defs><style>.cls-1{fill:#e21b23;}.cls-2{fill:#020202;}</style></defs><title>billpay-cable</title><g id="Layer_2" data-name="Layer 2"><g id="Layer_1-2" data-name="Layer 1"><path class="cls-1" d="M45.49,56.16H10.68A10.69,10.69,0,0,1,0,45.48V10.68A10.69,10.69,0,0,1,10.68,0H45.49A10.69,10.69,0,0,1,56.16,10.68v34.8A10.69,10.69,0,0,1,45.49,56.16M10.68,2.42a8.27,8.27,0,0,0-8.26,8.26v34.8a8.27,8.27,0,0,0,8.26,8.26H45.49a8.27,8.27,0,0,0,8.25-8.26V10.68a8.27,8.27,0,0,0-8.25-8.26Z"/><path class="cls-2" d="M17.83,45.12a.63.63,0,0,0-.54.24,1.35,1.35,0,0,0-.2.4,1,1,0,0,1-.35.5,1.08,1.08,0,0,1-1.12,0,.93.93,0,0,1-.35-.45,2.24,2.24,0,0,1-.14-.86,1.89,1.89,0,0,1,.31-1.17.92.92,0,0,1,.77-.36.87.87,0,0,1,.5.13,1.28,1.28,0,0,1,.38.45,1.47,1.47,0,0,0,.27.39.74.74,0,0,0,1-.05.72.72,0,0,0,.2-.5,1.47,1.47,0,0,0-.31-.84,2.24,2.24,0,0,0-.83-.69,2.86,2.86,0,0,0-2.26-.07,2.5,2.5,0,0,0-.87.58,2.61,2.61,0,0,0-.57.92,3.44,3.44,0,0,0-.19,1.18,3.68,3.68,0,0,0,.08.76,3,3,0,0,0,.23.69,2.88,2.88,0,0,0,.38.59,2.3,2.3,0,0,0,.56.48,2.35,2.35,0,0,0,.67.27,3.55,3.55,0,0,0,.79.08,2.62,2.62,0,0,0,1-.19,2.2,2.2,0,0,0,.74-.5,2.17,2.17,0,0,0,.43-.63,1.65,1.65,0,0,0,.14-.63.71.71,0,0,0-.22-.52.71.71,0,0,0-.51-.21"/><path class="cls-2" d="M23.26,43.18c-.06-.17-.11-.3-.15-.4a1.62,1.62,0,0,0-.18-.32,1,1,0,0,0-.32-.3,1.1,1.1,0,0,0-1,0,1,1,0,0,0-.33.3,2.15,2.15,0,0,0-.19.38l-1.41,3.59c-.06.14-.1.25-.12.32a1,1,0,0,0-.05.3.72.72,0,0,0,.24.53.76.76,0,0,0,.54.22.66.66,0,0,0,.55-.25,2.38,2.38,0,0,0,.28-.58l.17-.46h1.64l.29.73a1.45,1.45,0,0,0,.16.29.71.71,0,0,0,.57.27.77.77,0,0,0,.55-.23.73.73,0,0,0,.23-.52,1.82,1.82,0,0,0-.18-.64Zm-1.49,2,.34-.93.34.93Z"/><path class="cls-2" d="M29.93,44.73a1.38,1.38,0,0,0,.45-1.06,1.48,1.48,0,0,0-.35-1,1.56,1.56,0,0,0-.38-.33,1.66,1.66,0,0,0-.57-.21,4.23,4.23,0,0,0-.67,0H26.78a.81.81,0,0,0-.9.91v3.77a.94.94,0,0,0,.22.67.91.91,0,0,0,.68.24h1.53a5.25,5.25,0,0,0,.73,0,2.33,2.33,0,0,0,.6-.16,1.59,1.59,0,0,0,.71-.61,1.68,1.68,0,0,0,.26-.91,1.43,1.43,0,0,0-.68-1.27M29,45.92c0,.15,0,.46-.74.46h-.8v-.89h.77a1.21,1.21,0,0,1,.64.12.32.32,0,0,1,.13.31m-1.54-1.74v-.72H28a1.76,1.76,0,0,1,.7.1s.1,0,.1.24a.34.34,0,0,1-.05.19.26.26,0,0,1-.16.14,1.52,1.52,0,0,1-.49.06Z"/><path class="cls-2" d="M35.24,46.31H33.47V42.95a1,1,0,0,0-.22-.66.82.82,0,0,0-1.16,0,1,1,0,0,0-.21.66v3.86a.93.93,0,0,0,.23.68.92.92,0,0,0,.68.23h2.45a.83.83,0,0,0,.57-.18A.66.66,0,0,0,36,47a.67.67,0,0,0-.23-.51.82.82,0,0,0-.57-.19"/><path class="cls-2" d="M40.78,46.33H38.7v-.85h1.82a.75.75,0,0,0,.54-.18.65.65,0,0,0,.21-.49.64.64,0,0,0-.21-.49.78.78,0,0,0-.54-.18H38.7v-.66h2a.79.79,0,0,0,.55-.18.69.69,0,0,0,0-1,.79.79,0,0,0-.56-.18H38a1.13,1.13,0,0,0-.47.09.69.69,0,0,0-.35.34,1.12,1.12,0,0,0-.09.48v3.77a.93.93,0,0,0,.23.68.91.91,0,0,0,.68.23h2.76a.8.8,0,0,0,.55-.19.7.7,0,0,0,0-1,.8.8,0,0,0-.55-.19"/><path class="cls-1" d="M40.07,11H15.89a2.44,2.44,0,0,0-2.43,2.44V26.9a2.44,2.44,0,0,0,2.43,2.44H26.77V32.2H23.26a1.21,1.21,0,0,0,0,2.42H32.7a1.21,1.21,0,0,0,0-2.42H29.19V29.33H40.07a2.44,2.44,0,0,0,2.44-2.44V13.41A2.44,2.44,0,0,0,40.07,11m0,15.93,0,0-24.2,0V13.39l24.21,0Z"/></g></g></svg>