<svg xmlns="http://www.w3.org/2000/svg" width="57" height="57" viewBox="0 0 57 57">
  <g fill="none" fill-rule="evenodd">
    <path fill="#E21B23" fill-rule="nonzero" d="M45.49,56.16 L10.68,56.16 C4.78388393,56.154487 0.00551296862,51.3761161 0,45.48 L0,10.68 C0.00551296862,4.78388393 4.78388393,0.00551296862 10.68,0 L45.49,0 C51.3822105,0.0110212309 56.1544984,4.78778181 56.16,10.68 L56.16,45.48 C56.1544984,51.3722182 51.3822105,56.1489788 45.49,56.16 L45.49,56.16 Z M10.68,2.42 C6.12041227,2.42551008 2.42551008,6.12041227 2.42,10.68 L2.42,45.48 C2.42551008,50.0395877 6.12041227,53.7344899 10.68,53.74 L45.49,53.74 C50.045682,53.7289859 53.7345046,50.035692 53.74,45.48 L53.74,10.68 C53.7345046,6.12430799 50.045682,2.43101409 45.49,2.42 L10.68,2.42 Z"/>
    <path fill="#E21B23" fill-rule="nonzero" d="M27.7,35.92 C23.0724398,35.8884019 19.312012,32.1767533 19.22,27.55 C19.22,23.98 20.76,21.65 22.55,18.96 C24.3055883,16.044958 25.6515545,12.9021268 26.55,9.62 C26.6965345,9.09781111 27.1726407,8.73691742 27.715,8.73691742 C28.2573593,8.73691742 28.7334655,9.09781111 28.88,9.62 C29.7783457,12.8990045 31.124344,16.0385455 32.88,18.95 C34.66,21.64 36.2,23.95 36.2,27.54 C36.107988,32.1667533 32.3475602,35.8784019 27.72,35.91 M27.72,13.81 C26.9105706,16.0721951 25.8612569,18.2412237 24.59,20.28 C22.89,22.84 21.66,24.69 21.66,27.54 C21.66,30.8868456 24.3731544,33.6 27.72,33.6 C31.0668456,33.6 33.78,30.8868456 33.78,27.54 C33.78,24.69 32.55,22.84 30.86,20.28 C29.5863529,18.2410643 28.5337365,16.0721381 27.72,13.81"/>
    <path fill="#000000" d="M15.424,47.368 C15.424,47.288 15.44,47.216 15.464,47.144 L16.984,42.744 C17.152,42.248 17.624,41.896 18.184,41.896 C18.736,41.896 19.208,42.248 19.376,42.744 L20.88,47.096 C20.904,47.176 20.92,47.256 20.92,47.336 C20.92,47.736 20.592,48.064 20.192,48.064 C19.864,48.064 19.592,47.848 19.496,47.56 L19.232,46.72 L17.056,46.72 L16.792,47.576 C16.704,47.864 16.44,48.064 16.12,48.064 C15.736,48.064 15.424,47.752 15.424,47.368 Z M17.432,45.536 L18.856,45.536 L18.472,44.312 C18.3508082,43.9241865 18.2789858,43.6439432 18.192,43.296 L18.096,43.296 C18.0090918,43.6436328 17.9371826,43.9242158 17.816,44.312 L17.432,45.536 Z M21.772,45.056 C21.772,47.032 22.868,48.128 24.428,48.128 C25.268,48.128 25.716,47.848 26.06,47.344 L26.14,47.344 L26.14,47.448 C26.14,47.8734375 26.452,48.064 26.756,48.064 C27.1,48.064 27.38,47.872 27.38,47.448 L27.38,45.328 C27.38,44.888 27.14,44.648 26.7,44.648 L25.148,44.648 C24.86,44.648 24.62,44.888 24.62,45.176 C24.62,45.472 24.86,45.712 25.148,45.712 L25.98,45.712 L25.98,45.776 C25.98,46.376 25.58,46.952 24.74,46.952 C24.004,46.952 23.356,46.368 23.356,44.96 C23.356,43.56 23.996,42.992 24.756,42.992 C25.852,42.992 25.5814609,43.856 26.412,43.856 C26.788,43.856 27.028,43.56 27.028,43.176 C27.028,42.3307163 25.8627204,41.832 24.756,41.832 C23.004,41.832 21.772,43.032 21.772,45.056 Z M28.832,45.704 C28.832,47.12 29.456,48.136 31.368,48.136 C33.216,48.136 33.864,47.096 33.864,45.704 L33.864,42.656 C33.864,42.24 33.52,41.896 33.096,41.896 C32.68,41.896 32.336,42.24 32.336,42.656 L32.336,45.752 C32.336,46.4 32.056,46.864 31.36,46.864 C30.656,46.864 30.376,46.424 30.376,45.752 L30.376,42.664 C30.376,42.24 30.032,41.896 29.608,41.896 C29.176,41.896 28.832,42.24 28.832,42.664 L28.832,45.704 Z M34.78,47.368 C34.78,47.288 34.796,47.216 34.82,47.144 L36.34,42.744 C36.508,42.248 36.98,41.896 37.54,41.896 C38.092,41.896 38.564,42.248 38.732,42.744 L40.236,47.096 C40.26,47.176 40.276,47.256 40.276,47.336 C40.276,47.736 39.948,48.064 39.548,48.064 C39.22,48.064 38.948,47.848 38.852,47.56 L38.588,46.72 L36.412,46.72 L36.148,47.576 C36.06,47.864 35.796,48.064 35.476,48.064 C35.092,48.064 34.78,47.752 34.78,47.368 Z M36.788,45.536 L38.212,45.536 L37.828,44.312 C37.7068082,43.9241865 37.6349859,43.6439432 37.548,43.296 L37.452,43.296 C37.3650918,43.6436328 37.2931826,43.9242158 37.172,44.312 L36.788,45.536 Z"/>
  </g>
</svg>
