<svg xmlns="http://www.w3.org/2000/svg" width="57" height="57" viewBox="0 0 57 57">
  <g fill="none" fill-rule="evenodd">
    <path fill="#E21B23" fill-rule="nonzero" d="M45.49,56.16 L10.68,56.16 C4.78388393,56.154487 0.00551296862,51.3761161 0,45.48 L0,10.68 C0.00551296862,4.78388393 4.78388393,0.00551296862 10.68,0 L45.49,0 C51.3822105,0.0110212309 56.1544984,4.78778181 56.16,10.68 L56.16,45.48 C56.1544984,51.3722182 51.3822105,56.1489788 45.49,56.16 L45.49,56.16 Z M10.68,2.42 C6.12041227,2.42551008 2.42551008,6.12041227 2.42,10.68 L2.42,45.48 C2.42551008,50.0395877 6.12041227,53.7344899 10.68,53.74 L45.49,53.74 C50.0495877,53.7344899 53.7444899,50.0395877 53.75,45.48 L53.75,10.68 C53.7444899,6.12041227 50.0495877,2.42551008 45.49,2.42 L10.68,2.42 Z"/>
    <path fill="#E21B23" fill-rule="nonzero" d="M40.32,13.33 L15.32,13.33 C13.9542407,13.3355071 12.8499889,14.4442296 12.85,15.81 L12.85,29.73 C12.8499889,31.0957704 13.9542407,32.2044929 15.32,32.21 L40.32,32.21 C41.6857593,32.2044929 42.7900111,31.0957704 42.79,29.73 L42.79,15.81 C42.7900111,14.4442296 41.6857593,13.3355071 40.32,13.33 L40.32,13.33 Z M40.37,15.81 L40.37,24.28 L15.32,24.28 L15.32,15.75 L40.37,15.81 Z M40.32,29.81 L15.32,29.75 L15.32,26.75 L40.38,26.75 L40.38,29.75 C40.3804135,29.7795948 40.3591842,29.8050699 40.33,29.81 L40.32,29.81 Z"/>
    <path fill="#000000" d="M8.97799996,45.032 C8.97799996,46.952 9.98599996,48.136 11.938,48.136 C13.0083398,48.136 14.378,47.6692014 14.378,46.68 C14.378,46.264 14.042,45.928 13.634,45.928 C12.8552994,45.928 13.0051828,46.928 11.938,46.928 C11.21,46.928 10.594,46.36 10.594,44.96 C10.594,43.608 11.178,43.04 11.938,43.04 C12.9568073,43.04 12.826167,43.936 13.562,43.936 C13.962,43.936 14.29,43.616 14.29,43.208 C14.29,42.2438926 12.9323159,41.832 11.938,41.832 C10.122,41.832 8.97799996,43.136 8.97799996,45.032 Z M15.526,47.296 L15.526,42.64 C15.526,42.2 15.766,41.96 16.206,41.96 L18.166,41.96 C19.542,41.96 20.398,42.624 20.398,43.808 C20.398,44.608 19.99,45.192 19.326,45.52 L19.326,45.536 L20.078,46.984 C20.134,47.08 20.166,47.2 20.166,47.328 C20.166,47.736 19.838,48.064 19.422,48.064 C19.142,48.064 18.886,47.904 18.766,47.664 L17.87,45.936 L17.062,45.936 L17.062,47.296 C17.062,47.72 16.718,48.064 16.294,48.064 C15.87,48.064 15.526,47.72 15.526,47.296 Z M17.062,44.72 L17.838,44.72 C18.358,44.72 18.822,44.576 18.822,43.912 C18.822,43.232 18.358,43.088 17.838,43.088 L17.062,43.088 L17.062,44.72 Z M23.538,40.4 L23.242,40.904 C23.1889453,40.9956328 23.1635156,41.08 23.1635156,41.1531562 C23.1635156,41.3226875 23.3001015,41.432 23.546,41.432 L23.73,41.432 C23.962,41.432 24.122,41.352 24.266,41.176 L24.722,40.632 C24.8062734,40.5308672 24.846164,40.4346719 24.846164,40.3524141 C24.846164,40.2004141 24.7099687,40.096 24.466,40.096 L24.066,40.096 C23.826,40.096 23.658,40.184 23.538,40.4 Z M21.61,47.32 C21.61,47.76 21.85,48 22.29,48 L25.394,48 C25.73,48 26.01,47.72 26.01,47.376 C26.01,47.04 25.73,46.76 25.394,46.76 L23.13,46.76 L23.13,45.584 L24.866,45.584 C25.194,45.584 25.466,45.312 25.466,44.976 C25.466,44.648 25.194,44.376 24.866,44.376 L23.13,44.376 L23.13,43.2 L25.234,43.2 C25.57,43.2 25.85,42.92 25.85,42.584 C25.85,42.24 25.57,41.96 25.234,41.96 L22.29,41.96 C21.85,41.96 21.61,42.2 21.61,42.64 L21.61,47.32 Z M27.166,47.32 L27.166,42.64 C27.166,42.2 27.406,41.96 27.846,41.96 L29.238,41.96 C31.006,41.96 32.518,42.76 32.518,44.968 C32.518,46.984 31.254,48 29.238,48 L27.846,48 C27.406,48 27.166,47.76 27.166,47.32 Z M28.686,46.784 L29.238,46.784 C30.23,46.784 30.926,46.384 30.926,44.944 C30.926,43.64 30.286,43.168 29.238,43.168 L28.686,43.168 L28.686,46.784 Z M33.738,47.296 C33.738,47.72 34.082,48.064 34.506,48.064 C34.93,48.064 35.274,47.72 35.274,47.296 L35.274,42.664 C35.274,42.24 34.93,41.896 34.506,41.896 C34.082,41.896 33.738,42.24 33.738,42.664 L33.738,47.296 Z M36.254,42.568 C36.254,42.904 36.526,43.176 36.862,43.176 L38.014,43.176 L38.014,47.296 C38.014,47.72 38.358,48.064 38.782,48.064 C39.206,48.064 39.55,47.72 39.55,47.296 L39.55,43.176 L40.702,43.176 C41.038,43.176 41.31,42.904 41.31,42.568 C41.31,42.232 41.038,41.96 40.702,41.96 L36.862,41.96 C36.526,41.96 36.254,42.232 36.254,42.568 Z M41.786,44.976 C41.786,43.088 42.906,41.832 44.762,41.832 C46.626,41.832 47.722,43.08 47.722,44.976 C47.722,46.88 46.602,48.128 44.746,48.128 C42.882,48.128 41.786,46.88 41.786,44.976 Z M43.402,44.976 C43.402,46.344 43.986,46.912 44.754,46.912 C45.522,46.912 46.106,46.344 46.106,44.976 C46.106,43.608 45.522,43.048 44.754,43.048 C43.986,43.048 43.402,43.608 43.402,44.976 Z"/>
  </g>
</svg>
