<svg xmlns="http://www.w3.org/2000/svg" viewBox="0 0 56.16 56.16"><defs><style>.cls-1{fill:#f2f3f3;}.cls-2{fill:#020202;}.cls-3,.cls-4{fill:none;stroke-linecap:round;stroke-linejoin:round;}.cls-3{stroke:#f2f3f3;stroke-width:2.29px;}.cls-4{stroke:#fff;stroke-width:2.3px;}.cls-5{fill:#fff;}</style></defs><title>billpay-invert-gas</title><g id="Layer_2" data-name="Layer 2"><g id="Layer_1-2" data-name="Layer 1"><path class="cls-1" d="M45.49,56.16H10.68A10.69,10.69,0,0,1,0,45.48V10.68A10.69,10.69,0,0,1,10.68,0H45.49A10.69,10.69,0,0,1,56.16,10.68V45.48A10.69,10.69,0,0,1,45.49,56.16M10.68,2.42a8.26,8.26,0,0,0-8.26,8.26V45.48a8.27,8.27,0,0,0,8.26,8.26H45.49a8.27,8.27,0,0,0,8.25-8.26V10.68a8.26,8.26,0,0,0-8.25-8.26Z"/><path class="cls-2" d="M21,47.61a3.28,3.28,0,0,0,1.15.2,3.82,3.82,0,0,0,1-.12,4.36,4.36,0,0,0,.94-.39,1.53,1.53,0,0,0,.31-.22.79.79,0,0,0,.22-.33,1.33,1.33,0,0,0,.05-.4v-1a1,1,0,0,0-.14-.55.69.69,0,0,0-.4-.28,1.71,1.71,0,0,0-.43,0H22.52a.75.75,0,0,0-.52.18.65.65,0,0,0-.22.49.6.6,0,0,0,.29.54,1.13,1.13,0,0,0,.58.13h.5v.35a2.8,2.8,0,0,1-.42.16,2,2,0,0,1-.58.08,1.12,1.12,0,0,1-.91-.37,1.77,1.77,0,0,1-.34-1.17,2.19,2.19,0,0,1,.09-.66,1.29,1.29,0,0,1,.25-.46,1,1,0,0,1,.37-.27,1.38,1.38,0,0,1,1,0,.74.74,0,0,1,.25.18,4.45,4.45,0,0,1,.31.43.76.76,0,0,0,1.15.1.72.72,0,0,0,.23-.54,1.14,1.14,0,0,0-.16-.54,1.79,1.79,0,0,0-.43-.52,2.26,2.26,0,0,0-.73-.39,3.58,3.58,0,0,0-2.19,0,2.56,2.56,0,0,0-.93.58,2.49,2.49,0,0,0-.58.93,3.48,3.48,0,0,0-.19,1.17,3.32,3.32,0,0,0,.2,1.18,2.58,2.58,0,0,0,.58.92,2.53,2.53,0,0,0,.91.58"/><path class="cls-2" d="M26.72,47.55A2.38,2.38,0,0,0,27,47l.17-.46h1.64l.29.73a1.37,1.37,0,0,0,.16.29.71.71,0,0,0,.24.19.74.74,0,0,0,.33.07.77.77,0,0,0,.55-.23.73.73,0,0,0,.23-.52,1.79,1.79,0,0,0-.17-.64l-1.31-3.23-.15-.4a1.69,1.69,0,0,0-.18-.32,1,1,0,0,0-.33-.3,1.1,1.1,0,0,0-1,0,1,1,0,0,0-.33.3,2.08,2.08,0,0,0-.19.38l-1.41,3.59c-.06.14-.1.25-.12.32a1,1,0,0,0-.05.3.73.73,0,0,0,.24.52.77.77,0,0,0,.54.22.66.66,0,0,0,.55-.25m.93-2.37.33-.93.34.93Z"/><path class="cls-2" d="M35.52,44.62a2.59,2.59,0,0,0-.66-.33,7.72,7.72,0,0,0-.79-.23l-.47-.13a1.18,1.18,0,0,1-.24-.1.37.37,0,0,1-.13-.11.13.13,0,0,1,0-.09s0-.1.12-.18a.79.79,0,0,1,.46-.12.69.69,0,0,1,.43.09,1,1,0,0,1,.26.36,1.45,1.45,0,0,0,.25.36.65.65,0,0,0,.46.17.7.7,0,0,0,.54-.24.77.77,0,0,0,.2-.52A1.21,1.21,0,0,0,35.8,43a1.56,1.56,0,0,0-.39-.49,2,2,0,0,0-.65-.36,3.25,3.25,0,0,0-2,.06,1.72,1.72,0,0,0-.78.6,1.54,1.54,0,0,0-.28.9,1.48,1.48,0,0,0,.27.9,1.74,1.74,0,0,0,.69.55,5.11,5.11,0,0,0,1,.32,6.18,6.18,0,0,1,.62.17.71.71,0,0,1,.28.17.27.27,0,0,1,.07.2.34.34,0,0,1-.17.29.92.92,0,0,1-.56.15.89.89,0,0,1-.4-.07.55.55,0,0,1-.21-.17,1.74,1.74,0,0,1-.18-.34,1.06,1.06,0,0,0-.26-.41.74.74,0,0,0-1,0,.73.73,0,0,0-.21.52,1.51,1.51,0,0,0,.26.81,1.93,1.93,0,0,0,.65.63,2.69,2.69,0,0,0,1.37.32,2.86,2.86,0,0,0,1.19-.23,1.84,1.84,0,0,0,.81-.67,1.75,1.75,0,0,0,.28-1,1.69,1.69,0,0,0-.17-.77,1.47,1.47,0,0,0-.47-.54"/><path class="cls-3" d="M30.4,20.78"/><path class="cls-4" d="M30.6,20.35"/><path class="cls-5" d="M26,11a.25.25,0,0,1,.15.05,4,4,0,0,1,1.22,1.24c1.14,2.3.67,4,.67,6.07a21.23,21.23,0,0,0,.13,4,.72.72,0,0,0,.69.53c.92,0,2.29-1.54,2.17-3.5a.25.25,0,0,1,.25-.26.24.24,0,0,1,.16.06,8.78,8.78,0,0,1,2.28,4,12.09,12.09,0,0,1,.64,4.48,7,7,0,0,1-3.88,6.17,7.89,7.89,0,0,1-3.29.7,8.41,8.41,0,0,1-3.33-.66,7.29,7.29,0,0,1-3.18-3.45c-.44-.93-1.69-4.38,1.53-8.86,3.55-4.83,4.12-7.77,3.54-10.29A.23.23,0,0,1,26,11m0-2.42a2.71,2.71,0,0,0-2.11,1,2.6,2.6,0,0,0-.49,2.23c.35,1.51.25,3.69-3.13,8.3-4,5.55-2.36,10.07-1.77,11.32A9.68,9.68,0,0,0,22.75,36a10.71,10.71,0,0,0,4.47.95A10.28,10.28,0,0,0,31.5,36l.1,0a9.45,9.45,0,0,0,5.19-8.18A14.58,14.58,0,0,0,36,22.46a11.09,11.09,0,0,0-3-5.1,2.65,2.65,0,0,0-2.51-.55,10.34,10.34,0,0,0-1-5.57,5.87,5.87,0,0,0-1.82-2l-.08-.06A2.69,2.69,0,0,0,26,8.61"/></g></g></svg>