<svg xmlns="http://www.w3.org/2000/svg" viewBox="0 0 56.16 56.16"><defs><style>.cls-1{fill:#f2f3f3;}.cls-2{fill:#020202;}.cls-3{fill:#fff;}</style></defs><title>billpay-invert-power</title><g id="Layer_2" data-name="Layer 2"><g id="Layer_1-2" data-name="Layer 1"><path class="cls-1" d="M45.49,56.16H10.68A10.69,10.69,0,0,1,0,45.48V10.68A10.69,10.69,0,0,1,10.68,0H45.49A10.69,10.69,0,0,1,56.16,10.68V45.48A10.69,10.69,0,0,1,45.49,56.16M10.68,2.42a8.27,8.27,0,0,0-8.26,8.26V45.48a8.27,8.27,0,0,0,8.26,8.26H45.49a8.27,8.27,0,0,0,8.26-8.26V10.68a8.27,8.27,0,0,0-8.26-8.26Z"/><path class="cls-2" d="M13.11,47.8a.75.75,0,0,0,.57-.25.93.93,0,0,0,.22-.65V45.76h.64a2.41,2.41,0,0,0,1.59-.46,1.7,1.7,0,0,0,.58-1.38,2,2,0,0,0-.14-.75,1.54,1.54,0,0,0-.42-.6,1.6,1.6,0,0,0-.64-.34,3.64,3.64,0,0,0-1-.1h-1.3a1,1,0,0,0-.68.22.9.9,0,0,0-.25.69V46.9a.93.93,0,0,0,.21.65.76.76,0,0,0,.58.25m.79-3.38v-1h.4c.52,0,.66.1.69.13a.56.56,0,0,1,0,.62.42.42,0,0,1-.22.14,1.78,1.78,0,0,1-.51.06Z"/><path class="cls-2" d="M20.47,47.8a3.11,3.11,0,0,0,1.16-.2,2.38,2.38,0,0,0,.88-.61,2.61,2.61,0,0,0,.53-.93,3.68,3.68,0,0,0,.17-1.15,3.39,3.39,0,0,0-.32-1.5,2.35,2.35,0,0,0-1-1A3,3,0,0,0,20.45,42a3.07,3.07,0,0,0-1.13.2,2.37,2.37,0,0,0-.87.59,2.55,2.55,0,0,0-.54.92,3.55,3.55,0,0,0-.18,1.15A3.63,3.63,0,0,0,17.9,46a2.58,2.58,0,0,0,.53.93,2.39,2.39,0,0,0,.88.61,3.06,3.06,0,0,0,1.16.21m-1.14-2.89a2.22,2.22,0,0,1,.09-.68,1.28,1.28,0,0,1,.24-.46,1,1,0,0,1,.34-.26,1.07,1.07,0,0,1,.45-.09,1.09,1.09,0,0,1,.6.16,1,1,0,0,1,.4.48,2.4,2.4,0,0,1,0,1.71,1.05,1.05,0,0,1-.41.48,1.14,1.14,0,0,1-1,.07,1,1,0,0,1-.35-.27,1.26,1.26,0,0,1-.25-.47,2.29,2.29,0,0,1-.09-.69"/><path class="cls-2" d="M31,42.79a.73.73,0,0,0-.23-.54.79.79,0,0,0-1,0,.86.86,0,0,0-.22.35,3.52,3.52,0,0,0-.1.38L29,44.75l-.44-1.62c-.06-.24-.12-.41-.15-.51a1,1,0,0,0-.28-.39,1,1,0,0,0-1.17,0,1,1,0,0,0-.3.4,4.74,4.74,0,0,0-.16.51l-.43,1.61L25.72,43a2.14,2.14,0,0,0-.2-.59A.65.65,0,0,0,24.9,42a.76.76,0,0,0-.54.21.73.73,0,0,0-.22.53,2.15,2.15,0,0,0,.09.52l.83,3.37.09.34a1.59,1.59,0,0,0,.15.37.82.82,0,0,0,.3.3.91.91,0,0,0,1.29-.46c0-.1.09-.27.16-.52l.54-2,.54,2c.07.24.12.42.16.52a.91.91,0,0,0,.28.38.85.85,0,0,0,.56.18.83.83,0,0,0,.57-.19,1,1,0,0,0,.27-.4c0-.11.09-.29.15-.53L31,43.31a2.29,2.29,0,0,0,.08-.52"/><path class="cls-2" d="M36.34,46.52a.8.8,0,0,0-.56-.19H33.7v-.85h1.82a.76.76,0,0,0,.54-.18.65.65,0,0,0,.2-.49.64.64,0,0,0-.21-.49.78.78,0,0,0-.54-.18H33.7v-.65h2a.79.79,0,0,0,.55-.18.69.69,0,0,0,0-1,.79.79,0,0,0-.55-.18H33a1.14,1.14,0,0,0-.47.09.71.71,0,0,0-.35.34,1.15,1.15,0,0,0-.09.48v3.77a.93.93,0,0,0,.23.68.92.92,0,0,0,.68.23h2.76a.8.8,0,0,0,.56-.19.7.7,0,0,0,0-1"/><path class="cls-2" d="M38.55,47.8a.77.77,0,0,0,.58-.24,1,1,0,0,0,.22-.67V45.57h.07a.94.94,0,0,1,.34,0,.7.7,0,0,1,.24.19,3.39,3.39,0,0,1,.36.52l.41.68.24.38a1.08,1.08,0,0,0,.27.28.78.78,0,0,0,.45.13.84.84,0,0,0,.39-.09.74.74,0,0,0,.28-.25.65.65,0,0,0,.11-.35,1.28,1.28,0,0,0-.13-.46A4.65,4.65,0,0,0,42,46a4.5,4.5,0,0,0-.47-.64l-.12-.13a1.73,1.73,0,0,0,.56-.38,1.53,1.53,0,0,0,.4-1.09,1.71,1.71,0,0,0-.11-.62,1.55,1.55,0,0,0-.84-.87,1.74,1.74,0,0,0-.52-.14,5.17,5.17,0,0,0-.62,0H38.66a.81.81,0,0,0-.91.91V46.9a1,1,0,0,0,.2.65.74.74,0,0,0,.6.26m.79-3.53v-.8H40a1.83,1.83,0,0,1,.59.05.35.35,0,0,1,.22.34.35.35,0,0,1-.06.23.44.44,0,0,1-.23.12,2.26,2.26,0,0,1-.54.05Z"/><path class="cls-3" d="M35.46,16a8.7,8.7,0,1,0-17.4,0,9.88,9.88,0,0,0,2.23,5.81c2.26,3,1.93,5.29,1.91,5.37s0,0,0,.06A2.76,2.76,0,0,0,21.58,29a4,4,0,0,0,1,2.44,2.73,2.73,0,0,0-.34,1.3c0,1.37,1.09,3.36,2.79,3.36h3.54c1.7,0,2.78-2,2.78-3.36a2.74,2.74,0,0,0-.34-1.3A4,4,0,0,0,32,29a2.75,2.75,0,0,0-.57-1.67s0-.06,0-.09-.3-2.39,2-5.6A9.47,9.47,0,0,0,35.46,16M29.53,29a1.51,1.51,0,0,1-.44.94H24.43A1.51,1.51,0,0,1,24,29a.36.36,0,0,1,.37-.36h4.8a.37.37,0,0,1,.37.36m-1.07,4.68h-3.4a1.5,1.5,0,0,1-.44-.94.37.37,0,0,1,.37-.36h3.54a.36.36,0,0,1,.36.36,1.5,1.5,0,0,1-.44.94m3-13.45a12.25,12.25,0,0,0-2.45,6H24.62a11.42,11.42,0,0,0-2.38-5.82A7.29,7.29,0,0,1,20.48,16,6.28,6.28,0,1,1,33,16a7.08,7.08,0,0,1-1.61,4.2"/></g></g></svg>