<svg xmlns="http://www.w3.org/2000/svg" viewBox="0 0 56.16 56.16"><defs><style>.cls-1{fill:#e21b23;}.cls-2{fill:#020202;}</style></defs><title>billpay-credit</title><g id="Layer_2" data-name="Layer 2"><g id="Layer_1-2" data-name="Layer 1"><path class="cls-1" d="M45.49,56.16H10.68A10.69,10.69,0,0,1,0,45.48V10.68A10.69,10.69,0,0,1,10.68,0H45.49A10.69,10.69,0,0,1,56.16,10.68v34.8A10.69,10.69,0,0,1,45.49,56.16M10.68,2.42a8.27,8.27,0,0,0-8.26,8.26v34.8a8.27,8.27,0,0,0,8.26,8.26H45.49a8.27,8.27,0,0,0,8.26-8.26V10.68a8.27,8.27,0,0,0-8.26-8.26Z"/><path class="cls-2" d="M16.48,45.12a.64.64,0,0,0-.54.24,1.3,1.3,0,0,0-.2.4,1,1,0,0,1-.35.5,1.08,1.08,0,0,1-1.12,0,.93.93,0,0,1-.35-.45,2.24,2.24,0,0,1-.14-.86,1.89,1.89,0,0,1,.31-1.17.92.92,0,0,1,.77-.36.87.87,0,0,1,.5.13,1.28,1.28,0,0,1,.38.45,1.47,1.47,0,0,0,.27.39.73.73,0,0,0,1.2-.56,1.47,1.47,0,0,0-.31-.84,2.25,2.25,0,0,0-.83-.69,2.86,2.86,0,0,0-2.26-.07,2.48,2.48,0,0,0-.87.58,2.61,2.61,0,0,0-.57.92,3.46,3.46,0,0,0-.19,1.18,3.67,3.67,0,0,0,.08.76,3,3,0,0,0,.23.69,2.81,2.81,0,0,0,.38.59,2.22,2.22,0,0,0,.56.48,2.35,2.35,0,0,0,.67.27,3.55,3.55,0,0,0,.79.08,2.62,2.62,0,0,0,1-.19,2.2,2.2,0,0,0,.74-.5,2.17,2.17,0,0,0,.43-.63,1.65,1.65,0,0,0,.14-.63.73.73,0,0,0-.73-.73"/><path class="cls-2" d="M22.81,46a4.37,4.37,0,0,0-.47-.64l-.12-.13a1.67,1.67,0,0,0,.56-.38,1.52,1.52,0,0,0,.4-1.09,1.75,1.75,0,0,0-.11-.62,1.53,1.53,0,0,0-.34-.53,1.58,1.58,0,0,0-.5-.34,1.76,1.76,0,0,0-.52-.14,5.2,5.2,0,0,0-.62,0H19.42a.81.81,0,0,0-.91.91v3.86a1,1,0,0,0,.2.65.74.74,0,0,0,.6.26.77.77,0,0,0,.58-.24,1,1,0,0,0,.22-.67V45.57h.07a.91.91,0,0,1,.34.05.69.69,0,0,1,.24.19,3.4,3.4,0,0,1,.36.53l.41.68.24.38a1.09,1.09,0,0,0,.28.28.78.78,0,0,0,.45.13.85.85,0,0,0,.39-.09.75.75,0,0,0,.28-.25.64.64,0,0,0,.11-.35,1.29,1.29,0,0,0-.13-.46,4.7,4.7,0,0,0-.32-.61m-1.24-2.18a.35.35,0,0,1-.06.23.44.44,0,0,1-.23.13,2.25,2.25,0,0,1-.54.06h-.62v-.8h.65a1.8,1.8,0,0,1,.59.05.35.35,0,0,1,.17.13.36.36,0,0,1,.06.21"/><path class="cls-2" d="M28.21,46.33H26.13v-.85h1.82a.75.75,0,0,0,.54-.18.65.65,0,0,0,.21-.49.64.64,0,0,0-.21-.49.78.78,0,0,0-.54-.18H26.13v-.66h2a.79.79,0,0,0,.55-.18.69.69,0,0,0,0-1,.8.8,0,0,0-.55-.18H25.45a1.12,1.12,0,0,0-.47.09.69.69,0,0,0-.35.34,1.12,1.12,0,0,0-.09.48v3.77a.93.93,0,0,0,.23.68.91.91,0,0,0,.68.23h2.76a.8.8,0,0,0,.55-.19.7.7,0,0,0,0-1,.8.8,0,0,0-.55-.19"/><path class="cls-2" d="M33.38,42.23a3.91,3.91,0,0,0-1-.1H31.1a.81.81,0,0,0-.91.91v3.67a1.81,1.81,0,0,0,.05.47.67.67,0,0,0,.31.41,1.09,1.09,0,0,0,.56.12h1.32a4.28,4.28,0,0,0,.66,0,2.29,2.29,0,0,0,.59-.18,2.09,2.09,0,0,0,.52-.34,2.43,2.43,0,0,0,.48-.61,2.75,2.75,0,0,0,.27-.75,4.29,4.29,0,0,0,.08-.89,2.82,2.82,0,0,0-.88-2.25,1.92,1.92,0,0,0-.79-.42m.06,2.67A1.61,1.61,0,0,1,33,46.17a.51.51,0,0,1-.18.1.94.94,0,0,1-.23.05h-.85V43.51h.38a2.5,2.5,0,0,1,.71.09.72.72,0,0,1,.39.35,1.93,1.93,0,0,1,.18,1"/><path class="cls-2" d="M36.6,42.29a.94.94,0,0,0-.22.66V46.9a.94.94,0,0,0,.22.66.75.75,0,0,0,.57.25.76.76,0,0,0,.58-.25A.94.94,0,0,0,38,46.9V42.95a.93.93,0,0,0-.22-.66.82.82,0,0,0-1.16,0"/><path class="cls-2" d="M43.06,42.13H39.83a.86.86,0,0,0-.57.18.67.67,0,0,0-.23.52.68.68,0,0,0,.22.52.84.84,0,0,0,.58.19h.82v3.35a.94.94,0,0,0,.22.66.8.8,0,0,0,1.15,0,1,1,0,0,0,.22-.66V43.54h.82a.85.85,0,0,0,.58-.18.67.67,0,0,0,.23-.52.68.68,0,0,0-.22-.52.84.84,0,0,0-.58-.19"/><path class="cls-1" d="M40.32,13.33h-25a2.48,2.48,0,0,0-2.47,2.48V29.73a2.48,2.48,0,0,0,2.47,2.48h25a2.48,2.48,0,0,0,2.47-2.48V15.81a2.48,2.48,0,0,0-2.47-2.48m.05,2.48v8.47H15.32l0-8.53Zm-.05,14-25-.06v-3H40.38v3a.06.06,0,0,1-.05.06"/></g></g></svg>