<svg xmlns="http://www.w3.org/2000/svg" viewBox="0 0 56.16 56.16"><defs><style>.cls-1{fill:#020202;}.cls-2{fill:#f2f3f3;}.cls-3{fill:#fff;}</style></defs><title>billpay-invert-internet</title><g id="Layer_2" data-name="Layer 2"><g id="Layer_1-2" data-name="Layer 1"><path class="cls-1" d="M7,42.29a.94.94,0,0,0-.22.66v3.95a.94.94,0,0,0,.22.66.75.75,0,0,0,.57.25.77.77,0,0,0,.58-.25.94.94,0,0,0,.22-.66V42.95a.93.93,0,0,0-.22-.66.82.82,0,0,0-1.16,0"/><path class="cls-1" d="M13.36,42.29a.93.93,0,0,0-.19.62v2l-1.42-2.15-.16-.25a1.51,1.51,0,0,0-.19-.24.85.85,0,0,0-.26-.18.91.91,0,0,0-.83.08.85.85,0,0,0-.33.39,1.36,1.36,0,0,0-.08.49v3.87a.91.91,0,0,0,.2.62.77.77,0,0,0,1.11,0,.9.9,0,0,0,.21-.63V45l1.38,2.11.17.24a1.63,1.63,0,0,0,.22.25,1,1,0,0,0,.3.18,1,1,0,0,0,.34.06c.25,0,.83-.09.83-.95V42.91a.93.93,0,0,0-.2-.62.77.77,0,0,0-1.12,0"/><path class="cls-1" d="M19.73,42.13H16.5a.85.85,0,0,0-.57.18.71.71,0,0,0,0,1,.84.84,0,0,0,.58.19h.82v3.35a.93.93,0,0,0,.22.66.77.77,0,0,0,.58.25.76.76,0,0,0,.57-.25,1,1,0,0,0,.22-.66V43.54h.82a.85.85,0,0,0,.58-.19.67.67,0,0,0,.23-.52.69.69,0,0,0-.22-.52.85.85,0,0,0-.58-.19"/><path class="cls-1" d="M25.21,46.33H23.14v-.85H25a.76.76,0,0,0,.55-.18.65.65,0,0,0,.2-.49.64.64,0,0,0-.21-.49.78.78,0,0,0-.54-.18H23.14v-.65h2a.79.79,0,0,0,.55-.18.69.69,0,0,0,0-1,.8.8,0,0,0-.55-.18H22.45a1.14,1.14,0,0,0-.47.09.7.7,0,0,0-.34.34,1.1,1.1,0,0,0-.09.48v3.77a.81.81,0,0,0,.91.91h2.76a.8.8,0,0,0,.56-.19.7.7,0,0,0,0-1,.8.8,0,0,0-.56-.19"/><path class="cls-1" d="M31.48,46A4.49,4.49,0,0,0,31,45.4l-.12-.13a1.7,1.7,0,0,0,.56-.38,1.53,1.53,0,0,0,.4-1.09,1.72,1.72,0,0,0-.11-.62,1.53,1.53,0,0,0-.34-.53,1.55,1.55,0,0,0-.5-.34,1.76,1.76,0,0,0-.52-.14,5.2,5.2,0,0,0-.62,0H28.09a.82.82,0,0,0-.91.91v3.85a1,1,0,0,0,.2.65.75.75,0,0,0,.6.26.77.77,0,0,0,.58-.24.94.94,0,0,0,.22-.67V45.57h.07a.92.92,0,0,1,.34.05.7.7,0,0,1,.24.19,3.51,3.51,0,0,1,.36.52l.41.68.24.38a1.1,1.1,0,0,0,.28.28.78.78,0,0,0,.45.13.84.84,0,0,0,.39-.09.73.73,0,0,0,.28-.25.64.64,0,0,0,.11-.35,1.27,1.27,0,0,0-.13-.46,4.74,4.74,0,0,0-.32-.61m-1.24-2.18a.36.36,0,0,1-.06.23.44.44,0,0,1-.23.12,2.25,2.25,0,0,1-.55.06h-.62v-.8h.65a1.78,1.78,0,0,1,.59.05.35.35,0,0,1,.17.13.38.38,0,0,1,.06.21"/><path class="cls-1" d="M36.68,42.29a.92.92,0,0,0-.19.62v2l-1.42-2.15-.16-.25a1.65,1.65,0,0,0-.19-.24.83.83,0,0,0-.26-.18.91.91,0,0,0-.84.08.86.86,0,0,0-.33.39,1.39,1.39,0,0,0-.07.49v3.87a.91.91,0,0,0,.2.62.77.77,0,0,0,1.11,0,.89.89,0,0,0,.21-.63V45l1.38,2.11.17.24a1.58,1.58,0,0,0,.22.25.94.94,0,0,0,.3.18,1,1,0,0,0,.34.06c.25,0,.84-.09.84-.95V42.91a.93.93,0,0,0-.2-.62.77.77,0,0,0-1.12,0"/><path class="cls-1" d="M43.17,46.33H41.1v-.85h1.82a.76.76,0,0,0,.55-.18.65.65,0,0,0,.2-.49.64.64,0,0,0-.21-.49.78.78,0,0,0-.54-.18H41.1v-.65h2a.79.79,0,0,0,.55-.18.69.69,0,0,0,0-1,.8.8,0,0,0-.55-.18H40.41a1.13,1.13,0,0,0-.47.09.7.7,0,0,0-.35.34,1.11,1.11,0,0,0-.09.48v3.77a.81.81,0,0,0,.91.91h2.76a.79.79,0,0,0,.55-.19.7.7,0,0,0,0-1,.79.79,0,0,0-.55-.19"/><path class="cls-1" d="M49.28,42.32a.85.85,0,0,0-.58-.19H45.47a.86.86,0,0,0-.57.18.71.71,0,0,0,0,1,.84.84,0,0,0,.58.19h.82v3.35a.94.94,0,0,0,.22.66.8.8,0,0,0,1.15,0,1,1,0,0,0,.22-.66V43.54h.82a.85.85,0,0,0,.58-.19.67.67,0,0,0,.23-.52.68.68,0,0,0-.22-.52"/><path class="cls-2" d="M45.48,56.16H10.68A10.69,10.69,0,0,1,0,45.48V10.68A10.69,10.69,0,0,1,10.68,0H45.48A10.69,10.69,0,0,1,56.16,10.68v34.8A10.69,10.69,0,0,1,45.48,56.16M10.68,2.42a8.27,8.27,0,0,0-8.26,8.26v34.8a8.27,8.27,0,0,0,8.26,8.26H45.48a8.27,8.27,0,0,0,8.25-8.26V10.68a8.27,8.27,0,0,0-8.25-8.26Z"/><path class="cls-3" d="M38.52,29.58l1.18-.91a2,2,0,0,0-.27-3.35,12.1,12.1,0,0,0,.28-2.56,12.31,12.31,0,0,0-.64-3.92l0-.11a12.37,12.37,0,0,0-23.41,0l0,.1a12.21,12.21,0,0,0,0,7.92,1,1,0,0,0,0,.14,12.35,12.35,0,0,0,14.77,7.85h0a2,2,0,0,0,1.2.76,2,2,0,0,0,.37,0,2,2,0,0,0,1.59-.78l.91-1.18.89.89a2,2,0,0,0,2.85,0l1.16-1.15a2,2,0,0,0,0-2.85Zm-.82-6.81a10,10,0,0,1-.21,1.92l1.54.45L33.5,23.52c0-.25,0-.5,0-.75,0-.89,0-1.76-.12-2.59h4a10.32,10.32,0,0,1,.34,2.59m-1.09-4.6h-3.5a15.21,15.21,0,0,0-1.75-5,10.43,10.43,0,0,1,5.25,5M27.33,12.4c1.43,0,3,2.23,3.72,5.77H23.61c.75-3.54,2.29-5.77,3.72-5.77m-4,.81a15.21,15.21,0,0,0-1.75,5H18a10.43,10.43,0,0,1,5.26-5M17,22.77a10.32,10.32,0,0,1,.34-2.59h4c-.08.83-.12,1.69-.12,2.59a26.46,26.46,0,0,0,.14,2.69H17.32A10.34,10.34,0,0,1,17,22.77m1.14,4.7h3.47a15.13,15.13,0,0,0,1.74,4.85,10.43,10.43,0,0,1-5.21-4.85m11.27,4.21a2.76,2.76,0,0,1-2,1.46c-1.42,0-2.94-2.19-3.7-5.67h4.5l-.59-2H23.3a23.84,23.84,0,0,1-.15-2.69,24.11,24.11,0,0,1,.14-2.59h8.08a24.11,24.11,0,0,1,.14,2.59c0,.05,0,.11,0,.16l-1.61-.47a2,2,0,0,0-2.5,2.5Zm6.11-2.3L38,31.89,36.83,33l-2.51-2.51-2.31,3-2.68-9.14,9.14,2.69Z"/></g></g></svg>