<svg xmlns="http://www.w3.org/2000/svg" width="57" height="57" viewBox="0 0 57 57">
  <g fill="none" fill-rule="evenodd">
    <path fill="#E21B23" fill-rule="nonzero" d="M45.49,56.16 L10.68,56.16 C4.78388393,56.154487 0.00551296862,51.3761161 0,45.48 L0,10.68 C0.00551296862,4.78388393 4.78388393,0.00551296862 10.68,0 L45.49,0 C51.3822105,0.0110212309 56.1544984,4.78778181 56.16,10.68 L56.16,45.48 C56.1544984,51.3722182 51.3822105,56.1489788 45.49,56.16 L45.49,56.16 Z M10.68,2.42 C6.12041227,2.42551008 2.42551008,6.12041227 2.42,10.68 L2.42,45.48 C2.42551008,50.0395877 6.12041227,53.7344899 10.68,53.74 L45.49,53.74 C50.0495877,53.7344899 53.7444899,50.0395877 53.75,45.48 L53.75,10.68 C53.7444899,6.12041227 50.0495877,2.42551008 45.49,2.42 L10.68,2.42 Z"/>
    <path fill="#E21B23" fill-rule="nonzero" d="M35.46,16 C35.46,11.1951227 31.5648773,7.3 26.76,7.3 C21.9551227,7.3 18.06,11.1951227 18.06,16 C18.1573527,18.1264703 18.9395842,20.1644817 20.29,21.81 C22.55,24.81 22.22,27.1 22.2,27.18 C22.18,27.26 22.2,27.18 22.2,27.24 C21.7952664,27.7368928 21.5760642,28.3591441 21.58,29 C21.6279527,29.9029849 21.9804504,30.7630794 22.58,31.44 C22.3605207,31.8383955 22.2436738,32.2851631 22.24,32.74 C22.24,34.11 23.33,36.1 25.03,36.1 L28.57,36.1 C30.27,36.1 31.35,34.1 31.35,32.74 C31.3463262,32.2851631 31.2294793,31.8383955 31.01,31.44 C31.6059226,30.7617085 31.9548378,29.9017558 32,29 C31.9978651,28.3959572 31.7976268,27.809294 31.43,27.33 C31.4314844,27.3000184 31.4314844,27.2699816 31.43,27.24 C31.43,27.14 31.13,24.84 33.43,21.65 C34.7015381,20.0366789 35.4140227,18.0536553 35.46,16 M29.53,29 C29.499006,29.3554793 29.3431253,29.6884971 29.09,29.94 L24.43,29.94 C24.180543,29.6870121 24.0282825,29.3541635 24,29 C23.9999625,28.9027639 24.0392606,28.8096478 24.1089522,28.7418397 C24.1786438,28.6740317 24.2728014,28.637299 24.37,28.64 L29.17,28.64 C29.370503,28.6399268 29.534581,28.7995703 29.54,29 M28.47,33.68 L25.07,33.68 C24.8161514,33.4290067 24.6601394,33.0957083 24.63,32.74 C24.63,32.5356546 24.7956546,32.37 25,32.37 L28.54,32.37 C28.6372361,32.3699625 28.7303522,32.4092606 28.7981603,32.4789522 C28.8659683,32.5486438 28.902701,32.6428014 28.9,32.74 C28.8698606,33.0957083 28.7138486,33.4290067 28.46,33.68 M31.46,20.23 C30.1194931,21.9737834 29.2732076,24.0463193 29.01,26.23 L24.62,26.23 C24.3863745,24.105647 23.5618386,22.0893449 22.24,20.41 C21.1769594,19.1780089 20.5573185,17.6253858 20.48,16 C20.291525,13.6440591 21.4417503,11.381807 23.4564067,10.1460319 C25.4710632,8.91025687 28.0089368,8.91025687 30.0235933,10.1460319 C32.0382497,11.381807 33.188475,13.6440591 33,16 C32.9341425,17.5377879 32.3689408,19.0122273 31.39,20.2"/>
    <path fill="#000000" d="M19.298,47.32 C19.298,47.76 19.538,48 19.978,48 L22.946,48 C23.29,48 23.57,47.72 23.57,47.368 C23.57,47.024 23.29,46.744 22.946,46.744 L20.834,46.744 L20.834,42.664 C20.834,42.24 20.49,41.896 20.066,41.896 C19.642,41.896 19.298,42.24 19.298,42.664 L19.298,47.32 Z M24.59,45.704 C24.59,47.12 25.214,48.136 27.126,48.136 C28.974,48.136 29.622,47.096 29.622,45.704 L29.622,42.656 C29.622,42.24 29.278,41.896 28.854,41.896 C28.438,41.896 28.094,42.24 28.094,42.656 L28.094,45.752 C28.094,46.4 27.814,46.864 27.118,46.864 C26.414,46.864 26.134,46.424 26.134,45.752 L26.134,42.664 C26.134,42.24 25.79,41.896 25.366,41.896 C24.934,41.896 24.59,42.24 24.59,42.664 L24.59,45.704 Z M30.738,47.368 C30.738,47.72 31.026,48 31.37,48 L35.138,48 C35.474,48 35.746,47.728 35.746,47.392 C35.746,47.056 35.474,46.784 35.138,46.784 L32.706,46.784 L35.522,43.008 C35.602,42.904 35.65,42.76 35.65,42.616 C35.65,42.256 35.354,41.96 34.994,41.96 L31.498,41.96 C31.162,41.96 30.89,42.232 30.89,42.568 C30.89,42.904 31.162,43.176 31.498,43.176 L33.69,43.176 L30.858,46.992 C30.778,47.096 30.738,47.224 30.738,47.368 Z"/>
  </g>
</svg>
