<svg xmlns="http://www.w3.org/2000/svg" viewBox="0 0 56.16 56.16"><defs><style>.cls-1{fill:#e21b23;}.cls-2{fill:#020202;}</style></defs><title>billpay-phone</title><g id="Layer_2" data-name="Layer 2"><g id="Layer_1-2" data-name="Layer 1"><path class="cls-1" d="M45.49,56.16H10.68A10.69,10.69,0,0,1,0,45.48V10.68A10.69,10.69,0,0,1,10.68,0H45.49A10.69,10.69,0,0,1,56.16,10.68V45.48A10.69,10.69,0,0,1,45.49,56.16M10.68,2.42a8.27,8.27,0,0,0-8.26,8.26V45.48a8.27,8.27,0,0,0,8.26,8.26H45.49a8.27,8.27,0,0,0,8.26-8.26V10.68a8.27,8.27,0,0,0-8.26-8.26Z"/><path class="cls-2" d="M16.68,42.57a1.64,1.64,0,0,0-.64-.34,3.7,3.7,0,0,0-1-.1h-1.3a1,1,0,0,0-.68.22.9.9,0,0,0-.25.69V46.9a.93.93,0,0,0,.22.65.79.79,0,0,0,1.16,0,.93.93,0,0,0,.22-.65V45.76h.64a2.42,2.42,0,0,0,1.59-.46,1.7,1.7,0,0,0,.57-1.38,2,2,0,0,0-.14-.75,1.58,1.58,0,0,0-.42-.6m-1.05,1.37a.46.46,0,0,1-.07.28.41.41,0,0,1-.22.14,1.75,1.75,0,0,1-.51.06h-.39v-1h.39c.52,0,.66.1.69.13a.48.48,0,0,1,.12.34"/><path class="cls-2" d="M21.91,42.29a1,1,0,0,0-.21.66V44.1H20.08V42.95a.93.93,0,0,0-.22-.66.82.82,0,0,0-1.17,0,1,1,0,0,0-.21.65V46.9a1,1,0,0,0,.21.65.81.81,0,0,0,1.16,0,.94.94,0,0,0,.22-.66V45.5h1.61v1.4a1,1,0,0,0,.21.65.75.75,0,0,0,.58.25.76.76,0,0,0,.58-.25.93.93,0,0,0,.22-.66V42.95a.93.93,0,0,0-.22-.66.82.82,0,0,0-1.16,0"/><path class="cls-2" d="M28.75,42.4A3,3,0,0,0,27.27,42a3.07,3.07,0,0,0-1.13.2,2.33,2.33,0,0,0-.87.59,2.53,2.53,0,0,0-.54.92,3.51,3.51,0,0,0-.18,1.15A3.64,3.64,0,0,0,24.72,46a2.59,2.59,0,0,0,.53.93,2.41,2.41,0,0,0,.88.61,3.33,3.33,0,0,0,2.32,0,2.36,2.36,0,0,0,.88-.61,2.61,2.61,0,0,0,.53-.93A3.62,3.62,0,0,0,30,44.92a3.33,3.33,0,0,0-.32-1.5,2.34,2.34,0,0,0-1-1m-.33,2.51a2.06,2.06,0,0,1-.16.88,1.05,1.05,0,0,1-.41.48,1.13,1.13,0,0,1-1,.07,1,1,0,0,1-.35-.27,1.32,1.32,0,0,1-.25-.47,2.33,2.33,0,0,1-.09-.69,2.26,2.26,0,0,1,.09-.68,1.32,1.32,0,0,1,.24-.46,1,1,0,0,1,.34-.26,1.19,1.19,0,0,1,1.05.07,1,1,0,0,1,.4.48,2.08,2.08,0,0,1,.15.84"/><path class="cls-2" d="M34.77,42.29a.92.92,0,0,0-.19.62v2l-1.42-2.15L33,42.53a1.58,1.58,0,0,0-.19-.24.82.82,0,0,0-.26-.18.92.92,0,0,0-.84.07.84.84,0,0,0-.32.39,1.34,1.34,0,0,0-.07.49v3.87a.91.91,0,0,0,.2.62.77.77,0,0,0,1.11,0,.89.89,0,0,0,.21-.63V45l1.38,2.11.17.24a1.49,1.49,0,0,0,.22.25.94.94,0,0,0,.3.18,1,1,0,0,0,.34.06c.25,0,.84-.09.84-.95V42.91a.93.93,0,0,0-.2-.62.77.77,0,0,0-1.12,0"/><path class="cls-2" d="M41.83,47.53A.66.66,0,0,0,42,47a.67.67,0,0,0-.21-.51.8.8,0,0,0-.56-.19H39.19v-.85H41a.75.75,0,0,0,.54-.18.68.68,0,0,0,0-1,.78.78,0,0,0-.54-.18H39.19v-.65h2a.79.79,0,0,0,.55-.18.69.69,0,0,0,0-1,.79.79,0,0,0-.55-.18H38.51a1.14,1.14,0,0,0-.47.09.7.7,0,0,0-.35.34,1.13,1.13,0,0,0-.09.48V46.8a.81.81,0,0,0,.91.91h2.76a.8.8,0,0,0,.56-.19"/><path class="cls-1" d="M32.4,8.61H22.24a2.81,2.81,0,0,0-2.8,2.8V33.34a2.81,2.81,0,0,0,2.8,2.8H32.4a2.81,2.81,0,0,0,2.8-2.8V11.41a2.8,2.8,0,0,0-2.8-2.8m-5.08,25.7A1.34,1.34,0,1,1,28.67,33a1.34,1.34,0,0,1-1.34,1.34m5.46-4.17H21.86V15.74H32.78Zm0-16.82H21.86v-1.9a.38.38,0,0,1,.38-.38H32.4a.38.38,0,0,1,.38.38Z"/></g></g></svg>