<svg xmlns="http://www.w3.org/2000/svg" width="57" height="57" viewBox="0 0 57 57">
  <g fill="none" fill-rule="evenodd">
    <path fill="#E21B23" fill-rule="nonzero" d="M45.49,56.16 L10.68,56.16 C4.78388393,56.154487 0.00551296862,51.3761161 0,45.48 L0,10.68 C0.00551296862,4.78388393 4.78388393,0.00551296862 10.68,0 L45.49,0 C51.3822105,0.0110212309 56.1544984,4.78778181 56.16,10.68 L56.16,45.48 C56.1544984,51.3722182 51.3822105,56.1489788 45.49,56.16 L45.49,56.16 Z M10.68,2.42 C6.12041227,2.42551008 2.42551008,6.12041227 2.42,10.68 L2.42,45.48 C2.42551008,50.0395877 6.12041227,53.7344899 10.68,53.74 L45.49,53.74 C50.0495877,53.7344899 53.7444899,50.0395877 53.75,45.48 L53.75,10.68 C53.7444899,6.12041227 50.0495877,2.42551008 45.49,2.42 L10.68,2.42 Z"/>
    <path fill="#E21B23" fill-rule="nonzero" d="M32.4,8.61 L22.24,8.61 C20.6958805,8.61548538 19.4454854,9.86588053 19.44,11.41 L19.44,33.34 C19.4454854,34.8841195 20.6958805,36.1345146 22.24,36.14 L32.4,36.14 C33.9441195,36.1345146 35.1945146,34.8841195 35.2,33.34 L35.2,11.41 C35.2,9.8636027 33.9463973,8.61 32.4,8.61 L32.4,8.61 Z M27.32,34.31 C26.7762501,34.3058061 26.2889464,33.9734298 26.0865838,33.468721 C25.8842212,32.9640123 26.0069274,32.3870529 26.3971659,32.008377 C26.7874044,31.6297011 27.3677925,31.5243987 27.8661883,31.7418456 C28.3645841,31.9592924 28.6821577,32.4563699 28.67,33 C28.67,33.7400616 28.0700616,34.34 27.33,34.34 L27.32,34.31 Z M32.79,30.17 L21.86,30.17 L21.86,15.74 L32.78,15.74 L32.79,30.17 Z M32.79,13.35 L21.86,13.35 L21.86,11.45 C21.86,11.3492177 21.9000356,11.2525632 21.9712994,11.1812994 C22.0425632,11.1100356 22.1392177,11.07 22.24,11.07 L32.4,11.07 C32.5007823,11.07 32.5974368,11.1100356 32.6687006,11.1812994 C32.7399644,11.2525632 32.78,11.3492177 32.78,11.45 L32.79,13.35 Z"/>
    <path fill="#000000" d="M4.75599995,42.568 C4.75599995,42.904 5.02799995,43.176 5.36399995,43.176 L6.51599995,43.176 L6.51599995,47.296 C6.51599995,47.72 6.85999995,48.064 7.28399995,48.064 C7.70799995,48.064 8.05199995,47.72 8.05199995,47.296 L8.05199995,43.176 L9.20399995,43.176 C9.53999995,43.176 9.81199995,42.904 9.81199995,42.568 C9.81199995,42.232 9.53999995,41.96 9.20399995,41.96 L5.36399995,41.96 C5.02799995,41.96 4.75599995,42.232 4.75599995,42.568 Z M10.792,47.32 C10.792,47.76 11.032,48 11.472,48 L14.576,48 C14.912,48 15.192,47.72 15.192,47.376 C15.192,47.04 14.912,46.76 14.576,46.76 L12.312,46.76 L12.312,45.584 L14.048,45.584 C14.376,45.584 14.648,45.312 14.648,44.976 C14.648,44.648 14.376,44.376 14.048,44.376 L12.312,44.376 L12.312,43.2 L14.416,43.2 C14.752,43.2 15.032,42.92 15.032,42.584 C15.032,42.24 14.752,41.96 14.416,41.96 L11.472,41.96 C11.032,41.96 10.792,42.2 10.792,42.64 L10.792,47.32 Z M16.348,47.32 C16.348,47.76 16.588,48 17.028,48 L19.996,48 C20.34,48 20.62,47.72 20.62,47.368 C20.62,47.024 20.34,46.744 19.996,46.744 L17.884,46.744 L17.884,42.664 C17.884,42.24 17.54,41.896 17.116,41.896 C16.692,41.896 16.348,42.24 16.348,42.664 L16.348,47.32 Z M23.608,40.4 L23.312,40.904 C23.2589453,40.9956328 23.2335156,41.08 23.2335156,41.1531562 C23.2335156,41.3226875 23.3701016,41.432 23.616,41.432 L23.8,41.432 C24.032,41.432 24.192,41.352 24.336,41.176 L24.792,40.632 C24.8762734,40.5308672 24.9161641,40.4346719 24.9161641,40.3524141 C24.9161641,40.2004141 24.7799687,40.096 24.536,40.096 L24.136,40.096 C23.896,40.096 23.728,40.184 23.608,40.4 Z M21.68,47.32 C21.68,47.76 21.92,48 22.36,48 L25.464,48 C25.8,48 26.08,47.72 26.08,47.376 C26.08,47.04 25.8,46.76 25.464,46.76 L23.2,46.76 L23.2,45.584 L24.936,45.584 C25.264,45.584 25.536,45.312 25.536,44.976 C25.536,44.648 25.264,44.376 24.936,44.376 L23.2,44.376 L23.2,43.2 L25.304,43.2 C25.64,43.2 25.92,42.92 25.92,42.584 C25.92,42.24 25.64,41.96 25.304,41.96 L22.36,41.96 C21.92,41.96 21.68,42.2 21.68,42.64 L21.68,47.32 Z M27.236,47.296 C27.236,47.72 27.58,48.064 28.004,48.064 C28.428,48.064 28.772,47.72 28.772,47.296 L28.772,45.8 L30.332,45.8 C30.66,45.8 30.932,45.528 30.932,45.192 C30.932,44.864 30.66,44.592 30.332,44.592 L28.772,44.592 L28.772,43.2 L30.7,43.2 C31.036,43.2 31.316,42.92 31.316,42.576 C31.316,42.24 31.036,41.96 30.7,41.96 L27.916,41.96 C27.476,41.96 27.236,42.2 27.236,42.64 L27.236,47.296 Z M32.032,44.976 C32.032,43.088 33.152,41.832 35.008,41.832 C36.872,41.832 37.968,43.08 37.968,44.976 C37.968,46.88 36.848,48.128 34.992,48.128 C33.128,48.128 32.032,46.88 32.032,44.976 Z M33.648,44.976 C33.648,46.344 34.232,46.912 35,46.912 C35.768,46.912 36.352,46.344 36.352,44.976 C36.352,43.608 35.768,43.048 35,43.048 C34.232,43.048 33.648,43.608 33.648,44.976 Z M39.204,47.36 C39.204,47.744 39.524,48.064 39.916,48.064 C40.3,48.064 40.62,47.744 40.62,47.36 L40.62,44.12 L40.66,44.12 C40.7534446,44.3691857 40.8561189,44.5547667 41.02,44.824 L42.7,47.592 C42.868,47.872 43.18,48.064 43.54,48.064 C44.076,48.064 44.516,47.624 44.516,47.088 L44.516,42.592 C44.516,42.208 44.204,41.896 43.82,41.896 C43.428,41.896 43.116,42.208 43.116,42.592 L43.116,45.744 L43.076,45.744 C42.9625412,45.4887174 42.9014801,45.3344316 42.732,45.056 L41.132,42.4 C40.948,42.104 40.62,41.896 40.244,41.896 C39.668,41.896 39.204,42.368 39.204,42.936 L39.204,47.36 Z M45.752,44.976 C45.752,43.088 46.872,41.832 48.728,41.832 C50.592,41.832 51.688,43.08 51.688,44.976 C51.688,46.88 50.568,48.128 48.712,48.128 C46.848,48.128 45.752,46.88 45.752,44.976 Z M47.368,44.976 C47.368,46.344 47.952,46.912 48.72,46.912 C49.488,46.912 50.072,46.344 50.072,44.976 C50.072,43.608 49.488,43.048 48.72,43.048 C47.952,43.048 47.368,43.608 47.368,44.976 Z"/>
  </g>
</svg>
