<svg xmlns="http://www.w3.org/2000/svg" version="1.1" x="0" y="0" viewBox="0 0 52 52" xml:space="preserve"><path d="M25.3 42.8c-10 0-18.1-8.1-18.1-18.1S15.3 6.6 25.3 6.6s18.1 8.1 18.1 18.1S35.3 42.8 25.3 42.8zM25.3 8.8C16.5 8.8 9.4 16 9.4 24.7s7.1 15.9 15.9 15.9 15.9-7.1 15.9-15.9S34 8.8 25.3 8.8z" fill="#E31B23"/><path d="M31 28.8c0-1.3-0.7-3.8-4.9-5.5v-4.7c0.7 0.3 1.3 0.8 1.4 1.6 0.2 0.7 0.8 1.1 1.5 0.9 0.7-0.2 1.1-0.8 0.9-1.5 -0.4-1.8-2-3.2-3.9-3.6v-1c0-0.5-0.4-0.9-0.9-0.9s-0.9 0.4-0.9 0.9v1c-2.3 0.4-4 2.2-4 4.4 0 1.4 0.7 3.4 4 4.9v6c-1.2-0.3-2.1-1.2-2.4-2.3 -0.1-0.7-0.8-1.1-1.5-0.9 -0.7 0.2-1.1 0.8-0.9 1.5 0.5 2.3 2.5 4 4.8 4.3v0.9c0 0.5 0.4 0.9 0.9 0.9s0.9-0.4 0.9-0.9v-0.9C29.1 33.4 31 31.5 31 28.8zM22.9 20.3c0-0.9 0.6-1.6 1.5-1.8v3.9C23.5 21.9 22.9 21.2 22.9 20.3zM26.2 31.2V26c1.5 0.8 2.4 1.8 2.4 2.8C28.5 30.5 27.3 31 26.2 31.2z"/></svg>
