<svg xmlns="http://www.w3.org/2000/svg" version="1.1" x="0" y="0" viewBox="0 0 52 52" xml:space="preserve"><path d="M25.2 43.7c-10 0-18.1-8.1-18.1-18.1S15.2 7.5 25.2 7.5s18.1 8.1 18.1 18.1S35.2 43.7 25.2 43.7zM25.2 9.7c-8.8 0-15.9 7.1-15.9 15.9s7.1 15.9 15.9 15.9 15.9-7.1 15.9-15.9S34 9.7 25.2 9.7z" fill="#E31B23"/><path d="M22.1 35.2c-0.4 0-0.8-0.2-1-0.5l-4.5-6c-0.4-0.6-0.3-1.3 0.2-1.8 0.6-0.4 1.3-0.3 1.8 0.2l3.5 4.6 9.8-14.3c0.4-0.6 1.2-0.7 1.7-0.3 0.6 0.4 0.7 1.2 0.3 1.7L23.1 34.7C22.9 35 22.5 35.2 22.1 35.2 22.1 35.2 22.1 35.2 22.1 35.2z"/></svg>
