<svg xmlns="http://www.w3.org/2000/svg" version="1.1" x="0" y="0" viewBox="0 0 52 52" xml:space="preserve"><path d="M26 23.7c-0.4 0-0.8 0.1-1.1 0.2l-5.3-6.1c-0.4-0.4-1-0.5-1.4-0.1s-0.5 1-0.1 1.4l5.2 6c-0.4 0.6-0.7 1.2-0.7 2 0 1.9 1.5 3.4 3.4 3.4s3.4-1.5 3.4-3.4S27.9 23.7 26 23.7z"/><path d="M25.9 41c-0.6 0-1-0.4-1-1v-0.8c0-0.6 0.4-1 1-1s1 0.4 1 1V40C26.9 40.5 26.5 41 25.9 41z"/><path d="M14 28h-0.8c-0.6 0-1-0.4-1-1s0.4-1 1-1H14c0.6 0 1 0.4 1 1S14.5 28 14 28z"/><path d="M26.2 16c-0.6 0-1-0.4-1-1v-0.8c0-0.6 0.4-1 1-1s1 0.4 1 1V15C27.2 15.5 26.7 16 26.2 16z"/><path d="M38.9 28.2h-0.8c-0.6 0-1-0.4-1-1s0.4-1 1-1h0.8c0.6 0 1 0.4 1 1S39.5 28.2 38.9 28.2z"/><path d="M26 44.3c-9.5 0-17.3-7.7-17.3-17.3S16.5 9.7 26 9.7 43.3 17.5 43.3 27 35.5 44.3 26 44.3zM26 11.9c-8.3 0-15.1 6.8-15.1 15.1S17.7 42.1 26 42.1 41.1 35.3 41.1 27 34.3 11.9 26 11.9z" fill="#E31B23"/><path d="M22.5 7.7h2.5v2c0.4 0 0.7-0.1 1.1-0.1 0.3 0 0.6 0 0.9 0v-2h2.2c0.8 0 1.5-0.7 1.5-1.5S30 4.7 29.1 4.7h-6.7c-0.8 0-1.5 0.7-1.5 1.5S21.6 7.7 22.5 7.7zM35.3 10.3l1.2 0.9-1 1.4c0.6 0.4 1.1 0.8 1.6 1.2l1-1.5 1.2 0.8c0.3 0.2 0.6 0.3 0.9 0.3 0.5 0 0.9-0.2 1.2-0.6 0.5-0.7 0.3-1.6-0.4-2.1L37 7.9c-0.7-0.5-1.6-0.3-2.1 0.4C34.5 8.9 34.6 9.8 35.3 10.3z"/></svg>
