<svg xmlns="http://www.w3.org/2000/svg" version="1.1" x="0" y="0" viewBox="0 0 52 52" xml:space="preserve"><path d="M27 44.3c-7 0-12.1-4.6-12.1-4.6 -0.3-0.3-0.4-0.8-0.3-1.2 2.2-5.8 6.9-9.5 12.3-9.5 9.5 0 12.3 9.3 12.3 9.4 0.1 0.4 0 0.9-0.3 1.1C34.7 43.1 30.6 44.3 27 44.3zM16.9 38.5c2.2 1.8 10.6 7.3 20-0.2 -0.8-1.9-3.4-7.2-10-7.2C22.6 31.2 18.9 33.9 16.9 38.5z"/><path d="M26.9 27.1c-3.8 0-6.8-3.1-6.8-6.8 0-3.8 3.1-6.8 6.8-6.8 3.8 0 6.8 3.1 6.8 6.8C33.7 24 30.6 27.1 26.9 27.1zM26.9 15.7c-2.5 0-4.6 2.1-4.6 4.6 0 2.5 2.1 4.6 4.6 4.6 2.5 0 4.6-2.1 4.6-4.6C31.5 17.8 29.4 15.7 26.9 15.7z"/><path d="M14.6 38.5c0.2-0.6 0.5-1.1 0.7-1.7C12.6 33.9 11 30 11 25.9 11 17.2 18.1 10 26.9 10s15.9 7.1 15.9 15.9c0 4-1.5 7.9-4.3 10.8 0.5 1 0.7 1.7 0.7 1.7 0.1 0.3 0 0.6-0.1 0.8C42.8 35.8 45 31 45 25.9c0-10-8.1-18.1-18.1-18.1S8.8 15.9 8.8 25.9c0 5 2.1 9.8 5.8 13.2C14.5 38.9 14.5 38.7 14.6 38.5z" fill="#E31B23"/></svg>
