<svg xmlns="http://www.w3.org/2000/svg" version="1.1" x="0" y="0" viewBox="0 0 52 52" xml:space="preserve"><path d="M24.5 19.7c-0.5 0.3-0.8 0.8-0.8 1.5 0 0.6 0.3 1.1 0.8 1.5V19.7z" fill="#3B9D4A"/><path d="M28.8 28.5c0-0.9-0.8-1.8-2.3-2.6v4.8C27.6 30.6 28.8 30.1 28.8 28.5z" fill="#3B9D4A"/><path d="M25.9 6.6c-10 0-18.1 8.1-18.1 18.1 0 10 8.1 18.1 18.1 18.1 10 0 18.1-8.1 18.1-18.1C44 14.7 35.9 6.6 25.9 6.6zM25.9 39.7c-3 0-5.9-0.9-8.3-2.6 -0.3-0.2-0.4-0.7-0.2-1 0.2-0.3 0.7-0.4 1-0.2 2.2 1.5 4.8 2.4 7.5 2.4 7.2 0 13.1-5.9 13.1-13.1S33.1 12 25.9 12c-3.6 0-7.1 1.5-9.5 4.2l0.6-0.1c0.4-0.1 0.8 0.2 0.9 0.6 0.1 0.4-0.2 0.8-0.6 0.9L14.4 18c0 0-0.1 0-0.1 0 -0.2 0-0.4-0.1-0.5-0.2 -0.2-0.2-0.3-0.4-0.2-0.6l0.3-2.7c0-0.4 0.4-0.7 0.8-0.7 0.4 0 0.7 0.4 0.7 0.8l-0.1 0.5c2.7-2.9 6.6-4.6 10.6-4.6 8 0 14.6 6.5 14.6 14.6S33.9 39.7 25.9 39.7zM21.7 21.1c0-1.7 1.2-3.1 2.8-3.6V16c0-0.6 0.4-1 1-1s1 0.4 1 1v1.4c1.6 0.3 3 1.5 3.4 3.1 0.1 0.5-0.2 1.1-0.8 1.2 -0.5 0.1-1.1-0.2-1.2-0.8 -0.2-0.7-0.7-1.2-1.4-1.5v4.3c3.7 1.5 4.3 3.6 4.3 4.8 0 2.4-1.7 4-4.3 4.3V34c0 0.6-0.4 1-1 1s-1-0.4-1-1v-1.4c-1.8-0.5-3.2-1.8-3.6-3.6 -0.1-0.5 0.2-1.1 0.8-1.2s1.1 0.2 1.2 0.8c0.2 0.9 0.8 1.5 1.6 1.9V25C22.2 23.8 21.7 22.3 21.7 21.1z" fill="#3B9D4A"/></svg>
