<svg xmlns="http://www.w3.org/2000/svg" version="1.1" x="0" y="0" viewBox="0 0 52 52" xml:space="preserve"><path d="M25.4 7.1c-4.9 0-9.5 2-12.9 5.4l0-0.2c0.1-0.6-0.4-1.1-1-1.2-0.6-0.1-1.1 0.4-1.2 1L10 15.5c0 0.3 0.1 0.7 0.3 0.9 0.2 0.2 0.5 0.3 0.8 0.3 0.1 0 0.1 0 0.2 0l3.4-0.5c0.6-0.1 1-0.7 0.9-1.3-0.1-0.6-0.7-1-1.3-0.9L14 14c3-3 7.1-4.8 11.4-4.8 8.9 0 16.1 7.2 16.1 16.1s-7.2 16.1-16.1 16.1c-3.3 0-6.5-1-9.2-2.9-0.5-0.3-1.2-0.2-1.5 0.3-0.3 0.5-0.2 1.2 0.3 1.5 3.1 2.2 6.7 3.3 10.5 3.3 10.1 0 18.3-8.2 18.3-18.3S35.6 7.1 25.4 7.1z" fill="#E31B23"/><path d="M31 29.6c0-1.3-0.7-3.8-4.9-5.5v-4.7c0.7 0.3 1.3 0.8 1.4 1.6 0.2 0.7 0.8 1.1 1.5 0.9 0.7-0.2 1.1-0.8 0.9-1.5-0.4-1.8-2-3.2-3.9-3.6v-1c0-0.5-0.4-0.9-0.9-0.9s-0.9 0.4-0.9 0.9v1c-2.3 0.4-4 2.2-4 4.4 0 1.4 0.7 3.4 4 4.9v6c-1.2-0.3-2.1-1.2-2.4-2.3-0.1-0.7-0.8-1.1-1.5-0.9-0.7 0.2-1.1 0.8-0.9 1.5 0.5 2.3 2.5 4 4.8 4.3v0.9c0 0.5 0.4 0.9 0.9 0.9s0.9-0.4 0.9-0.9v-0.9C29.1 34.2 31 32.3 31 29.6zM22.8 21.1c0-0.9 0.6-1.6 1.5-1.8v3.9C23.5 22.7 22.8 22 22.8 21.1zM26.1 32v-5.2c1.5 0.8 2.4 1.8 2.4 2.8C28.5 31.3 27.3 31.8 26.1 32z"/></svg>
