<svg xmlns="http://www.w3.org/2000/svg" version="1.1" x="0" y="0" viewBox="0 0 52 52" xml:space="preserve"><path d="M24.3 14.4c0 1.6-1.3 2.9-3 2.9h-8.6c-1.6 0-3-1.3-3-2.9l0 0c0-1.6 1.3-2.9 3-2.9h8.6C22.9 11.5 24.3 12.8 24.3 14.4L24.3 14.4z" fill="#E31B23"/><path d="M30.5 26.1c0 1.6-1.3 2.9-3 2.9h-15c-1.6 0-3-1.3-3-2.9l0 0c0-1.6 1.3-2.9 3-2.9h15C29.2 23.3 30.5 24.6 30.5 26.1L30.5 26.1z" fill="#E31B23"/><path d="M21.2 38c0 1.6-1.3 2.9-3 2.9h-5.6c-1.6 0-3-1.3-3-2.9l0 0c0-1.6 1.3-2.9 3-2.9h5.6C19.9 35.1 21.2 36.4 21.2 38L21.2 38z" fill="#E31B23"/><path d="M39.2 30.7H12.5c-2.5 0-4.5-2-4.5-4.5 0-2.5 2-4.5 4.5-4.5h26.7c2.5 0 4.5 2 4.5 4.5C43.7 28.6 41.7 30.7 39.2 30.7zM12.5 23.3c-1.6 0-2.9 1.3-2.9 2.9 0 1.6 1.3 2.9 2.9 2.9h26.7c1.6 0 2.9-1.3 2.9-2.9 0-1.6-1.3-2.9-2.9-2.9H12.5z"/><path d="M39.2 18.8H12.5c-2.5 0-4.5-2-4.5-4.5s2-4.5 4.5-4.5h26.7c2.5 0 4.5 2 4.5 4.5S41.7 18.8 39.2 18.8zM12.5 11.5c-1.6 0-2.9 1.3-2.9 2.9s1.3 2.9 2.9 2.9h26.7c1.6 0 2.9-1.3 2.9-2.9s-1.3-2.9-2.9-2.9H12.5z"/><path d="M39.2 42.5H12.5C10 42.5 8 40.5 8 38s2-4.5 4.5-4.5h26.7c2.5 0 4.5 2 4.5 4.5S41.7 42.5 39.2 42.5zM12.5 35.1c-1.6 0-2.9 1.3-2.9 2.9s1.3 2.9 2.9 2.9h26.7c1.6 0 2.9-1.3 2.9-2.9s-1.3-2.9-2.9-2.9H12.5z"/></svg>
