<svg xmlns="http://www.w3.org/2000/svg" version="1.1" x="0" y="0" viewBox="0 0 52 52" xml:space="preserve"><path d="M29.6 9.1c1.1 0 2.2 0.8 2.4 2.7 0.1 0.9-0.2 3.1-1.4 5.2 -0.5 0.9-0.5 2 0 2.9 0.5 0.9 1.5 1.5 2.6 1.5h7.5c0.5 0 0.9 0.2 1.3 0.5 0.3 0.3 0.5 0.8 0.5 1.3 0 1-0.8 1.8-1.8 1.8h-0.4c-0.3 0-0.5 0.2-0.5 0.5 0 0.3 0.2 0.5 0.5 0.5 1 0 1.8 0.8 1.8 1.8 0 1-0.8 1.8-1.8 1.8h-1c-0.3 0-0.5 0.2-0.5 0.5 0 0.3 0.2 0.5 0.5 0.5 1 0 1.8 0.8 1.8 1.8 0 1-0.8 1.8-1.8 1.8h-1.1c-0.3 0-0.5 0.2-0.5 0.5 0 0.3 0.2 0.5 0.5 0.5 0.8 0 1.5 0.7 1.5 1.5 0 0.4-0.2 0.8-0.4 1.1 -0.3 0.3-0.7 0.4-1.1 0.4H24.9c-0.2 0-0.4 0-0.6 0 -2.8 0-4.8-0.9-6.5-2.3V22.9h1.9c0.5 0 1-0.1 1.4-0.4 0.4-0.3 0.7-0.6 0.9-1.1 0.4-0.8 0.9-1.6 1.5-2.3 2.2-2.6 4.6-5.5 4.7-8.6 0-0.7 0.6-1.3 1.3-1.3L29.6 9.1C29.5 9.1 29.5 9.1 29.6 9.1M29.6 7.1c0 0-0.1 0-0.1 0l-0.1 0c-1.8 0.1-3.2 1.5-3.3 3.2 -0.1 2.5-2.3 5.1-4.3 7.4 -0.7 0.8-1.3 1.7-1.8 2.7 0 0.1-0.1 0.2-0.2 0.2 -0.1 0.1-0.2 0.1-0.3 0.1h-1.9c-1.1 0-2 0.9-2 2v13.4c0 0.6 0.3 1.2 0.8 1.6 2.3 1.9 4.8 2.7 7.8 2.7 0.2 0 0.5 0 0.7 0h13.2c0.9 0 1.8-0.4 2.5-1 0.7-0.7 1-1.6 1-2.5 0-0.4-0.1-0.8-0.2-1.2 1-0.7 1.6-1.8 1.6-3.1 0-0.6-0.1-1.2-0.4-1.7 0.9-0.7 1.4-1.8 1.4-3 0-0.8-0.2-1.5-0.6-2.1 0.6-0.7 1-1.6 1-2.6 0-1-0.4-2-1.1-2.7 -0.7-0.7-1.7-1.1-2.7-1.1h-7.5c-0.4 0-0.7-0.2-0.8-0.5 -0.2-0.3-0.2-0.6 0-0.9 1.4-2.4 1.8-5 1.7-6.4C33.7 8.6 31.5 7.1 29.6 7.1L29.6 7.1z" fill="#E31B23"/><path d="M14.4 36.9c0 0.5-0.4 0.9-0.9 0.9h-3.3c-0.5 0-0.9-0.4-0.9-0.9V22.1c0-0.5 0.4-0.9 0.9-0.9h3.3c0.5 0 0.9 0.4 0.9 0.9V36.9z"/></svg>
