<svg xmlns="http://www.w3.org/2000/svg" version="1.1" x="0" y="0" viewBox="0 0 52 52" xml:space="preserve"><path d="M36.6 9.7c0.5 0 1 0.5 1 1v29.1c0 0.5-0.5 1-1 1H17.5c-0.5 0-1-0.5-1-1V10.7c0-0.5 0.5-1 1-1H36.6M36.6 7.7H17.5c-1.7 0-3 1.3-3 3v29.1c0 1.7 1.3 3 3 3h19.1c1.7 0 3-1.3 3-3V10.7C39.6 9 38.3 7.7 36.6 7.7L36.6 7.7z" fill="#E31B23"/><path d="M34.6 35.1h-15c-0.5 0-0.9-0.4-0.9-0.9s0.4-0.9 0.9-0.9h15c0.5 0 0.9 0.4 0.9 0.9S35.1 35.1 34.6 35.1z"/><path d="M34.6 29.1h-15c-0.5 0-0.9-0.4-0.9-0.9s0.4-0.9 0.9-0.9h15c0.5 0 0.9 0.4 0.9 0.9S35.1 29.1 34.6 29.1z"/><path d="M34.6 23.1h-15c-0.5 0-0.9-0.4-0.9-0.9s0.4-0.9 0.9-0.9h15c0.5 0 0.9 0.4 0.9 0.9S35.1 23.1 34.6 23.1z"/><path d="M34.6 17.1h-15c-0.5 0-0.9-0.4-0.9-0.9s0.4-0.9 0.9-0.9h15c0.5 0 0.9 0.4 0.9 0.9S35.1 17.1 34.6 17.1z"/></svg>
