<svg xmlns="http://www.w3.org/2000/svg" version="1.1" x="0" y="0" viewBox="0 0 52 52" xml:space="preserve"><path d="M35.8 10.5c0.5 0 1 0.4 1 1v28.6c0 0.5-0.4 1-1 1H15.9c-0.5 0-1-0.4-1-1V18.2c1.4-1.6 5.9-6.2 7.5-7.7H35.8M35.8 8.3H21.6c-0.3 0-8.9 8.9-8.9 9.2v22.7c0 1.8 1.4 3.2 3.2 3.2h19.9c1.8 0 3.2-1.4 3.2-3.2V11.5C39 9.7 37.6 8.3 35.8 8.3L35.8 8.3z" fill="#E31B23"/><path d="M31.3 30.7l-4-4 4-4c0.4-0.4 0.4-1 0-1.4s-1-0.4-1.4 0l-4 4 -4-4c-0.4-0.4-1-0.4-1.4 0s-0.4 1 0 1.4l4 4 -4 4c-0.4 0.4-0.4 1 0 1.4 0.2 0.2 0.4 0.3 0.7 0.3s0.5-0.1 0.7-0.3l4-4 4 4c0.2 0.2 0.4 0.3 0.7 0.3s0.5-0.1 0.7-0.3C31.6 31.7 31.6 31.1 31.3 30.7z"/></svg>
