<svg xmlns="http://www.w3.org/2000/svg" version="1.1" x="0" y="0" viewBox="0 0 52 52" xml:space="preserve"><path class="st1" d="M34.8 10.5c0.5 0 1 0.4 1 1v28.6c0 0.5-0.4 1-1 1H14.9c-0.5 0-1-0.4-1-1V18.2c1.4-1.6 5.9-6.2 7.5-7.7H34.8M34.8 8.3H20.6c-0.3 0-8.9 8.9-8.9 9.2v22.7c0 1.8 1.4 3.2 3.2 3.2h19.9c1.8 0 3.2-1.4 3.2-3.2V11.5C38 9.7 36.6 8.3 34.8 8.3L34.8 8.3z" fill="#E31B23"/><path d="M31.1 29.1h-2.6v-3.5l2.6 0c0.5 0 0.9-0.4 0.9-0.9s-0.4-0.9-0.9-0.9l-2.6 0v-2.6c0-0.5-0.4-0.9-0.9-0.9s-0.9 0.4-0.9 0.9v2.6l-3.6 0v-2.6c0-0.5-0.4-0.9-0.9-0.9s-0.9 0.4-0.9 0.9v2.6l-2.8 0c-0.5 0-0.9 0.4-0.9 0.9s0.4 0.9 0.9 0.9l2.8 0v3.5h-2.8c-0.5 0-0.9 0.4-0.9 0.9s0.4 0.9 0.9 0.9h2.8v2.7c0 0.5 0.4 0.9 0.9 0.9s0.9-0.4 0.9-0.9v-2.7h3.6v2.7c0 0.5 0.4 0.9 0.9 0.9s0.9-0.4 0.9-0.9v-2.7h2.6c0.5 0 0.9-0.4 0.9-0.9S31.6 29.1 31.1 29.1zM23.1 29.1v-3.5l3.6 0v3.5H23.1z"/></svg>
