<svg xmlns="http://www.w3.org/2000/svg" version="1.1" x="0" y="0" viewBox="0 0 52 52" xml:space="preserve"><path d="M20.6 24.7h4c0.4 0 0.7-0.3 0.7-0.7v-4c0-0.4-0.3-0.7-0.7-0.7h-4c-0.4 0-0.7 0.3-0.7 0.7v4C19.9 24.4 20.2 24.7 20.6 24.7z"/><path d="M33.6 8.3H19.1c-1.8 0-3.2 1.4-3.2 3.2v3.6 2 25.3c0 1.8 1.4 3.2 3.2 3.2h14.5c1.8 0 3.2-1.4 3.2-3.2V17.1v-2 -3.6C36.8 9.7 35.4 8.3 33.6 8.3zM25.3 41.7c0-0.6 0.5-1.1 1.1-1.1s1.1 0.5 1.1 1.1c0 0.6-0.5 1.1-1.1 1.1S25.3 42.3 25.3 41.7zM34.8 37.8H18V17.1h16.9V37.8zM18 15.1v-3.6c0-0.6 0.5-1.2 1.2-1.2h14.5c0.6 0 1.2 0.5 1.2 1.2v3.6H18z" fill="#E31B23"/></svg>
