<svg xmlns="http://www.w3.org/2000/svg" version="1.1" x="0" y="0" viewBox="0 0 52 52" xml:space="preserve"><path d="M29.6 23.5l-4.1-3.2c-0.4-0.3-1.1-0.3-1.4 0.2s-0.3 1.1 0.2 1.4l2 1.5H10.1c-0.5 0-0.9 0.4-0.9 0.9s0.4 0.9 0.9 0.9h16.1l-1.9 1.5c-0.4 0.3-0.5 1-0.2 1.4 0.2 0.3 0.5 0.4 0.8 0.4 0.2 0 0.4-0.1 0.6-0.2l4.1-3.2c0.2-0.2 0.4-0.5 0.4-0.8C30 23.9 29.9 23.7 29.6 23.5z" fill="#E31B23"/><path d="M36.9 12.5V8.9c0-1.8-1.4-3.2-3.2-3.2H19.2c-1.8 0-3.2 1.4-3.2 3.2v3.6 2 8.9h2v-8.9h16.9v20.7H18v-10h-2v14.7c0 1.8 1.4 3.2 3.2 3.2h14.5c1.8 0 3.2-1.4 3.2-3.2V14.5h0L36.9 12.5 36.9 12.5zM26.4 40.2c-0.6 0-1.1-0.5-1.1-1.1 0-0.6 0.5-1.1 1.1-1.1 0.6 0 1.1 0.5 1.1 1.1C27.5 39.7 27 40.2 26.4 40.2zM34.9 12.5H18V8.9c0-0.6 0.5-1.2 1.2-1.2h14.5c0.6 0 1.2 0.5 1.2 1.2V12.5z"/></svg>
