<svg xmlns="http://www.w3.org/2000/svg" version="1.1" x="0" y="0" viewBox="0 0 52 52" xml:space="preserve"><path d="M30 23.5h-3.5V20c0-0.6-0.4-1-1-1s-1 0.4-1 1v3.5H21c-0.6 0-1 0.4-1 1s0.4 1 1 1h3.5V29c0 0.6 0.4 1 1 1s1-0.4 1-1v-3.5H30c0.6 0 1-0.4 1-1S30.5 23.5 30 23.5z" fill="#E31B23"/><path d="M32.7 5.8H18.2c-1.8 0-3.2 1.4-3.2 3.2v3.6 2V40c0 1.8 1.4 3.2 3.2 3.2h14.5c1.8 0 3.2-1.4 3.2-3.2V14.6v-2V9C35.9 7.3 34.5 5.8 32.7 5.8zM24.4 39.3c0-0.6 0.5-1.1 1.1-1.1s1.1 0.5 1.1 1.1c0 0.6-0.5 1.1-1.1 1.1S24.4 39.8 24.4 39.3zM33.9 35.4H17.1V14.6h16.9V35.4zM17.1 12.6V9c0-0.6 0.5-1.2 1.2-1.2h14.5c0.6 0 1.2 0.5 1.2 1.2v3.6H17.1z"/></svg>
