<svg xmlns="http://www.w3.org/2000/svg" version="1.1" x="0" y="0" viewBox="0 0 52 52" xml:space="preserve"><path d="M23.9 30l-3.3-4.4c-0.3-0.4-0.2-1 0.2-1.3s1-0.2 1.3 0.2l1.8 2.4 5.2-7.4c0.3-0.4 0.8-0.5 1.3-0.2s0.5 0.8 0.2 1.3L23.9 30z"/><path d="M32.8 5.6H18.3c-1.8 0-3.2 1.4-3.2 3.2v3.6 2 25.3c0 1.8 1.4 3.2 3.2 3.2h14.5c1.8 0 3.2-1.4 3.2-3.2V14.4v-2V8.8C36 7 34.5 5.6 32.8 5.6zM24.5 39c0-0.6 0.5-1.1 1.1-1.1s1.1 0.5 1.1 1.1c0 0.6-0.5 1.1-1.1 1.1S24.5 39.6 24.5 39zM34 35.1H17.1V14.4H34V35.1zM17.1 12.4V8.8c0-0.6 0.5-1.2 1.2-1.2h14.5c0.6 0 1.2 0.5 1.2 1.2v3.6H17.1z" fill="#E31B23"/></svg>
