<svg xmlns="http://www.w3.org/2000/svg" version="1.1" x="0" y="0" viewBox="0 0 52 52" xml:space="preserve"><path d="M30.8 26.5h-1.9v-2.6h1.9c0.4 0 0.8-0.4 0.8-0.8s-0.4-0.8-0.8-0.8h-1.9v-1.9c0-0.4-0.4-0.8-0.8-0.8s-0.8 0.4-0.8 0.8v1.9h-2.6v-1.9c0-0.4-0.4-0.8-0.8-0.8S23 19.9 23 20.3v1.9h-2c-0.4 0-0.8 0.4-0.8 0.8s0.4 0.8 0.8 0.8h2v2.6h-2c-0.4 0-0.8 0.4-0.8 0.8s0.4 0.8 0.8 0.8h2v2c0 0.4 0.4 0.8 0.8 0.8s0.8-0.4 0.8-0.8v-2h2.6v2c0 0.4 0.4 0.8 0.8 0.8s0.8-0.4 0.8-0.8v-2h1.9c0.4 0 0.8-0.4 0.8-0.8S31.2 26.5 30.8 26.5zM24.6 26.5v-2.6h2.6v2.6H24.6z"/><path d="M33.1 5.5H18.6c-1.8 0-3.2 1.4-3.2 3.2v3.6 2 25.3c0 1.8 1.4 3.2 3.2 3.2h14.5c1.8 0 3.2-1.4 3.2-3.2V14.3v-2V8.7C36.3 7 34.9 5.5 33.1 5.5zM24.8 39c0-0.6 0.5-1.1 1.1-1.1s1.1 0.5 1.1 1.1c0 0.6-0.5 1.1-1.1 1.1S24.8 39.5 24.8 39zM34.3 35.1H17.5V14.3h16.9V35.1zM17.5 12.3V8.7c0-0.6 0.5-1.2 1.2-1.2h14.5c0.6 0 1.2 0.5 1.2 1.2v3.6H17.5z" fill="#E31B23"/></svg>
