<svg xmlns="http://www.w3.org/2000/svg" version="1.1" x="0" y="0" viewBox="0 0 52 52" xml:space="preserve"><path d="M30.5 26.8L28 24.3l2.5-2.5c0.4-0.4 0.4-1 0-1.4s-1-0.4-1.4 0l-2.5 2.5 -2.5-2.5c-0.4-0.4-1-0.4-1.4 0s-0.4 1 0 1.4l2.5 2.5 -2.5 2.5c-0.4 0.4-0.4 1 0 1.4 0.2 0.2 0.5 0.3 0.7 0.3s0.5-0.1 0.7-0.3l2.5-2.5 2.5 2.5c0.2 0.2 0.5 0.3 0.7 0.3s0.5-0.1 0.7-0.3C30.9 27.8 30.9 27.2 30.5 26.8z"/><path d="M33.8 5.6H19.4c-1.8 0-3.2 1.4-3.2 3.2v3.6 2 25.3c0 1.8 1.4 3.2 3.2 3.2h14.5c1.8 0 3.2-1.4 3.2-3.2V14.4v-2V8.8C37 7 35.6 5.6 33.8 5.6zM25.5 39c0-0.6 0.5-1.1 1.1-1.1s1.1 0.5 1.1 1.1c0 0.6-0.5 1.1-1.1 1.1S25.5 39.6 25.5 39zM35 35.1H18.2V14.4H35V35.1zM18.2 12.4V8.8c0-0.6 0.5-1.2 1.2-1.2h14.5c0.6 0 1.2 0.5 1.2 1.2v3.6H18.2z" fill="#E31B23"/></svg>
