<svg xmlns="http://www.w3.org/2000/svg" version="1.1" x="0" y="0" viewBox="0 0 52 52" xml:space="preserve"><path d="M12.4 16.7c-0.2 0-0.3 0-0.5-0.1l-3.9-2c-0.5-0.3-0.8-0.9-0.5-1.5 0.3-0.5 0.9-0.8 1.5-0.5l3.9 2c0.5 0.3 0.8 0.9 0.5 1.5C13.2 16.5 12.8 16.7 12.4 16.7z"/><path d="M18 10.7c-0.4 0-0.7-0.2-0.9-0.5l-2.3-3.8c-0.3-0.5-0.1-1.2 0.4-1.5 0.5-0.3 1.2-0.1 1.5 0.4L18.9 9c0.3 0.5 0.1 1.2-0.4 1.5C18.4 10.6 18.2 10.7 18 10.7z"/><path d="M26 8.5C26 8.5 25.9 8.5 26 8.5c-0.6 0-1.1-0.5-1.1-1.1l0-4.4c0-0.6 0.5-1.1 1.1-1.1 0 0 0 0 0 0 0.6 0 1.1 0.5 1.1 1.1l0 4.4C27.1 8 26.6 8.5 26 8.5z"/><path d="M33.9 10.9c-0.2 0-0.4-0.1-0.6-0.2-0.5-0.3-0.7-1-0.3-1.5l2.4-3.7c0.3-0.5 1-0.7 1.5-0.3 0.5 0.3 0.7 1 0.3 1.5l-2.4 3.7C34.6 10.7 34.2 10.9 33.9 10.9z"/><path d="M39.3 17c-0.4 0-0.8-0.2-1-0.6-0.3-0.5 0-1.2 0.5-1.5l4-1.9c0.5-0.3 1.2 0 1.5 0.5 0.3 0.5 0 1.2-0.5 1.5l-4 1.9C39.7 17 39.5 17 39.3 17z"/><path d="M32.8 12.3H19.2c-1.6 0-3 1.4-3 3v3.3 2 23.7c0 1.6 1.4 3 3 3h13.6c1.6 0 3-1.4 3-3V20.6v-2-3.3C35.8 13.7 34.4 12.3 32.8 12.3zM25 43.7c0-0.6 0.4-1 1-1 0.6 0 1 0.4 1 1 0 0.6-0.4 1-1 1C25.4 44.7 25 44.3 25 43.7zM33.8 40.1H18.2V20.6h15.6V40.1zM18.2 18.6v-3.3c0-0.5 0.5-1 1-1h13.6c0.5 0 1 0.5 1 1v3.3H18.2z" fill="#E31B23"/></svg>
