<svg xmlns="http://www.w3.org/2000/svg" version="1.1" x="0" y="0" viewBox="0 0 52 52" xml:space="preserve"><path d="M29.3 38.6c-2.1 0-4.4-0.3-7.3-2.9-0.5-0.5-0.6-1.2-0.1-1.8 0.5-0.5 1.2-0.6 1.8-0.1 2.2 1.9 3.7 2.3 5.7 2.3 3.5 0 6-2.5 6-6 0-1.8-0.6-3.3-1.6-4.3-1-1-2.5-1.5-4.3-1.5-2.5 0-4.1 1-5.3 3.4-0.3 0.5-0.9 0.8-1.4 0.6-0.6-0.2-1-0.7-0.9-1.3l0.6-12.5c0-0.7 0.6-1.2 1.2-1.2h11.6c0.7 0 1.2 0.6 1.2 1.2s-0.6 1.2-1.2 1.2H24.8l-0.3 7.5c1.4-1.1 3-1.6 5-1.6 2.5 0 4.6 0.8 6.1 2.2 1.5 1.5 2.3 3.7 2.3 6.1C37.8 35.1 34.3 38.6 29.3 38.6zM19.7 21.9c0-0.8-0.4-2.3-2.9-3.3v-2.7c0.4 0.2 0.7 0.5 0.7 0.8 0.1 0.4 0.5 0.7 1 0.6 0.4-0.1 0.7-0.5 0.6-1-0.3-1.1-1.2-1.9-2.3-2.2v-0.6c0-0.3-0.3-0.6-0.6-0.6s-0.6 0.3-0.6 0.6v0.6c-1.4 0.2-2.4 1.3-2.4 2.7 0 0.9 0.4 2.1 2.4 2.9v3.5c-0.7-0.2-1.2-0.7-1.3-1.3-0.1-0.4-0.5-0.7-1-0.6-0.4 0.1-0.7 0.5-0.6 1 0.3 1.4 1.5 2.4 2.9 2.6v0.5c0 0.3 0.3 0.6 0.6 0.6s0.6-0.3 0.6-0.6V25C18.6 24.8 19.7 23.6 19.7 21.9zM14.8 16.9c0-0.5 0.3-0.8 0.8-1V18C15.2 17.7 14.8 17.4 14.8 16.9zM16.8 23.4v-3c0.8 0.5 1.3 1 1.3 1.6C18.1 22.9 17.4 23.2 16.8 23.4z"/></svg>
