<svg xmlns="http://www.w3.org/2000/svg" version="1.1" x="0" y="0" viewBox="0 0 52 52" xml:space="preserve"><path d="M43.5 14.4H8.9c-2 0-3.6 1.6-3.6 3.6v16.2c0 2 1.6 3.6 3.6 3.6h34.6c2 0 3.6-1.6 3.6-3.6V17.9C47.1 16 45.5 14.4 43.5 14.4zM45.2 17.9V21c-1.1-0.3-3.7-1.2-4.3-4.8h2.6C44.5 16.3 45.2 17 45.2 17.9zM39 35.8H13.4c-0.8-5.1-4.9-6.3-6.2-6.5v-6.2c1.2-0.2 5.6-1.4 6.2-6.8H39c0.7 5.3 5 6.5 6.2 6.7v6.5C44 29.6 39.9 30.8 39 35.8zM8.9 16.3h2.6c-0.5 3.6-3.2 4.6-4.3 4.9v-3.2C7.3 17 8 16.3 8.9 16.3zM7.3 34.1v-2.9c1.1 0.3 3.6 1.2 4.2 4.6H8.9C8 35.8 7.3 35 7.3 34.1zM43.5 35.8H41c0.7-3.3 3.2-4.2 4.2-4.4v2.8C45.2 35 44.5 35.8 43.5 35.8zM17.5 21c-0.4 0-0.8-0.3-0.8-0.8v-4.7c0-0.4 0.3-0.8 0.8-0.8s0.8 0.3 0.8 0.8v4.7C18.3 20.6 18 21 17.5 21zM17.5 29.3c-0.4 0-0.8-0.3-0.8-0.8v-4.8c0-0.4 0.3-0.8 0.8-0.8s0.8 0.3 0.8 0.8v4.8C18.3 29 18 29.3 17.5 29.3zM17.5 37.4c-0.4 0-0.8-0.3-0.8-0.8v-5.1c0-0.4 0.3-0.8 0.8-0.8s0.8 0.3 0.8 0.8v5.1C18.3 37 18 37.4 17.5 37.4zM17.5 44.2c-0.4 0-0.8-0.3-0.8-0.8v-3.3c0-0.4 0.3-0.8 0.8-0.8s0.8 0.3 0.8 0.8v3.3C18.3 43.9 18 44.2 17.5 44.2zM30 28.4c0-0.8-0.4-2.3-2.9-3.3v-2.7c0.4 0.2 0.7 0.5 0.8 0.9 0.1 0.4 0.5 0.7 1 0.6 0.4-0.1 0.7-0.5 0.6-1-0.3-1.1-1.2-1.9-2.3-2.2v-0.6c0-0.3-0.3-0.6-0.6-0.6s-0.6 0.3-0.6 0.6v0.6c-1.4 0.2-2.4 1.3-2.4 2.7 0 0.9 0.4 2.1 2.4 2.9v3.5c-0.7-0.2-1.2-0.7-1.3-1.3-0.1-0.4-0.5-0.7-0.9-0.6-0.4 0.1-0.7 0.5-0.6 0.9 0.3 1.4 1.5 2.4 2.9 2.6v0.5c0 0.3 0.3 0.6 0.6 0.6s0.6-0.3 0.6-0.6v-0.5C28.9 31.2 30 30 30 28.4zM25.1 23.3c0-0.5 0.3-0.8 0.8-1v2.2C25.5 24.2 25.1 23.8 25.1 23.3zM27.1 29.8v-3c0.8 0.5 1.3 1 1.3 1.6C28.4 29.3 27.8 29.7 27.1 29.8zM17.5 12.6c-0.4 0-0.8-0.3-0.8-0.8V8.6c0-0.4 0.3-0.8 0.8-0.8s0.8 0.3 0.8 0.8v3.3C18.3 12.2 18 12.6 17.5 12.6z"/></svg>
