<svg xmlns="http://www.w3.org/2000/svg" version="1.1" x="0" y="0" viewBox="0 0 52 52" xml:space="preserve"><path d="M26.3 44.9c-10 0-18-8.1-18-18s8.1-18 18-18 18 8.1 18 18S36.2 44.9 26.3 44.9zM26.3 10.9c-8.8 0-16 7.2-16 16s7.2 16 16 16 16-7.2 16-16S35.1 10.9 26.3 10.9zM30.5 32.1c-1 0.7-2.1 1.1-3.3 1.2V20.7c1.2 0.1 2.4 0.5 3.4 1.2 0.5 0.4 1.3 0.3 1.8-0.2 0.4-0.6 0.3-1.3-0.2-1.8-1.4-1.1-3.1-1.7-4.9-1.8v-2.1c0-0.5-0.4-0.9-0.9-0.9s-0.9 0.4-0.9 0.9v2.2C21.2 19 18 22.6 18 27s3.2 8 7.4 8.7v2c0 0.5 0.4 0.9 0.9 0.9s0.9-0.4 0.9-0.9v-1.9c1.8-0.1 3.4-0.6 4.8-1.7 0.6-0.4 0.7-1.2 0.3-1.7S31.1 31.7 30.5 32.1zM20.5 27c0-3 2.1-5.5 4.9-6.1v12.3C22.6 32.5 20.5 30 20.5 27z"/></svg>
