<svg xmlns="http://www.w3.org/2000/svg" version="1.1" x="0" y="0" viewBox="0 0 52 52" xml:space="preserve"><path d="M27.5 45.1c-4.2 0-7.7-3.6-7.7-8v-9.8c0-4.4 3.5-8 7.7-8 4.3 0 7.7 3.6 7.7 8v9.8C35.2 41.5 31.8 45.1 27.5 45.1zM27.5 21.8c-2.9 0-5.2 2.5-5.2 5.5v9.8c0 3 2.3 5.5 5.2 5.5 2.9 0 5.2-2.5 5.2-5.5v-9.8C32.7 24.2 30.4 21.8 27.5 21.8zM17.6 34.2c0-0.8-0.4-2.3-2.9-3.3v-2.7c0.4 0.2 0.7 0.5 0.7 0.8 0.1 0.4 0.5 0.7 1 0.6 0.4-0.1 0.7-0.5 0.6-1-0.3-1.1-1.2-1.9-2.3-2.2v-0.6c0-0.3-0.3-0.6-0.6-0.6s-0.6 0.3-0.6 0.6v0.6c-1.4 0.2-2.4 1.3-2.4 2.7 0 0.9 0.4 2.1 2.4 2.9v3.5c-0.7-0.2-1.2-0.7-1.3-1.3-0.1-0.4-0.5-0.7-1-0.6-0.4 0.1-0.7 0.5-0.6 1 0.3 1.4 1.5 2.4 2.9 2.6v0.5c0 0.3 0.3 0.6 0.6 0.6s0.6-0.3 0.6-0.6v-0.5C16.5 37 17.6 35.8 17.6 34.2zM12.7 29.1c0-0.5 0.3-0.8 0.8-1v2.1C13.1 29.9 12.7 29.6 12.7 29.1zM14.7 35.6v-3c0.8 0.5 1.3 1 1.3 1.6C16 35.1 15.4 35.5 14.7 35.6zM40 13.6c-0.3 0-0.6-0.1-0.8-0.3-6.5-6.5-17-6.5-23.5 0-0.4 0.4-1.1 0.4-1.6 0-0.4-0.4-0.4-1.1 0-1.6 7.3-7.3 19.3-7.3 26.6 0 0.4 0.4 0.4 1.1 0 1.6C40.6 13.5 40.3 13.6 40 13.6zM19.5 17.8c-0.3 0-0.6-0.1-0.8-0.3-0.4-0.4-0.4-1.1 0-1.6 2.3-2.3 5.5-3.6 8.8-3.6 0 0 0 0 0 0 3.3 0 6.4 1.3 8.8 3.6 0.4 0.4 0.4 1.1 0 1.6-0.4 0.4-1.1 0.4-1.6 0-1.9-1.9-4.5-3-7.2-3 0 0 0 0 0 0-2.7 0-5.3 1.1-7.2 3C20.1 17.7 19.8 17.8 19.5 17.8z"/></svg>
