<svg xmlns="http://www.w3.org/2000/svg" version="1.1" x="0" y="0" viewBox="0 0 52 52" xml:space="preserve"><path d="M25.9 41.5c-3.8 0-6.8-3.1-6.8-6.8 0-3.8 3.1-6.8 6.8-6.8 3.8 0 6.8 3.1 6.8 6.8C32.7 38.5 29.6 41.5 25.9 41.5zM25.9 30.1c-2.5 0-4.6 2.1-4.6 4.6 0 2.5 2.1 4.6 4.6 4.6 2.5 0 4.6-2.1 4.6-4.6C30.5 32.2 28.4 30.1 25.9 30.1z"/><path d="M42.5 18.4c-0.3 0-0.6-0.1-0.8-0.3-8.7-8.7-23-8.7-31.7 0-0.4 0.4-1.1 0.4-1.6 0-0.4-0.4-0.4-1.1 0-1.6 9.6-9.6 25.2-9.6 34.8 0 0.4 0.4 0.4 1.1 0 1.6C43.1 18.3 42.8 18.4 42.5 18.4z" fill="#E31B23"/><path d="M38.4 22.9c-0.3 0-0.6-0.1-0.8-0.3-6.5-6.5-17-6.5-23.5 0-0.4 0.4-1.1 0.4-1.6 0-0.4-0.4-0.4-1.1 0-1.6 7.3-7.3 19.3-7.3 26.6 0 0.4 0.4 0.4 1.1 0 1.6C39 22.8 38.7 22.9 38.4 22.9z" fill="#E31B23"/><path d="M17.9 27.1c-0.3 0-0.6-0.1-0.8-0.3-0.4-0.4-0.4-1.1 0-1.6 2.3-2.3 5.5-3.6 8.8-3.6h0c3.3 0 6.4 1.3 8.8 3.6 0.4 0.4 0.4 1.1 0 1.6-0.4 0.4-1.1 0.4-1.6 0-1.9-1.9-4.5-3-7.2-3-2.7 0-5.3 1.1-7.2 3C18.5 27 18.2 27.1 17.9 27.1z" fill="#E31B23"/></svg>
