<svg xmlns="http://www.w3.org/2000/svg" version="1.1" x="0" y="0" viewBox="0 0 52 52" xml:space="preserve"><path d="M27.2 44.1c-4.2 0-7.7-3.6-7.7-8v-9.8c0-4.4 3.5-8 7.7-8 4.3 0 7.7 3.6 7.7 8v9.8C34.9 40.5 31.4 44.1 27.2 44.1zM27.2 20.8c-2.9 0-5.2 2.5-5.2 5.5v9.8c0 3 2.3 5.5 5.2 5.5 2.9 0 5.2-2.5 5.2-5.5v-9.8C32.4 23.3 30 20.8 27.2 20.8zM17.3 33.2c0-0.8-0.4-2.3-2.9-3.3v-2.7c0.4 0.2 0.7 0.5 0.7 0.8 0.1 0.4 0.5 0.7 1 0.6 0.4-0.1 0.7-0.5 0.6-1-0.3-1.1-1.2-1.9-2.3-2.2v-0.6c0-0.3-0.3-0.6-0.6-0.6s-0.6 0.3-0.6 0.6v0.6c-1.4 0.2-2.4 1.3-2.4 2.7 0 0.9 0.4 2.1 2.4 2.9v3.5c-0.7-0.2-1.2-0.7-1.3-1.3-0.1-0.4-0.5-0.7-1-0.6-0.4 0.1-0.7 0.5-0.6 1 0.3 1.4 1.5 2.4 2.9 2.6v0.5c0 0.3 0.3 0.6 0.6 0.6s0.6-0.3 0.6-0.6v-0.5C16.1 36 17.3 34.8 17.3 33.2zM12.4 28.1c0-0.5 0.3-0.8 0.8-1v2.1C12.7 29 12.4 28.6 12.4 28.1zM14.4 34.6v-3c0.8 0.5 1.3 1 1.3 1.6C15.7 34.1 15 34.5 14.4 34.6zM39.7 12.6c-0.3 0-0.6-0.1-0.8-0.3-6.5-6.5-17-6.5-23.5 0-0.4 0.4-1.1 0.4-1.6 0s-0.4-1.1 0-1.6c7.3-7.3 19.3-7.3 26.6 0 0.4 0.4 0.4 1.1 0 1.6C40.2 12.5 40 12.6 39.7 12.6zM19.1 16.8c-0.3 0-0.6-0.1-0.8-0.3-0.4-0.4-0.4-1.1 0-1.6 2.3-2.3 5.5-3.6 8.8-3.6 0 0 0 0 0 0 3.3 0 6.4 1.3 8.8 3.6 0.4 0.4 0.4 1.1 0 1.6s-1.1 0.4-1.6 0c-1.9-1.9-4.5-3-7.2-3 0 0 0 0 0 0-2.7 0-5.3 1.1-7.2 3C19.7 16.7 19.4 16.8 19.1 16.8z" fill="#FFFFFF"/></svg>
