<svg xmlns="http://www.w3.org/2000/svg" version="1.1" x="0" y="0" viewBox="0 0 52 52" xml:space="preserve"><path d="M30.9 42.9c-4.1 0-8.7-2.1-13.7-6.4-5.7-4.8-8.7-9.5-8.8-14-0.1-3.1 1.3-5.2 2.1-6.2 0.3-0.4 0.9-1 1.7-1.4 0.7-0.3 1.9-0.4 3.2 0.7l4.7 3.9c0.6 0.5 0.9 1.1 1 1.9 0.1 1.3-0.8 2.4-0.9 2.5l-1.5 1.8c0.5 0.9 1.8 2.6 3.9 4.5 2.2 1.8 4.1 2.7 5.1 3l1.5-1.8c0.1-0.1 1-1.2 2.3-1.3 0.7-0.1 1.4 0.2 2 0.7l4.7 3.9c1.2 1 2.1 2.6 0.2 4.9-0.8 1-2.6 2.7-5.7 3.1C32 42.9 31.5 42.9 30.9 42.9zM13.2 16.8c-0.1 0-0.2 0-0.3 0.1-0.4 0.2-0.7 0.6-0.9 0.8-0.6 0.8-1.7 2.4-1.6 4.8 0.1 3.8 2.9 8.1 8.1 12.5s10 6.4 13.7 5.8c2.4-0.4 3.9-1.7 4.5-2.4 0.8-0.9 0.9-1.4 0.1-2.1l-4.7-3.9c-0.2-0.2-0.4-0.2-0.5-0.2-0.4 0-0.8 0.4-0.9 0.6l-2.4 2.8-0.6-0.2c-0.1 0-3-0.9-6.4-3.6-3.3-2.9-4.7-5.6-4.7-5.7l-0.3-0.6 2.4-2.8c0.1-0.2 0.5-0.6 0.4-1.1 0-0.1 0-0.3-0.3-0.5L14 17.2C13.6 16.9 13.4 16.8 13.2 16.8zM33.1 29.4c-0.1 0-0.1 0-0.2 0-0.5-0.1-0.9-0.6-0.8-1.1 0.4-2.7-0.4-5.2-2.3-6.7-1.9-1.6-4.5-1.9-7-1.1-0.5 0.2-1.1-0.1-1.3-0.6s0.1-1.1 0.6-1.3c3.2-1.1 6.6-0.6 9 1.4 2.4 2 3.5 5.2 3 8.6C34 29 33.6 29.4 33.1 29.4zM36.5 29.5c-0.1 0-0.1 0-0.2 0-0.5-0.1-0.9-0.6-0.8-1.2 0.7-3.9-0.5-7.5-3.2-9.8-2.7-2.3-6.5-2.8-10.2-1.5-0.5 0.2-1.1-0.1-1.3-0.6-0.2-0.5 0.1-1.1 0.6-1.3 4.4-1.6 8.9-0.9 12.2 1.8 3.3 2.7 4.7 7.1 3.9 11.7C37.4 29.2 37 29.5 36.5 29.5zM40.1 29.7c-0.1 0-0.1 0-0.2 0-0.5-0.1-0.9-0.6-0.8-1.1 0.8-5.1-0.8-9.9-4.4-12.9-3.6-3-8.6-3.8-13.5-2.1-0.5 0.2-1.1-0.1-1.3-0.6-0.2-0.5 0.1-1.1 0.6-1.3 5.5-2 11.3-1 15.4 2.4 4.1 3.5 6 9 5 14.8C41 29.3 40.6 29.7 40.1 29.7z" fill="#FFFFFF"/></svg>
