<svg xmlns="http://www.w3.org/2000/svg" version="1.1" x="0" y="0" viewBox="0 0 52 52" xml:space="preserve"><path d="M25 12.4c2.2 0 3.9 1.8 3.9 3.9v3.3 2.3 2c0 2.2-1.8 3.9-3.9 3.9h-7.7c-0.2 0-0.5 0.1-0.7 0.2l-6.5 4.5c0 0 0-3.4 0-3.5 0-0.6-0.5-1.2-1.1-1.2-2-0.1-3.6-1.9-3.6-3.9v-7.6c0-2.2 1.8-3.9 3.9-3.9H25M25 10.1H9.4c-3.4 0-6.1 2.8-6.1 6.1v7.6c0 2.9 2 5.3 4.7 6 0 1.1 0 2.6 0 2.6 0 0.8 0.4 1.6 1.2 2 0.3 0.2 0.7 0.3 1 0.3 0.4 0 0.9-0.1 1.3-0.4l6.2-4.3H25c3.4 0 6.1-2.8 6.1-6.1v-2-2.3-3.3C31.1 12.9 28.4 10.1 25 10.1L25 10.1zM42.4 21.9c2.2 0 3.9 1.7 3.9 3.9v7.6c0 2-1.6 3.7-3.6 3.9-0.6 0-1.1 0.6-1.1 1.2 0 0.1 0 3.5 0 3.5l-6.5-4.5c-0.2-0.1-0.4-0.2-0.7-0.2h-7.7c-2.2 0-3.9-1.8-3.9-3.9v-3.3-2.3-2c0-2.2 1.8-3.9 3.9-3.9H42.4M42.4 19.7H26.8c-3.4 0-6.1 2.7-6.1 6.1v2 2.3 3.3c0 3.4 2.7 6.1 6.1 6.1h7.4l6.2 4.3c0.4 0.3 0.8 0.4 1.3 0.4 0.4 0 0.7-0.1 1-0.3 0.7-0.4 1.2-1.2 1.2-2 0 0 0-1.6 0-2.7 2.7-0.7 4.7-3.1 4.7-5.9v-7.6C48.5 22.4 45.8 19.7 42.4 19.7L42.4 19.7z" fill="#FFFFFF"/></svg>
