<svg xmlns="http://www.w3.org/2000/svg" version="1.1" x="0" y="0" viewBox="0 0 52 52" xml:space="preserve"><path d="M34.3 31.6c0-1.3-0.7-3.8-4.9-5.5v-4.7c0.7 0.3 1.3 0.8 1.4 1.6 0.2 0.7 0.8 1.1 1.5 0.9 0.7-0.2 1.1-0.8 0.9-1.5-0.4-1.8-2-3.2-3.9-3.6v-1c0-0.5-0.4-0.9-0.9-0.9s-0.9 0.4-0.9 0.9v1c-2.3 0.4-4 2.2-4 4.4 0 1.4 0.7 3.4 4 4.9v6c-1.2-0.3-2.1-1.2-2.4-2.3-0.1-0.7-0.8-1.1-1.5-0.9-0.7 0.2-1.1 0.8-0.9 1.5 0.5 2.3 2.5 4 4.8 4.3v0.9c0 0.5 0.4 0.9 0.9 0.9s0.9-0.4 0.9-0.9v-0.9C32.4 36.3 34.3 34.4 34.3 31.6zM26.1 23.2c0-0.9 0.6-1.6 1.5-1.8v3.9C26.8 24.8 26.1 24.1 26.1 23.2zM29.4 34.1v-5.2c1.5 0.8 2.4 1.8 2.4 2.8C31.8 33.4 30.6 33.9 29.4 34.1z"/><path d="M12.3 27.4c-0.2 0-0.4-0.1-0.6-0.2-0.3-0.3-7.8-6.9-7.8-13.4C4 9 7.9 5.2 12.5 5.2c4.7 0.1 8.5 4 8.4 8.8-0.1 6.5-7.8 12.9-8.1 13.2C12.7 27.3 12.5 27.4 12.3 27.4zM12.4 7c-3.7 0-6.7 3-6.7 6.8-0.1 4.7 4.9 9.8 6.6 11.4 1.8-1.6 6.8-6.6 6.9-11.3C19.2 10.2 16.2 7.1 12.4 7 12.5 7 12.5 7 12.4 7z"/><path d="M12.5 17.8C12.5 17.8 12.5 17.8 12.5 17.8c-2.3 0-4.1-1.9-4-4.1 0-1.1 0.4-2.1 1.2-2.8s1.8-1.2 2.9-1.1c2.2 0 4 1.9 4 4.1 0 1.1-0.4 2.1-1.2 2.8C14.6 17.4 13.6 17.8 12.5 17.8zM12.5 11.5c-0.6 0-1.1 0.2-1.6 0.6-0.4 0.4-0.7 1-0.7 1.6 0 1.2 1 2.3 2.2 2.3 0.6 0 1.2-0.2 1.6-0.6 0.4-0.4 0.7-1 0.7-1.6C14.8 12.6 13.8 11.5 12.5 11.5 12.6 11.5 12.5 11.5 12.5 11.5z"/><path d="M28.5 9.5c-2.8 0-5.5 0.6-8 1.8 0.2 0.7 0.3 1.5 0.4 2.3 2.3-1.3 4.9-1.9 7.6-1.9 8.8 0 15.9 7.1 15.9 15.9s-7.1 15.9-15.9 15.9-15.9-7.1-15.9-15.9c0-0.1 0-0.2 0-0.3-0.1 0.1-0.2 0.1-0.4 0.1-0.2 0-0.4-0.1-0.6-0.2-0.1-0.1-0.5-0.5-1.2-1.1-0.1 0.5-0.1 0.9-0.1 1.6 0 10 8.1 18.1 18.1 18.1s18.1-8.1 18.1-18.1S38.5 9.5 28.5 9.5z" fill="#E31B23"/></svg>
