<svg xmlns="http://www.w3.org/2000/svg" version="1.1" x="0" y="0" viewBox="0 0 52 52" xml:space="preserve"><path d="M35.4 32.2c0-1.3-0.7-3.8-4.9-5.5V22c0.7 0.3 1.3 0.8 1.4 1.6 0.2 0.7 0.8 1.1 1.5 0.9 0.7-0.2 1.1-0.8 0.9-1.5-0.4-1.8-2-3.2-3.9-3.6v-1c0-0.5-0.4-0.9-0.9-0.9s-0.9 0.4-0.9 0.9v1c-2.3 0.4-4 2.2-4 4.4 0 1.4 0.7 3.4 4 4.9v6c-1.2-0.3-2.1-1.2-2.4-2.3-0.1-0.7-0.8-1.1-1.5-0.9-0.7 0.2-1.1 0.8-0.9 1.5 0.5 2.3 2.5 4 4.8 4.3V38c0 0.5 0.4 0.9 0.9 0.9s0.9-0.4 0.9-0.9v-0.9C33.5 36.9 35.4 35 35.4 32.2zM27.2 23.8c0-0.9 0.6-1.6 1.5-1.8v3.9C27.9 25.3 27.2 24.6 27.2 23.8zM30.5 34.7v-5.2c1.5 0.8 2.4 1.8 2.4 2.8C32.9 33.9 31.7 34.5 30.5 34.7zM19.8 9.2c-1.9-1.9-4.4-3-7-3 0 0 0 0-0.1 0 0 0 0 0 0 0 0 0 0 0 0 0-2.6 0-5.1 1-6.9 2.8-1.9 1.9-3 4.4-3 7 0 2.7 1 5.2 2.9 7.1s4.4 3 7 3c0 0 0.1 0 0.1 0h0 0c0 0 0 0 0 0 5.5 0 9.9-4.4 10-9.9C22.7 13.7 21.7 11.1 19.8 9.2zM19.8 12.2h-3.4c-0.2-1.4-0.6-2.7-1.1-3.7 1.2 0.4 2.3 1.1 3.2 2C19 11 19.4 11.6 19.8 12.2zM20.9 16.3c0 0.7-0.1 1.5-0.3 2.1h-3.9c0.1-0.7 0.1-1.5 0.1-2.2 0-0.7 0-1.5-0.1-2.2h3.9C20.8 14.7 20.9 15.5 20.9 16.3zM12.7 24.4C12.7 24.4 12.7 24.4 12.7 24.4c-0.5 0-1.4-1.4-1.9-4.1h3.8C14.1 23 13.2 24.4 12.7 24.4zM10.6 18.4c-0.1-0.7-0.1-1.4-0.1-2.2 0-0.8 0-1.5 0.1-2.2h4.2c0.1 0.7 0.1 1.4 0.1 2.2 0 0.8 0 1.5-0.1 2.2H10.6zM4.5 16.1c0-0.7 0.1-1.5 0.3-2.1h3.9c-0.1 0.7-0.1 1.5-0.1 2.2 0 0.7 0 1.5 0.1 2.2H4.8C4.6 17.7 4.5 16.9 4.5 16.1zM12.7 8.1C12.7 8.1 12.7 8.1 12.7 8.1c0.5 0 1.4 1.4 1.9 4.2h-3.8C11.3 9.5 12.2 8.1 12.7 8.1zM7 10.4c0.9-0.9 2-1.5 3.1-1.9-0.5 1-0.8 2.3-1.1 3.7H5.6C5.9 11.5 6.4 10.9 7 10.4zM5.6 20.2H9c0.2 1.4 0.6 2.7 1.1 3.7-1.2-0.4-2.3-1.1-3.2-2C6.3 21.4 5.9 20.9 5.6 20.2zM15.3 24c0.5-1 0.8-2.3 1.1-3.7h3.4C18.8 22 17.2 23.3 15.3 24z"/><path d="M29.6 10.1c-2.8 0-5.5 0.6-8 1.9 0.3 0.7 0.6 1.4 0.7 2.1 2.2-1.1 4.7-1.8 7.2-1.8 8.8 0 15.9 7.1 15.9 15.9s-7.1 15.9-15.9 15.9-15.9-7.1-15.9-15.9c0-0.7 0.1-1.4 0.1-2-0.4 0-0.8 0.1-1.2 0.1 0 0-0.1 0-0.1 0-0.3 0-0.6 0-0.9-0.1-0.1 0.7-0.1 1.3-0.1 2 0 10 8.1 18.1 18.1 18.1s18.1-8.1 18.1-18.1S39.6 10.1 29.6 10.1z" fill="#E31B23"/></svg>
