<svg xmlns="http://www.w3.org/2000/svg" version="1.1" x="0" y="0" viewBox="0 0 52 52" xml:space="preserve"><path d="M39 34.8c-1.7-1.5-4.7-3.9-4.7-3.9-1.5-1.2-2.9 0.5-2.9 0.5l-2 2.3c0 0-2.8-0.8-6-3.5-3.2-2.7-4.4-5.3-4.4-5.3l2-2.3c0 0 1.5-1.7 0-2.9 0 0-3-2.5-4.7-3.9-1.7-1.5-2.9-0.1-3.5 0.6-0.6 0.7-6.5 7.7 6.6 18.8 13.2 11.1 19.1 3.9 19.6 3.3C39.6 37.6 40.7 36.2 39 34.8zM34.6 28.6c-0.1 0-0.1 0-0.2 0-0.5-0.1-0.9-0.6-0.8-1.1 0.4-2.7-0.4-5.2-2.3-6.7-1.9-1.6-4.5-1.9-7-1.1-0.5 0.2-1.1-0.1-1.3-0.6-0.2-0.5 0.1-1.1 0.6-1.3 3.2-1.1 6.6-0.6 9 1.4 2.4 2 3.5 5.2 3 8.6C35.5 28.2 35.1 28.6 34.6 28.6zM38 28.7c-0.1 0-0.1 0-0.2 0-0.5-0.1-0.9-0.6-0.8-1.2 0.7-3.9-0.5-7.5-3.2-9.8-2.7-2.3-6.5-2.8-10.2-1.5-0.5 0.2-1.1-0.1-1.3-0.6-0.2-0.5 0.1-1.1 0.6-1.3 4.4-1.6 8.9-0.9 12.2 1.8 3.3 2.7 4.7 7.1 3.9 11.7C38.9 28.4 38.5 28.7 38 28.7zM41.6 28.9c-0.1 0-0.1 0-0.2 0-0.5-0.1-0.9-0.6-0.8-1.1 0.8-5.1-0.8-9.9-4.4-12.9-3.6-3-8.6-3.8-13.5-2.1-0.5 0.2-1.1-0.1-1.3-0.6-0.2-0.5 0.1-1.1 0.6-1.3 5.5-2 11.3-1 15.4 2.4 4.1 3.5 6 9 5 14.8C42.5 28.6 42.1 28.9 41.6 28.9z"/></svg>
