<svg xmlns="http://www.w3.org/2000/svg" version="1.1" x="0" y="0" viewBox="0 0 52 52" xml:space="preserve"><path d="M25 10.6c2.2 0 3.9 1.8 3.9 3.9v3.3 2.3 2c0 2.2-1.8 3.9-3.9 3.9h-7.7c-0.2 0-0.5 0.1-0.7 0.2l-6.5 4.5c0 0 0-3.4 0-3.5 0-0.6-0.5-1.2-1.1-1.2-2-0.1-3.6-1.9-3.6-3.9v-7.6c0-2.2 1.8-3.9 3.9-3.9H25M25 8.4H9.3c-3.4 0-6.1 2.7-6.1 6.1v7.6c0 2.9 2 5.3 4.7 6 0 1.1 0 2.6 0 2.6 0 0.8 0.4 1.6 1.2 2 0.3 0.2 0.7 0.3 1 0.3 0.4 0 0.9-0.1 1.3-0.4l6.2-4.3H25c3.4 0 6.1-2.8 6.1-6.1v-2-2.3-3.3C31.1 11.1 28.3 8.4 25 8.4L25 8.4zM42.4 20.1c2.2 0 3.9 1.7 3.9 3.9v7.6c0 2-1.6 3.7-3.6 3.9-0.6 0-1.1 0.6-1.1 1.2 0 0.1 0 3.5 0 3.5l-6.5-4.5c-0.2-0.1-0.4-0.2-0.7-0.2h-7.7c-2.2 0-3.9-1.8-3.9-3.9v-3.3V26v-2c0-2.2 1.8-3.9 3.9-3.9H42.4M42.4 17.9H26.7c-3.4 0-6.1 2.7-6.1 6.1v2 2.3 3.3c0 3.4 2.7 6.1 6.1 6.1h7.4l6.2 4.3c0.4 0.3 0.8 0.4 1.3 0.4 0.4 0 0.7-0.1 1-0.3 0.7-0.4 1.2-1.2 1.2-2 0 0 0-1.6 0-2.7 2.7-0.7 4.7-3.1 4.7-5.9V24C48.5 20.6 45.7 17.9 42.4 17.9L42.4 17.9z"/></svg>
