<svg xmlns="http://www.w3.org/2000/svg" version="1.1" x="0" y="0" viewBox="0 0 52 52" xml:space="preserve"><path d="M33.1 7.2H18.6c-1.8 0-3.2 1.4-3.2 3.2V14h0v2h0v25.3c0 1.8 1.4 3.2 3.2 3.2h14.5c1.8 0 3.2-1.4 3.2-3.2V16v-2-3.6C36.3 8.6 34.9 7.2 33.1 7.2zM24.8 40.6c0-0.6 0.5-1.1 1.1-1.1 0.6 0 1.1 0.5 1.1 1.1 0 0.6-0.5 1.1-1.1 1.1C25.3 41.7 24.8 41.2 24.8 40.6zM34.3 36.7H17.4V16h16.9V36.7zM17.4 14v-3.6c0-0.6 0.5-1.2 1.2-1.2h14.5c0.6 0 1.2 0.5 1.2 1.2V14H17.4zM31.4 35.4c-0.5 0-0.9-0.4-0.9-0.9V21.3c0-0.5 0.4-0.9 0.9-0.9s0.9 0.4 0.9 0.9v13.3C32.2 35.1 31.8 35.4 31.4 35.4zM27.7 35.4c-0.5 0-0.9-0.4-0.9-0.9v-9.9c0-0.5 0.4-0.9 0.9-0.9s0.9 0.4 0.9 0.9v9.9C28.6 35 28.2 35.4 27.7 35.4zM20.4 35.4c-0.5 0-0.9-0.4-0.9-0.9v-3.4c0-0.5 0.4-0.9 0.9-0.9s0.9 0.4 0.9 0.9v3.4C21.2 35 20.9 35.4 20.4 35.4zM24 35.4c-0.5 0-0.9-0.4-0.9-0.9v-7c0-0.5 0.4-0.9 0.9-0.9s0.9 0.4 0.9 0.9v7C24.9 35 24.5 35.4 24 35.4z"/></svg>
