<svg xmlns="http://www.w3.org/2000/svg" version="1.1" x="0" y="0" viewBox="0 0 52 52" xml:space="preserve"><path d="M25.3 43.8c-10 0-18-8.1-18-18s8.1-18 18-18 18 8.1 18 18S35.2 43.8 25.3 43.8zM25.3 9.8c-8.8 0-16 7.2-16 16s7.2 16 16 16 16-7.2 16-16S34.1 9.8 25.3 9.8zM31 29.7c0-1.3-0.7-3.8-4.9-5.5v-4.7c0.7 0.3 1.3 0.8 1.4 1.6 0.2 0.7 0.8 1.1 1.5 0.9 0.7-0.2 1.1-0.8 0.9-1.5-0.4-1.8-2-3.2-3.9-3.6v-1c0-0.5-0.4-0.9-0.9-0.9s-0.9 0.4-0.9 0.9v1c-2.3 0.4-4 2.2-4 4.4 0 1.4 0.7 3.4 4 4.9v6c-1.2-0.3-2.1-1.2-2.4-2.3-0.1-0.7-0.8-1.1-1.5-0.9-0.7 0.2-1.1 0.8-0.9 1.5 0.5 2.3 2.5 4 4.8 4.3v0.9c0 0.5 0.4 0.9 0.9 0.9s0.9-0.4 0.9-0.9v-0.9C29.1 34.4 31 32.5 31 29.7zM22.9 21.3c0-0.9 0.6-1.6 1.5-1.8v3.9C23.5 22.9 22.9 22.2 22.9 21.3zM26.2 32.2V27c1.5 0.8 2.4 1.8 2.4 2.8C28.5 31.5 27.3 32 26.2 32.2z"/></svg>
