<svg xmlns="http://www.w3.org/2000/svg" version="1.1" x="0" y="0" viewBox="0 0 52 52" xml:space="preserve"><path d="M26.2 41.8c-3.8 0-6.8-3.1-6.8-6.8 0-3.8 3.1-6.8 6.8-6.8 3.8 0 6.8 3.1 6.8 6.8C33 38.8 30 41.8 26.2 41.8zM26.2 30.4c-2.5 0-4.6 2.1-4.6 4.6 0 2.5 2.1 4.6 4.6 4.6 2.5 0 4.6-2.1 4.6-4.6C30.8 32.5 28.8 30.4 26.2 30.4zM42.9 18.7c-0.3 0-0.6-0.1-0.8-0.3-4.2-4.2-9.9-6.6-15.9-6.6s-11.6 2.3-15.9 6.6c-0.4 0.4-1.1 0.4-1.6 0s-0.4-1.1 0-1.6c4.6-4.6 10.8-7.2 17.4-7.2 6.6 0 12.8 2.6 17.4 7.2 0.4 0.4 0.4 1.1 0 1.6C43.4 18.6 43.1 18.7 42.9 18.7zM38.8 23.2c-0.3 0-0.6-0.1-0.8-0.3-6.5-6.5-17-6.5-23.5 0-0.4 0.4-1.1 0.4-1.6 0s-0.4-1.1 0-1.6c7.3-7.3 19.3-7.3 26.6 0 0.4 0.4 0.4 1.1 0 1.6C39.3 23.1 39 23.2 38.8 23.2zM18.2 27.4c-0.3 0-0.6-0.1-0.8-0.3-0.4-0.4-0.4-1.1 0-1.6 2.3-2.3 5.5-3.6 8.8-3.6h0c3.3 0 6.4 1.3 8.8 3.6 0.4 0.4 0.4 1.1 0 1.6s-1.1 0.4-1.6 0c-1.9-1.9-4.5-3-7.2-3-2.7 0-5.3 1.1-7.2 3C18.8 27.3 18.5 27.4 18.2 27.4z"/></svg>
