<svg xmlns="http://www.w3.org/2000/svg" version="1.1" x="0" y="0" viewBox="0 0 52 52" xml:space="preserve"><path d="M29 25.2c0-2-1.7-3.7-3.7-3.7-2 0-3.7 1.7-3.7 3.7 0 1.7 1.2 3.2 2.8 3.6v11.2c0 0.5 0.4 1 1 1s1-0.4 1-1V28.7C27.8 28.3 29 26.9 29 25.2zM25.3 27c-1 0-1.8-0.8-1.8-1.8 0-1 0.8-1.8 1.8-1.8 1 0 1.8 0.8 1.8 1.8C27.1 26.2 26.3 27 25.3 27z"/><path d="M38.5 39.4c-0.2 0-0.5-0.1-0.7-0.3-0.4-0.4-0.4-0.9 0-1.3 3.3-3.3 5.1-7.7 5.1-12.3 0-4.7-1.8-9-5.1-12.3-0.4-0.4-0.4-0.9 0-1.3 0.4-0.4 0.9-0.4 1.3 0 3.6 3.6 5.7 8.5 5.7 13.7 0 5.2-2 10-5.7 13.7C39 39.3 38.7 39.4 38.5 39.4z" fill="#E31B23"/><path d="M35 36.2c-0.2 0-0.5-0.1-0.7-0.3-0.4-0.4-0.4-0.9 0-1.3 5-5 5-13.2 0-18.3C34 16 34 15.4 34.3 15c0.4-0.4 0.9-0.4 1.3 0 5.8 5.8 5.8 15.1 0 20.9C35.5 36.1 35.2 36.2 35 36.2z" fill="#E31B23"/><path d="M31.7 32.7c-0.2 0-0.5-0.1-0.7-0.3-0.4-0.4-0.4-0.9 0-1.3 1.5-1.5 2.3-3.5 2.3-5.6 0-2.1-0.8-4.1-2.3-5.6-0.4-0.4-0.4-0.9 0-1.3 0.4-0.4 0.9-0.4 1.3 0 1.8 1.8 2.9 4.3 2.9 6.9 0 2.6-1 5.1-2.9 6.9C32.2 32.6 31.9 32.7 31.7 32.7z" fill="#E31B23"/><path d="M12.1 39c-0.2 0-0.5-0.1-0.7-0.3-7.5-7.5-7.5-19.8 0-27.3 0.4-0.4 0.9-0.4 1.3 0 0.4 0.4 0.4 0.9 0 1.3-6.8 6.8-6.8 17.9 0 24.7 0.4 0.4 0.4 0.9 0 1.3C12.5 38.9 12.3 39 12.1 39z" fill="#E31B23"/><path d="M15.6 35.8c-0.2 0-0.5-0.1-0.7-0.3-2.8-2.8-4.3-6.5-4.3-10.4s1.5-7.7 4.3-10.4c0.4-0.4 0.9-0.4 1.3 0 0.4 0.4 0.4 0.9 0 1.3-2.4 2.4-3.8 5.7-3.8 9.1s1.3 6.7 3.8 9.1c0.4 0.4 0.4 0.9 0 1.3C16 35.7 15.8 35.8 15.6 35.8z" fill="#E31B23"/><path d="M18.9 32.3c-0.2 0-0.5-0.1-0.7-0.3-3.8-3.8-3.8-10 0-13.8 0.4-0.4 0.9-0.4 1.3 0s0.4 0.9 0 1.3c-3.1 3.1-3.1 8.1 0 11.2 0.4 0.4 0.4 0.9 0 1.3C19.3 32.2 19.1 32.3 18.9 32.3z" fill="#E31B23"/></svg>
