<svg xmlns="http://www.w3.org/2000/svg" version="1.1" x="0" y="0" viewBox="0 0 52 52" xml:space="preserve"><path d="M29.6 11.3H15.2c-1.7 0-3.2 1.4-3.2 3.2v3.5 2.1 25.1c0 1.7 1.4 3.2 3.2 3.2h14.4c1.7 0 3.2-1.4 3.2-3.2V20.2v-2.1 -3.5C32.8 12.8 31.4 11.3 29.6 11.3zM21.4 44.6c0-0.6 0.5-1.1 1.1-1.1 0.6 0 1.1 0.5 1.1 1.1 0 0.6-0.5 1.1-1.1 1.1C21.8 45.7 21.4 45.2 21.4 44.6zM30.7 40.7H14.2V20.2h16.5V40.7zM14.2 18.1v-3.5c0-0.6 0.5-1.1 1.1-1.1h14.4c0.6 0 1.1 0.5 1.1 1.1v3.5H14.2z" fill="#E31B23"/><path d="M38.3 4.8H23.9c-1.7 0-3.2 1.4-3.2 3.2v3.4h2.1V7.9c0-0.6 0.5-1.1 1.1-1.1h14.4c0.6 0 1.1 0.5 1.1 1.1v3.5h-8.9c1 0.3 1.9 1.1 2.2 2.1h6.7v20.6h-6.5v7.8h5.4c1.7 0 3.2-1.4 3.2-3.2V13.6v-2.1V7.9C41.4 6.2 40 4.8 38.3 4.8z"/></svg>
