<svg xmlns="http://www.w3.org/2000/svg" version="1.1" x="0" y="0" viewBox="0 0 52 52" xml:space="preserve">
<path d="M37 35.8c0.7-0.7 2.3-3 3.2-4.5 0.9-1.4 0.3-2.2-1-2.5 -1.3-0.3-1.4-0.6-2.3-1.3 -0.9-0.7-2.6-0.9-2.6-0.9 -1.6-0.4-2.3 2.2-1.9 3.5 0.3 1.3 1.7 1.7 2 2.4 0.3 0.6-0.2 3.2-0.3 4.1 -0.2 0.9-0.9 2.4 0 3.6 0.9 1.3 1.3 0.3 1.3 0.3 -0.8-0.5-0.6-1.2-0.3-2.3C35.3 37.1 36.2 36.5 37 35.8z" fill="#E31B23"/><path d="M4.8 17.4c0.8 0 1.8 0.1 2.5 0.1 3.1 0 6.2 0 9.4 0 1 0.4 2.7 0.4 3.5 1.3 0.2 0.2 0.6 1.4 0.6 1.4l0 0c0 0 0.1 0 0.1 0 0.3 0 0.5-0.6 0.7-0.6 0 0 0 0 0 0 1.5 0.2 2.8 0.5 4.4 0.5 0 0 0.1 0 0.1 0 0.2 0 2.4-0.5 3.5-0.5 0.3 0 0.5 0 0.6 0.2 0 0-1.6 1.9-1.7 2 -0.2 0.2 0.2 0.4 0.1 0.5 -0.2 0.1-0.6 0.1-0.7 0.2 -0.8 0.9-1.7 1.1-2 2.2 -0.3 0.8 0.3 0.9 0 1.5 -0.4 0.9-1.9 1.2-2.3 2 -0.3 0.5 0.6 4.3 0.2 4.3 -0.8 0-0.7-1.3-0.9-1.6 -0.5-0.9-0.2-0.5-0.8-1 -0.2-0.2-0.7-0.2-1.1-0.2 -0.3 0-0.5 0-0.7 0 -0.2 0-0.5 0.4-0.9 0.4 0 0 0 0-0.1 0 -0.5 0-0.9-0.5-1.4-0.5 0 0 0 0 0 0 -1.7 0.1-1.8 1.1-1.8 2.5 -0.7-0.3-1.8-2.5-2.5-2.5 -0.2 0-0.4 0.2-0.5 0.6 -0.9-0.8-0.8-1.3-1.9-1.6 -0.2-0.1-0.4-0.1-0.6-0.1 -0.3 0-0.7 0-1.1 0 -0.2 0-0.4 0-0.6 0C7 28.1 5.5 27.5 4.5 26c-0.8-1.1-1.2-2-1.3-3.4 -0.1-0.9 0.1-1.9 0-2.8 -0.1-0.4-0.5-1.6-0.4-1.8 0 0 0-0.1 0.1-0.1 0.2 0 0.5 0.4 0.7 0.4 0 0 0 0 0 0 0.2-0.2 0.1-0.8 0.2-0.9C4 17.4 4.4 17.4 4.8 17.4M4.8 15.7c-0.7 0-1.2 0.1-1.7 0.2 -0.3 0.1-0.6 0.3-0.8 0.5 -0.6 0.1-1.1 0.5-1.3 1.1 -0.3 0.7-0.1 1.3 0.2 2.1 0.1 0.2 0.1 0.4 0.2 0.5 0 0.3 0 0.7 0 1.1 0 0.5-0.1 1 0 1.5 0.1 1.8 0.8 3 1.6 4.2 1.4 2.1 3.5 2.8 5.3 3.2 0.3 0.1 0.6 0.1 0.9 0.1 0.2 0 0.4 0 0.6 0 0.1 0 0.3 0 0.4 0 0 0 0 0 0 0 0 0 0.1 0 0.1 0 0.2 0.1 0.2 0.1 0.4 0.3 0.2 0.2 0.5 0.6 0.9 0.9 0.3 0.3 0.7 0.4 1.2 0.4 0.1 0 0.3 0 0.4-0.1 0 0 0 0.1 0.1 0.1 0.6 0.8 1.1 1.5 1.9 1.8 0.2 0.1 0.4 0.1 0.6 0.1 0.3 0 0.7-0.1 1-0.3 0.5-0.3 0.8-0.9 0.8-1.4 0-0.4 0-0.6 0-0.7 0 0 0 0 0.1 0 0.3 0.2 0.8 0.4 1.5 0.4 0.1 0 0.2 0 0.2 0 0.5 0 0.9-0.3 1.2-0.4 0.1 0 0.1 0 0.2 0 0.1 0 0.2 0 0.3 0 0 0.1 0.1 0.1 0.1 0.2 0 0 0 0.1 0 0.1 0.4 2.1 1.6 2.5 2.5 2.5 0.5 0 1-0.2 1.4-0.6 0.7-0.8 0.5-1.7 0.3-3.5 0-0.3-0.1-0.8-0.1-1.2 0.1-0.1 0.2-0.1 0.3-0.2 0.6-0.4 1.4-0.9 1.9-1.8 0.4-0.8 0.3-1.5 0.1-1.9 0.1-0.1 0.2-0.3 0.6-0.5 0.2-0.1 0.4-0.3 0.6-0.5 0.3-0.1 0.6-0.2 0.9-0.4 0.4-0.3 0.6-0.8 0.6-1.3 0.1-0.1 0.2-0.3 0.4-0.4 0.9-1 1.8-2 1-3.1 -0.3-0.5-0.9-0.9-2-0.9 -0.8 0-1.9 0.2-3.1 0.4 -0.2 0-0.4 0.1-0.5 0.1h0c-1 0-1.9-0.1-2.8-0.3 -0.5-0.1-0.9-0.1-1.4-0.2 -0.1 0-0.1 0-0.2 0 -0.1-0.2-0.2-0.3-0.2-0.3 -0.9-0.9-2.2-1.2-3.2-1.4 -0.4-0.1-0.7-0.2-1-0.2 -0.2-0.1-0.4-0.1-0.6-0.1H7.3c-0.3 0-0.6 0-1-0.1C5.9 15.7 5.4 15.7 4.8 15.7L4.8 15.7z"/><path d="M30.4 26c0.5 1 1.2 1.4 1.3 1.1 0.1-0.3-0.6-1.6-1.3-2 -0.8-0.3-1.5 0-2-0.8 0 0 0 0 0 0 -0.1 0-0.1 0.1-0.2 0.1 -0.3 0.3-0.5 0.4-0.6 0.5 0 0.1 0.1 0.2 0.1 0.4 0.2 0.1 0.3 0.1 0.5 0.1C28.9 25.7 29.9 25 30.4 26zM33.3 9.1c-5.6 0-10.9 2.7-14.2 7.3 0.8 0.2 1.7 0.5 2.4 1.3 0 0 0.1 0.1 0.2 0.3 0.1 0 0.1 0 0.2 0 0.5 0.1 0.9 0.1 1.4 0.2 1 0.2 1.8 0.3 2.8 0.3h0c0.1 0 0.3-0.1 0.5-0.1 1.2-0.2 2.3-0.4 3.1-0.4 1.1 0 1.7 0.5 2 0.9 0.8 1.1 0 2.1-1 3.1 -0.1 0.1-0.2 0.3-0.4 0.4 0 0.1 0 0.2-0.1 0.3 0.4 0 0.7 0.2 0.8 0.3 0.2 0.3 0.5 0.8 0.9 0.7 0.3-0.1-0.3-0.8-0.2-1.7 0-0.9 1.9-2.5 3.5-4 1.6-1.4 0-2-2-3 -2-1-1.2 1.3-1.4 1.6 -0.3 0.3-1.6 0.3-2.6-0.3 -1-0.6-0.9-1.5 0.1-2.3 1-0.8 1.3-1.6 0.3-1.5 -0.8 0.1-2.4 0.4-3.5 0.4 1.6-0.9 3.4-1.4 5.3-1.6 0.5 0.5 1.1 1.2 1.2 1.3 0.3 0.8 1.2 1.7 1.7 1.4 0.5-0.3 1.4-0.9-0.7-2 -0.5-0.3-0.8-0.5-1-0.7 0 0 0 0-0.1-0.1 0.2 0 0.5 0 0.7 0 1 0 2 0.1 2.9 0.3 0.3 0.9 0.7 2.1 0.7 2.1 0.8 2.1 2 0.7 2.4-0.2 0-0.1 0.4-0.4 0.7-0.7 2.4 1.2 4.5 3 6 5.2 -0.3 0.5-0.7 1.3-0.5 2 0.2 0.9 1.2 0.9 1.1 1.6 -0.1 0.6-0.9-0.2-1.8 1.5 -0.9 1.7-0.5 4 0.9 4.2 1.1 0.1 2.5-0.4 3-0.6 0 0 0 0 0 0 0 8.5-6.9 15.4-15.4 15.4 -6.5 0-12.3-4.1-14.5-10.2 -0.4-0.1-0.8-0.2-1.1-0.4 0 0 0 0-0.1 0 0 0.1 0 0.3 0 0.7 0 0.5-0.2 0.9-0.5 1.2 2.7 6.4 9.1 10.8 16.1 10.8 9.7 0 17.5-7.9 17.5-17.5S42.9 9.1 33.3 9.1z" fill="#E31B23"/></svg>
