<svg xmlns="http://www.w3.org/2000/svg" version="1.1" x="0" y="0" viewBox="0 0 52 52" xml:space="preserve"><path d="M34.4 13.4c0-0.1-0.1-0.1-0.1-0.2 0 0-0.1-0.1-0.1-0.1 0 0-0.1-0.1-0.1-0.1-0.1 0-0.1-0.1-0.2-0.1-0.1-0.1-0.2-0.1-0.4-0.1H18.6c-0.1 0-0.3 0-0.4 0.1-0.1 0-0.1 0.1-0.2 0.1 0 0-0.1 0.1-0.1 0.1 0 0-0.1 0.1-0.1 0.1 0 0.1-0.1 0.1-0.1 0.2-0.1 0.1-0.1 0.2-0.1 0.4v3.1c0 0.6 0.5 1 1 1h0.1 14.7 0.1c0.5 0 1-0.4 1-1v-3.1C34.5 13.7 34.5 13.5 34.4 13.4z"/><circle cx="19.7" cy="24.7" r="1.9" fill="#E31B23"/><circle cx="19.7" cy="30.5" r="1.9" fill="#E31B23"/><circle cx="19.7" cy="36.3" r="1.9" fill="#E31B23"/><circle cx="26" cy="24.7" r="1.9" fill="#E31B23"/><circle cx="26" cy="30.5" r="1.9" fill="#E31B23"/><circle cx="26" cy="36.3" r="1.9" fill="#E31B23"/><circle cx="32.3" cy="24.7" r="1.9" fill="#E31B23"/><circle cx="32.3" cy="30.5" r="1.9" fill="#E31B23"/><circle cx="32.3" cy="36.3" r="1.9" fill="#E31B23"/><path d="M35.6 9.9c0.5 0 1 0.5 1 1V40c0 0.5-0.5 1-1 1H16.5c-0.5 0-1-0.5-1-1V10.9c0-0.5 0.5-1 1-1H35.6M35.6 7.9H16.5c-1.6 0-3 1.3-3 3V40c0 1.7 1.4 3 3 3h19.1c1.6 0 3-1.3 3-3V10.9C38.6 9.2 37.2 7.9 35.6 7.9L35.6 7.9z" fill="#E31B23"/></svg>
