<svg xmlns="http://www.w3.org/2000/svg" version="1.1" x="0" y="0" viewBox="0 0 52 52" xml:space="preserve"><path d="M32 15.4H18.3c-1.5 0-2.7 1.2-2.7 2.7v3.5 1.8 23.4c0 1.5 1.2 2.7 2.7 2.7H32c1.5 0 2.7-1.2 2.7-2.7V23.5v-1.8-3.5C34.7 16.7 33.5 15.4 32 15.4zM24.2 46c0-0.5 0.4-1 1-1 0.5 0 1 0.4 1 1 0 0.5-0.4 1-1 1C24.6 47 24.2 46.6 24.2 46zM32.9 42.5H17.4v-19h15.5V42.5zM17.4 21.7v-3.5c0-0.5 0.4-0.9 0.9-0.9H32c0.5 0 0.9 0.4 0.9 0.9v3.5H17.4zM30.2 41.3c-0.5 0-0.9-0.4-0.9-0.9V28.2c0-0.5 0.4-0.9 0.9-0.9s0.9 0.4 0.9 0.9v12.2C31.1 40.9 30.7 41.3 30.2 41.3zM26.9 41.2c-0.5 0-0.9-0.4-0.9-0.9v-9.1c0-0.5 0.4-0.9 0.9-0.9s0.9 0.4 0.9 0.9v9.1C27.7 40.8 27.3 41.2 26.9 41.2zM20.1 41.2c-0.5 0-0.9-0.4-0.9-0.9v-3.2c0-0.5 0.4-0.9 0.9-0.9s0.9 0.4 0.9 0.9v3.2C21 40.8 20.6 41.2 20.1 41.2zM23.5 41.2c-0.5 0-0.9-0.4-0.9-0.9v-6.4c0-0.5 0.4-0.9 0.9-0.9s0.9 0.4 0.9 0.9v6.4C24.4 40.8 24 41.2 23.5 41.2zM38.1 10.5c-0.2 0-0.5-0.1-0.6-0.3-6.7-6.7-17.6-6.7-24.3 0-0.4 0.4-0.9 0.4-1.3 0s-0.4-0.9 0-1.3c7.4-7.4 19.4-7.4 26.8 0 0.4 0.4 0.4 0.9 0 1.3C38.5 10.4 38.3 10.5 38.1 10.5zM34.9 14c-0.2 0-0.5-0.1-0.6-0.3-5-5-13-5-18 0-0.4 0.4-0.9 0.4-1.3 0s-0.4-0.9 0-1.3c5.7-5.7 14.9-5.7 20.5 0 0.4 0.4 0.4 0.9 0 1.3C35.4 13.9 35.1 14 34.9 14z"/></svg>
