<svg xmlns="http://www.w3.org/2000/svg" viewBox="0 0 50 50"><defs><style>.cls-1{fill:none;}.cls-2{fill:#231f20;}.cls-3{fill:#e21b23;}</style></defs><title>52_mvno</title><g id="Background"><rect class="cls-1" width="50" height="50"/></g><g id="Icon"><path class="cls-2" d="M13.21,17.26a.85.85,0,0,1-.62-.26,7,7,0,0,1-.1-9.9l.1-.1a.88.88,0,1,1,1.24,1.24,5.29,5.29,0,0,0,0,7.48h0a.87.87,0,0,1,0,1.24.86.86,0,0,1-.6.25Z"/><path class="cls-2" d="M10.8,20.86a.85.85,0,0,1-.62-.26,12,12,0,0,1,0-17l0,0a.88.88,0,0,1,1.24.11.87.87,0,0,1,0,1.13,10.3,10.3,0,0,0,0,14.56.87.87,0,0,1,0,1.24.86.86,0,0,1-.6.25Z"/><path class="cls-2" d="M28.82,10.74h1.76a12,12,0,0,0-3.43-7.17.88.88,0,0,0-1.24.11.87.87,0,0,0,0,1.13A10.25,10.25,0,0,1,28.82,10.74Z"/><path class="cls-2" d="M24.93,11.11a3,3,0,0,1,1.42-.37h.31A7,7,0,0,0,24.73,7a.88.88,0,0,0-1.24,1.24A5.15,5.15,0,0,1,24.93,11.11Z"/><path class="cls-3" d="M42.94,17.07h0V13.74a3,3,0,0,0-3-3H26.34a3,3,0,0,0-3,3V42.81a3,3,0,0,0,3,3h13.6a3,3,0,0,0,3-3V19.07h0Zm-16.6-4.33h13.6a1,1,0,0,1,1,1v3.33H25.34V13.74A1,1,0,0,1,26.34,12.74Zm6.8,30.41a1,1,0,1,1,1-1A1,1,0,0,1,33.14,43.15Zm7.8-4.67H25.34V19.07h15.6Z"/><path class="cls-2" d="M23.34,21.6l-1.81-6a1,1,0,0,0-.27-.42,4.12,4.12,0,1,0-5.79-.65,4.59,4.59,0,0,0,.53.55,1,1,0,0,0-.14.24L6.11,44.77A1,1,0,0,0,8,45.4H8l1.54-4.67L23.34,32ZM17.73,16a3.94,3.94,0,0,0,1.87,0,.49.49,0,0,0,0,.17l.74,2.48-4.51,3Zm-2.9,8.78L21,20.63l2.31,7.68-8.46-3.5Zm-4.29,13,3.65-11,8.36,3.46Z"/></g></svg>