<svg width="24" height="24" viewBox="0 0 24 24" fill="none" xmlns="http://www.w3.org/2000/svg">
<path fill-rule="evenodd" clip-rule="evenodd" d="M5.5875 22.4125C5.97917 22.8042 6.45 23 7 23H17C17.55 23 18.0208 22.8042 18.4125 22.4125C18.8042 22.0208 19 21.55 19 21V3C19 2.45 18.8042 1.97917 18.4125 1.5875C18.0208 1.19583 17.55 1 17 1H7C6.45 1 5.97917 1.19583 5.5875 1.5875C5.19583 1.97917 5 2.45 5 3V21C5 21.55 5.19583 22.0208 5.5875 22.4125ZM17 18H7V6H17V18ZM11.1207 13.7733C10.9483 13.8711 10.7314 13.92 10.4701 13.92H8.76874V10.08H10.3047C10.5785 10.08 10.7998 10.1351 10.9687 10.2453C11.1376 10.3538 11.2612 10.4907 11.3394 10.656C11.4176 10.8213 11.4567 10.9884 11.4567 11.1573C11.4567 11.3724 11.4078 11.5511 11.3101 11.6933C11.252 11.7794 11.1805 11.8482 11.0957 11.8998C11.2462 11.9603 11.3648 12.0533 11.4514 12.1787C11.5723 12.3511 11.6327 12.544 11.6327 12.7573C11.6327 12.9867 11.5901 13.1884 11.5047 13.3627C11.4212 13.5369 11.2932 13.6738 11.1207 13.7733ZM10.6754 12.32C10.6007 12.2773 10.5074 12.256 10.3954 12.256H9.50474V13.2373H10.3954C10.4932 13.2373 10.5803 13.2169 10.6567 13.176C10.7332 13.1333 10.7927 13.0747 10.8354 13C10.8798 12.9235 10.9021 12.8338 10.9021 12.7307C10.9021 12.64 10.8834 12.5591 10.8461 12.488C10.8087 12.4169 10.7518 12.3609 10.6754 12.32ZM10.6114 10.8773C10.5385 10.7973 10.4327 10.7573 10.2941 10.7573H9.50474V11.5787H10.2941C10.3758 11.5787 10.4487 11.5644 10.5127 11.536C10.5767 11.5075 10.6274 11.464 10.6647 11.4053C10.7021 11.3449 10.7207 11.2675 10.7207 11.1733C10.7207 11.056 10.6843 10.9573 10.6114 10.8773ZM14.4099 13.92L13.7792 12.6187H12.9699V13.92H12.2446V10.08H13.8659C13.9032 10.08 13.953 10.0818 14.0152 10.0853C14.0792 10.0871 14.1361 10.0924 14.1859 10.1013C14.4152 10.1369 14.6028 10.2124 14.7486 10.328C14.8961 10.4435 15.0046 10.5893 15.0739 10.7653C15.1432 10.9395 15.1779 11.1342 15.1779 11.3493C15.1779 11.6711 15.0979 11.9467 14.9379 12.176C14.8391 12.3165 14.7058 12.4237 14.5379 12.4978L15.2312 13.92H14.4099ZM13.9566 10.7627C13.9121 10.7591 13.8712 10.7573 13.8339 10.7573H12.9699V11.9413H13.8339C13.8712 11.9413 13.9121 11.9395 13.9566 11.936C14.001 11.9324 14.0419 11.9253 14.0792 11.9147C14.177 11.888 14.2526 11.8435 14.3059 11.7813C14.3592 11.7173 14.3957 11.6471 14.4152 11.5707C14.4366 11.4924 14.4472 11.4187 14.4472 11.3493C14.4472 11.28 14.4366 11.2071 14.4152 11.1307C14.3957 11.0524 14.3592 10.9822 14.3059 10.92C14.2526 10.856 14.177 10.8107 14.0792 10.784C14.0419 10.7733 14.001 10.7662 13.9566 10.7627Z" fill="black"/>
</svg>
