<svg width="24" height="24" viewBox="0 0 24 24" fill="none" xmlns="http://www.w3.org/2000/svg">
<path d="M21 5H13.618L13.17 4.105C12.831 3.428 12.139 3 11.382 3H3C1.895 3 1 3.895 1 5V19C1 20.105 1.895 21 3 21H4C4.552 21 5 20.552 5 20V19C5 18.448 5.448 18 6 18C6.552 18 7 18.448 7 19V20C7 20.552 7.448 21 8 21H16C16.552 21 17 20.552 17 20V19C17 18.448 17.448 18 18 18C18.552 18 19 18.448 19 19V20C19 20.552 19.448 21 20 21H21C22.105 21 23 20.105 23 19V7C23 5.895 22.105 5 21 5ZM16.962 15.772C16.754 16.355 15.735 16.917 15.277 16.958C14.819 17 14.39 17.165 12.282 16.334C9.745 15.334 8.143 12.733 8.019 12.567C7.894 12.4 7 11.214 7 9.986C7 8.758 7.645 8.154 7.874 7.905C8.103 7.655 8.373 7.593 8.54 7.593C8.706 7.593 8.873 7.593 9.018 7.599C9.196 7.606 9.393 7.615 9.58 8.03C9.802 8.524 10.287 9.758 10.349 9.883C10.411 10.008 10.453 10.154 10.37 10.32C10.287 10.486 10.245 10.59 10.121 10.736C9.996 10.882 9.859 11.061 9.747 11.173C9.622 11.297 9.492 11.433 9.637 11.682C9.783 11.932 10.283 12.749 11.025 13.41C11.979 14.26 12.782 14.523 13.032 14.649C13.282 14.774 13.427 14.753 13.573 14.586C13.719 14.42 14.197 13.858 14.363 13.608C14.529 13.358 14.696 13.4 14.925 13.483C15.154 13.566 16.381 14.17 16.63 14.295C16.88 14.42 17.046 14.482 17.108 14.586C17.17 14.689 17.17 15.189 16.962 15.772Z" fill="black"/>
</svg>
