<svg width="24" height="24" viewBox="0 0 24 24" fill="none" xmlns="http://www.w3.org/2000/svg">
<path d="M5.02931 3.00977C3.89931 3.00977 2.95931 3.95008 3.02931 5.08008C3.29431 9.34908 5.13367 13.1883 7.97267 16.0273C10.8117 18.8663 14.6509 20.7057 18.9199 20.9707C20.0499 21.0407 20.9902 20.1007 20.9902 18.9707V17.2402C20.9902 16.2202 20.2307 15.37 19.2207 15.25L16.6992 14.9609C16.0892 14.8909 15.4906 15.0993 15.0606 15.5293L13.2109 17.3809C11.7919 16.6609 10.5046 15.7204 9.39259 14.6074C8.27959 13.4954 7.33915 12.2081 6.61915 10.7891L8.47071 8.93945C8.90071 8.50945 9.10907 7.91078 9.03907 7.30078L8.75001 4.7793C8.63001 3.7693 7.77978 3.00977 6.75978 3.00977H5.02931ZM13.3652 4.50781C13.2636 4.52547 13.1626 4.5737 13.0781 4.6582L11.1563 6.58008C10.9473 6.79008 10.9473 7.12984 11.1563 7.33984L13.0781 9.26172C13.4161 9.59972 13.9942 9.36081 13.9942 8.88281V8H18.0059V8.88281C18.0059 9.36081 18.5839 9.59972 18.9219 9.26172L20.8438 7.33984C21.0528 7.12984 21.0528 6.79008 20.8438 6.58008L18.9219 4.6582C18.5839 4.3202 18.0059 4.55911 18.0059 5.03711V6H13.9942V5.03711C13.9942 4.67861 13.6701 4.45484 13.3652 4.50781Z" fill="black"/>
</svg>
