<svg width="24" height="24" viewBox="0 0 24 24" fill="none" xmlns="http://www.w3.org/2000/svg">
<path fill-rule="evenodd" clip-rule="evenodd" d="M13.7955 15.5952H13.6491V16.0656C13.692 16.0754 13.7364 16.0754 13.7792 16.0656C13.8098 16.067 13.8404 16.0616 13.8687 16.0496C13.8971 16.0376 13.9226 16.0194 13.9435 15.9962C13.9644 15.9731 13.9801 15.9455 13.9897 15.9154C13.9992 15.8853 14.0023 15.8534 13.9987 15.822C14.0039 15.7925 14.0024 15.7621 13.9943 15.7334C13.9862 15.7046 13.9717 15.6781 13.952 15.6561C13.9322 15.6341 13.9078 15.6171 13.8807 15.6066C13.8535 15.596 13.8243 15.5921 13.7955 15.5952ZM13.9499 14.856C13.9533 14.8288 13.9513 14.8013 13.9441 14.7749C13.9368 14.7486 13.9244 14.7241 13.9077 14.7029C13.8909 14.6817 13.8702 14.6642 13.8467 14.6515C13.8232 14.6388 13.7975 14.6313 13.7711 14.6292H13.6572V15.0828H13.7792C13.8768 15.0996 13.9499 15.0408 13.9499 14.856ZM20.3648 5.4312V4.776L19.69 4.6668C14.2264 3.6924 12.5515 2.088 12.5434 2.0796L11.9743 1.5L11.397 2.0712C11.397 2.0712 9.7059 3.6924 4.24231 4.6668L3.61627 4.776V5.4312C3.61627 6.1704 3.24228 12.6888 3.83579 14.8224C4.37239 16.3764 6.47002 18.3084 8.71399 20.358L9.1449 20.7696C9.93355 21.66 10.8604 22.5 11.9661 22.5C13.0719 22.5 13.9825 21.66 14.8687 20.7696L15.2996 20.358C17.5192 18.3084 19.6087 16.3764 20.1778 14.772C20.7388 12.6972 20.4054 6.1704 20.3648 5.4312ZM9.93355 19.35L9.71403 19.14C8.81969 18.3 7.86844 17.46 7.0798 16.62H7.89283C8.08172 16.8813 8.32713 17.0933 8.60947 17.2392C8.8918 17.385 9.20324 17.4607 9.5189 17.46H9.93355V19.35ZM9.20995 16.0992C9.27811 16.0968 9.34506 16.0799 9.40661 16.0495C9.46816 16.0192 9.523 15.976 9.56768 15.9228L9.71403 16.3428C9.65358 16.4317 9.57319 16.5041 9.47973 16.5538C9.38628 16.6035 9.28255 16.6291 9.17742 16.6284C9.0378 16.6084 8.90362 16.559 8.78316 16.4833C8.6627 16.4077 8.55851 16.3074 8.47701 16.1885C8.3955 16.0697 8.33842 15.9349 8.30926 15.7924C8.28011 15.6499 8.2795 15.5027 8.30748 15.36C8.27948 15.2184 8.27986 15.0723 8.3086 14.9308C8.33733 14.7893 8.39382 14.6554 8.47457 14.5374C8.55532 14.4193 8.65862 14.3196 8.7781 14.2444C8.89759 14.1692 9.03072 14.12 9.16929 14.1C9.26648 14.0987 9.36263 14.1208 9.45013 14.1645C9.53762 14.2083 9.61405 14.2724 9.67338 14.352L9.50264 14.772C9.41507 14.6783 9.29532 14.624 9.16929 14.6208C9.09074 14.6356 9.01596 14.6669 8.94953 14.7126C8.88311 14.7584 8.82645 14.8177 8.78304 14.887C8.73963 14.9562 8.71039 15.0339 8.69712 15.1152C8.68385 15.1966 8.68682 15.2799 8.70586 15.36C8.69072 15.4429 8.69183 15.528 8.70913 15.6104C8.72642 15.6928 8.75956 15.7708 8.80657 15.8398C8.85358 15.9087 8.9135 15.9672 8.98279 16.0117C9.05208 16.0563 9.12932 16.086 9.20995 16.0992ZM11.1206 16.62H9.93355V14.1H10.4539V16.158H11.1287V16.62H11.1206ZM12.6572 15.7044C12.6797 15.8107 12.6797 15.9207 12.6572 16.0269C12.6347 16.1332 12.5903 16.2332 12.5271 16.3201C12.4638 16.407 12.3831 16.4788 12.2905 16.5306C12.1979 16.5823 12.0956 16.6128 11.9905 16.62C11.8802 16.6163 11.772 16.5877 11.6736 16.5362C11.5751 16.4847 11.4888 16.4115 11.4206 16.3219C11.3524 16.2322 11.304 16.1282 11.2789 16.0172C11.2538 15.9062 11.2524 15.7908 11.2751 15.6792V14.1H11.649V15.5784C11.649 15.9144 11.7304 16.1664 11.9905 16.1664C12.2507 16.1664 12.2913 15.948 12.2913 15.6036V14.1H12.6653V15.7044H12.6572ZM13.1857 16.62V14.1H13.7711C13.8491 14.0955 13.9271 14.1089 13.9995 14.1393C14.0719 14.1697 14.1369 14.2163 14.1898 14.2757C14.2427 14.3352 14.2821 14.406 14.3053 14.4831C14.3285 14.5602 14.3349 14.6417 14.3239 14.7216C14.3321 14.8224 14.3196 14.9238 14.2874 15.0193C14.2552 15.1148 14.2039 15.2023 14.1369 15.276C14.2219 15.3409 14.2885 15.4281 14.33 15.5285C14.3714 15.6289 14.3862 15.7389 14.3727 15.8472C14.3881 15.9412 14.3834 16.0376 14.359 16.1295C14.3347 16.2215 14.2911 16.3068 14.2315 16.3796C14.1719 16.4524 14.0976 16.5109 14.0139 16.5509C13.9302 16.591 13.839 16.6117 13.7467 16.6116C13.5922 16.62 13.2832 16.62 13.1857 16.62ZM14.2182 19.14L13.9987 19.35V17.46H14.4052C14.7209 17.4607 15.0323 17.385 15.3147 17.2392C15.597 17.0933 15.8424 16.8813 16.0313 16.62H16.8443C16.0557 17.46 15.1126 18.3 14.2182 19.14ZM14.8117 14.2764V14.1H15.4703V14.2764H15.2345V14.94H15.0475V14.2764H14.8117ZM18.633 14.2764C18.2441 15.0783 17.7148 15.7988 17.072 16.4016L16.4378 15.6204C16.4431 15.5337 16.4431 15.4467 16.4378 15.36C16.4431 15.2733 16.4431 15.1863 16.4378 15.0996L17.2509 14.1H16.4378V14.94H16.259V14.4024L16.0394 14.73L15.8199 14.4024V14.94H15.6248V14.1H15.7874L16.0313 14.4528L16.2671 14.1H16.0232C15.8343 13.8387 15.5889 13.6267 15.3065 13.4808C15.0242 13.335 14.7128 13.2593 14.3971 13.26H9.5189C9.20324 13.2593 8.8918 13.335 8.60947 13.4808C8.32713 13.6267 8.08172 13.8387 7.89283 14.1H6.68141L7.49444 15.0996C7.48915 15.1863 7.48915 15.2733 7.49444 15.36C7.48915 15.4467 7.48915 15.5337 7.49444 15.6204L6.83589 16.4016C6.2027 15.8132 5.67915 15.11 5.29112 14.3268C4.909 12.9408 5.01469 8.4468 5.11225 6.1704C5.86838 6.0276 9.28312 5.0532 9.93355 4.776V5.7H13.9987V4.776C15.5462 5.40399 17.1504 5.8711 18.7875 6.1704C18.8769 8.4468 18.9989 12.9324 18.633 14.2764ZM10.3645 9.3204C10.6232 9.22074 10.8453 9.04006 10.9998 8.80362C11.1543 8.56718 11.2335 8.28679 11.2263 8.0016C11.2263 7.1616 10.6815 6.5652 9.23434 6.5652C8.63269 6.54 7.82779 6.54 7.49444 6.54V12.42C7.85218 12.42 8.62456 12.42 9.17742 12.42C10.4539 12.42 11.4214 11.874 11.4214 10.6728C11.4339 10.3533 11.3335 10.04 11.1391 9.79123C10.9447 9.54246 10.6694 9.37513 10.3645 9.3204ZM8.47822 7.5228C8.66521 7.5228 8.9823 7.5228 9.22621 7.5228C9.33314 7.50237 9.44296 7.50431 9.54915 7.52851C9.65534 7.55271 9.75576 7.59867 9.84446 7.66368C9.93315 7.72869 10.0083 7.81142 10.0655 7.90698C10.1227 8.00253 10.1608 8.10897 10.1775 8.22C10.1694 8.33278 10.1394 8.44272 10.0892 8.54322C10.039 8.64372 9.96973 8.73273 9.88545 8.80489C9.80118 8.87705 9.70367 8.93089 9.59877 8.96318C9.49388 8.99547 9.38375 9.00555 9.27499 8.9928H8.46195V7.5228H8.47822ZM9.29125 11.4624C8.99043 11.4624 8.65708 11.4624 8.47822 11.4624V9.9H9.29125C9.95794 9.9 10.3482 10.152 10.3482 10.6392C10.3482 11.1264 9.9742 11.4624 9.25873 11.4624H9.29125ZM16.4378 8.346C16.4378 7.338 15.8606 6.54 14.2101 6.54H12.3726V12.42H13.3564V10.2276H14.1695L15.8443 12.42H17.1289L15.2345 10.026C15.5893 9.92755 15.9013 9.70791 16.1198 9.40285C16.3383 9.09779 16.4504 8.72528 16.4378 8.346ZM14.1288 9.2616H13.3564V7.5228H14.1695C15.0313 7.5228 15.2914 7.9176 15.2914 8.3628C15.2769 8.50275 15.2345 8.63809 15.1671 8.7604C15.0997 8.8827 15.0086 8.98934 14.8995 9.07367C14.7904 9.158 14.6657 9.21821 14.5331 9.25054C14.4005 9.28287 14.2629 9.28664 14.1288 9.2616Z" fill="black"/>
</svg>
