<svg width="24" height="24" viewBox="0 0 24 24" fill="none" xmlns="http://www.w3.org/2000/svg">
<path d="M10 2C9.621 2 9.27075 2.11192 8.96875 2.29492C9.09575 2.36192 9.21703 2.43739 9.33203 2.52539C10.157 3.16239 10.6835 4.049 10.8945 5H17C17.552 5 18 5.448 18 6H20V4C20 2.895 19.105 2 18 2H10ZM7.76367 4.00391C7.64255 4.01291 7.52359 4.0647 7.43359 4.1582L3.33789 8.56055C2.47689 9.48555 2 10.7018 2 11.9668V18C2 19.105 2.895 20 4 20H6V11.7246L8.67578 7.08789C9.27078 6.09489 9.02733 4.81537 8.11133 4.10938C8.00883 4.02988 7.8848 3.99491 7.76367 4.00391ZM18 7C17.448 7 17 7.448 17 8C17 8.552 17.448 9 18 9H20C20.552 9 21 8.552 21 8C21 7.448 20.552 7 20 7H18ZM10 8.79492L8 12.2598V20C8 21.105 8.895 22 10 22H18C19.105 22 20 21.105 20 20V19H18H13H11C10.448 19 10 18.552 10 18V8.79492ZM17 10C16.448 10 16 10.448 16 11C16 11.552 16.448 12 17 12H21C21.552 12 22 11.552 22 11C22 10.448 21.552 10 21 10H17ZM17 13C16.448 13 16 13.448 16 14C16 14.552 16.448 15 17 15H21C21.552 15 22 14.552 22 14C22 13.448 21.552 13 21 13H17ZM18 16C17.448 16 17 16.448 17 17C17 17.552 17.448 18 18 18H20C20.552 18 21 17.552 21 17C21 16.448 20.552 16 20 16H18Z" fill="black"/>
</svg>
