<svg width="24" height="24" viewBox="0 0 24 24" fill="none" xmlns="http://www.w3.org/2000/svg">
<path fill-rule="evenodd" clip-rule="evenodd" d="M8.17409 2.54816C8.36984 2.17917 8.75928 1.97641 9.1526 2.00129C9.28371 2.00959 9.41432 2.04355 9.53932 2.1048L12.0003 3.30597L14.4612 2.1048C14.9612 1.85981 15.5645 2.05716 15.8245 2.54816L17.1077 4.96613L19.8049 5.43879C20.3539 5.5358 20.7286 6.04889 20.6507 6.60089L20.2678 9.31183L22.1721 11.2806C22.5591 11.6816 22.5591 12.3181 22.1741 12.7181L20.2698 14.6849L20.6526 17.3958C20.7306 17.9478 20.3559 18.4639 19.8069 18.5599L17.1096 19.0325L15.8264 21.4505C15.5644 21.9425 14.9622 22.1389 14.4612 21.8939L12.0003 20.6927L9.54128 21.8958C9.04027 22.1408 8.43509 21.9425 8.17409 21.4505L6.89088 19.0325L4.19362 18.5599C3.64462 18.4629 3.27187 17.9498 3.34987 17.3978L3.73268 14.6868L1.82838 12.7181C1.44038 12.3171 1.44038 11.6816 1.82838 11.2806L3.73268 9.31379L3.34987 6.60285C3.27187 6.05085 3.64462 5.53675 4.19362 5.44074L6.89088 4.96808L8.17409 2.54816ZM12.5257 17.6378V16.8783C12.8363 16.8401 14.5894 16.5486 14.5894 14.4181C14.5894 12.7661 13.5897 12.2176 12.7128 11.7365C12.0277 11.3607 11.4175 11.0259 11.4175 10.2381C11.4175 9.20151 11.9859 9.17286 12.1101 9.17286C12.2869 9.17286 12.6738 9.29227 12.8076 9.98972C12.884 10.3575 13.1754 10.6203 13.5433 10.6203H13.7821C14.2694 10.6203 14.6181 10.1712 14.5082 9.7031C14.1595 8.1171 12.9079 7.83527 12.6643 7.78748V6.90851C12.6643 6.65055 12.4493 6.44992 12.2057 6.44992H12.1961C11.9382 6.44992 11.7375 6.65055 11.7375 6.90851V7.75882C11.4222 7.79703 9.68339 8.12665 9.68339 10.2286C9.68339 11.9137 10.644 12.3966 11.508 12.8309C12.2139 13.1858 12.8554 13.5082 12.8554 14.4276C12.8554 15.4547 12.1961 15.4738 12.0576 15.4738L12.0417 15.474C11.9046 15.4768 11.334 15.4884 11.1786 14.5471C11.1117 14.2079 10.7917 13.9786 10.4525 13.9786H10.2041C9.75504 13.9786 9.38721 14.3846 9.46842 14.8337C9.82573 16.6249 11.2648 16.8294 11.5834 16.8746L11.6085 16.8783V17.6378C11.6085 17.8958 11.8092 18.0964 12.0671 18.0964C12.3251 18.0964 12.5257 17.8958 12.5257 17.6378Z" fill="black"/>
</svg>
