<svg width="24" height="24" viewBox="0 0 24 24" fill="none" xmlns="http://www.w3.org/2000/svg">
<path fill-rule="evenodd" clip-rule="evenodd" d="M15.2392 10.0404C15.5637 10.3848 15.9704 10.618 16.4592 10.74V11.9039H17.601V10.7662C18.1299 10.6703 18.5706 10.448 18.9231 10.0993C19.2757 9.75054 19.452 9.24926 19.452 8.5954C19.452 8.03745 19.2957 7.55795 18.9832 7.15692C18.6707 6.75589 18.222 6.45948 17.6371 6.26768C17.0121 6.06717 16.6094 5.89717 16.4291 5.75768C16.4066 5.74024 16.3854 5.72213 16.3657 5.70333C16.2277 5.57174 16.1587 5.40678 16.1587 5.20844C16.1587 5.03408 16.2248 4.88805 16.357 4.77036C16.4892 4.65267 16.7036 4.59382 17 4.59382C17.2805 4.59382 17.5109 4.66792 17.6911 4.81613C17.8714 4.96434 18.0056 5.16921 18.0938 5.43075L19.3077 4.88152C19.2992 4.85482 19.2904 4.8284 19.2813 4.80226C19.1449 4.4102 18.9434 4.08136 18.6767 3.81573C18.3923 3.5324 18.0337 3.33842 17.601 3.2338V2.0961H16.4592V3.2338C16.0024 3.3297 15.6158 3.55637 15.2993 3.91381C14.9828 4.27125 14.8245 4.71587 14.8245 5.24767C14.8245 5.75332 14.9607 6.18922 15.2332 6.55538C15.5056 6.92154 15.9704 7.21359 16.6274 7.43154C17.2524 7.63206 17.6571 7.8195 17.8414 7.99386C18.0257 8.16822 18.1178 8.37745 18.1178 8.62156C18.1178 8.8831 18.0297 9.07489 17.8534 9.19695C17.6771 9.319 17.4367 9.38003 17.1322 9.38003C16.7957 9.38003 16.5152 9.27977 16.2909 9.07925C16.0665 8.87874 15.8983 8.55181 15.7861 8.09847L14.5481 8.60848C14.6843 9.21874 14.9147 9.69606 15.2392 10.0404ZM19.22 15.25L16.7 14.96C16.09 14.89 15.49 15.1 15.06 15.53L13.21 17.38C11.791 16.66 10.504 15.721 9.39204 14.608C8.27904 13.496 7.34004 12.209 6.62004 10.79L8.47004 8.94001C8.90004 8.51001 9.11004 7.91001 9.04004 7.30001L8.75004 4.78001C8.63004 3.77001 7.78004 3.01001 6.76004 3.01001H5.03004C3.90004 3.01001 2.96004 3.95001 3.03004 5.08001C3.29504 9.34901 5.13404 13.188 7.97304 16.027C10.812 18.866 14.651 20.705 18.92 20.97C20.05 21.04 20.99 20.1 20.99 18.97V17.24C20.99 16.22 20.23 15.37 19.22 15.25Z" fill="black"/>
</svg>
