<svg width="24" height="24" viewBox="0 0 24 24" fill="none" xmlns="http://www.w3.org/2000/svg">
<g id="Mobile Recharges">
<path id="Vector" d="M7 1C5.895 1 5 1.895 5 3V21C5 22.105 5.895 23 7 23H17C18.105 23 19 22.105 19 21V3C19 1.895 18.105 1 17 1H7ZM8 4H16C16.552 4 17 4.448 17 5V19C17 19.552 16.552 20 16 20H8C7.448 20 7 19.552 7 19V5C7 4.448 7.448 4 8 4ZM12.2148 5.59961C11.9378 5.59961 11.7129 5.82456 11.7129 6.10156V7.0293C11.3739 7.0723 9.47656 7.42875 9.47656 9.71875C9.47656 13.0598 12.9355 12.0718 12.9355 14.3008C12.9355 15.4168 12.2134 15.4434 12.0664 15.4434C11.9514 15.4434 11.2886 15.4946 11.1016 14.4336C11.0366 14.0626 10.6885 13.8066 10.3105 13.8066H10.0488C9.55383 13.8066 9.15109 14.2513 9.24609 14.7363C9.64109 16.7503 11.2983 16.9327 11.5723 16.9707V17.8008C11.5723 18.0778 11.7972 18.3008 12.0742 18.3008C12.3512 18.3008 12.5742 18.0778 12.5742 17.8008V16.9707C12.9122 16.9287 14.8242 16.6132 14.8242 14.2852C14.8242 11.0802 11.3662 11.6936 11.3672 9.72656C11.3672 8.59956 11.9871 8.56445 12.1211 8.56445C12.3171 8.56445 12.7297 8.70489 12.8867 9.46289C12.9677 9.85689 13.2855 10.1543 13.6875 10.1543H13.9453C14.4693 10.1543 14.8503 9.66044 14.7363 9.14844C14.3513 7.41544 12.9967 7.10964 12.7227 7.05664V6.10156C12.7227 5.82456 12.4977 5.59961 12.2207 5.59961H12.2148Z" fill="#696C80"/>
</g>
</svg>
