<svg width="24" height="24" viewBox="0 0 24 24" fill="none" xmlns="http://www.w3.org/2000/svg">
<path d="M4 20C3.45 20 2.97917 19.8042 2.5875 19.4125C2.19583 19.0208 2 18.55 2 18V6C2 5.45 2.19583 4.97917 2.5875 4.5875C2.97917 4.19583 3.45 4 4 4H9.175C9.44167 4 9.69583 4.05 9.9375 4.15C10.1792 4.25 10.3917 4.39167 10.575 4.575L12 6H20C20.55 6 21.0208 6.19583 21.4125 6.5875C21.8042 6.97917 22 7.45 22 8H6C5.45 8 4.97917 8.19583 4.5875 8.5875C4.19583 8.97917 4 9.45 4 10V18L5.975 11.425C6.10833 10.9917 6.35417 10.6458 6.7125 10.3875C7.07083 10.1292 7.46667 10 7.9 10H20.8C21.4833 10 22.0208 10.2708 22.4125 10.8125C22.8042 11.3542 22.9083 11.9417 22.725 12.575L20.925 18.575C20.7917 19.0083 20.5458 19.3542 20.1875 19.6125C19.8292 19.8708 19.4333 20 19 20H4Z" fill="black"/>
</svg>
