<svg width="24" height="24" viewBox="0 0 24 24" fill="none" xmlns="http://www.w3.org/2000/svg">
<g id="Hard Card">
<path id="Subtract" fill-rule="evenodd" clip-rule="evenodd" d="M11.4031 18.4531L14.9244 21.9744C14.9385 21.9885 14.9615 21.9885 14.9756 21.9744L21.2999 15.6501C21.6885 15.2615 21.694 14.6331 21.3123 14.2377C20.9209 13.8324 20.2733 13.8267 19.8749 14.2251L14.95 19.15L12.803 17.0407C12.4138 16.6583 11.789 16.661 11.4031 17.0469C11.0148 17.4352 11.0148 18.0648 11.4031 18.4531ZM2.5875 4.5875C2.19583 4.97917 2 5.45 2 6V18C2 18.55 2.19583 19.0208 2.5875 19.4125C2.97917 19.8042 3.45 20 4 20H7.1C7.65228 20 8.1 19.5523 8.1 19V18V17.75L11.4184 14.2461C11.8055 13.8374 12.4535 13.8285 12.8516 14.2266L14.2429 15.6179C14.6334 16.0084 15.2666 16.0084 15.6571 15.6179L19.275 12H21C21.5523 12 22 11.5523 22 11V6C22 5.45 21.8042 4.97917 21.4125 4.5875C21.0208 4.19583 20.55 4 20 4H4C3.45 4 2.97917 4.19583 2.5875 4.5875ZM11.8135 9.43361C11.9936 9.10022 12.0837 8.6959 12.0837 8.22064C12.0837 7.74538 11.9936 7.34105 11.8135 7.00766C11.6347 6.67427 11.3907 6.42032 11.0814 6.24583C10.7736 6.06991 10.4274 5.98195 10.0429 5.98195C9.65564 5.98195 9.30806 6.06991 9.00021 6.24583C8.69236 6.42032 8.44905 6.67427 8.2703 7.00766C8.09154 7.34105 8.00216 7.74538 8.00216 8.22064C8.00216 8.69448 8.09154 9.09809 8.2703 9.43149C8.44905 9.76488 8.69236 10.0195 9.00021 10.1954C9.30806 10.3714 9.65564 10.4593 10.0429 10.4593C10.4274 10.4593 10.7736 10.3721 11.0814 10.1976C11.3907 10.0217 11.6347 9.76701 11.8135 9.43361ZM11.0112 7.44178C11.1034 7.65316 11.1495 7.91278 11.1495 8.22064C11.1495 8.52849 11.1034 8.78811 11.0112 8.9995C10.9204 9.21088 10.792 9.37119 10.626 9.48043C10.46 9.58967 10.2657 9.64429 10.0429 9.64429C9.82021 9.64429 9.62585 9.58967 9.45986 9.48043C9.29388 9.37119 9.16478 9.21088 9.07256 8.9995C8.98177 8.78811 8.93637 8.52849 8.93637 8.22064C8.93637 7.91278 8.98177 7.65316 9.07256 7.44178C9.16478 7.23039 9.29388 7.07008 9.45986 6.96084C9.62585 6.8516 9.82021 6.79698 10.0429 6.79698C10.2657 6.79698 10.46 6.8516 10.626 6.96084C10.792 7.07008 10.9204 7.23039 11.0112 7.44178ZM4.11691 6.04153V10.3997H5.97894C6.30524 10.3997 6.57975 10.3472 6.80249 10.2423C7.02522 10.1373 7.19334 9.99471 7.30683 9.81453C7.42174 9.63294 7.4792 9.42652 7.4792 9.19528C7.4792 8.98105 7.4338 8.79662 7.34301 8.64199C7.25221 8.48593 7.13375 8.36463 6.98763 8.27809C6.84292 8.19155 6.68757 8.14474 6.52159 8.13764V8.09508C6.67339 8.06103 6.80816 8.00358 6.92591 7.92271C7.04508 7.84043 7.13872 7.73545 7.20681 7.60776C7.27491 7.47866 7.30896 7.32899 7.30896 7.15875C7.30896 6.94027 7.25505 6.74733 7.14723 6.57993C7.03941 6.4111 6.87839 6.27916 6.66417 6.18411C6.44994 6.08906 6.18252 6.04153 5.8619 6.04153H4.11691ZM5.78954 9.64642H5.03835V8.48877H5.81082C5.95837 8.48877 6.08534 8.51501 6.19174 8.56751C6.29956 8.62 6.38256 8.69235 6.44072 8.78456C6.49889 8.87678 6.52797 8.98318 6.52797 9.10377C6.52797 9.26834 6.4691 9.40028 6.35134 9.49958C6.23359 9.59747 6.04633 9.64642 5.78954 9.64642ZM5.72145 7.86526H5.03835V6.78634H5.73847C5.94276 6.78634 6.10024 6.83458 6.21089 6.93105C6.32297 7.02752 6.37901 7.15449 6.37901 7.31197C6.37901 7.42688 6.34993 7.52548 6.29176 7.60776C6.23501 7.69005 6.15698 7.75389 6.05768 7.79929C5.95979 7.84327 5.84771 7.86526 5.72145 7.86526ZM15.1305 7.29494C15.1135 7.12328 15.0404 6.98993 14.9113 6.89487C14.7822 6.79982 14.607 6.7523 14.3857 6.7523C14.2353 6.7523 14.1084 6.77358 14.0048 6.81614C13.9012 6.85728 13.8218 6.91474 13.7665 6.98851C13.7126 7.06228 13.6856 7.14598 13.6856 7.23961C13.6828 7.31764 13.6991 7.38574 13.7345 7.44391C13.7714 7.50207 13.8218 7.55244 13.8856 7.595C13.9495 7.63614 14.0232 7.67231 14.107 7.70353C14.1907 7.73332 14.28 7.75885 14.3751 7.78013L14.7666 7.87377C14.9567 7.91633 15.1312 7.97308 15.2901 8.04401C15.449 8.11494 15.5866 8.20219 15.703 8.30576C15.8193 8.40932 15.9094 8.53133 15.9732 8.67178C16.0385 8.81223 16.0718 8.97325 16.0733 9.15484C16.0718 9.42156 16.0037 9.6528 15.869 9.84858C15.7356 10.0429 15.5427 10.194 15.2901 10.3019C15.039 10.4083 14.7361 10.4615 14.3815 10.4615C14.0296 10.4615 13.7232 10.4075 13.4622 10.2997C13.2025 10.1919 12.9997 10.0323 12.8535 9.82092C12.7088 9.60811 12.6329 9.34495 12.6258 9.03142H13.5175C13.5274 9.17754 13.5693 9.29955 13.643 9.39744C13.7182 9.49391 13.8182 9.56697 13.9431 9.61662C14.0694 9.66486 14.2119 9.68898 14.3708 9.68898C14.5269 9.68898 14.6624 9.66628 14.7773 9.62088C14.8936 9.57548 14.9837 9.51235 15.0475 9.43149C15.1114 9.35062 15.1433 9.2577 15.1433 9.15271C15.1433 9.05482 15.1142 8.97254 15.0561 8.90586C14.9993 8.83918 14.9156 8.78244 14.8049 8.73562C14.6957 8.6888 14.5616 8.64624 14.4027 8.60794L13.9282 8.48877C13.5608 8.39939 13.2706 8.25965 13.0578 8.06955C12.845 7.87944 12.7393 7.62337 12.7408 7.30133C12.7393 7.03745 12.8096 6.80692 12.9514 6.60972C13.0947 6.41252 13.2912 6.25859 13.5409 6.14794C13.7906 6.03728 14.0743 5.98195 14.3921 5.98195C14.7156 5.98195 14.9979 6.03728 15.2391 6.14794C15.4817 6.25859 15.6703 6.41252 15.8051 6.60972C15.9399 6.80692 16.0094 7.03532 16.0137 7.29494H15.1305ZM18.8381 6.89487C18.9672 6.98993 19.0403 7.12328 19.0573 7.29494H19.9404C19.9362 7.03532 19.8666 6.80692 19.7319 6.60972C19.5971 6.41252 19.4084 6.25859 19.1658 6.14794C18.9246 6.03728 18.6423 5.98195 18.3189 5.98195C18.0011 5.98195 17.7173 6.03728 17.4676 6.14794C17.218 6.25859 17.0215 6.41252 16.8782 6.60972C16.7363 6.80692 16.6661 7.03745 16.6675 7.30133C16.6661 7.62337 16.7718 7.87944 16.9846 8.06955C17.1974 8.25965 17.4875 8.39939 17.8549 8.48877L18.3295 8.60794C18.4884 8.64624 18.6225 8.6888 18.7317 8.73562C18.8424 8.78244 18.9261 8.83918 18.9828 8.90586C19.041 8.97254 19.07 9.05482 19.07 9.15271C19.07 9.2577 19.0381 9.35062 18.9743 9.43149C18.9104 9.51235 18.8204 9.57548 18.704 9.62088C18.5891 9.66628 18.4536 9.68898 18.2976 9.68898C18.1387 9.68898 17.9961 9.66486 17.8698 9.61662C17.745 9.56697 17.645 9.49391 17.5698 9.39744C17.496 9.29955 17.4542 9.17754 17.4442 9.03142H16.5526C16.5597 9.34495 16.6356 9.60811 16.7803 9.82092C16.9264 10.0323 17.1293 10.1919 17.3889 10.2997C17.6499 10.4075 17.9564 10.4615 18.3082 10.4615C18.6629 10.4615 18.9658 10.4083 19.2169 10.3019C19.4694 10.194 19.6624 10.0429 19.7957 9.84858C19.9305 9.6528 19.9986 9.42156 20 9.15484C19.9986 8.97325 19.9652 8.81223 19.9 8.67178C19.8361 8.53133 19.7461 8.40932 19.6297 8.30576C19.5134 8.20219 19.3758 8.11494 19.2169 8.04401C19.058 7.97308 18.8835 7.91633 18.6934 7.87377L18.3018 7.78013C18.2068 7.75885 18.1174 7.73332 18.0337 7.70353C17.95 7.67231 17.8762 7.63614 17.8124 7.595C17.7485 7.55244 17.6982 7.50207 17.6613 7.44391C17.6258 7.38574 17.6095 7.31764 17.6123 7.23961C17.6123 7.14598 17.6393 7.06228 17.6932 6.98851C17.7485 6.91474 17.828 6.85728 17.9316 6.81614C18.0351 6.77358 18.1621 6.7523 18.3125 6.7523C18.5338 6.7523 18.709 6.79982 18.8381 6.89487Z" fill="#696C80"/>
</g>
</svg>
