<svg width="24" height="24" viewBox="0 0 24 24" fill="none" xmlns="http://www.w3.org/2000/svg">
<path d="M12.32 19.6804C13.28 19.6804 14.16 19.6804 15.12 19.6804C15.6 19.6804 16.08 19.5204 16.4 19.1204C16.72 18.7205 16.64 18.1606 16.48 17.7606C16.32 17.2807 15.92 17.0407 15.44 17.0407C14.08 16.8808 12.72 16.8008 11.36 16.6408C11.28 16.6408 11.12 16.5608 11.12 16.4808C10.8 15.7609 10.56 15.121 10.24 14.4011C9.84 13.5213 9.52 12.6414 9.04 11.7615C7.76 9.44189 5.44 9.44189 4.08 10.2418C3.12 10.7217 2.8 11.7615 2.48 12.8014C2 14.3212 2 20.8002 2 22H7.84C7.84 21.3601 7.84 20.7202 7.84 20.0803C7.84 19.9203 7.84 19.8403 7.76 19.6804C7.28 18.8005 6.8 17.9206 6.4 17.0407C6.08 16.4808 5.84 15.8409 5.6 15.281C5.52 15.121 5.44 14.9611 5.36 14.8011C5.6 14.7211 5.84 14.6411 6.08 14.5611C6.24 14.4811 6.32 14.5611 6.4 14.7211C6.96 15.9209 7.6 17.2007 8.16 18.4005C8.56 19.2004 9.12 19.6004 10 19.6004C10.88 19.6004 11.6 19.6804 12.32 19.6804ZM22 17.2807C22 15.601 22 13.9212 22 12.1615C22 12.0015 22 11.8415 21.92 11.7615C21.6 10.9617 21.28 10.2418 20.96 9.44189C20.8 9.12194 20.64 8.96197 20.32 8.96197C19.36 8.96197 18.48 8.96197 17.52 8.96197C16.72 8.96197 15.84 8.96197 15.04 9.04195C14.56 9.04195 14 9.04195 13.52 9.04195C13.2 9.04195 12.96 9.12194 12.88 9.44189C12.8 9.60187 12.72 9.76185 12.64 9.84183C12.08 10.8017 11.6 11.7615 11.04 12.8014C11.04 12.8814 10.96 12.9614 11.04 13.0414C11.2 13.4413 11.36 13.7612 11.52 14.1612C11.68 13.9212 11.76 13.7612 11.84 13.5213C12.4 12.4014 13.04 11.2816 13.6 10.1618C13.68 10.0818 13.76 10.0018 13.92 10.0018C14.4 10.0018 14.88 10.0018 15.36 10.0018C16.72 10.0018 18 10.0018 19.36 10.0018H19.68C18.56 12.0015 17.44 14.0012 16.24 16.0009C16.32 16.0009 16.4 16.0809 16.48 16.0809C16.96 16.3209 17.36 16.5608 17.6 17.1207C18 18.2406 17.84 19.5204 16.96 20.1603C16.4 20.5602 15.84 20.6402 15.2 20.6402C13.52 20.6402 11.84 20.6402 10.16 20.6402C10 20.6402 10 20.6402 9.84 20.6402V22H22C22 21.92 22 21.84 22 21.68C22 20.2403 22 18.7205 22 17.2807ZM9.04 9.20193C10.96 9.12194 12.56 7.36221 12.4 5.52249C12.32 3.4428 10.64 1.92303 8.64 2.00302C6.64 2.083 5.12 3.84274 5.2 5.84244C5.36 7.84214 7.04 9.28192 9.04 9.20193Z" fill="black"/>
</svg>
