<svg width="24" height="24" viewBox="0 0 24 24" fill="none" xmlns="http://www.w3.org/2000/svg">
<path d="M9.325 16.275C9.14167 16.0583 9.05 15.8125 9.05 15.5375C9.05 15.2625 9.14167 15.0333 9.325 14.85L11.175 13H4C3.71667 13 3.47917 12.9042 3.2875 12.7125C3.09583 12.5208 3 12.2833 3 12C3 11.7167 3.09583 11.4792 3.2875 11.2875C3.47917 11.0958 3.71667 11 4 11H11.175L9.325 9.15C9.125 8.95 9.025 8.7125 9.025 8.4375C9.025 8.1625 9.125 7.925 9.325 7.725C9.50833 7.525 9.7375 7.425 10.0125 7.425C10.2875 7.425 10.5167 7.51667 10.7 7.7L14.3 11.3C14.4 11.4 14.4708 11.5083 14.5125 11.625C14.5542 11.7417 14.575 11.8667 14.575 12C14.575 12.1333 14.5542 12.2583 14.5125 12.375C14.4708 12.4917 14.4 12.6 14.3 12.7L10.7 16.3C10.5 16.5 10.2667 16.5917 10 16.575C9.73333 16.5583 9.50833 16.4583 9.325 16.275ZM13 21C12.7167 21 12.4792 20.9042 12.2875 20.7125C12.0958 20.5208 12 20.2833 12 20C12 19.7167 12.0958 19.4792 12.2875 19.2875C12.4792 19.0958 12.7167 19 13 19H19V5H13C12.7167 5 12.4792 4.90417 12.2875 4.7125C12.0958 4.52083 12 4.28333 12 4C12 3.71667 12.0958 3.47917 12.2875 3.2875C12.4792 3.09583 12.7167 3 13 3H19C19.55 3 20.0208 3.19583 20.4125 3.5875C20.8042 3.97917 21 4.45 21 5V19C21 19.55 20.8042 20.0208 20.4125 20.4125C20.0208 20.8042 19.55 21 19 21H13Z" fill="black"/>
</svg>
