<svg width="24" height="24" viewBox="0 0 24 24" fill="none" xmlns="http://www.w3.org/2000/svg">
<path d="M13.3148 23.902C15.8127 23.902 17.8376 21.8771 17.8376 19.3792C17.8376 16.8814 15.8127 14.8565 13.3148 14.8565C10.817 14.8565 8.79205 16.8814 8.79205 19.3792C8.79205 21.8771 10.817 23.902 13.3148 23.902Z" fill="black"/>
<path d="M5.6409 16.5618C7.46312 16.5618 8.94032 15.0846 8.94032 13.2623C8.94032 11.4402 7.46312 9.96293 5.6409 9.96293C3.81869 9.96293 2.34149 11.4402 2.34149 13.2623C2.34149 15.0846 3.81869 16.5618 5.6409 16.5618Z" fill="black"/>
<path d="M15.199 12.8415C18.7374 12.8415 21.6059 9.97305 21.6059 6.43463C21.6059 2.89619 18.7374 0.0277252 15.199 0.0277252C11.6605 0.0277252 8.79205 2.89619 8.79205 6.43463C8.79205 9.97305 11.6605 12.8415 15.199 12.8415Z" fill="black"/>
</svg>
