<svg width="24" height="24" viewBox="0 0 24 24" fill="none" xmlns="http://www.w3.org/2000/svg">
<g id="Wireless Activation">
<path id="Vector" d="M7.5 1C6.12 1 5 2.12 5 3.5V20.5C5 21.88 6.12 23 7.5 23H16.5C17.88 23 19 21.88 19 20.5V3.5C19 2.12 17.88 1 16.5 1H7.5ZM7.5 4H16.5C16.776 4 17 4.224 17 4.5V17.5C17 17.776 16.776 18 16.5 18H7.5C7.224 18 7 17.776 7 17.5V4.5C7 4.224 7.224 4 7.5 4ZM14.5859 8.41406C14.3301 8.41406 14.0739 8.51203 13.8789 8.70703L11 11.5859L10.1211 10.707C9.73009 10.316 9.09703 10.316 8.70703 10.707C8.31603 11.098 8.31603 11.7311 8.70703 12.1211L10.293 13.707C10.684 14.098 11.317 14.098 11.707 13.707L15.293 10.1211C15.684 9.73009 15.684 9.09703 15.293 8.70703C15.0975 8.51203 14.8418 8.41406 14.5859 8.41406ZM12 18.875C12.622 18.875 13.125 19.378 13.125 20C13.125 20.622 12.622 21.125 12 21.125C11.378 21.125 10.875 20.622 10.875 20C10.875 19.378 11.378 18.875 12 18.875Z" fill="#696C80"/>
</g>
</svg>
