<svg width="24" height="24" viewBox="0 0 24 24" fill="none" xmlns="http://www.w3.org/2000/svg">
<g id="Money Transfer">
<path id="Vector" d="M3 3C2.448 3 2 3.448 2 4V14C2 14.552 2.448 15 3 15H21C21.552 15 22 14.552 22 14V4C22 3.448 21.552 3 21 3H3ZM4.91211 5H19.0879C19.1625 5.21031 19.2831 5.40132 19.4409 5.55911C19.5987 5.7169 19.7897 5.83749 20 5.91211V12.0879C19.7897 12.1625 19.5987 12.2831 19.4409 12.4409C19.2831 12.5987 19.1625 12.7897 19.0879 13H4.91211C4.83749 12.7897 4.7169 12.5987 4.55911 12.4409C4.40132 12.2831 4.21031 12.1625 4 12.0879V5.91211C4.21031 5.83749 4.40132 5.7169 4.55911 5.55911C4.7169 5.40132 4.83749 5.21031 4.91211 5ZM12 6C11.2044 6 10.4413 6.31607 9.87868 6.87868C9.31607 7.44129 9 8.20435 9 9C9 9.79565 9.31607 10.5587 9.87868 11.1213C10.4413 11.6839 11.2044 12 12 12C12.7956 12 13.5587 11.6839 14.1213 11.1213C14.6839 10.5587 15 9.79565 15 9C15 8.20435 14.6839 7.44129 14.1213 6.87868C13.5587 6.31607 12.7956 6 12 6ZM7 8C6.448 8 6 8.447 6 9C6 9.553 6.448 10 7 10C7.552 10 8 9.553 8 9C8 8.447 7.552 8 7 8ZM17 8C16.448 8 16 8.447 16 9C16 9.553 16.448 10 17 10C17.552 10 18 9.553 18 9C18 8.447 17.552 8 17 8ZM3.99023 17L19.2285 20.9688C19.7635 21.1077 20.3083 20.786 20.4473 20.252L21.2949 17H19.2285L18.9922 17.9004C18.5432 17.9394 18.1378 18.1788 17.8848 18.5508L11.9277 17H3.99023Z" fill="#696C80"/>
</g>
</svg>
