<svg width="24" height="24" viewBox="0 0 24 24" fill="none" xmlns="http://www.w3.org/2000/svg">
<path d="M4 4C2.897 4 2 4.897 2 6V18C2 19.103 2.897 20 4 20H20C21.103 20 22 19.103 22 18V6C22 4.897 21.103 4 20 4H4ZM6 6H20V18H19.9961H6V6ZM9 7C8.86749 6.99813 8.73593 7.02261 8.61296 7.07202C8.48999 7.12143 8.37807 7.1948 8.2837 7.28784C8.18933 7.38088 8.11439 7.49176 8.06324 7.61401C8.0121 7.73627 7.98576 7.86747 7.98576 8C7.98576 8.13252 8.0121 8.26373 8.06324 8.38599C8.11439 8.50824 8.18933 8.61912 8.2837 8.71216C8.37807 8.8052 8.48999 8.87857 8.61296 8.92798C8.73593 8.97739 8.86749 9.00187 9 9H9.32227L11.0723 13.3711C11.1464 13.5566 11.2744 13.7156 11.4398 13.8277C11.6051 13.9398 11.8002 13.9998 12 14H16C16.2099 14.0001 16.4146 13.9341 16.585 13.8115C16.7553 13.6888 16.8828 13.5156 16.9492 13.3164L17.9492 10.3164C17.9994 10.166 18.013 10.0059 17.9891 9.8492C17.9652 9.6925 17.9044 9.54374 17.8117 9.41517C17.719 9.28659 17.597 9.1819 17.4559 9.10972C17.3148 9.03753 17.1585 8.99993 17 9H16H11.4766L10.9277 7.62891C10.8536 7.44341 10.7256 7.28437 10.5602 7.17228C10.3949 7.06019 10.1998 7.00019 10 7H9ZM4 11C4.552 11 5 11.448 5 12C5 12.552 4.552 13 4 13C3.448 13 3 12.552 3 12C3 11.448 3.448 11 4 11ZM12 15C11.7348 15 11.4804 15.1054 11.2929 15.2929C11.1054 15.4804 11 15.7348 11 16C11 16.2652 11.1054 16.5196 11.2929 16.7071C11.4804 16.8946 11.7348 17 12 17C12.2652 17 12.5196 16.8946 12.7071 16.7071C12.8946 16.5196 13 16.2652 13 16C13 15.7348 12.8946 15.4804 12.7071 15.2929C12.5196 15.1054 12.2652 15 12 15ZM16 15C15.7348 15 15.4804 15.1054 15.2929 15.2929C15.1054 15.4804 15 15.7348 15 16C15 16.2652 15.1054 16.5196 15.2929 16.7071C15.4804 16.8946 15.7348 17 16 17C16.2652 17 16.5196 16.8946 16.7071 16.7071C16.8946 16.5196 17 16.2652 17 16C17 15.7348 16.8946 15.4804 16.7071 15.2929C16.5196 15.1054 16.2652 15 16 15Z" fill="black"/>
</svg>
