<svg xmlns="http://www.w3.org/2000/svg" width="24" height="24" viewBox="0 0 24 24" fill="none">
  <path d="M3.00002 3C2.44802 3 2.00002 3.448 2.00002 4V14C2.00002 14.552 2.44802 15 3.00002 15H21C21.552 15 22 14.552 22 14V4C22 3.448 21.552 3 21 3H3.00002ZM4.91213 5H19.0879C19.1625 5.21031 19.2831 5.40132 19.4409 5.55911C19.5987 5.7169 19.7897 5.83749 20 5.91211V12.0879C19.7897 12.1625 19.5987 12.2831 19.4409 12.4409C19.2831 12.5987 19.1625 12.7897 19.0879 13H4.91213C4.83752 12.7897 4.71692 12.5987 4.55913 12.4409C4.40134 12.2831 4.21033 12.1625 4.00002 12.0879V5.91211C4.21033 5.83749 4.40134 5.7169 4.55913 5.55911C4.71692 5.40132 4.83752 5.21031 4.91213 5ZM12 6C11.2044 6 10.4413 6.31607 9.8787 6.87868C9.31609 7.44129 9.00002 8.20435 9.00002 9C9.00002 9.79565 9.31609 10.5587 9.8787 11.1213C10.4413 11.6839 11.2044 12 12 12C12.7957 12 13.5587 11.6839 14.1213 11.1213C14.684 10.5587 15 9.79565 15 9C15 8.20435 14.684 7.44129 14.1213 6.87868C13.5587 6.31607 12.7957 6 12 6ZM7.00002 8C6.44802 8 6.00002 8.447 6.00002 9C6.00002 9.553 6.44802 10 7.00002 10C7.55202 10 8.00002 9.553 8.00002 9C8.00002 8.447 7.55202 8 7.00002 8ZM17 8C16.448 8 16 8.447 16 9C16 9.553 16.448 10 17 10C17.552 10 18 9.553 18 9C18 8.447 17.552 8 17 8ZM3.00002 16C2.86751 15.9981 2.73595 16.0226 2.61298 16.072C2.49001 16.1214 2.37809 16.1948 2.28372 16.2878C2.18935 16.3809 2.11441 16.4918 2.06327 16.614C2.01212 16.7363 1.98578 16.8675 1.98578 17C1.98578 17.1325 2.01212 17.2637 2.06327 17.386C2.11441 17.5082 2.18935 17.6191 2.28372 17.7122C2.37809 17.8052 2.49001 17.8786 2.61298 17.928C2.73595 17.9774 2.86751 18.0019 3.00002 18H21C21.1325 18.0019 21.2641 17.9774 21.3871 17.928C21.51 17.8786 21.622 17.8052 21.7163 17.7122C21.8107 17.6191 21.8856 17.5082 21.9368 17.386C21.9879 17.2637 22.0143 17.1325 22.0143 17C22.0143 16.8675 21.9879 16.7363 21.9368 16.614C21.8856 16.4918 21.8107 16.3809 21.7163 16.2878C21.622 16.1948 21.51 16.1214 21.3871 16.072C21.2641 16.0226 21.1325 15.9981 21 16H3.00002ZM3.00002 19C2.86751 18.9981 2.73595 19.0226 2.61298 19.072C2.49001 19.1214 2.37809 19.1948 2.28372 19.2878C2.18935 19.3809 2.11441 19.4918 2.06327 19.614C2.01212 19.7363 1.98578 19.8675 1.98578 20C1.98578 20.1325 2.01212 20.2637 2.06327 20.386C2.11441 20.5082 2.18935 20.6191 2.28372 20.7122C2.37809 20.8052 2.49001 20.8786 2.61298 20.928C2.73595 20.9774 2.86751 21.0019 3.00002 21H21C21.1325 21.0019 21.2641 20.9774 21.3871 20.928C21.51 20.8786 21.622 20.8052 21.7163 20.7122C21.8107 20.6191 21.8856 20.5082 21.9368 20.386C21.9879 20.2637 22.0143 20.1325 22.0143 20C22.0143 19.8675 21.9879 19.7363 21.9368 19.614C21.8856 19.4918 21.8107 19.3809 21.7163 19.2878C21.622 19.1948 21.51 19.1214 21.3871 19.072C21.2641 19.0226 21.1325 18.9981 21 19H3.00002Z" fill="white"/>
</svg>