<svg width="24" height="24" viewBox="0 0 24 24" fill="none" xmlns="http://www.w3.org/2000/svg">
<path d="M9 2C7.90694 2 7 2.90694 7 4V5H5C3.895 5 3 5.895 3 7V15H21V7C21 5.895 20.105 5 19 5H17V4C17 2.90694 16.0931 2 15 2H9ZM9 4H15V5V6V9H9V6V5V4ZM8 11C8.552 11 9 11.448 9 12C9 12.552 8.552 13 8 13C7.448 13 7 12.552 7 12C7 11.448 7.448 11 8 11ZM12 11C12.552 11 13 11.448 13 12C13 12.552 12.552 13 12 13C11.448 13 11 12.552 11 12C11 11.448 11.448 11 12 11ZM16 11C16.552 11 17 11.448 17 12C17 12.552 16.552 13 16 13C15.448 13 15 12.552 15 12C15 11.448 15.448 11 16 11ZM3 17V19C3 20.105 3.895 21 5 21H19C20.105 21 21 20.105 21 19V17H13C13 17.552 12.552 18 12 18C11.448 18 11 17.552 11 17H3Z" fill="black"/>
</svg>
