<svg width="24" height="24" viewBox="0 0 24 24" fill="none" xmlns="http://www.w3.org/2000/svg">
<g id="Pay&#38;Store">
<path id="Union" fill-rule="evenodd" clip-rule="evenodd" d="M3.42498 20.55C3.72498 20.85 4.07498 21 4.47498 21H19.5C19.9 21 20.25 20.85 20.55 20.55C20.85 20.25 21 19.9 21 19.5V11.025C21.4666 10.625 21.7791 10.1333 21.9375 9.55C22.0958 8.96667 22.0833 8.38333 21.9 7.8L20.8 4.425C20.6666 3.99167 20.425 3.64583 20.075 3.3875C19.725 3.12917 19.3166 3 18.85 3H5.02498C4.59165 3 4.20831 3.125 3.87498 3.375C3.54165 3.625 3.30831 3.975 3.17498 4.425L2.09998 7.8C1.91665 8.38333 1.89998 8.96667 2.04998 9.55C2.19998 10.1333 2.50831 10.625 2.97498 11.025V19.5C2.97498 19.9 3.12498 20.25 3.42498 20.55ZM15.475 9.775C15.1416 10.0917 14.7333 10.25 14.25 10.25C13.8166 10.25 13.4583 10.0875 13.175 9.7625C12.8916 9.4375 12.75 9.05833 12.75 8.625V4.5H15.25L15.875 8.625C15.9416 9.075 15.8083 9.45833 15.475 9.775ZM10.7625 9.775C10.4375 10.0917 10.0416 10.25 9.57498 10.25C9.14165 10.25 8.77498 10.0875 8.47498 9.7625C8.17498 9.4375 8.05831 9.05833 8.12498 8.625L8.74998 4.5H11.25V8.625C11.25 9.075 11.0875 9.45833 10.7625 9.775ZM6.06248 9.8375C5.77081 10.1125 5.42498 10.25 5.02498 10.25C4.49165 10.25 4.07498 10.0292 3.77498 9.5875C3.47498 9.14583 3.40831 8.66667 3.57498 8.15L4.72498 4.5H7.22498L6.57498 8.825C6.52498 9.225 6.35415 9.5625 6.06248 9.8375ZM20.2125 9.6C19.9041 10.0333 19.4833 10.25 18.95 10.25C18.5666 10.25 18.2291 10.1125 17.9375 9.8375C17.6458 9.5625 17.475 9.225 17.425 8.825L16.775 4.5H19.275L20.425 8.15C20.5916 8.68333 20.5208 9.16667 20.2125 9.6ZM11.9924 9.50006C11.86 9.50213 11.7338 9.55666 11.6415 9.65168C11.5492 9.74671 11.4984 9.87446 11.5002 10.0069V10.5401C11.06 10.5968 10.6483 10.7316 10.302 10.9708C9.82702 11.2989 9.50025 11.8576 9.50025 12.5069C9.50025 13.1736 9.86277 13.7097 10.3049 14.0782C10.7273 14.4302 11.2294 14.6809 11.7094 14.9206C11.7319 14.9318 11.7543 14.943 11.7766 14.9542C12.2766 15.2042 12.7471 15.4467 13.0549 15.7032C13.3628 15.9597 13.5002 16.1736 13.5002 16.5069C13.5002 16.8576 13.379 17.0489 13.1301 17.2208C12.891 17.3859 12.5065 17.4955 12.054 17.504C12.0336 17.5014 12.013 17.5001 11.9924 17.5001C11.9781 17.5004 11.9637 17.5014 11.9495 17.503C11.2654 17.4794 10.6411 16.9899 10.4846 16.3819C10.4682 16.3183 10.4394 16.2585 10.3999 16.206C10.3604 16.1535 10.311 16.1093 10.2544 16.0759C10.1978 16.0425 10.1352 16.0206 10.0701 16.0114C10.0051 16.0022 9.93883 16.006 9.87521 16.0224C9.81159 16.0388 9.75183 16.0676 9.69934 16.1071C9.64685 16.1466 9.60265 16.1961 9.56929 16.2527C9.53592 16.3093 9.51402 16.3719 9.50486 16.437C9.4957 16.5021 9.49944 16.5683 9.51587 16.6319C9.7578 17.5718 10.5524 18.2685 11.5002 18.4542V19.0069C11.4993 19.0732 11.5116 19.1389 11.5363 19.2004C11.561 19.2619 11.5976 19.3179 11.6442 19.365C11.6907 19.4122 11.7461 19.4497 11.8073 19.4753C11.8684 19.5008 11.934 19.514 12.0002 19.514C12.0665 19.514 12.1321 19.5008 12.1932 19.4753C12.2544 19.4497 12.3098 19.4122 12.3563 19.365C12.4029 19.3179 12.4395 19.2619 12.4642 19.2004C12.4889 19.1389 12.5012 19.0732 12.5002 19.0069V18.4737C12.9405 18.417 13.3522 18.2822 13.6985 18.043C14.1735 17.7149 14.5002 17.1561 14.5002 16.5069C14.5002 15.8402 14.1377 15.3041 13.6956 14.9356C13.2732 14.5836 12.771 14.3329 12.2911 14.0932C12.2686 14.082 12.2462 14.0708 12.2239 14.0596C11.7239 13.8096 11.2534 13.5671 10.9456 13.3106C10.6377 13.0541 10.5002 12.8402 10.5002 12.5069C10.5002 12.1561 10.6215 11.9649 10.8704 11.793C11.1092 11.6281 11.4929 11.5186 11.9446 11.5098C11.9799 11.5139 12.0156 11.5143 12.051 11.5108C12.7351 11.5344 13.3594 12.0239 13.5159 12.6319C13.5323 12.6955 13.561 12.7553 13.6006 12.8078C13.6401 12.8603 13.6895 12.9045 13.7461 12.9379C13.8027 12.9713 13.8653 12.9932 13.9304 13.0024C13.9954 13.0115 14.0617 13.0078 14.1253 12.9914C14.1889 12.975 14.2487 12.9462 14.3012 12.9067C14.3536 12.8672 14.3978 12.8177 14.4312 12.7611C14.4646 12.7045 14.4865 12.6419 14.4956 12.5768C14.5048 12.5117 14.5011 12.4455 14.4846 12.3819C14.2427 11.442 13.4481 10.7453 12.5002 10.5596V10.0069C12.5012 9.94 12.4886 9.8736 12.4634 9.81163C12.4382 9.74966 12.4008 9.69338 12.3535 9.64612C12.3061 9.59886 12.2498 9.56158 12.1878 9.53649C12.1258 9.5114 12.0593 9.49902 11.9924 9.50006Z" fill="black"/>
</g>
</svg>
