<svg width="24" height="24" viewBox="0 0 24 24" fill="none" xmlns="http://www.w3.org/2000/svg">
<path d="M9 22C8.71667 22 8.47917 21.9042 8.2875 21.7125C8.09583 21.5208 8 21.2833 8 21C8 20.7167 8.09583 20.4792 8.2875 20.2875C8.47917 20.0958 8.71667 20 9 20H10V18H4C3.45 18 2.97917 17.8042 2.5875 17.4125C2.19583 17.0208 2 16.55 2 16V5C2 4.45 2.19583 3.97917 2.5875 3.5875C2.97917 3.19583 3.45 3 4 3H20C20.55 3 21.0208 3.19583 21.4125 3.5875C21.8042 3.97917 22 4.45 22 5V16C22 16.55 21.8042 17.0208 21.4125 17.4125C21.0208 17.8042 20.55 18 20 18H14V20H15C15.2833 20 15.5208 20.0958 15.7125 20.2875C15.9042 20.4792 16 20.7167 16 21C16 21.2833 15.9042 21.5208 15.7125 21.7125C15.5208 21.9042 15.2833 22 15 22H9Z" fill="black"/>
</svg>
