<svg width="24" height="24" viewBox="0 0 24 24" fill="none" xmlns="http://www.w3.org/2000/svg">
<path d="M6.89475 15.6C7.14827 15.6 7.36252 15.5143 7.53752 15.3428C7.71252 15.1713 7.80002 14.9588 7.80002 14.7053C7.80002 14.4518 7.71428 14.2375 7.5428 14.0625C7.3713 13.8875 7.1588 13.8 6.9053 13.8C6.65178 13.8 6.43752 13.8857 6.26252 14.0572C6.08752 14.2287 6.00002 14.4412 6.00002 14.6947C6.00002 14.9482 6.08577 15.1625 6.25725 15.3375C6.42875 15.5125 6.64125 15.6 6.89475 15.6ZM6.00002 12.6H7.80002V8.4H6.00002V12.6ZM10.8 15H18V13.2H10.8V15ZM10.8 10.8H18V9H10.8V10.8ZM4.20002 19.2C3.70502 19.2 3.28127 19.0237 2.92877 18.671C2.57627 18.3183 2.40002 17.8943 2.40002 17.399V6.59293C2.40002 6.09764 2.57627 5.675 2.92877 5.325C3.28127 4.975 3.70502 4.8 4.20002 4.8H19.8C20.295 4.8 20.7188 4.97635 21.0713 5.32905C21.4238 5.68175 21.6 6.10574 21.6 6.601V17.4071C21.6 17.9024 21.4238 18.325 21.0713 18.675C20.7188 19.025 20.295 19.2 19.8 19.2H4.20002Z" fill="black"/>
</svg>
