<svg width="24" height="24" viewBox="0 0 24 24" fill="none" xmlns="http://www.w3.org/2000/svg">
<path d="M19.9631 9.48868C19.9642 8.14273 19.6241 6.81847 18.9746 5.63959C18.3252 4.46072 17.3875 3.4657 16.2492 2.74749C15.1109 2.02929 13.8091 1.61133 12.4655 1.53266C11.1218 1.45399 9.78015 1.71718 8.56581 2.29765C7.35147 2.87811 6.30408 3.75691 5.52147 4.85194C4.73887 5.94697 4.24659 7.2225 4.09063 8.55938C3.93467 9.89625 4.12012 11.2508 4.62964 12.4966C5.13917 13.7424 5.95615 14.8387 7.00427 15.6831L4.65727 21.1147L8.161 19.2706L9.46862 22.481L11.648 17.4517C11.8793 17.4758 12.1124 17.4758 12.3437 17.4517L14.5231 22.481L15.8391 19.2706L19.3428 21.1147L16.9958 15.6831C17.9222 14.9383 18.6697 13.9951 19.1833 12.923C19.6968 11.851 19.9633 10.6774 19.9631 9.48868ZM12 15.7753C10.7567 15.7753 9.5412 15.4066 8.50737 14.7158C7.47355 14.025 6.66778 13.0432 6.19196 11.8945C5.71614 10.7457 5.59164 9.4817 5.83421 8.26222C6.07678 7.04274 6.67552 5.92257 7.55472 5.04337C8.43392 4.16417 9.55409 3.56543 10.7736 3.32286C11.9931 3.08029 13.2571 3.20479 14.4058 3.6806C15.5545 4.15642 16.5364 4.96219 17.2272 5.99602C17.9179 7.02985 18.2866 8.2453 18.2866 9.48868C18.2866 11.156 17.6243 12.755 16.4453 13.934C15.2664 15.113 13.6673 15.7753 12 15.7753ZM8.22806 12.4224H11.5809V9.90778H10.7427V11.5842H9.06628V9.90778H10.7427V9.06957H9.06628V7.39314H10.7427V9.06957H11.5809V6.55492H8.22806V12.4224ZM13.2574 9.06957V7.39314H14.9338V9.06957H15.772V6.55492H12.4191V12.4224H13.2574V9.90778H14.9338V9.06957H13.2574ZM15.772 11.5842V9.90778H14.9338V12.4224H16.6102V11.5842H15.772Z" fill="black"/>
</svg>
