<svg width="24" height="24" viewBox="0 0 24 24" fill="none" xmlns="http://www.w3.org/2000/svg">
<path d="M10.95 12.7L9.575 11.3C9.375 11.1 9.1375 11 8.8625 11C8.5875 11 8.35 11.1 8.15 11.3C7.95 11.5 7.84583 11.7375 7.8375 12.0125C7.82917 12.2875 7.925 12.525 8.125 12.725L10.25 14.85C10.45 15.05 10.6833 15.15 10.95 15.15C11.2167 15.15 11.45 15.05 11.65 14.85L15.9 10.6C16.1 10.4 16.2 10.1625 16.2 9.88749C16.2 9.61249 16.1 9.37499 15.9 9.17499C15.7 8.97499 15.4625 8.87499 15.1875 8.87499C14.9125 8.87499 14.675 8.97499 14.475 9.17499L10.95 12.7ZM12 21.925H11.75C11.6667 21.925 11.5917 21.9083 11.525 21.875C9.34167 21.1917 7.54167 19.8375 6.125 17.8125C4.70833 15.7875 4 13.55 4 11.1V6.37499C4 5.95833 4.12083 5.58333 4.3625 5.24999C4.60417 4.91666 4.91667 4.67499 5.3 4.52499L11.3 2.27499C11.5333 2.19166 11.7667 2.14999 12 2.14999C12.2333 2.14999 12.4667 2.19166 12.7 2.27499L18.7 4.52499C19.0833 4.67499 19.3958 4.91666 19.6375 5.24999C19.8792 5.58333 20 5.95833 20 6.37499V11.1C20 13.55 19.2917 15.7875 17.875 17.8125C16.4583 19.8375 14.6583 21.1917 12.475 21.875C12.3917 21.9083 12.2333 21.925 12 21.925Z" fill="black"/>
</svg>
