<svg width="24" height="24" viewBox="0 0 24 24" fill="none" xmlns="http://www.w3.org/2000/svg">
<path d="M6.48545 7.0137C6.48545 7.75342 7.08618 7.9589 7.40657 7.9589C7.44662 7.9589 7.48667 7.9589 7.56677 7.9589C7.84711 7.9589 8.40779 7.67123 8.36774 6.84932C8.32769 6.39726 8.0073 6.19178 7.60682 6.10959C7.56677 6.10959 7.44662 6.10959 7.40657 6.10959C7.00608 6.15068 6.48545 6.43836 6.48545 7.0137ZM19.1008 16.9589C19.5413 16.5069 19.7416 16.137 19.7416 16.137C19.7416 16.137 19.9018 17.1233 19.301 18.3562C19.261 18.4384 19.2209 18.5616 19.1008 18.6438C18.42 19.589 16.8981 20 15.5365 20C14.7355 20 14.0146 19.8356 13.5741 19.7123C13.1736 19.5479 12.8932 19.4247 12.8932 19.4247C11.3714 18.726 11.4915 16.1781 11.4915 16.1781C11.4915 16.1781 12.3726 18.2329 15.4163 18.3973C17.2185 18.4795 18.42 17.6575 19.1008 16.9589ZM19.1008 13.6301C19.1809 13.6301 19.301 13.6301 19.3411 13.6301C19.6214 13.589 20.6627 13.1781 20.5826 11.6164C20.5425 10.0959 19.7416 9.64384 19.1008 9.64384C19.1008 9.64384 19.1008 9.64384 19.0607 9.64384C19.0607 9.64384 18.7804 9.64384 18.46 9.84932C18.0595 10.0959 17.619 10.6712 17.619 11.6986C17.619 13.0959 18.46 13.5479 18.9806 13.6712C19.0207 13.6301 19.0607 13.6301 19.1008 13.6301ZM19.1008 8.32877C21.2234 8.36986 21.9042 10.3014 21.9843 11C22.0243 11.4932 22.0644 13.1781 21.0632 14.1644C20.6226 14.5753 20.0219 14.9041 19.1408 14.9041H19.1008C18.1396 14.9041 17.4988 14.4521 17.0583 14C16.1372 13.0137 16.2173 11.4932 16.2173 11.4932C16.2173 11 16.3775 10.3836 16.6979 9.76712C17.0583 9.0274 17.8593 8.32877 19.1008 8.32877C19.0607 8.32877 19.0607 8.32877 19.1008 8.32877ZM19.1008 5C19.1408 5 19.261 5 19.301 5C21.1433 5 21.9042 6.56164 21.9042 6.56164V7.63014C21.9042 7.63014 21.3035 6.31507 19.301 6.23288C19.261 6.23288 19.2209 6.23288 19.1408 6.23288C17.2986 6.19178 16.5377 7.54795 16.5377 7.54795V6.64384C16.778 5.9863 17.3386 5.08219 19.1008 5ZM3.4017 8.57534V7.05479C3.4017 7.05479 2.48058 6.89041 2 8.12329V13.0959C2 13.0959 2.04005 13.6301 2.40049 14.0822C2.64078 14.5342 3.20146 14.9041 3.92234 14.9041C5.44419 14.9452 5.72453 14.2055 5.60438 13.3425C5.60438 13.3425 3.88229 14.2877 3.4818 12.8493V9.89041H5.00365C5.00365 9.89041 5.68448 9.84932 5.60438 8.57534H3.4017ZM6.6857 8.49315V13.2192C6.6857 13.2192 6.84589 14.7808 7.9272 14.8219C9.04857 14.863 9.40901 14.3699 9.40901 13.5479C9.40901 13.5479 8.88837 13.7534 8.48789 13.5068C8.12745 13.2603 8.12745 12.8493 8.12745 12.8493V9.27397C8.1675 9.31507 7.9272 8.45205 6.6857 8.49315ZM15.2161 10.2192C15.2161 10.2192 15.3763 10.2603 15.4163 10.137C15.4564 9.9726 15.5765 8.82192 14.2949 8.49315C12.7731 8.08219 11.011 8.65753 10.3702 9.93151C10.1699 10.3836 9.92964 11.0411 9.88959 11.6986C9.84954 12.8904 10.2901 14.2055 11.4915 14.863C11.4915 14.863 12.9733 15.5616 14.375 15.0685C14.375 15.0685 15.4564 14.6164 15.4564 13.7945C15.4564 12.9726 15.5365 11.8219 14.8556 11.8219C14.1748 11.8219 13.9345 11.8219 13.9345 11.8219C13.9345 11.8219 14.0947 13.1781 14.0146 13.3425C13.9746 13.5479 13.5741 14 12.4527 13.6301C11.3313 13.2603 11.1711 11.8219 11.4915 10.8767C11.8119 9.93151 12.8932 9.56164 13.6141 9.60274C14.335 9.72603 15.2161 10.2192 15.2161 10.2192Z" fill="black"/>
</svg>
