<svg width="24" height="24" viewBox="0 0 24 24" fill="none" xmlns="http://www.w3.org/2000/svg">
<path d="M17.85 19.55L13.275 14.975L14.975 13.275L19.55 17.85C19.7834 18.0833 19.9 18.3667 19.9 18.7C19.9 19.0333 19.7834 19.3167 19.55 19.55C19.3167 19.7833 19.0334 19.9 18.7 19.9C18.3667 19.9 18.0834 19.7833 17.85 19.55ZM4.45003 19.55C4.2167 19.3167 4.10003 19.0333 4.10003 18.7C4.10003 18.3667 4.2167 18.0833 4.45003 17.85L10.3 12L8.70003 10.4L8.37503 10.725C8.1917 10.9083 7.98337 11 7.75003 11C7.5167 11 7.30837 10.9083 7.12503 10.725L6.45003 10.05V12.025C6.45003 12.225 6.3542 12.3583 6.16253 12.425C5.97087 12.4917 5.80837 12.4583 5.67503 12.325L3.12503 9.77501C2.9917 9.64167 2.95837 9.47917 3.02503 9.28751C3.0917 9.09584 3.22503 9.00001 3.42503 9.00001H5.40003L5.12503 8.70001C4.9417 8.51667 4.85003 8.30834 4.85003 8.07501C4.85003 7.84167 4.9417 7.63334 5.12503 7.45001L8.10003 4.47501C8.38337 4.19167 8.7042 3.97501 9.06253 3.82501C9.42087 3.67501 9.80003 3.60001 10.2 3.60001C10.5167 3.60001 10.8125 3.64584 11.0875 3.73751C11.3625 3.82917 11.625 3.96667 11.875 4.15001C11.9917 4.23334 12.0542 4.34584 12.0625 4.48751C12.0709 4.62917 12.025 4.75001 11.925 4.85001L10.125 6.62501L10.675 7.17501C10.8584 7.35834 10.95 7.56667 10.95 7.80001C10.95 8.03334 10.8584 8.24167 10.675 8.42501L10.4 8.70001L12 10.3L14.075 8.22501C13.9917 8.00834 13.925 7.79167 13.875 7.57501C13.825 7.35834 13.8 7.13334 13.8 6.90001C13.8 5.98334 14.1209 5.20417 14.7625 4.56251C15.4042 3.92084 16.1834 3.60001 17.1 3.60001C17.2167 3.60001 17.3292 3.60417 17.4375 3.61251C17.5459 3.62084 17.6584 3.64167 17.775 3.67501C17.925 3.72501 18.0209 3.82084 18.0625 3.96251C18.1042 4.10417 18.0667 4.23334 17.95 4.35001L16.575 5.72501C16.4917 5.80834 16.45 5.91667 16.45 6.05001C16.45 6.18334 16.4917 6.29167 16.575 6.37501L17.625 7.42501C17.7084 7.50834 17.8167 7.55001 17.95 7.55001C18.0834 7.55001 18.1917 7.50834 18.275 7.42501L19.65 6.05001C19.7667 5.93334 19.8959 5.89584 20.0375 5.93751C20.1792 5.97917 20.275 6.07501 20.325 6.22501C20.3584 6.34167 20.3792 6.45417 20.3875 6.56251C20.3959 6.67084 20.4 6.78334 20.4 6.90001C20.4 7.81667 20.0792 8.59167 19.4375 9.22501C18.7959 9.85834 18.0167 10.175 17.1 10.175C16.8667 10.175 16.6417 10.1542 16.425 10.1125C16.2084 10.0708 15.9917 10 15.775 9.90001L6.15003 19.55C5.9167 19.7833 5.63337 19.9 5.30003 19.9C4.9667 19.9 4.68337 19.7833 4.45003 19.55Z" fill="black"/>
</svg>
