<svg width="24" height="24" viewBox="0 0 24 24" fill="none" xmlns="http://www.w3.org/2000/svg">
<path d="M11.9844 1.98633C11.7195 1.99047 11.4671 2.09953 11.2826 2.28957C11.098 2.47962 10.9964 2.73512 11 3V4.06641C10.1196 4.17973 9.29616 4.44933 8.60355 4.92773C7.65357 5.58391 7.00003 6.7015 7.00003 8C7.00003 9.33333 7.72507 10.4056 8.60941 11.1426C9.49374 11.8795 10.5528 12.3945 11.5528 12.8945C12.5528 13.3945 13.4937 13.8795 14.1094 14.3926C14.7251 14.9056 15 15.3333 15 16C15 16.7015 14.7576 17.0839 14.2598 17.4277C13.7815 17.7581 13.0125 17.9771 12.1075 17.9941C12.0666 17.989 12.0255 17.9864 11.9844 17.9863C11.9557 17.987 11.927 17.989 11.8985 17.9922C10.5302 17.945 9.28176 16.966 8.96878 15.75C8.93598 15.6228 8.87843 15.5032 8.79942 15.3982C8.72042 15.2932 8.6215 15.2048 8.50831 15.138C8.39513 15.0712 8.26991 15.0274 8.13979 15.0091C8.00967 14.9907 7.8772 14.9981 7.74996 15.031C7.62272 15.0638 7.5032 15.1214 7.39821 15.2004C7.29323 15.2795 7.20484 15.3784 7.13811 15.4916C7.07137 15.6048 7.02758 15.7301 7.00925 15.8602C6.99093 15.9903 6.99841 16.1228 7.03128 16.25C7.51513 18.1298 9.10436 19.5232 11 19.8945V21C10.9982 21.1325 11.0226 21.2641 11.0721 21.387C11.1215 21.51 11.1948 21.6219 11.2879 21.7163C11.3809 21.8107 11.4918 21.8856 11.614 21.9368C11.7363 21.9879 11.8675 22.0142 12 22.0142C12.1326 22.0142 12.2638 21.9879 12.386 21.9368C12.5083 21.8856 12.6191 21.8107 12.7122 21.7163C12.8052 21.6219 12.8786 21.51 12.928 21.387C12.9774 21.2641 13.0019 21.1325 13 21V19.9336C13.8805 19.8203 14.7039 19.5507 15.3965 19.0723C16.3465 18.4161 17 17.2985 17 16C17 14.6667 16.275 13.5944 15.3907 12.8574C14.5063 12.1205 13.4473 11.6055 12.4473 11.1055C11.4473 10.6055 10.5063 10.1205 9.89066 9.60742C9.27499 9.09437 9.00003 8.66667 9.00003 8C9.00003 7.2985 9.24249 6.91609 9.74027 6.57227C10.2178 6.24239 10.9854 6.02347 11.8887 6.00586C11.9594 6.01408 12.0308 6.01474 12.1016 6.00781C13.4698 6.05502 14.7183 7.03405 15.0313 8.25C15.0641 8.37725 15.1216 8.49679 15.2006 8.6018C15.2796 8.7068 15.3786 8.79521 15.4917 8.86198C15.6049 8.92875 15.7302 8.97257 15.8603 8.99094C15.9904 9.0093 16.1229 9.00185 16.2501 8.96902C16.3773 8.93618 16.4969 8.8786 16.6018 8.79956C16.7068 8.72053 16.7952 8.62158 16.862 8.50838C16.9287 8.39518 16.9725 8.26994 16.9908 8.13982C17.0091 8.00969 17.0017 7.87723 16.9688 7.75C16.4849 5.87019 14.8957 4.47684 13 4.10547V3C13.0019 2.86621 12.9768 2.73341 12.9264 2.60947C12.876 2.48553 12.8012 2.37297 12.7065 2.27845C12.6118 2.18393 12.4991 2.10937 12.3751 2.05919C12.251 2.00902 12.1182 1.98424 11.9844 1.98633ZM19.4805 3.00586C19.2483 2.96569 19 3.1352 19 3.4082V8.5918C19 8.9558 19.4403 9.13786 19.6973 8.88086L21.9434 6.63281C22.2924 6.28381 22.2924 5.71814 21.9434 5.36914L19.6973 3.11914C19.633 3.05489 19.5579 3.01925 19.4805 3.00586ZM4.51956 16.0059C4.44217 16.0195 4.36702 16.0563 4.30277 16.1211L2.05667 18.3691C1.70767 18.7181 1.70767 19.2838 2.05667 19.6328L4.30277 21.8809C4.55977 22.1379 5.00003 21.9558 5.00003 21.5918V16.4082C5.00003 16.1352 4.75173 15.9648 4.51956 16.0059Z" fill="black"/>
</svg>
