<svg width="24" height="24" viewBox="0 0 24 24" fill="none" xmlns="http://www.w3.org/2000/svg">
<path d="M21 15.9V9.9L12.8 14C12.5466 14.1333 12.2791 14.2 11.9975 14.2C11.7159 14.2 11.45 14.1333 11.2 14L2.80005 9.8C2.63338 9.71667 2.50838 9.60563 2.42505 9.46688C2.34172 9.32813 2.30005 9.17396 2.30005 9.00438C2.30005 8.83479 2.34172 8.67917 2.42505 8.5375C2.50838 8.39584 2.63338 8.28334 2.80005 8.2L11.2 4C11.3264 3.93334 11.4562 3.88334 11.5895 3.85C11.7229 3.81667 11.8597 3.8 12 3.8C12.1404 3.8 12.2772 3.81667 12.4106 3.85C12.5439 3.88334 12.6737 3.93334 12.8 4L22.3 8.75C22.45 8.83334 22.5709 8.94167 22.6625 9.075C22.7542 9.20834 22.8 9.36599 22.8 9.54795V15.9C22.8 16.155 22.7143 16.3688 22.5428 16.5413C22.3713 16.7138 22.1588 16.8 21.9053 16.8C21.6518 16.8 21.4375 16.7138 21.2625 16.5413C21.0875 16.3688 21 16.155 21 15.9ZM11.2 20L6.40005 17.6C6.10005 17.45 5.85838 17.2299 5.67505 16.9396C5.49172 16.6493 5.40005 16.3361 5.40005 16V13.125L11.2 16.025C11.4535 16.1583 11.721 16.225 12.0026 16.225C12.2842 16.225 12.55 16.1583 12.8 16.025L18.6 13.125V16C18.6 16.3361 18.5084 16.6493 18.325 16.9396C18.1417 17.2299 17.9 17.45 17.6 17.6L12.8 20C12.6737 20.0667 12.5439 20.1167 12.4106 20.15C12.2772 20.1833 12.1404 20.2 12 20.2C11.8597 20.2 11.7229 20.1833 11.5895 20.15C11.4562 20.1167 11.3264 20.0667 11.2 20Z" fill="black"/>
</svg>
