<svg width="24" height="24" viewBox="0 0 24 24" fill="none" xmlns="http://www.w3.org/2000/svg">
<g id="e-gifts">
<path id="Vector" d="M20 4H4C2.897 4 2 4.897 2 6V18C2 19.103 2.897 20 4 20H20C21.103 20 22 19.103 22 18V6C22 4.897 21.103 4 20 4ZM9 14.612L6.71178 16.0281C6.41257 16.2133 6.03727 15.9498 6.10989 15.6054L6.667 12.964L4.69424 11.2316C4.43104 11.0005 4.57098 10.5667 4.91962 10.5329L7.583 10.275L8.63248 7.8346C8.77124 7.51195 9.2287 7.51197 9.36742 7.83464L10.417 10.276L13.0605 10.5313C13.4121 10.5652 13.5504 11.0049 13.2814 11.234L11.25 12.964L11.9227 15.5726C12.0121 15.9194 11.6357 16.1999 11.3289 16.0151L9 14.612ZM16 15.6C16 15.8209 15.8209 16 15.6 16H14.4C14.1791 16 14 15.8209 14 15.6V14.4C14 14.1791 14.1791 14 14.4 14H15.6C15.8209 14 16 14.1791 16 14.4V15.6ZM20 15.6C20 15.8209 19.8209 16 19.6 16H18.4C18.1791 16 18 15.8209 18 15.6V14.4C18 14.1791 18.1791 14 18.4 14H19.6C19.8209 14 20 14.1791 20 14.4V15.6Z" fill="#696C80"/>
</g>
</svg>
