<svg width="24" height="24" viewBox="0 0 24 24" fill="none" xmlns="http://www.w3.org/2000/svg">
<path d="M4 4C2.895 4 2 4.895 2 6V18C2 19.105 2.895 20 4 20H20C21.105 20 22 19.105 22 18V6C22 4.895 21.105 4 20 4H4ZM5.98438 9C6.27938 9 6.53456 9.20223 6.60156 9.49023L7.49414 13.3516L8.39062 9.49023C8.45662 9.20323 8.71186 9 9.00586 9H9.01367C9.43467 9 9.73809 9.40359 9.62109 9.80859L8.29883 14.3945C8.19683 14.7525 7.86714 15 7.49414 15C7.12014 15 6.79245 14.7516 6.68945 14.3926L5.37695 9.80664C5.26095 9.40264 5.56337 9 5.98438 9ZM12 9C12.335 9 12.6055 9.27047 12.6055 9.60547V14.3945C12.6055 14.7295 12.335 15 12 15C11.665 15 11.3945 14.7295 11.3945 14.3945V9.60547C11.3945 9.27047 11.665 9 12 9ZM15.5977 9H17.0371C17.3421 9 17.6155 9.04944 17.8555 9.14844C18.0955 9.24744 18.2988 9.3855 18.4668 9.5625C18.6348 9.7395 18.7635 9.94841 18.8535 10.1914C18.9425 10.4344 18.9863 10.6994 18.9863 10.9844C18.9863 11.2774 18.9425 11.5414 18.8535 11.7754C18.7635 12.0104 18.6348 12.21 18.4668 12.375C18.2998 12.54 18.0955 12.6669 17.8535 12.7559C17.6125 12.8449 17.3401 12.8906 17.0371 12.8906H16.2051V14.3945C16.2051 14.7295 15.9346 15 15.5996 15C15.2646 15 14.9922 14.7295 14.9922 14.3945V9.60547C14.9922 9.27147 15.2637 9 15.5977 9ZM16.4551 10.0098C16.3171 10.0098 16.2051 10.1218 16.2051 10.2598V11.6309C16.2051 11.7689 16.3171 11.8809 16.4551 11.8809H17.0371C17.1631 11.8809 17.2742 11.8585 17.3652 11.8145C17.4572 11.7705 17.5328 11.7108 17.5918 11.6328C17.6498 11.5548 17.6937 11.4596 17.7207 11.3516C17.7477 11.2436 17.7617 11.1251 17.7617 10.9961C17.7617 10.8671 17.7477 10.743 17.7207 10.625C17.6937 10.505 17.6498 10.4015 17.5918 10.3105C17.5328 10.2195 17.4572 10.1458 17.3652 10.0918C17.2742 10.0368 17.1631 10.0098 17.0371 10.0098H16.4551Z" fill="black"/>
</svg>
