<svg width="24" height="24" viewBox="0 0 24 24" fill="none" xmlns="http://www.w3.org/2000/svg">
<path d="M10.4 2C9.08405 2 8.00002 3.08402 8.00002 4.4C8.00002 4.68147 8.05918 4.94809 8.15002 5.2H4.00002C3.11602 5.2 2.40002 5.916 2.40002 6.8V8.4H21.6V6.8C21.6 5.916 20.884 5.2 20 5.2H15.85C15.9409 4.94809 16 4.68147 16 4.4C16 3.08402 14.916 2 13.6 2C12.9852 2 12.4267 2.2433 12 2.62969C11.5733 2.2433 11.0149 2 10.4 2ZM10.4 3.6C10.852 3.6 11.2 3.94798 11.2 4.4V5.2H10.4C9.948 5.2 9.60002 4.85202 9.60002 4.4C9.60002 3.94798 9.948 3.6 10.4 3.6ZM13.6 3.6C14.052 3.6 14.4 3.94798 14.4 4.4C14.4 4.85202 14.052 5.2 13.6 5.2H12.8V4.4C12.8 3.94798 13.148 3.6 13.6 3.6ZM3.20002 10V20.4C3.20002 21.284 3.91602 22 4.80002 22H11.2V10H3.20002ZM12.8 10V22H19.2C20.084 22 20.8 21.284 20.8 20.4V10H12.8Z" fill="black"/>
</svg>
