<svg viewBox="0 0 52 52" xmlns="http://www.w3.org/2000/svg"><path d="m27 44.3c-7 0-12.1-4.6-12.1-4.6-.3-.3-.4-.8-.3-1.2 2.2-5.8 6.9-9.5 12.3-9.5 9.5 0 12.3 9.3 12.3 9.4.1.4 0 .9-.3 1.1-4.2 3.6-8.3 4.8-11.9 4.8zm-10.1-5.8c2.2 1.8 10.6 7.3 20-.2-.8-1.9-3.4-7.2-10-7.2-4.3.1-8 2.8-10 7.4z"/><path d="m26.9 27.1c-3.8 0-6.8-3.1-6.8-6.8 0-3.8 3.1-6.8 6.8-6.8 3.8 0 6.8 3.1 6.8 6.8s-3.1 6.8-6.8 6.8zm0-11.4c-2.5 0-4.6 2.1-4.6 4.6s2.1 4.6 4.6 4.6 4.6-2.1 4.6-4.6-2.1-4.6-4.6-4.6z"/><path d="m14.6 38.5c.2-.6.5-1.1.7-1.7-2.7-2.9-4.3-6.8-4.3-10.9 0-8.7 7.1-15.9 15.9-15.9s15.9 7.1 15.9 15.9c0 4-1.5 7.9-4.3 10.8.5 1 .7 1.7.7 1.7.1.3 0 .6-.1.8 3.7-3.4 5.9-8.2 5.9-13.3 0-10-8.1-18.1-18.1-18.1s-18.1 8.1-18.1 18.1c0 5 2.1 9.8 5.8 13.2-.1-.2-.1-.4 0-.6z" fill="#e31b23"/></svg>