<svg viewBox="0 0 52 52" xmlns="http://www.w3.org/2000/svg"><path d="m39 34.8c-1.7-1.5-4.7-3.9-4.7-3.9-1.5-1.2-2.9.5-2.9.5l-2 2.3s-2.8-.8-6-3.5-4.4-5.3-4.4-5.3l2-2.3s1.5-1.7 0-2.9c0 0-3-2.5-4.7-3.9-1.7-1.5-2.9-.1-3.5.6s-6.5 7.7 6.6 18.8c13.2 11.1 19.1 3.9 19.6 3.3.6-.9 1.7-2.3 0-3.7zm-4.4-6.2c-.1 0-.1 0-.2 0-.5-.1-.9-.6-.8-1.1.4-2.7-.4-5.2-2.3-6.7-1.9-1.6-4.5-1.9-7-1.1-.5.2-1.1-.1-1.3-.6s.1-1.1.6-1.3c3.2-1.1 6.6-.6 9 1.4s3.5 5.2 3 8.6c-.1.4-.5.8-1 .8zm3.4.1c-.1 0-.1 0-.2 0-.5-.1-.9-.6-.8-1.2.7-3.9-.5-7.5-3.2-9.8s-6.5-2.8-10.2-1.5c-.5.2-1.1-.1-1.3-.6s.1-1.1.6-1.3c4.4-1.6 8.9-.9 12.2 1.8s4.7 7.1 3.9 11.7c-.1.6-.5.9-1 .9zm3.6.2c-.1 0-.1 0-.2 0-.5-.1-.9-.6-.8-1.1.8-5.1-.8-9.9-4.4-12.9s-8.6-3.8-13.5-2.1c-.5.2-1.1-.1-1.3-.6s.1-1.1.6-1.3c5.5-2 11.3-1 15.4 2.4 4.1 3.5 6 9 5 14.8.1.5-.3.8-.8.8z"/></svg>