<svg xmlns="http://www.w3.org/2000/svg" viewBox="0 0 52 52"><path d="M30.9 42.9c-4.1 0-8.7-2.1-13.7-6.4-5.7-4.8-8.7-9.5-8.8-14-.1-3.1 1.3-5.2 2.1-6.2.3-.4.9-1 1.7-1.4.7-.3 1.9-.4 3.2.7l4.7 3.9c.6.5.9 1.1 1 1.9.1 1.3-.8 2.4-.9 2.5l-1.5 1.8c.5.9 1.8 2.6 3.9 4.5 2.2 1.8 4.1 2.7 5.1 3l1.5-1.8c.1-.1 1-1.2 2.3-1.3.7-.1 1.4.2 2 .7l4.7 3.9c1.2 1 2.1 2.6.2 4.9-.8 1-2.6 2.7-5.7 3.1-.7.2-1.2.2-1.8.2zM13.2 16.8c-.1 0-.2 0-.3.1-.4.2-.7.6-.9.8-.6.8-1.7 2.4-1.6 4.8.1 3.8 2.9 8.1 8.1 12.5s10 6.4 13.7 5.8c2.4-.4 3.9-1.7 4.5-2.4.8-.9.9-1.4.1-2.1l-4.7-3.9c-.2-.2-.4-.2-.5-.2-.4 0-.8.4-.9.6l-2.4 2.8-.6-.2c-.1 0-3-.9-6.4-3.6-3.3-2.9-4.7-5.6-4.7-5.7l-.3-.6 2.4-2.8c.1-.2.5-.6.4-1.1 0-.1 0-.3-.3-.5L14 17.2c-.4-.3-.6-.4-.8-.4zm19.9 12.6h-.2c-.5-.1-.9-.6-.8-1.1.4-2.7-.4-5.2-2.3-6.7-1.9-1.6-4.5-1.9-7-1.1-.5.2-1.1-.1-1.3-.6s.1-1.1.6-1.3c3.2-1.1 6.6-.6 9 1.4 2.4 2 3.5 5.2 3 8.6-.1.4-.5.8-1 .8zm3.4.1h-.2c-.5-.1-.9-.6-.8-1.2.7-3.9-.5-7.5-3.2-9.8-2.7-2.3-6.5-2.8-10.2-1.5-.5.2-1.1-.1-1.3-.6-.2-.5.1-1.1.6-1.3 4.4-1.6 8.9-.9 12.2 1.8 3.3 2.7 4.7 7.1 3.9 11.7-.1.6-.5.9-1 .9zm3.6.2h-.2c-.5-.1-.9-.6-.8-1.1.8-5.1-.8-9.9-4.4-12.9-3.6-3-8.6-3.8-13.5-2.1-.5.2-1.1-.1-1.3-.6-.2-.5.1-1.1.6-1.3 5.5-2 11.3-1 15.4 2.4 4.1 3.5 6 9 5 14.8.1.4-.3.8-.8.8z" fill="#FFF"/></svg>