<svg enable-background="new 0 0 200 200" viewBox="0 0 200 200" xmlns="http://www.w3.org/2000/svg"><path d="m100 39c-33.6 0-61 27.3-61 61 0 33.6 27.3 61 61 61 33.6 0 61-27.3 61-61 0-33.6-27.4-61-61-61zm27.2 53.6-25.7 26.3c-.6.6-1.3.9-2.1.9-.8 0-1.5-.3-2.1-.9l-25.8-26.3c-1.1-1.2-1.1-3 0-4.2 1.2-1.1 3-1.1 4.2 0l23.7 24.1 23.6-24c1.1-1.2 3-1.2 4.2 0 1.1 1.1 1.1 3 0 4.1z" fill="#e31b23"/><path d="m123 88.5-23.6 24.1-23.7-24.1c-1.1-1.2-3-1.2-4.2 0-1.2 1.1-1.2 3 0 4.2l25.9 26.3c.6.6 1.3.9 2.1.9.8 0 1.6-.3 2.1-.9l25.7-26.3c1.1-1.2 1.1-3 0-4.2-1.3-1.2-3.2-1.2-4.3 0z" fill="#fff"/></svg>