<svg enable-background="new 0 0 200 200" viewBox="0 0 200 200" xmlns="http://www.w3.org/2000/svg"><path d="m100 45c-30.4 0-55 24.7-55 55 0 30.4 24.7 55 55 55 30.4 0 55-24.7 55-55 0-30.4-24.6-55-55-55zm18.9 56.5-26.3 25.7c-.6.6-1.3.8-2.1.8s-1.5-.3-2.1-.9c-1.1-1.2-1.1-3 0-4.2l24.1-23.6-24-23.6c-1.2-1.1-1.2-3 0-4.2 1.1-1.2 3-1.2 4.2 0l26.3 25.9c.6.6.9 1.3.9 2.1-.1.7-.4 1.5-1 2z" fill="none"/><path d="m92.6 71.5c-1.2-1.1-3-1.1-4.2 0-1.1 1.2-1.1 3 0 4.2l24.1 23.7-24 23.6c-1.2 1.1-1.2 3 0 4.2.6.6 1.3.9 2.1.9.7 0 1.5-.3 2.1-.8l26.3-25.7c.6-.6.9-1.3.9-2.1s-.3-1.6-.9-2.1z" fill="#231f20"/><path d="m100 39c-33.6 0-61 27.3-61 61 0 33.6 27.3 61 61 61 33.6 0 61-27.3 61-61 0-33.6-27.4-61-61-61zm0 116c-30.4 0-55-24.7-55-55 0-30.4 24.7-55 55-55 30.4 0 55 24.7 55 55 0 30.4-24.6 55-55 55z" fill="#e31b23"/></svg>