<svg enable-background="new 0 0 200 200" viewBox="0 0 200 200" xmlns="http://www.w3.org/2000/svg"><path d="m100 45c-30.4 0-55 24.7-55 55 0 30.4 24.7 55 55 55 30.4 0 55-24.7 55-55 0-30.4-24.6-55-55-55zm11.5 78c1.2 1.1 1.2 3 0 4.2-.6.6-1.3.9-2.1.9-.7 0-1.5-.3-2.1-.8l-26.3-25.7c-.6-.6-.9-1.3-.9-2.1s.3-1.6.9-2.1l26.3-25.9c1.2-1.1 3-1.1 4.2 0 1.1 1.2 1.1 3 0 4.2l-24.1 23.7z" fill="none"/><path d="m111.5 71.5c-1.1-1.2-3-1.2-4.2 0l-26.2 25.8c-.6.6-.9 1.3-.9 2.1s.3 1.6.9 2.1l26.3 25.7c.6.6 1.3.8 2.1.8s1.5-.3 2.1-.9c1.1-1.2 1.1-3 0-4.2l-24.2-23.5 24.1-23.7c1.2-1.2 1.2-3 0-4.2z" fill="#231f20"/><path d="m100 39c-33.6 0-61 27.3-61 61 0 33.6 27.3 61 61 61 33.6 0 61-27.3 61-61 0-33.6-27.4-61-61-61zm0 116c-30.4 0-55-24.7-55-55 0-30.4 24.7-55 55-55 30.4 0 55 24.7 55 55 0 30.4-24.6 55-55 55z" fill="#e31b23"/></svg>