<svg xmlns="http://www.w3.org/2000/svg" viewBox="0 0 52 52"><path d="M26.3 44.9c-10 0-18-8.1-18-18s8.1-18 18-18 18 8.1 18 18-8.1 18-18 18zm0-34c-8.8 0-16 7.2-16 16s7.2 16 16 16 16-7.2 16-16-7.2-16-16-16zm4.2 21.2c-1 .7-2.1 1.1-3.3 1.2V20.7c1.2.1 2.4.5 3.4 1.2.5.4 1.3.3 1.8-.2.4-.6.3-1.3-.2-1.8-1.4-1.1-3.1-1.7-4.9-1.8V16c0-.5-.4-.9-.9-.9s-.9.4-.9.9v2.2C21.2 19 18 22.6 18 27s3.2 8 7.4 8.7v2c0 .5.4.9.9.9s.9-.4.9-.9v-1.9c1.8-.1 3.4-.6 4.8-1.7.6-.4.7-1.2.3-1.7s-1.2-.7-1.8-.3zm-10-5.1c0-3 2.1-5.5 4.9-6.1v12.3c-2.8-.7-4.9-3.2-4.9-6.2z"/></svg>