<svg enable-background="new 0 0 200 200" viewBox="0 0 200 200" xmlns="http://www.w3.org/2000/svg"><path d="m100 45c-30.4 0-55 24.7-55 55 0 30.4 24.7 55 55 55 30.4 0 55-24.7 55-55 0-30.4-24.6-55-55-55zm28.7 31.3-39.3 57.5-17.9-23.9c-1-1.3-.7-3.2.6-4.1 1.3-1 3.2-.7 4.1.6l13 17.3 34.6-50.7c.9-1.3 2.8-1.7 4.1-.8s1.7 2.8.8 4.1z" fill="none"/><path d="m127.9 72.2c-1.3-.9-3.2-.6-4.1.8l-34.6 50.7-13-17.3c-1-1.3-2.8-1.6-4.1-.6s-1.6 2.8-.6 4.1l17.9 23.9 39.3-57.5c.9-1.3.5-3.2-.8-4.1z" fill="#231f20"/><path d="m100 39c-33.6 0-61 27.3-61 61 0 33.6 27.3 61 61 61 33.6 0 61-27.3 61-61 0-33.6-27.4-61-61-61zm0 116c-30.4 0-55-24.7-55-55 0-30.4 24.7-55 55-55 30.4 0 55 24.7 55 55 0 30.4-24.6 55-55 55z" fill="#e31b23"/></svg>