<svg viewBox="0 0 52 52" xmlns="http://www.w3.org/2000/svg"><path d="m29 25.2c0-2-1.7-3.7-3.7-3.7s-3.7 1.7-3.7 3.7c0 1.7 1.2 3.2 2.8 3.6v11.2c0 .5.4 1 1 1s1-.4 1-1v-11.3c1.4-.4 2.6-1.8 2.6-3.5zm-3.7 1.8c-1 0-1.8-.8-1.8-1.8s.8-1.8 1.8-1.8 1.8.8 1.8 1.8-.8 1.8-1.8 1.8z"/><g fill="#e31b23"><path d="m38.5 39.4c-.2 0-.5-.1-.7-.3-.4-.4-.4-.9 0-1.3 3.3-3.3 5.1-7.7 5.1-12.3 0-4.7-1.8-9-5.1-12.3-.4-.4-.4-.9 0-1.3s.9-.4 1.3 0c3.6 3.6 5.7 8.5 5.7 13.7s-2 10-5.7 13.7c-.1 0-.4.1-.6.1z"/><path d="m35 36.2c-.2 0-.5-.1-.7-.3-.4-.4-.4-.9 0-1.3 5-5 5-13.2 0-18.3-.3-.3-.3-.9 0-1.3.4-.4.9-.4 1.3 0 5.8 5.8 5.8 15.1 0 20.9-.1.2-.4.3-.6.3z"/><path d="m31.7 32.7c-.2 0-.5-.1-.7-.3-.4-.4-.4-.9 0-1.3 1.5-1.5 2.3-3.5 2.3-5.6s-.8-4.1-2.3-5.6c-.4-.4-.4-.9 0-1.3s.9-.4 1.3 0c1.8 1.8 2.9 4.3 2.9 6.9s-1 5.1-2.9 6.9c-.1.2-.4.3-.6.3z"/><path d="m12.1 39c-.2 0-.5-.1-.7-.3-7.5-7.5-7.5-19.8 0-27.3.4-.4.9-.4 1.3 0s.4.9 0 1.3c-6.8 6.8-6.8 17.9 0 24.7.4.4.4.9 0 1.3-.2.2-.4.3-.6.3z"/><path d="m15.6 35.8c-.2 0-.5-.1-.7-.3-2.8-2.8-4.3-6.5-4.3-10.4s1.5-7.7 4.3-10.4c.4-.4.9-.4 1.3 0s.4.9 0 1.3c-2.4 2.4-3.8 5.7-3.8 9.1s1.3 6.7 3.8 9.1c.4.4.4.9 0 1.3-.2.2-.4.3-.6.3z"/><path d="m18.9 32.3c-.2 0-.5-.1-.7-.3-3.8-3.8-3.8-10 0-13.8.4-.4.9-.4 1.3 0s.4.9 0 1.3c-3.1 3.1-3.1 8.1 0 11.2.4.4.4.9 0 1.3-.2.2-.4.3-.6.3z"/></g></svg>