<svg xmlns="http://www.w3.org/2000/svg" viewBox="0 0 52 52"><path d="M32 15.4H18.3c-1.5 0-2.7 1.2-2.7 2.7v28.7c0 1.5 1.2 2.7 2.7 2.7H32c1.5 0 2.7-1.2 2.7-2.7V18.2c0-1.5-1.2-2.8-2.7-2.8zM24.2 46c0-.5.4-1 1-1 .5 0 1 .4 1 1 0 .5-.4 1-1 1s-1-.4-1-1zm8.7-3.5H17.4v-19h15.5v19zM17.4 21.7v-3.5c0-.5.4-.9.9-.9H32c.5 0 .9.4.9.9v3.5H17.4zm12.8 19.6c-.5 0-.9-.4-.9-.9V28.2c0-.5.4-.9.9-.9s.9.4.9.9v12.2c0 .5-.4.9-.9.9zm-3.3-.1c-.5 0-.9-.4-.9-.9v-9.1c0-.5.4-.9.9-.9s.9.4.9.9v9.1c-.1.5-.5.9-.9.9zm-6.8 0c-.5 0-.9-.4-.9-.9v-3.2c0-.5.4-.9.9-.9s.9.4.9.9v3.2c0 .5-.4.9-.9.9zm3.4 0c-.5 0-.9-.4-.9-.9v-6.4c0-.5.4-.9.9-.9s.9.4.9.9v6.4c0 .5-.4.9-.9.9zm14.6-30.7c-.2 0-.5-.1-.6-.3-6.7-6.7-17.6-6.7-24.3 0-.4.4-.9.4-1.3 0s-.4-.9 0-1.3c7.4-7.4 19.4-7.4 26.8 0 .4.4.4.9 0 1.3-.2.2-.4.3-.6.3zM34.9 14c-.2 0-.5-.1-.6-.3-5-5-13-5-18 0-.4.4-.9.4-1.3 0s-.4-.9 0-1.3c5.7-5.7 14.9-5.7 20.5 0 .4.4.4.9 0 1.3-.1.2-.4.3-.6.3z" fill="#FFF"/></svg>