<svg viewBox="0 0 52 52" xmlns="http://www.w3.org/2000/svg"><path d="m33.1 7.2h-14.5c-1.8 0-3.2 1.4-3.2 3.2v3.6 2 25.3c0 1.8 1.4 3.2 3.2 3.2h14.5c1.8 0 3.2-1.4 3.2-3.2v-25.3-2-3.6c0-1.8-1.4-3.2-3.2-3.2zm-8.3 33.4c0-.6.5-1.1 1.1-1.1s1.1.5 1.1 1.1-.5 1.1-1.1 1.1-1.1-.5-1.1-1.1zm9.5-3.9h-16.9v-20.7h16.9zm-16.9-22.7v-3.6c0-.6.5-1.2 1.2-1.2h14.5c.6 0 1.2.5 1.2 1.2v3.6zm14 21.4c-.5 0-.9-.4-.9-.9v-13.2c0-.5.4-.9.9-.9s.9.4.9.9v13.3c-.1.5-.5.8-.9.8zm-3.7 0c-.5 0-.9-.4-.9-.9v-9.9c0-.5.4-.9.9-.9s.9.4.9.9v9.9c0 .5-.4.9-.9.9zm-7.3 0c-.5 0-.9-.4-.9-.9v-3.4c0-.5.4-.9.9-.9s.9.4.9.9v3.4c-.1.5-.4.9-.9.9zm3.6 0c-.5 0-.9-.4-.9-.9v-7c0-.5.4-.9.9-.9s.9.4.9.9v7c0 .5-.4.9-.9.9z"/></svg>