<?xml version="1.0" encoding="utf-8"?>
<!-- Generator: Adobe Illustrator 22.1.0, SVG Export Plug-In . SVG Version: 6.00 Build 0)  -->
<svg version="1.1" id="Layer_1" xmlns="http://www.w3.org/2000/svg" xmlns:xlink="http://www.w3.org/1999/xlink" x="0px" y="0px"
	 viewBox="0 0 52 52" style="enable-background:new 0 0 52 52;" xml:space="preserve">
<style type="text/css">
	.st0{fill:#E31B23;}
</style>
<path class="st0" d="M36.3,10.4C27.8,5.2,16.6,8,11.4,16.5C7.9,22.3,8,29.4,11.2,34.9c0.4,0.7,0.8,1.3,1.2,1.9
	c0.3-0.8,0.7-1.5,1.2-2.1c-0.4-0.6-0.8-1.2-1.1-1.9c-2.2-4.7-2.2-10.4,0.8-15.2c4.6-7.5,14.4-9.9,21.9-5.3c6.9,4.2,9.5,12.8,6.3,20
	c-0.3,0.6-0.6,1.2-1,1.8c-0.1,0.1-0.1,0.2-0.2,0.3c0.3,0.8,0.6,1.6,0.9,2.5c0.4-0.5,0.8-1.1,1.1-1.6c0.1-0.1,0.2-0.3,0.3-0.4
	C47.5,26.4,44.7,15.5,36.3,10.4z M21.9,41c-0.1,0.7-0.1,1.5-0.1,2.2c0.7,0.2,1.3,0.4,2,0.5c0-0.1,0-0.2,0-0.2c0-0.7,0-1.3,0.1-2
	C23.2,41.4,22.5,41.2,21.9,41z"/>
<path d="M41.2,36.9c-4.2,5.4-11,7.9-17.5,6.8c0-0.1,0-0.2,0-0.2c0-0.7,0-1.3,0.1-2c6.3,1.2,12.9-1.4,16.5-7.1
	C40.7,35.2,41,36.1,41.2,36.9z"/>
<path d="M21.9,41c-0.1,0.7-0.1,1.5-0.1,2.2c-1.5-0.4-2.9-1-4.2-1.9c-2-1.2-3.7-2.8-5.1-4.6c0.3-0.8,0.7-1.5,1.2-2.1
	c1.3,1.9,2.9,3.6,5,4.9C19.7,40.2,20.8,40.7,21.9,41z"/>
<path d="M19.6,28c-3.2,0-5.8-2.6-5.8-5.8s2.6-5.8,5.8-5.8s5.8,2.6,5.8,5.8S22.8,28,19.6,28z M19.6,18.3c-2.1,0-3.8,1.7-3.8,3.8
	s1.7,3.8,3.8,3.8s3.8-1.7,3.8-3.8S21.7,18.3,19.6,18.3z"/>
<path d="M32.7,13.9c-3.2,0-5.8,2.6-5.8,5.8c0,3.2,2.6,5.8,5.8,5.8c3.2,0,5.8-2.6,5.8-5.8C38.5,16.5,35.9,13.9,32.7,13.9z M32.7,23.5
	c-2.1,0-3.8-1.7-3.8-3.8c0-2.1,1.7-3.8,3.8-3.8c2.1,0,3.8,1.7,3.8,3.8C36.5,21.8,34.8,23.5,32.7,23.5z"/>
<path d="M25.3,30.8c-1.6-1.4-3.5-2.2-5.5-2.2c-2.8,0-5.3,1.6-7.3,4.2c-0.5,0.6-0.9,1.3-1.3,2.1c0.4,0.7,0.8,1.3,1.2,1.9
	c0.3-0.8,0.7-1.5,1.2-2.1c1.6-2.5,3.8-4.1,6.2-4.1c1.6,0,3.1,0.7,4.5,1.9c0.5,0.5,1,1,1.4,1.6c0.3-0.7,0.6-1.3,1-1.8
	C26.3,31.8,25.8,31.3,25.3,30.8z"/>
<path d="M41.5,32.3c-2-3.8-5.1-6.2-8.5-6.2c-3,0-5.6,1.8-7.6,4.7c-0.4,0.5-0.7,1.1-1,1.7c-1.3,2.4-2.1,5.3-2.4,8.5
	c-0.1,0.7-0.1,1.5-0.1,2.2c0.7,0.2,1.3,0.4,2,0.5c0-0.1,0-0.2,0-0.2c0-0.7,0-1.3,0.1-2c0.2-2.8,0.9-5.3,1.8-7.4
	c0.3-0.7,0.6-1.3,1-1.8c1.6-2.6,3.8-4.1,6.3-4.1c3,0,5.7,2.5,7.4,6.3c0.3,0.8,0.6,1.6,0.9,2.5c0.4-0.5,0.8-1.1,1.1-1.6
	c0.1-0.1,0.2-0.3,0.3-0.4C42.3,34,41.9,33.1,41.5,32.3z"/>
</svg>
