<svg xmlns="http://www.w3.org/2000/svg" viewBox="0 0 52 52"><path d="M29.3 38.6c-2.1 0-4.4-.3-7.3-2.9-.5-.5-.6-1.2-.1-1.8.5-.5 1.2-.6 1.8-.1 2.2 1.9 3.7 2.3 5.7 2.3 3.5 0 6-2.5 6-6 0-1.8-.6-3.3-1.6-4.3s-2.5-1.5-4.3-1.5c-2.5 0-4.1 1-5.3 3.4-.3.5-.9.8-1.4.6-.6-.2-1-.7-.9-1.3l.6-12.5c0-.7.6-1.2 1.2-1.2h11.6c.7 0 1.2.6 1.2 1.2s-.6 1.2-1.2 1.2H24.8l-.3 7.5c1.4-1.1 3-1.6 5-1.6 2.5 0 4.6.8 6.1 2.2 1.5 1.5 2.3 3.7 2.3 6.1-.1 5.2-3.6 8.7-8.6 8.7zm-9.6-16.7c0-.8-.4-2.3-2.9-3.3v-2.7c.4.2.7.5.7.8.1.4.5.7 1 .6.4-.1.7-.5.6-1-.3-1.1-1.2-1.9-2.3-2.2v-.6c0-.3-.3-.6-.6-.6s-.6.3-.6.6v.6c-1.4.2-2.4 1.3-2.4 2.7 0 .9.4 2.1 2.4 2.9v3.5c-.7-.2-1.2-.7-1.3-1.3-.1-.4-.5-.7-1-.6-.4.1-.7.5-.6 1 .3 1.4 1.5 2.4 2.9 2.6v.5c0 .3.3.6.6.6s.6-.3.6-.6V25c1.8-.2 2.9-1.4 2.9-3.1zm-4.9-5c0-.5.3-.8.8-1V18c-.4-.3-.8-.6-.8-1.1zm2 6.5v-3c.8.5 1.3 1 1.3 1.6 0 .9-.7 1.2-1.3 1.4z"/></svg>