<svg viewBox="0 0 52 52" xmlns="http://www.w3.org/2000/svg"><path d="m27.5 45.1c-4.2 0-7.7-3.6-7.7-8v-9.8c0-4.4 3.5-8 7.7-8 4.3 0 7.7 3.6 7.7 8v9.8c0 4.4-3.4 8-7.7 8zm0-23.3c-2.9 0-5.2 2.5-5.2 5.5v9.8c0 3 2.3 5.5 5.2 5.5s5.2-2.5 5.2-5.5v-9.8c0-3.1-2.3-5.5-5.2-5.5zm-9.9 12.4c0-.8-.4-2.3-2.9-3.3v-2.7c.4.2.7.5.7.8.1.4.5.7 1 .6.4-.1.7-.5.6-1-.3-1.1-1.2-1.9-2.3-2.2v-.6c0-.3-.3-.6-.6-.6s-.6.3-.6.6v.6c-1.4.2-2.4 1.3-2.4 2.7 0 .9.4 2.1 2.4 2.9v3.5c-.7-.2-1.2-.7-1.3-1.3-.1-.4-.5-.7-1-.6-.4.1-.7.5-.6 1 .3 1.4 1.5 2.4 2.9 2.6v.5c0 .3.3.6.6.6s.6-.3.6-.6v-.5c1.8-.2 2.9-1.4 2.9-3zm-4.9-5.1c0-.5.3-.8.8-1v2.1c-.4-.3-.8-.6-.8-1.1zm2 6.5v-3c.8.5 1.3 1 1.3 1.6 0 .9-.6 1.3-1.3 1.4zm25.3-22c-.3 0-.6-.1-.8-.3-6.5-6.5-17-6.5-23.5 0-.4.4-1.1.4-1.6 0-.4-.4-.4-1.1 0-1.6 7.3-7.3 19.3-7.3 26.6 0 .4.4.4 1.1 0 1.6-.1.2-.4.3-.7.3zm-20.5 4.2c-.3 0-.6-.1-.8-.3-.4-.4-.4-1.1 0-1.6 2.3-2.3 5.5-3.6 8.8-3.6 3.3 0 6.4 1.3 8.8 3.6.4.4.4 1.1 0 1.6-.4.4-1.1.4-1.6 0-1.9-1.9-4.5-3-7.2-3-2.7 0-5.3 1.1-7.2 3-.2.2-.5.3-.8.3z"/></svg>