<svg xmlns="http://www.w3.org/2000/svg" viewBox="0 0 52 52"><path d="M36.6 9.7c.5 0 1 .5 1 1v29.1c0 .5-.5 1-1 1H17.5c-.5 0-1-.5-1-1V10.7c0-.5.5-1 1-1h19.1m0-2H17.5c-1.7 0-3 1.3-3 3v29.1c0 1.7 1.3 3 3 3h19.1c1.7 0 3-1.3 3-3V10.7c0-1.7-1.3-3-3-3z" fill="#E31B23"/><path d="M34.6 35.1h-15c-.5 0-.9-.4-.9-.9s.4-.9.9-.9h15c.5 0 .9.4.9.9s-.4.9-.9.9zm0-6h-15c-.5 0-.9-.4-.9-.9s.4-.9.9-.9h15c.5 0 .9.4.9.9s-.4.9-.9.9zm0-6h-15c-.5 0-.9-.4-.9-.9s.4-.9.9-.9h15c.5 0 .9.4.9.9s-.4.9-.9.9zm0-6h-15c-.5 0-.9-.4-.9-.9s.4-.9.9-.9h15c.5 0 .9.4.9.9s-.4.9-.9.9z"/></svg>