<svg enable-background="new 0 0 200 200" viewBox="0 0 200 200" xmlns="http://www.w3.org/2000/svg"><path d="m100 45c-30.4 0-55 24.7-55 55 0 30.4 24.7 55 55 55 30.4 0 55-24.7 55-55 0-30.4-24.6-55-55-55zm3.2 82.2c0 1.6-1.3 3-3 3s-3-1.3-3-3v-35.1c0-1.6 1.3-3 3-3s3 1.3 3 3zm-2.8-46c-2.6 0-4.7-2.1-4.7-4.7s2.1-4.7 4.7-4.7 4.7 2.1 4.7 4.7-2.1 4.7-4.7 4.7z" fill="none"/><g fill="#231f20"><path d="m100 39c-33.6 0-61 27.3-61 61 0 33.6 27.3 61 61 61 33.6 0 61-27.3 61-61 0-33.6-27.4-61-61-61zm0 116c-30.4 0-55-24.7-55-55 0-30.4 24.7-55 55-55 30.4 0 55 24.7 55 55 0 30.4-24.6 55-55 55z"/><path d="m100.3 89.1c-1.6 0-3 1.3-3 3v35.1c0 1.6 1.3 3 3 3s3-1.3 3-3v-35.1c-.1-1.7-1.4-3-3-3z"/><path d="m100.4 71.8c-2.6 0-4.7 2.1-4.7 4.7s2.1 4.7 4.7 4.7 4.7-2.1 4.7-4.7-2.1-4.7-4.7-4.7z"/></g></svg>