<svg xmlns="http://www.w3.org/2000/svg" viewBox="0 0 52 52"><path d="M26 23.7c-.4 0-.8.1-1.1.2l-5.3-6.1c-.4-.4-1-.5-1.4-.1s-.5 1-.1 1.4l5.2 6c-.4.6-.7 1.2-.7 2 0 1.9 1.5 3.4 3.4 3.4s3.4-1.5 3.4-3.4-1.5-3.4-3.4-3.4zM25.9 41c-.6 0-1-.4-1-1v-.8c0-.6.4-1 1-1s1 .4 1 1v.8c0 .5-.4 1-1 1zM14 28h-.8c-.6 0-1-.4-1-1s.4-1 1-1h.8c.6 0 1 .4 1 1s-.5 1-1 1zm12.2-12c-.6 0-1-.4-1-1v-.8c0-.6.4-1 1-1s1 .4 1 1v.8c0 .5-.5 1-1 1zm12.7 12.2h-.8c-.6 0-1-.4-1-1s.4-1 1-1h.8c.6 0 1 .4 1 1s-.4 1-1 1z"/><path d="M26 44.3c-9.5 0-17.3-7.7-17.3-17.3S16.5 9.7 26 9.7 43.3 17.5 43.3 27 35.5 44.3 26 44.3zm0-32.4c-8.3 0-15.1 6.8-15.1 15.1S17.7 42.1 26 42.1 41.1 35.3 41.1 27 34.3 11.9 26 11.9z" fill="#E31B23"/><path d="M22.5 7.7H25v2c.4 0 .7-.1 1.1-.1h.9v-2h2.2c.8 0 1.5-.7 1.5-1.5s-.7-1.4-1.6-1.4h-6.7c-.8 0-1.5.7-1.5 1.5s.7 1.5 1.6 1.5zm12.8 2.6l1.2.9-1 1.4c.6.4 1.1.8 1.6 1.2l1-1.5 1.2.8c.3.2.6.3.9.3.5 0 .9-.2 1.2-.6.5-.7.3-1.6-.4-2.1l-4-2.8c-.7-.5-1.6-.3-2.1.4-.4.6-.3 1.5.4 2z"/></svg>