<svg xmlns="http://www.w3.org/2000/svg" viewBox="0 0 52 52"><path d="M25 12.4c2.2 0 3.9 1.8 3.9 3.9v7.6c0 2.2-1.8 3.9-3.9 3.9h-7.7c-.2 0-.5.1-.7.2l-6.5 4.5V29c0-.6-.5-1.2-1.1-1.2-2-.1-3.6-1.9-3.6-3.9v-7.6c0-2.2 1.8-3.9 3.9-3.9H25m0-2.3H9.4c-3.4 0-6.1 2.8-6.1 6.1v7.6c0 2.9 2 5.3 4.7 6v2.6c0 .8.4 1.6 1.2 2 .3.2.7.3 1 .3.4 0 .9-.1 1.3-.4l6.2-4.3H25c3.4 0 6.1-2.8 6.1-6.1v-7.6c0-3.4-2.7-6.2-6.1-6.2zm17.4 11.8c2.2 0 3.9 1.7 3.9 3.9v7.6c0 2-1.6 3.7-3.6 3.9-.6 0-1.1.6-1.1 1.2V42l-6.5-4.5c-.2-.1-.4-.2-.7-.2h-7.7c-2.2 0-3.9-1.8-3.9-3.9v-7.6c0-2.2 1.8-3.9 3.9-3.9h15.7m0-2.2H26.8c-3.4 0-6.1 2.7-6.1 6.1v7.6c0 3.4 2.7 6.1 6.1 6.1h7.4l6.2 4.3c.4.3.8.4 1.3.4.4 0 .7-.1 1-.3.7-.4 1.2-1.2 1.2-2v-2.7c2.7-.7 4.7-3.1 4.7-5.9v-7.6c-.1-3.3-2.8-6-6.2-6z" fill="#FFF"/></svg>