<svg xmlns="http://www.w3.org/2000/svg" viewBox="0 0 52 52"><path d="M30.8 26.5h-1.9v-2.6h1.9c.4 0 .8-.4.8-.8s-.4-.8-.8-.8h-1.9v-1.9c0-.4-.4-.8-.8-.8s-.8.4-.8.8v1.9h-2.6v-1.9c0-.4-.4-.8-.8-.8s-.9.3-.9.7v1.9h-2c-.4 0-.8.4-.8.8s.4.8.8.8h2v2.6h-2c-.4 0-.8.4-.8.8s.4.8.8.8h2v2c0 .4.4.8.8.8s.8-.4.8-.8v-2h2.6v2c0 .4.4.8.8.8s.8-.4.8-.8v-2h1.9c.4 0 .8-.4.8-.8s-.3-.7-.7-.7zm-6.2 0v-2.6h2.6v2.6h-2.6z"/><path d="M33.1 5.5H18.6c-1.8 0-3.2 1.4-3.2 3.2v30.9c0 1.8 1.4 3.2 3.2 3.2h14.5c1.8 0 3.2-1.4 3.2-3.2V8.7c0-1.7-1.4-3.2-3.2-3.2zM24.8 39c0-.6.5-1.1 1.1-1.1s1.1.5 1.1 1.1c0 .6-.5 1.1-1.1 1.1s-1.1-.6-1.1-1.1zm9.5-3.9H17.5V14.3h16.9v20.8zM17.5 12.3V8.7c0-.6.5-1.2 1.2-1.2h14.5c.6 0 1.2.5 1.2 1.2v3.6H17.5z" fill="#E31B23"/></svg>