<svg xmlns="http://www.w3.org/2000/svg" viewBox="0 0 52 52"><path d="M29.6 11.3H15.2c-1.7 0-3.2 1.4-3.2 3.2V45.2c0 1.7 1.4 3.2 3.2 3.2h14.4c1.7 0 3.2-1.4 3.2-3.2V14.6c0-1.8-1.4-3.3-3.2-3.3zm-8.2 33.3c0-.6.5-1.1 1.1-1.1.6 0 1.1.5 1.1 1.1 0 .6-.5 1.1-1.1 1.1-.7 0-1.1-.5-1.1-1.1zm9.3-3.9H14.2V20.2h16.5v20.5zM14.2 18.1v-3.5c0-.6.5-1.1 1.1-1.1h14.4c.6 0 1.1.5 1.1 1.1v3.5H14.2z" fill="#E31B23"/><path d="M38.3 4.8H23.9c-1.7 0-3.2 1.4-3.2 3.2v3.4h2.1V7.9c0-.6.5-1.1 1.1-1.1h14.4c.6 0 1.1.5 1.1 1.1v3.5h-8.9c1 .3 1.9 1.1 2.2 2.1h6.7v20.6h-6.5v7.8h5.4c1.7 0 3.2-1.4 3.2-3.2V7.9c-.1-1.7-1.5-3.1-3.2-3.1z"/></svg>