<svg enable-background="new 0 0 200 200" viewBox="0 0 200 200" xmlns="http://www.w3.org/2000/svg"><g fill="none"><path d="m71 150c0 1.8.7 3.5 2 4.8s3 2 4.8 2l44.2.1c1.8 0 3.5-.7 4.8-2s2-3 2-4.8v-13.4l-57.8-.1zm28.9-8.5c2.6 0 4.7 2.1 4.7 4.7s-2.1 4.7-4.7 4.7-4.7-2.1-4.7-4.7 2.1-4.7 4.7-4.7z"/><path d="m134.8 113.8h19.1l.2-70.9h-21.3c1.4 2.1 2.2 4.6 2.2 7.1z"/><path d="m131.2 41c.3.3.6.6.8.9-.2-.3-.5-.6-.8-.9z"/><path d="m147 139.9c1.8 0 3.5-.7 4.8-2s2-3 2-4.8v-13.4h-19.1v-5.4l-.1 25.6z"/><path d="m122.2 43.2-44.2-.1c-1.8 0-3.5.7-4.8 2s-2 3-2 4.8v4l57.8.1v-4c0-1.8-.7-3.5-2-4.8s-3-2-4.8-2z"/><path d="m147.2 26.2-44.2-.1c-1.8 0-3.5.7-4.8 2s-2 3-2 4.8v4l57.8.1v-4c0-1.8-.7-3.5-2-4.8s-3-2-4.8-2z"/><path d="m71 130.7 57.8.1.2-70.9-57.8-.1z"/></g><path d="m134.7 139.9.1-25.6v-.5l.1-63.8c0-2.6-.8-5-2.2-7.1-.2-.3-.5-.6-.7-.9-.3-.3-.5-.6-.8-.9-2.4-2.4-5.6-3.7-9-3.8l-32-.1h-12.3c-3.4 0-6.6 1.3-9 3.7s-3.7 5.6-3.8 9v6.8.2.2l-.2 93c0 3.4 1.3 6.6 3.7 9s5.6 3.7 9 3.8l44.2.1c3.4 0 6.6-1.3 9-3.7s3.7-5.6 3.8-9v-4.3zm-5.9 10.2c0 1.8-.7 3.5-2 4.8s-3 2-4.8 2l-44.2-.1c-1.8 0-3.5-.7-4.8-2s-2-3-2-4.8v-13.4l57.8.1zm0-19.3-57.8-.1.2-70.9 57.8.1zm.2-76.8-57.8-.1v-4c0-1.8.7-3.5 2-4.8s3-2 4.8-2l44.2.1c1.8 0 3.5.7 4.8 2s2 3 2 4.8z" fill="#231f20"/><path d="m99.9 150.8c2.6 0 4.7-2.1 4.7-4.7s-2.1-4.7-4.7-4.7-4.7 2.1-4.7 4.7 2.1 4.7 4.7 4.7z" fill="#231f20"/><path d="m156.2 24c-2.4-2.4-5.6-3.7-9-3.8h-44.2c-3.4 0-6.6 1.3-9 3.7s-3.7 5.6-3.8 9v4.3l32 .1c3.4 0 6.6 1.3 9 3.8.3.3.6.6.8.9.3.3.5.6.7.9h21.3l-.2 70.9h-19.1v.5 5.4h19.1v13.4c0 1.8-.7 3.5-2 4.8s-3 2-4.8 2h-12.3v5.9h12.3c3.4 0 6.6-1.3 9-3.7s3.7-5.6 3.8-9l.1-100.1c0-3.4-1.3-6.6-3.7-9zm-2.2 13-57.8-.1v-4c0-1.8.7-3.5 2-4.8s3-2 4.8-2l44.2.1c1.8 0 3.5.7 4.8 2s2 3 2 4.8z" fill="#e31b23"/></svg>