<svg viewBox="0 0 50 50" xmlns="http://www.w3.org/2000/svg"><path d="M0 0h50v50H0z" fill="none"/><g fill="#231f20"><path d="M13.21 17.26a.85.85 0 0 1-.62-.26 7 7 0 0 1-.1-9.9l.1-.1a.88.88 0 1 1 1.24 1.24 5.29 5.29 0 0 0 0 7.48.87.87 0 0 1 0 1.24.86.86 0 0 1-.6.25z"/><path d="M10.8 20.86a.85.85 0 0 1-.62-.26 12 12 0 0 1 0-17 .88.88 0 0 1 1.24.11.87.87 0 0 1 0 1.13 10.3 10.3 0 0 0 0 14.56.87.87 0 0 1 0 1.24.86.86 0 0 1-.6.25zm18.02-10.12h1.76a12 12 0 0 0-3.43-7.17.88.88 0 0 0-1.24.11.87.87 0 0 0 0 1.13 10.25 10.25 0 0 1 2.91 5.93zm-3.89.37a3 3 0 0 1 1.42-.37h.31A7 7 0 0 0 24.73 7a.88.88 0 0 0-1.24 1.24 5.15 5.15 0 0 1 1.44 2.87z"/></g><path d="M42.94 17.07v-3.33a3 3 0 0 0-3-3h-13.6a3 3 0 0 0-3 3v29.07a3 3 0 0 0 3 3h13.6a3 3 0 0 0 3-3V19.07zm-16.6-4.33h13.6a1 1 0 0 1 1 1v3.33h-15.6v-3.33a1 1 0 0 1 1-1zm6.8 30.41a1 1 0 1 1 1-1 1 1 0 0 1-1 1zm7.8-4.67h-15.6V19.07h15.6z" fill="#e21b23"/><path d="M23.34 21.6l-1.81-6a1 1 0 0 0-.27-.42 4.12 4.12 0 1 0-5.79-.65 4.59 4.59 0 0 0 .53.55 1 1 0 0 0-.14.24L6.11 44.77A1 1 0 0 0 8 45.4l1.54-4.67L23.34 32zM17.73 16a3.94 3.94 0 0 0 1.87 0 .49.49 0 0 0 0 .17l.74 2.48-4.51 3zm-2.9 8.78L21 20.63l2.31 7.68-8.46-3.5zm-4.29 13l3.65-11 8.36 3.46z" fill="#231f20"/></svg>