<svg xmlns="http://www.w3.org/2000/svg" viewBox="0 0 52 52"><path d="M12.4 16.7c-.2 0-.3 0-.5-.1l-3.9-2c-.5-.3-.8-.9-.5-1.5.3-.5.9-.8 1.5-.5l3.9 2c.5.3.8.9.5 1.5-.2.4-.6.6-1 .6zm5.6-6c-.4 0-.7-.2-.9-.5l-2.3-3.8c-.3-.5-.1-1.2.4-1.5.5-.3 1.2-.1 1.5.4L18.9 9c.3.5.1 1.2-.4 1.5-.1.1-.3.2-.5.2zm8-2.2s-.1 0 0 0c-.6 0-1.1-.5-1.1-1.1V3c0-.6.5-1.1 1.1-1.1.6 0 1.1.5 1.1 1.1v4.4c0 .6-.5 1.1-1.1 1.1zm7.9 2.4c-.2 0-.4-.1-.6-.2-.5-.3-.7-1-.3-1.5l2.4-3.7c.3-.5 1-.7 1.5-.3.5.3.7 1 .3 1.5l-2.4 3.7c-.2.3-.6.5-.9.5zm5.4 6.1c-.4 0-.8-.2-1-.6-.3-.5 0-1.2.5-1.5l4-1.9c.5-.3 1.2 0 1.5.5.3.5 0 1.2-.5 1.5l-4 1.9c-.1.1-.3.1-.5.1z"/><path d="M32.8 12.3H19.2c-1.6 0-3 1.4-3 3v29c0 1.6 1.4 3 3 3h13.6c1.6 0 3-1.4 3-3v-29c0-1.6-1.4-3-3-3zM25 43.7c0-.6.4-1 1-1s1 .4 1 1-.4 1-1 1-1-.4-1-1zm8.8-3.6H18.2V20.6h15.6v19.5zM18.2 18.6v-3.3c0-.5.5-1 1-1h13.6c.5 0 1 .5 1 1v3.3H18.2z" fill="#E31B23"/></svg>