<svg xmlns="http://www.w3.org/2000/svg" viewBox="0 0 52 52"><path d="M30 23.5h-3.5V20c0-.6-.4-1-1-1s-1 .4-1 1v3.5H21c-.6 0-1 .4-1 1s.4 1 1 1h3.5V29c0 .6.4 1 1 1s1-.4 1-1v-3.5H30c.6 0 1-.4 1-1s-.5-1-1-1z" fill="#E31B23"/><path d="M32.7 5.8H18.2C16.4 5.8 15 7.2 15 9v31c0 1.8 1.4 3.2 3.2 3.2h14.5c1.8 0 3.2-1.4 3.2-3.2V9c0-1.7-1.4-3.2-3.2-3.2zm-8.3 33.5c0-.6.5-1.1 1.1-1.1s1.1.5 1.1 1.1c0 .6-.5 1.1-1.1 1.1s-1.1-.6-1.1-1.1zm9.5-3.9H17.1V14.6H34v20.8zM17.1 12.6V9c0-.6.5-1.2 1.2-1.2h14.5c.6 0 1.2.5 1.2 1.2v3.6H17.1z"/></svg>