<svg enable-background="new 0 0 200 200" viewBox="0 0 200 200" xmlns="http://www.w3.org/2000/svg"><g fill="none"><path d="m71 130.7 57.8.1.2-70.9-57.8-.1zm15.4-38.1 10.8-13c.4-.5 1-.9 1.6-1.1.4-.2.8-.3 1.3-.3.4 0 .9.1 1.3.3.6.2 1.2.6 1.6 1.1l10.8 13c1 1.3.9 3.1-.4 4.2-.6.5-1.2.7-1.9.7-.9 0-1.7-.4-2.3-1.1l-6.2-7.4v22.8c0 1.6-1.3 3-3 3s-3-1.3-3-3v-22.8l-6.1 7.4c-1 1.3-2.9 1.4-4.2.4-1.2-1.1-1.4-2.9-.3-4.2z"/><path d="m71 150c0 1.8.7 3.5 2 4.8s3 2 4.8 2l44.2.1c1.8 0 3.5-.7 4.8-2s2-3 2-4.8v-13.4l-57.8-.1zm28.9-8.5c2.6 0 4.7 2.1 4.7 4.7s-2.1 4.7-4.7 4.7-4.7-2.1-4.7-4.7 2.1-4.7 4.7-4.7z"/><path d="m122.2 43.2-44.2-.1c-1.8 0-3.5.7-4.8 2s-2 3-2 4.8v4l57.8.1v-4c0-1.8-.7-3.5-2-4.8s-3-2-4.8-2z"/></g><path d="m90.9 96.4 6.1-7.4v22.8c0 1.6 1.3 3 3 3s3-1.3 3-3v-22.8l6.1 7.4c.6.7 1.4 1.1 2.3 1.1.7 0 1.3-.2 1.9-.7 1.3-1 1.4-2.9.4-4.2l-10.8-13c-.4-.5-1-.9-1.6-1.1-.4-.2-.8-.3-1.3-.3s-.9.1-1.3.3c-.6.2-1.2.6-1.6 1.1l-10.8 13c-1 1.3-.9 3.1.4 4.2 1.3 1 3.2.8 4.2-.4z" fill="#231f20"/><path d="m131.2 41c-2.4-2.4-5.6-3.7-9-3.8h-44.2c-3.4 0-6.6 1.3-9 3.7s-3.7 5.6-3.8 9v6.8.2.2l-.2 93c0 3.4 1.3 6.6 3.7 9s5.6 3.7 9 3.8l44.2.1c3.4 0 6.6-1.3 9-3.7s3.7-5.6 3.8-9l.2-100.3c0-3.4-1.3-6.6-3.7-9zm-2.4 109.1c0 1.8-.7 3.5-2 4.8s-3 2-4.8 2l-44.2-.1c-1.8 0-3.5-.7-4.8-2s-2-3-2-4.8v-13.4l57.8.1zm0-19.3-57.8-.1.2-70.9 57.8.1zm.2-76.8-57.8-.1v-4c0-1.8.7-3.5 2-4.8s3-2 4.8-2l44.2.1c1.8 0 3.5.7 4.8 2s2 3 2 4.8z" fill="#e31b23"/><path d="m99.9 150.8c2.6 0 4.7-2.1 4.7-4.7s-2.1-4.7-4.7-4.7-4.7 2.1-4.7 4.7 2.1 4.7 4.7 4.7z" fill="#e31b23"/></svg>