<svg enable-background="new 0 0 200 200" viewBox="0 0 200 200" xmlns="http://www.w3.org/2000/svg"><g fill="none"><path d="m71 150c0 1.8.7 3.5 2 4.8s3 2 4.8 2l44.2.1c1.8 0 3.5-.7 4.8-2s2-3 2-4.8v-13.4l-57.8-.1zm28.9-8.5c2.6 0 4.7 2.1 4.7 4.7s-2.1 4.7-4.7 4.7-4.7-2.1-4.7-4.7 2.1-4.7 4.7-4.7z"/><path d="m36.4 127.4c0 .9.3 1.7 1 2.3.6.6 1.5 1 2.3 1h25.3v-14.7h-28.7zm17.6-7.4c1.7 0 3 1.3 3 3s-1.3 3-3 3-3-1.3-3-3c0-1.6 1.3-3 3-3z"/><path d="m36.4 110.2h28.8v-36.9h-28.8z"/><path d="m122.2 43.2-44.2-.1c-1.8 0-3.5.7-4.8 2s-2 3-2 4.8v4l57.8.1v-4c0-1.8-.7-3.5-2-4.8s-3-2-4.8-2z"/><path d="m39.8 59.7c-.9 0-1.7.3-2.3 1-.6.6-1 1.5-1 2.3v4.4h28.8v-7.7z"/><path d="m71 130.7 57.8.1.2-70.9-57.8-.1z"/><path d="m134.8 115.9v14.7l25.5-.1c.9 0 1.7-.4 2.3-1s1-1.5 1-2.3l-.1-11.4zm11.2 9.9c-1.7 0-3-1.3-3-3s1.3-3 3-3 3 1.3 3 3c0 1.6-1.3 3-3 3z"/><path d="m134.8 110 28.7-.2-.2-36.8-28.4.1z"/><path d="m163.3 67v-4.4c0-1.8-1.5-3.3-3.3-3.3l-25 .1v7.7z"/></g><path d="m146 119.8c-1.7 0-3 1.4-3 3 0 1.7 1.4 3 3 3 1.7 0 3-1.4 3-3 0-1.7-1.3-3-3-3z" fill="#231f20"/><path d="m54 126c1.7 0 3-1.3 3-3s-1.4-3-3-3c-1.7 0-3 1.3-3 3s1.3 3 3 3z" fill="#231f20"/><path d="m99.9 150.8c2.6 0 4.7-2.1 4.7-4.7s-2.1-4.7-4.7-4.7-4.7 2.1-4.7 4.7 2.1 4.7 4.7 4.7z" fill="#231f20"/><path d="m169.2 70v-7.4c0-5.1-4.2-9.2-9.2-9.2l-25 .1v-3.6c0-3.4-1.3-6.6-3.7-9s-5.6-3.7-9-3.8l-44.3.1c-3.4 0-6.6 1.3-9 3.7s-3.7 5.6-3.8 9v5.4-1.5h-25.5c-2.5 0-4.8 1-6.5 2.7s-2.7 4.1-2.7 6.5v7.3s0 0 0 0v57.1c0 5.1 4.1 9.2 9.2 9.2h25.3v13.3c0 3.4 1.3 6.6 3.7 9s5.6 3.7 9 3.8l44.2.1c3.4 0 6.6-1.3 9-3.7s3.7-5.6 3.8-9v-13.7l25.6-.1c2.5 0 4.8-1 6.5-2.7 1.7-1.8 2.7-4.1 2.7-6.5zm-104.1 60.8h-25.3c-.9 0-1.7-.3-2.3-1-.6-.6-1-1.5-1-2.3v-11.4h28.7zm.1-20.6h-28.7v-36.9h28.8zm-28.8-42.8v-4.4c0-.9.3-1.7 1-2.3.6-.6 1.5-1 2.3-1h25.5v7.7zm92.4 82.7c0 1.8-.7 3.5-2 4.8s-3 2-4.8 2l-44.2-.1c-1.8 0-3.5-.7-4.8-2s-2-3-2-4.8v-13.4l57.8.1zm0-19.3-57.8-.1.2-70.9 57.8.1zm.2-76.8-57.8-.1v-4c0-1.8.7-3.5 2-4.8s3-2 4.8-2l44.2.1c1.8 0 3.5.7 4.8 2s2 3 2 4.8zm34.5 55.8-28.7.1.1-36.9 28.4-.1zm-3.6-50.4c1.8 0 3.3 1.5 3.3 3.3v4.4l-28.4.1v-7.7zm2.7 70.1c-.6.6-1.5 1-2.3 1l-25.5.1v-14.7l28.7-.1.1 11.4c0 .8-.4 1.6-1 2.3z" fill="#231f20"/></svg>