<svg enable-background="new 0 0 200 200" viewBox="0 0 200 200" xmlns="http://www.w3.org/2000/svg"><g fill="none"><path d="m71 130.7 57.8.1.2-70.9-57.8-.1zm31.4-14c-.7.7-1.6 1-2.5 1-1 0-1.9-.3-2.6-1-.7-.6-1.1-1.5-1.1-2.7 0-1 .4-1.9 1.1-2.6s1.6-1.1 2.6-1.1 1.9.4 2.6 1.1 1.1 1.6 1.1 2.6c-.1 1.2-.4 2-1.2 2.7zm-2.5-43.7c6.7 0 12.1 5.4 12.1 12.1 0 7.1-3.4 10.3-6 12.6-2.2 2-3.2 3.1-3.2 5.7 0 1.6-1.3 3-3 3s-3-1.3-3-3c0-5.3 2.8-7.9 5.1-10s4.1-3.8 4.1-8.3c0-3.4-2.8-6.2-6.2-6.2s-6.2 2.8-6.2 6.2c0 1.6-1.3 3-3 3s-3-1.3-3-3c.1-6.6 5.6-12.1 12.3-12.1z"/><path d="m71 150c0 1.8.7 3.5 2 4.8s3 2 4.8 2l44.2.1c1.8 0 3.5-.7 4.8-2s2-3 2-4.8v-13.4l-57.8-.1zm28.9-8.5c2.6 0 4.7 2.1 4.7 4.7s-2.1 4.7-4.7 4.7-4.7-2.1-4.7-4.7 2.1-4.7 4.7-4.7z"/><path d="m122.2 43.2-44.2-.1c-1.8 0-3.5.7-4.8 2s-2 3-2 4.8v4l57.8.1v-4c0-1.8-.7-3.5-2-4.8s-3-2-4.8-2z"/></g><path d="m99.9 110.4c-1 0-1.9.4-2.6 1.1s-1.1 1.6-1.1 2.6c0 1.2.4 2.1 1.1 2.7s1.6 1 2.6 1 1.8-.3 2.5-1 1.1-1.5 1.1-2.7c0-1-.4-1.9-1.1-2.6-.6-.8-1.5-1.1-2.5-1.1z"/><path d="m90.7 88.1c1.6 0 3-1.3 3-3 0-3.4 2.8-6.2 6.2-6.2s6.2 2.8 6.2 6.2c0 4.5-1.8 6.2-4.1 8.3s-5.1 4.8-5.1 10c0 1.6 1.3 3 3 3s3-1.3 3-3c0-2.6 1-3.7 3.2-5.7 2.5-2.3 6-5.6 6-12.6 0-6.7-5.4-12.1-12.1-12.1s-12.1 5.4-12.1 12.1c-.2 1.7 1.2 3 2.8 3z" fill="#231f20"/><path d="m131.2 41c-2.4-2.4-5.6-3.7-9-3.8h-44.2c-3.4 0-6.6 1.3-9 3.7s-3.7 5.6-3.8 9v6.8.2.2l-.2 93c0 3.4 1.3 6.6 3.7 9s5.6 3.7 9 3.8l44.2.1c3.4 0 6.6-1.3 9-3.7s3.7-5.6 3.8-9l.2-100.3c0-3.4-1.3-6.6-3.7-9zm-2.4 109.1c0 1.8-.7 3.5-2 4.8s-3 2-4.8 2l-44.2-.1c-1.8 0-3.5-.7-4.8-2s-2-3-2-4.8v-13.4l57.8.1zm0-19.3-57.8-.1.2-70.9 57.8.1zm.2-76.8-57.8-.1v-4c0-1.8.7-3.5 2-4.8s3-2 4.8-2l44.2.1c1.8 0 3.5.7 4.8 2s2 3 2 4.8z" fill="#e31b23"/><path d="m99.9 150.8c2.6 0 4.7-2.1 4.7-4.7s-2.1-4.7-4.7-4.7-4.7 2.1-4.7 4.7 2.1 4.7 4.7 4.7z" fill="#e31b23"/></svg>