<svg enable-background="new 0 0 200 200" viewBox="0 0 200 200" xmlns="http://www.w3.org/2000/svg"><g fill="#e31b23"><path d="m131.2 41c-2.4-2.4-5.6-3.7-9-3.8h-44.2c-3.4 0-6.6 1.3-9 3.7s-3.7 5.6-3.8 9v6.8.2.2l-.2 93c0 3.4 1.3 6.6 3.7 9s5.6 3.7 9 3.8l44.2.1c3.4 0 6.6-1.3 9-3.7s3.7-5.6 3.8-9l.2-100.3c0-3.4-1.3-6.6-3.7-9zm-60 18.8 57.8.1-.2 70.9-57.8-.1zm2-14.7c1.3-1.3 3-2 4.8-2l44.2.1c1.8 0 3.5.7 4.8 2s2 3 2 4.8v4l-57.8-.1v-4c0-1.8.7-3.6 2-4.8zm53.6 109.8c-1.3 1.3-3 2-4.8 2l-44.2-.1c-1.8 0-3.5-.7-4.8-2s-2-3-2-4.8v-13.4l57.8.1v13.4c0 1.8-.7 3.6-2 4.8z"/><path d="m99.9 141.5c-2.6 0-4.7 2.1-4.7 4.7s2.1 4.7 4.7 4.7 4.7-2.1 4.7-4.7-2.1-4.7-4.7-4.7z"/></g></svg>