<svg enable-background="new 0 0 200 200" viewBox="0 0 200 200" xmlns="http://www.w3.org/2000/svg"><g fill="none"><path d="m85.9 96.7h19.4v15.1h-19.4z"/><path d="m71 150c0 1.8.7 3.5 2 4.8s3 2 4.8 2l44.2.1c1.8 0 3.5-.7 4.8-2s2-3 2-4.8v-13.4l-57.8-.1zm28.9-8.5c2.6 0 4.7 2.1 4.7 4.7s-2.1 4.7-4.7 4.7-4.7-2.1-4.7-4.7 2.1-4.7 4.7-4.7z"/><path d="m71 130.7 57.8.1.2-70.9-57.8-.1zm9-37c0-1.6 1.3-3 3-3h19v-6.4c0-5.8 4.7-10.4 10.4-10.4s10.4 4.7 10.4 10.4v6.5c0 1.6-1.3 3-3 3s-3-1.3-3-3v-6.5c0-2.5-2-4.5-4.5-4.5s-4.5 2-4.5 4.5v6.4h.4c1.6 0 3 1.3 3 3v21c0 1.6-1.3 3-3 3h-25.2c-1.6 0-3-1.3-3-3z"/><path d="m122.2 43.2-44.2-.1c-1.8 0-3.5.7-4.8 2s-2 3-2 4.8v4l57.8.1v-4c0-1.8-.7-3.5-2-4.8s-3-2-4.8-2z"/></g><path d="m83 117.7h25.3c1.6 0 3-1.3 3-3v-21c0-1.6-1.3-3-3-3h-.4v-6.4c0-2.5 2-4.5 4.5-4.5s4.5 2 4.5 4.5v6.5c0 1.6 1.3 3 3 3s3-1.3 3-3v-6.5c0-5.8-4.7-10.4-10.4-10.4s-10.4 4.7-10.4 10.4v6.4h-19.1c-1.6 0-3 1.3-3 3v21c0 1.6 1.3 3 3 3zm2.9-21h19.4v15.1h-19.4z" fill="#231f20"/><path d="m131.2 41c-2.4-2.4-5.6-3.7-9-3.8h-44.2c-3.4 0-6.6 1.3-9 3.7s-3.7 5.6-3.8 9v6.8.2.2l-.2 93c0 3.4 1.3 6.6 3.7 9s5.6 3.7 9 3.8l44.2.1c3.4 0 6.6-1.3 9-3.7s3.7-5.6 3.8-9l.2-100.3c0-3.4-1.3-6.6-3.7-9zm-2.4 109.1c0 1.8-.7 3.5-2 4.8s-3 2-4.8 2l-44.2-.1c-1.8 0-3.5-.7-4.8-2s-2-3-2-4.8v-13.4l57.8.1zm0-19.3-57.8-.1.2-70.9 57.8.1zm.2-76.8-57.8-.1v-4c0-1.8.7-3.5 2-4.8s3-2 4.8-2l44.2.1c1.8 0 3.5.7 4.8 2s2 3 2 4.8z" fill="#231f20"/><path d="m99.9 150.8c2.6 0 4.7-2.1 4.7-4.7s-2.1-4.7-4.7-4.7-4.7 2.1-4.7 4.7 2.1 4.7 4.7 4.7z" fill="#231f20"/></svg>