<svg viewBox="0 0 52 52" xmlns="http://www.w3.org/2000/svg"><path d="m29.6 23.5-4.1-3.2c-.4-.3-1.1-.3-1.4.2s-.3 1.1.2 1.4l2 1.5h-16.2c-.5 0-.9.4-.9.9s.4.9.9.9h16.1l-1.9 1.5c-.4.3-.5 1-.2 1.4.2.3.5.4.8.4.2 0 .4-.1.6-.2l4.1-3.2c.2-.2.4-.5.4-.8 0-.4-.1-.6-.4-.8z" fill="#e31b23"/><path d="m36.9 12.5v-3.6c0-1.8-1.4-3.2-3.2-3.2h-14.5c-1.8 0-3.2 1.4-3.2 3.2v3.6 2 8.9h2v-8.9h16.9v20.7h-16.9v-10h-2v14.7c0 1.8 1.4 3.2 3.2 3.2h14.5c1.8 0 3.2-1.4 3.2-3.2v-25.4zm-10.5 27.7c-.6 0-1.1-.5-1.1-1.1s.5-1.1 1.1-1.1 1.1.5 1.1 1.1-.5 1.1-1.1 1.1zm8.5-27.7h-16.9v-3.6c0-.6.5-1.2 1.2-1.2h14.5c.6 0 1.2.5 1.2 1.2z"/></svg>