<svg xmlns="http://www.w3.org/2000/svg" viewBox="0 0 52 52"><path d="M30.5 26.8L28 24.3l2.5-2.5c.4-.4.4-1 0-1.4s-1-.4-1.4 0l-2.5 2.5-2.5-2.5c-.4-.4-1-.4-1.4 0s-.4 1 0 1.4l2.5 2.5-2.5 2.5c-.4.4-.4 1 0 1.4.2.2.5.3.7.3s.5-.1.7-.3l2.5-2.5 2.5 2.5c.2.2.5.3.7.3s.5-.1.7-.3c.4-.4.4-1 0-1.4z"/><path d="M33.8 5.6H19.4c-1.8 0-3.2 1.4-3.2 3.2v30.9c0 1.8 1.4 3.2 3.2 3.2h14.5c1.8 0 3.2-1.4 3.2-3.2V8.8C37 7 35.6 5.6 33.8 5.6zM25.5 39c0-.6.5-1.1 1.1-1.1s1.1.5 1.1 1.1c0 .6-.5 1.1-1.1 1.1s-1.1-.5-1.1-1.1zm9.5-3.9H18.2V14.4H35v20.7zM18.2 12.4V8.8c0-.6.5-1.2 1.2-1.2h14.5c.6 0 1.2.5 1.2 1.2v3.6H18.2z" fill="#E31B23"/></svg>