<svg enable-background="new 0 0 200 200" viewBox="0 0 200 200" xmlns="http://www.w3.org/2000/svg"><path d="m122.2 60.2-44.2-.1c-1.8 0-3.5.7-4.8 2s-2 3-2 4.8v4l57.8.1v-4c0-1.8-.7-3.5-2-4.8s-3-2-4.8-2z" fill="none"/><path d="m71 147.7 57.8.1.2-70.9-57.8-.1z" fill="none"/><path d="m71 167c0 1.8.7 3.5 2 4.8s3 2 4.8 2l44.2.1c1.8 0 3.5-.7 4.8-2s2-3 2-4.8v-13.4l-57.8-.1zm28.9-8.5c2.6 0 4.7 2.1 4.7 4.7s-2.1 4.7-4.7 4.7-4.7-2.1-4.7-4.7 2.1-4.7 4.7-4.7z" fill="none"/><g fill="#231f20"><path d="m54.9 55.5-13.6-6.9c-1.5-.7-3.2-.2-4 1.3-.7 1.5-.2 3.2 1.3 4l13.6 6.9c.4.2.9.3 1.3.3 1.1 0 2.1-.6 2.6-1.6.8-1.5.3-3.3-1.2-4z"/><path d="m72.9 40.3c.5 0 1.1-.1 1.5-.4 1.4-.8 1.8-2.7 1-4.1l-7.9-13c-.8-1.4-2.7-1.8-4.1-1s-1.8 2.7-1 4.1l7.9 13c.7.9 1.6 1.4 2.6 1.4z"/><path d="m100.3 32.9c1.6 0 3-1.3 3-2.9l.1-15.2c0-1.6-1.3-3-2.9-3-1.6 0-2.9 1.3-3 2.9l-.1 15.2c-.1 1.6 1.2 3 2.9 3z"/><path d="m137.2 22.6c-1.4-.9-3.2-.5-4.1.9l-8.1 12.9c-.9 1.4-.5 3.2.9 4.1.5.3 1 .5 1.6.5 1 0 1.9-.5 2.5-1.4l8.1-12.9c.8-1.4.4-3.2-.9-4.1z"/><path d="m162.6 51.2c-.7-1.5-2.5-2.1-4-1.4l-13.6 6.7c-1.5.7-2.1 2.5-1.4 4 .5 1 1.6 1.7 2.7 1.7.4 0 .9-.1 1.3-.3l13.7-6.7c1.4-.7 2.1-2.5 1.3-4z"/></g><path d="m122.2 54.3-44.2-.1c-3.4 0-6.6 1.3-9 3.7s-3.7 5.6-3.8 9v6.8.2.2l-.2 93c0 3.4 1.3 6.6 3.7 9s5.6 3.7 9 3.8l44.2.1c3.4 0 6.6-1.3 9-3.7s3.7-5.6 3.8-9l.2-100.3c0-3.4-1.3-6.6-3.7-9s-5.6-3.7-9-3.7zm6.6 112.8c0 1.8-.7 3.5-2 4.8s-3 2-4.8 2l-44.2-.1c-1.8 0-3.5-.7-4.8-2s-2-3-2-4.8v-13.4l57.8.1zm0-19.3-57.8-.1.2-70.9 57.8.1zm.2-76.8-57.8-.1v-4c0-1.8.7-3.5 2-4.8s3-2 4.8-2l44.2.1c1.8 0 3.5.7 4.8 2s2 3 2 4.8z" fill="#e31b23"/><path d="m99.9 167.8c2.6 0 4.7-2.1 4.7-4.7s-2.1-4.7-4.7-4.7-4.7 2.1-4.7 4.7 2.1 4.7 4.7 4.7z" fill="#e31b23"/></svg>