<svg enable-background="new 0 0 200 200" viewBox="0 0 200 200" xmlns="http://www.w3.org/2000/svg"><path d="m100 45c-30.4 0-55 24.7-55 55 0 30.4 24.7 55 55 55 30.4 0 55-24.7 55-55 0-30.4-24.6-55-55-55zm2 80.6v4.1c0 1.6-1.3 3-3 3s-3-1.3-3-3v-4.5c-5.6-1.4-10.2-5.8-11.4-11.4-.4-1.6.6-3.2 2.2-3.5 1.6-.4 3.2.6 3.5 2.2 1 4.2 5.1 7.3 9.8 7.3 5.5 0 10-4.1 10-9.2 0-4.4-6.5-7.3-10.8-9.3l-.8-.4c-5.1-2.2-11.5-5.1-11.5-12 0-5.6 3.8-10.3 9.1-11.9v-4.5c0-1.6 1.3-3 3-3s3 1.3 3 3v4c5.4.7 9.9 4.6 11.1 9.8.4 1.6-.6 3.2-2.2 3.5-1.6.4-3.2-.6-3.5-2.2-.7-3.1-3.7-5.3-7.1-5.3-4 0-7.3 3-7.3 6.7 0 2.9 3 4.4 8 6.7l.8.4c5.3 2.4 14.3 6.5 14.3 14.6-.1 7.7-6.3 14-14.2 14.9z" fill="none"/><path d="m101.8 96-.8-.4c-5-2.3-8-3.8-8-6.7 0-3.7 3.3-6.7 7.3-6.7 3.4 0 6.4 2.2 7.1 5.3.4 1.6 1.9 2.6 3.5 2.2s2.6-1.9 2.2-3.5c-1.2-5.2-5.7-9-11.1-9.8v-4c0-1.6-1.3-3-3-3s-3 1.3-3 3v4.6c-5.3 1.7-9.1 6.4-9.1 11.9 0 6.9 6.4 9.8 11.5 12.1l.8.4c4.3 1.9 10.8 4.9 10.8 9.3 0 5.1-4.5 9.2-10 9.2-4.7 0-8.8-3.1-9.8-7.3-.4-1.6-1.9-2.6-3.5-2.2s-2.6 1.9-2.2 3.5c1.3 5.6 5.8 10 11.4 11.4v4.5c0 1.6 1.3 3 3 3s3-1.3 3-3v-4.1c7.9-.9 14.1-7.3 14.1-15 .1-8.3-8.9-12.3-14.2-14.7z" fill="#231f20"/><path d="m100 39c-33.6 0-61 27.3-61 61 0 33.6 27.3 61 61 61 33.6 0 61-27.3 61-61 0-33.6-27.4-61-61-61zm0 116c-30.4 0-55-24.7-55-55 0-30.4 24.7-55 55-55 30.4 0 55 24.7 55 55 0 30.4-24.6 55-55 55z" fill="#e31b23"/></svg>