<svg viewBox="0 0 52 52" xmlns="http://www.w3.org/2000/svg"><path d="m25.3 42.8c-10 0-18.1-8.1-18.1-18.1s8.1-18.1 18.1-18.1 18.1 8.1 18.1 18.1-8.1 18.1-18.1 18.1zm0-34c-8.8 0-15.9 7.2-15.9 15.9s7.1 15.9 15.9 15.9 15.9-7.1 15.9-15.9-7.2-15.9-15.9-15.9z" fill="#e31b23"/><path d="m31 28.8c0-1.3-.7-3.8-4.9-5.5v-4.7c.7.3 1.3.8 1.4 1.6.2.7.8 1.1 1.5.9s1.1-.8.9-1.5c-.4-1.8-2-3.2-3.9-3.6v-1c0-.5-.4-.9-.9-.9s-.9.4-.9.9v1c-2.3.4-4 2.2-4 4.4 0 1.4.7 3.4 4 4.9v6c-1.2-.3-2.1-1.2-2.4-2.3-.1-.7-.8-1.1-1.5-.9s-1.1.8-.9 1.5c.5 2.3 2.5 4 4.8 4.3v.9c0 .5.4.9.9.9s.9-.4.9-.9v-.9c3.1-.5 5-2.4 5-5.1zm-8.1-8.5c0-.9.6-1.6 1.5-1.8v3.9c-.9-.5-1.5-1.2-1.5-2.1zm3.3 10.9v-5.2c1.5.8 2.4 1.8 2.4 2.8-.1 1.7-1.3 2.2-2.4 2.4z"/></svg>