<svg xmlns="http://www.w3.org/2000/svg" width="1024" height="1024" viewBox="0 0 1024 1024"><title/><path fill="#999" d="M301.995 1004.8c-20.181-13.483-38.101-29.995-53.077-49.067-16.341-19.755-31.488-40.533-45.397-62.037-32.683-47.787-58.24-100.053-75.947-155.136-21.333-64.085-31.701-125.44-31.701-185.472 0-66.987 14.507-125.44 42.752-174.507 20.907-38.4 52.053-70.528 89.6-93.099 36.267-22.613 78.507-34.987 121.173-35.84 14.933 0 31.147 2.133 48.213 6.4 12.373 3.413 27.307 8.96 45.653 15.787 23.467 8.96 36.267 14.507 40.533 15.787 13.653 5.12 25.173 7.253 34.133 7.253 6.827 0 16.64-2.133 27.52-5.547 6.187-2.133 17.92-5.973 34.56-13.227 16.469-5.973 29.525-11.093 39.893-14.933 15.787-4.693 31.061-8.96 44.8-11.093 16.64-2.56 33.152-3.413 48.981-2.133 30.293 2.133 58.027 8.533 82.773 17.92 43.52 17.493 78.635 44.8 104.832 83.627-11.093 6.827-21.333 14.763-30.933 23.467-20.779 18.347-38.4 40.107-52.48 64.213-18.347 32.853-27.733 69.973-27.477 107.52.64 46.208 12.373 86.827 35.84 122.027 16.512 25.6 38.571 47.531 65.451 65.536 13.227 8.96 24.832 15.147 35.84 19.2-5.12 16-10.752 31.573-17.28 46.933-14.805 34.432-32.427 67.413-53.333 98.56-18.432 26.88-32.939 46.933-43.947 60.16-17.152 20.48-33.707 35.84-50.347 46.805-18.347 12.16-39.893 18.603-61.952 18.603-14.933.64-29.867-1.28-44.117-5.419-12.373-4.053-24.576-8.619-36.523-13.781a296.24 296.24 0 0 0-38.613-14.507c-16.213-4.267-32.853-6.315-49.664-6.272-17.067 0-33.707 2.133-49.493 6.187-13.227 3.755-26.027 8.363-38.699 13.867-17.92 7.467-29.653 12.373-36.48 14.507a190.754 190.754 0 0 1-42.24 7.467c-22.187 0-42.837-6.4-63.403-19.2zm292.437-787.627c-29.013 14.507-56.576 20.651-84.181 18.603-4.267-27.563 0-55.893 11.52-86.912 10.24-26.453 23.893-50.347 42.667-71.68 19.627-22.187 43.093-40.533 69.547-53.76 28.16-14.507 55.04-22.187 80.64-23.467 3.413 29.013 0 57.6-10.667 88.32-9.728 27.307-24.235 52.48-42.667 75.093-18.56 22.187-41.6 40.533-67.669 53.76z"/></svg>