<svg xmlns="http://www.w3.org/2000/svg" width="1024" height="1024" viewBox="0 0 1024 1024"><title/><path fill="#a4c639" d="M944.896 393.685c0-34.773-28.075-63.061-62.976-63.061s-63.147 28.16-63.147 63.147v264.107c0 34.56 28.288 63.147 63.275 63.147 34.731 0 62.976-28.587 62.976-63.147V393.345h-.427zm-714.795-50.986l.171 409.6c0 37.76 30.037 67.84 67.115 67.84h45.355v139.947c0 34.987 28.16 63.232 62.72 63.232s62.592-28.16 63.147-62.635V820.736h85.035v139.947c0 35.115 28.16 63.275 62.72 63.275 35.115 0 63.232-28.16 63.232-63.573V820.438h45.995c37.12 0 67.115-30.293 67.115-67.328V342.23l-562.731.469zm411.648-125.014c-13.227 0-23.893-10.667-23.893-23.893 0-13.013 10.667-23.808 23.893-23.893 13.227 0 23.893 10.88 23.893 23.893 0 13.227-10.667 23.893-23.893 23.893zm-258.56 0c-13.227 0-23.893-10.667-23.893-23.893 0-13.099 10.667-23.808 23.893-23.808s23.893 10.88 23.893 24.32-10.752 24.192-24.32 24.192zM651.136 94.763L695.04 14.08c2.56-4.48.597-9.643-3.243-12.16-4.437-1.92-9.557-.64-12.117 3.84l-44.8 81.067c-37.035-17.28-79.189-26.88-123.307-26.88s-86.101 9.173-123.392 25.728L344.064 4.48c-2.261-4.181-7.68-5.76-11.861-3.413-4.267 1.92-5.803 7.68-3.413 11.52l43.947 80C286.124 137.259 227.67 222.294 227.67 320h568.661c0-97.707-58.368-182.741-144.896-227.413zM142.08 330.325c-34.859 0-63.147 28.373-63.147 63.275v264.192c0 34.987 28.331 63.147 63.317 63.147 34.731 0 63.019-28.16 63.019-63.147V393.685c0-34.773-28.16-63.061-62.72-63.061z"/></svg>