<svg height="512" viewBox="0 0 512 512" width="512" xmlns="http://www.w3.org/2000/svg"><path d="M433.266 211.625h-66.5l18.125-83.875h63.875c41.438 0 51.25 20.375 51.25 36.5 0 22.813-14.75 47.375-66.75 47.375zm42 72.125c0 22.813-14.75 47.375-66.75 47.375h-66.5l18.125-83.938h63.813c41.437.001 51.312 20.501 51.312 36.563zM278.453 136.563h-66.438l18.125-83.875h63.75c41.499 0 51.374 20.375 51.374 36.5.002 22.812-14.811 47.375-66.811 47.375zm43.688 78.875c0 22.813-14.75 47.375-66.75 47.375h-66.438L207.047 179h63.844c41.437 0 51.25 20.313 51.25 36.438zm-24.688 131.5c0 22.875-14.75 47.375-66.625 47.375h-66.594l18.125-83.938h63.875c41.407 0 51.219 20.438 51.219 36.563zM100.516 136.563H34.11l18.031-83.875h63.875c41.438 0 51.344 20.375 51.344 36.5-.001 22.812-14.844 47.375-66.844 47.375zm43.781 78.875c0 22.813-14.844 47.375-66.719 47.375H10.984L29.141 179h63.813c41.468 0 51.343 20.313 51.343 36.438z"/></svg>