<svg viewBox="0 0 52 52" xmlns="http://www.w3.org/2000/svg"><path d="M35.4 32.2c0-1.3-.7-3.8-4.9-5.5V22c.7.3 1.3.8 1.4 1.6.2.7.8 1.1 1.5.9s1.1-.8.9-1.5c-.4-1.8-2-3.2-3.9-3.6v-1c0-.5-.4-.9-.9-.9s-.9.4-.9.9v1c-2.3.4-4 2.2-4 4.4 0 1.4.7 3.4 4 4.9v6c-1.2-.3-2.1-1.2-2.4-2.3-.1-.7-.8-1.1-1.5-.9s-1.1.8-.9 1.5c.5 2.3 2.5 4 4.8 4.3v.7c0 .5.4.9.9.9s.9-.4.9-.9v-.9c3.1-.2 5-2.1 5-4.9zm-8.2-8.4c0-.9.6-1.6 1.5-1.8v3.9c-.8-.6-1.5-1.3-1.5-2.1zm3.3 10.9v-5.2c1.5.8 2.4 1.8 2.4 2.8 0 1.6-1.2 2.2-2.4 2.4zM19.8 9.2c-1.9-1.9-4.4-3-7-3h-.1c-2.6 0-5.1 1-6.9 2.8-1.9 1.9-3 4.4-3 7 0 2.7 1 5.2 2.9 7.1s4.4 3 7 3h.1c5.5 0 9.9-4.4 10-9.9-.1-2.5-1.1-5.1-3-7zm0 3h-3.4c-.2-1.4-.6-2.7-1.1-3.7 1.2.4 2.3 1.1 3.2 2 .5.5.9 1.1 1.3 1.7zm1.1 4.1c0 .7-.1 1.5-.3 2.1h-3.9c.1-.7.1-1.5.1-2.2s0-1.5-.1-2.2h3.9c.2.7.3 1.5.3 2.3zm-8.2 8.1c-.5 0-1.4-1.4-1.9-4.1h3.8c-.5 2.7-1.4 4.1-1.9 4.1zm-2.1-6c-.1-.7-.1-1.4-.1-2.2s0-1.5.1-2.2h4.2c.1.7.1 1.4.1 2.2s0 1.5-.1 2.2zm-6.1-2.3c0-.7.1-1.5.3-2.1h3.9c-.1.7-.1 1.5-.1 2.2s0 1.5.1 2.2H4.8c-.2-.7-.3-1.5-.3-2.3zm8.2-8c.5 0 1.4 1.4 1.9 4.2h-3.8c.5-2.8 1.4-4.2 1.9-4.2zM7 10.4c.9-.9 2-1.5 3.1-1.9-.5 1-.8 2.3-1.1 3.7H5.6c.3-.7.8-1.3 1.4-1.8zm-1.4 9.8H9c.2 1.4.6 2.7 1.1 3.7-1.2-.4-2.3-1.1-3.2-2-.6-.5-1-1-1.3-1.7zm9.7 3.8c.5-1 .8-2.3 1.1-3.7h3.4c-1 1.7-2.6 3-4.5 3.7z"/><path d="M29.6 10.1c-2.8 0-5.5.6-8 1.9.3.7.6 1.4.7 2.1 2.2-1.1 4.7-1.8 7.2-1.8 8.8 0 15.9 7.1 15.9 15.9s-7.1 15.9-15.9 15.9S13.6 37 13.6 28.2c0-.7.1-1.4.1-2-.4 0-.8.1-1.2.1h-.1c-.3 0-.6 0-.9-.1-.1.7-.1 1.3-.1 2 0 10 8.1 18.1 18.1 18.1s18.1-8.1 18.1-18.1-8-18.1-18-18.1z" fill="#e31b23"/></svg>