<svg viewBox="0 0 52 52" xmlns="http://www.w3.org/2000/svg"><path d="m34.3 31.6c0-1.3-.7-3.8-4.9-5.5v-4.7c.7.3 1.3.8 1.4 1.6.2.7.8 1.1 1.5.9s1.1-.8.9-1.5c-.4-1.8-2-3.2-3.9-3.6v-1c0-.5-.4-.9-.9-.9s-.9.4-.9.9v1c-2.3.4-4 2.2-4 4.4 0 1.4.7 3.4 4 4.9v6c-1.2-.3-2.1-1.2-2.4-2.3-.1-.7-.8-1.1-1.5-.9s-1.1.8-.9 1.5c.5 2.3 2.5 4 4.8 4.3v.9c0 .5.4.9.9.9s.9-.4.9-.9v-.9c3.1-.4 5-2.3 5-5.1zm-8.2-8.4c0-.9.6-1.6 1.5-1.8v3.9c-.8-.5-1.5-1.2-1.5-2.1zm3.3 10.9v-5.2c1.5.8 2.4 1.8 2.4 2.8 0 1.7-1.2 2.2-2.4 2.4z"/><path d="m12.3 27.4c-.2 0-.4-.1-.6-.2-.3-.3-7.8-6.9-7.8-13.4.1-4.8 4-8.6 8.6-8.6 4.7.1 8.5 4 8.4 8.8-.1 6.5-7.8 12.9-8.1 13.2-.1.1-.3.2-.5.2zm.1-20.4c-3.7 0-6.7 3-6.7 6.8-.1 4.7 4.9 9.8 6.6 11.4 1.8-1.6 6.8-6.6 6.9-11.3 0-3.7-3-6.8-6.8-6.9.1 0 .1 0 0 0z"/><path d="m12.5 17.8c-2.3 0-4.1-1.9-4-4.1 0-1.1.4-2.1 1.2-2.8s1.8-1.2 2.9-1.1c2.2 0 4 1.9 4 4.1 0 1.1-.4 2.1-1.2 2.8s-1.8 1.1-2.9 1.1zm0-6.3c-.6 0-1.1.2-1.6.6-.4.4-.7 1-.7 1.6 0 1.2 1 2.3 2.2 2.3.6 0 1.2-.2 1.6-.6s.7-1 .7-1.6c.1-1.2-.9-2.3-2.2-2.3z"/><path d="m28.5 9.5c-2.8 0-5.5.6-8 1.8.2.7.3 1.5.4 2.3 2.3-1.3 4.9-1.9 7.6-1.9 8.8 0 15.9 7.1 15.9 15.9s-7.1 15.9-15.9 15.9-15.9-7.1-15.9-15.9c0-.1 0-.2 0-.3-.1.1-.2.1-.4.1s-.4-.1-.6-.2c-.1-.1-.5-.5-1.2-1.1-.1.5-.1.9-.1 1.6 0 10 8.1 18.1 18.1 18.1s18.1-8.1 18.1-18.1-8-18.2-18-18.2z" fill="#e31b23"/></svg>