<svg viewBox="0 0 52 52" xmlns="http://www.w3.org/2000/svg"><path d="m34.4 13.4c0-.1-.1-.1-.1-.2 0 0-.1-.1-.1-.1s-.1-.1-.1-.1c-.1 0-.1-.1-.2-.1-.1-.1-.2-.1-.4-.1h-14.9c-.1 0-.3 0-.4.1-.1 0-.1.1-.2.1 0 0-.1.1-.1.1s-.1.1-.1.1c0 .1-.1.1-.1.2-.1.1-.1.2-.1.4v3.1c0 .6.5 1 1 1h.1 14.7.1c.5 0 1-.4 1-1v-3.1c0-.1 0-.3-.1-.4z"/><g fill="#e31b23"><circle cx="19.7" cy="24.7" r="1.9"/><circle cx="19.7" cy="30.5" r="1.9"/><circle cx="19.7" cy="36.3" r="1.9"/><circle cx="26" cy="24.7" r="1.9"/><circle cx="26" cy="30.5" r="1.9"/><circle cx="26" cy="36.3" r="1.9"/><circle cx="32.3" cy="24.7" r="1.9"/><circle cx="32.3" cy="30.5" r="1.9"/><circle cx="32.3" cy="36.3" r="1.9"/><path d="m35.6 9.9c.5 0 1 .5 1 1v29.1c0 .5-.5 1-1 1h-19.1c-.5 0-1-.5-1-1v-29.1c0-.5.5-1 1-1zm0-2h-19.1c-1.6 0-3 1.3-3 3v29.1c0 1.7 1.4 3 3 3h19.1c1.6 0 3-1.3 3-3v-29.1c0-1.7-1.4-3-3-3z"/></g></svg>