<svg xmlns="http://www.w3.org/2000/svg" viewBox="0 0 52 52"><path d="M34.4 13.4c0-.1-.1-.1-.1-.2l-.1-.1-.1-.1c-.1 0-.1-.1-.2-.1-.1-.1-.2-.1-.4-.1H18.6c-.1 0-.3 0-.4.1-.1 0-.1.1-.2.1l-.1.1-.1.1c0 .1-.1.1-.1.2-.1.1-.1.2-.1.4v3.1c0 .6.5 1 1 1H33.5c.5 0 1-.4 1-1v-3.1c0-.1 0-.3-.1-.4z" fill="#FFF"/><circle cx="19.7" cy="24.7" r="1.9"/><circle cx="19.7" cy="30.5" r="1.9"/><circle cx="19.7" cy="36.3" r="1.9"/><circle cx="26" cy="24.7" r="1.9"/><circle cx="26" cy="30.5" r="1.9"/><circle cx="26" cy="36.3" r="1.9"/><circle cx="32.3" cy="24.7" r="1.9"/><circle cx="32.3" cy="30.5" r="1.9"/><circle cx="32.3" cy="36.3" r="1.9"/><path d="M35.6 9.9c.5 0 1 .5 1 1V40c0 .5-.5 1-1 1H16.5c-.5 0-1-.5-1-1V10.9c0-.5.5-1 1-1h19.1m0-2H16.5c-1.6 0-3 1.3-3 3V40c0 1.7 1.4 3 3 3h19.1c1.6 0 3-1.3 3-3V10.9c0-1.7-1.4-3-3-3z"/></svg>