<svg xmlns="http://www.w3.org/2000/svg" viewBox="0 0 52 52"><path d="M37 35.8c.7-.7 2.3-3 3.2-4.5.9-1.4.3-2.2-1-2.5-1.3-.3-1.4-.6-2.3-1.3-.9-.7-2.6-.9-2.6-.9-1.6-.4-2.3 2.2-1.9 3.5.3 1.3 1.7 1.7 2 2.4.3.6-.2 3.2-.3 4.1-.2.9-.9 2.4 0 3.6.9 1.3 1.3.3 1.3.3-.8-.5-.6-1.2-.3-2.3.2-1.1 1.1-1.7 1.9-2.4z" fill="#E31B23"/><path d="M4.8 17.4c.8 0 1.8.1 2.5.1h9.4c1 .4 2.7.4 3.5 1.3.2.2.6 1.4.6 1.4h.1c.3 0 .5-.6.7-.6 1.5.2 2.8.5 4.4.5h.1c.2 0 2.4-.5 3.5-.5.3 0 .5 0 .6.2 0 0-1.6 1.9-1.7 2-.2.2.2.4.1.5-.2.1-.6.1-.7.2-.8.9-1.7 1.1-2 2.2-.3.8.3.9 0 1.5-.4.9-1.9 1.2-2.3 2-.3.5.6 4.3.2 4.3-.8 0-.7-1.3-.9-1.6-.5-.9-.2-.5-.8-1-.2-.2-.7-.2-1.1-.2h-.7c-.2 0-.5.4-.9.4h-.1c-.5 0-.9-.5-1.4-.5-1.7.1-1.8 1.1-1.8 2.5-.7-.3-1.8-2.5-2.5-2.5-.2 0-.4.2-.5.6-.9-.8-.8-1.3-1.9-1.6-.2-.1-.4-.1-.6-.1H8.9c-1.9-.4-3.4-1-4.4-2.5-.8-1.1-1.2-2-1.3-3.4-.1-.9.1-1.9 0-2.8-.1-.4-.5-1.6-.4-1.8 0 0 0-.1.1-.1.2 0 .5.4.7.4.2-.2.1-.8.2-.9h1m0-1.7c-.7 0-1.2.1-1.7.2-.3.1-.6.3-.8.5-.6.1-1.1.5-1.3 1.1-.3.7-.1 1.3.2 2.1.1.2.1.4.2.5v1.1c0 .5-.1 1 0 1.5.1 1.8.8 3 1.6 4.2 1.4 2.1 3.5 2.8 5.3 3.2.3.1.6.1.9.1h1.1c.2.1.2.1.4.3.2.2.5.6.9.9.3.3.7.4 1.2.4.1 0 .3 0 .4-.1 0 0 0 .1.1.1.6.8 1.1 1.5 1.9 1.8.2.1.4.1.6.1.3 0 .7-.1 1-.3.5-.3.8-.9.8-1.4v-.7h.1c.3.2.8.4 1.5.4h.2c.5 0 .9-.3 1.2-.4h.5c0 .1.1.1.1.2v.1c.4 2.1 1.6 2.5 2.5 2.5.5 0 1-.2 1.4-.6.7-.8.5-1.7.3-3.5 0-.3-.1-.8-.1-1.2.1-.1.2-.1.3-.2.6-.4 1.4-.9 1.9-1.8.4-.8.3-1.5.1-1.9.1-.1.2-.3.6-.5.2-.1.4-.3.6-.5.3-.1.6-.2.9-.4.4-.3.6-.8.6-1.3.1-.1.2-.3.4-.4.9-1 1.8-2 1-3.1-.3-.5-.9-.9-2-.9-.8 0-1.9.2-3.1.4-.2 0-.4.1-.5.1-1 0-1.9-.1-2.8-.3-.5-.1-.9-.1-1.4-.2h-.2c-.1-.2-.2-.3-.2-.3-.9-.9-2.2-1.2-3.2-1.4-.4-.1-.7-.2-1-.2-.2-.1-.4-.1-.6-.1H7.3c-.3 0-.6 0-1-.1H4.8z"/><path d="M30.4 26c.5 1 1.2 1.4 1.3 1.1.1-.3-.6-1.6-1.3-2-.8-.3-1.5 0-2-.8-.1 0-.1.1-.2.1-.3.3-.5.4-.6.5 0 .1.1.2.1.4.2.1.3.1.5.1.7.3 1.7-.4 2.2.6zm2.9-16.9c-5.6 0-10.9 2.7-14.2 7.3.8.2 1.7.5 2.4 1.3 0 0 .1.1.2.3h.2c.5.1.9.1 1.4.2 1 .2 1.8.3 2.8.3.1 0 .3-.1.5-.1 1.2-.2 2.3-.4 3.1-.4 1.1 0 1.7.5 2 .9.8 1.1 0 2.1-1 3.1-.1.1-.2.3-.4.4 0 .1 0 .2-.1.3.4 0 .7.2.8.3.2.3.5.8.9.7.3-.1-.3-.8-.2-1.7 0-.9 1.9-2.5 3.5-4 1.6-1.4 0-2-2-3s-1.2 1.3-1.4 1.6c-.3.3-1.6.3-2.6-.3s-.9-1.5.1-2.3c1-.8 1.3-1.6.3-1.5-.8.1-2.4.4-3.5.4 1.6-.9 3.4-1.4 5.3-1.6.5.5 1.1 1.2 1.2 1.3.3.8 1.2 1.7 1.7 1.4.5-.3 1.4-.9-.7-2-.5-.3-.8-.5-1-.7l-.1-.1h.7c1 0 2 .1 2.9.3l.7 2.1c.8 2.1 2 .7 2.4-.2 0-.1.4-.4.7-.7 2.4 1.2 4.5 3 6 5.2-.3.5-.7 1.3-.5 2 .2.9 1.2.9 1.1 1.6-.1.6-.9-.2-1.8 1.5s-.5 4 .9 4.2c1.1.1 2.5-.4 3-.6 0 8.5-6.9 15.4-15.4 15.4-6.5 0-12.3-4.1-14.5-10.2-.4-.1-.8-.2-1.1-.4h-.1v.7c0 .5-.2.9-.5 1.2 2.7 6.4 9.1 10.8 16.1 10.8 9.7 0 17.5-7.9 17.5-17.5S42.9 9.1 33.3 9.1z" fill="#E31B23"/></svg>