<svg xmlns="http://www.w3.org/2000/svg" viewBox="0 0 56 56"><defs><style>.cls-1{fill:#e21b23;}.cls-2{fill:#fff;}.cls-3{fill:none;}</style></defs><title>Shipping-Colors</title><g id="Layer_2" data-name="Layer 2"><g id="Layer_1-2" data-name="Layer 1"><path class="cls-1" d="M7.93,38.25a1,1,0,0,1-.7-.29,1,1,0,0,1-.29-.7V18.48A2.36,2.36,0,0,1,9.3,16.12H35.36a2.36,2.36,0,0,1,2.36,2.36V37.23a1,1,0,0,1-1,1l-1.36,0H7.93ZM9.3,18.11a.36.36,0,0,0-.37.37V36.26h26.8V18.48a.37.37,0,0,0-.37-.37Z"/><path class="cls-2" d="M21.94,37.12a5.06,5.06,0,1,1-5.06-5.07,5.05,5.05,0,0,1,5.06,5.07"/><path d="M16.88,43.17a6.06,6.06,0,1,1,6.06-6.05,6.05,6.05,0,0,1-6.06,6.05m0-10.12A4.07,4.07,0,1,0,21,37.12a4.07,4.07,0,0,0-4.07-4.07"/><path class="cls-1" d="M48.5,38.84H37.85a2.27,2.27,0,0,1-2.27-2.27l.13-14.71a1,1,0,0,1,.46-.83,1,1,0,0,1,.94-.07l13.06,5.88a1,1,0,0,1,.59.9v8.83a2.27,2.27,0,0,1-2.26,2.27M37.68,23.4l-.11,13.18a.28.28,0,0,0,.28.27H48.5a.28.28,0,0,0,.27-.28V28.39Z"/><path class="cls-2" d="M42.22,37.12a5.07,5.07,0,1,1-5.07-5.07,5.06,5.06,0,0,1,5.07,5.07"/><path d="M37.15,43.17a6.06,6.06,0,1,1,6.06-6.05,6.06,6.06,0,0,1-6.06,6.05m0-10.12a4.07,4.07,0,1,0,4.07,4.07,4.07,4.07,0,0,0-4.07-4.07"/><rect class="cls-3" width="56" height="56"/></g></g></svg>