<svg viewBox="0 0 52 52" xmlns="http://www.w3.org/2000/svg"><path d="m26.2 41.8c-3.8 0-6.8-3.1-6.8-6.8 0-3.8 3.1-6.8 6.8-6.8 3.8 0 6.8 3.1 6.8 6.8 0 3.8-3 6.8-6.8 6.8zm0-11.4c-2.5 0-4.6 2.1-4.6 4.6s2.1 4.6 4.6 4.6 4.6-2.1 4.6-4.6-2-4.6-4.6-4.6zm16.7-11.7c-.3 0-.6-.1-.8-.3-4.2-4.2-9.9-6.6-15.9-6.6s-11.6 2.3-15.9 6.6c-.4.4-1.1.4-1.6 0s-.4-1.1 0-1.6c4.6-4.6 10.8-7.2 17.4-7.2s12.8 2.6 17.4 7.2c.4.4.4 1.1 0 1.6-.1.2-.4.3-.6.3zm-4.1 4.5c-.3 0-.6-.1-.8-.3-6.5-6.5-17-6.5-23.5 0-.4.4-1.1.4-1.6 0s-.4-1.1 0-1.6c7.3-7.3 19.3-7.3 26.6 0 .4.4.4 1.1 0 1.6-.2.2-.5.3-.7.3zm-20.6 4.2c-.3 0-.6-.1-.8-.3-.4-.4-.4-1.1 0-1.6 2.3-2.3 5.5-3.6 8.8-3.6 3.3 0 6.4 1.3 8.8 3.6.4.4.4 1.1 0 1.6s-1.1.4-1.6 0c-1.9-1.9-4.5-3-7.2-3s-5.3 1.1-7.2 3c-.2.2-.5.3-.8.3z"/></svg>