<svg viewBox="0 0 52 52" xmlns="http://www.w3.org/2000/svg"><path d="m25.9 41.5c-3.8 0-6.8-3.1-6.8-6.8 0-3.8 3.1-6.8 6.8-6.8 3.8 0 6.8 3.1 6.8 6.8 0 3.8-3.1 6.8-6.8 6.8zm0-11.4c-2.5 0-4.6 2.1-4.6 4.6s2.1 4.6 4.6 4.6 4.6-2.1 4.6-4.6-2.1-4.6-4.6-4.6z"/><g fill="#e31b23"><path d="m42.5 18.4c-.3 0-.6-.1-.8-.3-8.7-8.7-23-8.7-31.7 0-.4.4-1.1.4-1.6 0-.4-.4-.4-1.1 0-1.6 9.6-9.6 25.2-9.6 34.8 0 .4.4.4 1.1 0 1.6-.1.2-.4.3-.7.3z"/><path d="m38.4 22.9c-.3 0-.6-.1-.8-.3-6.5-6.5-17-6.5-23.5 0-.4.4-1.1.4-1.6 0-.4-.4-.4-1.1 0-1.6 7.3-7.3 19.3-7.3 26.6 0 .4.4.4 1.1 0 1.6-.1.2-.4.3-.7.3z"/><path d="m17.9 27.1c-.3 0-.6-.1-.8-.3-.4-.4-.4-1.1 0-1.6 2.3-2.3 5.5-3.6 8.8-3.6 3.3 0 6.4 1.3 8.8 3.6.4.4.4 1.1 0 1.6-.4.4-1.1.4-1.6 0-1.9-1.9-4.5-3-7.2-3s-5.3 1.1-7.2 3c-.2.2-.5.3-.8.3z"/></g></svg>