<svg enable-background="new 0 0 200 200" viewBox="0 0 200 200" xmlns="http://www.w3.org/2000/svg"><path d="m80.3 96.5h39.9v38.7h-39.9z" fill="none"/><g fill="#231f20"><path d="m123 90.6h-45.5c-1.7 0-3.1 1.4-3.1 3.1v44.3c0 1.7 1.4 3.1 3.1 3.1h45.5c1.7 0 3.1-1.4 3.1-3.1v-44.3c0-1.7-1.4-3.1-3.1-3.1zm-2.8 44.7h-39.9v-38.8h39.9z"/><path d="m134.7 39h-49.6c-1 0-30.9 31-30.9 31.9v78.9c0 6.1 5 11.1 11.1 11.1h69.3c6.1 0 11.1-5 11.1-11.1v-99.6c.1-6.2-4.9-11.2-11-11.2zm5.2 110.8c0 2.9-2.3 5.2-5.2 5.2h-69.4c-2.9 0-5.2-2.3-5.2-5.2v-76.8c4.6-5.3 22-23.2 27.1-28h47.4c2.9 0 5.2 2.3 5.2 5.2v99.6z"/></g></svg>