<svg enable-background="new 0 0 200 200" viewBox="0 0 200 200" xmlns="http://www.w3.org/2000/svg"><path d="m134.7 44.9h-47.5c-5.2 4.9-22.5 22.7-27.1 28v76.9c0 2.9 2.3 5.2 5.2 5.2h69.3c2.9 0 5.2-2.3 5.2-5.2v-99.6c.1-2.9-2.3-5.3-5.1-5.3zm-16.3 72.5c1.2 1.2 1.2 3 0 4.2-.6.6-1.3.9-2.1.9s-1.5-.3-2.1-.9l-14.2-14.3-14.3 14.3c-.6.6-1.3.9-2.1.9s-1.5-.3-2.1-.9c-1.2-1.2-1.2-3 0-4.2l14.3-14.3-14.2-14.2c-1.2-1.2-1.2-3 0-4.2s3-1.2 4.2 0l14.2 14.3 14.3-14.3c1.2-1.2 3-1.2 4.2 0s1.2 3 0 4.2l-14.3 14.3z" fill="none"/><path d="m134.7 39h-49.6c-1 0-30.9 31-30.9 31.9v78.9c0 6.1 5 11.1 11.1 11.1h69.3c6.1 0 11.1-5 11.1-11.1v-99.6c.1-6.2-4.9-11.2-11-11.2zm5.2 110.8c0 2.9-2.3 5.2-5.2 5.2h-69.4c-2.9 0-5.2-2.3-5.2-5.2v-76.8c4.6-5.3 22-23.2 27.1-28h47.4c2.9 0 5.2 2.3 5.2 5.2v99.6z" fill="#e31b23"/><path d="m118.4 84.7c-1.2-1.2-3-1.2-4.2 0l-14.2 14.3-14.3-14.3c-1.2-1.2-3-1.2-4.2 0s-1.2 3 0 4.2l14.3 14.3-14.3 14.3c-1.2 1.2-1.2 3 0 4.2.6.6 1.3.9 2.1.9s1.5-.3 2.1-.9l14.3-14.3 14.3 14.3c.6.6 1.3.9 2.1.9s1.5-.3 2.1-.9c1.2-1.2 1.2-3 0-4.2l-14.3-14.3 14.3-14.3c1.1-1.2 1.1-3-.1-4.2z" fill="#231f20"/></svg>