<svg enable-background="new 0 0 200 200" viewBox="0 0 200 200" xmlns="http://www.w3.org/2000/svg"><g fill="#231f20"><path d="m120.4 81c-1.3-.9-3.2-.6-4.1.8l-24 35.2-8.5-11.4c-1-1.3-2.8-1.6-4.1-.6s-1.6 2.8-.6 4.1l13.5 18 28.7-42c.7-1.4.4-3.2-.9-4.1z"/><path d="m134.7 39h-49.6c-1 0-30.9 31-30.9 31.9v78.9c0 6.1 5 11.1 11.1 11.1h69.3c6.1 0 11.1-5 11.1-11.1v-99.6c.1-6.2-4.9-11.2-11-11.2zm5.2 110.8c0 2.9-2.3 5.2-5.2 5.2h-69.4c-2.9 0-5.2-2.3-5.2-5.2v-76.8c4.6-5.3 22-23.2 27.1-28h47.4c2.9 0 5.2 2.3 5.2 5.2v99.6z"/></g></svg>