<svg xmlns="http://www.w3.org/2000/svg" viewBox="0 0 52 52"><path d="M29.6 9.1c1.1 0 2.2.8 2.4 2.7.1.9-.2 3.1-1.4 5.2-.5.9-.5 2 0 2.9.5.9 1.5 1.5 2.6 1.5h7.5c.5 0 .9.2 1.3.5.3.3.5.8.5 1.3 0 1-.8 1.8-1.8 1.8h-.4c-.3 0-.5.2-.5.5s.2.5.5.5c1 0 1.8.8 1.8 1.8s-.8 1.8-1.8 1.8h-1c-.3 0-.5.2-.5.5s.2.5.5.5c1 0 1.8.8 1.8 1.8s-.8 1.8-1.8 1.8h-1.1c-.3 0-.5.2-.5.5s.2.5.5.5c.8 0 1.5.7 1.5 1.5 0 .4-.2.8-.4 1.1-.3.3-.7.4-1.1.4H24.3c-2.8 0-4.8-.9-6.5-2.3v-13h1.9c.5 0 1-.1 1.4-.4.4-.3.7-.6.9-1.1.4-.8.9-1.6 1.5-2.3 2.2-2.6 4.6-5.5 4.7-8.6 0-.7.6-1.3 1.3-1.3l.1-.1c-.1 0-.1 0 0 0m0-2h-.2c-1.8.1-3.2 1.5-3.3 3.2-.1 2.5-2.3 5.1-4.3 7.4-.7.8-1.3 1.7-1.8 2.7 0 .1-.1.2-.2.2-.1.1-.2.1-.3.1h-1.9c-1.1 0-2 .9-2 2v13.4c0 .6.3 1.2.8 1.6 2.3 1.9 4.8 2.7 7.8 2.7H38.1c.9 0 1.8-.4 2.5-1 .7-.7 1-1.6 1-2.5 0-.4-.1-.8-.2-1.2 1-.7 1.6-1.8 1.6-3.1 0-.6-.1-1.2-.4-1.7.9-.7 1.4-1.8 1.4-3 0-.8-.2-1.5-.6-2.1.6-.7 1-1.6 1-2.6s-.4-2-1.1-2.7c-.7-.7-1.7-1.1-2.7-1.1h-7.5c-.4 0-.7-.2-.8-.5-.2-.3-.2-.6 0-.9 1.4-2.4 1.8-5 1.7-6.4-.3-3-2.5-4.5-4.4-4.5z" fill="#E31B23"/><path d="M14.4 36.9c0 .5-.4.9-.9.9h-3.3c-.5 0-.9-.4-.9-.9V22.1c0-.5.4-.9.9-.9h3.3c.5 0 .9.4.9.9v14.8z"/></svg>