<svg id="Layer_1" xmlns="http://www.w3.org/2000/svg" viewBox="0 0 200 200"><style>.st0{fill:none}.st1{fill:#231f20}.st2{fill:#e31b23}.st3{fill:#fff}</style><path class="st0" d="M65.8 140.4c0 .1 0 .1 0 0 0 .1 0 .1 0 0zm0-55.6v0zm-.3 56.7s0 .1 0 0c0 .1 0 0 0 0zm.1-57.4zm24 61.4c.8 0 1.6 0 2.4-.1h48.3c1.5 0 2.8-.6 3.9-1.6 1-1.1 1.6-2.5 1.6-3.9 0-3-2.6-5.4-5.6-5.4-1.1 0-1.9-.8-1.9-1.9 0-1.1.9-1.9 1.9-1.9h4c3.7 0 6.6-3 6.6-6.6 0-3.6-3-6.6-6.6-6.6-1 0-1.9-.9-1.9-1.9 0-1.1.9-1.9 1.9-1.9h3.6c3.6 0 6.6-3 6.6-6.6 0-3.6-3-6.6-6.6-6.6-1.1 0-1.9-.9-1.9-1.9 0-1.1.8-1.9 1.9-1.9h1.5c3.6 0 6.6-3 6.6-6.6 0-1.8-.7-3.4-1.9-4.7-1.2-1.2-2.9-1.9-4.7-1.9H122c-3.9 0-7.4-2-9.3-5.3-1.9-3.3-2-7.3-.1-10.6 4.4-7.9 5.6-15.9 5.3-19.1-.6-6.8-4.8-9.8-8.7-9.8h-.5c-2.6.1-4.8 2.2-4.9 4.9-.7 11.2-9.2 22.1-17.2 31.4-2.2 2.5-4 5.3-5.4 8.3-.7 1.6-1.9 2.9-3.4 3.9-1.5.9-3.2 1.4-4.9 1.4h-6.8v48.8c6.1 4.8 13.4 8.1 23.5 8.1zm-24.6-3zm-5.3-57H47.5c-.1 0-.3.1-.3.3v53.6c0 .1.1.3.3.3h12.2c.2 0 .3-.1.3-.3V85.8c0-.2-.1-.3-.3-.3z"/><path class="st1" d="M161.8 90c0-3.3-1.3-6.5-3.7-8.8-2.4-2.4-5.5-3.7-8.8-3.7H122c-1.8 0-3.3-.9-4.2-2.4-.9-1.5-.9-3.3-.1-4.8 4.8-8.5 6.5-17.6 6-22.5-.4-4.5-2.1-8.4-4.9-11.1-2.6-2.6-6.1-4-9.8-4H108.4h-.1c-5.7.2-10.3 4.7-10.6 10.5-.5 9.4-8.4 19.3-15.8 27.9-2.5 2.9-4.6 6.2-6.2 9.6-.3.6-.7 1.1-1.2 1.4-.5.3-1.1.5-1.8.5h-6.8c-.3 0-.6 0-.9.1.3.5.5 1 .7 1.5v.1c.1.2.1.5.1.7v.2c0 .3.1.5.1.8v2.6h6.8c1.8 0 3.5-.5 4.9-1.4 1.5-.9 2.7-2.3 3.4-3.9 1.4-3 3.2-5.8 5.4-8.3 8-9.3 16.6-20.2 17.2-31.4.1-2.7 2.3-4.8 4.9-4.9h.5c3.9 0 8.1 3 8.7 9.8.3 3.2-.9 11.2-5.3 19.1-1.9 3.3-1.8 7.3.1 10.6 1.9 3.3 5.4 5.3 9.3 5.3h27.3c1.8 0 3.4.7 4.7 1.9 1.2 1.2 1.9 2.9 1.9 4.7 0 3.6-3 6.6-6.6 6.6h-1.5c-1.1 0-1.9.9-1.9 1.9 0 1.1.8 1.9 1.9 1.9 3.6 0 6.6 3 6.6 6.6 0 3.6-3 6.6-6.6 6.6H144c-1 0-1.9.9-1.9 1.9 0 1.1.9 1.9 1.9 1.9 3.7 0 6.6 3 6.6 6.6 0 3.6-3 6.6-6.6 6.6h-4c-1.1 0-1.9.9-1.9 1.9 0 1.1.9 1.9 1.9 1.9 3.1 0 5.6 2.4 5.6 5.4 0 1.5-.6 2.9-1.6 3.9s-2.4 1.6-3.9 1.6H92c-.8 0-1.6.1-2.4.1-10.1 0-17.4-3.2-23.7-8.3v2.2c0 .4 0 .7-.1 1.1v.1c-.1.3-.2.7-.3 1v.1c-.1.3-.3.6-.5.9l-.6.9c7.6 5.4 15.7 8 25.3 8 .8 0 1.7 0 2.5-.1h48.1c3 0 5.9-1.2 8.1-3.3 2.2-2.2 3.4-5.1 3.3-8.2 0-1.8-.5-3.5-1.2-4.9 3.7-2.2 6.2-6.2 6.2-10.8 0-2.4-.7-4.7-1.9-6.7 3.3-2.2 5.5-6.1 5.5-10.4 0-2.9-1-5.6-2.7-7.7 2.5-2.4 4.2-5.7 4.2-9.4z"/><path class="st2" d="M65 142.5c.2-.3.3-.6.5-.9v-.1c.1-.3.2-.6.3-1v-.1c.1-.3.1-.7.1-1.1V85.8c0-.3 0-.5-.1-.8v-.2c0-.2-.1-.5-.1-.7V84c-.2-.5-.4-1-.7-1.5-1.1-1.8-3-2.9-5.3-2.9H47.5c-3.4 0-6.2 2.8-6.2 6.2v53.6c0 3.4 2.8 6.2 6.2 6.2h12.2c1.9 0 3.5-.8 4.7-2.1.2-.4.4-.6.6-1zm-5-3.1c0 .2-.1.3-.3.3H47.5c-.1 0-.3-.1-.3-.3V85.8c0-.1.1-.3.3-.3h12.2c.2 0 .3.1.3.3v53.6z"/></svg>