<svg viewBox="0 0 52 52" xmlns="http://www.w3.org/2000/svg"><g fill="#3b9d4a"><path d="m24.5 19.7c-.5.3-.8.8-.8 1.5 0 .6.3 1.1.8 1.5z"/><path d="m28.8 28.5c0-.9-.8-1.8-2.3-2.6v4.8c1.1-.1 2.3-.6 2.3-2.2z"/><path d="m25.9 6.6c-10 0-18.1 8.1-18.1 18.1s8.1 18.1 18.1 18.1 18.1-8.1 18.1-18.1-8.1-18.1-18.1-18.1zm0 33.1c-3 0-5.9-.9-8.3-2.6-.3-.2-.4-.7-.2-1s.7-.4 1-.2c2.2 1.5 4.8 2.4 7.5 2.4 7.2 0 13.1-5.9 13.1-13.1s-5.9-13.2-13.1-13.2c-3.6 0-7.1 1.5-9.5 4.2l.6-.1c.4-.1.8.2.9.6s-.2.8-.6.9l-2.9.4h-.1c-.2 0-.4-.1-.5-.2-.2-.2-.3-.4-.2-.6l.3-2.7c0-.4.4-.7.8-.7s.7.4.7.8l-.1.5c2.7-2.9 6.6-4.6 10.6-4.6 8 0 14.6 6.5 14.6 14.6s-6.6 14.6-14.6 14.6zm-4.2-18.6c0-1.7 1.2-3.1 2.8-3.6v-1.5c0-.6.4-1 1-1s1 .4 1 1v1.4c1.6.3 3 1.5 3.4 3.1.1.5-.2 1.1-.8 1.2-.5.1-1.1-.2-1.2-.8-.2-.7-.7-1.2-1.4-1.5v4.3c3.7 1.5 4.3 3.6 4.3 4.8 0 2.4-1.7 4-4.3 4.3v1.2c0 .6-.4 1-1 1s-1-.4-1-1v-1.4c-1.8-.5-3.2-1.8-3.6-3.6-.1-.5.2-1.1.8-1.2s1.1.2 1.2.8c.2.9.8 1.5 1.6 1.9v-5.5c-2.3-1.2-2.8-2.7-2.8-3.9z"/></g></svg>