<svg xmlns="http://www.w3.org/2000/svg" viewBox="0 0 52 52"><path d="M24.3 14.4c0 1.6-1.3 2.9-3 2.9h-8.6c-1.6 0-3-1.3-3-2.9 0-1.6 1.3-2.9 3-2.9h8.6c1.6 0 3 1.3 3 2.9zm6.2 11.7c0 1.6-1.3 2.9-3 2.9h-15c-1.6 0-3-1.3-3-2.9 0-1.6 1.3-2.9 3-2.9h15c1.7.1 3 1.4 3 2.9zM21.2 38c0 1.6-1.3 2.9-3 2.9h-5.6c-1.6 0-3-1.3-3-2.9 0-1.6 1.3-2.9 3-2.9h5.6c1.7 0 3 1.3 3 2.9z" fill="#E31B23"/><path d="M39.2 30.7H12.5c-2.5 0-4.5-2-4.5-4.5s2-4.5 4.5-4.5h26.7c2.5 0 4.5 2 4.5 4.5 0 2.4-2 4.5-4.5 4.5zm-26.7-7.4c-1.6 0-2.9 1.3-2.9 2.9 0 1.6 1.3 2.9 2.9 2.9h26.7c1.6 0 2.9-1.3 2.9-2.9 0-1.6-1.3-2.9-2.9-2.9H12.5zm26.7-4.5H12.5c-2.5 0-4.5-2-4.5-4.5s2-4.5 4.5-4.5h26.7c2.5 0 4.5 2 4.5 4.5s-2 4.5-4.5 4.5zm-26.7-7.3c-1.6 0-2.9 1.3-2.9 2.9s1.3 2.9 2.9 2.9h26.7c1.6 0 2.9-1.3 2.9-2.9s-1.3-2.9-2.9-2.9H12.5zm26.7 31H12.5C10 42.5 8 40.5 8 38s2-4.5 4.5-4.5h26.7c2.5 0 4.5 2 4.5 4.5s-2 4.5-4.5 4.5zm-26.7-7.4c-1.6 0-2.9 1.3-2.9 2.9s1.3 2.9 2.9 2.9h26.7c1.6 0 2.9-1.3 2.9-2.9s-1.3-2.9-2.9-2.9H12.5z"/></svg>