<svg xmlns="http://www.w3.org/2000/svg" viewBox="0 0 52 52"><path d="M43.5 14.4H8.9c-2 0-3.6 1.6-3.6 3.6v16.2c0 2 1.6 3.6 3.6 3.6h34.6c2 0 3.6-1.6 3.6-3.6V17.9c0-1.9-1.6-3.5-3.6-3.5zm1.7 3.5V21c-1.1-.3-3.7-1.2-4.3-4.8h2.6c1 .1 1.7.8 1.7 1.7zM39 35.8H13.4c-.8-5.1-4.9-6.3-6.2-6.5v-6.2c1.2-.2 5.6-1.4 6.2-6.8H39c.7 5.3 5 6.5 6.2 6.7v6.5c-1.2.1-5.3 1.3-6.2 6.3zM8.9 16.3h2.6c-.5 3.6-3.2 4.6-4.3 4.9V18c.1-1 .8-1.7 1.7-1.7zM7.3 34.1v-2.9c1.1.3 3.6 1.2 4.2 4.6H8.9c-.9 0-1.6-.8-1.6-1.7zm36.2 1.7H41c.7-3.3 3.2-4.2 4.2-4.4v2.8c0 .8-.7 1.6-1.7 1.6zM17.5 21c-.4 0-.8-.3-.8-.8v-4.7c0-.4.3-.8.8-.8s.8.3.8.8v4.7c0 .4-.3.8-.8.8zm0 8.3c-.4 0-.8-.3-.8-.8v-4.8c0-.4.3-.8.8-.8s.8.3.8.8v4.8c0 .5-.3.8-.8.8zm0 8.1c-.4 0-.8-.3-.8-.8v-5.1c0-.4.3-.8.8-.8s.8.3.8.8v5.1c0 .4-.3.8-.8.8zm0 6.8c-.4 0-.8-.3-.8-.8v-3.3c0-.4.3-.8.8-.8s.8.3.8.8v3.3c0 .5-.3.8-.8.8zM30 28.4c0-.8-.4-2.3-2.9-3.3v-2.7c.4.2.7.5.8.9.1.4.5.7 1 .6.4-.1.7-.5.6-1-.3-1.1-1.2-1.9-2.3-2.2v-.6c0-.3-.3-.6-.6-.6s-.6.3-.6.6v.6c-1.4.2-2.4 1.3-2.4 2.7 0 .9.4 2.1 2.4 2.9v3.5c-.7-.2-1.2-.7-1.3-1.3-.1-.4-.5-.7-.9-.6-.4.1-.7.5-.6.9.3 1.4 1.5 2.4 2.9 2.6v.5c0 .3.3.6.6.6s.6-.3.6-.6v-.5c1.6-.2 2.7-1.4 2.7-3zm-4.9-5.1c0-.5.3-.8.8-1v2.2c-.4-.3-.8-.7-.8-1.2zm2 6.5v-3c.8.5 1.3 1 1.3 1.6 0 .9-.6 1.3-1.3 1.4zm-9.6-17.2c-.4 0-.8-.3-.8-.8V8.6c0-.4.3-.8.8-.8s.8.3.8.8v3.3c0 .3-.3.7-.8.7z"/></svg>