<svg enable-background="new 0 0 200 200" viewBox="0 0 200 200" xmlns="http://www.w3.org/2000/svg"><path d="m100 45c-30.4 0-55 24.7-55 55 0 30.4 24.7 55 55 55 30.4 0 55-24.7 55-55 0-30.4-24.6-55-55-55zm23 73.9c1.2 1.2 1.2 3 0 4.2-.6.6-1.3.9-2.1.9s-1.5-.3-2.1-.9l-18.9-18.9-18.9 18.8c-.6.6-1.3.9-2.1.9s-1.5-.3-2.1-.9c-1.2-1.2-1.2-3 0-4.2l18.9-18.8-18.8-18.9c-1.2-1.2-1.2-3 0-4.2s3-1.2 4.2 0l18.9 18.9 18.8-18.8c1.2-1.2 3-1.2 4.2 0s1.2 3 0 4.2l-18.9 18.8z" fill="none"/><path d="m100 39c-33.6 0-61 27.3-61 61 0 33.6 27.3 61 61 61 33.6 0 61-27.3 61-61 0-33.6-27.4-61-61-61zm0 116c-30.4 0-55-24.7-55-55 0-30.4 24.7-55 55-55 30.4 0 55 24.7 55 55 0 30.4-24.6 55-55 55z" fill="#e31b23"/><path d="m123 77c-1.2-1.2-3-1.2-4.2 0l-18.9 18.8-18.8-18.8c-1.2-1.2-3-1.2-4.2 0s-1.2 3 0 4.2l18.8 18.8-18.9 18.9c-1.2 1.2-1.2 3 0 4.2.6.6 1.3.9 2.1.9s1.5-.3 2.1-.9l18.9-18.9 18.9 18.9c.6.6 1.3.9 2.1.9s1.5-.3 2.1-.9c1.2-1.2 1.2-3 0-4.2l-18.9-18.9 18.9-18.9c1.1-1.1 1.1-3 0-4.1z" fill="#231f20"/></svg>