<?xml version="1.0" standalone="no"?>
<!-- Generator: Adobe Fireworks 10, Export SVG Extension by Aaron Beall (http://fireworks.abeall.com) . Version: 0.6.1  -->
<!DOCTYPE svg PUBLIC "-//W3C//DTD SVG 1.1//EN" "http://www.w3.org/Graphics/SVG/1.1/DTD/svg11.dtd">
<svg id="Icons.fw-additional-docs" viewBox="0 0 25 25" style="background-color:#ffffff00" version="1.1"
	xmlns="http://www.w3.org/2000/svg" xmlns:xlink="http://www.w3.org/1999/xlink" xml:space="preserve"
	x="0px" y="0px" width="25px" height="25px"
>
	<g>
		<path d="M 18.4702 15.5782 C 15.9684 15.5782 13.9403 17.6874 13.9403 20.2891 C 13.9403 22.8909 15.9684 25 18.4702 25 C 20.9719 25 23 22.8909 23 20.2891 C 23 17.6874 20.9719 15.5782 18.4702 15.5782 ZM 21.2065 20.9126 L 19.0699 20.9126 L 19.0699 23.135 L 17.8705 23.135 L 17.8705 20.9126 L 15.7338 20.9126 L 15.7338 19.6656 L 17.8705 19.6656 L 17.8705 17.4433 L 19.0699 17.4433 L 19.0699 19.6656 L 21.2065 19.6656 L 21.2065 20.9126 Z" fill="#ffffff"/>
		<path d="M 16.0499 0 L 3 0 L 3 22.8231 L 13.0514 22.8231 C 12.7164 22.0497 12.5286 21.1925 12.5286 20.2891 C 12.5286 16.8765 15.1885 14.1099 18.4702 14.1099 C 19.1337 14.1099 19.7713 14.2249 20.3671 14.4336 L 20.3671 4.4898 L 16.0499 0 ZM 16.4423 13.1973 L 6.9248 13.1973 L 6.9248 12.0748 L 16.4423 12.0748 L 16.4423 13.1973 ZM 16.4423 10.5442 L 6.9248 10.5442 L 6.9248 9.4218 L 16.4423 9.4218 L 16.4423 10.5442 ZM 16.4423 7.8912 L 6.9248 7.8912 L 6.9248 6.7687 L 16.4423 6.7687 L 16.4423 7.8912 ZM 16.0593 4.4801 L 16.0593 0.9864 L 19.4186 4.4801 L 16.0593 4.4801 Z" fill="#ffffff"/>
	</g>
</svg>