<?xml version="1.0" standalone="no"?>
<!-- Generator: Adobe Fireworks 10, Export SVG Extension by Aaron Beall (http://fireworks.abeall.com) . Version: 0.6.1  -->
<!DOCTYPE svg PUBLIC "-//W3C//DTD SVG 1.1//EN" "http://www.w3.org/Graphics/SVG/1.1/DTD/svg11.dtd">
<svg id="Icons.fw-atm" viewBox="0 0 25 25" style="background-color:#ffffff00" version="1.1"
	xmlns="http://www.w3.org/2000/svg" xmlns:xlink="http://www.w3.org/1999/xlink" xml:space="preserve"
	x="0px" y="0px" width="25px" height="25px"
>
	<g id="Layer%20110">
		<g id="base54">
			<path d="M 4.9046 5.8036 L 4 6.8364 L 4 25 L 12.7179 25 L 12.7179 13.3686 L 8.8143 5.8036 L 4.9046 5.8036 ZM 10.5123 14.5378 L 10.1213 15.6688 C 9.8227 15.5333 9.275 15.2511 8.4286 15.2511 C 7.5576 15.2511 7.2465 15.6932 7.2465 16.1111 C 7.2465 16.6149 7.6944 16.8977 8.7523 17.3155 C 10.1461 17.8321 10.8983 18.4954 10.8983 19.5898 C 10.8983 20.6342 10.1641 21.5563 8.7949 21.7775 L 8.7949 23.2143 L 7.9231 23.2143 L 7.9231 22.0221 C 7.1389 21.9971 6.6274 21.6052 6.1795 21.3102 L 6.1795 20.1548 C 6.6648 20.4376 7.3617 20.6958 8.1208 20.6958 C 8.905 20.6958 9.2251 20.3148 9.2251 19.7248 C 9.2251 19.1716 8.7896 18.8154 7.8686 18.4832 C 6.5619 18.0165 5.9196 17.4266 5.9196 16.2833 C 5.9196 15.2261 6.666 14.415 7.9231 14.1939 L 7.9231 13.3929 L 8.7949 13.3929 L 8.7949 14.2426 C 9.5788 14.267 10.1141 14.3412 10.5123 14.5378 Z" fill="#ffffff"/>
			<path d="M 15.7976 4.1261 C 16.8956 4.1261 17.7859 3.2024 17.7859 2.0632 C 17.7859 0.9238 16.8956 0 15.7976 0 C 14.6997 0 13.8095 0.9238 13.8095 2.0632 C 13.8095 3.2024 14.6997 4.1261 15.7976 4.1261 Z" fill="#ffffff"/>
			<path d="M 19.24 5.4389 C 18.9988 4.5726 18.1267 4.0713 17.2916 4.3238 C 16.6758 4.5082 16.255 5.0499 16.1721 5.6685 C 15.3912 7.3407 14.7272 8.7242 14.3854 8.8959 C 13.6748 9.2536 12.8984 9.6287 12.8967 9.6298 C 12.437 9.8521 12.238 10.4187 12.4521 10.8954 C 12.6078 11.2419 12.939 11.4454 13.2847 11.4454 C 13.4146 11.4454 13.5464 11.4168 13.6717 11.3562 C 13.6717 11.3562 14.4623 10.9741 15.1863 10.6099 C 15.7929 10.3049 15.898 9.7037 16.4923 8.5552 L 17.5128 12.2199 L 17.5128 23.3672 C 17.5128 24.2692 18.2173 25 19.0864 25 C 19.9554 25 21 24.2692 21 23.3672 L 21 11.7574 L 19.24 5.4389 Z" fill="#ffffff"/>
		</g>
	</g>
</svg>