<?xml version="1.0" standalone="no"?>
<!-- Generator: Adobe Fireworks 10, Export SVG Extension by Aaron Beall (http://fireworks.abeall.com) . Version: 0.6.1  -->
<!DOCTYPE svg PUBLIC "-//W3C//DTD SVG 1.1//EN" "http://www.w3.org/Graphics/SVG/1.1/DTD/svg11.dtd">
<svg id="Icons.fw-back-to-myaccount" viewBox="0 0 16 16" style="background-color:#ffffff00" version="1.1"
	xmlns="http://www.w3.org/2000/svg" xmlns:xlink="http://www.w3.org/1999/xlink" xml:space="preserve"
	x="0px" y="0px" width="16px" height="16px"
>
	<g id="Layer%20130">
		<path id="base66" d="M 14 9 L 14 6 L 7 6 L 7 2 L 6 2 L 6 3 L 5 3 L 5 4 L 4 4 L 4 5 L 3 5 L 3 6 L 2 6 L 2 7 L 1 7 L 1 8 L 2 8 L 2 9 L 3 9 L 3 10 L 4 10 L 4 11 L 5 11 L 5 12 L 6 12 L 6 13 L 7 13 L 7 9 L 14 9 Z" fill="#ffffff"/>
	</g>
</svg>