<?xml version="1.0" standalone="no"?>
<!-- Generator: Adobe Fireworks 10, Export SVG Extension by Aaron Beall (http://fireworks.abeall.com) . Version: 0.6.1  -->
<!DOCTYPE svg PUBLIC "-//W3C//DTD SVG 1.1//EN" "http://www.w3.org/Graphics/SVG/1.1/DTD/svg11.dtd">
<svg id="Icons.fw-balance" viewBox="0 0 25 25" style="background-color:#ffffff00" version="1.1"
	xmlns="http://www.w3.org/2000/svg" xmlns:xlink="http://www.w3.org/1999/xlink" xml:space="preserve"
	x="0px" y="0px" width="25px" height="25px"
>
	<g id="balance">
		<path id="base33" d="M 6.3121 10.988 C 6.3121 9.9217 7.1952 9.0572 8.2846 9.0572 C 9.3741 9.0572 10.2572 9.9217 10.2572 10.988 C 10.2572 12.0544 9.3741 12.9188 8.2846 12.9188 C 7.1952 12.9188 6.3121 12.0544 6.3121 10.988 ZM 11.5934 7.3256 C 10.6354 7.7512 9.9832 6.3448 10.9411 5.9192 C 12.6774 5.1477 15.4275 4.8008 17.3543 5.703 C 18.3033 6.1474 17.6223 7.5408 16.6733 7.0964 C 15.3068 6.4565 13.0697 6.6696 11.5934 7.3256 ZM 3.1561 9.8296 L 0 10.6019 L 0 16.008 C 0 16.008 3.6467 18.271 6.2036 18.5961 C 6.2031 20.1507 6.4663 21.4289 7.1011 22.9589 L 10.2572 22.9589 C 10.2572 22.9589 11.0904 22.1057 11.3536 20.5643 C 12.1512 20.9132 16.1034 21.158 17.3583 20.6419 C 17.6396 21.8262 17.8103 22.4945 18.1473 22.9589 C 19.062 23.0514 21.3034 22.9589 21.3034 22.9589 C 21.3034 22.9589 22.362 20.2112 22.0206 18.5961 C 23.3293 17.4266 25.219 15.2457 24.9792 11.9132 C 24.6948 7.9591 21.1672 3.8935 15.3638 3.7265 C 11.6096 3.6184 9.6742 5.0073 9.6742 5.0073 L 6.3173 2 L 6.3121 6.7403 L 3.1561 9.8296 Z" fill="#ffffff"/>
	</g>
</svg>