<?xml version="1.0" standalone="no"?>
<!-- Generator: Adobe Fireworks 10, Export SVG Extension by Aaron Beall (http://fireworks.abeall.com) . Version: 0.6.1  -->
<!DOCTYPE svg PUBLIC "-//W3C//DTD SVG 1.1//EN" "http://www.w3.org/Graphics/SVG/1.1/DTD/svg11.dtd">
<svg id="Icons.fw-balance20" viewBox="0 0 25 25" style="background-color:#ffffff00" version="1.1"
	xmlns="http://www.w3.org/2000/svg" xmlns:xlink="http://www.w3.org/1999/xlink" xml:space="preserve"
	x="0px" y="0px" width="25px" height="25px"
>
	<g id="Layer%2017">
		<g id="base51">
			<path d="M 1.3306 17.6611 C 1.8775 18.0593 2.5767 18.2949 3.4281 18.379 L 3.4281 20 L 4.4824 20 L 4.4824 18.379 C 5.2943 18.2837 5.9709 18.0761 6.5009 17.7452 C 6.9181 17.476 7.2452 17.1002 7.482 16.6178 C 7.7131 16.1354 7.8315 15.6082 7.8315 15.0248 C 7.8315 14.1835 7.5722 13.5048 7.0535 13 C 6.5347 12.4952 5.6777 12.0745 4.4824 11.738 L 4.4824 8.6082 C 4.8714 8.6643 5.1703 8.8381 5.3789 9.141 C 5.5875 9.4439 5.6946 9.8365 5.6946 10.3077 L 7.6793 10.3077 C 7.6793 9.3373 7.3917 8.5577 6.8166 7.9631 C 6.2415 7.3742 5.4635 7.0769 4.4824 7.0769 L 4.4824 6 L 3.4281 6 L 3.4281 7.0321 C 2.4244 7.1274 1.6407 7.4415 1.0882 7.98 C 0.5356 8.5184 0.2594 9.2252 0.2594 10.0946 C 0.2594 11.8165 1.3137 12.9215 3.4281 13.4038 L 3.4281 16.73 C 2.5485 16.5729 2.0805 15.9391 2.0298 14.8229 L 0 14.8229 L 0 14.9631 C 0 16.1298 0.4398 17.0272 1.3306 17.6611 L 1.3306 17.6611 ZM 3.4281 8.6082 L 3.4281 11.4295 C 2.588 11.1603 2.1707 10.7003 2.1707 10.0441 C 2.1707 9.2532 2.588 8.7764 3.4281 8.6082 L 3.4281 8.6082 ZM 4.4824 13.6675 C 5.3507 13.9367 5.7848 14.4527 5.7848 15.2155 C 5.7848 16.0064 5.3507 16.5112 4.4824 16.73 L 4.4824 13.6675 L 4.4824 13.6675 Z" fill="#e00000"/>
			<path d="M 16.2607 18.2051 L 16.2607 16.4327 L 11.6035 16.4327 C 11.7388 16.1298 11.9362 15.8494 12.2068 15.5801 C 12.4774 15.3165 13.0187 14.879 13.8419 14.262 C 14.7891 13.5272 15.4375 12.8878 15.7871 12.3494 C 16.131 11.8109 16.3058 11.149 16.3058 10.3694 C 16.3058 9.2588 15.9675 8.3726 15.2909 7.7107 C 14.6143 7.0489 13.6953 6.7179 12.5395 6.7179 C 11.4005 6.7179 10.5097 7.0545 9.8726 7.722 C 9.2355 8.3894 8.9197 9.3205 8.9197 10.5208 C 8.9197 10.6723 8.9253 10.8069 8.9366 10.9191 L 11.0171 10.9191 L 11.0171 10.5433 C 11.0171 9.8982 11.1525 9.3934 11.4287 9.0345 C 11.6994 8.6755 12.0884 8.4904 12.5846 8.4904 C 13.0695 8.4904 13.4472 8.653 13.7235 8.9784 C 13.9941 9.3037 14.1351 9.7468 14.1351 10.3077 C 14.1351 10.9359 13.9659 11.4519 13.6389 11.867 C 13.3063 12.2821 12.5338 12.9327 11.3272 13.8077 C 10.3913 14.4583 9.7485 15.0978 9.3933 15.7147 C 9.0325 16.3373 8.8295 17.1675 8.7844 18.2051 L 16.2607 18.2051 L 16.2607 18.2051 Z" fill="#e00000"/>
			<path d="M 17.5124 14.262 C 17.5688 14.7893 17.6759 15.3109 17.8451 15.8213 C 18.0086 16.3373 18.2285 16.758 18.5047 17.0946 C 18.7754 17.4311 19.1419 17.7003 19.5986 17.9022 C 20.0496 18.1042 20.5909 18.2051 21.2111 18.2051 C 21.7975 18.2051 22.3162 18.1154 22.756 17.9303 C 23.1958 17.7508 23.5848 17.4479 23.9344 17.0216 C 24.2783 16.601 24.5433 16.012 24.7237 15.2604 C 24.9041 14.5088 25 13.6002 25 12.5345 C 25 11.8446 24.9718 11.2332 24.9211 10.7059 C 24.8647 10.1787 24.7576 9.6571 24.594 9.1354 C 24.4249 8.6138 24.2106 8.1875 23.94 7.851 C 23.6694 7.5144 23.3085 7.2452 22.8462 7.0321 C 22.3839 6.8245 21.8426 6.7179 21.2111 6.7179 C 20.6022 6.7179 20.0665 6.8189 19.6155 7.0152 C 19.1588 7.2171 18.7923 7.4808 18.5217 7.8173 C 18.2454 8.1538 18.0198 8.5745 17.8507 9.0793 C 17.6816 9.5841 17.5688 10.1058 17.5124 10.6386 C 17.456 11.1715 17.4278 11.7829 17.4278 12.4671 C 17.4278 13.1402 17.456 13.7348 17.5124 14.262 L 17.5124 14.262 ZM 20.2751 8.8101 C 20.495 8.597 20.8051 8.4904 21.2111 8.4904 C 21.6058 8.4904 21.9046 8.5801 22.1189 8.7596 C 22.3331 8.9391 22.5023 9.3317 22.6319 9.9375 C 22.7616 10.5433 22.8293 11.4071 22.8293 12.5401 C 22.8293 13.5946 22.7673 14.4022 22.6545 14.9688 C 22.5417 15.5353 22.3726 15.9223 22.1527 16.1242 C 21.9272 16.3317 21.6171 16.4327 21.2111 16.4327 C 20.8164 16.4327 20.512 16.3429 20.2977 16.1579 C 20.0778 15.9728 19.9087 15.5913 19.7846 15.0136 C 19.6606 14.4359 19.5986 13.6002 19.5986 12.512 C 19.5986 11.4239 19.6549 10.5825 19.7677 9.9992 C 19.8805 9.4159 20.0496 9.0232 20.2751 8.8101 L 20.2751 8.8101 Z" fill="#e00000"/>
		</g>
	</g>
</svg>