<?xml version="1.0" standalone="no"?>
<!-- Generator: Adobe Fireworks 10, Export SVG Extension by Aaron Beall (http://fireworks.abeall.com) . Version: 0.6.1  -->
<!DOCTYPE svg PUBLIC "-//W3C//DTD SVG 1.1//EN" "http://www.w3.org/Graphics/SVG/1.1/DTD/svg11.dtd">
<svg id="Icons.fw-balance200" viewBox="0 0 25 25" style="background-color:#ffffff00" version="1.1"
	xmlns="http://www.w3.org/2000/svg" xmlns:xlink="http://www.w3.org/1999/xlink" xml:space="preserve"
	x="0px" y="0px" width="25px" height="25px"
>
	<g id="Layer%2018">
		<g id="base52">
			<path d="M 0.9883 16.3293 C 1.3945 16.6138 1.9137 16.7821 2.5461 16.8421 L 2.5461 18 L 3.3291 18 L 3.3291 16.8421 C 3.9322 16.774 4.4347 16.6258 4.8283 16.3894 C 5.1382 16.1971 5.3811 15.9287 5.557 15.5841 C 5.7286 15.2396 5.8166 14.863 5.8166 14.4463 C 5.8166 13.8454 5.624 13.3606 5.2387 13 C 4.8534 12.6394 4.2169 12.3389 3.3291 12.0986 L 3.3291 9.863 C 3.6181 9.903 3.84 10.0272 3.995 10.2436 C 4.1499 10.4599 4.2295 10.7404 4.2295 11.0769 L 5.7035 11.0769 C 5.7035 10.3838 5.49 9.8269 5.0628 9.4022 C 4.6357 8.9816 4.0578 8.7692 3.3291 8.7692 L 3.3291 8 L 2.5461 8 L 2.5461 8.7372 C 1.8007 8.8053 1.2186 9.0296 0.8082 9.4143 C 0.3978 9.7989 0.1926 10.3037 0.1926 10.9247 C 0.1926 12.1546 0.9757 12.9439 2.5461 13.2885 L 2.5461 15.6643 C 1.8928 15.5521 1.5452 15.0994 1.5075 14.3021 L 0 14.3021 L 0 14.4022 C 0 15.2356 0.3266 15.8766 0.9883 16.3293 L 0.9883 16.3293 ZM 2.5461 9.863 L 2.5461 11.8782 C 1.9221 11.6859 1.6122 11.3574 1.6122 10.8886 C 1.6122 10.3237 1.9221 9.9832 2.5461 9.863 L 2.5461 9.863 ZM 3.3291 13.4768 C 3.974 13.6691 4.2965 14.0377 4.2965 14.5825 C 4.2965 15.1474 3.974 15.508 3.3291 15.6643 L 3.3291 13.4768 L 3.3291 13.4768 Z" fill="#1e90ff"/>
			<path d="M 12.0771 16.7179 L 12.0771 15.4519 L 8.6181 15.4519 C 8.7186 15.2356 8.8652 15.0353 9.0662 14.8429 C 9.2672 14.6546 9.6692 14.3421 10.2806 13.9014 C 10.9841 13.3766 11.4657 12.9199 11.7253 12.5353 C 11.9807 12.1506 12.1106 11.6779 12.1106 11.121 C 12.1106 10.3277 11.8593 9.6947 11.3568 9.222 C 10.8543 8.7492 10.1717 8.5128 9.3132 8.5128 C 8.4673 8.5128 7.8057 8.7532 7.3325 9.23 C 6.8593 9.7067 6.6248 10.3718 6.6248 11.2292 C 6.6248 11.3373 6.629 11.4335 6.6374 11.5136 L 8.1826 11.5136 L 8.1826 11.2452 C 8.1826 10.7845 8.2831 10.4239 8.4883 10.1675 C 8.6893 9.9111 8.9782 9.7788 9.3467 9.7788 C 9.7069 9.7788 9.9874 9.895 10.1926 10.1274 C 10.3936 10.3598 10.4983 10.6763 10.4983 11.0769 C 10.4983 11.5256 10.3727 11.8942 10.1298 12.1907 C 9.8827 12.4872 9.309 12.9519 8.4129 13.5769 C 7.7178 14.0417 7.2404 14.4984 6.9765 14.9391 C 6.7085 15.3838 6.5578 15.9768 6.5243 16.7179 L 12.0771 16.7179 L 12.0771 16.7179 Z" fill="#1e90ff"/>
			<path d="M 13.0067 13.9014 C 13.0486 14.278 13.1281 14.6506 13.2538 15.0152 C 13.3752 15.3838 13.5385 15.6843 13.7437 15.9247 C 13.9447 16.1651 14.2169 16.3574 14.5561 16.5016 C 14.8911 16.6458 15.2931 16.7179 15.7538 16.7179 C 16.1893 16.7179 16.5745 16.6538 16.9012 16.5216 C 17.2278 16.3934 17.5168 16.1771 17.7764 15.8726 C 18.0318 15.5721 18.2286 15.1514 18.3626 14.6146 C 18.4967 14.0777 18.5678 13.4287 18.5678 12.6675 C 18.5678 12.1747 18.5469 11.738 18.5092 11.3614 C 18.4673 10.9848 18.3878 10.6122 18.2663 10.2396 C 18.1407 9.867 17.9816 9.5625 17.7806 9.3221 C 17.5796 9.0817 17.3116 8.8894 16.9682 8.7372 C 16.6248 8.5889 16.2228 8.5128 15.7538 8.5128 C 15.3015 8.5128 14.9037 8.5849 14.5687 8.7252 C 14.2295 8.8694 13.9573 9.0577 13.7563 9.2981 C 13.5511 9.5385 13.3836 9.8389 13.258 10.1995 C 13.1323 10.5601 13.0486 10.9327 13.0067 11.3133 C 12.9648 11.6939 12.9439 12.1306 12.9439 12.6194 C 12.9439 13.1002 12.9648 13.5248 13.0067 13.9014 L 13.0067 13.9014 ZM 15.0586 10.0072 C 15.2219 9.855 15.4523 9.7788 15.7538 9.7788 C 16.0469 9.7788 16.2688 9.8429 16.428 9.9712 C 16.5871 10.0994 16.7127 10.3798 16.809 10.8125 C 16.9054 11.2452 16.9556 11.8622 16.9556 12.6715 C 16.9556 13.4247 16.9095 14.0016 16.8258 14.4063 C 16.742 14.8109 16.6164 15.0873 16.4531 15.2316 C 16.2856 15.3798 16.0553 15.4519 15.7538 15.4519 C 15.4606 15.4519 15.2345 15.3878 15.0754 15.2556 C 14.9121 15.1234 14.7864 14.851 14.6943 14.4383 C 14.6022 14.0256 14.5561 13.4287 14.5561 12.6514 C 14.5561 11.8742 14.598 11.2732 14.6817 10.8566 C 14.7655 10.4399 14.8911 10.1595 15.0586 10.0072 L 15.0586 10.0072 Z" fill="#1e90ff"/>
			<path d="M 19.4389 13.9014 C 19.4807 14.278 19.5603 14.6506 19.6859 15.0152 C 19.8074 15.3838 19.9707 15.6843 20.1759 15.9247 C 20.3769 16.1651 20.6491 16.3574 20.9883 16.5016 C 21.3233 16.6458 21.7253 16.7179 22.1859 16.7179 C 22.6214 16.7179 23.0067 16.6538 23.3333 16.5216 C 23.66 16.3934 23.9489 16.1771 24.2085 15.8726 C 24.464 15.5721 24.6608 15.1514 24.7948 14.6146 C 24.9288 14.0777 25 13.4287 25 12.6675 C 25 12.1747 24.9791 11.738 24.9414 11.3614 C 24.8995 10.9848 24.8199 10.6122 24.6985 10.2396 C 24.5729 9.867 24.4137 9.5625 24.2127 9.3221 C 24.0117 9.0817 23.7437 8.8894 23.4003 8.7372 C 23.057 8.5889 22.6549 8.5128 22.1859 8.5128 C 21.7337 8.5128 21.3358 8.5849 21.0008 8.7252 C 20.6616 8.8694 20.3894 9.0577 20.1884 9.2981 C 19.9832 9.5385 19.8157 9.8389 19.6901 10.1995 C 19.5645 10.5601 19.4807 10.9327 19.4389 11.3133 C 19.397 11.6939 19.376 12.1306 19.376 12.6194 C 19.376 13.1002 19.397 13.5248 19.4389 13.9014 L 19.4389 13.9014 ZM 21.4908 10.0072 C 21.6541 9.855 21.8844 9.7788 22.1859 9.7788 C 22.4791 9.7788 22.701 9.8429 22.8601 9.9712 C 23.0193 10.0994 23.1449 10.3798 23.2412 10.8125 C 23.3375 11.2452 23.3878 11.8622 23.3878 12.6715 C 23.3878 13.4247 23.3417 14.0016 23.258 14.4063 C 23.1742 14.8109 23.0486 15.0873 22.8853 15.2316 C 22.7178 15.3798 22.4874 15.4519 22.1859 15.4519 C 21.8928 15.4519 21.6667 15.3878 21.5075 15.2556 C 21.3442 15.1234 21.2186 14.851 21.1265 14.4383 C 21.0343 14.0256 20.9883 13.4287 20.9883 12.6514 C 20.9883 11.8742 21.0302 11.2732 21.1139 10.8566 C 21.1977 10.4399 21.3233 10.1595 21.4908 10.0072 L 21.4908 10.0072 Z" fill="#1e90ff"/>
		</g>
	</g>
</svg>