<?xml version="1.0" standalone="no"?>
<!-- Generator: Adobe Fireworks 10, Export SVG Extension by Aaron Beall (http://fireworks.abeall.com) . Version: 0.6.1  -->
<!DOCTYPE svg PUBLIC "-//W3C//DTD SVG 1.1//EN" "http://www.w3.org/Graphics/SVG/1.1/DTD/svg11.dtd">
<svg id="Icons.fw-bank-deposit" viewBox="0 0 25 25" style="background-color:#ffffff00" version="1.1"
	xmlns="http://www.w3.org/2000/svg" xmlns:xlink="http://www.w3.org/1999/xlink" xml:space="preserve"
	x="0px" y="0px" width="25px" height="25px"
>
	<g id="Layer%20140">
		<g>
			<g>
				<g>
					<g>
						<path d="M 3.125 12.1905 L 1.875 12.1905 L 1.875 6.4679 L 3.125 6.4679 L 3.125 12.1905 Z" fill="#ffffff"/>
						<path d="M 10.625 12.1905 L 9.375 12.1905 L 9.375 6.4679 L 10.625 6.4679 L 10.625 12.1905 Z" fill="#ffffff"/>
						<path d="M 6.875 12.1905 L 5.625 12.1905 L 5.625 6.4679 L 6.875 6.4679 L 6.875 12.1905 Z" fill="#ffffff"/>
					</g>
					<g>
						<path d="M 0.6251 6.4679 L 0.6251 5.8321 L 11.875 5.8321 L 11.875 6.4679 L 0.6251 6.4679 Z" fill="#ffffff"/>
						<path d="M 2.3887 5.1962 L 0 5.1962 L 6.2501 2.017 L 12.5 5.1962 L 10.1108 5.1962 L 2.3887 5.1962 Z" fill="#ffffff"/>
						<path d="M 1.25 12.8264 L 1.25 12.1905 L 11.25 12.1905 L 11.25 12.8264 L 1.25 12.8264 Z" fill="#ffffff"/>
					</g>
				</g>
				<rect x="0.8595" y="13.4623" width="11.25" height="1.2717" fill="#ffffff"/>
			</g>
			<g>
				<g>
					<g>
						<path d="M 15.625 19.1849 L 14.375 19.1849 L 14.375 13.4623 L 15.625 13.4623 L 15.625 19.1849 Z" fill="#ffffff"/>
						<path d="M 23.125 19.1849 L 21.875 19.1849 L 21.875 13.4623 L 23.125 13.4623 L 23.125 19.1849 Z" fill="#ffffff"/>
						<path d="M 19.375 19.1849 L 18.125 19.1849 L 18.125 13.4623 L 19.375 13.4623 L 19.375 19.1849 Z" fill="#ffffff"/>
					</g>
					<g>
						<path d="M 13.125 13.4623 L 13.125 12.8264 L 24.3749 12.8264 L 24.3749 13.4623 L 13.125 13.4623 Z" fill="#ffffff"/>
						<path d="M 14.8886 12.1905 L 12.5 12.1905 L 18.7499 9.0113 L 25 12.1905 L 22.6108 12.1905 L 14.8886 12.1905 Z" fill="#ffffff"/>
						<path d="M 13.75 19.8207 L 13.75 19.1849 L 23.75 19.1849 L 23.75 19.8207 L 13.75 19.8207 Z" fill="#ffffff"/>
					</g>
				</g>
				<rect x="13.3595" y="20.4566" width="11.25" height="1.2717" fill="#ffffff"/>
			</g>
			<g>
				<path d="M 7.3686 21.576 C 7.3686 21.576 3.1409 20.6031 3.1409 16.2604 C 4.017 18.6699 8.2672 19.3961 8.2672 19.3961 L 7.3686 21.576 Z" fill="#ffffff"/>
				<path d="M 5.625 23 L 6.4314 20.1393 L 7.2376 17.2774 L 11.25 21.3405 L 5.625 23 Z" fill="#ffffff"/>
			</g>
			<g>
				<path d="M 17.0223 2.424 C 17.0223 2.424 21.25 3.3969 21.25 7.7396 C 20.374 5.33 16.1238 4.6039 16.1238 4.6039 L 17.0223 2.424 Z" fill="#ffffff"/>
				<path d="M 18.766 1 L 17.9595 3.8607 L 17.1534 6.7226 L 13.141 2.6595 L 18.766 1 Z" fill="#ffffff"/>
			</g>
		</g>
	</g>
</svg>