<?xml version="1.0" standalone="no"?>
<!-- Generator: Adobe Fireworks 10, Export SVG Extension by Aaron Beall (http://fireworks.abeall.com) . Version: 0.6.1  -->
<!DOCTYPE svg PUBLIC "-//W3C//DTD SVG 1.1//EN" "http://www.w3.org/Graphics/SVG/1.1/DTD/svg11.dtd">
<svg id="Icons.fw-bank-information" viewBox="0 0 25 25" style="background-color:#ffffff00" version="1.1"
	xmlns="http://www.w3.org/2000/svg" xmlns:xlink="http://www.w3.org/1999/xlink" xml:space="preserve"
	x="0px" y="0px" width="25px" height="25px"
>
	<g id="Layer%20145">
		<g>
			<path d="M 23.8526 22.7269 L 1.1364 22.7269 C 0.5088 22.7269 0.0002 23.2355 0.0002 23.8638 C 0.0002 24.4912 0.5088 25 1.1364 25 L 23.8526 25 C 24.48 25 24.9891 24.4912 24.9891 23.8638 C 24.9881 23.2355 24.48 22.7269 23.8526 22.7269 Z" fill="#ffffff"/>
			<path d="M 2.556 19.7714 C 1.9283 19.7714 1.4197 20.2803 1.4197 20.908 C 1.4197 21.5358 1.9283 22.0451 2.556 22.0451 L 22.433 22.0451 C 23.0601 22.0451 23.569 21.5358 23.569 20.908 C 23.569 20.2803 23.0601 19.7714 22.433 19.7714 L 22.1488 19.7714 L 22.1488 9.5439 L 22.433 9.5439 C 22.7472 9.5439 23.0007 9.2898 23.0007 8.9761 C 23.0007 8.6627 22.7462 8.4084 22.433 8.4084 L 2.556 8.4084 C 2.242 8.4084 1.9882 8.6627 1.9882 8.9761 C 1.9882 9.2898 2.2424 9.5439 2.556 9.5439 L 2.8399 9.5439 L 2.8399 19.7714 L 2.556 19.7714 ZM 19.8772 9.5439 L 19.8772 19.7714 L 16.4698 19.7714 L 16.4698 9.5439 L 19.8772 9.5439 ZM 14.1973 9.5439 L 14.1973 19.7714 L 10.7904 19.7714 L 10.7904 9.5439 L 14.1973 9.5439 ZM 5.1111 9.5439 L 8.5187 9.5439 L 8.5187 19.7714 L 5.1111 19.7714 L 5.1111 9.5439 Z" fill="#ffffff"/>
			<path d="M 1.1364 7.3862 L 23.8526 7.3862 C 23.8567 7.3862 23.8609 7.3862 23.8641 7.3862 C 24.492 7.3862 25 6.8773 25 6.2492 C 25 5.7502 24.6785 5.3271 24.2317 5.174 L 12.9611 0.0997 C 12.6648 -0.0332 12.3258 -0.0332 12.0293 0.0997 L 0.6702 5.2134 C 0.1813 5.4336 -0.0872 5.9647 0.0256 6.4885 C 0.1378 7.012 0.6006 7.3862 1.1364 7.3862 Z" fill="#ffffff"/>
		</g>
	</g>
</svg>