<?xml version="1.0" standalone="no"?>
<!-- Generator: Adobe Fireworks 10, Export SVG Extension by Aaron Beall (http://fireworks.abeall.com) . Version: 0.6.1  -->
<!DOCTYPE svg PUBLIC "-//W3C//DTD SVG 1.1//EN" "http://www.w3.org/Graphics/SVG/1.1/DTD/svg11.dtd">
<svg id="Icons.fw-bank-withdrawal" viewBox="0 0 25 25" style="background-color:#ffffff00" version="1.1"
	xmlns="http://www.w3.org/2000/svg" xmlns:xlink="http://www.w3.org/1999/xlink" xml:space="preserve"
	x="0px" y="0px" width="25px" height="25px"
>
	<g id="Layer%20143">
		<g>
			<g>
				<path d="M 21.0526 10.0715 L 25 13.3006 L 21.0526 16.5 L 21.0526 10.0715 Z" fill="#ffffff"/>
				<rect x="18.421" y="12.2412" width="3.9474" height="2.5713" fill="#ffffff"/>
			</g>
			<g>
				<g>
					<g>
						<path d="M 4.6052 19.0714 L 2.6315 19.0714 L 2.6315 8.1429 L 4.6052 8.1429 L 4.6052 19.0714 Z" fill="#ffffff"/>
						<path d="M 16.4473 19.0714 L 14.4736 19.0714 L 14.4736 8.1429 L 16.4473 8.1429 L 16.4473 19.0714 Z" fill="#ffffff"/>
					</g>
					<g>
						<g>
							<path d="M 6.6401 11.9068 C 6.6401 10.9739 7.0544 10.1289 8.6899 9.8219 L 8.6899 8.7857 L 10.5677 8.7857 L 10.5677 9.5644 C 11.1128 9.6853 11.8539 10.161 12.2502 10.5348 L 11.0561 11.8523 C 10.6718 11.534 10.3827 11.3364 9.7376 11.3364 C 9.0308 11.3364 8.7439 11.5558 8.7439 11.9068 C 8.7439 13.1807 12.4999 12.8733 12.4999 15.3775 C 12.4999 16.4647 11.658 17.2768 10.5677 17.5391 L 10.5677 18.4286 L 8.6899 18.4286 L 8.6899 17.4242 C 7.5995 17.2615 6.8882 16.9801 6.5789 16.3761 L 7.7651 15.1794 C 8.2602 15.7389 8.9848 15.9924 9.5925 15.9924 C 10.1127 15.9924 10.3345 15.7612 10.3345 15.3988 C 10.3345 14.2451 6.6401 14.3887 6.6401 11.9068 Z" fill="#ffffff"/>
						</g>
						<path d="M 1.3158 8.7857 L 1.3158 8.1429 L 17.7631 8.1429 L 17.7631 8.7857 L 1.3158 8.7857 Z" fill="#ffffff"/>
						<path d="M 3.6458 7.5 L 0 7.5 L 9.5394 3 L 19.079 7.5 L 15.4323 7.5 L 3.6458 7.5 Z" fill="#ffffff"/>
						<path d="M 1.3158 19.0714 L 1.3158 18.4286 L 17.7631 18.4286 L 17.7631 19.0714 L 1.3158 19.0714 Z" fill="#ffffff"/>
					</g>
				</g>
				<rect x="0.6579" y="19.9557" width="17.7631" height="1.2857" fill="#ffffff"/>
			</g>
		</g>
	</g>
</svg>