<?xml version="1.0" standalone="no"?>
<!-- Generator: Adobe Fireworks 10, Export SVG Extension by Aaron Beall (http://fireworks.abeall.com) . Version: 0.6.1  -->
<!DOCTYPE svg PUBLIC "-//W3C//DTD SVG 1.1//EN" "http://www.w3.org/Graphics/SVG/1.1/DTD/svg11.dtd">
<svg id="Icons.fw-bill-pay" viewBox="0 0 25 25" style="background-color:#ffffff00" version="1.1"
	xmlns="http://www.w3.org/2000/svg" xmlns:xlink="http://www.w3.org/1999/xlink" xml:space="preserve"
	x="0px" y="0px" width="25px" height="25px"
>
	<g id="bill-pay">
		<path id="base7" d="M 6.7568 15.56 L 6.7568 16.92 L 11.4865 16.92 L 11.4865 15.56 L 6.7568 15.56 ZM 6.0811 17.6 L 6.0811 18.96 L 10.8108 18.96 L 10.8108 17.6 L 6.0811 17.6 ZM 6.0811 19.64 L 6.0811 21 L 10.8108 21 L 10.8108 19.64 L 6.0811 19.64 ZM 0 19.64 L 0 21 L 4.7297 21 L 4.7297 19.64 L 0 19.64 ZM 0 17.6 L 0 18.96 L 4.7297 18.96 L 4.7297 17.6 L 0 17.6 ZM 0.6757 15.56 L 0.6757 16.92 L 5.4054 16.92 L 5.4054 15.56 L 0.6757 15.56 ZM 0 13.52 L 0 14.88 L 4.7297 14.88 L 4.7297 13.52 L 0 13.52 ZM 1.3514 9.44 L 1.3514 10.8 L 6.0811 10.8 L 6.0811 9.44 L 1.3514 9.44 ZM 1.3514 11.48 L 1.3514 12.84 L 6.0811 12.84 L 6.0811 11.48 L 1.3514 11.48 ZM 17.7617 19.7531 L 13.958 15.531 L 15.1998 14.1851 L 17.6192 15.7343 L 22.6509 11.5894 L 24.0361 13.1275 L 17.7617 19.7531 ZM 10.1351 4 L 10.1351 14.88 L 12.1622 14.88 L 12.1622 17.6 L 11.4865 17.6 L 11.4865 21 L 25 21 L 25 8.08 L 20.9459 4 L 10.1351 4 ZM 20.2703 4.68 L 24.3243 8.76 L 20.2703 8.76 L 20.2703 4.68 ZM 12.1622 6.04 L 18.2432 6.04 L 18.2432 6.72 L 12.1622 6.72 L 12.1622 6.04 ZM 12.1622 8.08 L 18.2432 8.08 L 18.2432 8.76 L 12.1622 8.76 L 12.1622 8.08 ZM 12.1622 10.12 L 20.2703 10.12 L 20.2703 10.8 L 12.1622 10.8 L 12.1622 10.12 ZM 12.1622 12.16 L 18.2432 12.16 L 18.2432 12.84 L 12.1622 12.84 L 12.1622 12.16 Z" fill="#ffffff"/>
	</g>
</svg>