<?xml version="1.0" standalone="no"?>
<!-- Generator: Adobe Fireworks 10, Export SVG Extension by Aaron Beall (http://fireworks.abeall.com) . Version: 0.6.1  -->
<!DOCTYPE svg PUBLIC "-//W3C//DTD SVG 1.1//EN" "http://www.w3.org/Graphics/SVG/1.1/DTD/svg11.dtd">
<svg id="Icons.fw-bills" viewBox="0 0 25 25" style="background-color:#ffffff00" version="1.1"
	xmlns="http://www.w3.org/2000/svg" xmlns:xlink="http://www.w3.org/1999/xlink" xml:space="preserve"
	x="0px" y="0px" width="25px" height="25px"
>
	<path d="M 14.7187 18.9512 C 14.4912 18.5791 14.3154 18.1885 14.2256 17.791 L 14.125 17.3467 L 13.7031 17.6563 C 13.2295 18.0029 12.7685 18.3604 12.3076 18.7178 L 12.0869 18.3164 L 11.8369 17.8975 L 11.6025 17.4795 C 11.5224 17.333 11.4277 17.1875 11.3311 17.042 C 11.291 16.9795 11.1865 16.833 11.0615 16.7363 C 10.9863 16.6797 10.9297 16.6318 10.7764 16.5752 C 10.6875 16.5439 10.5605 16.5234 10.4609 16.5283 C 10.0488 16.5459 9.8027 16.7734 9.6758 16.876 C 9.541 16.9854 9.4101 17.1016 9.2812 17.2197 C 8.7773 17.7031 8.3437 18.2676 8.0029 18.8721 C 7.8125 19.2188 7.6553 19.5781 7.5176 19.9414 C 7.3115 19.6865 7.0869 19.4463 6.8496 19.2285 C 6.3769 18.8047 5.875 18.4492 5.3506 18.1182 C 5.709 18.625 6.1025 19.0986 6.4346 19.5918 C 6.7754 20.0771 7.0342 20.5918 7.2685 21.125 L 7.6543 22.0059 L 8.083 21.0693 C 8.6054 19.9287 9.2285 18.8906 10.1006 18.0742 L 10.4297 17.7686 C 10.4346 17.7646 10.6474 18.0732 10.6474 18.0732 L 11.7617 19.6738 L 12.085 20.1387 L 12.4541 19.7871 C 12.9306 19.334 13.3955 18.873 13.8564 18.4092 C 14.0557 18.7275 14.2842 19.0215 14.5566 19.2578 L 14.6787 19.3643 L 14.7725 19.2666 C 15.1308 18.8877 15.5556 18.5176 16.0224 18.2344 C 15.5576 18.4053 15.1289 18.6504 14.7187 18.9512 ZM 20.6602 15.7607 C 18.8203 15.7607 17.3203 17.25 17.3203 19.0908 C 17.3203 20.9307 18.8203 22.4307 20.6602 22.4307 C 22.5097 22.4307 24 20.9307 24 19.0908 C 24 17.25 22.5097 15.7607 20.6602 15.7607 ZM 20.3496 20.6104 L 18.8603 19.1504 L 19.5801 18.5107 L 20.3799 19.3604 L 22.04 17.71 L 22.6797 18.3408 L 20.3496 20.6104 ZM 17.8301 14.7998 L 17.8301 13.7803 L 5.3506 13.7803 L 5.3506 14.7998 L 17.0518 14.7998 L 17.8301 14.7998 ZM 19.4795 23.4707 L 3.5303 23.4707 L 3.5303 8.6699 L 10.6797 8.6699 L 10.6797 1.5303 L 19.8799 1.5303 L 19.8799 14.7998 L 21.4101 14.7998 L 21.4101 0 L 9.3301 0 L 2 7.2305 L 2 25 L 21.4101 25 L 21.4101 23.4707 L 19.4795 23.4707 ZM 17.8301 5.1006 L 12.2197 5.1006 L 12.2197 6.1201 L 17.8301 6.1201 L 17.8301 5.1006 ZM 17.8301 11.2207 L 5.3506 11.2207 L 5.3506 12.25 L 17.8301 12.25 L 17.8301 11.2207 ZM 17.8301 7.6504 L 12.2197 7.6504 L 12.2197 8.6699 L 17.8301 8.6699 L 17.8301 7.6504 Z" fill="#ffffff"/>
</svg>