<?xml version="1.0" standalone="no"?>
<!-- Generator: Adobe Fireworks 10, Export SVG Extension by Aaron Beall (http://fireworks.abeall.com) . Version: 0.6.1  -->
<!DOCTYPE svg PUBLIC "-//W3C//DTD SVG 1.1//EN" "http://www.w3.org/Graphics/SVG/1.1/DTD/svg11.dtd">
<svg id="Icons.fw-cable" viewBox="0 0 25 25" style="background-color:#ffffff00" version="1.1"
	xmlns="http://www.w3.org/2000/svg" xmlns:xlink="http://www.w3.org/1999/xlink" xml:space="preserve"
	x="0px" y="0px" width="25px" height="25px"
>
	<g id="Layer%20119">
		<g id="base63">
			<path d="M 13.5 3.9998 L 17.6382 0 L 12.4673 2.7901 L 7.3604 0.0459 L 11.5 3.9998 L 13.5 3.9998 Z" fill="#ffffff"/>
			<path d="M 0 22.4999 L 25 22.4999 L 25 4.4998 L 0 4.4998 L 0 22.4999 ZM 3 6.9999 L 22 6.9999 L 22 19.4999 L 3 19.4999 L 3 6.9999 Z" fill="#ffffff"/>
			<g>
				<path d="M 22.7915 22.9824 L 2.7065 22.9824 C 2.4236 22.9824 2 23.1806 2 23.5 L 2 24.5 C 2 24.8198 2.4236 25 2.7065 25 L 22.7915 25 C 23.0781 25 23.5 24.8198 23.5 24.5 L 23.5 23.5 C 23.5 23.1806 23.0781 22.9824 22.7915 22.9824 ZM 9.2339 24.4951 L 8.2515 24.4951 C 8.063 24.4951 7.9087 24.2656 7.9087 23.9902 C 7.9087 23.7119 8.063 23.4872 8.2515 23.4872 L 9.2339 23.4872 C 9.4214 23.4872 9.5757 23.7119 9.5757 23.9902 C 9.5757 24.2656 9.4214 24.4951 9.2339 24.4951 ZM 11.7407 24.4101 L 10.7446 24.4101 C 10.5532 24.4101 10.3969 24.2207 10.3969 23.9902 C 10.3969 23.7548 10.5532 23.5654 10.7446 23.5654 L 11.7407 23.5654 C 11.9316 23.5654 12.0913 23.7548 12.0913 23.9902 C 12.0913 24.2207 11.9316 24.4101 11.7407 24.4101 ZM 14.2397 24.4101 L 13.2422 24.4101 C 13.0522 24.4101 12.895 24.2207 12.895 23.9902 C 12.895 23.7548 13.0522 23.5654 13.2422 23.5654 L 14.2397 23.5654 C 14.4336 23.5654 14.5874 23.7548 14.5874 23.9902 C 14.5874 24.2207 14.4336 24.4101 14.2397 24.4101 ZM 16.7412 24.4101 L 15.7407 24.4101 C 15.5513 24.4101 15.394 24.2207 15.394 23.9902 C 15.394 23.7548 15.5513 23.5654 15.7407 23.5654 L 16.7412 23.5654 C 16.9326 23.5654 17.0889 23.7548 17.0889 23.9902 C 17.0889 24.2207 16.9326 24.4101 16.7412 24.4101 Z" fill="#ffffff"/>
			</g>
		</g>
	</g>
</svg>