<?xml version="1.0" standalone="no"?>
<!-- Generator: Adobe Fireworks 10, Export SVG Extension by Aaron Beall (http://fireworks.abeall.com) . Version: 0.6.1  -->
<!DOCTYPE svg PUBLIC "-//W3C//DTD SVG 1.1//EN" "http://www.w3.org/Graphics/SVG/1.1/DTD/svg11.dtd">
<svg id="Icons.fw-call-me" viewBox="0 0 25 25" style="background-color:#ffffff00" version="1.1"
	xmlns="http://www.w3.org/2000/svg" xmlns:xlink="http://www.w3.org/1999/xlink" xml:space="preserve"
	x="0px" y="0px" width="25px" height="25px"
>
	<g id="call-me">
		<path id="color" d="M 13.405 13.406 L 11.25 9.9018 L 11.0115 12.9018 L 13.405 13.406 ZM 11.4745 7.082 L 15.7823 13.9056 L 17.4143 14.2501 L 11.6296 5.1337 L 11.4745 7.082 ZM 14.7986 4.9238 L 14.9329 4.9238 L 14.9189 5.1063 L 14.7986 4.9238 ZM 13.8241 3.4386 C 14.307 2.3881 14.9462 1.6878 15.6134 1.3009 C 15.4801 1.6498 15.3914 1.9964 15.3339 2.234 C 15.1863 2.8437 15.0634 3.5886 14.9745 4.4675 L 14.5 4.4675 L 13.8241 3.4386 ZM 12.8889 2.0127 C 13.2428 1.794 13.6155 1.6072 14.0023 1.4538 C 13.7258 1.7706 13.4707 2.1378 13.243 2.5534 L 12.8889 2.0127 ZM 21.6886 14.8003 C 23.6281 13.4798 25 11.2497 25 8.1177 C 25 2.7224 20.9285 0.0033 16.8986 0 L 16.8611 0.0005 C 15.3265 0.0058 13.8083 0.3894 12.4928 1.1809 L 11.9054 2.2214 L 20.1001 14.9312 L 21.7332 14.8297 L 21.6886 14.8003 ZM 20.5555 13.6935 C 20.9231 13.023 21.2208 12.2266 21.4282 11.3117 L 23.4421 11.3117 C 22.8806 12.5834 21.9836 13.5536 20.9073 14.2205 L 20.8932 14.2088 L 20.5555 13.6935 ZM 18.993 11.3117 L 20.4838 11.3117 C 20.3461 11.8726 20.1721 12.3696 19.9722 12.806 L 18.993 11.3117 ZM 16.8959 8.1177 L 18.0555 8.1177 C 18.0527 8.4356 18.0414 9.0558 18.0046 9.8059 L 16.8959 8.1177 ZM 18.0532 7.6614 L 16.5972 7.6614 L 15.7708 6.4021 C 15.7913 5.8717 15.8218 5.3792 15.8611 4.9238 L 17.9236 4.9238 C 18.0175 6.0348 18.0457 7.0878 18.0532 7.6614 ZM 16.2345 2.4457 C 16.3137 2.1182 16.5602 1.1863 16.8851 0.93 C 17.4319 1.3592 17.7258 2.914 17.882 4.4675 L 15.905 4.4675 C 15.9896 3.6637 16.1027 2.9901 16.2345 2.4457 ZM 20.8334 8.1177 C 20.8334 9.1498 20.7438 10.0601 20.5856 10.8554 L 18.8843 10.8554 C 18.9661 9.7 18.98 8.6625 18.9814 8.1177 L 20.8334 8.1177 ZM 20.4838 4.9238 C 20.6769 5.7089 20.7986 6.6189 20.8264 7.6614 L 18.9814 7.6614 C 18.9785 7.1224 18.9619 6.075 18.8657 4.9238 L 20.4838 4.9238 ZM 18.1805 1.2964 C 19.0477 1.7951 19.8663 2.8232 20.3588 4.4675 L 18.824 4.4675 C 18.7102 3.3369 18.5144 2.1587 18.1805 1.2964 ZM 24.0741 8.1177 C 24.0741 9.139 23.9132 10.0515 23.6249 10.8554 L 21.5232 10.8554 C 21.677 10.0286 21.7593 9.1141 21.7593 8.1177 L 24.0741 8.1177 ZM 23.4421 4.9238 C 23.7928 5.7181 24.0123 6.6306 24.0625 7.6614 L 21.7523 7.6614 C 21.7258 6.6583 21.6121 5.7437 21.4259 4.9238 L 23.4421 4.9238 ZM 19.8125 1.4652 C 21.2233 2.0311 22.4497 3.0314 23.2198 4.4675 L 21.3125 4.4675 C 20.9711 3.212 20.4508 2.2027 19.8125 1.4652 Z" fill="#ff8888"/>
		<path id="base" d="M 14.8485 18.0517 C 15.9651 18.0438 19.0645 19.7474 19.3862 20.1532 C 20.0322 20.9683 20.0613 21.9954 19.5496 22.8111 C 18.6926 24.1772 16.8627 24.9961 16.1234 24.9999 C 14.2271 25.0098 9.0106 24.1713 4.674 19.2961 C -0.3741 13.6262 -0.2068 6.9164 0.161 6.1805 C 0.7559 5.0002 2.0614 4.0949 2.5975 3.7617 C 3.1587 3.4128 4.1337 3.4246 4.499 3.7383 C 5.8652 4.9112 6.9011 7.0682 6.7899 9.2605 C 6.759 9.8691 6.1158 10.559 4.6531 11.7662 C 5.1118 13.2084 6.3865 15.1389 7.408 16.2842 C 8.3518 17.3451 10.3549 19.1432 11.8185 19.8168 C 12.4244 19.2824 13.8009 18.0591 14.8485 18.0517 Z" fill="#ffffff"/>
	</g>
</svg>