<?xml version="1.0" standalone="no"?>
<!-- Generator: Adobe Fireworks 10, Export SVG Extension by Aaron Beall (http://fireworks.abeall.com) . Version: 0.6.1  -->
<!DOCTYPE svg PUBLIC "-//W3C//DTD SVG 1.1//EN" "http://www.w3.org/Graphics/SVG/1.1/DTD/svg11.dtd">
<svg id="Icons.fw-call-history" viewBox="0 0 25 25" style="background-color:#ffffff00" version="1.1"
	xmlns="http://www.w3.org/2000/svg" xmlns:xlink="http://www.w3.org/1999/xlink" xml:space="preserve"
	x="0px" y="0px" width="25px" height="25px"
>
	<g id="call-history">
		<path id="base35" d="M 12.6995 15.8362 C 12.2197 15.938 11.6931 16.4058 10.5845 17.4185 C 9.3357 16.8232 7.6265 15.2339 6.821 14.2961 C 5.9495 13.2837 4.8618 11.5776 4.4702 10.3027 C 5.7334 9.1475 6.2603 8.6458 6.2937 8.0879 C 6.3115 7.7878 5.7087 4.0635 5.074 3.6853 L 4.8835 3.5615 C 4.4795 3.293 3.8687 2.8867 3.1904 3.0295 C 3.0249 3.0649 2.866 3.1316 2.7163 3.2275 C 2.2598 3.5234 1.145 4.3223 0.6375 5.3657 C 0.3235 6.0161 0.1807 11.9468 4.4883 16.9585 C 8.7449 21.9153 13.9949 22.1304 14.7834 21.9639 L 14.8052 21.9595 L 14.8745 21.939 C 15.9387 21.5447 16.8418 20.4983 17.1814 20.0652 C 17.8066 19.2678 17.3599 18.3181 17.1194 17.8083 L 17.0232 17.5957 C 16.7371 16.9009 13.2241 15.8354 12.9341 15.8179 L 12.6995 15.8362 ZM 20 8.9753 L 20 11.0625 C 17.5107 11.0815 16.9395 10.8645 15.9385 10.0562 C 15.9385 12.1733 16.853 13.9578 20 13.9578 L 20 16.0281 L 24.5408 12.4287 L 20 8.9753 ZM 14 10.0281 L 14 7.9409 C 16.4895 7.9219 17.0605 8.1389 18.0613 8.9473 C 18.0613 6.8301 17.147 5.0457 14 5.0457 L 14 2.9753 L 8.5203 6.5747 L 14 10.0281 Z" fill="#004c8e"/>
	</g>
</svg>