<?xml version="1.0" standalone="no"?>
<!-- Generator: Adobe Fireworks 10, Export SVG Extension by Aaron Beall (http://fireworks.abeall.com) . Version: 0.6.1  -->
<!DOCTYPE svg PUBLIC "-//W3C//DTD SVG 1.1//EN" "http://www.w3.org/Graphics/SVG/1.1/DTD/svg11.dtd">
<svg id="Icons.fw-call" viewBox="0 0 25 25" style="background-color:#ffffff00" version="1.1"
	xmlns="http://www.w3.org/2000/svg" xmlns:xlink="http://www.w3.org/1999/xlink" xml:space="preserve"
	x="0px" y="0px" width="25px" height="25px"
>
	<g id="call">
		<path id="base12" d="M 10.5186 18.0637 L 10.6377 18.3165 C 10.7428 18.6476 11.1372 23.0296 10.54 23.6557 L 10.3612 23.8569 C 9.9367 24.3503 9.145 25.2682 8.0539 24.925 C 7.4621 24.7388 5.9953 24.1966 5.1348 23.1867 L 5.084 23.1184 L 5.0702 23.0963 C 4.5622 22.2921 2.5498 16.3524 5.8628 9.4198 C 9.2101 2.4061 15.4033 -0.0604 16.2093 0.0011 C 17.504 0.1043 18.8045 0.9916 19.3045 1.3691 C 19.4676 1.4931 19.6042 1.6404 19.7112 1.8093 C 20.1477 2.5007 19.9879 3.3609 19.8819 3.9293 L 19.8352 4.1961 C 19.7141 5.0702 16.1203 7.39 15.8025 7.5028 C 15.2116 7.7126 14.4687 7.3482 12.7363 6.4535 C 11.585 7.4537 10.2836 9.4198 9.6082 10.8381 C 8.9816 12.1497 8.066 14.7561 7.9823 16.4098 C 9.5012 17.1957 10.2093 17.5749 10.5186 18.0637 Z" fill="#ffffff"/>
	</g>
</svg>