<?xml version="1.0" standalone="no"?>
<!-- Generator: Adobe Fireworks 10, Export SVG Extension by Aaron Beall (http://fireworks.abeall.com) . Version: 0.6.1  -->
<!DOCTYPE svg PUBLIC "-//W3C//DTD SVG 1.1//EN" "http://www.w3.org/Graphics/SVG/1.1/DTD/svg11.dtd">
<svg id="Icons.fw-cash-pickup" viewBox="0 0 25 25" style="background-color:#ffffff00" version="1.1"
	xmlns="http://www.w3.org/2000/svg" xmlns:xlink="http://www.w3.org/1999/xlink" xml:space="preserve"
	x="0px" y="0px" width="25px" height="25px"
>
	<g id="Layer%20141">
		<g>
			<path d="M 6.781 5.1563 C 8.2117 5.1664 9.369 3.9847 9.369 2.5464 L 9.369 0.6353 C 9.369 0.2847 9.0855 0 8.736 0 L 6.8292 0 C 5.3984 0 4.2184 1.1614 4.2285 2.5972 C 4.2412 4.0051 5.3757 5.1461 6.781 5.1563 Z" fill="#ffffff"/>
			<path d="M 17.2417 8.1475 L 17.2417 7.019 C 17.2417 6.6125 16.9125 6.2821 16.5075 6.2821 C 16.5075 6.2821 9.8451 6.2847 9.3741 6.2847 L 8.9132 6.2847 L 7.49 8.5845 L 6.9937 7.7001 L 7.8699 6.2821 L 5.7302 6.2821 L 6.6063 7.7001 L 6.11 8.5819 L 4.6868 6.2821 L 4.4406 6.2821 L 4.4406 6.2799 C 4.4406 6.2799 4.1609 6.2799 3.819 6.2799 C 3.4773 6.2799 2.9589 6.5258 2.6673 6.8259 L 0.2323 9.3328 C -0.0593 9.6332 -0.0791 10.1423 0.1883 10.4646 L 4.1273 15.2088 L 4.1273 16.7395 L 4.1273 18.0109 L 4.1273 23.2631 C 4.1273 23.6697 4.4564 24 4.8616 24 L 9.1386 24 C 9.5437 24 9.8729 23.6697 9.8729 23.2631 L 9.8729 8.8843 L 16.5075 8.8843 C 16.9125 8.8843 17.2417 8.554 17.2417 8.1475 ZM 4.1273 11.8052 L 3.139 10.5505 C 2.9663 10.3312 2.9841 9.988 3.1785 9.7877 L 4.1273 8.8109 L 4.1273 11.8052 Z" fill="#ffffff"/>
			<path d="M 18.0296 10.0093 C 14.1799 10.0093 11.059 13.1412 11.059 17.0046 C 11.059 20.868 14.1799 24 18.0296 24 C 21.8793 24 25 20.868 25 17.0046 C 25 13.1412 21.8793 10.0093 18.0296 10.0093 ZM 18.772 20.9044 L 18.772 22.1572 L 17.2714 22.1572 L 17.2714 21.0183 C 16.2625 20.9675 15.2789 20.6892 14.7366 20.3981 L 15.1906 18.5757 C 15.8211 18.8795 16.729 19.2085 17.7126 19.2085 C 18.3811 19.2085 18.8855 19.0565 18.8855 18.639 C 18.8855 18.2593 18.4946 18.0442 17.4479 17.7911 C 15.9724 17.4366 14.8123 16.7533 14.8123 15.3738 C 14.8123 14.1463 15.695 13.2098 17.2714 12.9441 L 17.2714 11.8176 L 18.772 11.8176 L 18.772 12.8555 C 19.7682 12.8934 20.4114 13.0831 20.9031 13.2856 L 20.4618 15.0448 C 20.0961 14.9055 19.3773 14.564 18.2801 14.564 C 17.473 14.564 17.2714 14.8297 17.2714 15.0828 C 17.2714 15.3992 17.8136 15.6522 18.9358 15.9686 C 20.6887 16.4495 21.3445 17.171 21.3445 18.4239 C 21.3445 19.6262 20.4491 20.6385 18.772 20.9044 Z" fill="#ffffff"/>
		</g>
	</g>
</svg>