<?xml version="1.0" standalone="no"?>
<!-- Generator: Adobe Fireworks 10, Export SVG Extension by Aaron Beall (http://fireworks.abeall.com) . Version: 0.6.1  -->
<!DOCTYPE svg PUBLIC "-//W3C//DTD SVG 1.1//EN" "http://www.w3.org/Graphics/SVG/1.1/DTD/svg11.dtd">
<svg id="Icons.fw-cash" viewBox="0 0 25 25" style="background-color:#ffffff00" version="1.1"
	xmlns="http://www.w3.org/2000/svg" xmlns:xlink="http://www.w3.org/1999/xlink" xml:space="preserve"
	x="0px" y="0px" width="25px" height="25px"
>
	<g id="Layer%20112">
		<g id="base56">
			<path d="M 16.3383 10.5587 C 14.8117 9.0326 12.7782 10.759 12.5258 11.011 L 12.2214 11.3159 L 11.4583 10.5528 L 11.6366 10.3739 C 11.7105 10.3004 12.2119 10.0098 12.4236 9.9519 C 12.7627 9.8641 13.6885 10.1291 14.2288 9.5899 C 14.5156 9.3022 14.3825 8.7768 14.1513 8.5458 C 13.4025 7.7966 12.3518 8.217 12.2323 8.2804 C 11.7518 8.5227 10.8672 9.4219 10.7191 9.5701 L 10.632 9.6571 L 10.4216 9.4471 C 10.3729 9.3975 10.3376 9.3627 10.316 9.3845 L 9.3933 10.3067 C 9.3673 10.3332 9.396 10.3886 9.4313 10.4235 L 9.5993 10.5915 L 9.3255 10.8657 L 9.0773 11.1139 C 8.5725 11.6187 7.3397 13.0751 8.7466 14.4816 C 10.2937 16.0287 12.4983 14.0906 12.8637 13.7248 L 13.5921 14.4535 C 13.5465 14.5123 13.1724 14.8171 12.9863 14.962 C 12.7597 15.1178 12.2988 15.1451 11.9496 15.1435 C 11.5108 15.1489 11.0893 15.1363 10.6671 15.5584 C 10.4149 15.8108 10.5593 16.3383 10.8397 16.6184 C 11.8058 17.5847 13.0388 16.7985 14.1748 15.663 L 14.4316 15.4064 L 14.6137 15.5882 C 14.6487 15.6235 14.6893 15.6113 14.7063 15.5941 L 15.6029 14.6975 C 15.6159 14.6844 15.6304 14.6555 15.5882 14.6135 L 15.4204 14.4459 C 15.4204 14.4459 15.5836 14.3384 15.6445 14.2775 C 15.7486 14.1729 15.9038 14.0322 15.9821 13.9541 C 16.056 13.8798 16.2404 13.6816 16.3231 13.5988 C 17.015 12.9063 17.2345 11.4549 16.3383 10.5587 ZM 11.1376 12.3301 C 11.0247 12.4431 10.5604 12.8232 10.2032 12.4658 C 9.9164 12.1789 10.1759 11.8207 10.2584 11.7376 L 10.5675 11.4289 L 11.3029 12.1642 L 11.1376 12.3301 ZM 14.6473 13.4115 L 14.4822 13.577 L 13.7122 12.8068 L 13.8603 12.6585 C 13.9384 12.5804 14.474 12.1151 14.8518 12.4931 C 15.1537 12.795 14.8478 13.2116 14.6473 13.4115 Z" fill="#ffffff"/>
			<path d="M 15.331 0 L 0 15.3308 L 9.669 25 L 25 9.6692 L 15.331 0 ZM 1.8243 15.3308 L 15.331 1.8243 L 23.1757 9.6692 L 9.669 23.1757 L 1.8243 15.3308 Z" fill="#ffffff"/>
		</g>
	</g>
</svg>