<?xml version="1.0" standalone="no"?>
<!-- Generator: Adobe Fireworks 10, Export SVG Extension by Aaron Beall (http://fireworks.abeall.com) . Version: 0.6.1  -->
<!DOCTYPE svg PUBLIC "-//W3C//DTD SVG 1.1//EN" "http://www.w3.org/Graphics/SVG/1.1/DTD/svg11.dtd">
<svg id="Icons.fw-change-us-number" viewBox="0 0 25 25" style="background-color:#ffffff00" version="1.1"
	xmlns="http://www.w3.org/2000/svg" xmlns:xlink="http://www.w3.org/1999/xlink" xml:space="preserve"
	x="0px" y="0px" width="25px" height="25px"
>
	<g id="change-us-number">
		<path id="base43" d="M 6.6738 8 L 7.5 5.6523 L 8.3259 8 L 11 8 L 8.8364 9.6519 L 9.6641 12 L 7.5 10.3472 L 5.3364 12 L 6.1641 9.6519 L 4 8 L 6.6738 8 ZM 0 12.5 C 0 13.0077 0.031 13.5082 0.0898 14 L 24.9099 14 C 24.9688 13.5082 25 13.0077 25 12.5 C 25 12.3325 25.0066 12.1659 25 12 L 13 12 L 13 10 L 24.75 10 C 24.6101 9.311 24.4128 8.6427 24.165 8 L 13 8 L 13 6 L 23.1799 6 C 20.9854 2.402 17.0229 0 12.5 0 C 5.5962 0 0 5.5962 0 12.5 ZM 23.73 18 C 24.043 17.3621 24.303 16.6935 24.5049 16 L 0.5 16 C 0.7019 16.6935 0.9619 17.3621 1.2749 18 L 23.73 18 ZM 2.5 20 C 4.7793 23.0361 8.4102 25 12.5 25 C 16.5898 25 20.2241 23.0361 22.5049 20 L 2.5 20 Z" fill="#757584"/>
	</g>
</svg>