<?xml version="1.0" standalone="no"?>
<!-- Generator: Adobe Fireworks 10, Export SVG Extension by Aaron Beall (http://fireworks.abeall.com) . Version: 0.6.1  -->
<!DOCTYPE svg PUBLIC "-//W3C//DTD SVG 1.1//EN" "http://www.w3.org/Graphics/SVG/1.1/DTD/svg11.dtd">
<svg id="Icons.fw-change-notification-number" viewBox="0 0 25 25" style="background-color:#ffffff00" version="1.1"
	xmlns="http://www.w3.org/2000/svg" xmlns:xlink="http://www.w3.org/1999/xlink" xml:space="preserve"
	x="0px" y="0px" width="25px" height="25px"
>
	<g id="change-notification-number">
		<path id="base44" d="M 8 7 L 17 7 C 18.1045 7 19 7.8954 19 9 L 19 13 C 19 14.1046 18.1045 15 17 15 L 16.3 15 L 9.9802 20.1323 L 12.625 15 L 8 15 C 6.8955 15 6 14.1046 6 13 L 6 9 C 6 7.8954 6.8955 7 8 7 ZM 12.4929 0.0007 C 5.5913 0.0007 -0.0068 5.5972 -0.0068 12.5002 C -0.0068 19.4036 5.5913 25 12.4929 25 C 19.396 25 24.9924 19.4036 24.9924 12.5002 C 24.9924 5.5972 19.396 0.0007 12.4929 0.0007 Z" fill="#757584"/>
	</g>
</svg>