<?xml version="1.0" encoding="utf-8"?>
<!-- Generator: Adobe Illustrator 19.0.1, SVG Export Plug-In . SVG Version: 6.00 Build 0)  -->
<svg version="1.1" id="Layer_1" xmlns="http://www.w3.org/2000/svg" xmlns:xlink="http://www.w3.org/1999/xlink" x="0px" y="0px"
	 viewBox="0 0 135 135" style="enable-background:new 0 0 135 135;" xml:space="preserve">
<style type="text/css">
	.st0{fill:#FFFFFF;}
	.st1{fill:#E21B23;}
</style>
<path class="st0" d="M68.3,52.8H48.6v18.4H30.1v19.7h18.5v18.4h19.7V90.9h18.5V71.3H68.3V52.8z M89.7,27.2c-2.6-1.9-5.9-2.9-9.9-2.9
	c-3,0-5.6,0.7-7.7,2c-3.3,2.1-5.1,5.7-5.3,10.7h7.6c0-1.5,0.4-2.9,1.3-4.2c0.9-1.4,2.3-2,4.3-2c2.1,0,3.5,0.5,4.3,1.7
	c0.8,1.1,1.2,2.3,1.2,3.7c0,1.2-0.4,2.2-1.1,3.2c-0.4,0.6-0.9,1.1-1.5,1.6L81,42.4c-1.9,1.5-3.1,2.8-3.5,3.9
	c-0.5,1.1-0.7,3.2-0.8,6.2h7.2c0-1.4,0.1-2.5,0.3-3.1c0.3-1.1,1-2,2-2.8l1.9-1.5c1.9-1.5,3.2-2.7,3.9-3.7c1.1-1.6,1.7-3.5,1.7-5.8
	C93.6,32,92.3,29.1,89.7,27.2z M76.5,56.1v7.6h7.9v-7.6H76.5z"/>
<path class="st1" d="M67.5,0.3c-0.5,0-0.9,0-1.4,0C48.2,0.6,31.5,8,19.1,20.9c-12.5,13-19.1,30-18.8,47.9
	c0.7,36.3,30.9,65.9,67.2,65.9c0.5,0,0.9,0,1.3,0c37.1-0.7,66.6-31.5,65.9-68.5C134,29.8,103.8,0.3,67.5,0.3z M66.4,9.5
	c0.4,0,0.8,0,1.2,0c31.5,0,57.4,25.3,58,56.9c0.2,7.7-1.2,15.1-3.8,21.8L18.2,37C28.2,20.8,46,9.9,66.4,9.5z M68.7,125.5
	c-0.4,0-0.8,0-1.2,0c-31.5,0-57.4-25.3-58-56.9c-0.2-8.2,1.4-16,4.3-23.2l103.8,51.3C107.7,113.6,89.6,125.1,68.7,125.5z"/>
</svg>
