<?xml version="1.0" standalone="no"?>
<!-- Generator: Adobe Fireworks 10, Export SVG Extension by Aaron Beall (http://fireworks.abeall.com) . Version: 0.6.1  -->
<!DOCTYPE svg PUBLIC "-//W3C//DTD SVG 1.1//EN" "http://www.w3.org/Graphics/SVG/1.1/DTD/svg11.dtd">
<svg id="Icons.fw-chat" viewBox="0 0 25 25" style="background-color:#ffffff00" version="1.1"
	xmlns="http://www.w3.org/2000/svg" xmlns:xlink="http://www.w3.org/1999/xlink" xml:space="preserve"
	x="0px" y="0px" width="25px" height="25px"
>
	<g id="chat">
		<path id="base13" d="M 24.8732 15.9706 C 24.8732 12.4895 21.7323 9.6676 17.8578 9.6676 C 13.9831 9.6676 10.8422 12.4895 10.8422 15.9706 C 10.8422 19.4516 13.9831 22.2735 17.8578 22.2735 C 18.5033 22.2735 19.1283 22.1942 19.7219 22.0476 C 21.4767 22.7211 23.9339 23.7523 25 24.6085 C 25 24.6085 23.6677 22.1983 22.8989 20.3537 C 24.1216 19.2196 24.8732 17.6744 24.8732 15.9706 ZM 0.2238 10.5465 C 0.2238 13.3974 1.5511 15.983 3.7101 17.8807 C 2.3526 20.9671 0 25 0 25 C 1.8827 23.5674 6.2215 21.842 9.3202 20.715 C 9.7393 20.8131 10.1677 20.8916 10.6032 20.9523 C 9.6374 19.6146 9.0724 17.9999 9.0724 16.2592 C 9.0724 11.6479 13.034 7.9099 17.9211 7.9099 C 20.801 7.9099 23.3575 9.2089 24.9734 11.2188 C 24.9898 10.9968 25 10.772 25 10.5465 C 25 4.7217 19.4538 0 12.6119 0 C 5.77 0 0.2238 4.7217 0.2238 10.5465 Z" fill="#ffffff"/>
	</g>
</svg>