<?xml version="1.0" standalone="no"?>
<!-- Generator: Adobe Fireworks 10, Export SVG Extension by Aaron Beall (http://fireworks.abeall.com) . Version: 0.6.1  -->
<!DOCTYPE svg PUBLIC "-//W3C//DTD SVG 1.1//EN" "http://www.w3.org/Graphics/SVG/1.1/DTD/svg11.dtd">
<svg id="Icons.fw-close" viewBox="0 0 16 16" style="background-color:#ffffff00" version="1.1"
	xmlns="http://www.w3.org/2000/svg" xmlns:xlink="http://www.w3.org/1999/xlink" xml:space="preserve"
	x="0px" y="0px" width="16px" height="16px"
>
	<g id="Layer%20131">
		<path id="base67" d="M 15.8535 12.8535 L 15.8535 12.8535 L 11 8 L 15.8535 3.146 L 15.8535 3.146 C 15.9063 3.0942 15.9434 3.0332 15.9678 2.9678 C 16.0342 2.79 15.9961 2.582 15.8535 2.439 L 13.5605 0.146 C 13.418 0.0029 13.21 -0.0352 13.0322 0.0322 C 12.9668 0.0562 12.9063 0.0942 12.8535 0.146 L 12.8535 0.146 L 8 5 L 3.146 0.146 L 3.146 0.146 C 3.0938 0.0942 3.0332 0.0562 2.9678 0.0322 C 2.79 -0.0342 2.582 0.0029 2.439 0.146 L 0.146 2.439 C 0.0029 2.582 -0.0352 2.79 0.0322 2.9678 C 0.0562 3.0332 0.0938 3.0942 0.146 3.146 L 0.146 3.146 L 5 8 L 0.146 12.8535 L 0.146 12.8535 C 0.0938 12.9063 0.0562 12.9668 0.0322 13.0322 C -0.0342 13.21 0.0029 13.418 0.146 13.5605 L 2.439 15.8535 C 2.582 15.9971 2.79 16.0352 2.9678 15.9678 C 3.0332 15.9434 3.0938 15.9063 3.146 15.8535 L 3.146 15.8535 L 8 11 L 12.8535 15.8535 L 12.8535 15.8535 C 12.9063 15.9063 12.9668 15.9434 13.0322 15.9678 C 13.21 16.0342 13.418 15.9971 13.5605 15.8535 L 15.8535 13.5605 C 15.9971 13.418 16.0352 13.21 15.9678 13.0322 C 15.9434 12.9668 15.9063 12.9063 15.8535 12.8535 Z" fill="#ffffff"/>
	</g>
</svg>