<?xml version="1.0" standalone="no"?>
<!-- Generator: Adobe Fireworks 10, Export SVG Extension by Aaron Beall (http://fireworks.abeall.com) . Version: 0.6.1  -->
<!DOCTYPE svg PUBLIC "-//W3C//DTD SVG 1.1//EN" "http://www.w3.org/Graphics/SVG/1.1/DTD/svg11.dtd">
<svg id="Icons.fw-collapse" viewBox="0 0 25 25" style="background-color:#ffffff00" version="1.1"
	xmlns="http://www.w3.org/2000/svg" xmlns:xlink="http://www.w3.org/1999/xlink" xml:space="preserve"
	x="0px" y="0px" width="25px" height="25px"
>
	<g id="collapse">
		<path id="base26" d="M 11 16 L 7 16 L 7 15 L 8 15 L 8 14 L 9 14 L 9 13 L 10 13 L 10 12 L 11 12 L 11 11 L 12 11 L 12 10 L 13 10 L 13 11 L 14 11 L 14 12 L 15 12 L 15 13 L 16 13 L 16 14 L 17 14 L 17 15 L 18 15 L 18 16 L 14 16 L 14 20 L 11 20 L 11 16 ZM 11 8 L 11 5 L 14 5 L 14 8 L 11 8 ZM 12.5 0 C 5.5964 0 0 5.5963 0 12.5 C 0 19.4037 5.5964 25 12.5 25 C 19.4036 25 25 19.4037 25 12.5 C 25 5.5963 19.4036 0 12.5 0 Z" fill="#999999"/>
	</g>
</svg>