<?xml version="1.0" standalone="no"?>
<!-- Generator: Adobe Fireworks 10, Export SVG Extension by Aaron Beall (http://fireworks.abeall.com) . Version: 0.6.1  -->
<!DOCTYPE svg PUBLIC "-//W3C//DTD SVG 1.1//EN" "http://www.w3.org/Graphics/SVG/1.1/DTD/svg11.dtd">
<svg id="Icons.fw-country" viewBox="0 0 25 25" style="background-color:#ffffff00" version="1.1"
	xmlns="http://www.w3.org/2000/svg" xmlns:xlink="http://www.w3.org/1999/xlink" xml:space="preserve"
	x="0px" y="0px" width="25px" height="25px"
>
	<g id="Layer%20148">
		<path d="M 12.5 0 C 19.4035 0 25 5.5965 25 12.5 C 25 19.4035 19.4035 25 12.5 25 C 5.5965 25 0 19.4035 0 12.5 C 0 5.5965 5.5965 0 12.5 0 L 12.5 0 ZM 9.6958 22.8032 C 10.4492 21.9323 13.94 19.1659 11.7545 17.9729 C 11.5461 17.8591 11.0931 17.7597 10.8695 17.6828 C 9.5028 17.2128 10.2251 17.356 9.6331 16.578 C 8.8192 15.508 7.169 16.0331 5.7051 15.7802 C 4.3448 14.4902 5.8951 14.9523 3.8832 14.4004 C 4.0475 12.6123 4.691 13.0332 6.0154 13.4153 L 6.3333 14.6268 C 6.7976 13.7979 6.5421 12.8642 7.0644 12.0109 C 7.8897 10.6626 10.8547 11.183 11.0073 9.4513 C 11.094 8.4629 10.3372 7.8352 9.4609 7.5189 C 7.5378 7.7114 8.0876 9.0626 6.5195 8.6589 C 6.019 7.1306 7.1254 6.1208 8.0523 5.6309 C 9.2438 5.9479 8.7223 6.526 10.2988 6.085 C 10.3176 4.9155 9.3279 4.2252 8.0252 4.1277 C 4.6204 3.8735 2.2147 8.9639 2.0107 12.0937 C 1.906 13.7007 2.3359 14.3541 3.3613 15.0988 C 4.6465 16.0329 5.715 15.3508 5.8798 17.2333 C 6.1096 19.8556 6.8167 22.3718 9.6958 22.8032 L 9.6958 22.8032 ZM 17.3837 6.8905 C 17.8995 7.5889 17.9993 7.0977 18.4169 7.8975 C 16.0113 9.409 16.5244 9.8105 15.8438 10.6947 C 15.2378 11.4816 13.7778 14.7685 13.967 16.0326 C 16.857 17.979 16.6713 14.0886 18.593 21.2014 C 19.557 20.7788 20.9869 19.0504 21.5655 18.0531 C 24.3565 13.2426 22.8516 7.2751 19.0853 4.7089 C 18.3699 5.1126 17.8318 6.0172 17.3837 6.8905 L 17.3837 6.8905 ZM 11.561 2.4303 C 12.0457 3.4677 11.8199 2.4929 12.2593 3.1516 C 12.9272 4.1532 12.0802 5.0413 12.3779 6.8087 C 13.4155 6.9669 14.1409 5.9784 14.8098 5.4343 C 15.5783 4.8096 16.0941 4.228 16.3391 2.9 C 14.9563 2.5833 12.97 1.8117 11.561 2.4303 Z" fill="#ffffff"/>
	</g>
</svg>