<?xml version="1.0" standalone="no"?>
<!-- Generator: Adobe Fireworks 10, Export SVG Extension by Aaron Beall (http://fireworks.abeall.com) . Version: 0.6.1  -->
<!DOCTYPE svg PUBLIC "-//W3C//DTD SVG 1.1//EN" "http://www.w3.org/Graphics/SVG/1.1/DTD/svg11.dtd">
<svg id="Icons.fw-credit-card" viewBox="0 0 25 25" style="background-color:#ffffff00" version="1.1"
	xmlns="http://www.w3.org/2000/svg" xmlns:xlink="http://www.w3.org/1999/xlink" xml:space="preserve"
	x="0px" y="0px" width="25px" height="25px"
>
	<g id="Layer%20147">
		<path d="M 2.6029 7.2599 L 20.5671 7.2599 L 20.5671 12.8186 C 20.2935 12.4075 20.014 12.0027 19.7409 11.6074 C 19.2631 10.9158 18.8119 10.2628 18.4423 9.6488 C 18.3409 9.4803 18.2359 9.285 18.1343 9.0961 C 17.9128 8.6839 17.6784 8.2607 17.4625 8.014 C 17.3252 7.8572 17.1311 7.7675 16.9213 7.7709 C 16.7148 7.7734 16.5194 7.8666 16.3859 8.0266 C 16.2852 8.1471 16.1822 8.3035 16.0797 8.4913 C 15.5276 9.5046 15.5427 11.5159 16.3758 13.1015 L 2.6029 13.1015 L 2.6029 7.2599 ZM 2.6029 1.6286 L 20.5671 1.6286 L 20.5671 3.896 L 2.6029 3.896 L 2.6029 1.6286 ZM 25 25 C 23.7126 22.3739 22.5928 19.9276 22.7451 18.6101 C 22.894 17.3204 22.4001 15.9541 21.6653 14.6086 C 21.9662 14.4408 22.17 14.1161 22.17 13.7429 L 22.17 0.9869 C 22.17 0.4419 21.7352 0 21.1985 0 L 1.9715 0 C 1.4349 0 1 0.4419 1 0.9869 L 1 13.743 C 1 14.2881 1.4349 14.73 1.9715 14.73 L 7.1791 14.73 C 7.2045 15.1248 7.555 15.666 8.4042 16.1837 C 9.9097 17.1014 5.891 20.8358 15.8334 21.7726 C 16.1991 22.5549 16.7231 23.9245 17.1206 25 L 25 25 Z" fill="#ffffff"/>
	</g>
</svg>