<?xml version="1.0" standalone="no"?>
<!-- Generator: Adobe Fireworks 10, Export SVG Extension by Aaron Beall (http://fireworks.abeall.com) . Version: 0.6.1  -->
<!DOCTYPE svg PUBLIC "-//W3C//DTD SVG 1.1//EN" "http://www.w3.org/Graphics/SVG/1.1/DTD/svg11.dtd">
<svg id="Icons.fw-credit-debit-card" viewBox="0 0 25 25" style="background-color:#ffffff00" version="1.1"
	xmlns="http://www.w3.org/2000/svg" xmlns:xlink="http://www.w3.org/1999/xlink" xml:space="preserve"
	x="0px" y="0px" width="25px" height="25px"
>
	<g id="Layer%20144">
		<path id="Shape%2035" d="M 21.875 22 L 3.125 22 C 1.4069 22 0 20.5751 0 18.8332 L 0 6.1666 C 0 4.4249 1.4069 3 3.125 3 L 21.875 3 C 23.5931 3 25 4.4249 25 6.1666 L 25 18.8332 C 25 20.5751 23.5931 22 21.875 22 ZM 23.5715 5.6792 C 23.5715 4.8062 22.8726 4.4615 22.009 4.4615 L 2.9908 4.4615 C 2.1302 4.4615 1.4285 5.1718 1.4285 6.0447 L 1.4285 7.3846 L 23.5715 7.3846 L 23.5715 5.6792 ZM 23.5715 11.0384 L 1.4285 11.0384 L 1.4285 18.9549 C 1.4285 19.828 2.1302 20.5385 2.9908 20.5385 L 22.009 20.5385 C 22.8726 20.5385 23.5715 19.828 23.5715 18.9549 L 23.5715 11.0384 ZM 17.8572 12.5 L 22.1429 12.5 L 22.1429 15.4231 L 17.8572 15.4231 L 17.8572 12.5 ZM 3.5714 12.5 L 12.8572 12.5 L 12.8572 13.9616 L 3.5714 13.9616 L 3.5714 12.5 ZM 7.1428 16.8846 L 3.5714 16.8846 L 3.5714 15.4231 L 7.1428 15.4231 L 7.1428 16.8846 Z" fill="#ffffff"/>
	</g>
</svg>