<?xml version="1.0" standalone="no"?>
<!-- Generator: Adobe Fireworks 10, Export SVG Extension by Aaron Beall (http://fireworks.abeall.com) . Version: 0.6.1  -->
<!DOCTYPE svg PUBLIC "-//W3C//DTD SVG 1.1//EN" "http://www.w3.org/Graphics/SVG/1.1/DTD/svg11.dtd">
<svg id="Icons.fw-credit" viewBox="0 0 25 25" style="background-color:#ffffff00" version="1.1"
	xmlns="http://www.w3.org/2000/svg" xmlns:xlink="http://www.w3.org/1999/xlink" xml:space="preserve"
	x="0px" y="0px" width="25px" height="25px"
>
	<g id="Layer%20120">
		<g id="base64">
			<g>
				<path d="M 24.8972 13.6469 L 24.5834 12.8292 L 3.4843 20.1496 L 3.7992 20.9683 C 4.1062 21.777 5.0252 22.1977 5.8534 21.9089 L 23.9625 15.6276 C 24.7883 15.3395 25.2086 14.4538 24.8972 13.6469 Z" fill="#ffffff"/>
			</g>
			<path d="M 21.2004 4.0305 C 20.8921 3.2252 19.9734 2.803 19.1432 3.09 L 1.0386 9.3718 C 0.211 9.6606 -0.2093 10.5447 0.1035 11.354 L 2.6219 17.9066 L 23.7254 10.5873 L 21.2004 4.0305 ZM 12.6666 12.1078 L 12.8943 12.7793 L 12.1321 13.0295 L 11.9243 12.4171 C 11.4472 12.5448 10.9503 12.5686 10.645 12.5229 L 10.5576 11.542 C 10.9078 11.5882 11.3712 11.5969 11.8328 11.4452 C 12.167 11.3357 12.3767 11.1644 12.3056 10.9539 C 12.2366 10.7501 11.9997 10.6885 11.4468 10.7017 C 10.6396 10.7108 10.0111 10.5443 9.786 9.8798 C 9.5829 9.2808 9.8434 8.6685 10.548 8.2691 L 10.3429 7.6639 L 11.1053 7.4139 L 11.2924 7.9664 C 11.7604 7.8348 12.1062 7.8237 12.3801 7.8435 L 12.4633 8.7887 C 12.2578 8.7757 11.8855 8.7301 11.3772 8.8968 C 10.9828 9.0263 10.9093 9.2038 10.9584 9.3484 C 11.0143 9.5131 11.284 9.5637 11.9125 9.5763 C 12.8465 9.5698 13.2814 9.8438 13.4845 10.4425 C 13.6916 11.0545 13.42 11.6999 12.6666 12.1078 Z" fill="#ffffff"/>
		</g>
	</g>
</svg>