<?xml version="1.0" encoding="utf-8"?>
<!-- Generator: Adobe Illustrator 19.0.1, SVG Export Plug-In . SVG Version: 6.00 Build 0)  -->
<svg version="1.1" id="Layer_1" xmlns="http://www.w3.org/2000/svg" xmlns:xlink="http://www.w3.org/1999/xlink" x="0px" y="0px"
	 viewBox="0 0 135 135" style="enable-background:new 0 0 135 135;" xml:space="preserve">
<style type="text/css">
	.st0{fill:#FFFFFF;}
	.st1{fill:#E21B23;}
</style>
<path class="st0" d="M111.3,92.8H24.9c-1.3,0-2.4,1.1-2.4,2.4c0,1.3,1.1,2.4,2.4,2.4h86.4c1.3,0,2.4-1.1,2.4-2.4
	C113.8,93.9,112.7,92.8,111.3,92.8z M35.3,89.4h14.8c-0.3-0.4-0.4-0.6-0.4-0.6v-1.2c0,0.1,0,0.1,0-0.9c0.2-11.4,1.8-14.7,13.4-16.8
	c0,0,1.6,2.1,5.5,2.1c3.8,0,5.5-2.1,5.5-2.1c11.7,2.1,13.2,5.4,13.4,17.1c0,0.7,0,0.9,0,0.8v0.9c0,0-0.1,0.2-0.4,0.6h14.8
	c2.3,0,4.1-1.8,4.1-4.1V39.9c0-2.3-1.8-4.1-4.1-4.1H35.3c-2.3,0-4.1,1.8-4.1,4.1v45.4C31.2,87.6,33.1,89.4,35.3,89.4z M68.6,44.7
	c8.5,0,10,5.4,10,12.2c0,6.7-4.5,12.2-10,12.2c-5.5,0-10-5.4-10-12.2C58.6,50.2,60,44.7,68.6,44.7z"/>
<path class="st1" d="M67.5,0.3c-0.5,0-0.9,0-1.4,0C48.2,0.7,31.5,8,19.1,20.9c-12.5,13-19.1,30-18.8,47.9
	c0.7,36.3,30.9,65.9,67.2,65.9c0.5,0,0.9,0,1.3,0c37.1-0.7,66.6-31.5,65.9-68.5C134,29.8,103.8,0.3,67.5,0.3z M66.4,9.5
	c0.4,0,0.8,0,1.2,0c31.5,0,57.4,25.3,58,56.9c0.2,7.7-1.2,15.1-3.8,21.8L18.2,37C28.2,20.8,46,9.9,66.4,9.5z M68.7,125.5
	c-0.4,0-0.8,0-1.2,0c-31.5,0-57.4-25.3-58-56.9c-0.2-8.2,1.4-16,4.3-23.2l103.8,51.3C107.7,113.6,89.6,125.1,68.7,125.5z"/>
</svg>
