<?xml version="1.0" standalone="no"?>
<!-- Generator: Adobe Fireworks 10, Export SVG Extension by Aaron Beall (http://fireworks.abeall.com) . Version: 0.6.1  -->
<!DOCTYPE svg PUBLIC "-//W3C//DTD SVG 1.1//EN" "http://www.w3.org/Graphics/SVG/1.1/DTD/svg11.dtd">
<svg id="Icons.fw-delete" viewBox="0 0 25 25" style="background-color:#ffffff00" version="1.1"
	xmlns="http://www.w3.org/2000/svg" xmlns:xlink="http://www.w3.org/1999/xlink" xml:space="preserve"
	x="0px" y="0px" width="25px" height="25px"
>
	<path d="M 1 12.5 C 1 6.1486 6.1486 1 12.5 1 C 18.8514 1 24 6.1486 24 12.5 C 24 18.8514 18.8514 24 12.5 24 C 6.1486 24 1 18.8514 1 12.5 ZM 0 12.5 C 0 19.4037 5.5963 25 12.5 25 C 19.4037 25 25 19.4037 25 12.5 C 25 5.5963 19.4037 0 12.5 0 C 5.5963 0 0 5.5963 0 12.5 ZM 16.7168 6 L 14 6 L 14 5.1772 C 14 5.0794 13.9214 5 13.8247 5 L 11.1752 5 C 11.0785 5 11 5.0794 11 5.1772 L 11 6 L 8.0909 6 C 7.8011 6 7 6.2377 7 6.531 L 7 8 L 18 8 L 18 6.4352 C 18 6.1421 17.7777 6 17.4879 6 L 16.7168 6 ZM 7.7809 18.1329 C 7.7995 18.5859 8.1682 18.9434 8.6163 18.9434 L 16.4229 18.9434 C 16.8712 18.9434 17.2396 18.5859 17.2585 18.1329 L 17.8044 9.0323 L 7.2118 9.0323 L 7.7809 18.1329 ZM 14.266 11.588 C 14.266 11.3984 14.418 11.2444 14.6056 11.2444 L 15.1489 11.2444 C 15.3364 11.2444 15.4885 11.3984 15.4885 11.588 L 15.4885 16.62 C 15.4885 16.8099 15.3364 16.9636 15.1489 16.9636 L 14.6056 16.9636 C 14.4181 16.9636 14.266 16.8099 14.266 16.62 L 14.266 11.588 ZM 11.8889 11.588 C 11.8889 11.3984 12.0408 11.2444 12.2283 11.2444 L 12.7717 11.2444 C 12.9592 11.2444 13.1111 11.3984 13.1111 11.588 L 13.1111 16.62 C 13.1111 16.8099 12.9592 16.9636 12.7717 16.9636 L 12.2283 16.9636 C 12.0408 16.9636 11.8889 16.8099 11.8889 16.62 L 11.8889 11.588 ZM 9.5115 11.588 C 9.5115 11.3984 9.6635 11.2444 9.8512 11.2444 L 10.3945 11.2444 C 10.5819 11.2444 10.734 11.3984 10.734 11.588 L 10.734 16.62 C 10.734 16.8099 10.5819 16.9636 10.3945 16.9636 L 9.8512 16.9636 C 9.6636 16.9636 9.5115 16.8099 9.5115 16.62 L 9.5115 11.588 Z" fill="#ffffff"/>
</svg>