<?xml version="1.0" standalone="no"?>
<!-- Generator: Adobe Fireworks 10, Export SVG Extension by Aaron Beall (http://fireworks.abeall.com) . Version: 0.6.1  -->
<!DOCTYPE svg PUBLIC "-//W3C//DTD SVG 1.1//EN" "http://www.w3.org/Graphics/SVG/1.1/DTD/svg11.dtd">
<svg id="Icons.fw-deposit" viewBox="0 0 25 25" style="background-color:#ffffff00" version="1.1"
	xmlns="http://www.w3.org/2000/svg" xmlns:xlink="http://www.w3.org/1999/xlink" xml:space="preserve"
	x="0px" y="0px" width="25px" height="25px"
>
	<g id="Layer%20111">
		<g id="base55">
			<path d="M 14.5 5.8824 L 7 5.8824 L 7 7.8431 L 14.5 7.8431 L 14.5 5.8824 Z" fill="#ffffff"/>
			<path d="M 7 19.1176 L 18 19.1176 L 18 10.2941 L 7 10.2941 L 7 19.1176 ZM 13 12.2549 L 16 12.2549 L 16 14.2157 L 13 14.2157 L 13 12.2549 ZM 13 15.1961 L 16 15.1961 L 16 17.1569 L 13 17.1569 L 13 15.1961 ZM 9 12.2549 L 12 12.2549 L 12 14.2157 L 9 14.2157 L 9 12.2549 ZM 9 15.1961 L 12 15.1961 L 12 17.1569 L 9 17.1569 L 9 15.1961 Z" fill="#ffffff"/>
			<path d="M 16.1862 0 L 1 0 L 1 25 L 24 25 L 24 6.653 L 16.1862 0 ZM 21 22.0588 L 4 22.0588 L 4 2.9412 L 14.1838 2.9412 L 21 8.4985 L 21 22.0588 Z" fill="#ffffff"/>
		</g>
	</g>
</svg>