<?xml version="1.0" standalone="no"?>
<!-- Generator: Adobe Fireworks 10, Export SVG Extension by Aaron Beall (http://fireworks.abeall.com) . Version: 0.6.1  -->
<!DOCTYPE svg PUBLIC "-//W3C//DTD SVG 1.1//EN" "http://www.w3.org/Graphics/SVG/1.1/DTD/svg11.dtd">
<svg id="Icons.fw-destination" viewBox="0 0 25 25" style="background-color:#ffffff00" version="1.1"
	xmlns="http://www.w3.org/2000/svg" xmlns:xlink="http://www.w3.org/1999/xlink" xml:space="preserve"
	x="0px" y="0px" width="25px" height="25px"
>
	<g id="destination">
		<path d="M 13.9173 1.1382 C 8.3488 1.1382 3.8342 5.5234 3.8342 10.9331 C 3.8342 16.3433 8.3488 20.7283 13.9173 20.7283 C 19.4854 20.7283 24 16.3433 24 10.9331 C 23.9998 5.5232 19.4854 1.1382 13.9173 1.1382 ZM 18.1807 13.9454 C 18.1807 14.0992 18.1261 14.3392 18.058 14.4779 L 17.322 15.9867 C 17.2539 16.1256 17.1034 16.325 16.9877 16.4308 L 14.5907 18.6048 C 14.4754 18.7097 14.5103 18.7963 14.6684 18.7963 L 14.9426 18.7963 C 15.101 18.7963 15.2309 18.9066 15.2309 19.0413 C 15.2309 19.1766 15.101 19.2872 14.9426 19.2872 L 13.7646 19.2872 C 13.6062 19.2872 13.4769 19.1607 13.4769 19.0066 L 13.4769 16.0291 C 13.4769 15.8744 13.6062 15.7491 13.7646 15.7491 L 14.0921 15.7491 C 14.2506 15.7491 14.3802 15.6231 14.3802 15.4694 L 14.3802 15.1515 C 14.3802 14.9972 14.2506 14.8712 14.0921 14.8712 L 13.7646 14.8712 C 13.6062 14.8712 13.4769 14.7454 13.4769 14.5916 L 13.4769 12.8469 C 13.4769 12.6934 13.3468 12.5673 13.1884 12.5673 L 12.7008 12.5673 C 12.5431 12.5673 12.3068 12.4946 12.1779 12.4054 L 10.6279 11.3401 C 10.4984 11.2516 10.3262 11.07 10.246 10.9372 L 9.5206 9.7409 C 9.4404 9.6084 9.245 9.4996 9.0861 9.4996 L 8.7397 9.4996 C 8.5809 9.4996 8.3953 9.3862 8.3268 9.2477 L 7.4863 7.5568 C 7.4182 7.4183 7.3611 7.1791 7.3611 7.0247 L 7.3611 6.0607 C 7.3611 5.9067 7.2374 5.8174 7.0858 5.8627 L 6.7479 5.9637 C 8.2109 3.9775 10.5246 2.624 13.1684 2.4065 L 13.1684 3.5693 C 13.1684 3.7228 13.2745 3.9212 13.4041 4.0095 L 13.9439 4.3783 C 14.0734 4.4666 14.3085 4.5391 14.4674 4.5391 L 14.8943 4.5391 C 15.0534 4.5391 15.1822 4.6407 15.1822 4.7652 C 15.1822 4.8893 15.0929 5.082 14.984 5.1942 L 14.3688 5.8242 C 14.2591 5.9355 14.2995 6.0271 14.4586 6.0274 L 14.8687 6.0284 C 15.0269 6.0287 15.1568 6.1547 15.1568 6.3089 L 15.1553 7.3144 C 15.1549 7.4683 15.2848 7.5942 15.4428 7.5942 L 15.9062 7.5942 C 16.0646 7.5942 16.1946 7.6896 16.1946 7.8069 C 16.1946 7.9236 16.0646 8.0192 15.9062 8.0192 L 14.4857 8.0192 C 14.3279 8.0192 14.0947 8.0957 13.9691 8.1889 L 13.3872 8.6202 C 13.2614 8.7134 13.1581 8.9156 13.1581 9.0696 L 13.1583 10.7418 C 13.1583 10.8959 13.029 11.0219 12.8706 11.0219 L 12.7901 11.0219 C 12.6321 11.0219 12.5022 10.8959 12.5022 10.7418 L 12.5022 9.7791 C 12.5022 9.6251 12.3731 9.4995 12.2144 9.4995 L 11.4372 9.4995 C 11.2792 9.4995 11.149 9.6251 11.148 9.7791 L 11.1437 10.5562 C 11.143 10.7101 11.2442 10.9147 11.368 11.0114 L 12.5146 11.9052 C 12.6374 12.0019 12.8685 12.0806 13.0269 12.081 L 14.9419 12.0819 C 15.1006 12.0822 15.3454 12.1406 15.4854 12.212 L 17.9262 13.4508 C 18.0662 13.5218 18.1807 13.7061 18.1807 13.8607 L 18.1807 13.9454 ZM 17.4414 5.5599 C 17.3138 5.6512 17.0798 5.7259 16.9214 5.7259 L 16.7971 5.7259 C 16.6394 5.7259 16.5093 5.5999 16.5093 5.4461 L 16.5093 4.5362 C 16.5093 4.3822 16.3801 4.2564 16.2218 4.2564 L 15.8044 4.2564 C 15.6464 4.2564 15.5165 4.1305 15.5165 3.9767 L 15.5165 2.5179 C 16.8952 2.765 18.1643 3.3215 19.2383 4.1149 C 19.201 4.235 17.4414 5.5599 17.4414 5.5599 ZM 21.51 20.546 C 21.2482 20.1423 20.6992 20.0215 20.2831 20.2754 C 18.466 21.3872 16.3642 21.9747 14.2057 21.9747 C 7.9045 21.9747 2.7785 16.9942 2.7785 10.8735 C 2.7785 7.1196 4.7094 3.6479 7.9445 1.5857 C 8.3548 1.3242 8.4696 0.7887 8.1999 0.39 C 7.9296 -0.009 7.3793 -0.1199 6.9682 0.1417 C 3.2307 2.524 1 6.5362 1 10.8737 C 1 16.5942 4.8758 21.4517 10.2101 23.1006 C 8.7015 23.5183 7.6146 24.2007 7.3007 25 L 20.0085 25 C 19.7328 24.2984 18.8578 23.6863 17.6276 23.2639 C 18.895 22.9348 20.1101 22.4238 21.2309 21.7381 C 21.6459 21.4826 21.7708 20.9502 21.51 20.546 Z" fill="#004c8e"/>
	</g>
</svg>