<?xml version="1.0" standalone="no"?>
<!-- Generator: Adobe Fireworks 10, Export SVG Extension by Aaron Beall (http://fireworks.abeall.com) . Version: 0.6.1  -->
<!DOCTYPE svg PUBLIC "-//W3C//DTD SVG 1.1//EN" "http://www.w3.org/Graphics/SVG/1.1/DTD/svg11.dtd">
<svg id="Icons.fw-domestic-airtime-top-up" viewBox="0 0 25 25" style="background-color:#ffffff00" version="1.1"
	xmlns="http://www.w3.org/2000/svg" xmlns:xlink="http://www.w3.org/1999/xlink" xml:space="preserve"
	x="0px" y="0px" width="25px" height="25px"
>
	<path d="M 24.1613 3.3654 L 11.1062 3.3654 C 10.6589 3.3654 10.2941 3.8533 10.2941 4.2795 L 10.2941 24.2261 C 10.2941 24.6524 10.6589 25 11.1062 25 L 24.1879 25 C 24.6352 25 25 24.6524 25 24.2261 L 25 4.2795 C 25 3.8533 24.6352 3.3654 24.1879 3.3654 L 24.1613 3.3654 ZM 17.6648 24.4009 C 16.9188 24.4009 16.3108 23.8212 16.3108 23.1106 C 16.3108 22.3998 16.9188 21.8202 17.6648 21.8202 C 18.4105 21.8202 19.0188 22.3998 19.0188 23.1106 C 19.0188 23.8212 18.4105 24.4009 17.6648 24.4009 ZM 23.5294 20.4164 C 23.5294 20.822 23.1812 21.1538 22.7557 21.1538 L 12.5384 21.1538 C 12.113 21.1538 11.7647 20.822 11.7647 20.4164 L 11.7647 5.5452 C 11.7647 5.1396 12.113 4.8077 12.5384 4.8077 L 22.7557 4.8077 C 23.1812 4.8077 23.5294 5.1396 23.5294 5.5452 L 23.5294 20.4164 ZM 13.2353 19.7115 L 22.0588 19.7115 L 22.0588 6.25 L 13.2353 6.25 L 13.2353 19.7115 ZM 3.9216 6.7308 C 3.9216 5.1376 5.2383 3.8462 6.8627 3.8462 C 7.8858 3.8462 8.7868 4.3574 9.3137 5.1346 L 9.3137 3.8462 C 9.3137 3.0496 9.9721 2.4038 10.7843 2.4038 L 12.1373 2.4038 C 10.8784 0.9349 8.9834 0 6.8627 0 C 3.0725 0 0 2.9865 0 6.6707 C 0 8.4198 0.6927 10.0121 1.826 11.2019 L 6.8627 17.7885 L 9.3137 14.5841 L 9.3137 8.3269 C 8.7868 9.1042 7.8858 9.6154 6.8627 9.6154 C 5.2383 9.6154 3.9216 8.3239 3.9216 6.7308 Z" fill="#ffffff"/>
</svg>