<?xml version="1.0" standalone="no"?>
<!-- Generator: Adobe Fireworks 10, Export SVG Extension by Aaron Beall (http://fireworks.abeall.com) . Version: 0.6.1  -->
<!DOCTYPE svg PUBLIC "-//W3C//DTD SVG 1.1//EN" "http://www.w3.org/Graphics/SVG/1.1/DTD/svg11.dtd">
<svg id="Icons.fw-domestic-airtime-top-up-gb" viewBox="0 0 25 25" style="background-color:#ffffff00" version="1.1"
	xmlns="http://www.w3.org/2000/svg" xmlns:xlink="http://www.w3.org/1999/xlink" xml:space="preserve"
	x="0px" y="0px" width="25px" height="25px"
>
	<g>
		<path d="M 4.3946 2.0817 L 5.8824 3.4927 L 5.8824 1.3726 C 6.1997 1.2626 6.5271 1.1727 6.8627 1.1058 L 6.8627 6.6199 L 6.7139 6.6199 L 3.1397 3.0673 C 3.519 2.6963 3.9401 2.3649 4.3946 2.0817 ZM 5.8824 12.7918 L 4.3529 14.238 C 4.1043 14.0806 3.8667 13.9083 3.6397 13.7235 L 6.8627 10.5941 L 6.8627 15.2404 C 6.5271 15.1734 6.1997 15.0835 5.8824 14.9735 L 5.8824 12.7918 ZM 3.5396 5.7692 L 2.0563 4.4135 C 2.2144 4.16 2.3883 3.9163 2.576 3.6851 L 5.7108 6.7308 L 1.1274 6.7308 C 1.1957 6.4016 1.2874 6.0805 1.3995 5.7692 L 3.5396 5.7692 ZM 6.9392 9.5574 L 6.9392 9.5404 L 6.9565 9.5404 L 6.9392 9.5574 ZM 6.8799 9.6154 L 6.9392 9.5574 L 6.9565 9.6154 L 6.9392 9.6154 L 6.8799 9.6154 ZM 2.1323 12.0505 L 3.5967 10.5769 L 1.3995 10.5769 C 1.2874 10.2656 1.1957 9.9446 1.1274 9.6154 L 6.8799 9.6154 L 3.1348 13.274 C 2.7573 12.904 2.421 12.4937 2.1323 12.0505 ZM 0.1299 9.6154 C 0.1889 9.9431 0.2672 10.264 0.3652 10.5769 L 0.346 10.5769 C 0.5825 11.3536 0.9343 12.1449 1.3808 12.806 L 1.4313 12.7548 C 1.7284 13.1847 2.0674 13.5864 2.4403 13.9527 C 2.5999 14.1094 2.7669 14.2604 2.9387 14.4038 C 3.1589 14.5877 3.3878 14.7596 3.6274 14.9207 L 3.5749 14.9699 C 4.2579 15.4185 5.0767 15.771 5.8824 16.0067 L 5.8824 15.988 C 6.2014 16.084 6.5286 16.1606 6.8627 16.2187 C 7.2938 16.2937 7.7375 16.336 8.1887 16.3437 L 8.3333 16.3462 C 8.665 16.3462 8.9922 16.3278 9.3137 16.2909 L 9.3137 2.4038 L 9.8039 2.4038 L 9.8039 1.1058 C 10.1396 1.1727 10.4669 1.2625 10.7843 1.3726 L 10.7843 2.4038 L 11.7156 2.4038 L 12.1152 1.988 C 12.3326 2.1161 12.5431 2.255 12.7451 2.4038 L 14.2353 2.4038 C 12.7264 0.9189 10.6397 0 8.3333 0 L 8.1887 0.0024 C 7.7373 0.01 7.2942 0.0521 6.8627 0.1274 C 6.5285 0.1857 6.2013 0.2644 5.8824 0.3606 L 5.8824 0.341 C 5.0952 0.5715 4.2926 0.9124 3.622 1.3461 L 3.674 1.3966 C 3.2357 1.6871 2.8263 2.0182 2.4528 2.3829 C 0.9372 3.8627 0 5.9097 0 8.1731 L 0.0025 8.3125 C 0.0099 8.7563 0.0536 9.1915 0.1299 9.6154 ZM 6.8627 0.1147 L 6.8627 0.1274 C 7.2942 0.0521 7.7373 0.01 8.1887 0.0024 L 8.1439 0 C 7.6689 0 7.3161 0.0398 6.8627 0.1147 ZM 8.1439 16.3462 L 8.1887 16.3437 C 7.7375 16.336 7.2938 16.2937 6.8627 16.2187 L 6.8627 16.233 C 7.3161 16.3079 7.6689 16.3462 8.1439 16.3462 ZM 2.9025 14.437 L 2.9387 14.4038 C 2.7669 14.2604 2.5999 14.1094 2.4403 13.9527 C 2.6127 14.1217 2.7156 14.2832 2.9025 14.437 ZM 0.1153 9.6154 L 0.1299 9.6154 C 0.0536 9.1915 0.0099 8.7563 0.0025 8.3125 L 0 8.3589 C 0 8.8248 0.039 9.1707 0.1153 9.6154 Z" fill="#ffffff"/>
		<path d="M 24.1613 3.3654 L 11.1062 3.3654 C 10.6589 3.3654 10.2941 3.8533 10.2941 4.2795 L 10.2941 24.2261 C 10.2941 24.6524 10.6589 25 11.1062 25 L 24.1879 25 C 24.6352 25 25 24.6524 25 24.2261 L 25 4.2795 C 25 3.8533 24.6352 3.3654 24.1879 3.3654 L 24.1613 3.3654 ZM 17.6648 24.4009 C 16.9188 24.4009 16.3108 23.8212 16.3108 23.1106 C 16.3108 22.3998 16.9188 21.8202 17.6648 21.8202 C 18.4105 21.8202 19.0188 22.3998 19.0188 23.1106 C 19.0188 23.8212 18.4105 24.4009 17.6648 24.4009 ZM 23.5294 20.4164 C 23.5294 20.822 23.1812 21.1538 22.7557 21.1538 L 12.5384 21.1538 C 12.113 21.1538 11.7647 20.822 11.7647 20.4164 L 11.7647 5.5452 C 11.7647 5.1396 12.113 4.8077 12.5384 4.8077 L 22.7557 4.8077 C 23.1812 4.8077 23.5294 5.1396 23.5294 5.5452 L 23.5294 20.4164 ZM 13.2353 19.7115 L 22.0588 19.7115 L 22.0588 6.25 L 13.2353 6.25 L 13.2353 19.7115 Z" fill="#ffffff"/>
	</g>
</svg>