<?xml version="1.0" standalone="no"?>
<!-- Generator: Adobe Fireworks 10, Export SVG Extension by Aaron Beall (http://fireworks.abeall.com) . Version: 0.6.1  -->
<!DOCTYPE svg PUBLIC "-//W3C//DTD SVG 1.1//EN" "http://www.w3.org/Graphics/SVG/1.1/DTD/svg11.dtd">
<svg id="Icons.fw-edit" viewBox="0 0 25 25" style="background-color:#ffffff00" version="1.1"
	xmlns="http://www.w3.org/2000/svg" xmlns:xlink="http://www.w3.org/1999/xlink" xml:space="preserve"
	x="0px" y="0px" width="25px" height="25px"
>
	<g id="Layer%20151">
		<path d="M 0.8333 12.5 C 0.8333 6.0566 6.0565 0.8333 12.5 0.8333 C 18.9435 0.8333 24.1667 6.0566 24.1667 12.5 C 24.1667 18.9434 18.9435 24.1667 12.5 24.1667 C 6.0565 24.1667 0.8333 18.9434 0.8333 12.5 ZM 0 12.5 C 0 19.4037 5.5963 25 12.5 25 C 19.4037 25 25 19.4037 25 12.5 C 25 5.5963 19.4037 0 12.5 0 C 5.5963 0 0 5.5963 0 12.5 ZM 7.9916 14.9667 L 8.5311 19.7722 L 12.9333 17.8417 L 7.9916 14.9667 ZM 13.9344 5.4212 L 8.6412 13.8606 L 13.27 16.5616 L 18.2186 7.9773 L 13.9344 5.4212 Z" fill="#84bfff"/>
	</g>
</svg>