<?xml version="1.0" standalone="no"?>
<!-- Generator: Adobe Fireworks 10, Export SVG Extension by Aaron Beall (http://fireworks.abeall.com) . Version: 0.6.1  -->
<!DOCTYPE svg PUBLIC "-//W3C//DTD SVG 1.1//EN" "http://www.w3.org/Graphics/SVG/1.1/DTD/svg11.dtd">
<svg id="Icons.fw-gift" viewBox="0 0 25 25" style="background-color:#ffffff00" version="1.1"
	xmlns="http://www.w3.org/2000/svg" xmlns:xlink="http://www.w3.org/1999/xlink" xml:space="preserve"
	x="0px" y="0px" width="25px" height="25px"
>
	<g id="Layer%2013">
		<path id="base47" d="M 16.897 5.023 C 16.1865 6.0815 14.4302 5.8757 14.4302 5.8757 C 14.4302 5.8757 14.8726 4.3771 15.8188 3.9013 C 16.8579 3.379 17.3994 4.2742 16.897 5.023 ZM 19.1729 5.6037 C 20.2822 3.7027 19.3354 1.1316 16.3076 1.3997 C 12.7031 1.7181 12.9536 7.34 12.9536 7.34 C 12.9536 7.34 18.0845 7.4676 19.1729 5.6037 ZM 7.0884 4.4858 C 6.4692 3.5636 7.1357 2.4611 8.4155 3.1046 C 9.5811 3.6901 10.1265 5.5366 10.1265 5.5366 C 10.1265 5.5366 7.9634 5.7892 7.0884 4.4858 ZM 7.8135 0.0238 C 4.0854 -0.3061 2.9185 2.8597 4.2852 5.2018 C 5.6255 7.4965 11.9443 7.3395 11.9443 7.3395 C 11.9443 7.3395 12.2529 0.4166 7.8135 0.0238 ZM 2 10.7623 L 2 12.0701 C 2 12.6518 2.1489 13.1895 2.481 13.6219 L 11 13.6219 L 11 8.1801 L 4.5049 8.1801 C 3.0698 8.1801 2 9.342 2 10.7623 ZM 14 25 L 18.8037 25 C 20.5981 25 22 23.127 22 21.3516 L 22 14.6113 L 14 14.6113 L 14 25 ZM 3 21.4951 C 3 23.2705 4.4683 25 6.2622 25 L 11 25 L 11 14.6113 L 3 14.6113 L 3 21.4951 ZM 20.4561 8.1801 L 14 8.1801 L 14 13.6219 L 22.5356 13.6219 C 22.8677 13.1895 23 12.6518 23 12.0701 L 23 10.7623 C 23 9.342 21.8911 8.1801 20.4561 8.1801 Z" fill="#ffffff"/>
	</g>
</svg>