<?xml version="1.0" standalone="no"?>
<!-- Generator: Adobe Fireworks 10, Export SVG Extension by Aaron Beall (http://fireworks.abeall.com) . Version: 0.6.1  -->
<!DOCTYPE svg PUBLIC "-//W3C//DTD SVG 1.1//EN" "http://www.w3.org/Graphics/SVG/1.1/DTD/svg11.dtd">
<svg id="Icons.fw-email-alt" viewBox="0 0 25 25" style="background-color:#ffffff00" version="1.1"
	xmlns="http://www.w3.org/2000/svg" xmlns:xlink="http://www.w3.org/1999/xlink" xml:space="preserve"
	x="0px" y="0px" width="25px" height="25px"
>
	<g id="email-alt">
		<path id="base15" d="M 3.5833 6.5 L 21.4167 6.5 L 12.5 13.9077 L 3.5833 6.5 ZM 24.2424 5 L 23.3606 5 L 23.2217 5 L 1.778 5 L 1.6394 5 L 0.7576 5 L 0.5114 5.2438 C 0.327 5.3288 0.1546 5.4352 0 5.5574 L 0.106 5.645 L 0 5.75 L 0 19.172 L 0 19.25 L 0.7576 20 L 23.5463 20 L 24.2424 20 L 25 19.25 L 25 19.172 L 25 5.75 L 24.8938 5.645 L 25 5.5574 C 24.8454 5.4352 24.673 5.3289 24.4886 5.2438 L 24.2424 5 ZM 3.2916 18.5 L 7.5684 15.0283 L 6.3713 14 L 1.5152 17.9413 L 1.5152 6.815 L 11.9642 15.5 L 12.5 15.9336 L 13.0358 15.5 L 23.4848 6.815 L 23.4848 17.9413 L 18.6287 14 L 17.4278 15.0321 L 21.7008 18.5 L 3.2916 18.5 Z" fill="#ffffff"/>
	</g>
</svg>