<?xml version="1.0" encoding="utf-8"?>
<!-- Generator: Adobe Illustrator 19.0.1, SVG Export Plug-In . SVG Version: 6.00 Build 0)  -->
<svg version="1.1" id="Layer_1" xmlns="http://www.w3.org/2000/svg" xmlns:xlink="http://www.w3.org/1999/xlink" x="0px" y="0px"
	 viewBox="0 0 135 135" style="enable-background:new 0 0 135 135;" xml:space="preserve">
<style type="text/css">
	.st0{fill:#FFFFFF;}
	.st1{fill:#E21B23;}
</style>
<path class="st0" d="M61.2,67.9c-0.3-1.3-0.9-2.2-2.3-1.9L58,66.3l0.9,4.5l1-0.2C61.3,70.2,61.4,69.1,61.2,67.9z M96,79.7L95,80
	l2.3,11.1l1-0.2c1.6-0.4,2.1-1.3,1.1-6.4C98.4,80.3,97.9,79.2,96,79.7z M45.3,92.7l0.3,7.9l2.6-0.7L45.3,92.7L45.3,92.7z M123,93.5
	l-12.1-52.1c-0.2-0.9-1.1-1.4-2-1.2l-4.1,1l-26-20.3c0.5-1.2,0.6-2.6,0.3-4c-0.4-1.8-1.5-3.3-3.1-4.3c-1.5-1-3.4-1.3-5.2-0.8
	c-1.8,0.4-3.3,1.5-4.3,3.1c-1,1.5-1.3,3.4-0.8,5.2c0,0.1,0,0.1,0.1,0.2L16.1,61.7l-4.5,1c-0.9,0.2-1.5,1.1-1.2,2l12.1,52.1
	c0.1,0.4,0.4,0.8,0.7,1c0.3,0.2,0.6,0.3,0.9,0.3c0.1,0,0.3,0,0.4,0l97.2-22.6C122.6,95.3,123.2,94.4,123,93.5z M67.5,23.1
	c1.3,1.3,3,2,4.9,2c0.5,0,1-0.1,1.6-0.2c1-0.2,1.9-0.7,2.7-1.3l24,18.4L23.3,60L67.5,23.1z M60.8,80.4l-3.6,0.9l-3.5-17.1l5.6-1.4
	c3.8-1,5.1,1.9,5.6,4c0.6,3.1-0.2,5.5-3.8,6.5l-1.6,0.4L60.8,80.4z M35.6,75.9l4.9-1.2l0.7,3.3l-4.9,1.2l0.8,3.9l5.5-1.4l0.7,3.3
	l-9.1,2.3l-3.5-17.1l8.8-2.2l0.7,3.3l-5.2,1.3L35.6,75.9z M42.6,67.1l3.6-0.9L49,80l5.2-1.3l0.7,3.3L46,84.2L42.6,67.1z M17,73.6
	l3.6-0.9l1.3,6.4l2.9-0.7L23.5,72l3.6-0.9l3.5,17.1L27,89l-1.5-7.3l-2.9,0.7l1.5,7.3l-3.6,0.9L17,73.6z M34.8,110.1l-4-11.7l0,0
	l1,12.5l-4,1l-6.2-16.4l3.6-0.9l3.8,11.8l0,0l-0.9-12.6l3.3-0.8l4.2,11.7l0,0l-1.2-12.5l3.5-0.9l0.8,17.8L34.8,110.1z M50.6,106.1
	l-1.2-3.1l-3.7,0.9l0.1,3.4l-3.7,0.9l0.4-18.1L47,89l7.3,16.1L50.6,106.1z M63.1,102.9l-5.5-11l0,0l2.4,11.8l-3.2,0.8l-3.5-17.1
	l4.1-1l5.2,10.3l0,0l-2.3-11.1l3.3-0.8l3.5,17.1L63.1,102.9z M76.5,99.5l-3.6,0.9l-2.8-13.8l-3.2,0.8l-0.7-3.3l10-2.5l0.7,3.3
	l-3.2,0.8L76.5,99.5z M82.3,98l-3.5-17.1l8.8-2.2l0.7,3.3L83,83.3l0.7,3.4l4.9-1.2l0.7,3.3L84.4,90l0.8,3.9l5.5-1.4l0.7,3.3L82.3,98
	z M99.2,93.7l-5,1.3l-3.5-17.1l5.3-1.4c3.5-0.9,5.5,0.8,6.7,6.7C104,89.5,103.9,92.5,99.2,93.7z"/>
<path class="st1" d="M67.5,0.3c-0.5,0-0.9,0-1.4,0C48.2,0.6,31.5,8,19,20.9c-12.5,13-19.1,30-18.8,47.9
	c0.7,36.3,30.9,65.9,67.2,65.9c0.5,0,0.9,0,1.3,0c37.1-0.7,66.6-31.5,65.9-68.5C134,29.8,103.8,0.3,67.5,0.3z M66.4,9.5
	c0.4,0,0.8,0,1.2,0c31.5,0,57.4,25.3,58,56.9c0.2,7.7-1.2,15.1-3.8,21.8L18.2,37C28.2,20.8,46,9.9,66.4,9.5z M68.7,125.5
	c-0.4,0-0.8,0-1.2,0c-31.5,0-57.4-25.3-58-56.9c-0.2-8.2,1.4-16,4.3-23.2l103.8,51.3C107.7,113.6,89.6,125.1,68.7,125.5z"/>
</svg>
