<?xml version="1.0" standalone="no"?>
<!-- Generator: Adobe Fireworks 10, Export SVG Extension by Aaron Beall (http://fireworks.abeall.com) . Version: 0.6.1  -->
<!DOCTYPE svg PUBLIC "-//W3C//DTD SVG 1.1//EN" "http://www.w3.org/Graphics/SVG/1.1/DTD/svg11.dtd">
<svg id="Icons.fw-expand" viewBox="0 0 25 25" style="background-color:#ffffff00" version="1.1"
	xmlns="http://www.w3.org/2000/svg" xmlns:xlink="http://www.w3.org/1999/xlink" xml:space="preserve"
	x="0px" y="0px" width="25px" height="25px"
>
	<g id="expand">
		<path id="base25" d="M 14 10 L 14 14 L 18 14 L 18 15 L 17 15 L 17 16 L 16 16 L 16 17 L 15 17 L 15 18 L 14 18 L 14 19 L 13 19 L 13 20 L 12 20 L 12 19 L 11 19 L 11 18 L 10 18 L 10 17 L 9 17 L 9 16 L 8 16 L 8 15 L 7 15 L 7 14 L 11 14 L 11 10 L 14 10 ZM 11 8 L 11 5 L 14 5 L 14 8 L 11 8 ZM 12.5 0 C 5.5964 0 0 5.5964 0 12.5 C 0 19.4036 5.5964 25 12.5 25 C 19.4036 25 25 19.4036 25 12.5 C 25 5.5964 19.4036 0 12.5 0 Z" fill="#cc0000"/>
	</g>
</svg>