<?xml version="1.0" standalone="no"?>
<!-- Generator: Adobe Fireworks 10, Export SVG Extension by Aaron Beall (http://fireworks.abeall.com) . Version: 0.6.1  -->
<!DOCTYPE svg PUBLIC "-//W3C//DTD SVG 1.1//EN" "http://www.w3.org/Graphics/SVG/1.1/DTD/svg11.dtd">
<svg id="Icons.fw-expand-alt" viewBox="0 0 23 23" style="background-color:#ffffff00" version="1.1"
	xmlns="http://www.w3.org/2000/svg" xmlns:xlink="http://www.w3.org/1999/xlink" xml:space="preserve"
	x="0px" y="0px" width="23px" height="23px"
>
	<g id="Layer%20126">
		<path d="M 1 11.5 C 1 5.7009 5.7009 1 11.5 1 C 17.2991 1 22 5.7009 22 11.5 C 22 17.2991 17.2991 22 11.5 22 C 5.7009 22 1 17.2991 1 11.5 ZM 0 11.5 C 0 17.8513 5.1487 23 11.5 23 C 17.8513 23 23 17.8513 23 11.5 C 23 5.1487 17.8513 0 11.5 0 C 5.1487 0 0 5.1487 0 11.5 ZM 10 5.5 L 8 7.5 L 12 11.5 L 8 15.5 L 10 17.5 L 16 11.5 L 10 5.5 Z" fill="#ffffff"/>
	</g>
</svg>