<?xml version="1.0" standalone="no"?>
<!-- Generator: Adobe Fireworks 10, Export SVG Extension by Aaron Beall (http://fireworks.abeall.com) . Version: 0.6.1  -->
<!DOCTYPE svg PUBLIC "-//W3C//DTD SVG 1.1//EN" "http://www.w3.org/Graphics/SVG/1.1/DTD/svg11.dtd">
<svg id="Icons.fw-expand-widget" viewBox="0 0 25 25" style="background-color:#ffffff00" version="1.1"
	xmlns="http://www.w3.org/2000/svg" xmlns:xlink="http://www.w3.org/1999/xlink" xml:space="preserve"
	x="0px" y="0px" width="25px" height="25px"
>
	<path d="M 2.5 12.5 C 2.5 7.2532 6.7532 3 12 3 C 17.2468 3 21.5 7.2532 21.5 12.5 C 21.5 17.7468 17.2468 22 12 22 C 6.7532 22 2.5 17.7468 2.5 12.5 ZM 1.5 12.5 C 1.5 18.2991 6.2009 23 12 23 C 17.7991 23 22.5 18.2991 22.5 12.5 C 22.5 6.7009 17.7991 2 12 2 C 6.2009 2 1.5 6.7009 1.5 12.5 ZM 17.6322 14.1949 C 17.8033 13.9825 17.7373 13.695 17.4822 13.5201 L 12.5682 10.1468 C 12.3975 10.0352 12.3146 9.9091 12.0006 9.9091 C 11.6869 9.9091 11.6025 10.0352 11.4318 10.1468 L 6.5178 13.5201 C 6.2627 13.695 6.1967 13.9825 6.3678 14.1949 C 6.5216 14.386 6.8873 14.4277 7.1426 14.253 L 12.0006 10.8935 L 16.8574 14.253 C 17.1127 14.4277 17.4784 14.386 17.6322 14.1949 Z" fill="#84bfff"/>
</svg>