<?xml version="1.0" standalone="no"?>
<!-- Generator: Adobe Fireworks 10, Export SVG Extension by Aaron Beall (http://fireworks.abeall.com) . Version: 0.6.1  -->
<!DOCTYPE svg PUBLIC "-//W3C//DTD SVG 1.1//EN" "http://www.w3.org/Graphics/SVG/1.1/DTD/svg11.dtd">
<svg id="Icons.fw-expand-faq" viewBox="0 0 16 16" style="background-color:#ffffff00" version="1.1"
	xmlns="http://www.w3.org/2000/svg" xmlns:xlink="http://www.w3.org/1999/xlink" xml:space="preserve"
	x="0px" y="0px" width="16px" height="16px"
>
	<g id="Layer%20128">
		<path d="M 1 8 C 1 4.134 4.134 1 8 1 C 11.866 1 15 4.134 15 8 C 15 11.866 11.866 15 8 15 C 4.134 15 1 11.866 1 8 ZM 0 8 C 0 12.4183 3.5817 16 8 16 C 12.4183 16 16 12.4183 16 8 C 16 3.5817 12.4183 0 8 0 C 3.5817 0 0 3.5817 0 8 ZM 4 7 L 4 9 L 7 9 L 7 12 L 9 12 L 9 9 L 12 9 L 12 7 L 9 7 L 9 4 L 7 4 L 7 7 L 4 7 Z" fill="#ffffff"/>
	</g>
</svg>