<?xml version="1.0" standalone="no"?>
<!-- Generator: Adobe Fireworks 10, Export SVG Extension by Aaron Beall (http://fireworks.abeall.com) . Version: 0.6.1  -->
<!DOCTYPE svg PUBLIC "-//W3C//DTD SVG 1.1//EN" "http://www.w3.org/Graphics/SVG/1.1/DTD/svg11.dtd">
<svg id="Icons.fw-faqs" viewBox="0 0 25 25" style="background-color:#ffffff00" version="1.1"
	xmlns="http://www.w3.org/2000/svg" xmlns:xlink="http://www.w3.org/1999/xlink" xml:space="preserve"
	x="0px" y="0px" width="25px" height="25px"
>
	<g id="faqs">
		<path id="base10" d="M 8.6523 8.7152 L 8.667 8.4991 C 8.667 7.1539 9.1281 6.0349 9.8386 5.1548 C 10.5492 4.2747 11.4502 3.8221 12.5416 3.8221 C 13.5568 3.8221 14.407 4.2119 15.0922 4.9788 C 15.7773 5.7457 16.12 6.6887 16.12 7.8203 C 16.12 8.6123 15.9678 9.241 15.676 9.7187 C 15.3713 10.1965 14.7115 10.8629 13.6963 11.7178 C 12.4146 12.8116 11.6304 13.8174 11.1482 14.7478 C 10.6659 15.6781 10.4249 16.8098 10.4249 18.1173 L 10.4341 18.5906 L 15.0981 18.6066 C 15.0981 17.4877 15.1155 16.7152 15.3693 16.2877 C 15.623 15.8604 15.8029 15.2633 16.8308 14.5341 C 18.4169 13.4151 19.4956 12.3842 20.0667 11.4538 C 20.6376 10.5234 21 9.3289 21 7.8831 C 21 5.5572 20.13 3.6587 18.5565 2.2003 C 16.9702 0.7418 14.9274 0 12.4274 0 C 9.864 0 7.8336 0.6094 6.3617 2.0804 C 4.877 3.564 4 5.748 4 8.7152 L 8.6523 8.7152 ZM 15.0852 25 L 15.0852 20.3555 L 10.4249 20.3555 L 10.4249 25 L 15.0852 25 Z" fill="#ffffff"/>
	</g>
</svg>