<?xml version="1.0" standalone="no"?>
<!-- Generator: Adobe Fireworks 10, Export SVG Extension by Aaron Beall (http://fireworks.abeall.com) . Version: 0.6.1  -->
<!DOCTYPE svg PUBLIC "-//W3C//DTD SVG 1.1//EN" "http://www.w3.org/Graphics/SVG/1.1/DTD/svg11.dtd">
<svg id="Icons.fw-friends-forever" viewBox="0 0 25 25" style="background-color:#ffffff00" version="1.1"
	xmlns="http://www.w3.org/2000/svg" xmlns:xlink="http://www.w3.org/1999/xlink" xml:space="preserve"
	x="0px" y="0px" width="25px" height="25px"
>
	<g id="friends-forever">
		<path d="M 25 6.4327 C 25 4.6824 23.5755 3.2636 21.8182 3.2636 C 20.0608 3.2636 18.6364 4.6824 18.6364 6.4327 C 18.6364 8.1829 20.0608 9.6017 21.8182 9.6017 C 23.5755 9.6017 25 8.1829 25 6.4327 ZM 6.3636 3.1691 C 6.3636 1.4188 4.9388 0 3.1818 0 C 1.4248 0 0 1.4188 0 3.1691 C 0 4.9193 1.4248 6.3381 3.1818 6.3381 C 4.9388 6.3381 6.3636 4.9193 6.3636 3.1691 ZM 5.4977 6.5283 C 7.1815 6.0311 8.2868 5.9611 10.2241 6.1674 C 11.1858 6.2699 12.1281 5.7912 12.332 4.9568 C 12.5358 4.1224 11.7406 3.1875 10.5504 3.0605 C 9.2454 2.9212 8.245 2.8829 7.2682 2.9767 L 7.2727 3.1692 C 7.2727 4.5631 6.5698 5.7936 5.4977 6.5283 ZM 1.725 6.9765 L 1.7243 7.3297 C 1.7243 7.9659 1.7535 8.4966 1.8182 8.9526 L 1.8182 20.0625 C 1.8182 20.9209 2.6362 21.6235 3.5496 21.6235 C 4.4633 21.6235 5 20.9209 5 20.0625 L 5 12.8641 C 6.6036 13.5171 8.8305 13.6646 10.1404 13.4497 C 11.4361 13.2371 12.549 12.4462 12.3842 11.4372 C 12.2215 10.4401 11.2062 10.3421 10.2311 10.4452 C 8.1245 10.6677 6.5821 10.5641 5 9.6656 L 5 6.8203 C 4.4523 7.0914 3.8349 7.2436 3.1818 7.2436 C 2.6684 7.2436 2.1778 7.1485 1.725 6.9765 ZM 20.4545 10.2763 L 20.4545 12.9406 C 18.7947 13.9574 17.2088 14.0805 15.0056 13.8478 C 14.0305 13.7448 13.0151 13.8427 12.8525 14.8398 C 12.6877 15.8488 13.8006 16.6397 15.0963 16.8523 C 16.4666 17.0771 18.8406 16.9054 20.4545 16.173 L 20.4545 23.4374 C 20.4545 24.2967 21.376 25 22.2288 25 C 23.0813 25 23.6364 24.2967 23.6364 23.4374 L 23.6364 10.0839 C 23.0887 10.355 22.4713 10.5072 21.8182 10.5072 C 21.3399 10.5072 20.881 10.4265 20.4545 10.2763 ZM 17.7295 6.3014 C 16.83 6.2357 15.8906 6.2773 14.6959 6.4048 C 13.5054 6.5318 12.7098 7.4671 12.9136 8.3014 C 13.1175 9.1358 14.0598 9.6141 15.0216 9.5117 C 16.8738 9.3144 17.9657 9.3701 19.5295 9.81 C 18.4424 9.0776 17.7273 7.8383 17.7273 6.4328 L 17.7295 6.3014 Z" fill="#ffffff"/>
	</g>
</svg>