<?xml version="1.0" standalone="no"?>
<!-- Generator: Adobe Fireworks 10, Export SVG Extension by Aaron Beall (http://fireworks.abeall.com) . Version: 0.6.1  -->
<!DOCTYPE svg PUBLIC "-//W3C//DTD SVG 1.1//EN" "http://www.w3.org/Graphics/SVG/1.1/DTD/svg11.dtd">
<svg id="Icons.fw-gas" viewBox="0 0 25 25" style="background-color:#ffffff00" version="1.1"
	xmlns="http://www.w3.org/2000/svg" xmlns:xlink="http://www.w3.org/1999/xlink" xml:space="preserve"
	x="0px" y="0px" width="25px" height="25px"
>
	<g id="Layer%20123">
		<g>
			<path d="M 20.2251 14.8178 C 17.4252 8.7353 19.232 6.7844 19.2497 6.7645 C 19.2816 6.7329 19.2864 6.6824 19.2624 6.6439 C 19.2365 6.6064 19.1877 6.5918 19.1457 6.6093 C 19.1045 6.6255 15.2083 8.2536 15.7001 11.8636 C 14.6287 10.9004 9.6366 5.9553 12.6912 0.1417 C 12.71 0.1058 12.7036 0.0617 12.6766 0.0315 C 12.6484 0.0014 12.6053 -0.0082 12.57 0.0073 C 12.5033 0.0345 10.9444 0.7024 9.7045 2.39 C 8.5583 3.9435 7.4939 6.692 8.9271 10.9459 C 9.4505 12.9475 8.466 14.5704 7.9378 15.2586 C 8.0668 14.7835 8.2308 13.9798 8.2049 13.0566 C 8.1614 11.7044 7.6759 9.8385 5.5997 8.6304 C 5.5674 8.6124 5.5266 8.6139 5.4958 8.6367 C 5.4632 8.661 5.4504 8.698 5.4594 8.7367 C 5.4654 8.7731 6.2424 12.3272 4.8812 13.9718 C 3.7028 15.39 2.5517 17.8595 3.1753 20.1463 C 3.6975 22.0593 5.3303 23.5204 8.0297 24.4849 C 8.7223 24.6989 9.3841 24.8607 10.116 24.9981 C 10.1625 25.0078 10.2099 24.98 10.2245 24.9334 C 10.2384 24.8844 10.2147 24.8348 10.172 24.8148 C 8.7857 24.2109 7.3562 22.957 8.4195 20.4067 C 9.4302 18.2088 9.2501 17.0757 9.0468 16.5899 C 9.5701 16.8851 10.6082 17.6525 10.3486 19 C 10.3419 19.0393 10.3599 19.0805 10.3956 19.101 C 10.4293 19.1221 10.4725 19.1191 10.5036 19.0929 C 10.5377 19.0675 13.6592 16.4904 12.241 13.334 C 12.9396 13.739 14.7937 15.1542 13.7001 18.4011 C 13.3358 19.7971 14.3292 20.8003 14.3698 20.8439 C 14.4028 20.8748 14.4523 20.8808 14.4902 20.8552 C 14.5273 20.8319 14.5431 20.7834 14.5266 20.7401 C 14.494 20.6539 13.7548 18.654 15.3595 17.5507 C 15.2743 18.0636 15.1396 19.3328 15.7147 20.0247 C 16.2299 20.6486 16.7281 21.6695 16.5762 22.667 C 16.4696 23.3673 16.0569 23.96 15.3437 24.4231 C 15.3017 24.4525 15.2867 24.5021 15.308 24.5457 C 15.3272 24.591 15.3801 24.6108 15.4263 24.5962 C 17.1865 24.0119 19.498 22.851 20.5046 20.6358 C 21.2482 19.0043 21.1544 17.048 20.2251 14.8178 L 20.2251 14.8178 Z" fill="#ffffff"/>
		</g>
	</g>
</svg>