<?xml version="1.0" encoding="utf-8"?>
<!-- Generator: Adobe Illustrator 19.0.1, SVG Export Plug-In . SVG Version: 6.00 Build 0)  -->
<svg version="1.1" id="Layer_1" xmlns="http://www.w3.org/2000/svg" xmlns:xlink="http://www.w3.org/1999/xlink" x="0px" y="0px"
	 viewBox="0 0 166 182" style="enable-background:new 0 0 166 182;" xml:space="preserve">
<style type="text/css">
	.st0{fill:#FFFFFF;}
	.st1{fill:#E21B23;}
</style>
<path class="st0" d="M69.5,89"/>
<g>
	<path class="st0" d="M69.5,89C89.6,89,106,69.2,106,44.7c0-24.5-5.4-44.3-36.5-44.3c-31.1,0-36.5,19.9-36.5,44.3
		C32.9,69.2,49.3,89,69.5,89z M138.3,154.9c-0.1-7.2-0.4-13.5-0.9-19l-15,23.4c-3.1,4.9-8.3,8.1-14.1,8.7c-0.7,0.1-1.4,0.1-2.1,0.1
		c-5.1,0-10-2-13.6-5.6L70,139.8c-7.5-7.5-7.5-19.7,0-27.2c7.5-7.5,19.7-7.5,27.2,0l5.8,5.8l12.1-19c-6.5-2.9-14.9-5.1-25.7-7.1
		c0,0-6,7.7-20,7.7c-14,0-20-7.7-20-7.7C7.3,100,1.4,112,0.6,153.5c-0.1,3.4-0.1,3.6-0.1,3.2c0,0.7,0,2.1,0,4.5
		c0,0,10.1,20.5,68.9,20.5c58.8,0,68.9-20.5,68.9-20.5c0-1.5,0-2.6,0-3.3C138.4,158.1,138.4,157.7,138.3,154.9z"/>
	<path class="st1" d="M106.3,159.8c-2.8,0-5.6-1.1-7.6-3.2l-22.7-22.7c-4.2-4.2-4.2-11.1,0-15.3c4.2-4.2,11.1-4.2,15.3,0l13.2,13.2
		l41.2-64.4c3.2-5,9.9-6.5,14.9-3.3c5,3.2,6.5,9.9,3.3,14.9l-48.4,75.7c-1.8,2.8-4.7,4.6-7.9,4.9C107,159.7,106.6,159.8,106.3,159.8
		z"/>
</g>
</svg>
