<?xml version="1.0" standalone="no"?>
<!-- Generator: Adobe Fireworks 10, Export SVG Extension by Aaron Beall (http://fireworks.abeall.com) . Version: 0.6.1  -->
<!DOCTYPE svg PUBLIC "-//W3C//DTD SVG 1.1//EN" "http://www.w3.org/Graphics/SVG/1.1/DTD/svg11.dtd">
<svg id="Icons.fw-home-delivery" viewBox="0 0 25 25" style="background-color:#ffffff00" version="1.1"
	xmlns="http://www.w3.org/2000/svg" xmlns:xlink="http://www.w3.org/1999/xlink" xml:space="preserve"
	x="0px" y="0px" width="25px" height="25px"
>
	<g id="Layer%20142">
		<path d="M 10.8552 13 L 10.8552 12.2592 C 10.2622 12.2358 9.8759 12.0954 9.5394 11.9238 L 9.805 11.0114 C 10.1767 11.1907 10.6989 11.3545 11.2742 11.3545 C 11.7787 11.3545 12.1239 11.183 12.1239 10.8711 C 12.1239 10.5747 11.8405 10.3875 11.1857 10.1926 C 10.2387 9.9118 9.3594 9.5219 9.3594 8.7654 C 9.3594 8.0792 9.9082 7.541 10.8552 7.3773 L 10.8552 6.6363 L 12.1711 6.6363 L 12.1711 7.3226 C 12.7641 7.3461 13.1624 7.4552 13.4545 7.58 L 12.9824 8.4612 C 12.7523 8.3755 12.3451 8.1961 11.7079 8.1961 C 11.1326 8.1961 10.9467 8.4145 10.9467 8.6328 C 10.9467 8.8902 11.2565 9.0539 12.0088 9.3036 C 13.062 9.6311 13.7464 10.06 13.7464 10.7618 C 13.7464 11.4559 13.1889 12.0485 12.1711 12.2046 L 12.1711 13 L 10.8552 13 ZM 22.8792 12.1776 L 19.0517 12.1776 C 18.9645 12.1776 18.894 12.1074 18.894 12.0202 L 18.894 9.0688 C 18.894 8.9817 18.9645 8.911 19.0517 8.911 L 19.7797 8.911 C 19.8199 8.911 19.8602 8.9278 19.8904 8.9548 L 22.9866 11.9061 C 23.0905 12.0034 23.0201 12.1776 22.8792 12.1776 ZM 24.6034 12.0468 L 20.6485 8.1408 C 20.3968 7.8929 20.0581 7.752 19.7059 7.752 L 17.71 7.752 L 17.71 7.0049 C 17.71 6.449 17.2604 6 16.7035 6 L 5.1842 6 C 4.6305 6 4.1778 6.449 4.1778 7.0049 L 4.1778 7.1624 L 0.094 7.6324 L 7.3304 8.5736 L 0 9.3007 L 7.3045 10.3379 L 0 10.9702 L 4.1781 11.7574 L 4.1778 13.7319 L 24.9993 13.7319 L 24.9993 12.9983 C 24.9993 12.6397 24.855 12.2981 24.6034 12.0468 ZM 20.1855 18.958 C 19.6085 18.958 19.1422 18.4891 19.1422 17.9163 C 19.1422 17.3402 19.6085 16.8744 20.1855 16.8744 C 20.7592 16.8744 21.2288 17.3402 21.2288 17.9163 C 21.2288 18.4891 20.7592 18.958 20.1855 18.958 ZM 20.1855 15.829 C 19.0315 15.829 18.0957 16.7637 18.0957 17.9164 C 18.0957 19.0653 19.0316 20 20.1855 20 C 21.3362 20 22.272 19.0653 22.272 17.9164 C 22.272 16.7637 21.3362 15.829 20.1855 15.829 ZM 25 14.2874 L 4.1785 14.2874 L 4.1785 16.5124 C 4.1785 17.0676 4.6291 17.5174 5.1849 17.5174 L 6.5334 17.5174 C 6.7278 16.1841 7.8785 15.159 9.2639 15.159 C 10.6494 15.159 11.7999 16.1841 11.9945 17.5174 L 17.4522 17.5174 C 17.6469 16.1841 18.7974 15.159 20.1829 15.159 C 21.5716 15.159 22.7223 16.1841 22.9168 17.5174 L 23.9936 17.5174 C 24.5493 17.5174 25 17.0676 25 16.5124 L 25 14.2874 ZM 9.2632 18.958 C 8.6862 18.958 8.2199 18.4891 8.2199 17.9163 C 8.2199 17.3402 8.6862 16.8744 9.2632 16.8744 C 9.8402 16.8744 10.3065 17.3402 10.3065 17.9163 C 10.3065 18.4891 9.8402 18.958 9.2632 18.958 ZM 9.2632 15.829 C 8.1093 15.829 7.1766 16.7637 7.1766 17.9164 C 7.1766 19.0653 8.1093 20 9.2632 20 C 10.4171 20 11.3498 19.0653 11.3498 17.9164 C 11.3498 16.7637 10.4171 15.829 9.2632 15.829 Z" fill="#ffffff"/>
	</g>
</svg>