<?xml version="1.0" encoding="utf-8"?>
<!-- Generator: Adobe Illustrator 19.0.1, SVG Export Plug-In . SVG Version: 6.00 Build 0)  -->
<svg version="1.1" id="Layer_1" xmlns="http://www.w3.org/2000/svg" xmlns:xlink="http://www.w3.org/1999/xlink" x="0px" y="0px"
	 viewBox="0 0 135 135" style="enable-background:new 0 0 135 135;" xml:space="preserve">
<style type="text/css">
	.st0{fill:#FFFFFF;}
	.st1{fill:#707070;}
	.st2{fill:#E21B23;}
</style>
<path class="st0" d="M34.5,91.3H101c2.3,0,4.1-1.8,4.1-4.1V41.8c0-2.3-1.8-4.1-4.1-4.1H34.5c-2.3,0-4.1,1.8-4.1,4.1v45.5
	C30.4,89.5,32.2,91.3,34.5,91.3z M110.5,94.7H24.1c-1.3,0-2.4,1.1-2.4,2.4s1.1,2.4,2.4,2.4h86.4c1.3,0,2.4-1.1,2.4-2.4
	S111.8,94.7,110.5,94.7z"/>
<path class="st1" d="M58.8,86.5c-2.5,0-4.6-2.1-4.6-4.6c0-2.5,2.1-4.6,4.6-4.6c2.5,0,4.6,2.1,4.6,4.6C63.4,84.4,61.4,86.5,58.8,86.5
	z M81.9,86.5c-2.5,0-4.6-2.1-4.6-4.6c0-2.5,2.1-4.6,4.6-4.6s4.6,2.1,4.6,4.6C86.5,84.4,84.4,86.5,81.9,86.5z M49.7,45.2l1.4,3.9
	l35.7-1v13.6c0,0-30.2,6-31.4,6.5c-1.2,0.4-1.4,1.1-1.4,1.7c0,1.5,1.2,1.7,1.2,1.7h31.4v4.6c0,0,0.3,0-31.8,0
	c-5.1-0.2-5.3-4.8-5.4-5.9c0-3.6,2.3-5.2,2.3-5.2L46.2,48l-2.6-0.1L42,45.2H49.7z"/>
<path class="st2" d="M67.5,0.3c-0.5,0-0.9,0-1.4,0C48.2,0.6,31.5,8,19,20.9c-12.5,13-19.1,30-18.8,47.9
	c0.7,36.3,30.9,65.9,67.2,65.9c0.4,0,0.9,0,1.3,0c37.1-0.7,66.6-31.5,65.9-68.5C134,29.8,103.8,0.3,67.5,0.3z M66.4,9.5
	c0.4,0,0.8,0,1.2,0c31.5,0,57.4,25.3,58,56.9c0.2,7.7-1.2,15.1-3.8,21.8L18.2,37C28.2,20.8,46,9.9,66.4,9.5z M68.7,125.5
	c-0.4,0-0.8,0-1.2,0c-31.5,0-57.4-25.3-58-56.9c-0.2-8.2,1.4-16,4.3-23.2l103.8,51.3C107.7,113.6,89.6,125.1,68.7,125.5z"/>
</svg>
