<?xml version="1.0" standalone="no"?>
<!-- Generator: Adobe Fireworks 10, Export SVG Extension by Aaron Beall (http://fireworks.abeall.com) . Version: 0.6.1  -->
<!DOCTYPE svg PUBLIC "-//W3C//DTD SVG 1.1//EN" "http://www.w3.org/Graphics/SVG/1.1/DTD/svg11.dtd">
<svg id="Icons.fw-ingo" viewBox="0 0 25 25" style="background-color:#ffffff00" version="1.1"
	xmlns="http://www.w3.org/2000/svg" xmlns:xlink="http://www.w3.org/1999/xlink" xml:space="preserve"
	x="0px" y="0px" width="25px" height="25px"
>
	<g id="Layer%20116">
		<g id="base60">
			<path d="M 7.2844 4.7997 L 7.2844 10.0332 L 6.0268 10.0332 L 6.0268 2.4795 L 7.0985 2.4795 L 11.3089 7.7349 L 11.3089 2.4795 L 12.5666 2.4795 L 12.5666 10.0332 L 11.4947 10.0332 L 7.2844 4.7997 ZM 2.4994 10.0332 L 2.4994 2.4795 L 3.8447 2.4795 L 3.8447 10.0332 L 2.4994 10.0332 ZM 12.571 0 L 2.4197 0 C 1.0889 0 0 1.0746 0 2.3874 L 0 9.5304 C 0.2342 10.1668 0.5122 10.6925 0.5122 10.6925 C 1.1811 11.8441 2.4372 12.6258 3.8715 12.6258 L 14.9905 12.6258 L 14.9905 2.3874 C 14.9905 1.0746 13.9014 0 12.571 0 Z" fill="#a1a3a2"/>
			<path d="M 15.2322 16.0658 C 13.7667 16.0658 12.673 17.1558 12.673 18.7203 C 12.673 20.2312 13.7994 21.3748 15.2322 21.3748 C 16.8398 21.3748 17.8022 20.2094 17.8022 18.7203 C 17.8022 17.1558 16.6758 16.0658 15.2322 16.0658 Z" fill="#3e9b34"/>
			<path d="M 20.6138 24.136 L 20.9479 24.136 L 20.9479 25 L 21.2027 25 L 21.2027 24.136 L 21.5371 24.136 L 21.5371 23.9004 L 20.6138 23.9004 L 20.6138 24.136 Z" fill="#3e9b34"/>
			<path d="M 22.3121 24.364 L 21.9683 23.9004 L 21.7119 23.9004 L 21.7119 25 L 21.967 25 L 21.967 24.3041 L 22.2757 24.7282 L 22.3121 24.7282 L 22.6225 24.2992 L 22.6225 25 L 22.8773 25 L 22.8773 23.9004 L 22.6372 23.9004 L 22.3121 24.364 Z" fill="#3e9b34"/>
			<path d="M 15.2322 14.825 C 12.8811 14.825 11.2515 16.53 11.2515 18.7203 C 11.2515 21.0728 12.9574 22.6159 15.2322 22.6159 C 17.5067 22.6159 19.224 20.9866 19.224 18.7203 C 19.224 16.3681 17.5067 14.825 15.2322 14.825 Z" fill="none"/>
			<path d="M 6.3868 19.6699 L 8.2351 19.6699 L 8.2351 20.857 C 7.9507 21.1268 7.2399 21.3748 6.6494 21.3748 C 5.0963 21.3748 4.0574 20.3286 4.0574 18.7203 C 4.0574 17.037 5.1402 16.0658 6.6165 16.0658 C 7.2836 16.0658 7.9617 16.2928 8.3445 16.6488 L 8.9132 15.5913 C 8.2898 15.1057 7.546 14.825 6.4525 14.825 C 4.1121 14.825 2.6358 16.5514 2.6358 18.7203 C 2.6358 21.0728 4.123 22.6159 6.6273 22.6159 C 7.5789 22.6159 8.8146 22.2277 9.4927 21.5584 L 9.4927 18.4291 L 6.3868 18.4291 L 6.3868 19.6699 Z" fill="none"/>
			<path d="M 18.6438 12.6258 L 14.9905 12.6258 L 14.4783 12.6258 L 7.1921 12.6258 L 5.7901 12.6258 L 3.8715 12.6258 C 2.4372 12.6258 1.1811 11.8441 0.5122 10.6925 C 0.5122 10.6925 0.2342 10.1668 0 9.5304 L 0 11.4855 L 0 18.5107 L 0 19.5892 L 0 20.2249 C 0 22.8515 2.1778 25 4.8396 25 L 5.7901 25 L 7.3328 25 L 18.6438 25 L 23 18.8131 L 18.6438 12.6258 ZM 9.4927 21.5584 C 8.8146 22.2277 7.5789 22.6159 6.6273 22.6159 C 4.123 22.6159 2.6358 21.0728 2.6358 18.7203 C 2.6358 16.5514 4.1121 14.825 6.4525 14.825 C 7.546 14.825 8.2898 15.1057 8.9132 15.5913 L 8.3445 16.6488 C 7.9617 16.2928 7.2836 16.0658 6.6165 16.0658 C 5.1402 16.0658 4.0574 17.037 4.0574 18.7203 C 4.0574 20.3286 5.0963 21.3748 6.6494 21.3748 C 7.2399 21.3748 7.9507 21.1268 8.2351 20.857 L 8.2351 19.6699 L 6.3868 19.6699 L 6.3868 18.4291 L 9.4927 18.4291 L 9.4927 21.5584 ZM 15.2322 22.6159 C 12.9574 22.6159 11.2515 21.0728 11.2515 18.7203 C 11.2515 16.53 12.8811 14.825 15.2322 14.825 C 17.5067 14.825 19.224 16.3681 19.224 18.7203 C 19.224 20.9866 17.5067 22.6159 15.2322 22.6159 Z" fill="#3e9b34"/>
		</g>
	</g>
</svg>