<?xml version="1.0" standalone="no"?>
<!-- Generator: Adobe Fireworks 10, Export SVG Extension by Aaron Beall (http://fireworks.abeall.com) . Version: 0.6.1  -->
<!DOCTYPE svg PUBLIC "-//W3C//DTD SVG 1.1//EN" "http://www.w3.org/Graphics/SVG/1.1/DTD/svg11.dtd">
<svg id="Icons.fw-inter-calling" viewBox="0 0 25 25" style="background-color:#ffffff00" version="1.1"
	xmlns="http://www.w3.org/2000/svg" xmlns:xlink="http://www.w3.org/1999/xlink" xml:space="preserve"
	x="0px" y="0px" width="25px" height="25px"
>
	<g id="inter-calling">
		<path id="color2" d="M 12 2.4351 C 17.8435 2.4351 23.5818 6.2931 23.5818 13.9999 L 25 13.9999 C 25 5.3304 18.4473 1 12 1 L 12 2.4351 ZM 12 7.2404 C 15.4465 7.2404 18.782 9.4995 18.782 14 L 20.1853 14 C 20.1853 8.5374 16.0371 5.8148 12 5.8148 L 12 7.2404 ZM 12 11.5926 C 13.3298 11.5926 14.4075 12.6704 14.4075 14 L 15.8518 14 C 15.8518 11.8727 14.1274 10.1482 12 10.1482 L 12 11.5926 Z" fill="#ff8888"/>
		<path id="base2" d="M 14.8485 18.0517 C 15.9651 18.0438 19.0645 19.7474 19.3862 20.1532 C 20.0322 20.9683 20.0613 21.9954 19.5496 22.8111 C 18.6926 24.1772 16.8627 24.9961 16.1234 24.9999 C 14.2271 25.0098 9.0106 24.1713 4.674 19.2961 C -0.3741 13.6262 -0.2068 6.9164 0.161 6.1805 C 0.7559 5.0002 2.0614 4.0949 2.5975 3.7617 C 3.1587 3.4128 4.1337 3.4246 4.499 3.7383 C 5.8652 4.9112 6.9011 7.0682 6.7899 9.2605 C 6.759 9.8691 6.1158 10.559 4.6531 11.7662 C 5.1118 13.2084 6.3865 15.1389 7.408 16.2842 C 8.3518 17.3451 10.3549 19.1432 11.8185 19.8168 C 12.4244 19.2824 13.8009 18.0591 14.8485 18.0517 Z" fill="#ffffff"/>
	</g>
</svg>