<?xml version="1.0" standalone="no"?>
<!-- Generator: Adobe Fireworks 10, Export SVG Extension by Aaron Beall (http://fireworks.abeall.com) . Version: 0.6.1  -->
<!DOCTYPE svg PUBLIC "-//W3C//DTD SVG 1.1//EN" "http://www.w3.org/Graphics/SVG/1.1/DTD/svg11.dtd">
<svg id="Icons.fw-inter-top-up" viewBox="0 0 25 25" style="background-color:#ffffff00" version="1.1"
	xmlns="http://www.w3.org/2000/svg" xmlns:xlink="http://www.w3.org/1999/xlink" xml:space="preserve"
	x="0px" y="0px" width="25px" height="25px"
>
	<g id="inter-top-up">
		<path id="base21" d="M 23.4848 16.4286 L 23.4848 18.3981 L 22.4128 19.4762 L 2.5872 19.4762 L 1.5152 18.3981 L 1.5152 16.4286 L 23.4848 16.4286 ZM 22.4128 6.5238 L 23.4848 7.6019 L 23.4848 14.1429 L 1.5152 14.1429 L 1.5152 7.6019 L 2.5872 6.5238 L 22.4128 6.5238 ZM 22.7273 5 L 2.2727 5 L 1.7371 5.2232 L 0.2219 6.747 L 0 7.2857 L 0 18.7143 L 0.2219 19.253 L 1.7371 20.7768 L 2.2727 21 L 22.7273 21 L 23.2629 20.7768 L 24.7781 19.253 L 25 18.7143 L 25 7.2857 L 24.7781 6.747 L 23.2629 5.2232 L 22.7273 5 ZM 3.0303 9.9524 C 3.0303 11.0044 3.8783 11.8571 4.9242 11.8571 C 5.9702 11.8571 6.8182 11.0044 6.8182 9.9524 C 6.8182 8.9004 5.9702 8.0476 4.9242 8.0476 C 3.8783 8.0476 3.0303 8.9004 3.0303 9.9524 Z" fill="#004c8e"/>
	</g>
</svg>