<?xml version="1.0" standalone="no"?>
<!-- Generator: Adobe Fireworks 10, Export SVG Extension by Aaron Beall (http://fireworks.abeall.com) . Version: 0.6.1  -->
<!DOCTYPE svg PUBLIC "-//W3C//DTD SVG 1.1//EN" "http://www.w3.org/Graphics/SVG/1.1/DTD/svg11.dtd">
<svg id="Icons.fw-international-gift" viewBox="0 0 25 25" style="background-color:#ffffff00" version="1.1"
	xmlns="http://www.w3.org/2000/svg" xmlns:xlink="http://www.w3.org/1999/xlink" xml:space="preserve"
	x="0px" y="0px" width="25px" height="25px"
>
	<g>
		<path d="M 5.0276 2.2833 L 4.5242 3.0275 L 4.8098 3.453 L 4.8159 4.121 L 5.5067 4.7923 L 5.9203 3.8692 C 6.5922 3.8692 7.1367 3.3401 7.1367 2.6876 L 5.0276 2.2833 ZM 7.1179 7.7947 C 7.1179 8.4265 7.5661 8.9546 8.1702 9.0991 L 7.2992 7.4178 C 7.2992 7.4178 7.1179 7.1189 7.1179 7.3657 L 7.1179 7.7947 ZM 2.0091 7.7642 L 2.6657 7.7642 L 2.6657 6.9632 L 3.4487 6.9632 C 3.7706 6.9632 4.0313 6.7098 4.0313 6.3972 L 4.6988 6.3972 L 5.397 5.7187 L 5.397 5.09 L 4.7063 4.4189 L 4.0034 4.4189 L 4.0034 4.977 L 3.3223 4.977 C 2.9597 4.977 2.6659 4.6914 2.6659 4.3389 C 2.6659 3.9865 2.9597 3.7011 3.3223 3.7011 L 3.3223 3.047 L 2.715 3.047 C 3.8922 1.7928 5.5877 1.0056 7.4726 1.0056 C 8.8786 1.0056 10.1785 1.4458 11.237 2.1896 L 12.8146 2.1896 C 11.4569 0.8396 9.5639 0 7.4726 0 C 3.3523 0 0 3.2573 0 7.2611 C 0 10.7866 2.6001 13.7323 6.0345 14.3858 L 6.0345 13.3599 C 3.1712 12.7254 1.0349 10.2359 1.0349 7.2611 C 1.0349 6.98 1.0559 6.7037 1.0929 6.4325 L 2.0091 7.7642 ZM 4.7256 7.768 L 2.6657 7.7642 L 3.3715 8.4699 L 3.3741 9.0036 C 3.3741 9.418 3.7196 9.753 4.1457 9.753 L 4.1457 12.2256 L 4.7996 12.5365 L 4.7996 12.0661 L 5.9731 10.9256 L 5.9731 10.3755 C 6.3992 10.3755 6.7444 10.0397 6.7444 9.6261 L 6.7471 9.0921 L 6.0634 9.0921 L 4.7256 7.768 Z" fill="#ffffff"/>
		<path d="M 19.7388 7.594 C 19.1263 8.5163 17.6122 8.337 17.6122 8.337 C 17.6122 8.337 17.9936 7.0313 18.8094 6.6166 C 19.7051 6.1616 20.1719 6.9416 19.7388 7.594 ZM 21.7007 8.1 C 22.6571 6.4436 21.8409 4.2034 19.2307 4.437 C 16.1234 4.7144 16.3393 9.6128 16.3393 9.6128 C 16.3393 9.6128 20.7625 9.724 21.7007 8.1 ZM 11.2831 7.126 C 10.7493 6.3224 11.3239 5.3618 12.4272 5.9225 C 13.4319 6.4327 13.9021 8.0415 13.9021 8.0415 C 13.9021 8.0415 12.0374 8.2616 11.2831 7.126 ZM 11.9082 3.2382 C 8.6944 2.9507 7.6883 5.7091 8.8665 7.7498 C 10.022 9.7492 15.4693 9.6124 15.4693 9.6124 C 15.4693 9.6124 15.7353 3.5804 11.9082 3.2382 ZM 6.8966 12.5947 L 6.8966 13.7342 C 6.8966 14.241 7.0249 14.7095 7.3112 15.0862 L 14.6552 15.0862 L 14.6552 10.3448 L 9.0559 10.3448 C 7.8188 10.3448 6.8966 11.3572 6.8966 12.5947 ZM 17.2414 25 L 21.3825 25 C 22.9294 25 24.1379 23.368 24.1379 21.8211 L 24.1379 15.9483 L 17.2414 15.9483 L 17.2414 25 ZM 7.7586 21.9461 C 7.7586 23.4931 9.0244 25 10.5709 25 L 14.6552 25 L 14.6552 15.9483 L 7.7586 15.9483 L 7.7586 21.9461 ZM 22.8069 10.3448 L 17.2414 10.3448 L 17.2414 15.0862 L 24.5997 15.0862 C 24.8859 14.7095 25 14.241 25 13.7342 L 25 12.5947 C 25 11.3572 24.0441 10.3448 22.8069 10.3448 Z" fill="#ffffff"/>
	</g>
</svg>