<?xml version="1.0" standalone="no"?>
<!-- Generator: Adobe Fireworks 10, Export SVG Extension by Aaron Beall (http://fireworks.abeall.com) . Version: 0.6.1  -->
<!DOCTYPE svg PUBLIC "-//W3C//DTD SVG 1.1//EN" "http://www.w3.org/Graphics/SVG/1.1/DTD/svg11.dtd">
<svg id="Icons.fw-inter-airtime-top-up" viewBox="0 0 25 25" style="background-color:#ffffff00" version="1.1"
	xmlns="http://www.w3.org/2000/svg" xmlns:xlink="http://www.w3.org/1999/xlink" xml:space="preserve"
	x="0px" y="0px" width="25px" height="25px"
>
	<g id="inter-airtime-top-up">
		<path id="color3" d="M 5.3741 8.6643 L 3.0315 8.6601 L 3.8342 9.4472 L 3.8372 10.0425 C 3.8372 10.5047 4.2301 10.8784 4.7147 10.8784 L 4.7147 13.6362 L 5.4584 13.983 L 5.4584 13.4583 L 6.793 12.1863 L 6.793 11.5727 C 7.2775 11.5727 7.6702 11.1981 7.6702 10.7368 L 7.6732 10.1412 L 6.8956 10.1412 L 5.3741 8.6643 ZM 2.2849 8.6601 L 3.0315 8.6601 L 3.0315 7.7667 L 3.922 7.7667 C 4.2881 7.7667 4.5846 7.484 4.5846 7.1354 L 5.3436 7.1354 L 6.1377 6.3785 L 6.1377 5.6774 L 5.3523 4.9288 L 4.5529 4.9288 L 4.5529 5.5513 L 3.7783 5.5513 C 3.366 5.5513 3.0317 5.2327 3.0317 4.8396 C 3.0317 4.4465 3.366 4.1281 3.7783 4.1281 L 3.7783 3.3986 L 3.0876 3.3986 C 4.4264 1.9996 6.3546 1.1217 8.4983 1.1217 C 10.0973 1.1217 11.5756 1.6127 12.7794 2.4423 L 14.5735 2.4423 C 13.0294 0.9365 10.8766 0 8.4983 0 C 3.8124 0 0 3.6332 0 8.0989 C 0 12.5645 3.8124 16.1975 8.4983 16.1975 C 8.7659 16.1975 9.0304 16.1867 9.2916 16.1635 L 9.2916 15.036 C 9.031 15.063 8.7665 15.0762 8.4983 15.0762 C 4.4548 15.0762 1.177 11.9526 1.177 8.099 C 1.177 7.7854 1.2008 7.4772 1.2429 7.1747 L 2.2849 8.6601 ZM 8.0948 8.6941 C 8.0948 9.3988 8.6046 9.9879 9.2916 10.149 L 9.2916 7.7163 L 8.6174 7.7174 C 8.3286 7.7174 8.0948 7.9403 8.0948 8.2155 L 8.0948 8.6941 ZM 5.7177 2.5467 L 5.1451 3.3769 L 5.47 3.8515 L 5.4769 4.5965 L 6.2626 5.3453 L 6.7328 4.3156 C 7.4969 4.3156 8.1162 3.7255 8.1162 2.9977 L 5.7177 2.5467 Z" fill="#ff8888"/>
		<path id="base3" d="M 24.1613 3.3654 L 11.1062 3.3654 C 10.6589 3.3654 10.2941 3.8533 10.2941 4.2795 L 10.2941 24.226 C 10.2941 24.6524 10.6589 25 11.1062 25 L 24.1879 25 C 24.6351 25 25 24.6524 25 24.226 L 25 4.2795 C 25 3.8533 24.6351 3.3654 24.1879 3.3654 L 24.1613 3.3654 ZM 17.6648 24.4009 C 16.9188 24.4009 16.3108 23.8212 16.3108 23.1106 C 16.3108 22.3998 16.9188 21.8203 17.6648 21.8203 C 18.4105 21.8203 19.0188 22.3998 19.0188 23.1106 C 19.0188 23.8212 18.4105 24.4009 17.6648 24.4009 ZM 23.5294 20.4164 C 23.5294 20.822 23.1812 21.1538 22.7557 21.1538 L 12.5385 21.1538 C 12.1129 21.1538 11.7646 20.822 11.7646 20.4164 L 11.7646 5.5452 C 11.7646 5.1396 12.1129 4.8077 12.5385 4.8077 L 22.7557 4.8077 C 23.1812 4.8077 23.5294 5.1396 23.5294 5.5452 L 23.5294 20.4164 ZM 13.2354 19.7115 L 22.0588 19.7115 L 22.0588 6.25 L 13.2354 6.25 L 13.2354 19.7115 Z" fill="#ffffff"/>
	</g>
</svg>