<?xml version="1.0" standalone="no"?>
<!-- Generator: Adobe Fireworks 10, Export SVG Extension by Aaron Beall (http://fireworks.abeall.com) . Version: 0.6.1  -->
<!DOCTYPE svg PUBLIC "-//W3C//DTD SVG 1.1//EN" "http://www.w3.org/Graphics/SVG/1.1/DTD/svg11.dtd">
<svg id="Icons.fw-key" viewBox="0 0 16 16" style="background-color:#ffffff00" version="1.1"
	xmlns="http://www.w3.org/2000/svg" xmlns:xlink="http://www.w3.org/1999/xlink" xml:space="preserve"
	x="0px" y="0px" width="16px" height="16px"
>
	<g id="Layer%20132">
		<path id="base68" d="M 15.6582 4.9102 L 14.0781 3.3301 C 13.6914 2.9429 13.0566 2.3091 12.6689 1.9209 L 11.0889 0.3408 C 10.7021 -0.0459 10.0117 -0.1147 9.5566 0.189 L 5.2368 3.0688 C 4.7813 3.373 4.6089 4.0229 4.854 4.5132 L 5.9551 6.7158 C 5.9893 6.7832 6.0278 6.855 6.0698 6.9292 L 0.499 12.5 L -0.001 16 L 2.999 16 L 2.999 15 L 4.999 15 L 4.999 13 L 6.999 13 L 6.999 11 L 8.999 11 L 8.999 9.8887 C 9.0996 9.9473 9.1953 10.001 9.2832 10.0449 L 11.4863 11.1465 C 11.9766 11.3906 12.626 11.2178 12.9297 10.7637 L 15.8105 6.4438 C 16.1143 5.9878 16.0459 5.2979 15.6582 4.9111 L 15.6582 4.9102 ZM 2.354 13.3535 L 1.647 12.6465 L 6.5151 7.7788 L 7.2222 8.4858 L 2.354 13.3535 ZM 14.3281 6.6211 L 13.6211 7.3281 C 13.4268 7.522 13.1074 7.522 12.9141 7.3281 L 8.6709 3.085 C 8.4771 2.8911 8.4771 2.5718 8.6709 2.3779 L 9.3779 1.6709 C 9.5723 1.4771 9.8906 1.4771 10.085 1.6709 L 14.3281 5.9141 C 14.5215 6.1079 14.5215 6.4272 14.3281 6.6211 Z" fill="#ffffff"/>
	</g>
</svg>