<?xml version="1.0" standalone="no"?>
<!-- Generator: Adobe Fireworks 10, Export SVG Extension by Aaron Beall (http://fireworks.abeall.com) . Version: 0.6.1  -->
<!DOCTYPE svg PUBLIC "-//W3C//DTD SVG 1.1//EN" "http://www.w3.org/Graphics/SVG/1.1/DTD/svg11.dtd">
<svg id="Icons.fw-key2" viewBox="0 0 16 16" style="background-color:#ffffff00" version="1.1"
	xmlns="http://www.w3.org/2000/svg" xmlns:xlink="http://www.w3.org/1999/xlink" xml:space="preserve"
	x="0px" y="0px" width="16px" height="16px"
>
	<g id="Layer%20133">
		<path id="base69" d="M 11 0 C 8.2393 0 6 2.2388 6 5 C 6 5.313 6.0288 5.6191 6.084 5.916 L 0 12 L 0 15 C 0 15.5527 0.4482 16 1 16 L 2 16 L 2 15 L 4 15 L 4 13 L 6 13 L 6 11 L 8 11 L 9.2979 9.7021 C 9.8291 9.8945 10.4023 10 11 10 C 13.7607 10 16 7.7612 16 5 C 16 2.2388 13.7607 0 11 0 ZM 12.498 5.002 C 11.6699 5.002 10.998 4.3301 10.998 3.502 C 10.998 2.6738 11.6699 2.002 12.498 2.002 C 13.3262 2.002 13.998 2.6738 13.998 3.502 C 13.998 4.3301 13.3262 5.002 12.498 5.002 Z" fill="#ffffff"/>
	</g>
</svg>