<?xml version="1.0" standalone="no"?>
<!-- Generator: Adobe Fireworks 10, Export SVG Extension by Aaron Beall (http://fireworks.abeall.com) . Version: 0.6.1  -->
<!DOCTYPE svg PUBLIC "-//W3C//DTD SVG 1.1//EN" "http://www.w3.org/Graphics/SVG/1.1/DTD/svg11.dtd">
<svg id="Icons.fw-location" viewBox="0 0 25 25" style="background-color:#ffffff00" version="1.1"
	xmlns="http://www.w3.org/2000/svg" xmlns:xlink="http://www.w3.org/1999/xlink" xml:space="preserve"
	x="0px" y="0px" width="25px" height="25px"
>
	<g id="Layer%20150">
		<path d="M 8.2941 8.6212 C 8.2941 6.6607 9.9534 5.0714 12 5.0714 C 14.0466 5.0714 15.7059 6.6607 15.7059 8.6212 C 15.7059 10.5818 14.0466 12.1712 12 12.1712 C 9.9534 12.1712 8.2941 10.5818 8.2941 8.6212 ZM 3 8.6212 C 3 10.2975 3.5019 11.8619 4.3658 13.1856 L 4.4329 13.2453 L 12.1642 25 L 19.5665 13.2453 L 19.6393 13.1856 C 20.5033 11.8619 21 10.2975 21 8.6212 C 21 3.8599 16.9706 0 12 0 C 7.0294 0 3 3.8599 3 8.6212 Z" fill="#ffffff"/>
	</g>
</svg>