<?xml version="1.0" standalone="no"?>
<!-- Generator: Adobe Fireworks 10, Export SVG Extension by Aaron Beall (http://fireworks.abeall.com) . Version: 0.6.1  -->
<!DOCTYPE svg PUBLIC "-//W3C//DTD SVG 1.1//EN" "http://www.w3.org/Graphics/SVG/1.1/DTD/svg11.dtd">
<svg id="Icons.fw-local-time" viewBox="0 0 25 25" style="background-color:#ffffff00" version="1.1"
	xmlns="http://www.w3.org/2000/svg" xmlns:xlink="http://www.w3.org/1999/xlink" xml:space="preserve"
	x="0px" y="0px" width="25px" height="25px"
>
	<g id="local-time">
		<path id="base16" d="M 12.5 0.1979 C 6.3289 0.1979 0 4.2902 0 12.5 C 0 20.7098 6.3289 24.8021 12.5 24.8021 C 18.6711 24.8021 25 20.7098 25 12.5 C 25 4.2902 18.6711 0.1979 12.5 0.1979 ZM 12.5012 2.9674 C 17.7603 2.9674 22.0388 7.243 22.0388 12.4985 C 22.0388 17.7542 17.7603 22.0298 12.5012 22.0298 C 7.2422 22.0298 2.9639 17.7542 2.9639 12.4985 C 2.9639 7.243 7.2422 2.9674 12.5012 2.9674 ZM 21.6494 13.1093 C 21.6628 12.9075 21.6719 12.7042 21.6719 12.4985 C 21.6719 12.2928 21.6628 12.09 21.6494 11.8875 L 20.1919 11.8875 C 20.2078 12.0893 20.2185 12.2928 20.2185 12.4985 C 20.2185 12.7047 20.2078 12.9077 20.1919 13.1093 L 21.6494 13.1093 ZM 18.8542 8.1274 C 19.0854 8.4622 19.2913 8.8148 19.4678 9.1843 L 20.729 8.4565 C 20.5479 8.0897 20.344 7.7361 20.1169 7.3992 L 18.8542 8.1274 ZM 15.8176 5.5364 C 16.1875 5.7131 16.5405 5.919 16.875 6.1498 L 17.6045 4.8879 C 17.2666 4.6613 16.9128 4.4572 16.5457 4.276 L 15.8176 5.5364 ZM 12.2329 13.4998 L 16.0452 11.3007 L 15.3115 10.031 L 12.7698 11.4971 L 10.2021 7.0524 L 8.9314 7.7854 L 12.2329 13.4998 ZM 11.8899 4.8135 C 12.0918 4.7971 12.2954 4.7866 12.5012 4.7866 C 12.7073 4.7866 12.9106 4.7971 13.1128 4.8132 L 13.1128 3.3568 C 12.9102 3.3433 12.707 3.3341 12.5012 3.3341 C 12.2957 3.3341 12.092 3.3433 11.8899 3.3568 L 11.8899 4.8135 ZM 7.3984 4.8877 L 8.1274 6.1496 C 8.4622 5.919 8.8154 5.7131 9.1851 5.5364 L 8.4568 4.276 C 8.0898 4.4572 7.7361 4.6613 7.3984 4.8877 ZM 9.1851 19.4606 C 8.8152 19.2836 8.4619 19.0779 8.1274 18.8472 L 7.3984 20.1095 C 7.7358 20.336 8.0896 20.5397 8.4565 20.7208 L 9.1851 19.4606 ZM 4.2734 8.4565 L 5.5347 9.1843 C 5.7114 8.8148 5.9175 8.4622 6.1484 8.1274 L 4.8857 7.3992 C 4.6587 7.7361 4.4546 8.0897 4.2734 8.4565 ZM 4.7844 12.4985 C 4.7844 12.2928 4.7949 12.0893 4.8108 11.8875 L 3.3533 11.8875 C 3.3398 12.09 3.3306 12.2928 3.3306 12.4985 C 3.3306 12.7042 3.3398 12.9075 3.3533 13.1093 L 4.8108 13.1093 C 4.7949 12.9077 4.7844 12.7047 4.7844 12.4985 ZM 6.1482 16.8691 C 5.9172 16.5348 5.7114 16.1819 5.5347 15.8129 L 4.2734 16.5404 C 4.4546 16.9073 4.6587 17.2604 4.8855 17.5978 L 6.1482 16.8691 ZM 13.1128 20.1835 C 12.9106 20.2 12.7073 20.2106 12.5012 20.2106 C 12.2954 20.2106 12.092 20.2 11.8899 20.1835 L 11.8899 21.6401 C 12.092 21.6539 12.2957 21.6634 12.5012 21.6634 C 12.707 21.6634 12.9104 21.6539 13.1128 21.6401 L 13.1128 20.1835 ZM 17.6042 20.109 L 16.875 18.8472 C 16.5405 19.0779 16.1875 19.2836 15.8176 19.4606 L 16.5457 20.7205 C 16.9131 20.5397 17.2666 20.3364 17.6042 20.109 ZM 20.7292 16.5404 L 19.468 15.8129 C 19.2913 16.1822 19.0854 16.5348 18.8542 16.8693 L 20.1172 17.5978 C 20.3442 17.2604 20.5479 16.9073 20.7292 16.5404 Z" fill="#ffffff"/>
	</g>
</svg>