<?xml version="1.0" standalone="no"?>
<!-- Generator: Adobe Fireworks 10, Export SVG Extension by Aaron Beall (http://fireworks.abeall.com) . Version: 0.6.1  -->
<!DOCTYPE svg PUBLIC "-//W3C//DTD SVG 1.1//EN" "http://www.w3.org/Graphics/SVG/1.1/DTD/svg11.dtd">
<svg id="Icons.fw-mobile-top-up" viewBox="0 0 25 25" style="background-color:#ffffff00" version="1.1"
	xmlns="http://www.w3.org/2000/svg" xmlns:xlink="http://www.w3.org/1999/xlink" xml:space="preserve"
	x="0px" y="0px" width="25px" height="25px"
>
	<g id="mobile-top-up">
		<path id="base18" d="M 20.0306 0 L 4.9389 0 C 4.4216 0 4 0.5638 4 1.0563 L 4 24.1057 C 4 24.5983 4.4216 25 4.9389 25 L 20.0611 25 C 20.5784 25 21 24.5983 21 24.1057 L 21 1.0563 C 21 0.5638 20.5784 0 20.0611 0 L 20.0306 0 ZM 12.5205 24.3077 C 11.6581 24.3077 10.9552 23.6379 10.9552 22.8167 C 10.9552 21.9953 11.6581 21.3256 12.5205 21.3256 C 13.3825 21.3256 14.0857 21.9953 14.0857 22.8167 C 14.0857 23.6379 13.3825 24.3077 12.5205 24.3077 ZM 19.3001 19.7034 C 19.3001 20.1721 18.8975 20.5555 18.4056 20.5555 L 6.5944 20.5555 C 6.1025 20.5555 5.6999 20.1721 5.6999 19.7034 L 5.6999 2.5188 C 5.6999 2.0502 6.1025 1.6666 6.5944 1.6666 L 18.4056 1.6666 C 18.8975 1.6666 19.3001 2.0502 19.3001 2.5188 L 19.3001 19.7034 ZM 7.4 18.8889 L 17.6 18.8889 L 17.6 3.3333 L 7.4 3.3333 L 7.4 18.8889 Z" fill="#a00000"/>
	</g>
</svg>