<?xml version="1.0" standalone="no"?>
<!-- Generator: Adobe Fireworks 10, Export SVG Extension by Aaron Beall (http://fireworks.abeall.com) . Version: 0.6.1  -->
<!DOCTYPE svg PUBLIC "-//W3C//DTD SVG 1.1//EN" "http://www.w3.org/Graphics/SVG/1.1/DTD/svg11.dtd">
<svg id="Icons.fw-mobile-wallet" viewBox="0 0 25 25" style="background-color:#ffffff00" version="1.1"
	xmlns="http://www.w3.org/2000/svg" xmlns:xlink="http://www.w3.org/1999/xlink" xml:space="preserve"
	x="0px" y="0px" width="25px" height="25px"
>
	<g>
		<path d="M 14.5037 11.0708 L 14.5037 2.092 C 14.5037 0.9366 13.5626 0 12.4017 0 L 2.102 0 C 0.9411 0 0 0.9366 0 2.092 L 0 22.9079 C 0 24.0633 0.9411 25 2.102 25 L 12.4017 25 C 13.3673 25 14.1788 24.351 14.4252 23.468 L 12.1575 23.468 C 10.8668 23.468 9.8168 22.423 9.8168 21.1387 L 9.8168 21.1123 L 2.4523 21.1123 C 1.9879 21.1123 1.6116 20.7375 1.6116 20.2754 L 1.6116 3.8877 C 1.6116 3.4255 1.9879 3.0509 2.4523 3.0509 L 12.0514 3.0509 C 12.5157 3.0509 12.8922 3.4255 12.8922 3.8877 L 12.8922 11.0708 L 14.5037 11.0708 ZM 7.2519 21.7059 C 7.9768 21.7059 8.5646 22.291 8.5646 23.0125 C 8.5646 23.7343 7.9768 24.3191 7.2519 24.3191 C 6.5268 24.3191 5.939 23.7343 5.939 23.0125 C 5.939 22.291 6.5268 21.7059 7.2519 21.7059 ZM 9.3889 2.0049 L 5.1149 2.0049 L 5.1149 0.9588 L 9.3889 0.9588 L 9.3889 2.0049 Z" fill="#ffffff"/>
		<path d="M 17.2307 11.0804 C 17.2307 11.0804 15.9992 6.1317 10.5489 5.879 L 10.5489 4.3882 L 6.7831 7.4637 L 10.5489 10.5394 L 10.5489 8.9441 C 11.3233 8.8165 14.214 8.5583 17.2307 11.0804 Z" fill="#ffffff"/>
		<path d="M 3.9734 14.0665 L 9.8168 14.0665 L 9.8168 13.4003 C 9.8168 13.1267 9.8669 12.8654 9.9543 12.6213 L 3.9734 12.6213 C 3.7444 12.6213 3.5585 12.8062 3.5585 13.0343 L 3.5585 13.6537 C 3.5585 13.8817 3.7444 14.0665 3.9734 14.0665 Z" fill="#ffffff"/>
		<path d="M 9.8168 17.7472 L 3.9734 17.7472 C 3.7444 17.7472 3.5585 17.9321 3.5585 18.1601 L 3.5585 18.7794 C 3.5585 19.0076 3.7444 19.1925 3.9734 19.1925 L 9.8168 19.1925 L 9.8168 17.7472 Z" fill="#ffffff"/>
		<path d="M 3.9734 17.4838 L 9.8168 17.4838 L 9.8168 16.0386 L 3.9734 16.0386 C 3.7444 16.0386 3.5585 16.2234 3.5585 16.4516 L 3.5585 17.071 C 3.5585 17.299 3.7444 17.4838 3.9734 17.4838 Z" fill="#ffffff"/>
		<path d="M 3.9734 15.7752 L 9.8168 15.7752 L 9.8168 14.3299 L 3.9734 14.3299 C 3.7444 14.3299 3.5585 14.5148 3.5585 14.743 L 3.5585 15.3623 C 3.5585 15.5903 3.7444 15.7752 3.9734 15.7752 Z" fill="#ffffff"/>
		<g>
			<path d="M 24.6843 14.1074 L 23.3683 14.1074 L 23.3683 13.4003 L 23.3683 13.4 L 23.3683 12.143 C 23.3683 11.9695 23.227 11.8287 23.0526 11.8287 L 21.7894 11.8287 L 13.9996 11.8287 L 12.1575 11.8287 C 11.2854 11.8287 10.5784 12.5323 10.5784 13.4003 L 10.5784 21.1387 C 10.5784 22.0066 11.2854 22.71 12.1575 22.71 L 12.5259 22.71 L 21.7894 22.71 L 24.6843 22.71 C 24.8587 22.71 25 22.5694 25 22.3958 L 25 20.3831 L 22.3485 20.3831 C 21.5215 20.3831 20.8486 19.7133 20.8486 18.89 L 20.8486 17.9274 C 20.8486 17.1042 21.5215 16.4346 22.3485 16.4346 L 25 16.4346 L 25 14.4219 C 25 14.2483 24.8587 14.1074 24.6843 14.1074 ZM 22.4474 14.1074 L 12.2212 14.1074 C 11.8724 14.1074 11.5897 13.8259 11.5897 13.4788 L 11.5897 13.3742 C 11.5897 13.027 11.8724 12.7455 12.2212 12.7455 L 22.4474 12.7455 L 22.4474 14.1074 Z" fill="#ffffff"/>
			<path d="M 21.3223 17.9274 L 21.3223 18.89 C 21.3223 19.4532 21.7826 19.9116 22.3485 19.9116 L 25 19.9116 L 25 16.906 L 22.3485 16.906 C 21.7826 16.906 21.3223 17.3642 21.3223 17.9274 ZM 23.1777 17.682 C 23.5809 17.682 23.908 18.0075 23.908 18.4088 C 23.908 18.8102 23.5809 19.1357 23.1777 19.1357 C 22.7742 19.1357 22.4474 18.8102 22.4474 18.4088 C 22.4474 18.0075 22.7742 17.682 23.1777 17.682 Z" fill="#ffffff"/>
		</g>
	</g>
</svg>