<?xml version="1.0" standalone="no"?>
<!-- Generator: Adobe Fireworks 10, Export SVG Extension by Aaron Beall (http://fireworks.abeall.com) . Version: 0.6.1  -->
<!DOCTYPE svg PUBLIC "-//W3C//DTD SVG 1.1//EN" "http://www.w3.org/Graphics/SVG/1.1/DTD/svg11.dtd">
<svg id="Icons.fw-money-transfer" viewBox="0 0 25 25" style="background-color:#ffffff00" version="1.1"
	xmlns="http://www.w3.org/2000/svg" xmlns:xlink="http://www.w3.org/1999/xlink" xml:space="preserve"
	x="0px" y="0px" width="25px" height="25px"
>
	<g id="money-transfer">
		<path id="base5" d="M 23.2538 20 L 1.7462 20 C 0.7819 20 0 19.2153 0 18.2521 L 0 6.7446 C 0 5.7808 0.7819 5 1.7462 5 L 23.2538 5 C 24.2181 5 25 5.7808 25 6.7446 L 25 18.2556 C 25 19.2189 24.2181 20 23.2538 20 ZM 23.6842 8.0486 C 23.6842 7.0853 22.9023 6.3043 21.938 6.3043 L 3.062 6.3043 C 2.0977 6.3043 1.3158 7.0853 1.3158 8.0486 L 1.3158 16.9512 C 1.3158 17.9149 2.0977 18.6957 3.062 18.6957 L 21.938 18.6957 C 22.9023 18.6957 23.6842 17.9149 23.6842 16.9512 L 23.6842 8.0486 ZM 20.6222 17.3913 L 4.3778 17.3913 C 3.4133 17.3913 2.6316 16.9952 2.6316 16.0316 L 2.6316 9.353 C 2.6316 8.3897 3.4133 7.6087 4.3778 7.6087 L 20.6222 7.6087 C 21.5867 7.6087 22.3684 8.3897 22.3684 9.353 L 22.3684 15.6467 C 22.3684 16.6103 21.5867 17.3913 20.6222 17.3913 ZM 7.2368 12.1739 L 4.6052 12.1739 L 4.6052 13.4783 L 7.2368 13.4783 L 7.2368 12.1739 ZM 12.4165 8.8793 C 10.4055 8.8793 8.7717 10.5088 8.7717 12.5206 C 8.7717 14.5322 10.4055 16.1615 12.4165 16.1615 C 14.4313 16.1615 16.0614 14.5322 16.0614 12.5206 C 16.0614 10.5088 14.4313 8.8793 12.4165 8.8793 ZM 20.3948 12.1739 L 17.7632 12.1739 L 17.7632 13.4783 L 20.3948 13.4783 L 20.3948 12.1739 ZM 12.905 12.1487 C 13.7509 12.4468 13.8312 12.8453 13.8309 13.4912 C 13.8309 14.1232 13.3174 14.6552 12.5 14.7902 L 12.5 15.4348 L 11.8422 15.4348 L 11.8422 14.7603 C 11.3657 14.7388 10.9033 14.459 10.6332 14.31 L 11.0461 13.6172 C 11.3447 13.7804 11.8456 14.0231 12.3077 14.0231 C 12.7201 14.0231 12.9426 13.8198 12.9626 13.5438 C 12.9863 13.2208 12.7372 13.0388 12.0415 12.809 C 11.4379 12.6096 10.9491 12.2402 10.9491 11.5512 C 10.9491 10.9194 11.1945 10.4053 11.8422 10.2584 L 11.8422 9.5652 L 12.5 9.5652 L 12.5074 10.2584 C 12.9733 10.2794 13.6563 10.4808 13.9052 10.5942 L 13.6796 11.3886 C 13.502 11.3036 13.0707 11.1141 12.5603 11.0771 C 12.1262 11.0455 11.9249 11.1819 11.9249 11.5284 C 11.9249 11.8538 12.2936 11.9284 12.905 12.1487 Z" fill="#ffffff"/>
	</g>
</svg>