<?xml version="1.0" standalone="no"?>
<!-- Generator: Adobe Fireworks 10, Export SVG Extension by Aaron Beall (http://fireworks.abeall.com) . Version: 0.6.1  -->
<!DOCTYPE svg PUBLIC "-//W3C//DTD SVG 1.1//EN" "http://www.w3.org/Graphics/SVG/1.1/DTD/svg11.dtd">
<svg id="Icons.fw-move-service" viewBox="0 0 25 25" style="background-color:#ffffff00" version="1.1"
	xmlns="http://www.w3.org/2000/svg" xmlns:xlink="http://www.w3.org/1999/xlink" xml:space="preserve"
	x="0px" y="0px" width="25px" height="25px"
>
	<g id="movie-service">
		<path id="base41" d="M 12.5 0 C 5.5964 0 0 5.5964 0 12.5 C 0 19.4038 5.5964 25 12.5 25 C 19.4036 25 25 19.4038 25 12.5 C 25 5.5964 19.4036 0 12.5 0 ZM 17 16.03 L 17 14 L 14 14 L 14 17 L 16.1614 17 L 12.5374 21 L 9.0688 17 L 11 17 L 11 14 L 8 14 L 8 16.03 L 4.0161 12.4419 L 8 8.814 L 8 11 L 11 11 L 11 8 L 8.9133 8 L 12.5374 3.9998 L 16.0254 8 L 14 8 L 14 11 L 17 11 L 17 8.876 L 21.0049 12.5151 L 17 16.03 Z" fill="#757584"/>
	</g>
</svg>