<svg xmlns="http://www.w3.org/2000/svg" width="25" height="25" viewBox="0 0 25 25"><path d="M5.87,8.15A.51.51,0,0,1,5.51,8a4.1,4.1,0,0,1-.06-5.8h0l.06-.06a.52.52,0,0,1,.73.73,3.1,3.1,0,0,0,0,4.39h0a.52.52,0,0,1-.36.87Z" fill="none"/><path d="M4.46,10.26a.51.51,0,0,1-.36-.15,7,7,0,0,1,0-10l0,0h0a.52.52,0,0,1,.73.73,6,6,0,0,0,0,8.54.52.52,0,0,1-.36.87Z" fill="none"/><path d="M15,4.33h1a7,7,0,0,0-2-4.2.52.52,0,0,0-.73.73A6,6,0,0,1,15,4.33Z" fill="none"/><path d="M12.75,4.54a1.76,1.76,0,0,1,.83-.22h.18a4.07,4.07,0,0,0-1.13-2.19.52.52,0,0,0-.73.73A3,3,0,0,1,12.75,4.54Z" fill="none"/><path d="M23.31,8h0v-2a1.76,1.76,0,0,0-1.76-1.76h-8a1.76,1.76,0,0,0-1.76,1.76v17a1.76,1.76,0,0,0,1.76,1.76h8a1.76,1.76,0,0,0,1.76-1.76V9.21h0ZM13.57,5.5h8a.59.59,0,0,1,.59.59V8H13v-2A.59.59,0,0,1,13.57,5.5Zm4,17.83a.59.59,0,1,1,.59-.59A.59.59,0,0,1,17.56,23.33Zm4.57-2.74H13V9.21h9.15Z" fill="none"/><path d="M11.81,10.69,10.75,7.17a.59.59,0,0,0-.16-.25,2.42,2.42,0,1,0-3.08-.06A.59.59,0,0,0,7.43,7L1.71,24.28a.59.59,0,0,0,1.11.37h0l.9-2.74,8.09-5.12ZM8.52,7.41a2.24,2.24,0,0,0,1.1,0,.55.55,0,0,0,0,.1L10.05,9,7.41,10.72Zm-1.7,5.15,3.62-2.43,1.35,4.5-5-2.05ZM4.31,20.18l2.14-6.45,4.9,2Z" fill="none"/></svg>
