<?xml version="1.0" standalone="no"?>
<!-- Generator: Adobe Fireworks 10, Export SVG Extension by Aaron Beall (http://fireworks.abeall.com) . Version: 0.6.1  -->
<!DOCTYPE svg PUBLIC "-//W3C//DTD SVG 1.1//EN" "http://www.w3.org/Graphics/SVG/1.1/DTD/svg11.dtd">
<svg id="Icons.fw-my-account" viewBox="0 0 25 25" style="background-color:#ffffff00" version="1.1"
	xmlns="http://www.w3.org/2000/svg" xmlns:xlink="http://www.w3.org/1999/xlink" xml:space="preserve"
	x="0px" y="0px" width="25px" height="25px"
>
	<g id="my-account">
		<path id="base19" d="M 17.4119 15.8408 L 17.4036 15.938 C 17.4027 15.9419 17.4027 15.9458 17.4016 15.9489 C 17.3275 16.4202 16.9083 16.7814 16.4029 16.7814 L 16.4029 16.7825 L 16.1021 16.7825 C 16.0878 16.7814 16.0734 16.7814 16.0589 16.7814 C 16.0445 16.7814 16.03 16.7814 16.0157 16.7825 C 15.6923 16.8021 15.4298 17.0445 15.3895 17.3547 C 15.3866 17.3757 15.3844 17.3968 15.3844 17.4186 L 14.8438 23.9964 L 14.8283 24.1928 C 14.7439 24.6521 14.3309 25 13.8347 25 L 11.1687 25 C 10.665 25 10.2469 24.6412 10.1708 24.1714 L 10.1585 24.0182 L 9.6177 17.4286 C 9.6168 17.3999 9.6145 17.3715 9.6094 17.3427 C 9.5652 17.0386 9.3057 16.8021 8.9855 16.7825 C 8.9709 16.7814 8.9577 16.7814 8.9422 16.7814 C 8.9279 16.7814 8.9134 16.7814 8.8988 16.7825 L 8.5931 16.7825 L 8.5931 16.7814 C 8.0998 16.7814 7.6891 16.4372 7.6004 15.9829 L 7.5829 15.7939 L 7 9.5494 C 7 8.713 7.6982 8.0348 8.5593 8.0348 L 16.4409 8.0348 C 17.3018 8.0348 18 8.713 18 9.5494 L 17.4119 15.8408 ZM 12.5002 6.707 C 10.594 6.707 9.0493 5.2053 9.0493 3.3541 C 9.0493 1.502 10.594 0 12.5002 0 C 14.4062 0 15.9518 1.502 15.9518 3.3541 C 15.9518 5.2053 14.4062 6.707 12.5002 6.707 Z" fill="#a00000"/>
	</g>
</svg>