<?xml version="1.0" encoding="utf-8"?>
<!-- Generator: Adobe Illustrator 19.0.1, SVG Export Plug-In . SVG Version: 6.00 Build 0)  -->
<svg version="1.1" id="Layer_1" xmlns="http://www.w3.org/2000/svg" xmlns:xlink="http://www.w3.org/1999/xlink" x="0px" y="0px"
	 viewBox="0 0 135 135" style="enable-background:new 0 0 135 135;" xml:space="preserve">
<style type="text/css">
	.st0{fill:#FFFFFF;}
	.st1{fill:#E21B23;}
</style>
<path class="st0" d="M106,34.3H34.4c-1.6,0-3,1.3-3,3v3c0-0.8-0.7-1.5-1.5-1.5c-0.8,0-1.5,0.7-1.5,1.5v4.5c0-0.8-0.7-1.5-1.5-1.5
	c-0.8,0-1.5,0.7-1.5,1.5v1.5c0,0,0,1.2,0,3.1c0,11.1,0,48.1,0,50.6c0,3,3,3,3,3H106c1.6,0,3-1.3,3-3V37.3
	C109,35.6,107.7,34.3,106,34.3z M31.4,99.9c-3,0-3-3-3-3v-1.5c0,0,0,3,3,3V99.9z M53.8,96.9H38.8c-0.8,0-1.5-0.7-1.5-1.5
	c0-0.8,0.7-1.5,1.5-1.5h14.9c0.8,0,1.5,0.7,1.5,1.5C55.3,96.3,54.6,96.9,53.8,96.9z M53.8,91H38.8c-0.8,0-1.5-0.7-1.5-1.5
	c0-0.8,0.7-1.5,1.5-1.5h14.9c0.8,0,1.5,0.7,1.5,1.5C55.3,90.3,54.6,91,53.8,91z M53.8,85H38.8c-0.8,0-1.5-0.7-1.5-1.5
	c0-0.8,0.7-1.5,1.5-1.5h14.9c0.8,0,1.5,0.7,1.5,1.5C55.3,84.3,54.6,85,53.8,85z M53.8,79H38.8c-0.8,0-1.5-0.7-1.5-1.5
	c0-0.8,0.7-1.5,1.5-1.5h14.9c0.8,0,1.5,0.7,1.5,1.5C55.3,78.4,54.6,79,53.8,79z M53.8,73.1H38.8c-0.8,0-1.5-0.7-1.5-1.5
	c0-0.8,0.7-1.5,1.5-1.5h14.9c0.8,0,1.5,0.7,1.5,1.5C55.3,72.4,54.6,73.1,53.8,73.1z M53.8,67.1H38.8c-0.8,0-1.5-0.7-1.5-1.5
	c0-0.8,0.7-1.5,1.5-1.5h14.9c0.8,0,1.5,0.7,1.5,1.5C55.3,66.4,54.6,67.1,53.8,67.1z M53.8,61.1H38.8c-0.8,0-1.5-0.7-1.5-1.5
	c0-0.8,0.7-1.5,1.5-1.5h14.9c0.8,0,1.5,0.7,1.5,1.5C55.3,60.5,54.6,61.1,53.8,61.1z M77.6,96.9H62.7c-0.8,0-1.5-0.7-1.5-1.5
	c0-0.8,0.7-1.5,1.5-1.5h14.9c0.8,0,1.5,0.7,1.5,1.5C79.1,96.3,78.5,96.9,77.6,96.9z M77.6,91H62.7c-0.8,0-1.5-0.7-1.5-1.5
	c0-0.8,0.7-1.5,1.5-1.5h14.9c0.8,0,1.5,0.7,1.5,1.5C79.1,90.3,78.5,91,77.6,91z M77.6,85H62.7c-0.8,0-1.5-0.7-1.5-1.5
	c0-0.8,0.7-1.5,1.5-1.5h14.9c0.8,0,1.5,0.7,1.5,1.5C79.1,84.3,78.5,85,77.6,85z M77.6,79H62.7c-0.8,0-1.5-0.7-1.5-1.5
	c0-0.8,0.7-1.5,1.5-1.5h14.9c0.8,0,1.5,0.7,1.5,1.5C79.1,78.4,78.5,79,77.6,79z M79.1,73.1H61.2V58.1h17.9V73.1z M101.5,96.9H86.6
	c-0.8,0-1.5-0.7-1.5-1.5c0-0.8,0.7-1.5,1.5-1.5h14.9c0.8,0,1.5,0.7,1.5,1.5C103,96.3,102.4,96.9,101.5,96.9z M101.5,91H86.6
	c-0.8,0-1.5-0.7-1.5-1.5c0-0.8,0.7-1.5,1.5-1.5h14.9c0.8,0,1.5,0.7,1.5,1.5C103,90.3,102.4,91,101.5,91z M101.5,85H86.6
	c-0.8,0-1.5-0.7-1.5-1.5c0-0.8,0.7-1.5,1.5-1.5h14.9c0.8,0,1.5,0.7,1.5,1.5C103,84.3,102.4,85,101.5,85z M101.5,79H86.6
	c-0.8,0-1.5-0.7-1.5-1.5c0-0.8,0.7-1.5,1.5-1.5h14.9c0.8,0,1.5,0.7,1.5,1.5C103,78.4,102.4,79,101.5,79z M103,73.1H85.1V58.1H103
	V73.1z M103,52.2H37.3V40.2H103V52.2z"/>
<path class="st1" d="M67.5,0.3c-0.5,0-0.9,0-1.4,0C48.2,0.6,31.5,8,19,20.9c-12.5,13-19.1,30-18.8,47.9
	c0.7,36.3,30.9,65.9,67.2,65.9c0.5,0,0.9,0,1.3,0c37.1-0.7,66.6-31.5,65.9-68.5C134,29.8,103.8,0.3,67.5,0.3z M66.4,9.5
	c0.4,0,0.8,0,1.2,0c31.5,0,57.4,25.3,58,56.9c0.2,7.7-1.2,15.1-3.8,21.8L18.2,37C28.2,20.8,46,9.9,66.4,9.5z M68.7,125.5
	c-0.4,0-0.8,0-1.2,0c-31.5,0-57.4-25.3-58-56.9c-0.2-8.2,1.4-16,4.3-23.2l103.8,51.3C107.7,113.6,89.6,125.1,68.7,125.5z"/>
</svg>
