<?xml version="1.0" standalone="no"?>
<!-- Generator: Adobe Fireworks 10, Export SVG Extension by Aaron Beall (http://fireworks.abeall.com) . Version: 0.6.1  -->
<!DOCTYPE svg PUBLIC "-//W3C//DTD SVG 1.1//EN" "http://www.w3.org/Graphics/SVG/1.1/DTD/svg11.dtd">
<svg id="Icons.fw-next-step" viewBox="0 0 25 25" style="background-color:#ffffff00" version="1.1"
	xmlns="http://www.w3.org/2000/svg" xmlns:xlink="http://www.w3.org/1999/xlink" xml:space="preserve"
	x="0px" y="0px" width="25px" height="25px"
>
	<g id="base">
		<path d="M 10.5263 18.4063 C 9.7996 18.4063 9.2105 18.9938 9.2105 19.7188 L 9.2105 20.375 C 9.2105 21.0999 9.7996 21.6875 10.5263 21.6875 L 23.6842 21.6875 C 24.4109 21.6875 25 21.0999 25 20.375 L 25 19.7188 C 25 18.9938 24.4109 18.4063 23.6842 18.4063 L 10.5263 18.4063 ZM 10.5263 11.1875 C 9.7996 11.1875 9.2105 11.7751 9.2105 12.5 L 9.2105 13.1563 C 9.2105 13.8812 9.7996 14.4688 10.5263 14.4688 L 23.6842 14.4688 C 24.4109 14.4688 25 13.8812 25 13.1563 L 25 12.5 C 25 11.7751 24.4109 11.1875 23.6842 11.1875 L 10.5263 11.1875 ZM 10.5263 3.9688 C 9.7996 3.9688 9.2105 4.5563 9.2105 5.2813 L 9.2105 5.9375 C 9.2105 6.6624 9.7996 7.25 10.5263 7.25 L 23.6842 7.25 C 24.4109 7.25 25 6.6624 25 5.9375 L 25 5.2813 C 25 4.5563 24.4109 3.9688 23.6842 3.9688 L 10.5263 3.9688 ZM 0.6579 20.0469 C 0.6579 18.7784 1.6888 17.75 2.9605 17.75 C 4.2322 17.75 5.2632 18.7784 5.2632 20.0469 C 5.2632 21.3154 4.2322 22.3438 2.9605 22.3438 C 1.6888 22.3438 0.6579 21.3154 0.6579 20.0469 ZM 0 20.0469 C 0 21.6778 1.3255 23 2.9605 23 C 4.5956 23 5.9211 21.6778 5.9211 20.0469 C 5.9211 18.4159 4.5956 17.0938 2.9605 17.0938 C 1.3255 17.0938 0 18.4159 0 20.0469 ZM 0.6579 12.8281 C 0.6579 11.5596 1.6888 10.5313 2.9605 10.5313 C 4.2322 10.5313 5.2632 11.5596 5.2632 12.8281 C 5.2632 14.0966 4.2322 15.125 2.9605 15.125 C 1.6888 15.125 0.6579 14.0966 0.6579 12.8281 ZM 0 12.8281 C 0 14.4591 1.3255 15.7813 2.9605 15.7813 C 4.5956 15.7813 5.9211 14.4591 5.9211 12.8281 C 5.9211 11.1972 4.5956 9.875 2.9605 9.875 C 1.3255 9.875 0 11.1972 0 12.8281 ZM 0.6579 5.6094 C 0.6579 4.3409 1.6888 3.3125 2.9605 3.3125 C 4.2322 3.3125 5.2632 4.3409 5.2632 5.6094 C 5.2632 6.8779 4.2322 7.9063 2.9605 7.9063 C 1.6888 7.9063 0.6579 6.8779 0.6579 5.6094 ZM 0 5.6094 C 0 7.2403 1.3255 8.5625 2.9605 8.5625 C 4.5956 8.5625 5.9211 7.2403 5.9211 5.6094 C 5.9211 3.9784 4.5956 2.6563 2.9605 2.6563 C 1.3255 2.6563 0 3.9784 0 5.6094 Z" fill="#ffffff"/>
		<path d="M 0.6579 4.625 L 0.6579 5.2813 L 1.3158 5.2813 L 1.3158 5.9375 L 1.9737 5.9375 L 1.9737 6.5938 L 2.6316 6.5938 L 2.6316 7.25 L 3.2895 7.25 L 3.2895 6.5938 L 3.9474 6.5938 L 3.9474 5.9375 L 4.6053 5.9375 L 4.6053 5.2813 L 5.2632 5.2813 L 5.2632 4.625 L 5.9211 4.625 L 5.9211 3.9688 L 6.5789 3.9688 L 6.5789 3.3125 L 7.2368 3.3125 L 7.2368 2.6563 L 6.5789 2.6563 L 6.5789 2 L 5.9211 2 L 5.9211 2.6563 L 5.2632 2.6563 L 5.2632 3.3125 L 4.6053 3.3125 L 4.6053 3.9688 L 3.9474 3.9688 L 3.9474 4.625 L 3.2895 4.625 L 3.2895 5.2813 L 2.6316 5.2813 L 2.6316 4.625 L 1.9737 4.625 L 1.9737 3.9688 L 1.3158 3.9688 L 1.3158 3.3125 L 0.6579 3.3125 L 0.6579 3.9688 L 0 3.9688 L 0 4.625 L 0.6579 4.625 Z" fill="#ffffff"/>
	</g>
</svg>