<?xml version="1.0" standalone="no"?>
<!-- Generator: Adobe Fireworks 10, Export SVG Extension by Aaron Beall (http://fireworks.abeall.com) . Version: 0.6.1  -->
<!DOCTYPE svg PUBLIC "-//W3C//DTD SVG 1.1//EN" "http://www.w3.org/Graphics/SVG/1.1/DTD/svg11.dtd">
<svg id="Icons.fw-number-to-top-up" viewBox="0 0 25 25" style="background-color:#ffffff00" version="1.1"
	xmlns="http://www.w3.org/2000/svg" xmlns:xlink="http://www.w3.org/1999/xlink" xml:space="preserve"
	x="0px" y="0px" width="25px" height="25px"
>
	<g id="number-to-top-up">
		<path id="base34" d="M 18.0193 6.259 L 15.9604 6.259 L 17.0195 3.5817 L 19.083 3.5817 L 18.0193 6.259 ZM 12.0435 6.259 L 12.0435 7.1514 L 14.0156 7.1514 L 12.9565 9.8287 L 14.5478 9.8287 L 15.6088 7.1514 L 17.6677 7.1514 L 16.6087 9.8287 L 18.1999 9.8287 L 19.261 7.1514 L 21.1739 7.1514 L 21.1739 6.259 L 19.6125 6.259 L 20.6717 3.5817 L 23 3.5817 L 23 2.6893 L 21.0278 2.6893 L 22.087 0.012 L 20.4957 0.012 L 19.4345 2.6893 L 17.3756 2.6893 L 18.4348 0.012 L 16.8435 0.012 L 15.7824 2.6893 L 13.8696 2.6893 L 13.8696 3.5817 L 15.4308 3.5817 L 14.3671 6.259 L 12.0435 6.259 ZM 10.1514 24.122 C 9.3059 24.122 8.6168 23.4644 8.6168 22.6582 C 8.6168 21.8521 9.3059 21.1945 10.1514 21.1945 C 10.9965 21.1945 11.6859 21.8521 11.6859 22.6582 C 11.6859 23.4644 10.9965 24.122 10.1514 24.122 ZM 14.67 0 L 2.9204 0.012 C 2.4134 0.012 2 0.8133 2 1.2968 L 2 24.122 C 2 24.6056 2.4134 25 2.9204 25 L 16.6013 25 C 17.1082 25 17.5217 24.6056 17.5217 24.122 L 17.5217 10.7211 L 16.6087 10.7211 L 16.6087 19.7012 C 16.6087 20.1614 16.2139 20.5379 15.7318 20.5379 L 3.79 20.5379 C 3.3077 20.5379 2.913 20.1614 2.913 19.7012 L 2.913 2.6335 C 2.913 2.1733 3.3077 1.7968 3.79 1.7968 L 12.8743 1.7968 L 14.67 0 ZM 4.7391 18.753 L 14.7826 18.753 L 14.7826 10.7211 L 12.0435 10.7211 L 12.0473 7.9933 L 11.1304 8.0438 L 11.1513 4.9769 L 12.983 4.5099 L 12.993 3.5817 L 4.7391 3.5817 L 4.7391 18.753 Z" fill="#ffffff"/>
	</g>
</svg>