<?xml version="1.0" standalone="no"?>
<!-- Generator: Adobe Fireworks 10, Export SVG Extension by Aaron Beall (http://fireworks.abeall.com) . Version: 0.6.1  -->
<!DOCTYPE svg PUBLIC "-//W3C//DTD SVG 1.1//EN" "http://www.w3.org/Graphics/SVG/1.1/DTD/svg11.dtd">
<svg id="Icons.fw-offer" viewBox="0 0 25 24" style="background-color:#ffffff00" version="1.1"
	xmlns="http://www.w3.org/2000/svg" xmlns:xlink="http://www.w3.org/1999/xlink" xml:space="preserve"
	x="0px" y="0px" width="25px" height="24px"
>
	<g id="Layer%20139">
		<path d="M 23.0213 10.8172 C 23.5369 9.6761 23.8842 10.0222 24.3841 9.3801 C 26.2003 7.0471 20.1255 9.0279 21.6638 5.4396 C 22.8409 2.6941 20.6652 4.2028 19.2003 4.0371 C 17.7551 3.8735 17.8653 2.5587 17.6364 1.5011 C 17.4408 0.5962 16.9646 0.6094 16.1864 1.1544 C 15.5474 1.602 15.3237 2.282 14.1192 2.113 C 13.0978 1.9697 12.9747 1.2019 12.5761 0.5846 C 12.0181 -0.2795 11.3357 -0.1435 10.8718 0.7153 C 10.5312 1.346 10.4378 2.1554 9.5224 2.395 C 8.7926 2.586 8.2792 2.3041 7.763 1.9652 C 7.6056 1.8618 7.212 1.5702 7.008 1.4962 C 5.5736 0.9768 5.9616 2.9784 5.9584 3.2877 C 5.9307 5.9574 2.8885 4.4572 2.2288 4.9252 C 1.4047 6.0279 3.2983 6.7047 2.7591 8.144 C 2.3791 9.1584 1.5329 9.0861 0.8005 9.3616 C -0.22 9.7452 -0.2426 10.3434 0.6061 10.9668 C 1.2313 11.4261 2.015 11.5674 1.9733 12.7535 C 1.9451 13.5543 1.5096 13.8487 1.0973 14.1232 C 0.1059 14.7839 -0.0704 15.6424 1.3093 15.9529 C 2.1298 16.1373 3.0084 16.1043 3.379 16.952 C 3.8681 18.0716 2.9793 18.7924 2.9278 19.3545 C 2.7212 21.608 6.7572 18.1763 7.1557 21.4532 C 7.6131 25.2154 8.8346 21.7299 10.6376 21.8252 C 12.2917 21.9128 11.8696 23.4619 13.0865 23.9965 C 14.4912 24.1349 14.1692 20.0659 17.1871 21.9922 C 17.3358 22.0872 17.7601 22.3852 17.9502 22.4531 C 19.4033 22.9717 18.9894 20.7449 18.9903 20.6652 C 19.0225 18.0218 22.0972 19.4844 22.7246 19.0265 C 23.5198 17.8825 21.6635 17.2408 22.1759 15.7955 C 22.673 14.3932 24.2417 15.1102 25 13.9093 C 24.5344 12.303 22.781 13.0889 23.0213 10.8172 L 23.0213 10.8172 ZM 11.3823 9.1133 L 13.6177 9.1133 L 13.6177 18.8729 L 11.3823 18.8729 L 11.3823 9.1133 L 11.3823 9.1133 ZM 11.3823 5.1272 L 13.6177 5.1272 L 13.6177 7.2532 L 11.3823 7.2532 L 11.3823 5.1272 Z" fill="#ffffff"/>
	</g>
</svg>