<?xml version="1.0" encoding="utf-8"?>
<!-- Generator: Adobe Illustrator 19.0.1, SVG Export Plug-In . SVG Version: 6.00 Build 0)  -->
<svg version="1.1" id="Layer_1" xmlns="http://www.w3.org/2000/svg" xmlns:xlink="http://www.w3.org/1999/xlink" x="0px" y="0px"
	 viewBox="0 0 135 135" style="enable-background:new 0 0 135 135;" xml:space="preserve">
<style type="text/css">
	.st0{fill:#FFFFFF;}
	.st1{fill:#E21B23;}
</style>
<path class="st0" d="M75.4,91.2c4.1,1.3,8.9-2.2,10.7-7.8c1.8-5.6-0.1-11.2-4.2-12.6c-4.1-1.3-8.9,2.2-10.7,7.8
	C69.4,84.3,71.3,89.9,75.4,91.2z M95.4,85.5c-3.7-1.2-8.2,2.2-9.9,7.6c-1.7,5.4-0.1,10.7,3.6,11.9c3.7,1.2,8.2-2.2,9.9-7.6
	C100.8,92,99.1,86.7,95.4,85.5z M63.5,91.6c3.9-1.2,5.5-6.8,3.6-12.6c-1.9-5.8-6.7-9.5-10.6-8.3c-3.9,1.2-5.5,6.8-3.6,12.6
	C54.9,89.1,59.6,92.8,63.5,91.6z M53.5,93c-1.9-5.5-6.4-9-10.1-7.9c-3.7,1.1-5.3,6.5-3.4,12c1.9,5.5,6.4,9,10.1,7.9
	C53.8,103.8,55.3,98.5,53.5,93z M69.7,92.8h-0.8c0,0-16,2.6-15.9,21c0,10.8,8.9,6.2,8.9,6.2s3.8-3.8,7-3.8l0.8-0.1
	c3.2,0,7,3.8,7,3.8s9,4.8,8.9-6.1C85.7,95.5,69.7,92.8,69.7,92.8z M99.9,46c2,2.3,6.2,1.9,9.3-0.8c3.1-2.7,4-6.8,2-9.1
	c-2-2.3-6.2-1.9-9.3,0.8C98.8,39.6,97.9,43.7,99.9,46z M114.1,49.7c-1.8-2.1-5.7-1.6-8.7,1c-3,2.6-3.9,6.4-2.1,8.5
	c1.8,2.1,5.7,1.6,8.7-1C115,55.6,115.9,51.8,114.1,49.7z M92.6,41.9c2.8,0.7,5.8-2.1,6.7-6.3c0.9-4.2-0.6-8.2-3.4-8.9
	c-2.8-0.7-5.8,2.1-6.7,6.3C88.3,37.3,89.8,41.2,92.6,41.9z M76.4,36.7c-0.9,4,0.6,7.8,3.2,8.4c2.7,0.7,5.5-2,6.4-6
	c0.9-4-0.6-7.8-3.2-8.4C80.2,30,77.3,32.7,76.4,36.7z M96.4,44.1l-0.5-0.3c0,0-10.8-3.8-17.4,7.3c-3.9,6.5,3.1,7.1,3.1,7.1
	s3.6-0.9,5.5,0.3l0.5,0.3c1.9,1.1,2.8,4.8,2.8,4.8s3.9,5.7,7.8-0.8C104.8,51.9,96.4,44.1,96.4,44.1z M49.5,42.1c2-0.6,3-3.2,2.3-6
	c-0.8-2.7-3-4.5-5-3.9c-2,0.6-3,3.2-2.3,6C45.3,41,47.5,42.7,49.5,42.1z M58.7,44c1.8-0.5,2.7-3,2-5.7c-0.7-2.6-2.8-4.3-4.6-3.8
	c-1.8,0.5-2.7,3-2,5.7C54.8,42.8,56.9,44.5,58.7,44z M38.4,44.9c2.3,1.8,5.2,2,6.5,0.5c1.3-1.5,0.4-4.2-1.9-6
	c-2.3-1.8-5.2-2-6.5-0.5C35.2,40.4,36.1,43.1,38.4,44.9z M43,54.4c1.2-1.4,0.4-4-1.8-5.7c-2.2-1.7-5-1.9-6.2-0.5
	c-1.2,1.4-0.4,4,1.8,5.7C39,55.6,41.8,55.8,43,54.4z M53.8,53.6c1.3-0.8,3.8-0.3,3.8-0.3s4.7-0.7,1.8-5c-4.8-7.4-12.1-4.5-12.1-4.5
	L47,44c0,0-5.6,5.5-0.6,12.9c2.8,4.4,5.3,0.2,5.3,0.2s0.5-2.5,1.8-3.3L53.8,53.6z M73,14.7c0.9,1,2.8,0.9,4.2-0.4
	c1.4-1.2,1.8-3.1,0.9-4.1c-0.9-1-2.8-0.9-4.2,0.4C72.5,11.8,72.1,13.7,73,14.7z M75.5,16.9c-1.4,1.2-1.8,2.9-1,3.9
	c0.8,0.9,2.6,0.7,4-0.4c1.4-1.2,1.8-2.9,1-3.9C78.6,15.5,76.9,15.7,75.5,16.9z M69.7,12.9c1.3,0.3,2.6-1,3.1-2.9
	c0.4-1.9-0.3-3.7-1.5-4c-1.3-0.3-2.6,1-3.1,2.9C67.8,10.8,68.5,12.6,69.7,12.9z M63.9,14.3c1.2,0.3,2.5-0.9,2.9-2.7
	c0.4-1.8-0.3-3.5-1.5-3.8c-1.2-0.3-2.5,0.9-2.9,2.7C62,12.3,62.7,14,63.9,14.3z M72.2,22.4c3.1-5-0.8-8.5-0.8-8.5l-0.2-0.1
	c0,0-4.9-1.7-7.9,3.3c-1.8,2.9,1.4,3.2,1.4,3.2s1.6-0.4,2.5,0.1l0.2,0.1c0.9,0.5,1.3,2.2,1.3,2.2S70.5,25.4,72.2,22.4z"/>
<path class="st1" d="M67.5,0.3c-0.5,0-0.9,0-1.4,0C48.2,0.6,31.5,8,19,20.9c-12.5,13-19.1,30-18.8,47.9
	c0.7,36.3,30.9,65.9,67.2,65.9c0.5,0,0.9,0,1.3,0c37.1-0.7,66.6-31.5,65.9-68.5C134,29.8,103.8,0.3,67.5,0.3z M66.4,9.5
	c0.4,0,0.8,0,1.2,0c31.5,0,57.4,25.3,58,56.9c0.2,7.7-1.2,15.1-3.8,21.8L18.2,37C28.2,20.8,46,9.9,66.4,9.5z M68.7,125.5
	c-0.4,0-0.8,0-1.2,0c-31.5,0-57.4-25.3-58-56.9c-0.2-8.2,1.4-16,4.3-23.2l103.8,51.3C107.7,113.6,89.6,125.1,68.7,125.5z"/>
</svg>
