<?xml version="1.0" standalone="no"?>
<!-- Generator: Adobe Fireworks 10, Export SVG Extension by Aaron Beall (http://fireworks.abeall.com) . Version: 0.6.1  -->
<!DOCTYPE svg PUBLIC "-//W3C//DTD SVG 1.1//EN" "http://www.w3.org/Graphics/SVG/1.1/DTD/svg11.dtd">
<svg id="Icons.fw-phone" viewBox="0 0 25 25" style="background-color:#ffffff00" version="1.1"
	xmlns="http://www.w3.org/2000/svg" xmlns:xlink="http://www.w3.org/1999/xlink" xml:space="preserve"
	x="0px" y="0px" width="25px" height="25px"
>
	<g id="Layer%20118">
		<g id="base62">
			<path d="M 12.6356 0.5899 L 1.2204 17.9402 C 0.7999 18.5775 0.9998 19.4745 1.6614 19.9345 L 8.5628 24.7268 C 9.2248 25.1914 10.1071 25.0488 10.5269 24.4101 L 21.9471 7.0609 C 22.364 6.4286 22.1648 5.5256 21.5021 5.068 L 14.6009 0.2732 C 13.9401 -0.1914 13.0564 -0.0488 12.6356 0.5899 L 12.6356 0.5899 ZM 8.0499 11.5792 L 9.1117 12.3234 C 9.2081 12.3861 9.2316 12.5194 9.1656 12.6184 L 8.5422 13.5733 C 8.4732 13.6741 8.3413 13.6958 8.2524 13.6319 L 7.186 12.8928 C 7.0961 12.8292 7.0708 12.6986 7.136 12.5978 L 7.7598 11.6437 C 7.8269 11.5473 7.9536 11.5158 8.0499 11.5792 L 8.0499 11.5792 ZM 6.3602 14.1477 L 7.4261 14.8864 C 7.5162 14.9496 7.5428 15.0864 7.4754 15.1883 L 6.8533 16.1373 C 6.7848 16.2366 6.6531 16.2628 6.5604 16.1989 L 5.4986 15.4606 C 5.4049 15.3979 5.3808 15.2603 5.4479 15.1593 L 6.0751 14.2114 C 6.1408 14.1117 6.2695 14.0854 6.3602 14.1477 L 6.3602 14.1477 ZM 4.6735 16.7169 L 5.7389 17.4498 C 5.8276 17.5174 5.8538 17.6556 5.7867 17.7547 L 5.1604 18.7043 C 5.0968 18.8046 4.965 18.8321 4.8713 18.7688 L 3.8092 18.0301 C 3.7175 17.9615 3.6907 17.8288 3.756 17.7293 L 4.3856 16.7792 C 4.448 16.6795 4.5818 16.6531 4.6735 16.7169 L 4.6735 16.7169 ZM 8.6674 15.7511 L 9.7328 16.4898 C 9.8248 16.5533 9.8448 16.6901 9.7805 16.7896 L 9.157 17.7459 C 9.0885 17.8401 8.9632 17.8705 8.8648 17.8037 L 7.803 17.0631 C 7.7084 17.0011 7.6852 16.8643 7.7485 16.7642 L 8.3783 15.8138 C 8.4452 15.7148 8.5729 15.6868 8.6674 15.7511 L 8.6674 15.7511 ZM 8.3676 20.9354 L 8.9936 19.9857 C 9.0572 19.88 9.1917 19.8538 9.2823 19.917 L 10.3455 20.6617 C 10.4387 20.724 10.4661 20.8573 10.3962 20.9562 L 9.7706 21.9105 C 9.7038 22.0107 9.5789 22.038 9.4836 21.9735 L 8.4187 21.2305 C 8.327 21.1685 8.3012 21.0357 8.3676 20.9354 L 8.3676 20.9354 ZM 9.443 14.195 L 10.0665 13.2464 C 10.1296 13.1462 10.261 13.1201 10.3554 13.1833 L 11.4201 13.9265 C 11.5121 13.9895 11.5342 14.1212 11.4714 14.2218 L 10.8426 15.1715 C 10.7809 15.2716 10.652 15.3035 10.5563 15.2345 L 9.4907 14.4962 C 9.3984 14.433 9.3759 14.301 9.443 14.195 L 9.443 14.195 ZM 10.0553 18.3675 L 10.682 17.4176 C 10.7487 17.3175 10.879 17.2858 10.9707 17.3545 L 12.0359 18.0932 C 12.1292 18.1548 12.1478 18.2938 12.087 18.3878 L 11.4614 19.3427 C 11.3954 19.443 11.2666 19.4745 11.1688 19.4054 L 10.1071 18.6669 C 10.0144 18.5982 9.99 18.4666 10.0553 18.3675 L 10.0553 18.3675 ZM 11.7451 15.7988 L 12.3737 14.8498 C 12.4371 14.7501 12.5674 14.7225 12.6628 14.7851 L 13.7237 15.524 C 13.8193 15.5884 13.8425 15.726 13.7747 15.8237 L 13.1484 16.7792 C 13.0846 16.8747 12.9539 16.9073 12.8586 16.8376 L 11.7948 16.0991 C 11.7017 16.0365 11.6831 15.8989 11.7451 15.7988 L 11.7451 15.7988 ZM 6.6878 18.3775 C 6.7534 18.277 6.8852 18.251 6.9779 18.314 L 8.04 19.0576 C 8.136 19.1213 8.1571 19.2589 8.0939 19.3585 L 7.4669 20.307 C 7.3977 20.4084 7.2684 20.4353 7.1771 20.3722 L 6.1136 19.6328 C 6.02 19.5641 5.9972 19.4322 6.059 19.3326 L 6.6878 18.3775 ZM 15.6616 12.2233 L 10.312 8.5056 C 10.1763 8.4099 10.1323 8.2316 10.2163 8.1049 L 13.9439 2.4409 C 14.0246 2.3187 14.2037 2.2938 14.3393 2.3884 L 19.6858 6.1039 C 19.825 6.2022 19.8661 6.3797 19.7821 6.5012 L 16.0563 12.1701 C 15.9725 12.2915 15.7968 12.3132 15.6616 12.2233 L 15.6616 12.2233 Z" fill="#ffffff"/>
			<path d="M 21.8813 2.5985 L 20.9688 3.9037 L 22.0902 4.6847 L 23 3.3744 L 21.8813 2.5985 Z" fill="#ffffff"/>
		</g>
	</g>
</svg>