<?xml version="1.0" standalone="no"?>
<!-- Generator: Adobe Fireworks 10, Export SVG Extension by Aaron Beall (http://fireworks.abeall.com) . Version: 0.6.1  -->
<!DOCTYPE svg PUBLIC "-//W3C//DTD SVG 1.1//EN" "http://www.w3.org/Graphics/SVG/1.1/DTD/svg11.dtd">
<svg id="Icons.fw-phone-number" viewBox="0 0 25 25" style="background-color:#ffffff00" version="1.1"
	xmlns="http://www.w3.org/2000/svg" xmlns:xlink="http://www.w3.org/1999/xlink" xml:space="preserve"
	x="0px" y="0px" width="25px" height="25px"
>
	<g id="phone-number">
		<path id="base30" d="M 18.9645 7.5201 L 16.883 7.5201 L 17.9538 4.7601 L 20.04 4.7601 L 18.9645 7.5201 ZM 12.9231 7.5201 L 12.9231 8.4401 L 14.9168 8.4401 L 13.8461 11.2001 L 15.4548 11.2001 L 16.5276 8.4401 L 18.6091 8.4401 L 17.5385 11.2001 L 19.1471 11.2001 L 20.2199 8.4401 L 22.1538 8.4401 L 22.1538 7.5201 L 20.5753 7.5201 L 21.6461 4.7601 L 24 4.7601 L 24 3.8401 L 22.0061 3.8401 L 23.0769 1.0801 L 21.4683 1.0801 L 20.3954 3.8401 L 18.3138 3.8401 L 19.3846 1.0801 L 17.776 1.0801 L 16.703 3.8401 L 14.7692 3.8401 L 14.7692 4.7601 L 16.3477 4.7601 L 15.2722 7.5201 L 12.9231 7.5201 ZM 16.6177 16.8896 C 15.9644 17.0236 15.247 17.6393 13.7368 18.9718 C 12.0356 18.1884 9.7074 16.0972 8.6103 14.8633 C 7.4231 13.5314 5.9415 11.2862 5.4082 9.6088 C 7.1288 8.0888 7.8464 7.4286 7.8919 6.6947 C 7.9165 6.2998 7.0951 1.3995 6.2305 0.9017 L 5.9711 0.7389 C 5.4209 0.3854 4.5886 -0.1491 3.6649 0.039 C 3.4392 0.0856 3.2229 0.1732 3.0191 0.2996 C 2.397 0.6887 0.8784 1.7399 0.1873 3.1128 C -0.2405 3.9685 -0.4349 11.772 5.4326 18.3662 C 11.2309 24.8885 18.3823 25.1715 19.4564 24.9526 L 19.486 24.9468 L 19.5807 24.9197 C 21.0301 24.401 22.2604 23.0241 22.7228 22.4543 C 23.5746 21.4051 22.9662 20.1553 22.6383 19.4848 L 22.5072 19.205 C 22.1177 18.2904 17.3326 16.8888 16.9371 16.8655 L 16.6177 16.8896 Z" fill="#ffffff"/>
	</g>
</svg>