<?xml version="1.0" standalone="no"?>
<!-- Generator: Adobe Fireworks 10, Export SVG Extension by Aaron Beall (http://fireworks.abeall.com) . Version: 0.6.1  -->
<!DOCTYPE svg PUBLIC "-//W3C//DTD SVG 1.1//EN" "http://www.w3.org/Graphics/SVG/1.1/DTD/svg11.dtd">
<svg id="Icons.fw-power" viewBox="0 0 25 25" style="background-color:#ffffff00" version="1.1"
	xmlns="http://www.w3.org/2000/svg" xmlns:xlink="http://www.w3.org/1999/xlink" xml:space="preserve"
	x="0px" y="0px" width="25px" height="25px"
>
	<g id="Layer%20121">
		<g id="base65">
			<path d="M 12.7454 3.0419 L 12.2564 3.0419 L 12.2564 0 L 12.7454 0 L 12.7454 3.0419 Z" fill="#ffffff"/>
			<path d="M 7.5763 4.5464 L 7.1771 4.8302 L 5.4338 2.3393 L 5.833 2.0555 L 7.5763 4.5464 Z" fill="#ffffff"/>
			<path d="M 4.3096 8.6442 L 4.1299 9.1493 L 1.2742 8.1094 L 1.4538 7.6042 L 4.3096 8.6442 Z" fill="#ffffff"/>
			<path d="M 3.9354 13.9131 L 4.11 14.4361 L 1.1746 15.2232 L 1 14.7004 L 3.9354 13.9131 Z" fill="#ffffff"/>
			<path d="M 17.4237 4.5464 L 17.8229 4.8302 L 19.5658 2.3393 L 19.1666 2.0555 L 17.4237 4.5464 Z" fill="#ffffff"/>
			<path d="M 20.6904 8.6442 L 20.8701 9.1493 L 23.7258 8.1094 L 23.5462 7.6042 L 20.6904 8.6442 Z" fill="#ffffff"/>
			<path d="M 21.0646 13.9131 L 20.89 14.4361 L 23.8255 15.2232 L 24 14.7004 L 21.0646 13.9131 Z" fill="#ffffff"/>
			<path d="M 12.5004 5.0041 C 8.7374 5.0041 5.6872 8.0556 5.6872 11.8196 C 5.6872 13.9752 7.2081 15.8536 7.2081 15.8536 C 7.7823 16.5629 8.3777 17.9473 8.3777 18.8596 L 10.1134 18.8596 L 10.1134 16.6666 C 10.1134 16.6666 9.1582 15.9264 8.5239 15.1452 C 8.5239 15.1452 7.3818 13.7324 7.3818 12.1129 C 7.3818 9.2839 9.6731 6.9907 12.5004 6.9907 C 15.3278 6.9907 17.6195 9.2839 17.6195 12.1129 C 17.6195 13.7774 16.396 15.2326 16.396 15.2326 C 16.0846 15.6018 14.8866 16.6666 14.8866 16.6666 L 14.8866 18.8596 L 16.6223 18.8596 C 16.6223 17.9473 17.0978 16.67 17.6847 15.9702 C 17.6847 15.9702 19.312 14.0339 19.312 11.8196 C 19.312 8.0556 16.2617 5.0041 12.5004 5.0041 Z" fill="#ffffff"/>
			<path d="M 8.3777 21.0526 C 8.3777 21.6102 9.4333 21.9298 10.5473 21.9298 L 14.4527 21.9298 C 15.5668 21.9298 16.6223 21.6102 16.6223 21.0526 L 16.6223 19.7368 L 8.3777 19.7368 L 8.3777 21.0526 Z" fill="#ffffff"/>
			<path d="M 10.5473 22.3684 L 9.2455 22.3684 L 9.2455 22.807 C 9.2455 23.1787 10.0528 23.6842 10.9813 23.6842 L 14.0188 23.6842 C 14.9472 23.6842 15.7545 23.1787 15.7545 22.807 L 15.7545 22.3684 L 14.0188 22.3684 L 10.5473 22.3684 Z" fill="#ffffff"/>
			<path d="M 10.1134 24.1228 C 10.1134 24.1228 10.1134 24.4174 10.1134 24.5614 C 10.1134 24.8406 10.6418 25 11.5703 25 L 13.0661 25 C 13.9946 25 14.8866 24.8406 14.8866 24.5614 C 14.8866 24.4543 14.8866 24.1228 14.8866 24.1228 L 10.1134 24.1228 Z" fill="#ffffff"/>
			<path d="M 12.717 8.5167 L 12.717 9.5942 C 14.0747 9.7577 15.1354 10.9033 15.1354 12.3057 C 15.1354 12.4804 15.1137 12.6488 15.0824 12.8149 L 16.1588 12.8149 C 16.1816 12.6483 16.1978 12.4792 16.1978 12.3057 C 16.1978 10.3162 14.6641 8.6859 12.717 8.5167 Z" fill="#ffffff"/>
		</g>
	</g>
</svg>