<?xml version="1.0" standalone="no"?>
<!-- Generator: Adobe Fireworks 10, Export SVG Extension by Aaron Beall (http://fireworks.abeall.com) . Version: 0.6.1  -->
<!DOCTYPE svg PUBLIC "-//W3C//DTD SVG 1.1//EN" "http://www.w3.org/Graphics/SVG/1.1/DTD/svg11.dtd">
<svg id="Icons.fw-prepaid-visa-card" viewBox="0 0 25 25" style="background-color:#ffffff00" version="1.1"
	xmlns="http://www.w3.org/2000/svg" xmlns:xlink="http://www.w3.org/1999/xlink" xml:space="preserve"
	x="0px" y="0px" width="25px" height="25px"
>
	<g id="prepaid-visa-card">
		<path d="M 18.0555 15.1304 L 21.5278 15.1304 L 21.5278 16.5217 L 18.0555 16.5217 L 18.0555 15.1304 ZM 13.1945 15.1304 L 16.6666 15.1304 L 16.6666 16.5217 L 13.1945 16.5217 L 13.1945 15.1304 ZM 8.3334 15.1304 L 11.8055 15.1304 L 11.8055 16.5217 L 8.3334 16.5217 L 8.3334 15.1304 ZM 3.4722 15.1304 L 6.9445 15.1304 L 6.9445 16.5217 L 3.4722 16.5217 L 3.4722 15.1304 ZM 13.1945 9.913 C 13.1945 8.5683 14.2826 7.4783 15.625 7.4783 C 16.3052 7.4783 16.9199 7.7578 17.3611 8.2087 C 17.8022 7.7578 18.4171 7.4783 19.0972 7.4783 C 20.4396 7.4783 21.5278 8.5683 21.5278 9.913 C 21.5278 11.2578 20.4396 12.3478 19.0972 12.3478 C 18.4171 12.3478 17.8022 12.0684 17.3611 11.6174 C 16.9199 12.0684 16.3052 12.3478 15.625 12.3478 C 14.2826 12.3478 13.1945 11.2578 13.1945 9.913 ZM 3.085 4.5 C 1.3808 4.5 0 5.8431 0 7.5 L 0 17.5 C 0 19.1569 1.3808 20.5 3.085 20.5 L 21.9136 20.5 C 23.6178 20.5 25 19.1569 25 17.5 L 25 7.5 C 25 5.8431 23.6178 4.5 21.9136 4.5 L 3.085 4.5 Z" fill="#ffffff"/>
	</g>
</svg>