<?xml version="1.0" standalone="no"?>
<!-- Generator: Adobe Fireworks 10, Export SVG Extension by Aaron Beall (http://fireworks.abeall.com) . Version: 0.6.1  -->
<!DOCTYPE svg PUBLIC "-//W3C//DTD SVG 1.1//EN" "http://www.w3.org/Graphics/SVG/1.1/DTD/svg11.dtd">
<svg id="Icons.fw-print-virtual-card" viewBox="0 0 25 25" style="background-color:#ffffff00" version="1.1"
	xmlns="http://www.w3.org/2000/svg" xmlns:xlink="http://www.w3.org/1999/xlink" xml:space="preserve"
	x="0px" y="0px" width="25px" height="25px"
>
	<g id="print-virtual-card">
		<path d="M 6 9 L 6 17 L 19 17 L 19 15 L 20 15 L 20 18 L 5 18 L 5 8 L 20 8 L 20 11 L 19 11 L 19 9 L 6 9 ZM 7 10 L 18 10 L 18 12 L 17 12 L 17 14 L 18 14 L 18 16 L 7 16 L 7 10 ZM 12.5005 0.0078 C 5.5986 0.0078 0.0039 5.6021 0.0039 12.5039 C 0.0039 19.4043 5.5986 25 12.5005 25 C 19.4019 25 24.9963 19.4043 24.9963 12.5039 C 24.9963 5.6021 19.4019 0.0078 12.5005 0.0078 Z" fill="#757584"/>
	</g>
</svg>