<?xml version="1.0" standalone="no"?>
<!-- Generator: Adobe Fireworks 10, Export SVG Extension by Aaron Beall (http://fireworks.abeall.com) . Version: 0.6.1  -->
<!DOCTYPE svg PUBLIC "-//W3C//DTD SVG 1.1//EN" "http://www.w3.org/Graphics/SVG/1.1/DTD/svg11.dtd">
<svg id="Icons.fw-privacy-policy" viewBox="0 0 25 25" style="background-color:#ffffff00" version="1.1"
	xmlns="http://www.w3.org/2000/svg" xmlns:xlink="http://www.w3.org/1999/xlink" xml:space="preserve"
	x="0px" y="0px" width="25px" height="25px"
>
	<g id="privacy-policy">
		<path id="base9" d="M 15.7673 17.254 L 16.4812 17.0717 L 16.8116 16.9877 L 16.6632 17.4044 L 16.4824 17.9122 L 10.5985 23.3074 L 9.5774 23.6722 L 9.8617 22.6389 L 15.7673 17.254 ZM 19.9983 12.0569 C 19.9983 11.3171 20.609 10.7173 21.3624 10.7173 C 22.1158 10.7173 22.7266 11.3171 22.7266 12.0569 C 22.7266 12.7968 22.1158 13.3966 21.3624 13.3966 C 20.609 13.3966 19.9983 12.7968 19.9983 12.0569 ZM 17.2155 19.5826 C 17.4299 19.536 17.6351 19.4459 17.8248 19.376 C 18.3655 19.5521 18.9429 19.6483 19.5436 19.6483 C 22.5571 19.6483 25 17.2492 25 14.2897 C 25 11.3301 22.5571 8.9311 19.5436 8.9311 C 16.5302 8.9311 14.0873 11.3301 14.0873 14.2897 C 14.0873 14.955 14.2117 15.591 14.4374 16.1786 C 14.3929 16.2224 14.3467 16.271 14.3008 16.3231 C 12.353 18.1759 10.0936 20.0773 8.1763 21.9014 L 8.1763 24.1127 L 9.5546 25 L 10.8878 25 C 11.4647 24.6722 12.2684 24.1122 12.2684 24.1122 L 12.2684 22.7742 L 13.6444 22.7742 L 14.1074 21.4346 L 15.5403 21.4346 L 16.3459 19.648 C 16.3459 19.648 17.0088 19.6276 17.2155 19.5826 ZM 11.485 0 L 9.3115 0 C 7.568 0.4257 6.3322 1.5414 5.2346 2.8683 C 4.217 4.0985 2.9441 4.4858 1.3342 4.4834 C 0.9244 4.4829 0.453 4.4664 0.0146 4.4664 C -0.1046 8.7495 0.4864 12.936 2.47 16.6044 C 3.6449 18.7772 5.2574 20.5187 7.2827 21.8744 L 7.2848 21.4999 C 7.647 21.1553 8.0201 20.8062 8.4012 20.4543 C 4.4799 17.9503 1.7228 12.3239 1.8127 6.2527 C 4.1716 6.1157 5.9226 5.0191 7.3345 3.2556 C 8.0925 2.3087 9.1573 1.7732 10.4711 1.7723 L 10.4861 18.5521 C 11.4763 17.6542 12.4675 16.7554 13.3914 15.8765 C 13.2555 15.3683 13.1779 14.8398 13.1779 14.2897 C 13.1779 10.8369 16.028 8.038 19.5436 8.038 C 19.9855 8.038 20.4161 8.0811 20.8326 8.1652 C 20.9166 6.9105 20.906 5.6511 20.8907 4.4877 C 20.6022 4.4586 20.278 4.4856 20.1476 4.4865 C 17.9949 4.5004 16.343 4.0007 15.0261 2.2997 C 14.124 1.1344 12.9299 0.3713 11.485 0 Z" fill="#ffffff"/>
	</g>
</svg>