<?xml version="1.0" encoding="utf-8"?>
<!-- Generator: Adobe Illustrator 19.0.1, SVG Export Plug-In . SVG Version: 6.00 Build 0)  -->
<svg version="1.1" id="Layer_1" xmlns="http://www.w3.org/2000/svg" xmlns:xlink="http://www.w3.org/1999/xlink" x="0px" y="0px"
	 viewBox="0 0 135 135" style="enable-background:new 0 0 135 135;" xml:space="preserve">
<style type="text/css">
	.st0{fill:#FFFFFF;}
	.st1{fill:#E21B23;}
</style>
<path class="st0" d="M106.8,106L93.5,76.6l-0.8,0.5c-0.3,0.2-0.5,0.4-0.7,0.7L88.7,83c-1,1.6-2.8,2.7-4.8,2.7L77.7,86
	c-0.3,0-0.6,0.1-0.9,0.2L76,86.7l-6.2,13.8l8.6,19c0.9,1.9,3.5,2.1,4.7,0.4l6.5-9.3c0.7-1,1.7-1.5,2.3-1.2l12.4,0.4
	C106.2,109.8,107.6,107.8,106.8,106z M71.3,89.2c-0.8,0.4-1.8,0.6-2.7,0.6c-0.9,0-1.9-0.2-2.7-0.7l-1.6-0.8l-4-2.1
	C60,86.1,59.7,86,59.4,86l-6.2-0.3c-1.9-0.1-3.7-1.1-4.7-2.7l-3.3-5.3c-0.2-0.3-0.4-0.5-0.7-0.7L42.7,76l-13.5,30
	c-0.8,1.8,0.5,3.8,2.4,3.8h0.1l12.4-0.4h0.1c0.9,0,1.7,0.4,2.2,1.2l6.5,9.3c0.5,0.8,1.4,1.2,2.2,1.2c1,0,2-0.6,2.5-1.6L68,96.5
	L71.3,89.2L71.3,89.2z M38.8,60.4c0.4,0.7,0.6,1.5,0.6,2.3l0.3,6.2c0,0.9,0.5,1.7,1.3,2.2l0.4,0.2l2.8,1.7l2.1,1.3
	c0.7,0.4,1.2,1,1.6,1.7l3.3,5.3c0.5,0.7,1.3,1.2,2.2,1.3l6.2,0.3c0.8,0,1.6,0.2,2.3,0.6l0.3,0.2l5.2,2.7c0.4,0.2,0.8,0.3,1.2,0.3
	c0.4,0,0.9-0.1,1.2-0.3l3.7-1.9l1.9-1c0.1-0.1,0.3-0.1,0.4-0.2c0.6-0.2,1.2-0.4,1.8-0.4l0.1,0l6.1-0.3c0.9,0,1.7-0.5,2.2-1.3
	l3.3-5.3c0.4-0.7,1-1.2,1.7-1.6l1.2-0.8l4.1-2.6c0.7-0.5,1.2-1.3,1.3-2.2l0.3-6.2c0-0.8,0.2-1.6,0.6-2.3l2.9-5.5
	c0.4-0.8,0.4-1.7,0-2.5l-2.8-5.5c-0.4-0.7-0.6-1.5-0.6-2.3l-0.3-6.2c0-0.9-0.5-1.7-1.2-2.2L91,32.9c-0.7-0.4-1.2-1-1.7-1.7L86,25.9
	c-0.5-0.7-1.3-1.2-2.2-1.3l-6.2-0.3c-0.8,0-1.6-0.2-2.3-0.6L69.8,21c-0.4-0.2-0.8-0.3-1.2-0.3c-0.4,0-0.9,0.1-1.2,0.3l-5.5,2.9
	c-0.7,0.4-1.5,0.6-2.3,0.6l-6.2,0.3c-0.9,0-1.7,0.5-2.2,1.3l-3.3,5.3c-0.4,0.7-1,1.2-1.6,1.7l-5.3,3.3c-0.7,0.5-1.2,1.3-1.3,2.2
	l-0.3,6.2c0,0.8-0.2,1.6-0.6,2.3l-2.9,5.5c-0.4,0.8-0.4,1.7,0,2.5L38.8,60.4z M61.1,60.2l1.8,1.2c1.4,0.9,3.3,1.5,5.1,1.5
	c2,0,3.3-0.9,3.3-2.4c0-0.9-0.3-2-3.7-3.4c-3.9-1.5-8-3.8-8-8.8c0-3.6,1.8-6.5,5.5-7.8v-5.5h7.4v5c1.2,0.3,2.8,0.7,3.9,1.4l1.4,0.7
	l-2.2,5.9l-1.7-1c-0.7-0.4-2.1-1.2-4.4-1.2c-2.5,0-2.8,1.5-2.8,1.9c0,0.9,0.3,1.6,4.1,3.2c3.5,1.4,7.3,3.7,7.3,9.2
	c0,3.5-2,6.6-5.7,8v5h-7.4v-4.4c-2.5-0.3-3.8-1-5.1-1.9L59,66.3L61.1,60.2z"/>
<path class="st1" d="M67.5,0.3c-0.5,0-0.9,0-1.4,0C48.2,0.6,31.5,8,19,20.9c-12.5,13-19.1,30-18.8,47.9
	c0.7,36.3,30.9,65.9,67.2,65.9c0.5,0,0.9,0,1.3,0c37.1-0.7,66.6-31.5,65.9-68.5C134,29.8,103.8,0.3,67.5,0.3z M66.4,9.5
	c0.4,0,0.8,0,1.2,0c31.5,0,57.4,25.3,58,56.9c0.2,7.7-1.2,15.1-3.8,21.8L18.2,37C28.2,20.8,46,9.9,66.4,9.5z M68.7,125.5
	c-0.4,0-0.8,0-1.2,0c-31.5,0-57.4-25.3-58-56.9c-0.2-8.2,1.4-16,4.3-23.2l103.8,51.3C107.7,113.6,89.6,125.1,68.7,125.5z"/>
</svg>
