<?xml version="1.0" encoding="utf-8"?>
<!-- Generator: Adobe Illustrator 19.0.1, SVG Export Plug-In . SVG Version: 6.00 Build 0)  -->
<svg version="1.1" id="Layer_1" xmlns="http://www.w3.org/2000/svg" xmlns:xlink="http://www.w3.org/1999/xlink" x="0px" y="0px"
	 viewBox="0 0 135 135" style="enable-background:new 0 0 135 135;" xml:space="preserve">
<style type="text/css">
	.st0{fill:#FFFFFF;}
	.st1{fill:#E21B23;}
</style>
<path class="st0" d="M96.2,58L73.9,35.3c-6.5-6.9-12.5,0-12.5,0L43.3,53.2c-13.6,13.1-6.7,15.9-4.2,16.5v25c0,4.8,3.9,8.7,8.7,8.7
	h11.5v-20c0,0-0.8-2.3,4-2.3s9.8,0,9.8,0s2.3-0.2,2.3,2.7c0,2.9,0.2,19.6,0.2,19.6h11.1c4.8,0,8.7-3.9,8.7-8.7V68.3
	C104.1,66.9,96.2,58,96.2,58z M91.8,30.8c0,0,0.4-1.6-2.9-1.6h-7.5c0,0-2.7-0.6-2.7,2.3v2.5l13.1,12.8V30.8z"/>
<path class="st1" d="M67.5,0.3c-0.5,0-0.9,0-1.4,0C48.2,0.6,31.5,8,19,20.9c-12.5,13-19.1,30-18.8,47.9
	c0.7,36.3,30.9,65.9,67.2,65.9c0.5,0,0.9,0,1.3,0c37.1-0.7,66.6-31.5,65.9-68.5C134,29.8,103.8,0.3,67.5,0.3z M66.4,9.5
	c0.4,0,0.8,0,1.2,0c31.5,0,57.4,25.3,58,56.9c0.2,7.7-1.2,15.1-3.8,21.8L18.2,37C28.2,20.8,46,9.9,66.4,9.5z M68.7,125.5
	c-0.4,0-0.8,0-1.2,0c-31.5,0-57.4-25.3-58-56.9c-0.2-8.2,1.4-16,4.3-23.2l103.8,51.3C107.7,113.6,89.6,125.1,68.7,125.5z"/>
</svg>
