<?xml version="1.0" standalone="no"?>
<!-- Generator: Adobe Fireworks 10, Export SVG Extension by Aaron Beall (http://fireworks.abeall.com) . Version: 0.6.1  -->
<!DOCTYPE svg PUBLIC "-//W3C//DTD SVG 1.1//EN" "http://www.w3.org/Graphics/SVG/1.1/DTD/svg11.dtd">
<svg id="Icons.fw-purchase" viewBox="0 0 25 25" style="background-color:#ffffff00" version="1.1"
	xmlns="http://www.w3.org/2000/svg" xmlns:xlink="http://www.w3.org/1999/xlink" xml:space="preserve"
	x="0px" y="0px" width="25px" height="25px"
>
	<g id="Layer%2016">
		<g id="base50">
			<path d="M 23.8288 6.2731 L 25 3.3098 L 6.7256 3.3098 L 7.8967 6.2731 L 9.0679 9.2362 L 9.4168 10.1188 L 9.6961 10.8254 L 10.8677 13.7887 L 20.8579 13.7887 L 22.0294 10.8254 L 22.3088 10.1188 L 22.6576 9.2362 L 23.8288 6.2731 ZM 9.0812 4.8989 L 22.6443 4.8989 L 22.1013 6.2731 L 9.6242 6.2731 L 9.0812 4.8989 ZM 19.7586 12.1995 L 11.967 12.1995 L 11.4236 10.8254 L 20.3019 10.8254 L 19.7586 12.1995 ZM 10.7954 9.2362 L 10.2524 7.8622 L 21.4731 7.8622 L 20.9301 9.2362 L 10.7954 9.2362 ZM 18.5037 19.3213 C 17.1954 19.3213 16.135 20.369 16.135 21.6609 C 16.135 22.9528 17.1954 24 18.5037 24 C 19.812 24 20.8727 22.9528 20.8727 21.6609 C 20.8727 20.369 19.812 19.3213 18.5037 19.3213 ZM 11.1164 19.3213 C 9.8081 19.3213 8.7477 20.369 8.7477 21.6609 C 8.7477 22.9528 9.8081 24 11.1164 24 C 12.4247 24 13.4855 22.9528 13.4855 21.6609 C 13.4855 20.369 12.4247 19.3213 11.1164 19.3213 ZM 20.8727 15.199 L 9.9978 15.199 L 6.3181 5.8905 L 2.8699 1.6011 C 2.3171 0.914 1.305 0.7987 0.6088 1.3446 C -0.0874 1.8905 -0.2037 2.8899 0.3491 3.5775 L 3.4965 7.4922 L 7.7993 18.3773 L 20.8727 18.3773 C 21.7615 18.3773 22.482 17.6658 22.482 16.7881 C 22.482 15.9107 21.7615 15.199 20.8727 15.199 Z" fill="#e00000"/>
		</g>
	</g>
</svg>