<?xml version="1.0" standalone="no"?>
<!-- Generator: Adobe Fireworks 10, Export SVG Extension by Aaron Beall (http://fireworks.abeall.com) . Version: 0.6.1  -->
<!DOCTYPE svg PUBLIC "-//W3C//DTD SVG 1.1//EN" "http://www.w3.org/Graphics/SVG/1.1/DTD/svg11.dtd">
<svg id="Icons.fw-purchases" viewBox="0 0 25 25" style="background-color:#ffffff00" version="1.1"
	xmlns="http://www.w3.org/2000/svg" xmlns:xlink="http://www.w3.org/1999/xlink" xml:space="preserve"
	x="0px" y="0px" width="25px" height="25px"
>
	<g id="Layer%201">
		<g id="base45">
			<path d="M 19.1553 15.6597 L 8.6927 15.6597 L 5.1526 6.3419 L 2.761 2.9869 C 2.2291 2.2996 1.2555 2.1838 0.5857 2.7303 C -0.0841 3.2767 -0.196 4.2771 0.3358 4.9653 L 2.4379 7.9451 L 6.5775 18.8412 L 19.1553 18.8412 C 20.0103 18.8412 20.7035 18.1289 20.7035 17.2505 C 20.7035 16.3719 20.0103 15.6597 19.1553 15.6597 Z" fill="#ffffff"/>
			<path d="M 9.7689 19.3167 C 8.5103 19.3167 7.49 20.3652 7.49 21.6586 C 7.49 22.9518 8.5103 24 9.7689 24 C 11.0276 24 12.0481 22.9518 12.0481 21.6586 C 12.0481 20.3652 11.0276 19.3167 9.7689 19.3167 Z" fill="#ffffff"/>
			<path d="M 16.8761 19.3167 C 15.6173 19.3167 14.5973 20.3652 14.5973 21.6586 C 14.5973 22.9518 15.6173 24 16.8761 24 C 18.1348 24 19.1553 22.9518 19.1553 21.6586 C 19.1553 20.3652 18.1348 19.3167 16.8761 19.3167 Z" fill="#ffffff"/>
			<path d="M 18.5559 6.7249 L 7.8704 6.7249 L 7.3479 5.3492 L 17.7972 5.3492 C 17.6707 4.9524 17.5996 4.5299 17.5996 4.0895 C 17.5996 3.9777 17.6071 3.8682 17.6158 3.7585 L 5.0815 3.7585 L 6.2084 6.7249 L 7.3351 9.6909 L 7.6708 10.5745 L 7.9395 11.2816 L 9.0667 14.2479 L 18.678 14.2479 L 19.8052 11.2816 L 20.1426 10.3927 L 20.4094 9.6909 L 21.0177 8.0901 C 20.0371 7.9584 19.1711 7.4574 18.5559 6.7249 ZM 17.6204 12.6572 L 10.1243 12.6572 L 9.6016 11.2816 L 18.1431 11.2816 L 17.6204 12.6572 ZM 18.7476 9.6909 L 8.9971 9.6909 L 8.4747 8.3157 L 19.2699 8.3157 L 18.7476 9.6909 Z" fill="#ffffff"/>
			<path d="M 21.9928 1 C 20.3323 1 18.986 2.3833 18.986 4.0895 C 18.986 5.796 20.3323 7.1793 21.9928 7.1793 C 23.6536 7.1793 25 5.796 25 4.0895 C 25 2.3833 23.6536 1 21.9928 1 ZM 23.369 4.4226 L 22.3168 4.4226 L 22.3168 5.5035 L 21.6688 5.5035 L 21.6688 4.4226 L 20.6166 4.4226 L 20.6166 3.7571 L 21.6688 3.7571 L 21.6688 2.6758 L 22.3168 2.6758 L 22.3168 3.7571 L 23.369 3.7571 L 23.369 4.4226 Z" fill="#ffffff"/>
		</g>
	</g>
</svg>