<?xml version="1.0" standalone="no"?>
<!-- Generator: Adobe Fireworks 10, Export SVG Extension by Aaron Beall (http://fireworks.abeall.com) . Version: 0.6.1  -->
<!DOCTYPE svg PUBLIC "-//W3C//DTD SVG 1.1//EN" "http://www.w3.org/Graphics/SVG/1.1/DTD/svg11.dtd">
<svg id="Icons.fw-recent-transactions-gb" viewBox="0 0 25 25" style="background-color:#ffffff00" version="1.1"
	xmlns="http://www.w3.org/2000/svg" xmlns:xlink="http://www.w3.org/1999/xlink" xml:space="preserve"
	x="0px" y="0px" width="25px" height="25px"
>
	<path d="M 21.1818 3.7037 L 21.1818 21.2963 L 4.8182 21.2963 L 4.8182 3.7037 L 21.1818 3.7037 ZM 3.9091 1.8519 L 3.9091 0 L 3 0 L 3 1.8519 L 3 2.7778 L 3 22.2222 L 3 23.1481 L 3 25 L 3.9091 25 L 3.9091 23.1481 L 5.7273 23.1481 L 5.7273 25 L 6.6364 25 L 6.6364 23.1481 L 8.4545 23.1481 L 8.4545 25 L 9.3636 25 L 9.3636 23.1481 L 11.1818 23.1481 L 11.1818 25 L 12.0909 25 L 12.0909 23.1481 L 13.9091 23.1481 L 13.9091 25 L 14.8182 25 L 14.8182 23.1481 L 16.6364 23.1481 L 16.6364 25 L 17.5455 25 L 17.5455 23.1481 L 19.3636 23.1481 L 19.3636 25 L 20.2727 25 L 20.2727 23.1481 L 22.0909 23.1481 L 22.0909 25 L 23 25 L 23 23.1481 L 23 22.2222 L 23 2.7778 L 23 1.8519 L 23 0 L 22.0909 0 L 22.0909 1.8519 L 20.2727 1.8519 L 20.2727 0 L 19.3636 0 L 19.3636 1.8519 L 17.5455 1.8519 L 17.5455 0 L 16.6364 0 L 16.6364 1.8519 L 14.8182 1.8519 L 14.8182 0 L 13.9091 0 L 13.9091 1.8519 L 12.0909 1.8519 L 12.0909 0 L 11.1818 0 L 11.1818 1.8519 L 9.3636 1.8519 L 9.3636 0 L 8.4545 0 L 8.4545 1.8519 L 6.6364 1.8519 L 6.6364 0 L 5.7273 0 L 5.7273 1.8519 L 3.9091 1.8519 ZM 14.8182 10.026 C 14.8182 9.5631 15.017 9.1725 15.4432 8.8397 C 15.8693 8.5069 16.3949 8.3333 17.0483 8.3333 C 17.6449 8.3333 18.1563 8.5069 18.5824 8.8252 C 19.0085 9.158 19.2784 9.6065 19.3636 10.1852 L 20.2727 10.1852 C 20.1449 9.3171 19.804 8.6372 19.25 8.1453 C 18.6818 7.6534 17.9858 7.4074 17.1335 7.4074 C 16.2955 7.4074 15.5852 7.6244 15.0028 8.044 C 14.2642 8.7384 13.9091 9.4618 13.9091 10.2431 C 13.9091 10.4745 13.9233 10.6916 13.9801 10.923 C 14.0227 11.1545 14.1364 11.5307 14.3352 12.037 L 13 12.037 L 13 12.963 L 14.6761 12.963 C 14.7614 13.3391 14.8182 13.7153 14.8182 14.077 C 14.8182 14.9306 14.6335 15.6539 14.2784 16.2326 C 13.9233 16.8258 13.4972 17.2743 13 17.5926 L 13.4545 18.5185 C 13.767 18.2292 14.108 18.0122 14.4773 17.8385 C 14.8466 17.6794 15.2017 17.5926 15.5426 17.5926 C 15.7557 17.5926 15.9688 17.6215 16.196 17.6794 C 16.3239 17.7228 16.6222 17.853 17.1051 18.07 C 17.5739 18.287 17.8722 18.4028 18 18.4317 C 18.1989 18.4896 18.3977 18.5185 18.5966 18.5185 C 18.8239 18.5185 19.0511 18.4606 19.2784 18.3449 C 19.5057 18.2292 19.8466 17.9832 20.2727 17.5926 L 20.2727 16.6667 C 19.6477 17.2888 19.1506 17.5926 18.767 17.5926 C 18.4403 17.5926 17.8295 17.4045 16.9347 17.0139 C 16.3807 16.7824 15.8977 16.6667 15.4858 16.6667 C 15.1733 16.6667 14.8324 16.7245 14.4631 16.8258 C 14.9176 16.2905 15.2301 15.7552 15.429 15.2199 C 15.6278 14.6846 15.7273 14.1782 15.7273 13.6863 C 15.7273 13.4549 15.6705 13.2089 15.571 12.963 L 17.5455 12.963 L 17.5455 12.037 L 15.3011 12.037 C 14.9744 11.2124 14.8182 10.5469 14.8182 10.026 ZM 6.6364 18.5185 L 6.6364 19.4444 L 11.1818 19.4444 L 11.1818 18.5185 L 6.6364 18.5185 ZM 6.6364 15.7407 L 6.6364 16.6667 L 9.3636 16.6667 L 9.3636 15.7407 L 6.6364 15.7407 ZM 6.6364 12.963 L 6.6364 13.8889 L 10.2727 13.8889 L 10.2727 12.963 L 6.6364 12.963 ZM 6.6364 10.1852 L 6.6364 11.1111 L 11.1818 11.1111 L 11.1818 10.1852 L 6.6364 10.1852 ZM 6.6364 7.4074 L 6.6364 8.3333 L 12.0909 8.3333 L 12.0909 7.4074 L 6.6364 7.4074 Z" fill="#ffffff"/>
</svg>