<?xml version="1.0" standalone="no"?>
<!-- Generator: Adobe Fireworks 10, Export SVG Extension by Aaron Beall (http://fireworks.abeall.com) . Version: 0.6.1  -->
<!DOCTYPE svg PUBLIC "-//W3C//DTD SVG 1.1//EN" "http://www.w3.org/Graphics/SVG/1.1/DTD/svg11.dtd">
<svg id="Icons.fw-recent-transactions-euro" viewBox="0 0 25 25" style="background-color:#ffffff00" version="1.1"
	xmlns="http://www.w3.org/2000/svg" xmlns:xlink="http://www.w3.org/1999/xlink" xml:space="preserve"
	x="0px" y="0px" width="25px" height="25px"
>
	<path d="M 21.1818 3.7037 L 21.1818 21.2963 L 4.8182 21.2963 L 4.8182 3.7037 L 21.1818 3.7037 ZM 3.9091 1.8519 L 3.9091 0 L 3 0 L 3 1.8519 L 3 2.7778 L 3 22.2222 L 3 23.1481 L 3 25 L 3.9091 25 L 3.9091 23.1481 L 5.7273 23.1481 L 5.7273 25 L 6.6364 25 L 6.6364 23.1481 L 8.4545 23.1481 L 8.4545 25 L 9.3636 25 L 9.3636 23.1481 L 11.1818 23.1481 L 11.1818 25 L 12.0909 25 L 12.0909 23.1481 L 13.9091 23.1481 L 13.9091 25 L 14.8182 25 L 14.8182 23.1481 L 16.6364 23.1481 L 16.6364 25 L 17.5455 25 L 17.5455 23.1481 L 19.3636 23.1481 L 19.3636 25 L 20.2727 25 L 20.2727 23.1481 L 22.0909 23.1481 L 22.0909 25 L 23 25 L 23 23.1481 L 23 22.2222 L 23 2.7778 L 23 1.8519 L 23 0 L 22.0909 0 L 22.0909 1.8519 L 20.2727 1.8519 L 20.2727 0 L 19.3636 0 L 19.3636 1.8519 L 17.5455 1.8519 L 17.5455 0 L 16.6364 0 L 16.6364 1.8519 L 14.8182 1.8519 L 14.8182 0 L 13.9091 0 L 13.9091 1.8519 L 12.0909 1.8519 L 12.0909 0 L 11.1818 0 L 11.1818 1.8519 L 9.3636 1.8519 L 9.3636 0 L 8.4545 0 L 8.4545 1.8519 L 6.6364 1.8519 L 6.6364 0 L 5.7273 0 L 5.7273 1.8519 L 3.9091 1.8519 ZM 12.8722 14.1059 C 13.3267 17.0573 14.5767 18.5185 16.6506 18.5185 C 17.5028 18.5185 18.3125 18.287 19.0653 17.8096 L 19.0653 16.305 C 18.4688 16.7101 18.0142 16.9705 17.6733 17.1152 C 17.3324 17.2598 16.9915 17.3322 16.6506 17.3322 C 15.358 17.3322 14.5341 16.2616 14.1932 14.1059 L 17.304 14.1059 L 17.6591 12.9196 L 14.0795 12.9196 C 14.0653 12.8328 14.0653 12.7315 14.0653 12.6157 C 14.0653 12.4855 14.0653 12.3698 14.0938 12.2541 L 18.0284 12.2541 L 18.3551 11.0677 L 14.2216 11.0677 C 14.4205 10.2286 14.7188 9.6065 15.1165 9.2014 C 15.5142 8.7963 16.0114 8.5938 16.6364 8.5938 C 17.0199 8.5938 17.3892 8.6661 17.7443 8.7963 C 18.0994 8.941 18.5398 9.1869 19.0653 9.5341 L 19.5341 8.4635 C 18.625 7.7691 17.6875 7.4074 16.7358 7.4074 C 15.6989 7.4074 14.8466 7.7546 14.179 8.4201 C 13.5114 9.0856 13.0852 9.9682 12.9006 11.0677 L 11.9915 11.0677 L 11.6648 12.2541 L 12.8153 12.2541 C 12.7869 12.3843 12.7869 12.5289 12.7869 12.6736 L 12.7869 12.9196 L 11.9915 12.9196 L 11.6648 14.1059 L 12.8722 14.1059 ZM 6.6364 18.5185 L 6.6364 19.4444 L 11.1818 19.4444 L 11.1818 18.5185 L 6.6364 18.5185 ZM 6.6364 15.7407 L 6.6364 16.6667 L 9.3636 16.6667 L 9.3636 15.7407 L 6.6364 15.7407 ZM 6.6364 12.963 L 6.6364 13.8889 L 10.2727 13.8889 L 10.2727 12.963 L 6.6364 12.963 ZM 6.6364 10.1852 L 6.6364 11.1111 L 11.1818 11.1111 L 11.1818 10.1852 L 6.6364 10.1852 ZM 6.6364 7.4074 L 6.6364 8.3333 L 12.0909 8.3333 L 12.0909 7.4074 L 6.6364 7.4074 Z" fill="#ffffff"/>
</svg>