<?xml version="1.0" standalone="no"?>
<!-- Generator: Adobe Fireworks 10, Export SVG Extension by Aaron Beall (http://fireworks.abeall.com) . Version: 0.6.1  -->
<!DOCTYPE svg PUBLIC "-//W3C//DTD SVG 1.1//EN" "http://www.w3.org/Graphics/SVG/1.1/DTD/svg11.dtd">
<svg id="Icons.fw-recent-referals" viewBox="0 0 25 25" style="background-color:#ffffff00" version="1.1"
	xmlns="http://www.w3.org/2000/svg" xmlns:xlink="http://www.w3.org/1999/xlink" xml:space="preserve"
	x="0px" y="0px" width="25px" height="25px"
>
	<path id="base" d="M 1.8519 20.32 L 6.4815 20.32 L 6.4815 22.16 L 1.8519 22.16 L 1.8519 20.32 ZM 0 9.2352 L 0 24 L 25 24 L 25 9.3502 L 13.9178 19.4 L 12.0081 19.4 L 0 9.2352 ZM 12.963 5.6 C 12.963 3.0594 10.8966 1 8.3397 1 C 5.7828 1 3.71 3.0594 3.71 5.6 C 3.71 7.4293 4.8306 8.8391 6.3363 10.219 L 12.963 15.8009 L 19.596 10.219 C 21.1017 8.8391 22.2222 7.4293 22.2222 5.6 C 22.2222 3.0594 20.1495 1 17.5926 1 C 15.0357 1 12.963 3.0594 12.963 5.6 Z" fill="#ffffff"/>
</svg>