<?xml version="1.0" standalone="no"?>
<!-- Generator: Adobe Fireworks 10, Export SVG Extension by Aaron Beall (http://fireworks.abeall.com) . Version: 0.6.1  -->
<!DOCTYPE svg PUBLIC "-//W3C//DTD SVG 1.1//EN" "http://www.w3.org/Graphics/SVG/1.1/DTD/svg11.dtd">
<svg id="Icons.fw-recent-transactions" viewBox="0 0 25 25" style="background-color:#ffffff00" version="1.1"
	xmlns="http://www.w3.org/2000/svg" xmlns:xlink="http://www.w3.org/1999/xlink" xml:space="preserve"
	x="0px" y="0px" width="25px" height="25px"
>
	<g id="recent-transactions">
		<path id="base32" d="M 21.1818 3.7037 L 21.1818 21.2963 L 4.8182 21.2963 L 4.8182 3.7037 L 21.1818 3.7037 ZM 5.7273 1.8519 L 3 1.8519 L 3 2.7778 L 3 22.2222 L 3 23.1481 L 5.7273 23.1481 L 5.7273 25 L 6.6364 25 L 6.6364 23.1481 L 8.4545 23.1481 L 8.4545 25 L 9.3636 25 L 9.3636 23.1481 L 11.1818 23.1481 L 11.1818 25 L 12.0909 25 L 12.0909 23.1481 L 13.9091 23.1481 L 13.9091 25 L 14.8182 25 L 14.8182 23.1481 L 16.6364 23.1481 L 16.6364 25 L 17.5455 25 L 17.5455 23.1481 L 19.3636 23.1481 L 19.3636 25 L 20.2727 25 L 20.2727 23.1481 L 23 23.1481 L 23 22.2222 L 23 2.7778 L 23 1.8519 L 20.2727 1.8519 L 20.2727 0 L 19.3636 0 L 19.3636 1.8519 L 17.5455 1.8519 L 17.5455 0 L 16.6364 0 L 16.6364 1.8519 L 14.8182 1.8519 L 14.8182 0 L 13.9091 0 L 13.9091 1.8519 L 12.0909 1.8519 L 12.0909 0 L 11.1818 0 L 11.1818 1.8519 L 9.3636 1.8519 L 9.3636 0 L 8.4545 0 L 8.4545 1.8519 L 6.6364 1.8519 L 6.6364 0 L 5.7273 0 L 5.7273 1.8519 ZM 14.108 17.7373 C 14.5625 18.2581 15.2301 18.5185 16.0966 18.5185 L 16.0966 19.4444 L 16.8494 19.4444 L 16.8494 18.5185 C 17.7301 18.5185 18.4119 18.2581 18.8807 17.7083 C 19.3494 17.173 19.5909 16.4497 19.5909 15.5382 C 19.5909 14.5544 19.2216 13.831 18.5114 13.3681 C 18.2557 13.2089 17.7017 12.9774 16.8494 12.6881 L 16.8494 9.1869 C 17.2614 9.1869 17.6023 9.3605 17.8864 9.6933 C 18.1563 10.026 18.2983 10.4456 18.3125 10.9664 L 19.3068 10.9664 C 19.3068 10.1707 19.0795 9.5197 18.6534 9.0278 C 18.2131 8.5359 17.6165 8.2465 16.8494 8.1742 L 16.8494 7.4074 L 16.0966 7.4074 L 16.0966 8.1742 C 15.2727 8.2899 14.6477 8.5938 14.2216 9.0712 C 13.7955 9.5631 13.5824 10.1997 13.5824 10.9954 C 13.5824 11.8924 13.8807 12.5868 14.4915 13.0498 C 14.7614 13.2813 15.3011 13.5272 16.0966 13.7876 L 16.0966 17.6215 C 15.4716 17.5347 15.017 17.2598 14.7472 16.8113 C 14.6477 16.6667 14.5767 16.522 14.5483 16.3484 C 14.5199 16.1748 14.4773 15.842 14.4205 15.3356 L 13.4261 15.3356 C 13.4261 15.3646 13.4119 15.408 13.4119 15.4659 L 13.4119 15.5816 C 13.4119 16.4931 13.6392 17.2164 14.108 17.7373 ZM 15.0028 9.7512 C 15.2585 9.4618 15.6136 9.2737 16.0966 9.1869 L 16.0966 12.5868 C 15.1023 12.2975 14.6193 11.7332 14.6193 10.8796 C 14.6193 10.4167 14.7472 10.0405 15.0028 9.7512 ZM 16.8494 13.9178 C 17.5028 14.1348 17.9432 14.3663 18.1847 14.6267 C 18.4261 14.8872 18.554 15.2344 18.554 15.6973 C 18.554 16.2182 18.3977 16.6522 18.1136 16.9994 C 17.8153 17.3466 17.3892 17.5637 16.8494 17.6215 L 16.8494 13.9178 ZM 6.6364 18.5185 L 6.6364 19.4444 L 11.1818 19.4444 L 11.1818 18.5185 L 6.6364 18.5185 ZM 6.6364 15.7407 L 6.6364 16.6667 L 9.3636 16.6667 L 9.3636 15.7407 L 6.6364 15.7407 ZM 6.6364 12.963 L 6.6364 13.8889 L 10.2727 13.8889 L 10.2727 12.963 L 6.6364 12.963 ZM 6.6364 10.1852 L 6.6364 11.1111 L 11.1818 11.1111 L 11.1818 10.1852 L 6.6364 10.1852 ZM 6.6364 7.4074 L 6.6364 8.3333 L 12.0909 8.3333 L 12.0909 7.4074 L 6.6364 7.4074 ZM 23 23.1481 L 22.0909 23.1481 L 22.0909 25 L 23 25 L 23 23.1481 ZM 22.0909 0 L 22.0909 1.8519 L 23 1.8519 L 23 0 L 22.0909 0 ZM 3.9091 25 L 3.9091 23.1481 L 3 23.1481 L 3 25 L 3.9091 25 ZM 3 1.8519 L 3.9091 1.8519 L 3.9091 0 L 3 0 L 3 1.8519 Z" fill="#ffffff"/>
	</g>
</svg>