<?xml version="1.0" standalone="no"?>
<!-- Generator: Adobe Fireworks 10, Export SVG Extension by Aaron Beall (http://fireworks.abeall.com) . Version: 0.6.1  -->
<!DOCTYPE svg PUBLIC "-//W3C//DTD SVG 1.1//EN" "http://www.w3.org/Graphics/SVG/1.1/DTD/svg11.dtd">
<svg id="Icons.fw-recipient" viewBox="0 0 25 25" style="background-color:#ffffff00" version="1.1"
	xmlns="http://www.w3.org/2000/svg" xmlns:xlink="http://www.w3.org/1999/xlink" xml:space="preserve"
	x="0px" y="0px" width="25px" height="25px"
>
	<g id="Layer%20146">
		<g>
			<path d="M 14.415 6.2573 C 15.5248 5.7644 17.0892 6.3792 18.1784 6.6314 C 17.9854 7.6896 17.5792 8.153 16.9738 8.6507 C 16.4471 9.0842 15.8757 9.8718 15.0585 9.7457 C 14.8239 8.3375 15.4911 7.6299 14.9651 6.8319 C 14.619 6.3071 14.7969 7.0838 14.415 6.2573 ZM 19.0011 9.8108 C 19.3541 9.1151 19.7779 8.3943 20.3414 8.0727 C 23.3078 10.1173 24.4932 14.872 22.2949 18.7048 C 21.8392 19.4992 20.7128 20.8763 19.9536 21.2131 C 18.4401 15.546 18.5864 18.6457 16.31 17.0949 C 16.1611 16.0877 17.311 13.4689 17.7883 12.8419 C 18.3243 12.1375 17.9202 11.8176 19.815 10.6133 C 19.486 9.9761 19.4074 10.3673 19.0011 9.8108 ZM 15.1546 4.321 C 12.5544 4.321 10.1893 5.3407 8.4294 7.0063 L 9.0941 7.0063 C 9.7547 7.0063 10.356 7.2629 10.8075 7.6816 C 11.0719 7.615 11.3471 7.5883 11.6302 7.6097 C 12.6561 7.6873 13.4358 8.2374 13.4209 9.1691 C 12.1792 9.5205 12.59 9.0599 11.6515 8.8072 L 11.5344 8.8714 C 11.5954 9.0902 11.6281 9.3221 11.6281 9.5603 L 11.6241 9.6546 L 11.5102 10.9325 C 11.7429 10.6867 12.0165 10.3869 12.7609 10.3116 C 13.4511 10.5636 14.0472 11.0637 13.9788 11.8512 C 13.8772 13.0175 12.193 12.9017 11.2818 13.4869 L 11.0629 15.926 L 11.042 16.0914 C 10.9948 16.4117 10.8737 16.7063 10.6967 16.9582 C 11.574 16.9645 12.4182 16.8933 12.8965 17.5295 C 13.3629 18.1493 12.7938 18.0351 13.8705 18.4096 C 14.0465 18.471 14.4032 18.5502 14.5674 18.6407 C 16.2888 19.5913 13.5393 21.7955 12.946 22.4893 C 10.6783 22.1456 10.1214 20.1409 9.9404 18.0516 C 9.9267 17.8932 9.9053 17.7573 9.8763 17.6405 C 9.6346 17.7509 9.3688 17.8145 9.0921 17.8191 L 8.7721 21.8642 C 10.4908 23.3457 12.7196 24.2397 15.1546 24.2397 C 20.592 24.2397 25 19.7807 25 14.2803 C 25 8.7799 20.592 4.321 15.1546 4.321 Z" fill="#ffffff"/>
			<path d="M 5.3141 6.7332 C 3.4866 6.7332 2.0046 5.2358 2.0046 3.3949 C 2.0046 1.5476 3.4866 0.0498 5.3141 0.0498 C 7.1416 0.0498 8.6236 1.5476 8.6236 3.3949 C 8.6236 5.2358 7.1416 6.7332 5.3141 6.7332 ZM 10.0285 15.8316 L 10.015 15.9225 L 10.015 15.9369 C 9.946 16.4057 9.5444 16.7693 9.059 16.7693 L 8.7682 16.7693 L 8.727 16.7693 L 8.6858 16.7693 C 8.3741 16.7898 8.1246 17.0277 8.0834 17.3366 L 8.0834 17.3995 L 7.5641 23.9497 L 7.5499 24.1458 C 7.4674 24.6071 7.0726 24.9502 6.5946 24.9502 L 4.0396 24.9502 C 3.5555 24.9502 3.1539 24.5935 3.085 24.1246 L 3.0708 23.9708 L 2.5515 17.4131 L 2.5448 17.3222 C 2.5035 17.0208 2.2534 16.7898 1.9424 16.7693 L 1.9005 16.7693 L 1.8592 16.7693 L 1.5685 16.7693 C 1.0976 16.7693 0.7031 16.4262 0.6132 15.9711 L 0.5993 15.7824 L 0.0385 9.5603 C 0.0385 8.7279 0.7098 8.056 1.534 8.056 L 9.0941 8.056 C 9.9176 8.056 10.5896 8.7279 10.5896 9.5603 L 10.0285 15.8316 Z" fill="#ffffff"/>
		</g>
	</g>
</svg>