<?xml version="1.0" standalone="no"?>
<!-- Generator: Adobe Fireworks 10, Export SVG Extension by Aaron Beall (http://fireworks.abeall.com) . Version: 0.6.1  -->
<!DOCTYPE svg PUBLIC "-//W3C//DTD SVG 1.1//EN" "http://www.w3.org/Graphics/SVG/1.1/DTD/svg11.dtd">
<svg id="Icons.fw-reseller" viewBox="0 0 25 25" style="background-color:#ffffff00" version="1.1"
	xmlns="http://www.w3.org/2000/svg" xmlns:xlink="http://www.w3.org/1999/xlink" xml:space="preserve"
	x="0px" y="0px" width="25px" height="25px"
>
	<g id="Layer%20136">
		<path id="base72" d="M 24.9999 8.4921 C 24.9998 8.45 24.9988 8.4081 24.9967 8.3664 L 21.9765 4.826 L 3.0235 4.826 L 0.0021 8.4131 C 0.0012 8.4394 0.0001 8.4657 0.0001 8.4921 C 0.0001 8.4932 0 8.4942 0 8.4953 C 0 9.8646 1.1193 10.9746 2.5 10.9746 C 3.8807 10.9746 5 9.8646 5 8.4953 C 5 8.4942 4.9999 8.4932 4.9999 8.4921 L 5.0001 8.4921 C 5.0001 8.4932 5 8.4942 5 8.4953 C 5 9.8646 6.1193 10.9746 7.5 10.9746 C 8.8807 10.9746 10 9.8646 10 8.4953 C 10 8.4942 9.9999 8.4932 9.9999 8.4921 L 10.0001 8.4921 C 10.0001 8.4932 10 8.4942 10 8.4953 C 10 9.8646 11.1193 10.9746 12.5 10.9746 C 13.8807 10.9746 15 9.8646 15 8.4953 C 15 8.4942 14.9999 8.4932 14.9999 8.4921 L 15.0001 8.4921 C 15.0001 8.4932 15 8.4942 15 8.4953 C 15 9.8646 16.1193 10.9746 17.5 10.9746 C 18.8807 10.9746 20 9.8646 20 8.4953 C 20 8.4942 19.9999 8.4932 19.9999 8.4921 L 20 8.4921 C 20 8.4932 20 8.4942 20 8.4953 C 20 9.8646 21.1193 10.9746 22.5001 10.9746 C 23.8807 10.9746 25 9.8646 25 8.4953 C 25 8.4942 24.9999 8.4932 24.9999 8.4921 ZM 21.9765 2.7638 C 21.9765 2.3437 21.6299 2 21.2063 2 L 3.7937 2 C 3.3701 2 3.0235 2.3437 3.0235 2.7638 L 3.0235 3.7758 L 21.9765 3.7758 L 21.9765 2.7638 ZM 20.2614 17.4284 L 4.7816 17.4284 L 4.7816 11.8446 C 4.3042 12.2635 3.6951 12.5378 3.0235 12.5984 L 3.0235 23.2362 C 3.0235 23.6563 3.3701 24 3.7937 24 L 21.2063 24 C 21.6299 24 21.9765 23.6563 21.9765 23.2362 L 21.9765 12.5946 C 21.3218 12.5264 20.7286 12.2546 20.2614 11.8446 L 20.2614 17.4284 Z" fill="#ffffff"/>
	</g>
</svg>