<?xml version="1.0" standalone="no"?>
<!-- Generator: Adobe Fireworks 10, Export SVG Extension by Aaron Beall (http://fireworks.abeall.com) . Version: 0.6.1  -->
<!DOCTYPE svg PUBLIC "-//W3C//DTD SVG 1.1//EN" "http://www.w3.org/Graphics/SVG/1.1/DTD/svg11.dtd">
<svg id="Icons.fw-search" viewBox="0 0 25 25" style="background-color:#ffffff00" version="1.1"
	xmlns="http://www.w3.org/2000/svg" xmlns:xlink="http://www.w3.org/1999/xlink" xml:space="preserve"
	x="0px" y="0px" width="25px" height="25px"
>
	<g id="Layer%20149">
		<path d="M 4.6293 6.446 C 7.1668 3.4457 11.6831 3.1327 14.6793 5.7091 C 17.6324 8.2481 17.9989 12.6502 15.5342 15.5777 C 13.0664 18.5086 8.6435 18.9135 5.6183 16.4469 C 2.5488 13.944 2.0886 9.4499 4.6293 6.446 ZM 2.3366 4.5217 C -1.2738 8.7905 -0.6199 15.1767 3.7421 18.7336 C 7.4076 21.7225 12.5194 21.744 16.1194 19.1032 L 22.3708 24 L 25 21.0451 L 18.8022 16.1244 C 21.1847 12.0539 20.3743 6.704 16.618 3.4745 C 12.3603 -0.1867 5.9424 0.2581 2.3366 4.5217 Z" fill="#ffffff"/>
	</g>
</svg>