<?xml version="1.0" standalone="no"?>
<!-- Generator: Adobe Fireworks 10, Export SVG Extension by Aaron Beall (http://fireworks.abeall.com) . Version: 0.6.1  -->
<!DOCTYPE svg PUBLIC "-//W3C//DTD SVG 1.1//EN" "http://www.w3.org/Graphics/SVG/1.1/DTD/svg11.dtd">
<svg id="Icons.fw-secure" viewBox="0 0 25 25" style="background-color:#ffffff00" version="1.1"
	xmlns="http://www.w3.org/2000/svg" xmlns:xlink="http://www.w3.org/1999/xlink" xml:space="preserve"
	x="0px" y="0px" width="25px" height="25px"
>
	<g id="Layer%2015">
		<g id="base49">
			<path d="M 19.2879 15.3935 C 19.2815 15.705 19.1066 16.2537 18.7773 16.2552 C 18.3999 16.2569 18.2951 15.7145 18.2575 15.4176 C 18.1175 14.3228 18.1182 13.2092 17.9698 12.1163 C 17.5699 9.1649 15.4274 7.1314 12.7014 7.0519 C 9.5094 6.9584 6.9742 9.5257 7.057 12.7505 C 7.0918 14.1143 7.2289 15.4947 7.074 16.8383 C 6.8757 18.5552 5.967 19.9892 4.6796 21.1345 C 4.454 21.3354 3.936 21.6585 3.71 21.4031 C 3.4039 21.0571 3.7712 20.6425 3.9756 20.446 C 5.9666 18.5306 6.4983 16.1984 6.0981 13.537 C 5.5601 9.9603 7.9591 6.6444 11.4251 6.1075 C 15.0183 5.551 18.2939 7.8939 18.9109 11.4928 C 19.0781 12.4675 19.2175 13.2348 19.2688 14.4422 C 19.2693 14.4539 19.294 15.0979 19.2879 15.3935 Z" fill="#cc0000"/>
			<path d="M 11.9712 1.038 C 10.2462 1.014 8.2822 1.6293 6.461 2.7443 C 6.3315 2.8238 6.1621 2.9619 6.0429 3.025 C 5.7853 3.1617 5.4351 3.2857 5.2426 2.9261 C 5.0625 2.5896 5.3146 2.2806 5.5244 2.1567 C 6.7351 1.4417 8.5106 0.5623 10.101 0.247 C 17.5771 -1.2356 24.4239 4.1258 24.9606 11.7536 C 24.9968 12.2666 25.1353 13.137 24.53 13.1851 C 23.9692 13.2297 23.9638 12.3588 23.9446 11.8503 C 23.7225 5.9255 18.4887 1.0153 11.9712 1.038 Z" fill="#cc0000"/>
			<path d="M 16.3277 15.2053 C 16.2766 18.5395 15.3904 21.6077 13.5917 24.3948 C 13.4064 24.6822 12.8664 25.072 12.7153 24.9885 C 12.334 24.7778 12.5164 24.2122 12.7476 23.8395 C 14.8556 20.4384 15.6564 16.76 15.0353 12.7942 C 14.9434 12.206 14.759 11.5895 14.4528 11.0878 C 13.9283 10.2287 12.79 9.8902 11.8502 10.1743 C 10.788 10.4954 10.1697 11.3 10.0508 12.4189 C 10.0019 12.8788 10.0957 13.7065 9.4897 13.5982 C 9.0949 13.5277 8.9956 12.7291 9.0226 12.2773 C 9.1327 10.4486 10.5728 9.1113 12.378 9.0386 C 14.115 8.9679 15.6187 10.1638 15.9428 11.9186 C 16.1511 13.0461 16.2035 14.1087 16.3277 15.2053 Z" fill="#cc0000"/>
			<path d="M 22.2503 15.29 C 22.1974 17.1166 22.0438 18.6376 21.5578 20.6439 C 21.4921 20.9152 21.2071 21.5182 20.9056 21.4934 C 20.5693 21.4658 20.5279 20.833 20.5869 20.5262 C 21.018 18.284 21.3054 16.8661 21.3295 14.7113 C 21.3518 12.7391 20.8696 10.1144 19.8548 8.336 C 18.9583 6.7651 17.6762 5.6375 16.0858 4.8099 C 15.765 4.6432 15.1347 4.2353 15.3377 3.8927 C 15.5733 3.4949 16.2066 3.7715 16.5363 3.9306 C 19.5072 5.3658 21.2915 7.9082 21.9839 11.0988 C 22.2576 12.3599 22.3035 13.4513 22.2503 15.29 Z" fill="#cc0000"/>
			<path d="M 12.5732 4.0563 C 8.9689 3.9824 5.7204 6.3059 4.4992 9.779 C 4.3373 10.2388 4.1544 11.1268 3.5895 10.904 C 3.0585 10.6945 3.3947 9.8832 3.5506 9.417 C 4.9406 5.273 9.2233 2.5137 13.3555 3.0866 C 13.7037 3.1347 14.3726 3.2282 14.3483 3.6059 C 14.3224 4.0087 14.0697 4.0428 13.5722 4.0917 C 13.3594 4.1126 12.7999 4.067 12.5732 4.0563 Z" fill="#cc0000"/>
			<path d="M 13.226 15.386 C 13.23 18.6721 12.1764 21.5894 10.0966 24.1137 C 9.8902 24.3638 9.3672 24.7428 9.1072 24.4857 C 8.8403 24.2218 9.1452 23.7454 9.3472 23.4832 C 11.645 20.5009 12.5879 17.1648 12.1243 13.4093 C 12.0728 12.9956 12.0781 12.2441 12.4333 12.1706 C 13.1737 12.0172 13.1776 13.1718 13.2206 13.8989 C 13.2499 14.3936 13.226 14.8907 13.226 15.386 Z" fill="#cc0000"/>
			<path d="M 0 12.9179 C 0.0671 9.2584 1.1346 6.434 3.3251 4.0728 C 3.5518 3.8282 4.141 3.4097 4.4275 3.7217 C 4.6719 3.9878 4.2959 4.4656 4.0861 4.7038 C 1.4599 7.6842 0.5809 11.1194 1.2798 15.0165 C 1.3284 15.2868 1.221 15.8592 0.899 15.9236 C 0.5023 16.0031 0.3598 15.475 0.3077 15.2073 C 0.1333 14.3134 0.0596 13.3998 0 12.9179 Z" fill="#cc0000"/>
			<path d="M 10.3137 15.5831 C 10.1563 18.5193 9.1211 20.873 7.2625 22.8054 C 7.0021 23.0764 6.4451 23.5779 6.1495 23.2942 C 5.8428 23 6.2439 22.4212 6.4814 22.1604 C 7.6555 20.8692 8.4717 19.3961 8.8896 17.7068 C 9.0433 17.0866 9.0251 16.42 9.1973 15.8067 C 9.3109 15.4017 9.4453 14.6972 9.8475 14.6803 C 10.2534 14.6634 10.3435 15.0273 10.3137 15.5831 Z" fill="#cc0000"/>
			<path d="M 4.1849 14.4732 C 4.4148 16.2136 3.9283 17.6367 2.7542 18.7971 C 2.5688 18.9803 2.1449 19.2282 1.9063 19.048 C 1.5904 18.8094 1.8426 18.3399 2.0026 18.1788 C 3.3339 16.8345 3.3386 15.2173 3.1033 13.5053 C 3.0337 12.9982 2.9719 12.0752 3.4213 12.0474 C 4.0558 12.0083 4.0096 12.8939 4.1181 13.4245 C 4.1934 13.7921 4.1692 14.18 4.1849 14.4732 Z" fill="#cc0000"/>
			<path d="M 19.1711 18.1093 C 19.1069 18.3 19.0337 18.6468 18.8988 19.0785 C 18.3546 20.8187 17.9615 22.0721 17.3572 23.7423 C 17.2756 23.9671 16.899 24.3587 16.6153 24.2357 C 16.3365 24.1148 16.3941 23.6008 16.467 23.3335 C 16.9642 21.5027 17.4974 19.6821 18.0602 17.8711 C 18.1327 17.6379 18.4199 17.0761 18.7752 17.1459 C 19.1629 17.222 19.2964 17.6271 19.1711 18.1093 Z" fill="#cc0000"/>
		</g>
	</g>
</svg>