<?xml version="1.0" standalone="no"?>
<!-- Generator: Adobe Fireworks 10, Export SVG Extension by Aaron Beall (http://fireworks.abeall.com) . Version: 0.6.1  -->
<!DOCTYPE svg PUBLIC "-//W3C//DTD SVG 1.1//EN" "http://www.w3.org/Graphics/SVG/1.1/DTD/svg11.dtd">
<svg id="Icons.fw-security-code" viewBox="0 0 25 25" style="background-color:#ffffff00" version="1.1"
	xmlns="http://www.w3.org/2000/svg" xmlns:xlink="http://www.w3.org/1999/xlink" xml:space="preserve"
	x="0px" y="0px" width="25px" height="25px"
>
	<g id="sequrity-code">
		<path id="Shape%2041" d="M 12.5 0 C 5.5969 0 0 5.5969 0 12.5 C 0 19.4038 5.5969 25 12.5 25 C 19.4031 25 25 19.4038 25 12.5 C 25 5.5969 19.4031 0 12.5 0 ZM 16.0415 18 L 8.9673 18 L 11.2324 11.5317 C 10.1367 11.0459 9.375 10.1509 9.375 8.875 C 9.375 7.1494 10.7627 5.8164 12.4868 5.8164 C 14.2144 5.8164 15.625 7.1494 15.625 8.875 C 15.625 10.1509 14.8591 10.9941 13.7634 11.48 L 16.0415 18 Z" fill="#757584"/>
	</g>
</svg>