<?xml version="1.0" standalone="no"?>
<!-- Generator: Adobe Fireworks 10, Export SVG Extension by Aaron Beall (http://fireworks.abeall.com) . Version: 0.6.1  -->
<!DOCTYPE svg PUBLIC "-//W3C//DTD SVG 1.1//EN" "http://www.w3.org/Graphics/SVG/1.1/DTD/svg11.dtd">
<svg id="Icons.fw-share-your-number" viewBox="0 0 25 25" style="background-color:#ffffff00" version="1.1"
	xmlns="http://www.w3.org/2000/svg" xmlns:xlink="http://www.w3.org/1999/xlink" xml:space="preserve"
	x="0px" y="0px" width="25px" height="25px"
>
	<g id="share-your-number">
		<path d="M 14 7.5 C 14 6.1191 15.1191 5 16.5 5 C 17.8809 5 19 6.1191 19 7.5 C 19 8.8809 17.8809 10 16.5 10 C 15.729 10 15.0386 9.6489 14.5798 9.1 L 8.9548 12.0349 C 8.9832 12.1857 9 12.3409 9 12.5 C 9 12.7584 8.9626 13.0103 8.8899 13.245 L 14.5049 15.995 C 14.9607 15.39 15.6843 15 16.5 15 C 17.8809 15 19 16.1191 19 17.5 C 19 18.8809 17.8809 20 16.5 20 C 15.1191 20 14 18.8809 14 17.5 C 14 17.2925 14.0273 17.0927 14.075 16.8999 L 8.405 14.12 C 7.9465 14.6589 7.2632 15 6.5 15 C 5.1191 15 4 13.8809 4 12.5 C 4 11.1191 5.1191 10 6.5 10 C 7.364 10 8.126 10.4388 8.575 11.105 L 14.105 8.22 C 14.0364 7.9917 14 7.7506 14 7.5 ZM 12.4995 0.002 C 5.593 0.002 0.0005 5.5991 0.0005 12.501 C 0.0005 19.4028 5.593 25 12.4995 25 C 19.4016 25 24.9988 19.4028 24.9988 12.501 C 24.9988 5.5991 19.4016 0.002 12.4995 0.002 Z" fill="#757584"/>
	</g>
</svg>