<?xml version="1.0" standalone="no"?>
<!-- Generator: Adobe Fireworks 10, Export SVG Extension by Aaron Beall (http://fireworks.abeall.com) . Version: 0.6.1  -->
<!DOCTYPE svg PUBLIC "-//W3C//DTD SVG 1.1//EN" "http://www.w3.org/Graphics/SVG/1.1/DTD/svg11.dtd">
<svg id="Icons.fw-sms" viewBox="0 0 25 25" style="background-color:#ffffff00" version="1.1"
	xmlns="http://www.w3.org/2000/svg" xmlns:xlink="http://www.w3.org/1999/xlink" xml:space="preserve"
	x="0px" y="0px" width="25px" height="25px"
>
	<g id="Layer%2019">
		<g id="base53">
			<path d="M 3.6345 0 C 1.6273 0 0 1.6626 0 3.7133 L 0 11.1718 C 0 13.2226 1.6273 14.8851 3.6345 14.8851 L 14.1277 14.8851 L 9.3214 25 C 9.3214 25 22.0313 14.8851 22.9453 13.8295 C 22.9453 13.8295 24 12.3445 24 11.1718 L 24 3.159 C 24 1.1083 22.3727 0 20.3655 0 L 3.6345 0 Z" fill="#1e90ff"/>
			<g>
				<path d="M 4.7436 9.8509 C 5.1508 10.1492 5.7247 10.2985 6.4465 10.2985 C 7.1684 10.2985 7.7329 10.1586 8.1401 9.8695 C 8.5474 9.5897 8.751 9.1795 8.751 8.6573 C 8.751 8.2563 8.6306 7.9486 8.3993 7.7342 C 8.1586 7.5197 7.7792 7.3612 7.261 7.2679 L 6.3817 7.1094 C 5.9745 7.0348 5.6876 6.9509 5.5395 6.8577 C 5.3914 6.7644 5.3174 6.6245 5.3174 6.438 C 5.3174 6.2422 5.4007 6.0836 5.5766 5.9717 C 5.7524 5.8598 5.993 5.7946 6.2892 5.7946 C 6.6594 5.7946 6.9463 5.8692 7.1591 6.0091 C 7.3627 6.1489 7.4738 6.3448 7.4738 6.5965 L 8.5474 6.5965 C 8.5474 6.0557 8.353 5.6454 7.9643 5.3564 C 7.5756 5.0766 7.0296 4.9274 6.3447 4.9274 C 5.6691 4.9274 5.1416 5.0673 4.7714 5.3471 C 4.4012 5.6268 4.2161 6.0184 4.2161 6.522 C 4.2161 6.9322 4.3364 7.24 4.577 7.4451 C 4.8177 7.6595 5.2249 7.818 5.7987 7.9114 L 6.5853 8.0605 C 6.974 8.1352 7.2517 8.219 7.409 8.3122 C 7.5571 8.4149 7.6404 8.5641 7.6404 8.7692 C 7.6404 8.9836 7.5386 9.1515 7.335 9.2634 C 7.1314 9.3753 6.863 9.4312 6.5113 9.4312 C 6.1041 9.4312 5.7987 9.3567 5.5766 9.2074 C 5.3545 9.0583 5.2434 8.8438 5.2434 8.5641 L 4.1235 8.5641 C 4.1235 9.1236 4.3271 9.5525 4.7436 9.8509 L 4.7436 9.8509 Z" fill="#ffffff"/>
				<path d="M 10.8703 10.2985 L 10.8703 6.1769 L 11.8791 10.2985 L 13.0359 10.2985 L 14.0262 6.1769 L 14.0262 10.2985 L 15.1831 10.2985 L 15.1831 4.9274 L 13.4431 4.9274 L 12.4529 9.2168 L 11.4348 4.9274 L 9.7135 4.9274 L 9.7135 10.2985 L 10.8703 10.2985 L 10.8703 10.2985 Z" fill="#ffffff"/>
				<path d="M 16.5898 9.8509 C 16.997 10.1492 17.5708 10.2985 18.2926 10.2985 C 19.0145 10.2985 19.5791 10.1586 19.9863 9.8695 C 20.3935 9.5897 20.5971 9.1795 20.5971 8.6573 C 20.5971 8.2563 20.4768 7.9486 20.2454 7.7342 C 20.0048 7.5197 19.6253 7.3612 19.1071 7.2679 L 18.2279 7.1094 C 17.8206 7.0348 17.5338 6.9509 17.3857 6.8577 C 17.2376 6.7644 17.1636 6.6245 17.1636 6.438 C 17.1636 6.2422 17.2469 6.0836 17.4227 5.9717 C 17.5985 5.8598 17.8392 5.7946 18.1353 5.7946 C 18.5055 5.7946 18.7924 5.8692 19.0053 6.0091 C 19.2089 6.1489 19.32 6.3448 19.32 6.5965 L 20.3935 6.5965 C 20.3935 6.0557 20.1991 5.6454 19.8105 5.3564 C 19.4218 5.0766 18.8757 4.9274 18.1908 4.9274 C 17.5153 4.9274 16.9877 5.0673 16.6176 5.3471 C 16.2474 5.6268 16.0622 6.0184 16.0622 6.522 C 16.0622 6.9322 16.1826 7.24 16.4232 7.4451 C 16.6638 7.6595 17.071 7.818 17.6448 7.9114 L 18.4315 8.0605 C 18.8202 8.1352 19.0978 8.219 19.2551 8.3122 C 19.4032 8.4149 19.4865 8.5641 19.4865 8.7692 C 19.4865 8.9836 19.3847 9.1515 19.1811 9.2634 C 18.9775 9.3753 18.7091 9.4312 18.3575 9.4312 C 17.9502 9.4312 17.6448 9.3567 17.4227 9.2074 C 17.2006 9.0583 17.0896 8.8438 17.0896 8.5641 L 15.9697 8.5641 C 15.9697 9.1236 16.1733 9.5525 16.5898 9.8509 L 16.5898 9.8509 Z" fill="#ffffff"/>
			</g>
		</g>
	</g>
</svg>