<?xml version="1.0" standalone="no"?>
<!-- Generator: Adobe Fireworks 10, Export SVG Extension by Aaron Beall (http://fireworks.abeall.com) . Version: 0.6.1  -->
<!DOCTYPE svg PUBLIC "-//W3C//DTD SVG 1.1//EN" "http://www.w3.org/Graphics/SVG/1.1/DTD/svg11.dtd">
<svg id="Icons.fw-social-pn" viewBox="0 0 25 25" style="background-color:#ffffff00" version="1.1"
	xmlns="http://www.w3.org/2000/svg" xmlns:xlink="http://www.w3.org/1999/xlink" xml:space="preserve"
	x="0px" y="0px" width="25px" height="25px"
>
	<path id="base" d="M 12.5 0 C 5.5966 0 0 5.5979 0 12.5005 C 0 19.4041 5.5966 25 12.5 25 C 19.4034 25 25 19.4041 25 12.5005 C 25 5.5979 19.4034 0 12.5 0 ZM 13.6996 15.963 C 12.7355 15.963 11.8278 15.4422 11.518 14.8498 C 11.518 14.8498 10.9995 16.9076 10.8894 17.3049 C 10.5033 18.7084 9.3656 20.1133 9.2773 20.228 C 9.2154 20.3081 9.0796 20.2828 9.0652 20.1765 C 9.0404 19.998 8.7504 18.2272 9.0919 16.7827 C 9.263 16.0572 10.241 11.9158 10.241 11.9158 C 10.241 11.9158 9.956 11.3452 9.956 10.5022 C 9.956 9.1786 10.7234 8.1903 11.6781 8.1903 C 12.4901 8.1903 12.8827 8.8001 12.8827 9.5308 C 12.8827 10.348 12.3627 11.5693 12.094 12.7005 C 11.8704 13.6484 12.5689 14.4212 13.5038 14.4212 C 15.1952 14.4212 16.3359 12.2472 16.3359 9.6718 C 16.3359 7.7151 15.0182 6.2493 12.619 6.2493 C 9.9109 6.2493 8.222 8.2699 8.222 10.527 C 8.222 11.3053 8.452 11.8546 8.8114 12.2789 C 8.9769 12.4742 8.9997 12.5523 8.9403 12.7761 C 8.8961 12.9415 8.799 13.3368 8.7573 13.4932 C 8.6983 13.7198 8.5149 13.8003 8.3102 13.7165 C 7.063 13.2074 6.4815 11.8407 6.4815 10.3049 C 6.4815 7.7677 8.621 4.7251 12.8644 4.7251 C 16.2744 4.7251 18.5185 7.1924 18.5185 9.8421 C 18.5185 13.3457 16.5703 15.963 13.6996 15.963 Z" fill="#ffffff"/>
</svg>