<?xml version="1.0" standalone="no"?>
<!-- Generator: Adobe Fireworks 10, Export SVG Extension by Aaron Beall (http://fireworks.abeall.com) . Version: 0.6.1  -->
<!DOCTYPE svg PUBLIC "-//W3C//DTD SVG 1.1//EN" "http://www.w3.org/Graphics/SVG/1.1/DTD/svg11.dtd">
<svg id="Icons.fw-social-yt" viewBox="0 0 25 25" style="background-color:#ffffff00" version="1.1"
	xmlns="http://www.w3.org/2000/svg" xmlns:xlink="http://www.w3.org/1999/xlink" xml:space="preserve"
	x="0px" y="0px" width="25px" height="25px"
>
	<g id="base">
		<path d="M 7.1631 13.5519 L 8.0683 13.5519 L 8.0683 18.0481 L 8.9427 18.0481 L 8.9427 13.5519 L 9.8474 13.5519 L 9.8474 12.7865 L 7.1631 12.7865 L 7.1631 13.5519 Z" fill="#ffffff"/>
		<path d="M 12.5342 9.8162 C 12.6527 9.8162 12.7469 9.7845 12.8163 9.72 C 12.8862 9.6536 12.9214 9.5634 12.9214 9.4494 L 12.9214 7.1195 C 12.9214 7.0263 12.8857 6.95 12.8143 6.8934 C 12.7434 6.8349 12.6497 6.8062 12.5342 6.8062 C 12.4276 6.8062 12.3414 6.8349 12.274 6.8934 C 12.208 6.95 12.1748 7.0263 12.1748 7.1195 L 12.1748 9.4494 C 12.1748 9.5663 12.2055 9.6566 12.268 9.72 C 12.3295 9.7845 12.4187 9.8162 12.5342 9.8162 Z" fill="#ffffff"/>
		<path d="M 14.4625 14.119 C 14.3416 14.119 14.2226 14.1497 14.1041 14.2112 C 13.9881 14.2727 13.8766 14.3639 13.772 14.4819 L 13.772 12.7865 L 12.9878 12.7865 L 12.9878 18.0481 L 13.772 18.0481 L 13.772 17.7506 C 13.8731 17.8706 13.9847 17.9578 14.1036 18.0144 C 14.2211 18.0709 14.357 18.0986 14.5096 18.0986 C 14.7387 18.0986 14.9161 18.0263 15.0366 17.8795 C 15.1585 17.7318 15.2195 17.5216 15.2195 17.247 L 15.2195 15.0926 C 15.2195 14.7744 15.1551 14.5324 15.0247 14.3679 C 14.8958 14.2023 14.7079 14.119 14.4625 14.119 ZM 14.4194 17.1399 C 14.4194 17.2648 14.3966 17.3531 14.3525 17.4076 C 14.3074 17.4631 14.2385 17.4899 14.1428 17.4899 C 14.0774 17.4899 14.0159 17.475 13.9554 17.4482 C 13.8959 17.4215 13.834 17.3739 13.772 17.3114 L 13.772 14.8933 C 13.8246 14.8388 13.8781 14.7991 13.9316 14.7744 C 13.9857 14.7476 14.0407 14.7357 14.0962 14.7357 C 14.2008 14.7357 14.2816 14.7694 14.3381 14.8358 C 14.3926 14.9042 14.4194 15.0034 14.4194 15.1352 L 14.4194 17.1399 Z" fill="#ffffff"/>
		<path d="M 11.628 17.1161 C 11.5552 17.1994 11.4754 17.2678 11.3876 17.3233 C 11.3004 17.3779 11.227 17.4046 11.1715 17.4046 C 11.0986 17.4046 11.0456 17.3848 11.0119 17.3432 C 10.9806 17.3025 10.9638 17.2361 10.9638 17.1449 L 10.9638 14.1666 L 10.188 14.1666 L 10.188 17.4126 C 10.188 17.6446 10.2336 17.8151 10.3243 17.9331 C 10.416 18.0481 10.5498 18.1056 10.7298 18.1056 C 10.8755 18.1056 11.0257 18.0659 11.1804 17.9826 C 11.3356 17.8984 11.4843 17.7794 11.628 17.6227 L 11.628 18.0481 L 12.4043 18.0481 L 12.4043 14.1666 L 11.628 14.1666 L 11.628 17.1161 Z" fill="#ffffff"/>
		<path d="M 12.5 0 C 5.5966 0 0 5.5966 0 12.5 C 0 19.4043 5.5966 25 12.5 25 C 19.4034 25 25 19.4043 25 12.5 C 25 5.5966 19.4034 0 12.5 0 ZM 14.52 6.1737 L 15.392 6.1737 L 15.392 9.4523 C 15.392 9.5545 15.4118 9.6268 15.4485 9.6714 C 15.4842 9.717 15.5442 9.7408 15.626 9.7408 C 15.6899 9.7408 15.7712 9.7101 15.8699 9.6506 C 15.9675 9.5891 16.0578 9.5128 16.1386 9.4186 L 16.1386 6.1737 L 17.013 6.1737 L 17.013 10.4497 L 16.1386 10.4497 L 16.1386 9.9778 C 15.9789 10.1513 15.8114 10.2851 15.6364 10.3754 C 15.4624 10.4656 15.2939 10.5122 15.1298 10.5122 C 14.927 10.5122 14.7753 10.4477 14.6727 10.3198 C 14.5711 10.1939 14.52 10.0036 14.52 9.7468 L 14.52 6.1737 ZM 11.2756 7.1512 C 11.2756 6.8211 11.3931 6.5573 11.628 6.3591 C 11.8635 6.1647 12.1798 6.0656 12.5763 6.0656 C 12.9382 6.0656 13.2342 6.1697 13.4662 6.3759 C 13.6957 6.5821 13.8112 6.8498 13.8112 7.177 L 13.8112 9.3849 C 13.8112 9.7517 13.6977 10.0383 13.4726 10.2455 C 13.2451 10.4527 12.9338 10.5568 12.5367 10.5568 C 12.155 10.5568 11.8486 10.4497 11.6196 10.2366 C 11.3906 10.0204 11.2756 9.7309 11.2756 9.3681 L 11.2756 7.1512 ZM 8.8961 4.6538 L 9.5351 6.9698 L 9.5971 6.9698 L 10.2053 4.6538 L 11.2047 4.6538 L 10.0601 8.0455 L 10.0601 10.4497 L 9.0766 10.4497 L 9.0766 8.1526 L 7.9057 4.6538 L 8.8961 4.6538 ZM 20.3378 16.8534 C 20.3378 18.4 19.0836 19.6552 17.5365 19.6552 L 7.8026 19.6552 C 6.255 19.6552 5.0008 18.4 5.0008 16.8534 L 5.0008 14.6008 C 5.0008 13.0532 6.255 11.7991 7.8026 11.7991 L 17.5365 11.7991 C 19.0836 11.7991 20.3378 13.0532 20.3378 14.6008 L 20.3378 16.8534 Z" fill="#ffffff"/>
		<path d="M 16.8048 14.0704 C 16.4573 14.0704 16.1752 14.1755 15.9556 14.3887 C 15.736 14.5999 15.6255 14.8755 15.6255 15.2096 L 15.6255 16.9545 C 15.6255 17.3293 15.7266 17.6227 15.9254 17.8349 C 16.1247 18.0481 16.3988 18.1551 16.7468 18.1551 C 17.1335 18.1551 17.4235 18.055 17.6173 17.8547 C 17.8136 17.6525 17.9093 17.3531 17.9093 16.9545 L 17.9093 16.7552 L 17.1117 16.7552 L 17.1117 16.9317 C 17.1117 17.1607 17.0844 17.3085 17.0343 17.3749 C 16.9833 17.4413 16.893 17.475 16.7647 17.475 C 16.6407 17.475 16.553 17.4363 16.5014 17.358 C 16.4509 17.2777 16.4261 17.1369 16.4261 16.9317 L 16.4261 16.201 L 17.9093 16.201 L 17.9093 15.2096 C 17.9093 14.8428 17.8151 14.5612 17.6237 14.3639 C 17.4334 14.1686 17.1602 14.0704 16.8048 14.0704 ZM 17.1117 15.5972 L 16.4261 15.5972 L 16.4261 15.2046 C 16.4261 15.042 16.4514 14.9241 16.5059 14.8566 C 16.5599 14.7843 16.6482 14.7496 16.7721 14.7496 C 16.8896 14.7496 16.9773 14.7843 17.0299 14.8566 C 17.0839 14.9241 17.1117 15.042 17.1117 15.2046 L 17.1117 15.5972 Z" fill="#ffffff"/>
	</g>
</svg>