<?xml version="1.0" standalone="no"?>
<!-- Generator: Adobe Fireworks 10, Export SVG Extension by Aaron Beall (http://fireworks.abeall.com) . Version: 0.6.1  -->
<!DOCTYPE svg PUBLIC "-//W3C//DTD SVG 1.1//EN" "http://www.w3.org/Graphics/SVG/1.1/DTD/svg11.dtd">
<svg id="Icons.fw-social-fb" viewBox="0 0 25 25" style="background-color:#ffffff00" version="1.1"
	xmlns="http://www.w3.org/2000/svg" xmlns:xlink="http://www.w3.org/1999/xlink" xml:space="preserve"
	x="0px" y="0px" width="25px" height="25px"
>
	<path id="base" d="M 12.5 0 C 5.5966 0 0 5.5979 0 12.5005 C 0 19.4041 5.5966 25 12.5 25 C 19.4034 25 25 19.4041 25 12.5005 C 25 5.5979 19.4034 0 12.5 0 ZM 15.8089 12.4479 L 13.6446 12.4479 C 13.6446 15.9072 13.6446 20.1676 13.6446 20.1676 L 10.4358 20.1676 C 10.4358 20.1676 10.4358 15.9508 10.4358 12.4479 L 8.9105 12.4479 L 8.9105 9.7224 L 10.4358 9.7224 L 10.4358 7.9566 C 10.4358 6.6924 11.0361 4.7194 13.6739 4.7194 L 16.0493 4.7283 L 16.0493 7.3756 C 16.0493 7.3756 14.6048 7.3756 14.3242 7.3756 C 14.0432 7.3756 13.6446 7.5164 13.6446 8.1172 L 13.6446 9.7224 L 16.09 9.7224 L 15.8089 12.4479 Z" fill="#ffffff"/>
</svg>