<?xml version="1.0" standalone="no"?>
<!-- Generator: Adobe Fireworks 10, Export SVG Extension by Aaron Beall (http://fireworks.abeall.com) . Version: 0.6.1  -->
<!DOCTYPE svg PUBLIC "-//W3C//DTD SVG 1.1//EN" "http://www.w3.org/Graphics/SVG/1.1/DTD/svg11.dtd">
<svg id="Icons.fw-social-tw" viewBox="0 0 25 25" style="background-color:#ffffff00" version="1.1"
	xmlns="http://www.w3.org/2000/svg" xmlns:xlink="http://www.w3.org/1999/xlink" xml:space="preserve"
	x="0px" y="0px" width="25px" height="25px"
>
	<path id="base" d="M 12.5005 0 C 5.5969 0 0 5.5979 0 12.5005 C 0 19.4041 5.5969 25 12.5005 25 C 19.4041 25 25 19.4041 25 12.5005 C 25 5.5979 19.4041 0 12.5005 0 ZM 18.7978 9.9802 C 18.804 10.1155 18.8065 10.2513 18.8065 10.3877 C 18.8065 14.5509 15.638 19.3511 9.8436 19.3511 C 8.0646 19.3511 6.4086 18.8296 5.0144 17.9358 C 5.261 17.9645 5.5116 17.9794 5.7657 17.9794 C 7.242 17.9794 8.6003 17.4757 9.6783 16.631 C 8.2999 16.6052 7.1366 15.6945 6.7358 14.4433 C 6.9279 14.4805 7.125 14.4998 7.3285 14.4998 C 7.616 14.4998 7.8941 14.4616 8.1586 14.3893 C 6.717 14.0997 5.6311 12.8262 5.6311 11.3008 C 5.6311 11.2869 5.6311 11.274 5.6316 11.2607 C 6.0562 11.4966 6.542 11.6384 7.0585 11.6553 C 6.2131 11.0891 5.6569 10.1259 5.6569 9.0328 C 5.6569 8.4553 5.8123 7.9139 6.0834 7.4489 C 7.6371 9.355 9.9586 10.6088 12.5768 10.7401 C 12.5231 10.5096 12.4953 10.2692 12.4953 10.0223 C 12.4953 8.2828 13.9059 6.8724 15.6454 6.8724 C 16.5517 6.8724 17.3704 7.2551 17.9447 7.8668 C 18.6628 7.7261 19.3367 7.4633 19.9455 7.1024 C 19.71 7.8386 19.2105 8.4558 18.5599 8.8454 C 19.1977 8.7691 19.8047 8.5995 20.3696 8.3492 C 19.9477 8.9808 19.413 9.536 18.7978 9.9802 Z" fill="#ffffff"/>
</svg>