<?xml version="1.0" encoding="utf-8"?>
<!-- Generator: Adobe Illustrator 19.0.1, SVG Export Plug-In . SVG Version: 6.00 Build 0)  -->
<svg version="1.1" id="Layer_1" xmlns="http://www.w3.org/2000/svg" xmlns:xlink="http://www.w3.org/1999/xlink" x="0px" y="0px"
	 viewBox="0 0 135 135" style="enable-background:new 0 0 135 135;" xml:space="preserve">
<style type="text/css">
	.st0{fill:#FFFFFF;}
	.st1{fill:#E21B23;}
</style>
<path class="st0" d="M98,94.2c-0.3-19.1-2.8-24.5-21.9-28c0,0-2.7,3.4-8.9,3.4c-6.3,0-8.9-3.4-8.9-3.4c-18.9,3.4-21.5,8.8-21.9,27.4
	c0,1.5,0,1.6,0,1.4v2c0,0,4.5,13.3,30.9,13.3C93.5,110.3,98,97,98,97v-1.5C98,95.6,98,95.4,98,94.2z M46.4,56c2.2,0,4-1.8,4-4v-7.2
	c0-1-0.4-2-1.1-2.7c0.6-8.7,5.6-17.4,18.1-17.4c12.2,0,17.3,8.3,18,16.9c-1,0.7-1.7,1.9-1.7,3.3V52c0,0.3,0,0.5,0.1,0.8
	c-0.8,0.5-1.6,0.8-2.6,0.8h-0.5c-0.4,1.1-0.9,2.2-1.5,3.2h2c1.6,0,3.1-0.5,4.4-1.3c0.6,0.4,1.3,0.6,2.1,0.6c2.2,0,4-1.8,4-4v-7.2
	c0-1.5-0.8-2.8-2.1-3.5c-0.9-10.2-7.1-20.9-22.2-20.9c-15,0-21.2,10.5-22.2,20.6c-1.6,0.5-2.8,2-2.8,3.8V52
	C42.5,54.2,44.2,56,46.4,56z M71.4,57.8h-5.2c-1.4,0-2.6-1.1-2.6-2.6c0-1.4,1.1-2.6,2.6-2.6h5.2c0.7,0,1.4,0.3,1.9,0.8h7.4
	c0.8-2.3,1.3-4.8,1.3-7.4c0-10-2.2-18.1-14.9-18.1c-12.7,0-14.9,8.1-14.9,18.1c0,10,6.7,18.1,14.9,18.1c5,0,9.4-3,12.1-7.5h-5.7
	C73.1,57.4,72.3,57.8,71.4,57.8z"/>
<path class="st1" d="M67.5,0.3c-0.5,0-0.9,0-1.4,0C48.2,0.6,31.5,8,19,20.9c-12.5,13-19.1,30-18.8,47.9
	c0.7,36.3,30.9,65.9,67.2,65.9c0.5,0,0.9,0,1.3,0c37.1-0.7,66.6-31.5,65.9-68.5C134,29.8,103.8,0.3,67.5,0.3z M66.4,9.5
	c0.4,0,0.8,0,1.2,0c31.5,0,57.4,25.3,58,56.9c0.2,7.7-1.2,15.1-3.8,21.8L18.2,37C28.2,20.8,46,9.9,66.4,9.5z M68.7,125.5
	c-0.4,0-0.8,0-1.2,0c-31.5,0-57.4-25.3-58-56.9c-0.2-8.2,1.4-16,4.3-23.2l103.8,51.3C107.7,113.6,89.6,125.1,68.7,125.5z"/>
</svg>
