<?xml version="1.0" standalone="no"?>
<!-- Generator: Adobe Fireworks 10, Export SVG Extension by Aaron Beall (http://fireworks.abeall.com) . Version: 0.6.1  -->
<!DOCTYPE svg PUBLIC "-//W3C//DTD SVG 1.1//EN" "http://www.w3.org/Graphics/SVG/1.1/DTD/svg11.dtd">
<svg id="Icons.fw-terms-conditions" viewBox="0 0 25 25" style="background-color:#ffffff00" version="1.1"
	xmlns="http://www.w3.org/2000/svg" xmlns:xlink="http://www.w3.org/1999/xlink" xml:space="preserve"
	x="0px" y="0px" width="25px" height="25px"
>
	<g id="terms-conditions">
		<path id="base8" d="M 22.3378 2.525 L 20.2101 4.625 L 22.8723 7.2429 L 25 5.1429 L 22.3378 2.525 ZM 19.1462 5.675 L 9.0426 15.6494 L 9.0426 18.275 L 11.7179 18.275 L 21.8085 8.2929 L 19.1462 5.675 ZM 0 11.45 L 0 13.55 L 7.9788 13.55 L 7.9788 11.45 L 0 11.45 ZM 0 20.9 L 0 23 L 20.7446 23 L 20.7446 20.9 L 0 20.9 ZM 0 6.725 L 0 8.825 L 11.7021 8.825 L 11.7021 6.725 L 0 6.725 ZM 0 16.175 L 0 18.275 L 5.8511 18.275 L 5.8511 16.175 L 0 16.175 ZM 0 2 L 0 4.1 L 15.9574 4.1 L 15.9574 2 L 0 2 Z" fill="#ffffff"/>
	</g>
</svg>