<?xml version="1.0" standalone="no"?>
<!-- Generator: Adobe Fireworks 10, Export SVG Extension by Aaron Beall (http://fireworks.abeall.com) . Version: 0.6.1  -->
<!DOCTYPE svg PUBLIC "-//W3C//DTD SVG 1.1//EN" "http://www.w3.org/Graphics/SVG/1.1/DTD/svg11.dtd">
<svg id="Icons.fw-time" viewBox="0 0 25 25" style="background-color:#ffffff00" version="1.1"
	xmlns="http://www.w3.org/2000/svg" xmlns:xlink="http://www.w3.org/1999/xlink" xml:space="preserve"
	x="0px" y="0px" width="25px" height="25px"
>
	<g id="time">
		<path d="M 12.5 22.2564 C 8.78 22.2564 5.7535 19.2411 5.7535 15.5347 C 5.7535 11.8282 8.78 8.8135 12.5 8.8135 C 16.2202 8.8135 19.2469 11.8288 19.2469 15.5349 C 19.2469 19.2412 16.2202 22.2564 12.5 22.2564 ZM 10.6757 3.1892 C 10.6757 2.1869 11.494 1.3718 12.5 1.3718 C 13.506 1.3718 14.3243 2.1869 14.3243 3.1892 C 14.3243 3.8097 14.0107 4.3585 13.5328 4.6864 L 13.5328 4.081 C 13.5328 3.5127 13.0707 3.0523 12.5004 3.0523 C 11.93 3.0523 11.4676 3.5127 11.4676 4.081 L 11.4676 4.6864 C 10.9896 4.3585 10.6757 3.8097 10.6757 3.1892 ZM 13.7007 6.1449 C 14.8726 5.6707 15.7014 4.5251 15.7014 3.1892 C 15.7014 1.4308 14.2651 0 12.5 0 C 10.7349 0 9.2989 1.4308 9.2989 3.1892 C 9.2989 4.5251 10.1276 5.6707 11.2993 6.1449 C 9.7663 6.3377 8.3475 6.8946 7.1321 7.7252 L 6.3306 6.9268 C 5.5926 6.1916 4.3914 6.1916 3.6535 6.9268 L 3.5561 7.0239 C 2.8182 7.7592 2.8182 8.9559 3.5561 9.6913 L 4.4217 10.5535 C 3.5206 12.0004 3 13.707 3 15.5349 C 2.9996 20.7623 7.2531 25 12.5 25 C 17.7469 25 22 20.7623 22 15.5349 C 22 10.713 18.3807 6.7331 13.7007 6.1449 ZM 12.5 16.461 C 11.9875 16.461 11.5706 16.0454 11.5706 15.5349 C 11.5706 15.0243 11.9875 14.6092 12.5 14.6092 C 13.0125 14.6092 13.4292 15.0243 13.4292 15.5349 C 13.4292 16.0454 13.0125 16.461 12.5 16.461 ZM 15.4569 11.34 L 13.3784 13.4111 C 13.1073 13.2996 12.8106 13.2376 12.5 13.2376 C 11.2283 13.2376 10.194 14.2682 10.194 15.5349 C 10.194 16.8021 11.2286 17.8326 12.5 17.8326 C 13.7717 17.8326 14.806 16.8021 14.806 15.5349 C 14.806 15.3383 14.7811 15.1476 14.7344 14.9658 L 14.7752 14.9292 L 16.9171 12.7952 C 17.3205 12.3935 17.3205 11.7421 16.9171 11.3405 C 16.5138 10.9382 15.8603 10.9382 15.4569 11.34 Z" fill="#ffffff"/>
	</g>
</svg>