<?xml version="1.0" standalone="no"?>
<!-- Generator: Adobe Fireworks 10, Export SVG Extension by Aaron Beall (http://fireworks.abeall.com) . Version: 0.6.1  -->
<!DOCTYPE svg PUBLIC "-//W3C//DTD SVG 1.1//EN" "http://www.w3.org/Graphics/SVG/1.1/DTD/svg11.dtd">
<svg id="Icons.fw-tracking" viewBox="0 0 25 25" style="background-color:#ffffff00" version="1.1"
	xmlns="http://www.w3.org/2000/svg" xmlns:xlink="http://www.w3.org/1999/xlink" xml:space="preserve"
	x="0px" y="0px" width="25px" height="25px"
>
	<g id="Layer%20115">
		<g id="base59">
			<path d="M 11.4353 9.5383 C 11.2212 9.4988 11.0047 9.2574 10.8095 9.0613 C 10.5606 8.8199 10.3316 8.5777 9.8581 8.5773 C 9.5755 8.5777 9.3607 8.9605 9.3609 9.2734 C 9.3607 10.3508 10.4927 10.6 11.7657 10.6 L 12.0601 10.6 L 12.0601 10.9527 C 12.0599 10.9922 12.0896 11 12.1086 11 L 13.2271 11 C 13.2418 11 13.2663 10.9918 13.2661 10.9449 L 13.2661 10.6082 C 13.2661 10.6082 13.4181 10.6391 13.4862 10.6391 C 13.6034 10.6387 13.6491 10.6469 13.7368 10.6469 C 13.8197 10.6469 14.0342 10.6391 14.1271 10.6391 C 14.9028 10.6387 15.8395 9.8738 15.8395 8.8738 C 15.8391 7.1711 13.7317 7.0004 13.4491 7 L 13.2661 7 L 13.2661 6.1484 L 13.4663 6.2266 C 13.5492 6.227 13.8344 6.3445 13.9853 6.4305 C 14.2246 6.5707 14.5952 7.2344 15.2002 7.2352 C 15.5223 7.2344 15.7421 6.8676 15.7421 6.6098 C 15.7421 5.7742 14.9175 5.423 14.8151 5.3914 C 14.4099 5.2586 13.5295 5.2668 13.3637 5.2668 L 13.2661 5.2668 L 13.2661 5.0934 C 13.2667 5.0391 13.2665 5 13.242 5 L 12.0882 5 C 12.0585 5.0004 12.0436 5.2355 12.0438 5.2742 L 12.0438 5.4 L 11.7366 5.4 L 11.4583 5.4 C 10.8924 5.4 9.3281 5.525 9.3283 7.0938 C 9.3283 8.8195 11.6505 8.7805 12.0601 8.7805 L 12.0601 9.593 C 12.0014 9.6 11.621 9.5613 11.4353 9.5383 ZM 13.2661 8.7414 L 13.4324 8.741 C 13.5197 8.741 13.9223 8.7805 13.9221 9.202 C 13.9221 9.5387 13.6758 9.6004 13.4514 9.6 L 13.2661 9.6004 L 13.2661 8.7414 ZM 11.8744 7.0395 C 11.7478 7.0395 11.3317 6.9738 11.3317 6.5754 C 11.3317 6.2555 11.6781 6.2004 11.771 6.2 L 12.0601 6.2 L 12.0601 7.0203 L 11.8744 7.0395 Z" fill="#ffffff"/>
			<path d="M 20.9042 3 L 4.422 3 L 4.422 13 L 20.9042 13 L 20.9042 3 ZM 20.1002 12.2 L 5.226 12.2 L 5.226 3.8 L 20.1002 3.8 L 20.1002 12.2 Z" fill="#ffffff"/>
			<path d="M 20.9796 14.2 L 4.221 14.2 L 0.2006 19 L 25 19 L 20.9796 14.2 ZM 9.9857 17.8 L 10.8225 16.2 L 13.9761 16.2 L 14.8129 17.8 L 9.9857 17.8 Z" fill="#ffffff"/>
			<path d="M 0 21 L 24.9242 21 L 24.9242 19.8 L 0 19.8 L 0 21 Z" fill="#ffffff"/>
		</g>
	</g>
</svg>