<?xml version="1.0" standalone="no"?>
<!-- Generator: Adobe Fireworks 10, Export SVG Extension by Aaron Beall (http://fireworks.abeall.com) . Version: 0.6.1  -->
<!DOCTYPE svg PUBLIC "-//W3C//DTD SVG 1.1//EN" "http://www.w3.org/Graphics/SVG/1.1/DTD/svg11.dtd">
<svg id="Icons.fw-unlim" viewBox="0 0 25 25" style="background-color:#ffffff00" version="1.1"
	xmlns="http://www.w3.org/2000/svg" xmlns:xlink="http://www.w3.org/1999/xlink" xml:space="preserve"
	x="0px" y="0px" width="25px" height="25px"
>
	<g id="unlim">
		<path id="base31" d="M 8.7059 7.8704 C 8.7059 6.0806 10.1807 4.6296 12 4.6296 C 13.8193 4.6296 15.2941 6.0806 15.2941 7.8704 C 15.2941 9.6602 13.8193 11.1111 12 11.1111 C 10.1807 11.1111 8.7059 9.6602 8.7059 7.8704 ZM 4 7.8704 C 4 9.4005 4.4461 10.8287 5.214 12.037 L 12.146 25 L 18.7906 12.037 C 19.5585 10.8287 20 9.4005 20 7.8704 C 20 3.5236 16.4183 0 12 0 C 7.5817 0 4 3.5236 4 7.8704 Z" fill="#ffffff"/>
	</g>
</svg>