<?xml version="1.0" encoding="utf-8"?>
<!-- Generator: Adobe Illustrator 19.0.1, SVG Export Plug-In . SVG Version: 6.00 Build 0)  -->
<svg version="1.1" id="Layer_1" xmlns="http://www.w3.org/2000/svg" xmlns:xlink="http://www.w3.org/1999/xlink" x="0px" y="0px"
	 viewBox="0 0 135 135" style="enable-background:new 0 0 135 135;" xml:space="preserve">
<style type="text/css">
	.st0{fill:#FFFFFF;}
	.st1{fill:#E21B23;}
</style>
<path class="st0" d="M111.4,76.5c0-4.8,0-10.7-4.5-14.6c-2.2-1.8-3.4-3.9-4.6-6.4c-0.5-1.1-1.2-2.2-1.8-3.2
	c-0.2-0.3-0.4-0.6-0.6-0.9l1.4-3l-0.7-0.3c-0.2-0.1-0.5-0.2-0.7-0.4c-0.6-0.3-1.3-0.7-2.1-0.7c-5.9,0-11.7,0-17.6,0c-6,0-12,0-18,0
	c-1.8,0-3,0.6-4.1,2.1c-2.5,3.4-4.8,6.4-7.3,9.3c-0.9,1-2.2,1.9-3.4,2.2c-2.1,0.5-4.3,1-6.4,1.4c-2,0.4-4.1,0.9-6.1,1.3
	C25,65,23,74.4,23,80.9v0.2c0,0.2,0,0.3,0.1,0.5c0.2,0.8,0.9,1.4,1.7,1.6l0,0h0.1c0.2,0,0.3,0.1,0.5,0.1c0.2,0,0.4,0,0.6-0.1h7.8
	c1.3,3.5,4.7,5.9,8.5,5.9h0.1c3.9,0,7.2-2.5,8.5-5.9v0h5.2c0.2,0.1,0.5,0.1,0.6,0.1l0.2,0c0.1,0,0.2,0,0.2,0l4.4,0h5l7,0
	c2.3,0,4.6,0,6.9-0.1h0c0.4,0.1,0.8,0.1,1.2-0.1h4.9c1.3,3.5,4.6,5.9,8.5,5.9h0.1c3.8,0,7.1-2.4,8.5-5.8h5.8l0-0.1
	c0.9-0.2,1.6-0.8,1.8-1.6c0-0.1,0.1-4.7,0.1-4.8l0-0.1c0,0,0,0,0,0L111.4,76.5z M81.3,51.5c0.9,0,1.8,0,2.8,0c1.2,0,2.3,0,3.5,0
	c2.2,0,4,0.1,5.7,0.2c0.7,0.1,1.8,0.9,2.7,2.2c1,1.4,1.8,2.9,2.8,4.6c0.2,0.4,0.5,0.8,0.7,1.2H81.3V51.5z M56.3,58.7
	c1.9-2.4,3.7-4.8,5.5-7.1c0.1-0.1,0.4-0.2,0.8-0.2c2.5,0,5.1,0,7.7,0l6.1,0v8.2H55.6L56.3,58.7z M42.3,85.5c-3.3,0-6.1-2.8-6.1-6.2
	c0-1.7,0.6-3.2,1.8-4.4c1.1-1.1,2.7-1.8,4.4-1.8l0-1v1c3.5,0,6.2,2.7,6.2,6.1C48.5,82.6,45.8,85.4,42.3,85.5z M95.3,85.5
	c-3.3,0-6.1-2.8-6.1-6.2c0-1.7,0.6-3.2,1.8-4.4c1.1-1.1,2.7-1.8,4.4-1.8l0-1v1c3.5,0,6.2,2.7,6.2,6.1
	C101.5,82.6,98.8,85.4,95.3,85.5z"/>
<path class="st1" d="M67.5,0.3c-0.5,0-0.9,0-1.4,0C48.2,0.6,31.5,8,19,20.9c-12.5,13-19.1,30-18.8,47.9
	c0.7,36.3,30.9,65.9,67.2,65.9c0.5,0,0.9,0,1.3,0c37.1-0.7,66.6-31.5,65.9-68.5C134,29.8,103.8,0.3,67.5,0.3z M66.4,9.5
	c0.4,0,0.8,0,1.2,0c31.5,0,57.4,25.3,58,56.9c0.2,7.7-1.2,15.1-3.8,21.8L18.2,37C28.2,20.8,46,9.9,66.4,9.5z M68.7,125.5
	c-0.4,0-0.8,0-1.2,0c-31.5,0-57.4-25.3-58-56.9c-0.2-8.2,1.4-16,4.3-23.2l103.8,51.3C107.7,113.6,89.6,125.1,68.7,125.5z"/>
</svg>
