<?xml version="1.0" standalone="no"?>
<!-- Generator: Adobe Fireworks 10, Export SVG Extension by Aaron Beall (http://fireworks.abeall.com) . Version: 0.6.1  -->
<!DOCTYPE svg PUBLIC "-//W3C//DTD SVG 1.1//EN" "http://www.w3.org/Graphics/SVG/1.1/DTD/svg11.dtd">
<svg id="Icons.fw-visa-virtual" viewBox="0 0 25 25" style="background-color:#ffffff00" version="1.1"
	xmlns="http://www.w3.org/2000/svg" xmlns:xlink="http://www.w3.org/1999/xlink" xml:space="preserve"
	x="0px" y="0px" width="25px" height="25px"
>
	<g id="visa-virtual">
		<path id="base6" d="M 20.1389 14.4348 L 21.5278 14.4348 L 21.5278 15.8261 L 20.1389 15.8261 L 20.1389 14.4348 ZM 16.6666 14.4348 L 18.0555 14.4348 L 18.0555 15.8261 L 16.6666 15.8261 L 16.6666 14.4348 ZM 13.1945 14.4348 L 14.5834 14.4348 L 14.5834 15.8261 L 13.1945 15.8261 L 13.1945 14.4348 ZM 2.7778 12.3478 L 7.6389 12.3478 L 7.6389 15.8261 L 2.7778 15.8261 L 2.7778 12.3478 ZM 0 10.9565 L 0 17.913 C 0 19.0656 0.9594 20 2.1428 20 L 22.8572 20 C 24.0406 20 25 19.0656 25 17.913 L 25 10.9565 L 0 10.9565 ZM 2.1428 4 C 0.9594 4 0 4.9344 0 6.087 L 0 8.8696 L 25 8.8696 L 25 6.087 C 25 4.9344 24.0406 4 22.8572 4 L 2.1428 4 Z" fill="#ffffff"/>
	</g>
</svg>