<?xml version="1.0" standalone="no"?>
<!-- Generator: Adobe Fireworks 10, Export SVG Extension by Aaron Beall (http://fireworks.abeall.com) . Version: 0.6.1  -->
<!DOCTYPE svg PUBLIC "-//W3C//DTD SVG 1.1//EN" "http://www.w3.org/Graphics/SVG/1.1/DTD/svg11.dtd">
<svg id="Icons.fw-water" viewBox="0 0 25 25" style="background-color:#ffffff00" version="1.1"
	xmlns="http://www.w3.org/2000/svg" xmlns:xlink="http://www.w3.org/1999/xlink" xml:space="preserve"
	x="0px" y="0px" width="25px" height="25px"
>
	<g id="Layer%20122">
		<g>
			<path d="M 18.0443 22.1171 C 18.0443 25.961 23.0042 25.961 23.0042 22.1171 C 23.0042 21.4138 20.9751 16.5128 20.5237 15.5809 C 20.0739 16.2806 18.0443 21.4138 18.0443 22.1171 ZM 23.4826 12.766 L 23.4826 12.234 L 23.4535 10.0089 C 23.4535 8.1305 22.0065 6.383 19.8227 6.383 L 14.5942 6.383 L 14.5942 5.3192 C 14.5942 4.8457 14.0075 4.2554 13.5485 4.2554 L 11.457 4.2554 L 11.457 3.1916 C 11.6296 3.0856 11.8589 2.8222 11.9799 2.6597 L 16.1627 2.6597 C 16.4471 3.0369 17.0562 3.1801 17.5531 3.1801 C 18.3986 3.1801 19.0869 2.4695 19.0869 1.5914 C 19.0869 0.7122 18.3981 0 17.5525 0 C 17.045 0 16.4405 0.1369 16.1627 0.5319 L 11.9799 0.5319 C 11.697 0.1369 11.4142 0 10.9056 0 C 10.3986 0 10.1668 0.1369 9.8885 0.5319 L 5.1828 0.5319 C 4.9041 0.1369 4.3306 0 3.8241 0 C 2.9761 0 2.2888 0.7122 2.2888 1.5908 C 2.2888 2.4695 2.9761 3.1793 3.8241 3.1793 C 4.3178 3.1793 4.9045 3.0369 5.1828 2.6597 L 9.8885 2.6597 C 10.0105 2.8256 10.2352 3.0902 10.4113 3.1916 L 10.4113 4.2554 L 8.3199 4.2554 C 7.8624 4.2554 7.2742 4.8462 7.2742 5.3192 L 7.2742 6.383 L 1 6.383 L 1 11.7021 L 7.7971 11.7021 C 8.4731 13.1067 9.5816 13.8298 10.9342 13.8298 C 12.2867 13.8298 13.3948 13.1067 14.0713 11.7021 L 16.6856 11.7021 C 17.2084 11.7021 17.7313 11.7021 17.7313 12.766 C 17.2084 12.766 17.1921 13.4823 17.1921 13.7748 C 17.1921 14.251 17.7961 14.3618 18.2541 14.3618 L 22.9598 14.3618 C 23.4183 14.3618 23.9999 14.251 23.9999 13.7748 C 24.0009 13.4033 24.0055 12.766 23.4826 12.766 Z" fill="#ffffff"/>
		</g>
	</g>
</svg>