<?xml version="1.0" standalone="no"?>
<!-- Generator: Adobe Fireworks 10, Export SVG Extension by Aaron Beall (http://fireworks.abeall.com) . Version: 0.6.1  -->
<!DOCTYPE svg PUBLIC "-//W3C//DTD SVG 1.1//EN" "http://www.w3.org/Graphics/SVG/1.1/DTD/svg11.dtd">
<svg id="Icons.fw-worldwide" viewBox="0 0 25 25" style="background-color:#ffffff00" version="1.1"
	xmlns="http://www.w3.org/2000/svg" xmlns:xlink="http://www.w3.org/1999/xlink" xml:space="preserve"
	x="0px" y="0px" width="25px" height="25px"
>
	<g id="Layer%20114">
		<path id="base58" d="M 12.5 0 C 5.6074 0 0 5.6076 0 12.5 C 0 19.3924 5.6074 25 12.5 25 C 19.3926 25 25 19.3924 25 12.5 C 25 5.6076 19.3926 0 12.5 0 ZM 1.8605 13.4095 L 5.2892 13.4095 C 5.3523 14.7023 5.5483 15.9275 5.8581 17.0529 L 2.8404 17.0529 C 2.3097 15.9311 1.97 14.7027 1.8605 13.4095 ZM 13.4095 6.1281 L 13.4095 3.178 C 14.5966 3.547 15.662 4.6164 16.46 6.1281 L 13.4095 6.1281 ZM 17.223 7.9471 C 17.5798 9.0534 17.8141 10.2871 17.8889 11.5905 L 13.4095 11.5905 L 13.4095 7.9471 L 17.223 7.9471 ZM 11.5905 3.178 L 11.5905 6.1281 L 8.54 6.1281 C 9.338 4.6164 10.4034 3.547 11.5905 3.178 ZM 11.5905 7.9471 L 11.5905 11.5905 L 7.1111 11.5905 C 7.1859 10.2871 7.4202 9.0534 7.777 7.9471 L 11.5905 7.9471 ZM 5.2892 11.5905 L 1.8605 11.5905 C 1.97 10.2973 2.3097 9.0689 2.8404 7.9471 L 5.8581 7.9471 C 5.5483 9.0725 5.3523 10.2977 5.2892 11.5905 ZM 7.1111 13.4095 L 11.5905 13.4095 L 11.5905 17.0529 L 7.777 17.0529 C 7.4202 15.9466 7.1859 14.7129 7.1111 13.4095 ZM 11.5905 18.8719 L 11.5905 21.822 C 10.4034 21.453 9.338 20.3836 8.54 18.8719 L 11.5905 18.8719 ZM 13.4095 21.822 L 13.4095 18.8719 L 16.46 18.8719 C 15.662 20.3836 14.5966 21.453 13.4095 21.822 ZM 13.4095 17.0529 L 13.4095 13.4095 L 17.8889 13.4095 C 17.8141 14.7129 17.5798 15.9466 17.223 17.0529 L 13.4095 17.0529 ZM 19.7108 13.4095 L 23.1395 13.4095 C 23.03 14.7027 22.6903 15.9311 22.1596 17.0529 L 19.1419 17.0529 C 19.4517 15.9275 19.6477 14.7023 19.7108 13.4095 ZM 19.7108 11.5905 C 19.6477 10.2977 19.4517 9.0725 19.1419 7.9471 L 22.1596 7.9471 C 22.6903 9.0689 23.03 10.2973 23.1395 11.5905 L 19.7108 11.5905 ZM 21.0666 6.1281 L 18.5082 6.1281 C 17.7965 4.4774 16.8102 3.15 15.6435 2.2915 C 17.8343 2.9675 19.7263 4.3304 21.0666 6.1281 ZM 9.3565 2.2915 C 8.1898 3.15 7.2035 4.4774 6.4918 6.1281 L 3.9334 6.1281 C 5.2737 4.3304 7.1657 2.9675 9.3565 2.2915 ZM 3.9334 18.8719 L 6.4918 18.8719 C 7.2035 20.5226 8.1898 21.85 9.3565 22.7085 C 7.1657 22.0325 5.2737 20.6696 3.9334 18.8719 ZM 15.6435 22.7085 C 16.8102 21.85 17.7965 20.5226 18.5082 18.8719 L 21.0666 18.8719 C 19.7263 20.6696 17.8343 22.0325 15.6435 22.7085 Z" fill="#ffffff"/>
	</g>
</svg>