<svg xmlns="http://www.w3.org/2000/svg"><symbol viewBox="0 0 52 52" id="i--01_check-rates"><title>01_check-rates</title><path d="M12.4 16.7c-0.2 0-0.3 0-0.5-0.1l-3.9-2c-0.5-0.3-0.8-0.9-0.5-1.5 0.3-0.5 0.9-0.8 1.5-0.5l3.9 2c0.5 0.3 0.8 0.9 0.5 1.5C13.2 16.5 12.8 16.7 12.4 16.7z"/><path d="M18 10.7c-0.4 0-0.7-0.2-0.9-0.5l-2.3-3.8c-0.3-0.5-0.1-1.2 0.4-1.5 0.5-0.3 1.2-0.1 1.5 0.4L18.9 9c0.3 0.5 0.1 1.2-0.4 1.5C18.4 10.6 18.2 10.7 18 10.7z"/><path d="M26 8.5C26 8.5 25.9 8.5 26 8.5c-0.6 0-1.1-0.5-1.1-1.1l0-4.4c0-0.6 0.5-1.1 1.1-1.1 0 0 0 0 0 0 0.6 0 1.1 0.5 1.1 1.1l0 4.4C27.1 8 26.6 8.5 26 8.5z"/><path d="M33.9 10.9c-0.2 0-0.4-0.1-0.6-0.2-0.5-0.3-0.7-1-0.3-1.5l2.4-3.7c0.3-0.5 1-0.7 1.5-0.3 0.5 0.3 0.7 1 0.3 1.5l-2.4 3.7C34.6 10.7 34.2 10.9 33.9 10.9z"/><path d="M39.3 17c-0.4 0-0.8-0.2-1-0.6-0.3-0.5 0-1.2 0.5-1.5l4-1.9c0.5-0.3 1.2 0 1.5 0.5 0.3 0.5 0 1.2-0.5 1.5l-4 1.9C39.7 17 39.5 17 39.3 17z"/><path d="M32.8 12.3H19.2c-1.6 0-3 1.4-3 3v3.3 2 23.7c0 1.6 1.4 3 3 3h13.6c1.6 0 3-1.4 3-3V20.6v-2-3.3C35.8 13.7 34.4 12.3 32.8 12.3zM25 43.7c0-0.6 0.4-1 1-1 0.6 0 1 0.4 1 1 0 0.6-0.4 1-1 1C25.4 44.7 25 44.3 25 43.7zM33.8 40.1H18.2V20.6h15.6V40.1zM18.2 18.6v-3.3c0-0.5 0.5-1 1-1h13.6c0.5 0 1 0.5 1 1v3.3H18.2z" fill="#E31B23"/></symbol><symbol viewBox="0 0 52 52" id="i--02_check-rates-01"><title>02_check-rates-01</title><path d="M29.3 38.6c-2.1 0-4.4-0.3-7.3-2.9-0.5-0.5-0.6-1.2-0.1-1.8 0.5-0.5 1.2-0.6 1.8-0.1 2.2 1.9 3.7 2.3 5.7 2.3 3.5 0 6-2.5 6-6 0-1.8-0.6-3.3-1.6-4.3-1-1-2.5-1.5-4.3-1.5-2.5 0-4.1 1-5.3 3.4-0.3 0.5-0.9 0.8-1.4 0.6-0.6-0.2-1-0.7-0.9-1.3l0.6-12.5c0-0.7 0.6-1.2 1.2-1.2h11.6c0.7 0 1.2 0.6 1.2 1.2s-0.6 1.2-1.2 1.2H24.8l-0.3 7.5c1.4-1.1 3-1.6 5-1.6 2.5 0 4.6 0.8 6.1 2.2 1.5 1.5 2.3 3.7 2.3 6.1C37.8 35.1 34.3 38.6 29.3 38.6zM19.7 21.9c0-0.8-0.4-2.3-2.9-3.3v-2.7c0.4 0.2 0.7 0.5 0.7 0.8 0.1 0.4 0.5 0.7 1 0.6 0.4-0.1 0.7-0.5 0.6-1-0.3-1.1-1.2-1.9-2.3-2.2v-0.6c0-0.3-0.3-0.6-0.6-0.6s-0.6 0.3-0.6 0.6v0.6c-1.4 0.2-2.4 1.3-2.4 2.7 0 0.9 0.4 2.1 2.4 2.9v3.5c-0.7-0.2-1.2-0.7-1.3-1.3-0.1-0.4-0.5-0.7-1-0.6-0.4 0.1-0.7 0.5-0.6 1 0.3 1.4 1.5 2.4 2.9 2.6v0.5c0 0.3 0.3 0.6 0.6 0.6s0.6-0.3 0.6-0.6V25C18.6 24.8 19.7 23.6 19.7 21.9zM14.8 16.9c0-0.5 0.3-0.8 0.8-1V18C15.2 17.7 14.8 17.4 14.8 16.9zM16.8 23.4v-3c0.8 0.5 1.3 1 1.3 1.6C18.1 22.9 17.4 23.2 16.8 23.4z"/></symbol><symbol viewBox="0 0 52 52" id="i--03_check-rates-02"><title>03_check-rates-02</title><path d="M43.5 14.4H8.9c-2 0-3.6 1.6-3.6 3.6v16.2c0 2 1.6 3.6 3.6 3.6h34.6c2 0 3.6-1.6 3.6-3.6V17.9C47.1 16 45.5 14.4 43.5 14.4zM45.2 17.9V21c-1.1-0.3-3.7-1.2-4.3-4.8h2.6C44.5 16.3 45.2 17 45.2 17.9zM39 35.8H13.4c-0.8-5.1-4.9-6.3-6.2-6.5v-6.2c1.2-0.2 5.6-1.4 6.2-6.8H39c0.7 5.3 5 6.5 6.2 6.7v6.5C44 29.6 39.9 30.8 39 35.8zM8.9 16.3h2.6c-0.5 3.6-3.2 4.6-4.3 4.9v-3.2C7.3 17 8 16.3 8.9 16.3zM7.3 34.1v-2.9c1.1 0.3 3.6 1.2 4.2 4.6H8.9C8 35.8 7.3 35 7.3 34.1zM43.5 35.8H41c0.7-3.3 3.2-4.2 4.2-4.4v2.8C45.2 35 44.5 35.8 43.5 35.8zM17.5 21c-0.4 0-0.8-0.3-0.8-0.8v-4.7c0-0.4 0.3-0.8 0.8-0.8s0.8 0.3 0.8 0.8v4.7C18.3 20.6 18 21 17.5 21zM17.5 29.3c-0.4 0-0.8-0.3-0.8-0.8v-4.8c0-0.4 0.3-0.8 0.8-0.8s0.8 0.3 0.8 0.8v4.8C18.3 29 18 29.3 17.5 29.3zM17.5 37.4c-0.4 0-0.8-0.3-0.8-0.8v-5.1c0-0.4 0.3-0.8 0.8-0.8s0.8 0.3 0.8 0.8v5.1C18.3 37 18 37.4 17.5 37.4zM17.5 44.2c-0.4 0-0.8-0.3-0.8-0.8v-3.3c0-0.4 0.3-0.8 0.8-0.8s0.8 0.3 0.8 0.8v3.3C18.3 43.9 18 44.2 17.5 44.2zM30 28.4c0-0.8-0.4-2.3-2.9-3.3v-2.7c0.4 0.2 0.7 0.5 0.8 0.9 0.1 0.4 0.5 0.7 1 0.6 0.4-0.1 0.7-0.5 0.6-1-0.3-1.1-1.2-1.9-2.3-2.2v-0.6c0-0.3-0.3-0.6-0.6-0.6s-0.6 0.3-0.6 0.6v0.6c-1.4 0.2-2.4 1.3-2.4 2.7 0 0.9 0.4 2.1 2.4 2.9v3.5c-0.7-0.2-1.2-0.7-1.3-1.3-0.1-0.4-0.5-0.7-0.9-0.6-0.4 0.1-0.7 0.5-0.6 0.9 0.3 1.4 1.5 2.4 2.9 2.6v0.5c0 0.3 0.3 0.6 0.6 0.6s0.6-0.3 0.6-0.6v-0.5C28.9 31.2 30 30 30 28.4zM25.1 23.3c0-0.5 0.3-0.8 0.8-1v2.2C25.5 24.2 25.1 23.8 25.1 23.3zM27.1 29.8v-3c0.8 0.5 1.3 1 1.3 1.6C28.4 29.3 27.8 29.7 27.1 29.8zM17.5 12.6c-0.4 0-0.8-0.3-0.8-0.8V8.6c0-0.4 0.3-0.8 0.8-0.8s0.8 0.3 0.8 0.8v3.3C18.3 12.2 18 12.6 17.5 12.6z"/></symbol><symbol viewBox="0 0 52 52" id="i--04_check-rates-03"><title>04_check-rates-03</title><path d="M26.3 44.9c-10 0-18-8.1-18-18s8.1-18 18-18 18 8.1 18 18S36.2 44.9 26.3 44.9zM26.3 10.9c-8.8 0-16 7.2-16 16s7.2 16 16 16 16-7.2 16-16S35.1 10.9 26.3 10.9zM30.5 32.1c-1 0.7-2.1 1.1-3.3 1.2V20.7c1.2 0.1 2.4 0.5 3.4 1.2 0.5 0.4 1.3 0.3 1.8-0.2 0.4-0.6 0.3-1.3-0.2-1.8-1.4-1.1-3.1-1.7-4.9-1.8v-2.1c0-0.5-0.4-0.9-0.9-0.9s-0.9 0.4-0.9 0.9v2.2C21.2 19 18 22.6 18 27s3.2 8 7.4 8.7v2c0 0.5 0.4 0.9 0.9 0.9s0.9-0.4 0.9-0.9v-1.9c1.8-0.1 3.4-0.6 4.8-1.7 0.6-0.4 0.7-1.2 0.3-1.7S31.1 31.7 30.5 32.1zM20.5 27c0-3 2.1-5.5 4.9-6.1v12.3C22.6 32.5 20.5 30 20.5 27z"/></symbol><symbol viewBox="0 0 52 52" id="i--05_check-rates-04"><title>05_check-rates-04</title><path d="M27.5 45.1c-4.2 0-7.7-3.6-7.7-8v-9.8c0-4.4 3.5-8 7.7-8 4.3 0 7.7 3.6 7.7 8v9.8C35.2 41.5 31.8 45.1 27.5 45.1zM27.5 21.8c-2.9 0-5.2 2.5-5.2 5.5v9.8c0 3 2.3 5.5 5.2 5.5 2.9 0 5.2-2.5 5.2-5.5v-9.8C32.7 24.2 30.4 21.8 27.5 21.8zM17.6 34.2c0-0.8-0.4-2.3-2.9-3.3v-2.7c0.4 0.2 0.7 0.5 0.7 0.8 0.1 0.4 0.5 0.7 1 0.6 0.4-0.1 0.7-0.5 0.6-1-0.3-1.1-1.2-1.9-2.3-2.2v-0.6c0-0.3-0.3-0.6-0.6-0.6s-0.6 0.3-0.6 0.6v0.6c-1.4 0.2-2.4 1.3-2.4 2.7 0 0.9 0.4 2.1 2.4 2.9v3.5c-0.7-0.2-1.2-0.7-1.3-1.3-0.1-0.4-0.5-0.7-1-0.6-0.4 0.1-0.7 0.5-0.6 1 0.3 1.4 1.5 2.4 2.9 2.6v0.5c0 0.3 0.3 0.6 0.6 0.6s0.6-0.3 0.6-0.6v-0.5C16.5 37 17.6 35.8 17.6 34.2zM12.7 29.1c0-0.5 0.3-0.8 0.8-1v2.1C13.1 29.9 12.7 29.6 12.7 29.1zM14.7 35.6v-3c0.8 0.5 1.3 1 1.3 1.6C16 35.1 15.4 35.5 14.7 35.6zM40 13.6c-0.3 0-0.6-0.1-0.8-0.3-6.5-6.5-17-6.5-23.5 0-0.4 0.4-1.1 0.4-1.6 0-0.4-0.4-0.4-1.1 0-1.6 7.3-7.3 19.3-7.3 26.6 0 0.4 0.4 0.4 1.1 0 1.6C40.6 13.5 40.3 13.6 40 13.6zM19.5 17.8c-0.3 0-0.6-0.1-0.8-0.3-0.4-0.4-0.4-1.1 0-1.6 2.3-2.3 5.5-3.6 8.8-3.6 0 0 0 0 0 0 3.3 0 6.4 1.3 8.8 3.6 0.4 0.4 0.4 1.1 0 1.6-0.4 0.4-1.1 0.4-1.6 0-1.9-1.9-4.5-3-7.2-3 0 0 0 0 0 0-2.7 0-5.3 1.1-7.2 3C20.1 17.7 19.8 17.8 19.5 17.8z"/></symbol><symbol viewBox="0 0 52 52" id="i--06_check-savings"><title>06_check-savings</title><path d="M25.9 41.5c-3.8 0-6.8-3.1-6.8-6.8 0-3.8 3.1-6.8 6.8-6.8 3.8 0 6.8 3.1 6.8 6.8C32.7 38.5 29.6 41.5 25.9 41.5zM25.9 30.1c-2.5 0-4.6 2.1-4.6 4.6 0 2.5 2.1 4.6 4.6 4.6 2.5 0 4.6-2.1 4.6-4.6C30.5 32.2 28.4 30.1 25.9 30.1z"/><path d="M42.5 18.4c-0.3 0-0.6-0.1-0.8-0.3-8.7-8.7-23-8.7-31.7 0-0.4 0.4-1.1 0.4-1.6 0-0.4-0.4-0.4-1.1 0-1.6 9.6-9.6 25.2-9.6 34.8 0 0.4 0.4 0.4 1.1 0 1.6C43.1 18.3 42.8 18.4 42.5 18.4z" fill="#E31B23"/><path d="M38.4 22.9c-0.3 0-0.6-0.1-0.8-0.3-6.5-6.5-17-6.5-23.5 0-0.4 0.4-1.1 0.4-1.6 0-0.4-0.4-0.4-1.1 0-1.6 7.3-7.3 19.3-7.3 26.6 0 0.4 0.4 0.4 1.1 0 1.6C39 22.8 38.7 22.9 38.4 22.9z" fill="#E31B23"/><path d="M17.9 27.1c-0.3 0-0.6-0.1-0.8-0.3-0.4-0.4-0.4-1.1 0-1.6 2.3-2.3 5.5-3.6 8.8-3.6h0c3.3 0 6.4 1.3 8.8 3.6 0.4 0.4 0.4 1.1 0 1.6-0.4 0.4-1.1 0.4-1.6 0-1.9-1.9-4.5-3-7.2-3-2.7 0-5.3 1.1-7.2 3C18.5 27 18.2 27.1 17.9 27.1z" fill="#E31B23"/></symbol><symbol viewBox="0 0 52 52" id="i--07_check-savings-01"><title>07_check-savings-01</title><path d="M20.6 24.7h4c0.4 0 0.7-0.3 0.7-0.7v-4c0-0.4-0.3-0.7-0.7-0.7h-4c-0.4 0-0.7 0.3-0.7 0.7v4C19.9 24.4 20.2 24.7 20.6 24.7zM33.6 8.3H19.1c-1.8 0-3.2 1.4-3.2 3.2v3.6 2 25.3c0 1.8 1.4 3.2 3.2 3.2h14.5c1.8 0 3.2-1.4 3.2-3.2V17.1v-2-3.6C36.8 9.7 35.4 8.3 33.6 8.3zM25.3 41.7c0-0.6 0.5-1.1 1.1-1.1s1.1 0.5 1.1 1.1c0 0.6-0.5 1.1-1.1 1.1S25.3 42.3 25.3 41.7zM34.8 37.8H18V17.1h16.9V37.8zM18 15.1v-3.6c0-0.6 0.5-1.2 1.2-1.2h14.5c0.6 0 1.2 0.5 1.2 1.2v3.6H18z" fill="#FFFFFF"/></symbol><symbol viewBox="0 0 52 52" id="i--08_check-savings-02"><title>08_check-savings-02</title><path d="M32 15.4H18.3c-1.5 0-2.7 1.2-2.7 2.7v3.5 1.8 23.4c0 1.5 1.2 2.7 2.7 2.7H32c1.5 0 2.7-1.2 2.7-2.7V23.5v-1.8-3.5C34.7 16.7 33.5 15.4 32 15.4zM24.2 46c0-0.5 0.4-1 1-1 0.5 0 1 0.4 1 1 0 0.5-0.4 1-1 1C24.6 47 24.2 46.6 24.2 46zM32.9 42.5H17.4v-19h15.5V42.5zM17.4 21.7v-3.5c0-0.5 0.4-0.9 0.9-0.9H32c0.5 0 0.9 0.4 0.9 0.9v3.5H17.4zM30.2 41.3c-0.5 0-0.9-0.4-0.9-0.9V28.2c0-0.5 0.4-0.9 0.9-0.9s0.9 0.4 0.9 0.9v12.2C31.1 40.9 30.7 41.3 30.2 41.3zM26.9 41.2c-0.5 0-0.9-0.4-0.9-0.9v-9.1c0-0.5 0.4-0.9 0.9-0.9s0.9 0.4 0.9 0.9v9.1C27.7 40.8 27.3 41.2 26.9 41.2zM20.1 41.2c-0.5 0-0.9-0.4-0.9-0.9v-3.2c0-0.5 0.4-0.9 0.9-0.9s0.9 0.4 0.9 0.9v3.2C21 40.8 20.6 41.2 20.1 41.2zM23.5 41.2c-0.5 0-0.9-0.4-0.9-0.9v-6.4c0-0.5 0.4-0.9 0.9-0.9s0.9 0.4 0.9 0.9v6.4C24.4 40.8 24 41.2 23.5 41.2zM38.1 10.5c-0.2 0-0.5-0.1-0.6-0.3-6.7-6.7-17.6-6.7-24.3 0-0.4 0.4-0.9 0.4-1.3 0s-0.4-0.9 0-1.3c7.4-7.4 19.4-7.4 26.8 0 0.4 0.4 0.4 0.9 0 1.3C38.5 10.4 38.3 10.5 38.1 10.5zM34.9 14c-0.2 0-0.5-0.1-0.6-0.3-5-5-13-5-18 0-0.4 0.4-0.9 0.4-1.3 0s-0.4-0.9 0-1.3c5.7-5.7 14.9-5.7 20.5 0 0.4 0.4 0.4 0.9 0 1.3C35.4 13.9 35.1 14 34.9 14z" fill="#FFFFFF"/></symbol><symbol viewBox="0 0 52 52" id="i--09_check-savings-03"><title>09_check-savings-03</title><path d="M27.2 44.1c-4.2 0-7.7-3.6-7.7-8v-9.8c0-4.4 3.5-8 7.7-8 4.3 0 7.7 3.6 7.7 8v9.8C34.9 40.5 31.4 44.1 27.2 44.1zM27.2 20.8c-2.9 0-5.2 2.5-5.2 5.5v9.8c0 3 2.3 5.5 5.2 5.5 2.9 0 5.2-2.5 5.2-5.5v-9.8C32.4 23.3 30 20.8 27.2 20.8zM17.3 33.2c0-0.8-0.4-2.3-2.9-3.3v-2.7c0.4 0.2 0.7 0.5 0.7 0.8 0.1 0.4 0.5 0.7 1 0.6 0.4-0.1 0.7-0.5 0.6-1-0.3-1.1-1.2-1.9-2.3-2.2v-0.6c0-0.3-0.3-0.6-0.6-0.6s-0.6 0.3-0.6 0.6v0.6c-1.4 0.2-2.4 1.3-2.4 2.7 0 0.9 0.4 2.1 2.4 2.9v3.5c-0.7-0.2-1.2-0.7-1.3-1.3-0.1-0.4-0.5-0.7-1-0.6-0.4 0.1-0.7 0.5-0.6 1 0.3 1.4 1.5 2.4 2.9 2.6v0.5c0 0.3 0.3 0.6 0.6 0.6s0.6-0.3 0.6-0.6v-0.5C16.1 36 17.3 34.8 17.3 33.2zM12.4 28.1c0-0.5 0.3-0.8 0.8-1v2.1C12.7 29 12.4 28.6 12.4 28.1zM14.4 34.6v-3c0.8 0.5 1.3 1 1.3 1.6C15.7 34.1 15 34.5 14.4 34.6zM39.7 12.6c-0.3 0-0.6-0.1-0.8-0.3-6.5-6.5-17-6.5-23.5 0-0.4 0.4-1.1 0.4-1.6 0s-0.4-1.1 0-1.6c7.3-7.3 19.3-7.3 26.6 0 0.4 0.4 0.4 1.1 0 1.6C40.2 12.5 40 12.6 39.7 12.6zM19.1 16.8c-0.3 0-0.6-0.1-0.8-0.3-0.4-0.4-0.4-1.1 0-1.6 2.3-2.3 5.5-3.6 8.8-3.6 0 0 0 0 0 0 3.3 0 6.4 1.3 8.8 3.6 0.4 0.4 0.4 1.1 0 1.6s-1.1 0.4-1.6 0c-1.9-1.9-4.5-3-7.2-3 0 0 0 0 0 0-2.7 0-5.3 1.1-7.2 3C19.7 16.7 19.4 16.8 19.1 16.8z" fill="#FFFFFF"/></symbol><symbol viewBox="0 0 52 52" id="i--10_try-our-free-app"><title>10_try-our-free-app</title><path d="M20.6 24.7h4c0.4 0 0.7-0.3 0.7-0.7v-4c0-0.4-0.3-0.7-0.7-0.7h-4c-0.4 0-0.7 0.3-0.7 0.7v4C19.9 24.4 20.2 24.7 20.6 24.7z"/><path d="M33.6 8.3H19.1c-1.8 0-3.2 1.4-3.2 3.2v3.6 2 25.3c0 1.8 1.4 3.2 3.2 3.2h14.5c1.8 0 3.2-1.4 3.2-3.2V17.1v-2 -3.6C36.8 9.7 35.4 8.3 33.6 8.3zM25.3 41.7c0-0.6 0.5-1.1 1.1-1.1s1.1 0.5 1.1 1.1c0 0.6-0.5 1.1-1.1 1.1S25.3 42.3 25.3 41.7zM34.8 37.8H18V17.1h16.9V37.8zM18 15.1v-3.6c0-0.6 0.5-1.2 1.2-1.2h14.5c0.6 0 1.2 0.5 1.2 1.2v3.6H18z" fill="#E31B23"/></symbol><symbol viewBox="0 0 52 52" id="i--11_try-our-free-app-01"><title>11_try-our-free-app-01</title><path d="M20.6 24.7h4c0.4 0 0.7-0.3 0.7-0.7v-4c0-0.4-0.3-0.7-0.7-0.7h-4c-0.4 0-0.7 0.3-0.7 0.7v4C19.9 24.4 20.2 24.7 20.6 24.7zM33.6 8.3H19.1c-1.8 0-3.2 1.4-3.2 3.2v3.6 2 25.3c0 1.8 1.4 3.2 3.2 3.2h14.5c1.8 0 3.2-1.4 3.2-3.2V17.1v-2-3.6C36.8 9.7 35.4 8.3 33.6 8.3zM25.3 41.7c0-0.6 0.5-1.1 1.1-1.1s1.1 0.5 1.1 1.1c0 0.6-0.5 1.1-1.1 1.1S25.3 42.3 25.3 41.7zM34.8 37.8H18V17.1h16.9V37.8zM18 15.1v-3.6c0-0.6 0.5-1.2 1.2-1.2h14.5c0.6 0 1.2 0.5 1.2 1.2v3.6H18z"/></symbol><symbol viewBox="0 0 52 52" id="i--12_try-our-free-app-02"><title>12_try-our-free-app-02</title><path d="M30.9 42.9c-4.1 0-8.7-2.1-13.7-6.4-5.7-4.8-8.7-9.5-8.8-14-0.1-3.1 1.3-5.2 2.1-6.2 0.3-0.4 0.9-1 1.7-1.4 0.7-0.3 1.9-0.4 3.2 0.7l4.7 3.9c0.6 0.5 0.9 1.1 1 1.9 0.1 1.3-0.8 2.4-0.9 2.5l-1.5 1.8c0.5 0.9 1.8 2.6 3.9 4.5 2.2 1.8 4.1 2.7 5.1 3l1.5-1.8c0.1-0.1 1-1.2 2.3-1.3 0.7-0.1 1.4 0.2 2 0.7l4.7 3.9c1.2 1 2.1 2.6 0.2 4.9-0.8 1-2.6 2.7-5.7 3.1C32 42.9 31.5 42.9 30.9 42.9zM13.2 16.8c-0.1 0-0.2 0-0.3 0.1-0.4 0.2-0.7 0.6-0.9 0.8-0.6 0.8-1.7 2.4-1.6 4.8 0.1 3.8 2.9 8.1 8.1 12.5s10 6.4 13.7 5.8c2.4-0.4 3.9-1.7 4.5-2.4 0.8-0.9 0.9-1.4 0.1-2.1l-4.7-3.9c-0.2-0.2-0.4-0.2-0.5-0.2-0.4 0-0.8 0.4-0.9 0.6l-2.4 2.8-0.6-0.2c-0.1 0-3-0.9-6.4-3.6-3.3-2.9-4.7-5.6-4.7-5.7l-0.3-0.6 2.4-2.8c0.1-0.2 0.5-0.6 0.4-1.1 0-0.1 0-0.3-0.3-0.5L14 17.2C13.6 16.9 13.4 16.8 13.2 16.8zM33.1 29.4c-0.1 0-0.1 0-0.2 0-0.5-0.1-0.9-0.6-0.8-1.1 0.4-2.7-0.4-5.2-2.3-6.7-1.9-1.6-4.5-1.9-7-1.1-0.5 0.2-1.1-0.1-1.3-0.6s0.1-1.1 0.6-1.3c3.2-1.1 6.6-0.6 9 1.4 2.4 2 3.5 5.2 3 8.6C34 29 33.6 29.4 33.1 29.4zM36.5 29.5c-0.1 0-0.1 0-0.2 0-0.5-0.1-0.9-0.6-0.8-1.2 0.7-3.9-0.5-7.5-3.2-9.8-2.7-2.3-6.5-2.8-10.2-1.5-0.5 0.2-1.1-0.1-1.3-0.6-0.2-0.5 0.1-1.1 0.6-1.3 4.4-1.6 8.9-0.9 12.2 1.8 3.3 2.7 4.7 7.1 3.9 11.7C37.4 29.2 37 29.5 36.5 29.5zM40.1 29.7c-0.1 0-0.1 0-0.2 0-0.5-0.1-0.9-0.6-0.8-1.1 0.8-5.1-0.8-9.9-4.4-12.9-3.6-3-8.6-3.8-13.5-2.1-0.5 0.2-1.1-0.1-1.3-0.6-0.2-0.5 0.1-1.1 0.6-1.3 5.5-2 11.3-1 15.4 2.4 4.1 3.5 6 9 5 14.8C41 29.3 40.6 29.7 40.1 29.7z" fill="#FFFFFF"/></symbol><symbol viewBox="0 0 52 52" id="i--13_try-our-free-app-03"><title>13_try-our-free-app-03</title><path d="M25 12.4c2.2 0 3.9 1.8 3.9 3.9v3.3 2.3 2c0 2.2-1.8 3.9-3.9 3.9h-7.7c-0.2 0-0.5 0.1-0.7 0.2l-6.5 4.5c0 0 0-3.4 0-3.5 0-0.6-0.5-1.2-1.1-1.2-2-0.1-3.6-1.9-3.6-3.9v-7.6c0-2.2 1.8-3.9 3.9-3.9H25M25 10.1H9.4c-3.4 0-6.1 2.8-6.1 6.1v7.6c0 2.9 2 5.3 4.7 6 0 1.1 0 2.6 0 2.6 0 0.8 0.4 1.6 1.2 2 0.3 0.2 0.7 0.3 1 0.3 0.4 0 0.9-0.1 1.3-0.4l6.2-4.3H25c3.4 0 6.1-2.8 6.1-6.1v-2-2.3-3.3C31.1 12.9 28.4 10.1 25 10.1L25 10.1zM42.4 21.9c2.2 0 3.9 1.7 3.9 3.9v7.6c0 2-1.6 3.7-3.6 3.9-0.6 0-1.1 0.6-1.1 1.2 0 0.1 0 3.5 0 3.5l-6.5-4.5c-0.2-0.1-0.4-0.2-0.7-0.2h-7.7c-2.2 0-3.9-1.8-3.9-3.9v-3.3-2.3-2c0-2.2 1.8-3.9 3.9-3.9H42.4M42.4 19.7H26.8c-3.4 0-6.1 2.7-6.1 6.1v2 2.3 3.3c0 3.4 2.7 6.1 6.1 6.1h7.4l6.2 4.3c0.4 0.3 0.8 0.4 1.3 0.4 0.4 0 0.7-0.1 1-0.3 0.7-0.4 1.2-1.2 1.2-2 0 0 0-1.6 0-2.7 2.7-0.7 4.7-3.1 4.7-5.9v-7.6C48.5 22.4 45.8 19.7 42.4 19.7L42.4 19.7z" fill="#FFFFFF"/></symbol><symbol viewBox="0 0 52 52" id="i--14_domestic-rates"><title>14_domestic-rates</title><path d="M34.3 31.6c0-1.3-0.7-3.8-4.9-5.5v-4.7c0.7 0.3 1.3 0.8 1.4 1.6 0.2 0.7 0.8 1.1 1.5 0.9 0.7-0.2 1.1-0.8 0.9-1.5-0.4-1.8-2-3.2-3.9-3.6v-1c0-0.5-0.4-0.9-0.9-0.9s-0.9 0.4-0.9 0.9v1c-2.3 0.4-4 2.2-4 4.4 0 1.4 0.7 3.4 4 4.9v6c-1.2-0.3-2.1-1.2-2.4-2.3-0.1-0.7-0.8-1.1-1.5-0.9-0.7 0.2-1.1 0.8-0.9 1.5 0.5 2.3 2.5 4 4.8 4.3v0.9c0 0.5 0.4 0.9 0.9 0.9s0.9-0.4 0.9-0.9v-0.9C32.4 36.3 34.3 34.4 34.3 31.6zM26.1 23.2c0-0.9 0.6-1.6 1.5-1.8v3.9C26.8 24.8 26.1 24.1 26.1 23.2zM29.4 34.1v-5.2c1.5 0.8 2.4 1.8 2.4 2.8C31.8 33.4 30.6 33.9 29.4 34.1z"/><path d="M12.3 27.4c-0.2 0-0.4-0.1-0.6-0.2-0.3-0.3-7.8-6.9-7.8-13.4C4 9 7.9 5.2 12.5 5.2c4.7 0.1 8.5 4 8.4 8.8-0.1 6.5-7.8 12.9-8.1 13.2C12.7 27.3 12.5 27.4 12.3 27.4zM12.4 7c-3.7 0-6.7 3-6.7 6.8-0.1 4.7 4.9 9.8 6.6 11.4 1.8-1.6 6.8-6.6 6.9-11.3C19.2 10.2 16.2 7.1 12.4 7 12.5 7 12.5 7 12.4 7z"/><path d="M12.5 17.8C12.5 17.8 12.5 17.8 12.5 17.8c-2.3 0-4.1-1.9-4-4.1 0-1.1 0.4-2.1 1.2-2.8s1.8-1.2 2.9-1.1c2.2 0 4 1.9 4 4.1 0 1.1-0.4 2.1-1.2 2.8C14.6 17.4 13.6 17.8 12.5 17.8zM12.5 11.5c-0.6 0-1.1 0.2-1.6 0.6-0.4 0.4-0.7 1-0.7 1.6 0 1.2 1 2.3 2.2 2.3 0.6 0 1.2-0.2 1.6-0.6 0.4-0.4 0.7-1 0.7-1.6C14.8 12.6 13.8 11.5 12.5 11.5 12.6 11.5 12.5 11.5 12.5 11.5z"/><path d="M28.5 9.5c-2.8 0-5.5 0.6-8 1.8 0.2 0.7 0.3 1.5 0.4 2.3 2.3-1.3 4.9-1.9 7.6-1.9 8.8 0 15.9 7.1 15.9 15.9s-7.1 15.9-15.9 15.9-15.9-7.1-15.9-15.9c0-0.1 0-0.2 0-0.3-0.1 0.1-0.2 0.1-0.4 0.1-0.2 0-0.4-0.1-0.6-0.2-0.1-0.1-0.5-0.5-1.2-1.1-0.1 0.5-0.1 0.9-0.1 1.6 0 10 8.1 18.1 18.1 18.1s18.1-8.1 18.1-18.1S38.5 9.5 28.5 9.5z" fill="#E31B23"/></symbol><symbol viewBox="0 0 52 52" id="i--15_international-rates"><title>15_international-rates</title><path d="M35.4 32.2c0-1.3-0.7-3.8-4.9-5.5V22c0.7 0.3 1.3 0.8 1.4 1.6 0.2 0.7 0.8 1.1 1.5 0.9 0.7-0.2 1.1-0.8 0.9-1.5-0.4-1.8-2-3.2-3.9-3.6v-1c0-0.5-0.4-0.9-0.9-0.9s-0.9 0.4-0.9 0.9v1c-2.3 0.4-4 2.2-4 4.4 0 1.4 0.7 3.4 4 4.9v6c-1.2-0.3-2.1-1.2-2.4-2.3-0.1-0.7-0.8-1.1-1.5-0.9-0.7 0.2-1.1 0.8-0.9 1.5 0.5 2.3 2.5 4 4.8 4.3V38c0 0.5 0.4 0.9 0.9 0.9s0.9-0.4 0.9-0.9v-0.9C33.5 36.9 35.4 35 35.4 32.2zM27.2 23.8c0-0.9 0.6-1.6 1.5-1.8v3.9C27.9 25.3 27.2 24.6 27.2 23.8zM30.5 34.7v-5.2c1.5 0.8 2.4 1.8 2.4 2.8C32.9 33.9 31.7 34.5 30.5 34.7zM19.8 9.2c-1.9-1.9-4.4-3-7-3 0 0 0 0-0.1 0 0 0 0 0 0 0 0 0 0 0 0 0-2.6 0-5.1 1-6.9 2.8-1.9 1.9-3 4.4-3 7 0 2.7 1 5.2 2.9 7.1s4.4 3 7 3c0 0 0.1 0 0.1 0h0 0c0 0 0 0 0 0 5.5 0 9.9-4.4 10-9.9C22.7 13.7 21.7 11.1 19.8 9.2zM19.8 12.2h-3.4c-0.2-1.4-0.6-2.7-1.1-3.7 1.2 0.4 2.3 1.1 3.2 2C19 11 19.4 11.6 19.8 12.2zM20.9 16.3c0 0.7-0.1 1.5-0.3 2.1h-3.9c0.1-0.7 0.1-1.5 0.1-2.2 0-0.7 0-1.5-0.1-2.2h3.9C20.8 14.7 20.9 15.5 20.9 16.3zM12.7 24.4C12.7 24.4 12.7 24.4 12.7 24.4c-0.5 0-1.4-1.4-1.9-4.1h3.8C14.1 23 13.2 24.4 12.7 24.4zM10.6 18.4c-0.1-0.7-0.1-1.4-0.1-2.2 0-0.8 0-1.5 0.1-2.2h4.2c0.1 0.7 0.1 1.4 0.1 2.2 0 0.8 0 1.5-0.1 2.2H10.6zM4.5 16.1c0-0.7 0.1-1.5 0.3-2.1h3.9c-0.1 0.7-0.1 1.5-0.1 2.2 0 0.7 0 1.5 0.1 2.2H4.8C4.6 17.7 4.5 16.9 4.5 16.1zM12.7 8.1C12.7 8.1 12.7 8.1 12.7 8.1c0.5 0 1.4 1.4 1.9 4.2h-3.8C11.3 9.5 12.2 8.1 12.7 8.1zM7 10.4c0.9-0.9 2-1.5 3.1-1.9-0.5 1-0.8 2.3-1.1 3.7H5.6C5.9 11.5 6.4 10.9 7 10.4zM5.6 20.2H9c0.2 1.4 0.6 2.7 1.1 3.7-1.2-0.4-2.3-1.1-3.2-2C6.3 21.4 5.9 20.9 5.6 20.2zM15.3 24c0.5-1 0.8-2.3 1.1-3.7h3.4C18.8 22 17.2 23.3 15.3 24z"/><path d="M29.6 10.1c-2.8 0-5.5 0.6-8 1.9 0.3 0.7 0.6 1.4 0.7 2.1 2.2-1.1 4.7-1.8 7.2-1.8 8.8 0 15.9 7.1 15.9 15.9s-7.1 15.9-15.9 15.9-15.9-7.1-15.9-15.9c0-0.7 0.1-1.4 0.1-2-0.4 0-0.8 0.1-1.2 0.1 0 0-0.1 0-0.1 0-0.3 0-0.6 0-0.9-0.1-0.1 0.7-0.1 1.3-0.1 2 0 10 8.1 18.1 18.1 18.1s18.1-8.1 18.1-18.1S39.6 10.1 29.6 10.1z" fill="#E31B23"/></symbol><symbol viewBox="0 0 52 52" id="i--16_savings-calculator-alt"><title>16_savings-calculator-alt</title><path d="M34.4 13.4c0-0.1-0.1-0.1-0.1-0.2 0 0-0.1-0.1-0.1-0.1 0 0-0.1-0.1-0.1-0.1-0.1 0-0.1-0.1-0.2-0.1-0.1-0.1-0.2-0.1-0.4-0.1H18.6c-0.1 0-0.3 0-0.4 0.1-0.1 0-0.1 0.1-0.2 0.1 0 0-0.1 0.1-0.1 0.1 0 0-0.1 0.1-0.1 0.1 0 0.1-0.1 0.1-0.1 0.2-0.1 0.1-0.1 0.2-0.1 0.4v3.1c0 0.6 0.5 1 1 1h0.1 14.7 0.1c0.5 0 1-0.4 1-1v-3.1C34.5 13.7 34.5 13.5 34.4 13.4z" fill="#FFFFFF"/><circle cx="19.7" cy="24.7" r="1.9"/><circle cx="19.7" cy="30.5" r="1.9"/><circle cx="19.7" cy="36.3" r="1.9"/><circle cx="26" cy="24.7" r="1.9"/><circle cx="26" cy="30.5" r="1.9"/><circle cx="26" cy="36.3" r="1.9"/><circle cx="32.3" cy="24.7" r="1.9"/><circle cx="32.3" cy="30.5" r="1.9"/><circle cx="32.3" cy="36.3" r="1.9"/><path d="M35.6 9.9c0.5 0 1 0.5 1 1V40c0 0.5-0.5 1-1 1H16.5c-0.5 0-1-0.5-1-1V10.9c0-0.5 0.5-1 1-1H35.6M35.6 7.9H16.5c-1.6 0-3 1.3-3 3V40c0 1.7 1.4 3 3 3h19.1c1.6 0 3-1.3 3-3V10.9C38.6 9.2 37.2 7.9 35.6 7.9L35.6 7.9z"/></symbol><symbol viewBox="0 0 52 52" id="i--17_savings-calculator-01"><title>17_savings-calculator-01</title><path d="M39 34.8c-1.7-1.5-4.7-3.9-4.7-3.9-1.5-1.2-2.9 0.5-2.9 0.5l-2 2.3c0 0-2.8-0.8-6-3.5-3.2-2.7-4.4-5.3-4.4-5.3l2-2.3c0 0 1.5-1.7 0-2.9 0 0-3-2.5-4.7-3.9-1.7-1.5-2.9-0.1-3.5 0.6-0.6 0.7-6.5 7.7 6.6 18.8 13.2 11.1 19.1 3.9 19.6 3.3C39.6 37.6 40.7 36.2 39 34.8zM34.6 28.6c-0.1 0-0.1 0-0.2 0-0.5-0.1-0.9-0.6-0.8-1.1 0.4-2.7-0.4-5.2-2.3-6.7-1.9-1.6-4.5-1.9-7-1.1-0.5 0.2-1.1-0.1-1.3-0.6-0.2-0.5 0.1-1.1 0.6-1.3 3.2-1.1 6.6-0.6 9 1.4 2.4 2 3.5 5.2 3 8.6C35.5 28.2 35.1 28.6 34.6 28.6zM38 28.7c-0.1 0-0.1 0-0.2 0-0.5-0.1-0.9-0.6-0.8-1.2 0.7-3.9-0.5-7.5-3.2-9.8-2.7-2.3-6.5-2.8-10.2-1.5-0.5 0.2-1.1-0.1-1.3-0.6-0.2-0.5 0.1-1.1 0.6-1.3 4.4-1.6 8.9-0.9 12.2 1.8 3.3 2.7 4.7 7.1 3.9 11.7C38.9 28.4 38.5 28.7 38 28.7zM41.6 28.9c-0.1 0-0.1 0-0.2 0-0.5-0.1-0.9-0.6-0.8-1.1 0.8-5.1-0.8-9.9-4.4-12.9-3.6-3-8.6-3.8-13.5-2.1-0.5 0.2-1.1-0.1-1.3-0.6-0.2-0.5 0.1-1.1 0.6-1.3 5.5-2 11.3-1 15.4 2.4 4.1 3.5 6 9 5 14.8C42.5 28.6 42.1 28.9 41.6 28.9z"/></symbol><symbol viewBox="0 0 52 52" id="i--18_savings-calculator-02"><title>18_savings-calculator-02</title><path d="M25 10.6c2.2 0 3.9 1.8 3.9 3.9v3.3 2.3 2c0 2.2-1.8 3.9-3.9 3.9h-7.7c-0.2 0-0.5 0.1-0.7 0.2l-6.5 4.5c0 0 0-3.4 0-3.5 0-0.6-0.5-1.2-1.1-1.2-2-0.1-3.6-1.9-3.6-3.9v-7.6c0-2.2 1.8-3.9 3.9-3.9H25M25 8.4H9.3c-3.4 0-6.1 2.7-6.1 6.1v7.6c0 2.9 2 5.3 4.7 6 0 1.1 0 2.6 0 2.6 0 0.8 0.4 1.6 1.2 2 0.3 0.2 0.7 0.3 1 0.3 0.4 0 0.9-0.1 1.3-0.4l6.2-4.3H25c3.4 0 6.1-2.8 6.1-6.1v-2-2.3-3.3C31.1 11.1 28.3 8.4 25 8.4L25 8.4zM42.4 20.1c2.2 0 3.9 1.7 3.9 3.9v7.6c0 2-1.6 3.7-3.6 3.9-0.6 0-1.1 0.6-1.1 1.2 0 0.1 0 3.5 0 3.5l-6.5-4.5c-0.2-0.1-0.4-0.2-0.7-0.2h-7.7c-2.2 0-3.9-1.8-3.9-3.9v-3.3V26v-2c0-2.2 1.8-3.9 3.9-3.9H42.4M42.4 17.9H26.7c-3.4 0-6.1 2.7-6.1 6.1v2 2.3 3.3c0 3.4 2.7 6.1 6.1 6.1h7.4l6.2 4.3c0.4 0.3 0.8 0.4 1.3 0.4 0.4 0 0.7-0.1 1-0.3 0.7-0.4 1.2-1.2 1.2-2 0 0 0-1.6 0-2.7 2.7-0.7 4.7-3.1 4.7-5.9V24C48.5 20.6 45.7 17.9 42.4 17.9L42.4 17.9z"/></symbol><symbol viewBox="0 0 52 52" id="i--19_savings-calculator-03"><title>19_savings-calculator-03</title><path d="M33.1 7.2H18.6c-1.8 0-3.2 1.4-3.2 3.2V14h0v2h0v25.3c0 1.8 1.4 3.2 3.2 3.2h14.5c1.8 0 3.2-1.4 3.2-3.2V16v-2-3.6C36.3 8.6 34.9 7.2 33.1 7.2zM24.8 40.6c0-0.6 0.5-1.1 1.1-1.1 0.6 0 1.1 0.5 1.1 1.1 0 0.6-0.5 1.1-1.1 1.1C25.3 41.7 24.8 41.2 24.8 40.6zM34.3 36.7H17.4V16h16.9V36.7zM17.4 14v-3.6c0-0.6 0.5-1.2 1.2-1.2h14.5c0.6 0 1.2 0.5 1.2 1.2V14H17.4zM31.4 35.4c-0.5 0-0.9-0.4-0.9-0.9V21.3c0-0.5 0.4-0.9 0.9-0.9s0.9 0.4 0.9 0.9v13.3C32.2 35.1 31.8 35.4 31.4 35.4zM27.7 35.4c-0.5 0-0.9-0.4-0.9-0.9v-9.9c0-0.5 0.4-0.9 0.9-0.9s0.9 0.4 0.9 0.9v9.9C28.6 35 28.2 35.4 27.7 35.4zM20.4 35.4c-0.5 0-0.9-0.4-0.9-0.9v-3.4c0-0.5 0.4-0.9 0.9-0.9s0.9 0.4 0.9 0.9v3.4C21.2 35 20.9 35.4 20.4 35.4zM24 35.4c-0.5 0-0.9-0.4-0.9-0.9v-7c0-0.5 0.4-0.9 0.9-0.9s0.9 0.4 0.9 0.9v7C24.9 35 24.5 35.4 24 35.4z"/></symbol><symbol viewBox="0 0 52 52" id="i--20_savings-calculator-04"><title>20_savings-calculator-04</title><path d="M25.3 43.8c-10 0-18-8.1-18-18s8.1-18 18-18 18 8.1 18 18S35.2 43.8 25.3 43.8zM25.3 9.8c-8.8 0-16 7.2-16 16s7.2 16 16 16 16-7.2 16-16S34.1 9.8 25.3 9.8zM31 29.7c0-1.3-0.7-3.8-4.9-5.5v-4.7c0.7 0.3 1.3 0.8 1.4 1.6 0.2 0.7 0.8 1.1 1.5 0.9 0.7-0.2 1.1-0.8 0.9-1.5-0.4-1.8-2-3.2-3.9-3.6v-1c0-0.5-0.4-0.9-0.9-0.9s-0.9 0.4-0.9 0.9v1c-2.3 0.4-4 2.2-4 4.4 0 1.4 0.7 3.4 4 4.9v6c-1.2-0.3-2.1-1.2-2.4-2.3-0.1-0.7-0.8-1.1-1.5-0.9-0.7 0.2-1.1 0.8-0.9 1.5 0.5 2.3 2.5 4 4.8 4.3v0.9c0 0.5 0.4 0.9 0.9 0.9s0.9-0.4 0.9-0.9v-0.9C29.1 34.4 31 32.5 31 29.7zM22.9 21.3c0-0.9 0.6-1.6 1.5-1.8v3.9C23.5 22.9 22.9 22.2 22.9 21.3zM26.2 32.2V27c1.5 0.8 2.4 1.8 2.4 2.8C28.5 31.5 27.3 32 26.2 32.2z"/></symbol><symbol viewBox="0 0 52 52" id="i--21_savings-calculator-05"><title>21_savings-calculator-05</title><path d="M26.2 41.8c-3.8 0-6.8-3.1-6.8-6.8 0-3.8 3.1-6.8 6.8-6.8 3.8 0 6.8 3.1 6.8 6.8C33 38.8 30 41.8 26.2 41.8zM26.2 30.4c-2.5 0-4.6 2.1-4.6 4.6 0 2.5 2.1 4.6 4.6 4.6 2.5 0 4.6-2.1 4.6-4.6C30.8 32.5 28.8 30.4 26.2 30.4zM42.9 18.7c-0.3 0-0.6-0.1-0.8-0.3-4.2-4.2-9.9-6.6-15.9-6.6s-11.6 2.3-15.9 6.6c-0.4 0.4-1.1 0.4-1.6 0s-0.4-1.1 0-1.6c4.6-4.6 10.8-7.2 17.4-7.2 6.6 0 12.8 2.6 17.4 7.2 0.4 0.4 0.4 1.1 0 1.6C43.4 18.6 43.1 18.7 42.9 18.7zM38.8 23.2c-0.3 0-0.6-0.1-0.8-0.3-6.5-6.5-17-6.5-23.5 0-0.4 0.4-1.1 0.4-1.6 0s-0.4-1.1 0-1.6c7.3-7.3 19.3-7.3 26.6 0 0.4 0.4 0.4 1.1 0 1.6C39.3 23.1 39 23.2 38.8 23.2zM18.2 27.4c-0.3 0-0.6-0.1-0.8-0.3-0.4-0.4-0.4-1.1 0-1.6 2.3-2.3 5.5-3.6 8.8-3.6h0c3.3 0 6.4 1.3 8.8 3.6 0.4 0.4 0.4 1.1 0 1.6s-1.1 0.4-1.6 0c-1.9-1.9-4.5-3-7.2-3-2.7 0-5.3 1.1-7.2 3C18.8 27.3 18.5 27.4 18.2 27.4z"/></symbol><symbol viewBox="0 0 52 52" id="i--22_coverage-map"><title>22_coverage-map</title><path d="M29 25.2c0-2-1.7-3.7-3.7-3.7-2 0-3.7 1.7-3.7 3.7 0 1.7 1.2 3.2 2.8 3.6v11.2c0 0.5 0.4 1 1 1s1-0.4 1-1V28.7C27.8 28.3 29 26.9 29 25.2zM25.3 27c-1 0-1.8-0.8-1.8-1.8 0-1 0.8-1.8 1.8-1.8 1 0 1.8 0.8 1.8 1.8C27.1 26.2 26.3 27 25.3 27z"/><path d="M38.5 39.4c-0.2 0-0.5-0.1-0.7-0.3-0.4-0.4-0.4-0.9 0-1.3 3.3-3.3 5.1-7.7 5.1-12.3 0-4.7-1.8-9-5.1-12.3-0.4-0.4-0.4-0.9 0-1.3 0.4-0.4 0.9-0.4 1.3 0 3.6 3.6 5.7 8.5 5.7 13.7 0 5.2-2 10-5.7 13.7C39 39.3 38.7 39.4 38.5 39.4z" fill="#E31B23"/><path d="M35 36.2c-0.2 0-0.5-0.1-0.7-0.3-0.4-0.4-0.4-0.9 0-1.3 5-5 5-13.2 0-18.3C34 16 34 15.4 34.3 15c0.4-0.4 0.9-0.4 1.3 0 5.8 5.8 5.8 15.1 0 20.9C35.5 36.1 35.2 36.2 35 36.2z" fill="#E31B23"/><path d="M31.7 32.7c-0.2 0-0.5-0.1-0.7-0.3-0.4-0.4-0.4-0.9 0-1.3 1.5-1.5 2.3-3.5 2.3-5.6 0-2.1-0.8-4.1-2.3-5.6-0.4-0.4-0.4-0.9 0-1.3 0.4-0.4 0.9-0.4 1.3 0 1.8 1.8 2.9 4.3 2.9 6.9 0 2.6-1 5.1-2.9 6.9C32.2 32.6 31.9 32.7 31.7 32.7z" fill="#E31B23"/><path d="M12.1 39c-0.2 0-0.5-0.1-0.7-0.3-7.5-7.5-7.5-19.8 0-27.3 0.4-0.4 0.9-0.4 1.3 0 0.4 0.4 0.4 0.9 0 1.3-6.8 6.8-6.8 17.9 0 24.7 0.4 0.4 0.4 0.9 0 1.3C12.5 38.9 12.3 39 12.1 39z" fill="#E31B23"/><path d="M15.6 35.8c-0.2 0-0.5-0.1-0.7-0.3-2.8-2.8-4.3-6.5-4.3-10.4s1.5-7.7 4.3-10.4c0.4-0.4 0.9-0.4 1.3 0 0.4 0.4 0.4 0.9 0 1.3-2.4 2.4-3.8 5.7-3.8 9.1s1.3 6.7 3.8 9.1c0.4 0.4 0.4 0.9 0 1.3C16 35.7 15.8 35.8 15.6 35.8z" fill="#E31B23"/><path d="M18.9 32.3c-0.2 0-0.5-0.1-0.7-0.3-3.8-3.8-3.8-10 0-13.8 0.4-0.4 0.9-0.4 1.3 0s0.4 0.9 0 1.3c-3.1 3.1-3.1 8.1 0 11.2 0.4 0.4 0.4 0.9 0 1.3C19.3 32.2 19.1 32.3 18.9 32.3z" fill="#E31B23"/></symbol><symbol viewBox="0 0 52 52" id="i--23_device"><title>23_device</title><path d="M29.6 11.3H15.2c-1.7 0-3.2 1.4-3.2 3.2v3.5 2.1 25.1c0 1.7 1.4 3.2 3.2 3.2h14.4c1.7 0 3.2-1.4 3.2-3.2V20.2v-2.1 -3.5C32.8 12.8 31.4 11.3 29.6 11.3zM21.4 44.6c0-0.6 0.5-1.1 1.1-1.1 0.6 0 1.1 0.5 1.1 1.1 0 0.6-0.5 1.1-1.1 1.1C21.8 45.7 21.4 45.2 21.4 44.6zM30.7 40.7H14.2V20.2h16.5V40.7zM14.2 18.1v-3.5c0-0.6 0.5-1.1 1.1-1.1h14.4c0.6 0 1.1 0.5 1.1 1.1v3.5H14.2z" fill="#E31B23"/><path d="M38.3 4.8H23.9c-1.7 0-3.2 1.4-3.2 3.2v3.4h2.1V7.9c0-0.6 0.5-1.1 1.1-1.1h14.4c0.6 0 1.1 0.5 1.1 1.1v3.5h-8.9c1 0.3 1.9 1.1 2.2 2.1h6.7v20.6h-6.5v7.8h5.4c1.7 0 3.2-1.4 3.2-3.2V13.6v-2.1V7.9C41.4 6.2 40 4.8 38.3 4.8z"/></symbol><symbol viewBox="0 0 52 52" id="i--24_services"><title>24_services</title> <path d="M37 35.8c0.7-0.7 2.3-3 3.2-4.5 0.9-1.4 0.3-2.2-1-2.5 -1.3-0.3-1.4-0.6-2.3-1.3 -0.9-0.7-2.6-0.9-2.6-0.9 -1.6-0.4-2.3 2.2-1.9 3.5 0.3 1.3 1.7 1.7 2 2.4 0.3 0.6-0.2 3.2-0.3 4.1 -0.2 0.9-0.9 2.4 0 3.6 0.9 1.3 1.3 0.3 1.3 0.3 -0.8-0.5-0.6-1.2-0.3-2.3C35.3 37.1 36.2 36.5 37 35.8z" fill="#E31B23"/><path d="M4.8 17.4c0.8 0 1.8 0.1 2.5 0.1 3.1 0 6.2 0 9.4 0 1 0.4 2.7 0.4 3.5 1.3 0.2 0.2 0.6 1.4 0.6 1.4l0 0c0 0 0.1 0 0.1 0 0.3 0 0.5-0.6 0.7-0.6 0 0 0 0 0 0 1.5 0.2 2.8 0.5 4.4 0.5 0 0 0.1 0 0.1 0 0.2 0 2.4-0.5 3.5-0.5 0.3 0 0.5 0 0.6 0.2 0 0-1.6 1.9-1.7 2 -0.2 0.2 0.2 0.4 0.1 0.5 -0.2 0.1-0.6 0.1-0.7 0.2 -0.8 0.9-1.7 1.1-2 2.2 -0.3 0.8 0.3 0.9 0 1.5 -0.4 0.9-1.9 1.2-2.3 2 -0.3 0.5 0.6 4.3 0.2 4.3 -0.8 0-0.7-1.3-0.9-1.6 -0.5-0.9-0.2-0.5-0.8-1 -0.2-0.2-0.7-0.2-1.1-0.2 -0.3 0-0.5 0-0.7 0 -0.2 0-0.5 0.4-0.9 0.4 0 0 0 0-0.1 0 -0.5 0-0.9-0.5-1.4-0.5 0 0 0 0 0 0 -1.7 0.1-1.8 1.1-1.8 2.5 -0.7-0.3-1.8-2.5-2.5-2.5 -0.2 0-0.4 0.2-0.5 0.6 -0.9-0.8-0.8-1.3-1.9-1.6 -0.2-0.1-0.4-0.1-0.6-0.1 -0.3 0-0.7 0-1.1 0 -0.2 0-0.4 0-0.6 0C7 28.1 5.5 27.5 4.5 26c-0.8-1.1-1.2-2-1.3-3.4 -0.1-0.9 0.1-1.9 0-2.8 -0.1-0.4-0.5-1.6-0.4-1.8 0 0 0-0.1 0.1-0.1 0.2 0 0.5 0.4 0.7 0.4 0 0 0 0 0 0 0.2-0.2 0.1-0.8 0.2-0.9C4 17.4 4.4 17.4 4.8 17.4M4.8 15.7c-0.7 0-1.2 0.1-1.7 0.2 -0.3 0.1-0.6 0.3-0.8 0.5 -0.6 0.1-1.1 0.5-1.3 1.1 -0.3 0.7-0.1 1.3 0.2 2.1 0.1 0.2 0.1 0.4 0.2 0.5 0 0.3 0 0.7 0 1.1 0 0.5-0.1 1 0 1.5 0.1 1.8 0.8 3 1.6 4.2 1.4 2.1 3.5 2.8 5.3 3.2 0.3 0.1 0.6 0.1 0.9 0.1 0.2 0 0.4 0 0.6 0 0.1 0 0.3 0 0.4 0 0 0 0 0 0 0 0 0 0.1 0 0.1 0 0.2 0.1 0.2 0.1 0.4 0.3 0.2 0.2 0.5 0.6 0.9 0.9 0.3 0.3 0.7 0.4 1.2 0.4 0.1 0 0.3 0 0.4-0.1 0 0 0 0.1 0.1 0.1 0.6 0.8 1.1 1.5 1.9 1.8 0.2 0.1 0.4 0.1 0.6 0.1 0.3 0 0.7-0.1 1-0.3 0.5-0.3 0.8-0.9 0.8-1.4 0-0.4 0-0.6 0-0.7 0 0 0 0 0.1 0 0.3 0.2 0.8 0.4 1.5 0.4 0.1 0 0.2 0 0.2 0 0.5 0 0.9-0.3 1.2-0.4 0.1 0 0.1 0 0.2 0 0.1 0 0.2 0 0.3 0 0 0.1 0.1 0.1 0.1 0.2 0 0 0 0.1 0 0.1 0.4 2.1 1.6 2.5 2.5 2.5 0.5 0 1-0.2 1.4-0.6 0.7-0.8 0.5-1.7 0.3-3.5 0-0.3-0.1-0.8-0.1-1.2 0.1-0.1 0.2-0.1 0.3-0.2 0.6-0.4 1.4-0.9 1.9-1.8 0.4-0.8 0.3-1.5 0.1-1.9 0.1-0.1 0.2-0.3 0.6-0.5 0.2-0.1 0.4-0.3 0.6-0.5 0.3-0.1 0.6-0.2 0.9-0.4 0.4-0.3 0.6-0.8 0.6-1.3 0.1-0.1 0.2-0.3 0.4-0.4 0.9-1 1.8-2 1-3.1 -0.3-0.5-0.9-0.9-2-0.9 -0.8 0-1.9 0.2-3.1 0.4 -0.2 0-0.4 0.1-0.5 0.1h0c-1 0-1.9-0.1-2.8-0.3 -0.5-0.1-0.9-0.1-1.4-0.2 -0.1 0-0.1 0-0.2 0 -0.1-0.2-0.2-0.3-0.2-0.3 -0.9-0.9-2.2-1.2-3.2-1.4 -0.4-0.1-0.7-0.2-1-0.2 -0.2-0.1-0.4-0.1-0.6-0.1H7.3c-0.3 0-0.6 0-1-0.1C5.9 15.7 5.4 15.7 4.8 15.7L4.8 15.7z"/><path d="M30.4 26c0.5 1 1.2 1.4 1.3 1.1 0.1-0.3-0.6-1.6-1.3-2 -0.8-0.3-1.5 0-2-0.8 0 0 0 0 0 0 -0.1 0-0.1 0.1-0.2 0.1 -0.3 0.3-0.5 0.4-0.6 0.5 0 0.1 0.1 0.2 0.1 0.4 0.2 0.1 0.3 0.1 0.5 0.1C28.9 25.7 29.9 25 30.4 26zM33.3 9.1c-5.6 0-10.9 2.7-14.2 7.3 0.8 0.2 1.7 0.5 2.4 1.3 0 0 0.1 0.1 0.2 0.3 0.1 0 0.1 0 0.2 0 0.5 0.1 0.9 0.1 1.4 0.2 1 0.2 1.8 0.3 2.8 0.3h0c0.1 0 0.3-0.1 0.5-0.1 1.2-0.2 2.3-0.4 3.1-0.4 1.1 0 1.7 0.5 2 0.9 0.8 1.1 0 2.1-1 3.1 -0.1 0.1-0.2 0.3-0.4 0.4 0 0.1 0 0.2-0.1 0.3 0.4 0 0.7 0.2 0.8 0.3 0.2 0.3 0.5 0.8 0.9 0.7 0.3-0.1-0.3-0.8-0.2-1.7 0-0.9 1.9-2.5 3.5-4 1.6-1.4 0-2-2-3 -2-1-1.2 1.3-1.4 1.6 -0.3 0.3-1.6 0.3-2.6-0.3 -1-0.6-0.9-1.5 0.1-2.3 1-0.8 1.3-1.6 0.3-1.5 -0.8 0.1-2.4 0.4-3.5 0.4 1.6-0.9 3.4-1.4 5.3-1.6 0.5 0.5 1.1 1.2 1.2 1.3 0.3 0.8 1.2 1.7 1.7 1.4 0.5-0.3 1.4-0.9-0.7-2 -0.5-0.3-0.8-0.5-1-0.7 0 0 0 0-0.1-0.1 0.2 0 0.5 0 0.7 0 1 0 2 0.1 2.9 0.3 0.3 0.9 0.7 2.1 0.7 2.1 0.8 2.1 2 0.7 2.4-0.2 0-0.1 0.4-0.4 0.7-0.7 2.4 1.2 4.5 3 6 5.2 -0.3 0.5-0.7 1.3-0.5 2 0.2 0.9 1.2 0.9 1.1 1.6 -0.1 0.6-0.9-0.2-1.8 1.5 -0.9 1.7-0.5 4 0.9 4.2 1.1 0.1 2.5-0.4 3-0.6 0 0 0 0 0 0 0 8.5-6.9 15.4-15.4 15.4 -6.5 0-12.3-4.1-14.5-10.2 -0.4-0.1-0.8-0.2-1.1-0.4 0 0 0 0-0.1 0 0 0.1 0 0.3 0 0.7 0 0.5-0.2 0.9-0.5 1.2 2.7 6.4 9.1 10.8 16.1 10.8 9.7 0 17.5-7.9 17.5-17.5S42.9 9.1 33.3 9.1z" fill="#E31B23"/></symbol><symbol viewBox="0 0 52 52" id="i--39_savings-calculator"><title>39_savings-calculator</title><path d="M34.4 13.4c0-0.1-0.1-0.1-0.1-0.2 0 0-0.1-0.1-0.1-0.1 0 0-0.1-0.1-0.1-0.1-0.1 0-0.1-0.1-0.2-0.1-0.1-0.1-0.2-0.1-0.4-0.1H18.6c-0.1 0-0.3 0-0.4 0.1-0.1 0-0.1 0.1-0.2 0.1 0 0-0.1 0.1-0.1 0.1 0 0-0.1 0.1-0.1 0.1 0 0.1-0.1 0.1-0.1 0.2-0.1 0.1-0.1 0.2-0.1 0.4v3.1c0 0.6 0.5 1 1 1h0.1 14.7 0.1c0.5 0 1-0.4 1-1v-3.1C34.5 13.7 34.5 13.5 34.4 13.4z"/><circle cx="19.7" cy="24.7" r="1.9" fill="#E31B23"/><circle cx="19.7" cy="30.5" r="1.9" fill="#E31B23"/><circle cx="19.7" cy="36.3" r="1.9" fill="#E31B23"/><circle cx="26" cy="24.7" r="1.9" fill="#E31B23"/><circle cx="26" cy="30.5" r="1.9" fill="#E31B23"/><circle cx="26" cy="36.3" r="1.9" fill="#E31B23"/><circle cx="32.3" cy="24.7" r="1.9" fill="#E31B23"/><circle cx="32.3" cy="30.5" r="1.9" fill="#E31B23"/><circle cx="32.3" cy="36.3" r="1.9" fill="#E31B23"/><path d="M35.6 9.9c0.5 0 1 0.5 1 1V40c0 0.5-0.5 1-1 1H16.5c-0.5 0-1-0.5-1-1V10.9c0-0.5 0.5-1 1-1H35.6M35.6 7.9H16.5c-1.6 0-3 1.3-3 3V40c0 1.7 1.4 3 3 3h19.1c1.6 0 3-1.3 3-3V10.9C38.6 9.2 37.2 7.9 35.6 7.9L35.6 7.9z" fill="#E31B23"/></symbol><symbol viewBox="0 0 52 52" id="i--49_check-savings-02"><title>49_check-savings-02</title><path d="M32 15.4H18.3c-1.5 0-2.7 1.2-2.7 2.7v3.5 1.8 23.4c0 1.5 1.2 2.7 2.7 2.7H32c1.5 0 2.7-1.2 2.7-2.7V23.5v-1.8-3.5C34.7 16.7 33.5 15.4 32 15.4zM24.2 46c0-0.5 0.4-1 1-1 0.5 0 1 0.4 1 1 0 0.5-0.4 1-1 1C24.6 47 24.2 46.6 24.2 46zM32.9 42.5H17.4v-19h15.5V42.5zM17.4 21.7v-3.5c0-0.5 0.4-0.9 0.9-0.9H32c0.5 0 0.9 0.4 0.9 0.9v3.5H17.4zM30.2 41.3c-0.5 0-0.9-0.4-0.9-0.9V28.2c0-0.5 0.4-0.9 0.9-0.9s0.9 0.4 0.9 0.9v12.2C31.1 40.9 30.7 41.3 30.2 41.3zM26.9 41.2c-0.5 0-0.9-0.4-0.9-0.9v-9.1c0-0.5 0.4-0.9 0.9-0.9s0.9 0.4 0.9 0.9v9.1C27.7 40.8 27.3 41.2 26.9 41.2zM20.1 41.2c-0.5 0-0.9-0.4-0.9-0.9v-3.2c0-0.5 0.4-0.9 0.9-0.9s0.9 0.4 0.9 0.9v3.2C21 40.8 20.6 41.2 20.1 41.2zM23.5 41.2c-0.5 0-0.9-0.4-0.9-0.9v-6.4c0-0.5 0.4-0.9 0.9-0.9s0.9 0.4 0.9 0.9v6.4C24.4 40.8 24 41.2 23.5 41.2zM38.1 10.5c-0.2 0-0.5-0.1-0.6-0.3-6.7-6.7-17.6-6.7-24.3 0-0.4 0.4-0.9 0.4-1.3 0s-0.4-0.9 0-1.3c7.4-7.4 19.4-7.4 26.8 0 0.4 0.4 0.4 0.9 0 1.3C38.5 10.4 38.3 10.5 38.1 10.5zM34.9 14c-0.2 0-0.5-0.1-0.6-0.3-5-5-13-5-18 0-0.4 0.4-0.9 0.4-1.3 0s-0.4-0.9 0-1.3c5.7-5.7 14.9-5.7 20.5 0 0.4 0.4 0.4 0.9 0 1.3C35.4 13.9 35.1 14 34.9 14z"/></symbol><symbol viewBox="0 0 52 52" id="i--01_check-rates"><title>01_check-rates</title><path d="M12.4 16.7c-0.2 0-0.3 0-0.5-0.1l-3.9-2c-0.5-0.3-0.8-0.9-0.5-1.5 0.3-0.5 0.9-0.8 1.5-0.5l3.9 2c0.5 0.3 0.8 0.9 0.5 1.5C13.2 16.5 12.8 16.7 12.4 16.7z"/><path d="M18 10.7c-0.4 0-0.7-0.2-0.9-0.5l-2.3-3.8c-0.3-0.5-0.1-1.2 0.4-1.5 0.5-0.3 1.2-0.1 1.5 0.4L18.9 9c0.3 0.5 0.1 1.2-0.4 1.5C18.4 10.6 18.2 10.7 18 10.7z"/><path d="M26 8.5C26 8.5 25.9 8.5 26 8.5c-0.6 0-1.1-0.5-1.1-1.1l0-4.4c0-0.6 0.5-1.1 1.1-1.1 0 0 0 0 0 0 0.6 0 1.1 0.5 1.1 1.1l0 4.4C27.1 8 26.6 8.5 26 8.5z"/><path d="M33.9 10.9c-0.2 0-0.4-0.1-0.6-0.2-0.5-0.3-0.7-1-0.3-1.5l2.4-3.7c0.3-0.5 1-0.7 1.5-0.3 0.5 0.3 0.7 1 0.3 1.5l-2.4 3.7C34.6 10.7 34.2 10.9 33.9 10.9z"/><path d="M39.3 17c-0.4 0-0.8-0.2-1-0.6-0.3-0.5 0-1.2 0.5-1.5l4-1.9c0.5-0.3 1.2 0 1.5 0.5 0.3 0.5 0 1.2-0.5 1.5l-4 1.9C39.7 17 39.5 17 39.3 17z"/><path d="M32.8 12.3H19.2c-1.6 0-3 1.4-3 3v3.3 2 23.7c0 1.6 1.4 3 3 3h13.6c1.6 0 3-1.4 3-3V20.6v-2-3.3C35.8 13.7 34.4 12.3 32.8 12.3zM25 43.7c0-0.6 0.4-1 1-1 0.6 0 1 0.4 1 1 0 0.6-0.4 1-1 1C25.4 44.7 25 44.3 25 43.7zM33.8 40.1H18.2V20.6h15.6V40.1zM18.2 18.6v-3.3c0-0.5 0.5-1 1-1h13.6c0.5 0 1 0.5 1 1v3.3H18.2z" fill="#E31B23"/></symbol><symbol viewBox="0 0 52 52" id="i--26"><title>26</title><path d="M25.3 42.8c-10 0-18.1-8.1-18.1-18.1S15.3 6.6 25.3 6.6s18.1 8.1 18.1 18.1S35.3 42.8 25.3 42.8zM25.3 8.8C16.5 8.8 9.4 16 9.4 24.7s7.1 15.9 15.9 15.9 15.9-7.1 15.9-15.9S34 8.8 25.3 8.8z" fill="#E31B23"/><path d="M31 28.8c0-1.3-0.7-3.8-4.9-5.5v-4.7c0.7 0.3 1.3 0.8 1.4 1.6 0.2 0.7 0.8 1.1 1.5 0.9 0.7-0.2 1.1-0.8 0.9-1.5 -0.4-1.8-2-3.2-3.9-3.6v-1c0-0.5-0.4-0.9-0.9-0.9s-0.9 0.4-0.9 0.9v1c-2.3 0.4-4 2.2-4 4.4 0 1.4 0.7 3.4 4 4.9v6c-1.2-0.3-2.1-1.2-2.4-2.3 -0.1-0.7-0.8-1.1-1.5-0.9 -0.7 0.2-1.1 0.8-0.9 1.5 0.5 2.3 2.5 4 4.8 4.3v0.9c0 0.5 0.4 0.9 0.9 0.9s0.9-0.4 0.9-0.9v-0.9C29.1 33.4 31 31.5 31 28.8zM22.9 20.3c0-0.9 0.6-1.6 1.5-1.8v3.9C23.5 21.9 22.9 21.2 22.9 20.3zM26.2 31.2V26c1.5 0.8 2.4 1.8 2.4 2.8C28.5 30.5 27.3 31 26.2 31.2z"/></symbol><symbol viewBox="0 0 52 52" id="i--27"><title>27</title><path d="M25.2 43.7c-10 0-18.1-8.1-18.1-18.1S15.2 7.5 25.2 7.5s18.1 8.1 18.1 18.1S35.2 43.7 25.2 43.7zM25.2 9.7c-8.8 0-15.9 7.1-15.9 15.9s7.1 15.9 15.9 15.9 15.9-7.1 15.9-15.9S34 9.7 25.2 9.7z" fill="#E31B23"/><path d="M22.1 35.2c-0.4 0-0.8-0.2-1-0.5l-4.5-6c-0.4-0.6-0.3-1.3 0.2-1.8 0.6-0.4 1.3-0.3 1.8 0.2l3.5 4.6 9.8-14.3c0.4-0.6 1.2-0.7 1.7-0.3 0.6 0.4 0.7 1.2 0.3 1.7L23.1 34.7C22.9 35 22.5 35.2 22.1 35.2 22.1 35.2 22.1 35.2 22.1 35.2z"/></symbol><symbol viewBox="0 0 52 52" id="i--28"><title>28</title><path d="M26 23.7c-0.4 0-0.8 0.1-1.1 0.2l-5.3-6.1c-0.4-0.4-1-0.5-1.4-0.1s-0.5 1-0.1 1.4l5.2 6c-0.4 0.6-0.7 1.2-0.7 2 0 1.9 1.5 3.4 3.4 3.4s3.4-1.5 3.4-3.4S27.9 23.7 26 23.7z"/><path d="M25.9 41c-0.6 0-1-0.4-1-1v-0.8c0-0.6 0.4-1 1-1s1 0.4 1 1V40C26.9 40.5 26.5 41 25.9 41z"/><path d="M14 28h-0.8c-0.6 0-1-0.4-1-1s0.4-1 1-1H14c0.6 0 1 0.4 1 1S14.5 28 14 28z"/><path d="M26.2 16c-0.6 0-1-0.4-1-1v-0.8c0-0.6 0.4-1 1-1s1 0.4 1 1V15C27.2 15.5 26.7 16 26.2 16z"/><path d="M38.9 28.2h-0.8c-0.6 0-1-0.4-1-1s0.4-1 1-1h0.8c0.6 0 1 0.4 1 1S39.5 28.2 38.9 28.2z"/><path d="M26 44.3c-9.5 0-17.3-7.7-17.3-17.3S16.5 9.7 26 9.7 43.3 17.5 43.3 27 35.5 44.3 26 44.3zM26 11.9c-8.3 0-15.1 6.8-15.1 15.1S17.7 42.1 26 42.1 41.1 35.3 41.1 27 34.3 11.9 26 11.9z" fill="#E31B23"/><path d="M22.5 7.7h2.5v2c0.4 0 0.7-0.1 1.1-0.1 0.3 0 0.6 0 0.9 0v-2h2.2c0.8 0 1.5-0.7 1.5-1.5S30 4.7 29.1 4.7h-6.7c-0.8 0-1.5 0.7-1.5 1.5S21.6 7.7 22.5 7.7zM35.3 10.3l1.2 0.9-1 1.4c0.6 0.4 1.1 0.8 1.6 1.2l1-1.5 1.2 0.8c0.3 0.2 0.6 0.3 0.9 0.3 0.5 0 0.9-0.2 1.2-0.6 0.5-0.7 0.3-1.6-0.4-2.1L37 7.9c-0.7-0.5-1.6-0.3-2.1 0.4C34.5 8.9 34.6 9.8 35.3 10.3z"/></symbol><symbol viewBox="0 0 52 52" id="i--29"><title>29</title><path d="M27 44.3c-7 0-12.1-4.6-12.1-4.6 -0.3-0.3-0.4-0.8-0.3-1.2 2.2-5.8 6.9-9.5 12.3-9.5 9.5 0 12.3 9.3 12.3 9.4 0.1 0.4 0 0.9-0.3 1.1C34.7 43.1 30.6 44.3 27 44.3zM16.9 38.5c2.2 1.8 10.6 7.3 20-0.2 -0.8-1.9-3.4-7.2-10-7.2C22.6 31.2 18.9 33.9 16.9 38.5z"/><path d="M26.9 27.1c-3.8 0-6.8-3.1-6.8-6.8 0-3.8 3.1-6.8 6.8-6.8 3.8 0 6.8 3.1 6.8 6.8C33.7 24 30.6 27.1 26.9 27.1zM26.9 15.7c-2.5 0-4.6 2.1-4.6 4.6 0 2.5 2.1 4.6 4.6 4.6 2.5 0 4.6-2.1 4.6-4.6C31.5 17.8 29.4 15.7 26.9 15.7z"/><path d="M14.6 38.5c0.2-0.6 0.5-1.1 0.7-1.7C12.6 33.9 11 30 11 25.9 11 17.2 18.1 10 26.9 10s15.9 7.1 15.9 15.9c0 4-1.5 7.9-4.3 10.8 0.5 1 0.7 1.7 0.7 1.7 0.1 0.3 0 0.6-0.1 0.8C42.8 35.8 45 31 45 25.9c0-10-8.1-18.1-18.1-18.1S8.8 15.9 8.8 25.9c0 5 2.1 9.8 5.8 13.2C14.5 38.9 14.5 38.7 14.6 38.5z" fill="#E31B23"/></symbol><symbol viewBox="0 0 52 52" id="i--30"><title>30</title><path d="M24.5 19.7c-0.5 0.3-0.8 0.8-0.8 1.5 0 0.6 0.3 1.1 0.8 1.5V19.7z" fill="#3B9D4A"/><path d="M28.8 28.5c0-0.9-0.8-1.8-2.3-2.6v4.8C27.6 30.6 28.8 30.1 28.8 28.5z" fill="#3B9D4A"/><path d="M25.9 6.6c-10 0-18.1 8.1-18.1 18.1 0 10 8.1 18.1 18.1 18.1 10 0 18.1-8.1 18.1-18.1C44 14.7 35.9 6.6 25.9 6.6zM25.9 39.7c-3 0-5.9-0.9-8.3-2.6 -0.3-0.2-0.4-0.7-0.2-1 0.2-0.3 0.7-0.4 1-0.2 2.2 1.5 4.8 2.4 7.5 2.4 7.2 0 13.1-5.9 13.1-13.1S33.1 12 25.9 12c-3.6 0-7.1 1.5-9.5 4.2l0.6-0.1c0.4-0.1 0.8 0.2 0.9 0.6 0.1 0.4-0.2 0.8-0.6 0.9L14.4 18c0 0-0.1 0-0.1 0 -0.2 0-0.4-0.1-0.5-0.2 -0.2-0.2-0.3-0.4-0.2-0.6l0.3-2.7c0-0.4 0.4-0.7 0.8-0.7 0.4 0 0.7 0.4 0.7 0.8l-0.1 0.5c2.7-2.9 6.6-4.6 10.6-4.6 8 0 14.6 6.5 14.6 14.6S33.9 39.7 25.9 39.7zM21.7 21.1c0-1.7 1.2-3.1 2.8-3.6V16c0-0.6 0.4-1 1-1s1 0.4 1 1v1.4c1.6 0.3 3 1.5 3.4 3.1 0.1 0.5-0.2 1.1-0.8 1.2 -0.5 0.1-1.1-0.2-1.2-0.8 -0.2-0.7-0.7-1.2-1.4-1.5v4.3c3.7 1.5 4.3 3.6 4.3 4.8 0 2.4-1.7 4-4.3 4.3V34c0 0.6-0.4 1-1 1s-1-0.4-1-1v-1.4c-1.8-0.5-3.2-1.8-3.6-3.6 -0.1-0.5 0.2-1.1 0.8-1.2s1.1 0.2 1.2 0.8c0.2 0.9 0.8 1.5 1.6 1.9V25C22.2 23.8 21.7 22.3 21.7 21.1z" fill="#3B9D4A"/></symbol><symbol viewBox="0 0 52 52" id="i--31"><title>31</title><path d="M25.4 7.1c-4.9 0-9.5 2-12.9 5.4l0-0.2c0.1-0.6-0.4-1.1-1-1.2-0.6-0.1-1.1 0.4-1.2 1L10 15.5c0 0.3 0.1 0.7 0.3 0.9 0.2 0.2 0.5 0.3 0.8 0.3 0.1 0 0.1 0 0.2 0l3.4-0.5c0.6-0.1 1-0.7 0.9-1.3-0.1-0.6-0.7-1-1.3-0.9L14 14c3-3 7.1-4.8 11.4-4.8 8.9 0 16.1 7.2 16.1 16.1s-7.2 16.1-16.1 16.1c-3.3 0-6.5-1-9.2-2.9-0.5-0.3-1.2-0.2-1.5 0.3-0.3 0.5-0.2 1.2 0.3 1.5 3.1 2.2 6.7 3.3 10.5 3.3 10.1 0 18.3-8.2 18.3-18.3S35.6 7.1 25.4 7.1z" fill="#E31B23"/><path d="M31 29.6c0-1.3-0.7-3.8-4.9-5.5v-4.7c0.7 0.3 1.3 0.8 1.4 1.6 0.2 0.7 0.8 1.1 1.5 0.9 0.7-0.2 1.1-0.8 0.9-1.5-0.4-1.8-2-3.2-3.9-3.6v-1c0-0.5-0.4-0.9-0.9-0.9s-0.9 0.4-0.9 0.9v1c-2.3 0.4-4 2.2-4 4.4 0 1.4 0.7 3.4 4 4.9v6c-1.2-0.3-2.1-1.2-2.4-2.3-0.1-0.7-0.8-1.1-1.5-0.9-0.7 0.2-1.1 0.8-0.9 1.5 0.5 2.3 2.5 4 4.8 4.3v0.9c0 0.5 0.4 0.9 0.9 0.9s0.9-0.4 0.9-0.9v-0.9C29.1 34.2 31 32.3 31 29.6zM22.8 21.1c0-0.9 0.6-1.6 1.5-1.8v3.9C23.5 22.7 22.8 22 22.8 21.1zM26.1 32v-5.2c1.5 0.8 2.4 1.8 2.4 2.8C28.5 31.3 27.3 31.8 26.1 32z"/></symbol><symbol viewBox="0 0 52 52" id="i--36"><title>36</title><path d="M24.3 14.4c0 1.6-1.3 2.9-3 2.9h-8.6c-1.6 0-3-1.3-3-2.9l0 0c0-1.6 1.3-2.9 3-2.9h8.6C22.9 11.5 24.3 12.8 24.3 14.4L24.3 14.4z" fill="#E31B23"/><path d="M30.5 26.1c0 1.6-1.3 2.9-3 2.9h-15c-1.6 0-3-1.3-3-2.9l0 0c0-1.6 1.3-2.9 3-2.9h15C29.2 23.3 30.5 24.6 30.5 26.1L30.5 26.1z" fill="#E31B23"/><path d="M21.2 38c0 1.6-1.3 2.9-3 2.9h-5.6c-1.6 0-3-1.3-3-2.9l0 0c0-1.6 1.3-2.9 3-2.9h5.6C19.9 35.1 21.2 36.4 21.2 38L21.2 38z" fill="#E31B23"/><path d="M39.2 30.7H12.5c-2.5 0-4.5-2-4.5-4.5 0-2.5 2-4.5 4.5-4.5h26.7c2.5 0 4.5 2 4.5 4.5C43.7 28.6 41.7 30.7 39.2 30.7zM12.5 23.3c-1.6 0-2.9 1.3-2.9 2.9 0 1.6 1.3 2.9 2.9 2.9h26.7c1.6 0 2.9-1.3 2.9-2.9 0-1.6-1.3-2.9-2.9-2.9H12.5z"/><path d="M39.2 18.8H12.5c-2.5 0-4.5-2-4.5-4.5s2-4.5 4.5-4.5h26.7c2.5 0 4.5 2 4.5 4.5S41.7 18.8 39.2 18.8zM12.5 11.5c-1.6 0-2.9 1.3-2.9 2.9s1.3 2.9 2.9 2.9h26.7c1.6 0 2.9-1.3 2.9-2.9s-1.3-2.9-2.9-2.9H12.5z"/><path d="M39.2 42.5H12.5C10 42.5 8 40.5 8 38s2-4.5 4.5-4.5h26.7c2.5 0 4.5 2 4.5 4.5S41.7 42.5 39.2 42.5zM12.5 35.1c-1.6 0-2.9 1.3-2.9 2.9s1.3 2.9 2.9 2.9h26.7c1.6 0 2.9-1.3 2.9-2.9s-1.3-2.9-2.9-2.9H12.5z"/></symbol><symbol viewBox="0 0 52 52" id="i--37"><title>37</title><path d="M29.6 9.1c1.1 0 2.2 0.8 2.4 2.7 0.1 0.9-0.2 3.1-1.4 5.2 -0.5 0.9-0.5 2 0 2.9 0.5 0.9 1.5 1.5 2.6 1.5h7.5c0.5 0 0.9 0.2 1.3 0.5 0.3 0.3 0.5 0.8 0.5 1.3 0 1-0.8 1.8-1.8 1.8h-0.4c-0.3 0-0.5 0.2-0.5 0.5 0 0.3 0.2 0.5 0.5 0.5 1 0 1.8 0.8 1.8 1.8 0 1-0.8 1.8-1.8 1.8h-1c-0.3 0-0.5 0.2-0.5 0.5 0 0.3 0.2 0.5 0.5 0.5 1 0 1.8 0.8 1.8 1.8 0 1-0.8 1.8-1.8 1.8h-1.1c-0.3 0-0.5 0.2-0.5 0.5 0 0.3 0.2 0.5 0.5 0.5 0.8 0 1.5 0.7 1.5 1.5 0 0.4-0.2 0.8-0.4 1.1 -0.3 0.3-0.7 0.4-1.1 0.4H24.9c-0.2 0-0.4 0-0.6 0 -2.8 0-4.8-0.9-6.5-2.3V22.9h1.9c0.5 0 1-0.1 1.4-0.4 0.4-0.3 0.7-0.6 0.9-1.1 0.4-0.8 0.9-1.6 1.5-2.3 2.2-2.6 4.6-5.5 4.7-8.6 0-0.7 0.6-1.3 1.3-1.3L29.6 9.1C29.5 9.1 29.5 9.1 29.6 9.1M29.6 7.1c0 0-0.1 0-0.1 0l-0.1 0c-1.8 0.1-3.2 1.5-3.3 3.2 -0.1 2.5-2.3 5.1-4.3 7.4 -0.7 0.8-1.3 1.7-1.8 2.7 0 0.1-0.1 0.2-0.2 0.2 -0.1 0.1-0.2 0.1-0.3 0.1h-1.9c-1.1 0-2 0.9-2 2v13.4c0 0.6 0.3 1.2 0.8 1.6 2.3 1.9 4.8 2.7 7.8 2.7 0.2 0 0.5 0 0.7 0h13.2c0.9 0 1.8-0.4 2.5-1 0.7-0.7 1-1.6 1-2.5 0-0.4-0.1-0.8-0.2-1.2 1-0.7 1.6-1.8 1.6-3.1 0-0.6-0.1-1.2-0.4-1.7 0.9-0.7 1.4-1.8 1.4-3 0-0.8-0.2-1.5-0.6-2.1 0.6-0.7 1-1.6 1-2.6 0-1-0.4-2-1.1-2.7 -0.7-0.7-1.7-1.1-2.7-1.1h-7.5c-0.4 0-0.7-0.2-0.8-0.5 -0.2-0.3-0.2-0.6 0-0.9 1.4-2.4 1.8-5 1.7-6.4C33.7 8.6 31.5 7.1 29.6 7.1L29.6 7.1z" fill="#E31B23"/><path d="M14.4 36.9c0 0.5-0.4 0.9-0.9 0.9h-3.3c-0.5 0-0.9-0.4-0.9-0.9V22.1c0-0.5 0.4-0.9 0.9-0.9h3.3c0.5 0 0.9 0.4 0.9 0.9V36.9z"/></symbol><symbol viewBox="0 0 52 52" id="i--38"><title>38</title><path d="M42.6 15.8c0.5 0 1 0.5 1 1v18.4c0 0.5-0.5 1-1 1H10c-0.5 0-1-0.5-1-1V16.8c0-0.5 0.5-1 1-1H42.6M42.6 13.8H10c-1.6 0-3 1.3-3 3v18.4c0 1.7 1.4 3 3 3h32.6c1.6 0 3-1.3 3-3V16.8C45.6 15.1 44.2 13.8 42.6 13.8L42.6 13.8z" fill="#E31B23"/><rect x="9" y="20.5" width="34.6" height="3"/></symbol><symbol viewBox="0 0 52 52" id="i--40"><title>40</title><path d="M36.6 9.7c0.5 0 1 0.5 1 1v29.1c0 0.5-0.5 1-1 1H17.5c-0.5 0-1-0.5-1-1V10.7c0-0.5 0.5-1 1-1H36.6M36.6 7.7H17.5c-1.7 0-3 1.3-3 3v29.1c0 1.7 1.3 3 3 3h19.1c1.7 0 3-1.3 3-3V10.7C39.6 9 38.3 7.7 36.6 7.7L36.6 7.7z" fill="#E31B23"/><path d="M34.6 35.1h-15c-0.5 0-0.9-0.4-0.9-0.9s0.4-0.9 0.9-0.9h15c0.5 0 0.9 0.4 0.9 0.9S35.1 35.1 34.6 35.1z"/><path d="M34.6 29.1h-15c-0.5 0-0.9-0.4-0.9-0.9s0.4-0.9 0.9-0.9h15c0.5 0 0.9 0.4 0.9 0.9S35.1 29.1 34.6 29.1z"/><path d="M34.6 23.1h-15c-0.5 0-0.9-0.4-0.9-0.9s0.4-0.9 0.9-0.9h15c0.5 0 0.9 0.4 0.9 0.9S35.1 23.1 34.6 23.1z"/><path d="M34.6 17.1h-15c-0.5 0-0.9-0.4-0.9-0.9s0.4-0.9 0.9-0.9h15c0.5 0 0.9 0.4 0.9 0.9S35.1 17.1 34.6 17.1z"/></symbol><symbol viewBox="0 0 52 52" id="i--41"><title>41</title><path d="M35.8 10.5c0.5 0 1 0.4 1 1v28.6c0 0.5-0.4 1-1 1H15.9c-0.5 0-1-0.4-1-1V18.2c1.4-1.6 5.9-6.2 7.5-7.7H35.8M35.8 8.3H21.6c-0.3 0-8.9 8.9-8.9 9.2v22.7c0 1.8 1.4 3.2 3.2 3.2h19.9c1.8 0 3.2-1.4 3.2-3.2V11.5C39 9.7 37.6 8.3 35.8 8.3L35.8 8.3z" fill="#E31B23"/><path d="M31.3 30.7l-4-4 4-4c0.4-0.4 0.4-1 0-1.4s-1-0.4-1.4 0l-4 4 -4-4c-0.4-0.4-1-0.4-1.4 0s-0.4 1 0 1.4l4 4 -4 4c-0.4 0.4-0.4 1 0 1.4 0.2 0.2 0.4 0.3 0.7 0.3s0.5-0.1 0.7-0.3l4-4 4 4c0.2 0.2 0.4 0.3 0.7 0.3s0.5-0.1 0.7-0.3C31.6 31.7 31.6 31.1 31.3 30.7z"/></symbol><symbol viewBox="0 0 52 52" id="i--42"><title>42</title><path class="st1" d="M34.8 10.5c0.5 0 1 0.4 1 1v28.6c0 0.5-0.4 1-1 1H14.9c-0.5 0-1-0.4-1-1V18.2c1.4-1.6 5.9-6.2 7.5-7.7H34.8M34.8 8.3H20.6c-0.3 0-8.9 8.9-8.9 9.2v22.7c0 1.8 1.4 3.2 3.2 3.2h19.9c1.8 0 3.2-1.4 3.2-3.2V11.5C38 9.7 36.6 8.3 34.8 8.3L34.8 8.3z" fill="#E31B23"/><path d="M31.1 29.1h-2.6v-3.5l2.6 0c0.5 0 0.9-0.4 0.9-0.9s-0.4-0.9-0.9-0.9l-2.6 0v-2.6c0-0.5-0.4-0.9-0.9-0.9s-0.9 0.4-0.9 0.9v2.6l-3.6 0v-2.6c0-0.5-0.4-0.9-0.9-0.9s-0.9 0.4-0.9 0.9v2.6l-2.8 0c-0.5 0-0.9 0.4-0.9 0.9s0.4 0.9 0.9 0.9l2.8 0v3.5h-2.8c-0.5 0-0.9 0.4-0.9 0.9s0.4 0.9 0.9 0.9h2.8v2.7c0 0.5 0.4 0.9 0.9 0.9s0.9-0.4 0.9-0.9v-2.7h3.6v2.7c0 0.5 0.4 0.9 0.9 0.9s0.9-0.4 0.9-0.9v-2.7h2.6c0.5 0 0.9-0.4 0.9-0.9S31.6 29.1 31.1 29.1zM23.1 29.1v-3.5l3.6 0v3.5H23.1z"/></symbol><symbol viewBox="0 0 52 52" id="i--43"><title>43</title><path d="M20.6 24.7h4c0.4 0 0.7-0.3 0.7-0.7v-4c0-0.4-0.3-0.7-0.7-0.7h-4c-0.4 0-0.7 0.3-0.7 0.7v4C19.9 24.4 20.2 24.7 20.6 24.7z"/><path d="M33.6 8.3H19.1c-1.8 0-3.2 1.4-3.2 3.2v3.6 2 25.3c0 1.8 1.4 3.2 3.2 3.2h14.5c1.8 0 3.2-1.4 3.2-3.2V17.1v-2 -3.6C36.8 9.7 35.4 8.3 33.6 8.3zM25.3 41.7c0-0.6 0.5-1.1 1.1-1.1s1.1 0.5 1.1 1.1c0 0.6-0.5 1.1-1.1 1.1S25.3 42.3 25.3 41.7zM34.8 37.8H18V17.1h16.9V37.8zM18 15.1v-3.6c0-0.6 0.5-1.2 1.2-1.2h14.5c0.6 0 1.2 0.5 1.2 1.2v3.6H18z" fill="#E31B23"/></symbol><symbol viewBox="0 0 52 52" id="i--44"><title>44</title><path d="M29.6 23.5l-4.1-3.2c-0.4-0.3-1.1-0.3-1.4 0.2s-0.3 1.1 0.2 1.4l2 1.5H10.1c-0.5 0-0.9 0.4-0.9 0.9s0.4 0.9 0.9 0.9h16.1l-1.9 1.5c-0.4 0.3-0.5 1-0.2 1.4 0.2 0.3 0.5 0.4 0.8 0.4 0.2 0 0.4-0.1 0.6-0.2l4.1-3.2c0.2-0.2 0.4-0.5 0.4-0.8C30 23.9 29.9 23.7 29.6 23.5z" fill="#E31B23"/><path d="M36.9 12.5V8.9c0-1.8-1.4-3.2-3.2-3.2H19.2c-1.8 0-3.2 1.4-3.2 3.2v3.6 2 8.9h2v-8.9h16.9v20.7H18v-10h-2v14.7c0 1.8 1.4 3.2 3.2 3.2h14.5c1.8 0 3.2-1.4 3.2-3.2V14.5h0L36.9 12.5 36.9 12.5zM26.4 40.2c-0.6 0-1.1-0.5-1.1-1.1 0-0.6 0.5-1.1 1.1-1.1 0.6 0 1.1 0.5 1.1 1.1C27.5 39.7 27 40.2 26.4 40.2zM34.9 12.5H18V8.9c0-0.6 0.5-1.2 1.2-1.2h14.5c0.6 0 1.2 0.5 1.2 1.2V12.5z"/></symbol><symbol viewBox="0 0 52 52" id="i--45"><title>45</title><path d="M30 23.5h-3.5V20c0-0.6-0.4-1-1-1s-1 0.4-1 1v3.5H21c-0.6 0-1 0.4-1 1s0.4 1 1 1h3.5V29c0 0.6 0.4 1 1 1s1-0.4 1-1v-3.5H30c0.6 0 1-0.4 1-1S30.5 23.5 30 23.5z" fill="#E31B23"/><path d="M32.7 5.8H18.2c-1.8 0-3.2 1.4-3.2 3.2v3.6 2V40c0 1.8 1.4 3.2 3.2 3.2h14.5c1.8 0 3.2-1.4 3.2-3.2V14.6v-2V9C35.9 7.3 34.5 5.8 32.7 5.8zM24.4 39.3c0-0.6 0.5-1.1 1.1-1.1s1.1 0.5 1.1 1.1c0 0.6-0.5 1.1-1.1 1.1S24.4 39.8 24.4 39.3zM33.9 35.4H17.1V14.6h16.9V35.4zM17.1 12.6V9c0-0.6 0.5-1.2 1.2-1.2h14.5c0.6 0 1.2 0.5 1.2 1.2v3.6H17.1z"/></symbol><symbol viewBox="0 0 52 52" id="i--46"><title>46</title><path d="M23.9 30l-3.3-4.4c-0.3-0.4-0.2-1 0.2-1.3s1-0.2 1.3 0.2l1.8 2.4 5.2-7.4c0.3-0.4 0.8-0.5 1.3-0.2s0.5 0.8 0.2 1.3L23.9 30z"/><path d="M32.8 5.6H18.3c-1.8 0-3.2 1.4-3.2 3.2v3.6 2 25.3c0 1.8 1.4 3.2 3.2 3.2h14.5c1.8 0 3.2-1.4 3.2-3.2V14.4v-2V8.8C36 7 34.5 5.6 32.8 5.6zM24.5 39c0-0.6 0.5-1.1 1.1-1.1s1.1 0.5 1.1 1.1c0 0.6-0.5 1.1-1.1 1.1S24.5 39.6 24.5 39zM34 35.1H17.1V14.4H34V35.1zM17.1 12.4V8.8c0-0.6 0.5-1.2 1.2-1.2h14.5c0.6 0 1.2 0.5 1.2 1.2v3.6H17.1z" fill="#E31B23"/></symbol><symbol viewBox="0 0 52 52" id="i--47"><title>47</title><path d="M30.8 26.5h-1.9v-2.6h1.9c0.4 0 0.8-0.4 0.8-0.8s-0.4-0.8-0.8-0.8h-1.9v-1.9c0-0.4-0.4-0.8-0.8-0.8s-0.8 0.4-0.8 0.8v1.9h-2.6v-1.9c0-0.4-0.4-0.8-0.8-0.8S23 19.9 23 20.3v1.9h-2c-0.4 0-0.8 0.4-0.8 0.8s0.4 0.8 0.8 0.8h2v2.6h-2c-0.4 0-0.8 0.4-0.8 0.8s0.4 0.8 0.8 0.8h2v2c0 0.4 0.4 0.8 0.8 0.8s0.8-0.4 0.8-0.8v-2h2.6v2c0 0.4 0.4 0.8 0.8 0.8s0.8-0.4 0.8-0.8v-2h1.9c0.4 0 0.8-0.4 0.8-0.8S31.2 26.5 30.8 26.5zM24.6 26.5v-2.6h2.6v2.6H24.6z"/><path d="M33.1 5.5H18.6c-1.8 0-3.2 1.4-3.2 3.2v3.6 2 25.3c0 1.8 1.4 3.2 3.2 3.2h14.5c1.8 0 3.2-1.4 3.2-3.2V14.3v-2V8.7C36.3 7 34.9 5.5 33.1 5.5zM24.8 39c0-0.6 0.5-1.1 1.1-1.1s1.1 0.5 1.1 1.1c0 0.6-0.5 1.1-1.1 1.1S24.8 39.5 24.8 39zM34.3 35.1H17.5V14.3h16.9V35.1zM17.5 12.3V8.7c0-0.6 0.5-1.2 1.2-1.2h14.5c0.6 0 1.2 0.5 1.2 1.2v3.6H17.5z" fill="#E31B23"/></symbol><symbol viewBox="0 0 52 52" id="i--48"><title>48</title><path d="M30.5 26.8L28 24.3l2.5-2.5c0.4-0.4 0.4-1 0-1.4s-1-0.4-1.4 0l-2.5 2.5 -2.5-2.5c-0.4-0.4-1-0.4-1.4 0s-0.4 1 0 1.4l2.5 2.5 -2.5 2.5c-0.4 0.4-0.4 1 0 1.4 0.2 0.2 0.5 0.3 0.7 0.3s0.5-0.1 0.7-0.3l2.5-2.5 2.5 2.5c0.2 0.2 0.5 0.3 0.7 0.3s0.5-0.1 0.7-0.3C30.9 27.8 30.9 27.2 30.5 26.8z"/><path d="M33.8 5.6H19.4c-1.8 0-3.2 1.4-3.2 3.2v3.6 2 25.3c0 1.8 1.4 3.2 3.2 3.2h14.5c1.8 0 3.2-1.4 3.2-3.2V14.4v-2V8.8C37 7 35.6 5.6 33.8 5.6zM25.5 39c0-0.6 0.5-1.1 1.1-1.1s1.1 0.5 1.1 1.1c0 0.6-0.5 1.1-1.1 1.1S25.5 39.6 25.5 39zM35 35.1H18.2V14.4H35V35.1zM18.2 12.4V8.8c0-0.6 0.5-1.2 1.2-1.2h14.5c0.6 0 1.2 0.5 1.2 1.2v3.6H18.2z" fill="#E31B23"/></symbol><symbol viewBox="0 0 52 52" id="i--51_arrow"><title>51_arrow</title><polygon points="0 0 52 0 52 52 0 52 0 0" fill="none"/><polygon points="20.53 24.69 27.86 17.35 26 15.5 15.5 26 26 36.5 27.85 34.65 20.53 27.31 36.5 27.31 36.5 24.69 20.53 24.69"/><circle cx="26" cy="26" r="17" fill="none" stroke="#e31b23" stroke-miterlimit="10" stroke-width="2"/></symbol><symbol viewBox="0 0 52 52" id="i--52_arrow-flipped-hor"><title>52_arrow-flipped-hor</title><polygon fill="none" points="0,0 52,0 52,52 0,52 "/><polygon points="31.47,24.69 24.14,17.35 26,15.5 36.5,26 26,36.5 24.15,34.65 31.47,27.31 15.5,27.31 15.5,24.69 "/><circle fill="none" stroke="#E31B23" stroke-width="2" stroke-miterlimit="10" cx="26" cy="26" r="17"/></symbol></svg>