<svg xmlns="http://www.w3.org/2000/svg"><symbol viewBox="0 0 52 52" id="i--01_check-rates"><title>01_check-rates</title><path d="M12.4 16.7c-0.2 0-0.3 0-0.5-0.1l-3.9-2c-0.5-0.3-0.8-0.9-0.5-1.5 0.3-0.5 0.9-0.8 1.5-0.5l3.9 2c0.5 0.3 0.8 0.9 0.5 1.5C13.2 16.5 12.8 16.7 12.4 16.7z"/><path d="M18 10.7c-0.4 0-0.7-0.2-0.9-0.5l-2.3-3.8c-0.3-0.5-0.1-1.2 0.4-1.5 0.5-0.3 1.2-0.1 1.5 0.4L18.9 9c0.3 0.5 0.1 1.2-0.4 1.5C18.4 10.6 18.2 10.7 18 10.7z"/><path d="M26 8.5C26 8.5 25.9 8.5 26 8.5c-0.6 0-1.1-0.5-1.1-1.1l0-4.4c0-0.6 0.5-1.1 1.1-1.1 0 0 0 0 0 0 0.6 0 1.1 0.5 1.1 1.1l0 4.4C27.1 8 26.6 8.5 26 8.5z"/><path d="M33.9 10.9c-0.2 0-0.4-0.1-0.6-0.2-0.5-0.3-0.7-1-0.3-1.5l2.4-3.7c0.3-0.5 1-0.7 1.5-0.3 0.5 0.3 0.7 1 0.3 1.5l-2.4 3.7C34.6 10.7 34.2 10.9 33.9 10.9z"/><path d="M39.3 17c-0.4 0-0.8-0.2-1-0.6-0.3-0.5 0-1.2 0.5-1.5l4-1.9c0.5-0.3 1.2 0 1.5 0.5 0.3 0.5 0 1.2-0.5 1.5l-4 1.9C39.7 17 39.5 17 39.3 17z"/><path d="M32.8 12.3H19.2c-1.6 0-3 1.4-3 3v3.3 2 23.7c0 1.6 1.4 3 3 3h13.6c1.6 0 3-1.4 3-3V20.6v-2-3.3C35.8 13.7 34.4 12.3 32.8 12.3zM25 43.7c0-0.6 0.4-1 1-1 0.6 0 1 0.4 1 1 0 0.6-0.4 1-1 1C25.4 44.7 25 44.3 25 43.7zM33.8 40.1H18.2V20.6h15.6V40.1zM18.2 18.6v-3.3c0-0.5 0.5-1 1-1h13.6c0.5 0 1 0.5 1 1v3.3H18.2z" fill="#E31B23"/></symbol><symbol viewBox="0 0 52 52" id="i--26"><title>26</title><path d="M25.3 42.8c-10 0-18.1-8.1-18.1-18.1S15.3 6.6 25.3 6.6s18.1 8.1 18.1 18.1S35.3 42.8 25.3 42.8zM25.3 8.8C16.5 8.8 9.4 16 9.4 24.7s7.1 15.9 15.9 15.9 15.9-7.1 15.9-15.9S34 8.8 25.3 8.8z" fill="#E31B23"/><path d="M31 28.8c0-1.3-0.7-3.8-4.9-5.5v-4.7c0.7 0.3 1.3 0.8 1.4 1.6 0.2 0.7 0.8 1.1 1.5 0.9 0.7-0.2 1.1-0.8 0.9-1.5 -0.4-1.8-2-3.2-3.9-3.6v-1c0-0.5-0.4-0.9-0.9-0.9s-0.9 0.4-0.9 0.9v1c-2.3 0.4-4 2.2-4 4.4 0 1.4 0.7 3.4 4 4.9v6c-1.2-0.3-2.1-1.2-2.4-2.3 -0.1-0.7-0.8-1.1-1.5-0.9 -0.7 0.2-1.1 0.8-0.9 1.5 0.5 2.3 2.5 4 4.8 4.3v0.9c0 0.5 0.4 0.9 0.9 0.9s0.9-0.4 0.9-0.9v-0.9C29.1 33.4 31 31.5 31 28.8zM22.9 20.3c0-0.9 0.6-1.6 1.5-1.8v3.9C23.5 21.9 22.9 21.2 22.9 20.3zM26.2 31.2V26c1.5 0.8 2.4 1.8 2.4 2.8C28.5 30.5 27.3 31 26.2 31.2z"/></symbol><symbol viewBox="0 0 52 52" id="i--27"><title>27</title><path d="M25.2 43.7c-10 0-18.1-8.1-18.1-18.1S15.2 7.5 25.2 7.5s18.1 8.1 18.1 18.1S35.2 43.7 25.2 43.7zM25.2 9.7c-8.8 0-15.9 7.1-15.9 15.9s7.1 15.9 15.9 15.9 15.9-7.1 15.9-15.9S34 9.7 25.2 9.7z" fill="#E31B23"/><path d="M22.1 35.2c-0.4 0-0.8-0.2-1-0.5l-4.5-6c-0.4-0.6-0.3-1.3 0.2-1.8 0.6-0.4 1.3-0.3 1.8 0.2l3.5 4.6 9.8-14.3c0.4-0.6 1.2-0.7 1.7-0.3 0.6 0.4 0.7 1.2 0.3 1.7L23.1 34.7C22.9 35 22.5 35.2 22.1 35.2 22.1 35.2 22.1 35.2 22.1 35.2z"/></symbol><symbol viewBox="0 0 52 52" id="i--28"><title>28</title><path d="M26 23.7c-0.4 0-0.8 0.1-1.1 0.2l-5.3-6.1c-0.4-0.4-1-0.5-1.4-0.1s-0.5 1-0.1 1.4l5.2 6c-0.4 0.6-0.7 1.2-0.7 2 0 1.9 1.5 3.4 3.4 3.4s3.4-1.5 3.4-3.4S27.9 23.7 26 23.7z"/><path d="M25.9 41c-0.6 0-1-0.4-1-1v-0.8c0-0.6 0.4-1 1-1s1 0.4 1 1V40C26.9 40.5 26.5 41 25.9 41z"/><path d="M14 28h-0.8c-0.6 0-1-0.4-1-1s0.4-1 1-1H14c0.6 0 1 0.4 1 1S14.5 28 14 28z"/><path d="M26.2 16c-0.6 0-1-0.4-1-1v-0.8c0-0.6 0.4-1 1-1s1 0.4 1 1V15C27.2 15.5 26.7 16 26.2 16z"/><path d="M38.9 28.2h-0.8c-0.6 0-1-0.4-1-1s0.4-1 1-1h0.8c0.6 0 1 0.4 1 1S39.5 28.2 38.9 28.2z"/><path d="M26 44.3c-9.5 0-17.3-7.7-17.3-17.3S16.5 9.7 26 9.7 43.3 17.5 43.3 27 35.5 44.3 26 44.3zM26 11.9c-8.3 0-15.1 6.8-15.1 15.1S17.7 42.1 26 42.1 41.1 35.3 41.1 27 34.3 11.9 26 11.9z" fill="#E31B23"/><path d="M22.5 7.7h2.5v2c0.4 0 0.7-0.1 1.1-0.1 0.3 0 0.6 0 0.9 0v-2h2.2c0.8 0 1.5-0.7 1.5-1.5S30 4.7 29.1 4.7h-6.7c-0.8 0-1.5 0.7-1.5 1.5S21.6 7.7 22.5 7.7zM35.3 10.3l1.2 0.9-1 1.4c0.6 0.4 1.1 0.8 1.6 1.2l1-1.5 1.2 0.8c0.3 0.2 0.6 0.3 0.9 0.3 0.5 0 0.9-0.2 1.2-0.6 0.5-0.7 0.3-1.6-0.4-2.1L37 7.9c-0.7-0.5-1.6-0.3-2.1 0.4C34.5 8.9 34.6 9.8 35.3 10.3z"/></symbol><symbol viewBox="0 0 52 52" id="i--29"><title>29</title><path d="M27 44.3c-7 0-12.1-4.6-12.1-4.6 -0.3-0.3-0.4-0.8-0.3-1.2 2.2-5.8 6.9-9.5 12.3-9.5 9.5 0 12.3 9.3 12.3 9.4 0.1 0.4 0 0.9-0.3 1.1C34.7 43.1 30.6 44.3 27 44.3zM16.9 38.5c2.2 1.8 10.6 7.3 20-0.2 -0.8-1.9-3.4-7.2-10-7.2C22.6 31.2 18.9 33.9 16.9 38.5z"/><path d="M26.9 27.1c-3.8 0-6.8-3.1-6.8-6.8 0-3.8 3.1-6.8 6.8-6.8 3.8 0 6.8 3.1 6.8 6.8C33.7 24 30.6 27.1 26.9 27.1zM26.9 15.7c-2.5 0-4.6 2.1-4.6 4.6 0 2.5 2.1 4.6 4.6 4.6 2.5 0 4.6-2.1 4.6-4.6C31.5 17.8 29.4 15.7 26.9 15.7z"/><path d="M14.6 38.5c0.2-0.6 0.5-1.1 0.7-1.7C12.6 33.9 11 30 11 25.9 11 17.2 18.1 10 26.9 10s15.9 7.1 15.9 15.9c0 4-1.5 7.9-4.3 10.8 0.5 1 0.7 1.7 0.7 1.7 0.1 0.3 0 0.6-0.1 0.8C42.8 35.8 45 31 45 25.9c0-10-8.1-18.1-18.1-18.1S8.8 15.9 8.8 25.9c0 5 2.1 9.8 5.8 13.2C14.5 38.9 14.5 38.7 14.6 38.5z" fill="#E31B23"/></symbol><symbol viewBox="0 0 52 52" id="i--30"><title>30</title><path d="M24.5 19.7c-0.5 0.3-0.8 0.8-0.8 1.5 0 0.6 0.3 1.1 0.8 1.5V19.7z" fill="#3B9D4A"/><path d="M28.8 28.5c0-0.9-0.8-1.8-2.3-2.6v4.8C27.6 30.6 28.8 30.1 28.8 28.5z" fill="#3B9D4A"/><path d="M25.9 6.6c-10 0-18.1 8.1-18.1 18.1 0 10 8.1 18.1 18.1 18.1 10 0 18.1-8.1 18.1-18.1C44 14.7 35.9 6.6 25.9 6.6zM25.9 39.7c-3 0-5.9-0.9-8.3-2.6 -0.3-0.2-0.4-0.7-0.2-1 0.2-0.3 0.7-0.4 1-0.2 2.2 1.5 4.8 2.4 7.5 2.4 7.2 0 13.1-5.9 13.1-13.1S33.1 12 25.9 12c-3.6 0-7.1 1.5-9.5 4.2l0.6-0.1c0.4-0.1 0.8 0.2 0.9 0.6 0.1 0.4-0.2 0.8-0.6 0.9L14.4 18c0 0-0.1 0-0.1 0 -0.2 0-0.4-0.1-0.5-0.2 -0.2-0.2-0.3-0.4-0.2-0.6l0.3-2.7c0-0.4 0.4-0.7 0.8-0.7 0.4 0 0.7 0.4 0.7 0.8l-0.1 0.5c2.7-2.9 6.6-4.6 10.6-4.6 8 0 14.6 6.5 14.6 14.6S33.9 39.7 25.9 39.7zM21.7 21.1c0-1.7 1.2-3.1 2.8-3.6V16c0-0.6 0.4-1 1-1s1 0.4 1 1v1.4c1.6 0.3 3 1.5 3.4 3.1 0.1 0.5-0.2 1.1-0.8 1.2 -0.5 0.1-1.1-0.2-1.2-0.8 -0.2-0.7-0.7-1.2-1.4-1.5v4.3c3.7 1.5 4.3 3.6 4.3 4.8 0 2.4-1.7 4-4.3 4.3V34c0 0.6-0.4 1-1 1s-1-0.4-1-1v-1.4c-1.8-0.5-3.2-1.8-3.6-3.6 -0.1-0.5 0.2-1.1 0.8-1.2s1.1 0.2 1.2 0.8c0.2 0.9 0.8 1.5 1.6 1.9V25C22.2 23.8 21.7 22.3 21.7 21.1z" fill="#3B9D4A"/></symbol><symbol viewBox="0 0 52 52" id="i--31"><title>31</title><path d="M25.4 7.1c-4.9 0-9.5 2-12.9 5.4l0-0.2c0.1-0.6-0.4-1.1-1-1.2-0.6-0.1-1.1 0.4-1.2 1L10 15.5c0 0.3 0.1 0.7 0.3 0.9 0.2 0.2 0.5 0.3 0.8 0.3 0.1 0 0.1 0 0.2 0l3.4-0.5c0.6-0.1 1-0.7 0.9-1.3-0.1-0.6-0.7-1-1.3-0.9L14 14c3-3 7.1-4.8 11.4-4.8 8.9 0 16.1 7.2 16.1 16.1s-7.2 16.1-16.1 16.1c-3.3 0-6.5-1-9.2-2.9-0.5-0.3-1.2-0.2-1.5 0.3-0.3 0.5-0.2 1.2 0.3 1.5 3.1 2.2 6.7 3.3 10.5 3.3 10.1 0 18.3-8.2 18.3-18.3S35.6 7.1 25.4 7.1z" fill="#E31B23"/><path d="M31 29.6c0-1.3-0.7-3.8-4.9-5.5v-4.7c0.7 0.3 1.3 0.8 1.4 1.6 0.2 0.7 0.8 1.1 1.5 0.9 0.7-0.2 1.1-0.8 0.9-1.5-0.4-1.8-2-3.2-3.9-3.6v-1c0-0.5-0.4-0.9-0.9-0.9s-0.9 0.4-0.9 0.9v1c-2.3 0.4-4 2.2-4 4.4 0 1.4 0.7 3.4 4 4.9v6c-1.2-0.3-2.1-1.2-2.4-2.3-0.1-0.7-0.8-1.1-1.5-0.9-0.7 0.2-1.1 0.8-0.9 1.5 0.5 2.3 2.5 4 4.8 4.3v0.9c0 0.5 0.4 0.9 0.9 0.9s0.9-0.4 0.9-0.9v-0.9C29.1 34.2 31 32.3 31 29.6zM22.8 21.1c0-0.9 0.6-1.6 1.5-1.8v3.9C23.5 22.7 22.8 22 22.8 21.1zM26.1 32v-5.2c1.5 0.8 2.4 1.8 2.4 2.8C28.5 31.3 27.3 31.8 26.1 32z"/></symbol><symbol viewBox="0 0 52 52" id="i--36"><title>36</title><path d="M24.3 14.4c0 1.6-1.3 2.9-3 2.9h-8.6c-1.6 0-3-1.3-3-2.9l0 0c0-1.6 1.3-2.9 3-2.9h8.6C22.9 11.5 24.3 12.8 24.3 14.4L24.3 14.4z" fill="#E31B23"/><path d="M30.5 26.1c0 1.6-1.3 2.9-3 2.9h-15c-1.6 0-3-1.3-3-2.9l0 0c0-1.6 1.3-2.9 3-2.9h15C29.2 23.3 30.5 24.6 30.5 26.1L30.5 26.1z" fill="#E31B23"/><path d="M21.2 38c0 1.6-1.3 2.9-3 2.9h-5.6c-1.6 0-3-1.3-3-2.9l0 0c0-1.6 1.3-2.9 3-2.9h5.6C19.9 35.1 21.2 36.4 21.2 38L21.2 38z" fill="#E31B23"/><path d="M39.2 30.7H12.5c-2.5 0-4.5-2-4.5-4.5 0-2.5 2-4.5 4.5-4.5h26.7c2.5 0 4.5 2 4.5 4.5C43.7 28.6 41.7 30.7 39.2 30.7zM12.5 23.3c-1.6 0-2.9 1.3-2.9 2.9 0 1.6 1.3 2.9 2.9 2.9h26.7c1.6 0 2.9-1.3 2.9-2.9 0-1.6-1.3-2.9-2.9-2.9H12.5z"/><path d="M39.2 18.8H12.5c-2.5 0-4.5-2-4.5-4.5s2-4.5 4.5-4.5h26.7c2.5 0 4.5 2 4.5 4.5S41.7 18.8 39.2 18.8zM12.5 11.5c-1.6 0-2.9 1.3-2.9 2.9s1.3 2.9 2.9 2.9h26.7c1.6 0 2.9-1.3 2.9-2.9s-1.3-2.9-2.9-2.9H12.5z"/><path d="M39.2 42.5H12.5C10 42.5 8 40.5 8 38s2-4.5 4.5-4.5h26.7c2.5 0 4.5 2 4.5 4.5S41.7 42.5 39.2 42.5zM12.5 35.1c-1.6 0-2.9 1.3-2.9 2.9s1.3 2.9 2.9 2.9h26.7c1.6 0 2.9-1.3 2.9-2.9s-1.3-2.9-2.9-2.9H12.5z"/></symbol><symbol viewBox="0 0 52 52" id="i--37"><title>37</title><path d="M29.6 9.1c1.1 0 2.2 0.8 2.4 2.7 0.1 0.9-0.2 3.1-1.4 5.2 -0.5 0.9-0.5 2 0 2.9 0.5 0.9 1.5 1.5 2.6 1.5h7.5c0.5 0 0.9 0.2 1.3 0.5 0.3 0.3 0.5 0.8 0.5 1.3 0 1-0.8 1.8-1.8 1.8h-0.4c-0.3 0-0.5 0.2-0.5 0.5 0 0.3 0.2 0.5 0.5 0.5 1 0 1.8 0.8 1.8 1.8 0 1-0.8 1.8-1.8 1.8h-1c-0.3 0-0.5 0.2-0.5 0.5 0 0.3 0.2 0.5 0.5 0.5 1 0 1.8 0.8 1.8 1.8 0 1-0.8 1.8-1.8 1.8h-1.1c-0.3 0-0.5 0.2-0.5 0.5 0 0.3 0.2 0.5 0.5 0.5 0.8 0 1.5 0.7 1.5 1.5 0 0.4-0.2 0.8-0.4 1.1 -0.3 0.3-0.7 0.4-1.1 0.4H24.9c-0.2 0-0.4 0-0.6 0 -2.8 0-4.8-0.9-6.5-2.3V22.9h1.9c0.5 0 1-0.1 1.4-0.4 0.4-0.3 0.7-0.6 0.9-1.1 0.4-0.8 0.9-1.6 1.5-2.3 2.2-2.6 4.6-5.5 4.7-8.6 0-0.7 0.6-1.3 1.3-1.3L29.6 9.1C29.5 9.1 29.5 9.1 29.6 9.1M29.6 7.1c0 0-0.1 0-0.1 0l-0.1 0c-1.8 0.1-3.2 1.5-3.3 3.2 -0.1 2.5-2.3 5.1-4.3 7.4 -0.7 0.8-1.3 1.7-1.8 2.7 0 0.1-0.1 0.2-0.2 0.2 -0.1 0.1-0.2 0.1-0.3 0.1h-1.9c-1.1 0-2 0.9-2 2v13.4c0 0.6 0.3 1.2 0.8 1.6 2.3 1.9 4.8 2.7 7.8 2.7 0.2 0 0.5 0 0.7 0h13.2c0.9 0 1.8-0.4 2.5-1 0.7-0.7 1-1.6 1-2.5 0-0.4-0.1-0.8-0.2-1.2 1-0.7 1.6-1.8 1.6-3.1 0-0.6-0.1-1.2-0.4-1.7 0.9-0.7 1.4-1.8 1.4-3 0-0.8-0.2-1.5-0.6-2.1 0.6-0.7 1-1.6 1-2.6 0-1-0.4-2-1.1-2.7 -0.7-0.7-1.7-1.1-2.7-1.1h-7.5c-0.4 0-0.7-0.2-0.8-0.5 -0.2-0.3-0.2-0.6 0-0.9 1.4-2.4 1.8-5 1.7-6.4C33.7 8.6 31.5 7.1 29.6 7.1L29.6 7.1z" fill="#E31B23"/><path d="M14.4 36.9c0 0.5-0.4 0.9-0.9 0.9h-3.3c-0.5 0-0.9-0.4-0.9-0.9V22.1c0-0.5 0.4-0.9 0.9-0.9h3.3c0.5 0 0.9 0.4 0.9 0.9V36.9z"/></symbol><symbol viewBox="0 0 52 52" id="i--38"><title>38</title><path d="M42.6 15.8c0.5 0 1 0.5 1 1v18.4c0 0.5-0.5 1-1 1H10c-0.5 0-1-0.5-1-1V16.8c0-0.5 0.5-1 1-1H42.6M42.6 13.8H10c-1.6 0-3 1.3-3 3v18.4c0 1.7 1.4 3 3 3h32.6c1.6 0 3-1.3 3-3V16.8C45.6 15.1 44.2 13.8 42.6 13.8L42.6 13.8z" fill="#E31B23"/><rect x="9" y="20.5" width="34.6" height="3"/></symbol><symbol viewBox="0 0 52 52" id="i--40"><title>40</title><path d="M36.6 9.7c0.5 0 1 0.5 1 1v29.1c0 0.5-0.5 1-1 1H17.5c-0.5 0-1-0.5-1-1V10.7c0-0.5 0.5-1 1-1H36.6M36.6 7.7H17.5c-1.7 0-3 1.3-3 3v29.1c0 1.7 1.3 3 3 3h19.1c1.7 0 3-1.3 3-3V10.7C39.6 9 38.3 7.7 36.6 7.7L36.6 7.7z" fill="#E31B23"/><path d="M34.6 35.1h-15c-0.5 0-0.9-0.4-0.9-0.9s0.4-0.9 0.9-0.9h15c0.5 0 0.9 0.4 0.9 0.9S35.1 35.1 34.6 35.1z"/><path d="M34.6 29.1h-15c-0.5 0-0.9-0.4-0.9-0.9s0.4-0.9 0.9-0.9h15c0.5 0 0.9 0.4 0.9 0.9S35.1 29.1 34.6 29.1z"/><path d="M34.6 23.1h-15c-0.5 0-0.9-0.4-0.9-0.9s0.4-0.9 0.9-0.9h15c0.5 0 0.9 0.4 0.9 0.9S35.1 23.1 34.6 23.1z"/><path d="M34.6 17.1h-15c-0.5 0-0.9-0.4-0.9-0.9s0.4-0.9 0.9-0.9h15c0.5 0 0.9 0.4 0.9 0.9S35.1 17.1 34.6 17.1z"/></symbol><symbol viewBox="0 0 52 52" id="i--41"><title>41</title><path d="M35.8 10.5c0.5 0 1 0.4 1 1v28.6c0 0.5-0.4 1-1 1H15.9c-0.5 0-1-0.4-1-1V18.2c1.4-1.6 5.9-6.2 7.5-7.7H35.8M35.8 8.3H21.6c-0.3 0-8.9 8.9-8.9 9.2v22.7c0 1.8 1.4 3.2 3.2 3.2h19.9c1.8 0 3.2-1.4 3.2-3.2V11.5C39 9.7 37.6 8.3 35.8 8.3L35.8 8.3z" fill="#E31B23"/><path d="M31.3 30.7l-4-4 4-4c0.4-0.4 0.4-1 0-1.4s-1-0.4-1.4 0l-4 4 -4-4c-0.4-0.4-1-0.4-1.4 0s-0.4 1 0 1.4l4 4 -4 4c-0.4 0.4-0.4 1 0 1.4 0.2 0.2 0.4 0.3 0.7 0.3s0.5-0.1 0.7-0.3l4-4 4 4c0.2 0.2 0.4 0.3 0.7 0.3s0.5-0.1 0.7-0.3C31.6 31.7 31.6 31.1 31.3 30.7z"/></symbol><symbol viewBox="0 0 52 52" id="i--42"><title>42</title><path class="st1" d="M34.8 10.5c0.5 0 1 0.4 1 1v28.6c0 0.5-0.4 1-1 1H14.9c-0.5 0-1-0.4-1-1V18.2c1.4-1.6 5.9-6.2 7.5-7.7H34.8M34.8 8.3H20.6c-0.3 0-8.9 8.9-8.9 9.2v22.7c0 1.8 1.4 3.2 3.2 3.2h19.9c1.8 0 3.2-1.4 3.2-3.2V11.5C38 9.7 36.6 8.3 34.8 8.3L34.8 8.3z" fill="#E31B23"/><path d="M31.1 29.1h-2.6v-3.5l2.6 0c0.5 0 0.9-0.4 0.9-0.9s-0.4-0.9-0.9-0.9l-2.6 0v-2.6c0-0.5-0.4-0.9-0.9-0.9s-0.9 0.4-0.9 0.9v2.6l-3.6 0v-2.6c0-0.5-0.4-0.9-0.9-0.9s-0.9 0.4-0.9 0.9v2.6l-2.8 0c-0.5 0-0.9 0.4-0.9 0.9s0.4 0.9 0.9 0.9l2.8 0v3.5h-2.8c-0.5 0-0.9 0.4-0.9 0.9s0.4 0.9 0.9 0.9h2.8v2.7c0 0.5 0.4 0.9 0.9 0.9s0.9-0.4 0.9-0.9v-2.7h3.6v2.7c0 0.5 0.4 0.9 0.9 0.9s0.9-0.4 0.9-0.9v-2.7h2.6c0.5 0 0.9-0.4 0.9-0.9S31.6 29.1 31.1 29.1zM23.1 29.1v-3.5l3.6 0v3.5H23.1z"/></symbol><symbol viewBox="0 0 52 52" id="i--43"><title>43</title><path d="M20.6 24.7h4c0.4 0 0.7-0.3 0.7-0.7v-4c0-0.4-0.3-0.7-0.7-0.7h-4c-0.4 0-0.7 0.3-0.7 0.7v4C19.9 24.4 20.2 24.7 20.6 24.7z"/><path d="M33.6 8.3H19.1c-1.8 0-3.2 1.4-3.2 3.2v3.6 2 25.3c0 1.8 1.4 3.2 3.2 3.2h14.5c1.8 0 3.2-1.4 3.2-3.2V17.1v-2 -3.6C36.8 9.7 35.4 8.3 33.6 8.3zM25.3 41.7c0-0.6 0.5-1.1 1.1-1.1s1.1 0.5 1.1 1.1c0 0.6-0.5 1.1-1.1 1.1S25.3 42.3 25.3 41.7zM34.8 37.8H18V17.1h16.9V37.8zM18 15.1v-3.6c0-0.6 0.5-1.2 1.2-1.2h14.5c0.6 0 1.2 0.5 1.2 1.2v3.6H18z" fill="#E31B23"/></symbol><symbol viewBox="0 0 52 52" id="i--44"><title>44</title><path d="M29.6 23.5l-4.1-3.2c-0.4-0.3-1.1-0.3-1.4 0.2s-0.3 1.1 0.2 1.4l2 1.5H10.1c-0.5 0-0.9 0.4-0.9 0.9s0.4 0.9 0.9 0.9h16.1l-1.9 1.5c-0.4 0.3-0.5 1-0.2 1.4 0.2 0.3 0.5 0.4 0.8 0.4 0.2 0 0.4-0.1 0.6-0.2l4.1-3.2c0.2-0.2 0.4-0.5 0.4-0.8C30 23.9 29.9 23.7 29.6 23.5z" fill="#E31B23"/><path d="M36.9 12.5V8.9c0-1.8-1.4-3.2-3.2-3.2H19.2c-1.8 0-3.2 1.4-3.2 3.2v3.6 2 8.9h2v-8.9h16.9v20.7H18v-10h-2v14.7c0 1.8 1.4 3.2 3.2 3.2h14.5c1.8 0 3.2-1.4 3.2-3.2V14.5h0L36.9 12.5 36.9 12.5zM26.4 40.2c-0.6 0-1.1-0.5-1.1-1.1 0-0.6 0.5-1.1 1.1-1.1 0.6 0 1.1 0.5 1.1 1.1C27.5 39.7 27 40.2 26.4 40.2zM34.9 12.5H18V8.9c0-0.6 0.5-1.2 1.2-1.2h14.5c0.6 0 1.2 0.5 1.2 1.2V12.5z"/></symbol><symbol viewBox="0 0 52 52" id="i--45"><title>45</title><path d="M30 23.5h-3.5V20c0-0.6-0.4-1-1-1s-1 0.4-1 1v3.5H21c-0.6 0-1 0.4-1 1s0.4 1 1 1h3.5V29c0 0.6 0.4 1 1 1s1-0.4 1-1v-3.5H30c0.6 0 1-0.4 1-1S30.5 23.5 30 23.5z" fill="#E31B23"/><path d="M32.7 5.8H18.2c-1.8 0-3.2 1.4-3.2 3.2v3.6 2V40c0 1.8 1.4 3.2 3.2 3.2h14.5c1.8 0 3.2-1.4 3.2-3.2V14.6v-2V9C35.9 7.3 34.5 5.8 32.7 5.8zM24.4 39.3c0-0.6 0.5-1.1 1.1-1.1s1.1 0.5 1.1 1.1c0 0.6-0.5 1.1-1.1 1.1S24.4 39.8 24.4 39.3zM33.9 35.4H17.1V14.6h16.9V35.4zM17.1 12.6V9c0-0.6 0.5-1.2 1.2-1.2h14.5c0.6 0 1.2 0.5 1.2 1.2v3.6H17.1z"/></symbol><symbol viewBox="0 0 52 52" id="i--46"><title>46</title><path d="M23.9 30l-3.3-4.4c-0.3-0.4-0.2-1 0.2-1.3s1-0.2 1.3 0.2l1.8 2.4 5.2-7.4c0.3-0.4 0.8-0.5 1.3-0.2s0.5 0.8 0.2 1.3L23.9 30z"/><path d="M32.8 5.6H18.3c-1.8 0-3.2 1.4-3.2 3.2v3.6 2 25.3c0 1.8 1.4 3.2 3.2 3.2h14.5c1.8 0 3.2-1.4 3.2-3.2V14.4v-2V8.8C36 7 34.5 5.6 32.8 5.6zM24.5 39c0-0.6 0.5-1.1 1.1-1.1s1.1 0.5 1.1 1.1c0 0.6-0.5 1.1-1.1 1.1S24.5 39.6 24.5 39zM34 35.1H17.1V14.4H34V35.1zM17.1 12.4V8.8c0-0.6 0.5-1.2 1.2-1.2h14.5c0.6 0 1.2 0.5 1.2 1.2v3.6H17.1z" fill="#E31B23"/></symbol><symbol viewBox="0 0 52 52" id="i--47"><title>47</title><path d="M30.8 26.5h-1.9v-2.6h1.9c0.4 0 0.8-0.4 0.8-0.8s-0.4-0.8-0.8-0.8h-1.9v-1.9c0-0.4-0.4-0.8-0.8-0.8s-0.8 0.4-0.8 0.8v1.9h-2.6v-1.9c0-0.4-0.4-0.8-0.8-0.8S23 19.9 23 20.3v1.9h-2c-0.4 0-0.8 0.4-0.8 0.8s0.4 0.8 0.8 0.8h2v2.6h-2c-0.4 0-0.8 0.4-0.8 0.8s0.4 0.8 0.8 0.8h2v2c0 0.4 0.4 0.8 0.8 0.8s0.8-0.4 0.8-0.8v-2h2.6v2c0 0.4 0.4 0.8 0.8 0.8s0.8-0.4 0.8-0.8v-2h1.9c0.4 0 0.8-0.4 0.8-0.8S31.2 26.5 30.8 26.5zM24.6 26.5v-2.6h2.6v2.6H24.6z"/><path d="M33.1 5.5H18.6c-1.8 0-3.2 1.4-3.2 3.2v3.6 2 25.3c0 1.8 1.4 3.2 3.2 3.2h14.5c1.8 0 3.2-1.4 3.2-3.2V14.3v-2V8.7C36.3 7 34.9 5.5 33.1 5.5zM24.8 39c0-0.6 0.5-1.1 1.1-1.1s1.1 0.5 1.1 1.1c0 0.6-0.5 1.1-1.1 1.1S24.8 39.5 24.8 39zM34.3 35.1H17.5V14.3h16.9V35.1zM17.5 12.3V8.7c0-0.6 0.5-1.2 1.2-1.2h14.5c0.6 0 1.2 0.5 1.2 1.2v3.6H17.5z" fill="#E31B23"/></symbol><symbol viewBox="0 0 52 52" id="i--48"><title>48</title><path d="M30.5 26.8L28 24.3l2.5-2.5c0.4-0.4 0.4-1 0-1.4s-1-0.4-1.4 0l-2.5 2.5 -2.5-2.5c-0.4-0.4-1-0.4-1.4 0s-0.4 1 0 1.4l2.5 2.5 -2.5 2.5c-0.4 0.4-0.4 1 0 1.4 0.2 0.2 0.5 0.3 0.7 0.3s0.5-0.1 0.7-0.3l2.5-2.5 2.5 2.5c0.2 0.2 0.5 0.3 0.7 0.3s0.5-0.1 0.7-0.3C30.9 27.8 30.9 27.2 30.5 26.8z"/><path d="M33.8 5.6H19.4c-1.8 0-3.2 1.4-3.2 3.2v3.6 2 25.3c0 1.8 1.4 3.2 3.2 3.2h14.5c1.8 0 3.2-1.4 3.2-3.2V14.4v-2V8.8C37 7 35.6 5.6 33.8 5.6zM25.5 39c0-0.6 0.5-1.1 1.1-1.1s1.1 0.5 1.1 1.1c0 0.6-0.5 1.1-1.1 1.1S25.5 39.6 25.5 39zM35 35.1H18.2V14.4H35V35.1zM18.2 12.4V8.8c0-0.6 0.5-1.2 1.2-1.2h14.5c0.6 0 1.2 0.5 1.2 1.2v3.6H18.2z" fill="#E31B23"/></symbol><symbol viewBox="0 0 52 52" id="i--51_arrow"><title>arrow</title><polygon points="0 0 52 0 52 52 0 52 0 0" fill="none"/><polygon points="20.53 24.69 27.86 17.35 26 15.5 15.5 26 26 36.5 27.85 34.65 20.53 27.31 36.5 27.31 36.5 24.69 20.53 24.69"/><circle cx="26" cy="26" r="17" fill="none" stroke="#e31b23" stroke-miterlimit="10" stroke-width="2"/></symbol></svg>