<svg xmlns="http://www.w3.org/2000/svg"><symbol viewBox="0 0 52 52" id="i--Account-Info"><title>Account-Info</title><path d="m27 44.3c-7 0-12.1-4.6-12.1-4.6-.3-.3-.4-.8-.3-1.2 2.2-5.8 6.9-9.5 12.3-9.5 9.5 0 12.3 9.3 12.3 9.4.1.4 0 .9-.3 1.1-4.2 3.6-8.3 4.8-11.9 4.8zm-10.1-5.8c2.2 1.8 10.6 7.3 20-.2-.8-1.9-3.4-7.2-10-7.2-4.3.1-8 2.8-10 7.4z"/><path d="m26.9 27.1c-3.8 0-6.8-3.1-6.8-6.8 0-3.8 3.1-6.8 6.8-6.8 3.8 0 6.8 3.1 6.8 6.8s-3.1 6.8-6.8 6.8zm0-11.4c-2.5 0-4.6 2.1-4.6 4.6s2.1 4.6 4.6 4.6 4.6-2.1 4.6-4.6-2.1-4.6-4.6-4.6z"/><path d="m14.6 38.5c.2-.6.5-1.1.7-1.7-2.7-2.9-4.3-6.8-4.3-10.9 0-8.7 7.1-15.9 15.9-15.9s15.9 7.1 15.9 15.9c0 4-1.5 7.9-4.3 10.8.5 1 .7 1.7.7 1.7.1.3 0 .6-.1.8 3.7-3.4 5.9-8.2 5.9-13.3 0-10-8.1-18.1-18.1-18.1s-18.1 8.1-18.1 18.1c0 5 2.1 9.8 5.8 13.2-.1-.2-.1-.4 0-.6z" fill="#e31b23"/></symbol><symbol viewBox="0 0 52 52" id="i--Airtime-Black"><title>Airtime-Black</title><path d="m39 34.8c-1.7-1.5-4.7-3.9-4.7-3.9-1.5-1.2-2.9.5-2.9.5l-2 2.3s-2.8-.8-6-3.5-4.4-5.3-4.4-5.3l2-2.3s1.5-1.7 0-2.9c0 0-3-2.5-4.7-3.9-1.7-1.5-2.9-.1-3.5.6s-6.5 7.7 6.6 18.8c13.2 11.1 19.1 3.9 19.6 3.3.6-.9 1.7-2.3 0-3.7zm-4.4-6.2c-.1 0-.1 0-.2 0-.5-.1-.9-.6-.8-1.1.4-2.7-.4-5.2-2.3-6.7-1.9-1.6-4.5-1.9-7-1.1-.5.2-1.1-.1-1.3-.6s.1-1.1.6-1.3c3.2-1.1 6.6-.6 9 1.4s3.5 5.2 3 8.6c-.1.4-.5.8-1 .8zm3.4.1c-.1 0-.1 0-.2 0-.5-.1-.9-.6-.8-1.2.7-3.9-.5-7.5-3.2-9.8s-6.5-2.8-10.2-1.5c-.5.2-1.1-.1-1.3-.6s.1-1.1.6-1.3c4.4-1.6 8.9-.9 12.2 1.8s4.7 7.1 3.9 11.7c-.1.6-.5.9-1 .9zm3.6.2c-.1 0-.1 0-.2 0-.5-.1-.9-.6-.8-1.1.8-5.1-.8-9.9-4.4-12.9s-8.6-3.8-13.5-2.1c-.5.2-1.1-.1-1.3-.6s.1-1.1.6-1.3c5.5-2 11.3-1 15.4 2.4 4.1 3.5 6 9 5 14.8.1.5-.3.8-.8.8z"/></symbol><symbol viewBox="0 0 52 52" id="i--Airtime-White"><title>Airtime-White</title><path d="M30.9 42.9c-4.1 0-8.7-2.1-13.7-6.4-5.7-4.8-8.7-9.5-8.8-14-.1-3.1 1.3-5.2 2.1-6.2.3-.4.9-1 1.7-1.4.7-.3 1.9-.4 3.2.7l4.7 3.9c.6.5.9 1.1 1 1.9.1 1.3-.8 2.4-.9 2.5l-1.5 1.8c.5.9 1.8 2.6 3.9 4.5 2.2 1.8 4.1 2.7 5.1 3l1.5-1.8c.1-.1 1-1.2 2.3-1.3.7-.1 1.4.2 2 .7l4.7 3.9c1.2 1 2.1 2.6.2 4.9-.8 1-2.6 2.7-5.7 3.1-.7.2-1.2.2-1.8.2zM13.2 16.8c-.1 0-.2 0-.3.1-.4.2-.7.6-.9.8-.6.8-1.7 2.4-1.6 4.8.1 3.8 2.9 8.1 8.1 12.5s10 6.4 13.7 5.8c2.4-.4 3.9-1.7 4.5-2.4.8-.9.9-1.4.1-2.1l-4.7-3.9c-.2-.2-.4-.2-.5-.2-.4 0-.8.4-.9.6l-2.4 2.8-.6-.2c-.1 0-3-.9-6.4-3.6-3.3-2.9-4.7-5.6-4.7-5.7l-.3-.6 2.4-2.8c.1-.2.5-.6.4-1.1 0-.1 0-.3-.3-.5L14 17.2c-.4-.3-.6-.4-.8-.4zm19.9 12.6h-.2c-.5-.1-.9-.6-.8-1.1.4-2.7-.4-5.2-2.3-6.7-1.9-1.6-4.5-1.9-7-1.1-.5.2-1.1-.1-1.3-.6s.1-1.1.6-1.3c3.2-1.1 6.6-.6 9 1.4 2.4 2 3.5 5.2 3 8.6-.1.4-.5.8-1 .8zm3.4.1h-.2c-.5-.1-.9-.6-.8-1.2.7-3.9-.5-7.5-3.2-9.8-2.7-2.3-6.5-2.8-10.2-1.5-.5.2-1.1-.1-1.3-.6-.2-.5.1-1.1.6-1.3 4.4-1.6 8.9-.9 12.2 1.8 3.3 2.7 4.7 7.1 3.9 11.7-.1.6-.5.9-1 .9zm3.6.2h-.2c-.5-.1-.9-.6-.8-1.1.8-5.1-.8-9.9-4.4-12.9-3.6-3-8.6-3.8-13.5-2.1-.5.2-1.1-.1-1.3-.6-.2-.5.1-1.1.6-1.3 5.5-2 11.3-1 15.4 2.4 4.1 3.5 6 9 5 14.8.1.4-.3.8-.8.8z" fill="#FFF"/></symbol><symbol viewBox="0 0 52 52" id="i--App-Icon-Black"><title>App-Icon-Black</title><path d="M20.6 24.7h4c.4 0 .7-.3.7-.7v-4c0-.4-.3-.7-.7-.7h-4c-.4 0-.7.3-.7.7v4c0 .4.3.7.7.7zm13-16.4H19.1c-1.8 0-3.2 1.4-3.2 3.2v30.9c0 1.8 1.4 3.2 3.2 3.2h14.5c1.8 0 3.2-1.4 3.2-3.2V11.5c0-1.8-1.4-3.2-3.2-3.2zm-8.3 33.4c0-.6.5-1.1 1.1-1.1s1.1.5 1.1 1.1c0 .6-.5 1.1-1.1 1.1s-1.1-.5-1.1-1.1zm9.5-3.9H18V17.1h16.9v20.7zM18 15.1v-3.6c0-.6.5-1.2 1.2-1.2h14.5c.6 0 1.2.5 1.2 1.2v3.6H18z"/></symbol><symbol viewBox="0 0 52 52" id="i--App-Icon-Colors"><title>App-Icon-Colors</title><path d="M20.6 24.7h4c.4 0 .7-.3.7-.7v-4c0-.4-.3-.7-.7-.7h-4c-.4 0-.7.3-.7.7v4c0 .4.3.7.7.7z"/><path d="M33.6 8.3H19.1c-1.8 0-3.2 1.4-3.2 3.2v30.9c0 1.8 1.4 3.2 3.2 3.2h14.5c1.8 0 3.2-1.4 3.2-3.2V11.5c0-1.8-1.4-3.2-3.2-3.2zm-8.3 33.4c0-.6.5-1.1 1.1-1.1s1.1.5 1.1 1.1c0 .6-.5 1.1-1.1 1.1s-1.1-.5-1.1-1.1zm9.5-3.9H18V17.1h16.9v20.7zM18 15.1v-3.6c0-.6.5-1.2 1.2-1.2h14.5c.6 0 1.2.5 1.2 1.2v3.6H18z" fill="#E31B23"/></symbol><symbol viewBox="0 0 52 52" id="i--App-Icon-White"><title>App-Icon-White</title><path d="M20.6 24.7h4c.4 0 .7-.3.7-.7v-4c0-.4-.3-.7-.7-.7h-4c-.4 0-.7.3-.7.7v4c0 .4.3.7.7.7zm13-16.4H19.1c-1.8 0-3.2 1.4-3.2 3.2v30.9c0 1.8 1.4 3.2 3.2 3.2h14.5c1.8 0 3.2-1.4 3.2-3.2V11.5c0-1.8-1.4-3.2-3.2-3.2zm-8.3 33.4c0-.6.5-1.1 1.1-1.1s1.1.5 1.1 1.1c0 .6-.5 1.1-1.1 1.1s-1.1-.5-1.1-1.1zm9.5-3.9H18V17.1h16.9v20.7zM18 15.1v-3.6c0-.6.5-1.2 1.2-1.2h14.5c.6 0 1.2.5 1.2 1.2v3.6H18z" fill="#FFF"/></symbol><symbol viewBox="0 0 52 52" id="i--Arrow-Circle-Left-Alt"><title>Arrow-Circle-Left-Alt</title><path d="m0 0h52v52h-52z" fill="none"/><path d="m20.53 24.69 7.33-7.34-1.86-1.85-10.5 10.5 10.5 10.5 1.85-1.85-7.32-7.34h15.97v-2.62z"/><circle cx="26" cy="26" fill="none" r="17" stroke="#e31b23" stroke-miterlimit="10" stroke-width="2"/></symbol><symbol viewBox="0 0 200 200" id="i--Arrow-Circle-Left-Colors"><title>Arrow-Circle-Left-Colors</title><path d="m100 45c-30.4 0-55 24.7-55 55 0 30.4 24.7 55 55 55 30.4 0 55-24.7 55-55 0-30.4-24.6-55-55-55zm11.5 78c1.2 1.1 1.2 3 0 4.2-.6.6-1.3.9-2.1.9-.7 0-1.5-.3-2.1-.8l-26.3-25.7c-.6-.6-.9-1.3-.9-2.1s.3-1.6.9-2.1l26.3-25.9c1.2-1.1 3-1.1 4.2 0 1.1 1.2 1.1 3 0 4.2l-24.1 23.7z" fill="none"/><path d="m111.5 71.5c-1.1-1.2-3-1.2-4.2 0l-26.2 25.8c-.6.6-.9 1.3-.9 2.1s.3 1.6.9 2.1l26.3 25.7c.6.6 1.3.8 2.1.8s1.5-.3 2.1-.9c1.1-1.2 1.1-3 0-4.2l-24.2-23.5 24.1-23.7c1.2-1.2 1.2-3 0-4.2z" fill="#231f20"/><path d="m100 39c-33.6 0-61 27.3-61 61 0 33.6 27.3 61 61 61 33.6 0 61-27.3 61-61 0-33.6-27.4-61-61-61zm0 116c-30.4 0-55-24.7-55-55 0-30.4 24.7-55 55-55 30.4 0 55 24.7 55 55 0 30.4-24.6 55-55 55z" fill="#e31b23"/></symbol><symbol viewBox="0 0 52 52" id="i--Arrow-Circle-Right-Alt"><title>Arrow-Circle-Right-Alt</title><path d="m0 0h52v52h-52z" fill="none"/><path d="m31.47 24.69-7.33-7.34 1.86-1.85 10.5 10.5-10.5 10.5-1.85-1.85 7.32-7.34h-15.97v-2.62z"/><circle cx="26" cy="26" fill="none" r="17" stroke="#e31b23" stroke-miterlimit="10" stroke-width="2"/></symbol><symbol viewBox="0 0 200 200" id="i--Arrow-Circle-Right-Colors"><title>Arrow-Circle-Right-Colors</title><path d="m100 45c-30.4 0-55 24.7-55 55 0 30.4 24.7 55 55 55 30.4 0 55-24.7 55-55 0-30.4-24.6-55-55-55zm18.9 56.5-26.3 25.7c-.6.6-1.3.8-2.1.8s-1.5-.3-2.1-.9c-1.1-1.2-1.1-3 0-4.2l24.1-23.6-24-23.6c-1.2-1.1-1.2-3 0-4.2 1.1-1.2 3-1.2 4.2 0l26.3 25.9c.6.6.9 1.3.9 2.1-.1.7-.4 1.5-1 2z" fill="none"/><path d="m92.6 71.5c-1.2-1.1-3-1.1-4.2 0-1.1 1.2-1.1 3 0 4.2l24.1 23.7-24 23.6c-1.2 1.1-1.2 3 0 4.2.6.6 1.3.9 2.1.9.7 0 1.5-.3 2.1-.8l26.3-25.7c.6-.6.9-1.3.9-2.1s-.3-1.6-.9-2.1z" fill="#231f20"/><path d="m100 39c-33.6 0-61 27.3-61 61 0 33.6 27.3 61 61 61 33.6 0 61-27.3 61-61 0-33.6-27.4-61-61-61zm0 116c-30.4 0-55-24.7-55-55 0-30.4 24.7-55 55-55 30.4 0 55 24.7 55 55 0 30.4-24.6 55-55 55z" fill="#e31b23"/></symbol><symbol viewBox="0 0 25 25" id="i--Arrow-Down-Black-Alt"><title>Arrow-Down-Black-Alt</title><path fill="#1e1f20" d="M.19 7.36a1 1 0 0 0 .29 1.46l10.9 8.67c.34.24.5.51 1.12.51s.78-.27 1.12-.51l10.9-8.67a1 1 0 0 0 .29-1.46 1.11 1.11 0 0 0-1.52-.12L12.5 15.87 1.71 7.24a1.11 1.11 0 0 0-1.52.12z"/></symbol><symbol viewBox="0 0 200 200" id="i--Arrow-Down-RedSolid"><title>Arrow-Down-RedSolid</title><path d="m100 39c-33.6 0-61 27.3-61 61 0 33.6 27.3 61 61 61 33.6 0 61-27.3 61-61 0-33.6-27.4-61-61-61zm27.2 53.6-25.7 26.3c-.6.6-1.3.9-2.1.9-.8 0-1.5-.3-2.1-.9l-25.8-26.3c-1.1-1.2-1.1-3 0-4.2 1.2-1.1 3-1.1 4.2 0l23.7 24.1 23.6-24c1.1-1.2 3-1.2 4.2 0 1.1 1.1 1.1 3 0 4.1z" fill="#e31b23"/><path d="m123 88.5-23.6 24.1-23.7-24.1c-1.1-1.2-3-1.2-4.2 0-1.2 1.1-1.2 3 0 4.2l25.9 26.3c.6.6 1.3.9 2.1.9.8 0 1.6-.3 2.1-.9l25.7-26.3c1.1-1.2 1.1-3 0-4.2-1.3-1.2-3.2-1.2-4.3 0z" fill="#fff"/></symbol><symbol viewBox="0 0 52 52" id="i--Cent"><title>Cent</title><path d="M26.3 44.9c-10 0-18-8.1-18-18s8.1-18 18-18 18 8.1 18 18-8.1 18-18 18zm0-34c-8.8 0-16 7.2-16 16s7.2 16 16 16 16-7.2 16-16-7.2-16-16-16zm4.2 21.2c-1 .7-2.1 1.1-3.3 1.2V20.7c1.2.1 2.4.5 3.4 1.2.5.4 1.3.3 1.8-.2.4-.6.3-1.3-.2-1.8-1.4-1.1-3.1-1.7-4.9-1.8V16c0-.5-.4-.9-.9-.9s-.9.4-.9.9v2.2C21.2 19 18 22.6 18 27s3.2 8 7.4 8.7v2c0 .5.4.9.9.9s.9-.4.9-.9v-1.9c1.8-.1 3.4-.6 4.8-1.7.6-.4.7-1.2.3-1.7s-1.2-.7-1.8-.3zm-10-5.1c0-3 2.1-5.5 4.9-6.1v12.3c-2.8-.7-4.9-3.2-4.9-6.2z"/></symbol><symbol viewBox="0 0 52 52" id="i--Check-Colors-Alt"><title>Check-Colors-Alt</title><path d="M25.2 43.7c-10 0-18.1-8.1-18.1-18.1S15.2 7.5 25.2 7.5s18.1 8.1 18.1 18.1-8.1 18.1-18.1 18.1zm0-34c-8.8 0-15.9 7.1-15.9 15.9s7.1 15.9 15.9 15.9 15.9-7.1 15.9-15.9S34 9.7 25.2 9.7z" fill="#E31B23"/><path d="M22.1 35.2c-.4 0-.8-.2-1-.5l-4.5-6c-.4-.6-.3-1.3.2-1.8.6-.4 1.3-.3 1.8.2l3.5 4.6 9.8-14.3c.4-.6 1.2-.7 1.7-.3.6.4.7 1.2.3 1.7L23.1 34.7c-.2.3-.6.5-1 .5z"/></symbol><symbol viewBox="0 0 200 200" id="i--Check-Colors"><title>Check-Colors</title><path d="m100 45c-30.4 0-55 24.7-55 55 0 30.4 24.7 55 55 55 30.4 0 55-24.7 55-55 0-30.4-24.6-55-55-55zm28.7 31.3-39.3 57.5-17.9-23.9c-1-1.3-.7-3.2.6-4.1 1.3-1 3.2-.7 4.1.6l13 17.3 34.6-50.7c.9-1.3 2.8-1.7 4.1-.8s1.7 2.8.8 4.1z" fill="none"/><path d="m127.9 72.2c-1.3-.9-3.2-.6-4.1.8l-34.6 50.7-13-17.3c-1-1.3-2.8-1.6-4.1-.6s-1.6 2.8-.6 4.1l17.9 23.9 39.3-57.5c.9-1.3.5-3.2-.8-4.1z" fill="#231f20"/><path d="m100 39c-33.6 0-61 27.3-61 61 0 33.6 27.3 61 61 61 33.6 0 61-27.3 61-61 0-33.6-27.4-61-61-61zm0 116c-30.4 0-55-24.7-55-55 0-30.4 24.7-55 55-55 30.4 0 55 24.7 55 55 0 30.4-24.6 55-55 55z" fill="#e31b23"/></symbol><symbol viewBox="0 0 52 52" id="i--Coverage-Map"><title>Coverage-Map</title><path d="m29 25.2c0-2-1.7-3.7-3.7-3.7s-3.7 1.7-3.7 3.7c0 1.7 1.2 3.2 2.8 3.6v11.2c0 .5.4 1 1 1s1-.4 1-1v-11.3c1.4-.4 2.6-1.8 2.6-3.5zm-3.7 1.8c-1 0-1.8-.8-1.8-1.8s.8-1.8 1.8-1.8 1.8.8 1.8 1.8-.8 1.8-1.8 1.8z"/><g fill="#e31b23"><path d="m38.5 39.4c-.2 0-.5-.1-.7-.3-.4-.4-.4-.9 0-1.3 3.3-3.3 5.1-7.7 5.1-12.3 0-4.7-1.8-9-5.1-12.3-.4-.4-.4-.9 0-1.3s.9-.4 1.3 0c3.6 3.6 5.7 8.5 5.7 13.7s-2 10-5.7 13.7c-.1 0-.4.1-.6.1z"/><path d="m35 36.2c-.2 0-.5-.1-.7-.3-.4-.4-.4-.9 0-1.3 5-5 5-13.2 0-18.3-.3-.3-.3-.9 0-1.3.4-.4.9-.4 1.3 0 5.8 5.8 5.8 15.1 0 20.9-.1.2-.4.3-.6.3z"/><path d="m31.7 32.7c-.2 0-.5-.1-.7-.3-.4-.4-.4-.9 0-1.3 1.5-1.5 2.3-3.5 2.3-5.6s-.8-4.1-2.3-5.6c-.4-.4-.4-.9 0-1.3s.9-.4 1.3 0c1.8 1.8 2.9 4.3 2.9 6.9s-1 5.1-2.9 6.9c-.1.2-.4.3-.6.3z"/><path d="m12.1 39c-.2 0-.5-.1-.7-.3-7.5-7.5-7.5-19.8 0-27.3.4-.4.9-.4 1.3 0s.4.9 0 1.3c-6.8 6.8-6.8 17.9 0 24.7.4.4.4.9 0 1.3-.2.2-.4.3-.6.3z"/><path d="m15.6 35.8c-.2 0-.5-.1-.7-.3-2.8-2.8-4.3-6.5-4.3-10.4s1.5-7.7 4.3-10.4c.4-.4.9-.4 1.3 0s.4.9 0 1.3c-2.4 2.4-3.8 5.7-3.8 9.1s1.3 6.7 3.8 9.1c.4.4.4.9 0 1.3-.2.2-.4.3-.6.3z"/><path d="m18.9 32.3c-.2 0-.5-.1-.7-.3-3.8-3.8-3.8-10 0-13.8.4-.4.9-.4 1.3 0s.4.9 0 1.3c-3.1 3.1-3.1 8.1 0 11.2.4.4.4.9 0 1.3-.2.2-.4.3-.6.3z"/></g></symbol><symbol viewBox="0 0 52 52" id="i--Credit-Card"><title>Credit-Card</title><path d="M42.6 15.8c.5 0 1 .5 1 1v18.4c0 .5-.5 1-1 1H10c-.5 0-1-.5-1-1V16.8c0-.5.5-1 1-1h32.6m0-2H10c-1.6 0-3 1.3-3 3v18.4c0 1.7 1.4 3 3 3h32.6c1.6 0 3-1.3 3-3V16.8c0-1.7-1.4-3-3-3z" fill="#E31B23"/><path d="M9 20.5H43.6V23.5H9z"/></symbol><symbol viewBox="0 0 52 52" id="i--Data-Black"><title>Data-Black</title><path d="m33.1 7.2h-14.5c-1.8 0-3.2 1.4-3.2 3.2v3.6 2 25.3c0 1.8 1.4 3.2 3.2 3.2h14.5c1.8 0 3.2-1.4 3.2-3.2v-25.3-2-3.6c0-1.8-1.4-3.2-3.2-3.2zm-8.3 33.4c0-.6.5-1.1 1.1-1.1s1.1.5 1.1 1.1-.5 1.1-1.1 1.1-1.1-.5-1.1-1.1zm9.5-3.9h-16.9v-20.7h16.9zm-16.9-22.7v-3.6c0-.6.5-1.2 1.2-1.2h14.5c.6 0 1.2.5 1.2 1.2v3.6zm14 21.4c-.5 0-.9-.4-.9-.9v-13.2c0-.5.4-.9.9-.9s.9.4.9.9v13.3c-.1.5-.5.8-.9.8zm-3.7 0c-.5 0-.9-.4-.9-.9v-9.9c0-.5.4-.9.9-.9s.9.4.9.9v9.9c0 .5-.4.9-.9.9zm-7.3 0c-.5 0-.9-.4-.9-.9v-3.4c0-.5.4-.9.9-.9s.9.4.9.9v3.4c-.1.5-.4.9-.9.9zm3.6 0c-.5 0-.9-.4-.9-.9v-7c0-.5.4-.9.9-.9s.9.4.9.9v7c0 .5-.4.9-.9.9z"/></symbol><symbol viewBox="0 0 52 52" id="i--Data-WiFi-Black"><title>Data-WiFi-Black</title><path d="M32 15.4H18.3c-1.5 0-2.7 1.2-2.7 2.7v28.7c0 1.5 1.2 2.7 2.7 2.7H32c1.5 0 2.7-1.2 2.7-2.7V18.2c0-1.5-1.2-2.8-2.7-2.8zM24.2 46c0-.5.4-1 1-1 .5 0 1 .4 1 1 0 .5-.4 1-1 1s-1-.4-1-1zm8.7-3.5H17.4v-19h15.5v19zM17.4 21.7v-3.5c0-.5.4-.9.9-.9H32c.5 0 .9.4.9.9v3.5H17.4zm12.8 19.6c-.5 0-.9-.4-.9-.9V28.2c0-.5.4-.9.9-.9s.9.4.9.9v12.2c0 .5-.4.9-.9.9zm-3.3-.1c-.5 0-.9-.4-.9-.9v-9.1c0-.5.4-.9.9-.9s.9.4.9.9v9.1c-.1.5-.5.9-.9.9zm-6.8 0c-.5 0-.9-.4-.9-.9v-3.2c0-.5.4-.9.9-.9s.9.4.9.9v3.2c0 .5-.4.9-.9.9zm3.4 0c-.5 0-.9-.4-.9-.9v-6.4c0-.5.4-.9.9-.9s.9.4.9.9v6.4c0 .5-.4.9-.9.9zm14.6-30.7c-.2 0-.5-.1-.6-.3-6.7-6.7-17.6-6.7-24.3 0-.4.4-.9.4-1.3 0s-.4-.9 0-1.3c7.4-7.4 19.4-7.4 26.8 0 .4.4.4.9 0 1.3-.2.2-.4.3-.6.3zM34.9 14c-.2 0-.5-.1-.6-.3-5-5-13-5-18 0-.4.4-.9.4-1.3 0s-.4-.9 0-1.3c5.7-5.7 14.9-5.7 20.5 0 .4.4.4.9 0 1.3-.1.2-.4.3-.6.3z"/></symbol><symbol viewBox="0 0 52 52" id="i--Data-WiFi-White"><title>Data-WiFi-White</title><path d="M32 15.4H18.3c-1.5 0-2.7 1.2-2.7 2.7v28.7c0 1.5 1.2 2.7 2.7 2.7H32c1.5 0 2.7-1.2 2.7-2.7V18.2c0-1.5-1.2-2.8-2.7-2.8zM24.2 46c0-.5.4-1 1-1 .5 0 1 .4 1 1 0 .5-.4 1-1 1s-1-.4-1-1zm8.7-3.5H17.4v-19h15.5v19zM17.4 21.7v-3.5c0-.5.4-.9.9-.9H32c.5 0 .9.4.9.9v3.5H17.4zm12.8 19.6c-.5 0-.9-.4-.9-.9V28.2c0-.5.4-.9.9-.9s.9.4.9.9v12.2c0 .5-.4.9-.9.9zm-3.3-.1c-.5 0-.9-.4-.9-.9v-9.1c0-.5.4-.9.9-.9s.9.4.9.9v9.1c-.1.5-.5.9-.9.9zm-6.8 0c-.5 0-.9-.4-.9-.9v-3.2c0-.5.4-.9.9-.9s.9.4.9.9v3.2c0 .5-.4.9-.9.9zm3.4 0c-.5 0-.9-.4-.9-.9v-6.4c0-.5.4-.9.9-.9s.9.4.9.9v6.4c0 .5-.4.9-.9.9zm14.6-30.7c-.2 0-.5-.1-.6-.3-6.7-6.7-17.6-6.7-24.3 0-.4.4-.9.4-1.3 0s-.4-.9 0-1.3c7.4-7.4 19.4-7.4 26.8 0 .4.4.4.9 0 1.3-.2.2-.4.3-.6.3zM34.9 14c-.2 0-.5-.1-.6-.3-5-5-13-5-18 0-.4.4-.9.4-1.3 0s-.4-.9 0-1.3c5.7-5.7 14.9-5.7 20.5 0 .4.4.4.9 0 1.3-.1.2-.4.3-.6.3z" fill="#FFF"/></symbol><symbol viewBox="0 0 200 200" id="i--Exclamation-Red"><title>Exclamation-Red</title><path d="m100 45c-30.4 0-55 24.7-55 55 0 30.4 24.7 55 55 55 30.4 0 55-24.7 55-55 0-30.4-24.6-55-55-55zm-3.2 27.3c0-1.6 1.3-3 3-3s3 1.3 3 3v35.1c0 1.6-1.3 3-3 3s-3-1.3-3-3zm2.8 55.4c-2.6 0-4.7-2.1-4.7-4.7s2.1-4.7 4.7-4.7 4.7 2.1 4.7 4.7c.1 2.6-2 4.7-4.7 4.7z" fill="none"/><g fill="#e31b23"><path d="m100 39c-33.6 0-61 27.3-61 61 0 33.6 27.3 61 61 61 33.6 0 61-27.3 61-61 0-33.6-27.4-61-61-61zm0 116c-30.4 0-55-24.7-55-55 0-30.4 24.7-55 55-55 30.4 0 55 24.7 55 55 0 30.4-24.6 55-55 55z"/><path d="m99.7 110.4c1.6 0 3-1.3 3-3v-35.1c0-1.6-1.3-3-3-3s-3 1.3-3 3v35.1c.1 1.6 1.4 3 3 3z"/><path d="m99.6 118.2c-2.6 0-4.7 2.1-4.7 4.7s2.1 4.7 4.7 4.7 4.7-2.1 4.7-4.7c.1-2.6-2-4.7-4.7-4.7z"/></g></symbol><symbol viewBox="0 0 52 52" id="i--Fee"><title>Fee</title><path d="M29.3 38.6c-2.1 0-4.4-.3-7.3-2.9-.5-.5-.6-1.2-.1-1.8.5-.5 1.2-.6 1.8-.1 2.2 1.9 3.7 2.3 5.7 2.3 3.5 0 6-2.5 6-6 0-1.8-.6-3.3-1.6-4.3s-2.5-1.5-4.3-1.5c-2.5 0-4.1 1-5.3 3.4-.3.5-.9.8-1.4.6-.6-.2-1-.7-.9-1.3l.6-12.5c0-.7.6-1.2 1.2-1.2h11.6c.7 0 1.2.6 1.2 1.2s-.6 1.2-1.2 1.2H24.8l-.3 7.5c1.4-1.1 3-1.6 5-1.6 2.5 0 4.6.8 6.1 2.2 1.5 1.5 2.3 3.7 2.3 6.1-.1 5.2-3.6 8.7-8.6 8.7zm-9.6-16.7c0-.8-.4-2.3-2.9-3.3v-2.7c.4.2.7.5.7.8.1.4.5.7 1 .6.4-.1.7-.5.6-1-.3-1.1-1.2-1.9-2.3-2.2v-.6c0-.3-.3-.6-.6-.6s-.6.3-.6.6v.6c-1.4.2-2.4 1.3-2.4 2.7 0 .9.4 2.1 2.4 2.9v3.5c-.7-.2-1.2-.7-1.3-1.3-.1-.4-.5-.7-1-.6-.4.1-.7.5-.6 1 .3 1.4 1.5 2.4 2.9 2.6v.5c0 .3.3.6.6.6s.6-.3.6-.6V25c1.8-.2 2.9-1.4 2.9-3.1zm-4.9-5c0-.5.3-.8.8-1V18c-.4-.3-.8-.6-.8-1.1zm2 6.5v-3c.8.5 1.3 1 1.3 1.6 0 .9-.7 1.2-1.3 1.4z"/></symbol><symbol viewBox="0 0 52 52" id="i--Free-WiFi-Black"><title>Free-WiFi-Black</title><path d="m27.5 45.1c-4.2 0-7.7-3.6-7.7-8v-9.8c0-4.4 3.5-8 7.7-8 4.3 0 7.7 3.6 7.7 8v9.8c0 4.4-3.4 8-7.7 8zm0-23.3c-2.9 0-5.2 2.5-5.2 5.5v9.8c0 3 2.3 5.5 5.2 5.5s5.2-2.5 5.2-5.5v-9.8c0-3.1-2.3-5.5-5.2-5.5zm-9.9 12.4c0-.8-.4-2.3-2.9-3.3v-2.7c.4.2.7.5.7.8.1.4.5.7 1 .6.4-.1.7-.5.6-1-.3-1.1-1.2-1.9-2.3-2.2v-.6c0-.3-.3-.6-.6-.6s-.6.3-.6.6v.6c-1.4.2-2.4 1.3-2.4 2.7 0 .9.4 2.1 2.4 2.9v3.5c-.7-.2-1.2-.7-1.3-1.3-.1-.4-.5-.7-1-.6-.4.1-.7.5-.6 1 .3 1.4 1.5 2.4 2.9 2.6v.5c0 .3.3.6.6.6s.6-.3.6-.6v-.5c1.8-.2 2.9-1.4 2.9-3zm-4.9-5.1c0-.5.3-.8.8-1v2.1c-.4-.3-.8-.6-.8-1.1zm2 6.5v-3c.8.5 1.3 1 1.3 1.6 0 .9-.6 1.3-1.3 1.4zm25.3-22c-.3 0-.6-.1-.8-.3-6.5-6.5-17-6.5-23.5 0-.4.4-1.1.4-1.6 0-.4-.4-.4-1.1 0-1.6 7.3-7.3 19.3-7.3 26.6 0 .4.4.4 1.1 0 1.6-.1.2-.4.3-.7.3zm-20.5 4.2c-.3 0-.6-.1-.8-.3-.4-.4-.4-1.1 0-1.6 2.3-2.3 5.5-3.6 8.8-3.6 3.3 0 6.4 1.3 8.8 3.6.4.4.4 1.1 0 1.6-.4.4-1.1.4-1.6 0-1.9-1.9-4.5-3-7.2-3-2.7 0-5.3 1.1-7.2 3-.2.2-.5.3-.8.3z"/></symbol><symbol viewBox="0 0 52 52" id="i--Free-WiFi-White"><title>Free-WiFi-White</title><path d="m27.2 44.1c-4.2 0-7.7-3.6-7.7-8v-9.8c0-4.4 3.5-8 7.7-8 4.3 0 7.7 3.6 7.7 8v9.8c0 4.4-3.5 8-7.7 8zm0-23.3c-2.9 0-5.2 2.5-5.2 5.5v9.8c0 3 2.3 5.5 5.2 5.5s5.2-2.5 5.2-5.5v-9.8c0-3-2.4-5.5-5.2-5.5zm-9.9 12.4c0-.8-.4-2.3-2.9-3.3v-2.7c.4.2.7.5.7.8.1.4.5.7 1 .6.4-.1.7-.5.6-1-.3-1.1-1.2-1.9-2.3-2.2v-.6c0-.3-.3-.6-.6-.6s-.6.3-.6.6v.6c-1.4.2-2.4 1.3-2.4 2.7 0 .9.4 2.1 2.4 2.9v3.5c-.7-.2-1.2-.7-1.3-1.3-.1-.4-.5-.7-1-.6-.4.1-.7.5-.6 1 .3 1.4 1.5 2.4 2.9 2.6v.5c0 .3.3.6.6.6s.6-.3.6-.6v-.5c1.7-.2 2.9-1.4 2.9-3zm-4.9-5.1c0-.5.3-.8.8-1v2.1c-.5-.2-.8-.6-.8-1.1zm2 6.5v-3c.8.5 1.3 1 1.3 1.6 0 .9-.7 1.3-1.3 1.4zm25.3-22c-.3 0-.6-.1-.8-.3-6.5-6.5-17-6.5-23.5 0-.4.4-1.1.4-1.6 0s-.4-1.1 0-1.6c7.3-7.3 19.3-7.3 26.6 0 .4.4.4 1.1 0 1.6-.2.2-.4.3-.7.3zm-20.6 4.2c-.3 0-.6-.1-.8-.3-.4-.4-.4-1.1 0-1.6 2.3-2.3 5.5-3.6 8.8-3.6 3.3 0 6.4 1.3 8.8 3.6.4.4.4 1.1 0 1.6s-1.1.4-1.6 0c-1.9-1.9-4.5-3-7.2-3-2.7 0-5.3 1.1-7.2 3-.2.2-.5.3-.8.3z" fill="#fff"/></symbol><symbol viewBox="0 0 52 52" id="i--History"><title>History</title><path d="M36.6 9.7c.5 0 1 .5 1 1v29.1c0 .5-.5 1-1 1H17.5c-.5 0-1-.5-1-1V10.7c0-.5.5-1 1-1h19.1m0-2H17.5c-1.7 0-3 1.3-3 3v29.1c0 1.7 1.3 3 3 3h19.1c1.7 0 3-1.3 3-3V10.7c0-1.7-1.3-3-3-3z" fill="#E31B23"/><path d="M34.6 35.1h-15c-.5 0-.9-.4-.9-.9s.4-.9.9-.9h15c.5 0 .9.4.9.9s-.4.9-.9.9zm0-6h-15c-.5 0-.9-.4-.9-.9s.4-.9.9-.9h15c.5 0 .9.4.9.9s-.4.9-.9.9zm0-6h-15c-.5 0-.9-.4-.9-.9s.4-.9.9-.9h15c.5 0 .9.4.9.9s-.4.9-.9.9zm0-6h-15c-.5 0-.9-.4-.9-.9s.4-.9.9-.9h15c.5 0 .9.4.9.9s-.4.9-.9.9z"/></symbol><symbol viewBox="0 0 200 200" id="i--Info-Black"><title>Info-Black</title><path d="m100 45c-30.4 0-55 24.7-55 55 0 30.4 24.7 55 55 55 30.4 0 55-24.7 55-55 0-30.4-24.6-55-55-55zm3.2 82.2c0 1.6-1.3 3-3 3s-3-1.3-3-3v-35.1c0-1.6 1.3-3 3-3s3 1.3 3 3zm-2.8-46c-2.6 0-4.7-2.1-4.7-4.7s2.1-4.7 4.7-4.7 4.7 2.1 4.7 4.7-2.1 4.7-4.7 4.7z" fill="none"/><g fill="#231f20"><path d="m100 39c-33.6 0-61 27.3-61 61 0 33.6 27.3 61 61 61 33.6 0 61-27.3 61-61 0-33.6-27.4-61-61-61zm0 116c-30.4 0-55-24.7-55-55 0-30.4 24.7-55 55-55 30.4 0 55 24.7 55 55 0 30.4-24.6 55-55 55z"/><path d="m100.3 89.1c-1.6 0-3 1.3-3 3v35.1c0 1.6 1.3 3 3 3s3-1.3 3-3v-35.1c-.1-1.7-1.4-3-3-3z"/><path d="m100.4 71.8c-2.6 0-4.7 2.1-4.7 4.7s2.1 4.7 4.7 4.7 4.7-2.1 4.7-4.7-2.1-4.7-4.7-4.7z"/></g></symbol><symbol viewBox="0 0 52 52" id="i--InProgress"><title>InProgress</title><path d="M26 23.7c-.4 0-.8.1-1.1.2l-5.3-6.1c-.4-.4-1-.5-1.4-.1s-.5 1-.1 1.4l5.2 6c-.4.6-.7 1.2-.7 2 0 1.9 1.5 3.4 3.4 3.4s3.4-1.5 3.4-3.4-1.5-3.4-3.4-3.4zM25.9 41c-.6 0-1-.4-1-1v-.8c0-.6.4-1 1-1s1 .4 1 1v.8c0 .5-.4 1-1 1zM14 28h-.8c-.6 0-1-.4-1-1s.4-1 1-1h.8c.6 0 1 .4 1 1s-.5 1-1 1zm12.2-12c-.6 0-1-.4-1-1v-.8c0-.6.4-1 1-1s1 .4 1 1v.8c0 .5-.5 1-1 1zm12.7 12.2h-.8c-.6 0-1-.4-1-1s.4-1 1-1h.8c.6 0 1 .4 1 1s-.4 1-1 1z"/><path d="M26 44.3c-9.5 0-17.3-7.7-17.3-17.3S16.5 9.7 26 9.7 43.3 17.5 43.3 27 35.5 44.3 26 44.3zm0-32.4c-8.3 0-15.1 6.8-15.1 15.1S17.7 42.1 26 42.1 41.1 35.3 41.1 27 34.3 11.9 26 11.9z" fill="#E31B23"/><path d="M22.5 7.7H25v2c.4 0 .7-.1 1.1-.1h.9v-2h2.2c.8 0 1.5-.7 1.5-1.5s-.7-1.4-1.6-1.4h-6.7c-.8 0-1.5.7-1.5 1.5s.7 1.5 1.6 1.5zm12.8 2.6l1.2.9-1 1.4c.6.4 1.1.8 1.6 1.2l1-1.5 1.2.8c.3.2.6.3.9.3.5 0 .9-.2 1.2-.6.5-.7.3-1.6-.4-2.1l-4-2.8c-.7-.5-1.6-.3-2.1.4-.4.6-.3 1.5.4 2z"/></symbol><symbol viewBox="0 0 52 52" id="i--Messages-Black"><title>Messages-Black</title><path d="M25 10.6c2.2 0 3.9 1.8 3.9 3.9v7.6c0 2.2-1.8 3.9-3.9 3.9h-7.7c-.2 0-.5.1-.7.2l-6.5 4.5v-3.5c0-.6-.5-1.2-1.1-1.2-2-.1-3.6-1.9-3.6-3.9v-7.6c0-2.2 1.8-3.9 3.9-3.9H25m0-2.2H9.3c-3.4 0-6.1 2.7-6.1 6.1v7.6c0 2.9 2 5.3 4.7 6v2.6c0 .8.4 1.6 1.2 2 .3.2.7.3 1 .3.4 0 .9-.1 1.3-.4l6.2-4.3H25c3.4 0 6.1-2.8 6.1-6.1v-7.6c0-3.5-2.8-6.2-6.1-6.2zm17.4 11.7c2.2 0 3.9 1.7 3.9 3.9v7.6c0 2-1.6 3.7-3.6 3.9-.6 0-1.1.6-1.1 1.2v3.5l-6.5-4.5c-.2-.1-.4-.2-.7-.2h-7.7c-2.2 0-3.9-1.8-3.9-3.9V24c0-2.2 1.8-3.9 3.9-3.9h15.7m0-2.2H26.7c-3.4 0-6.1 2.7-6.1 6.1v7.6c0 3.4 2.7 6.1 6.1 6.1h7.4l6.2 4.3c.4.3.8.4 1.3.4.4 0 .7-.1 1-.3.7-.4 1.2-1.2 1.2-2v-2.7c2.7-.7 4.7-3.1 4.7-5.9V24c0-3.4-2.8-6.1-6.1-6.1z"/></symbol><symbol viewBox="0 0 52 52" id="i--Messages-White"><title>Messages-White</title><path d="M25 12.4c2.2 0 3.9 1.8 3.9 3.9v7.6c0 2.2-1.8 3.9-3.9 3.9h-7.7c-.2 0-.5.1-.7.2l-6.5 4.5V29c0-.6-.5-1.2-1.1-1.2-2-.1-3.6-1.9-3.6-3.9v-7.6c0-2.2 1.8-3.9 3.9-3.9H25m0-2.3H9.4c-3.4 0-6.1 2.8-6.1 6.1v7.6c0 2.9 2 5.3 4.7 6v2.6c0 .8.4 1.6 1.2 2 .3.2.7.3 1 .3.4 0 .9-.1 1.3-.4l6.2-4.3H25c3.4 0 6.1-2.8 6.1-6.1v-7.6c0-3.4-2.7-6.2-6.1-6.2zm17.4 11.8c2.2 0 3.9 1.7 3.9 3.9v7.6c0 2-1.6 3.7-3.6 3.9-.6 0-1.1.6-1.1 1.2V42l-6.5-4.5c-.2-.1-.4-.2-.7-.2h-7.7c-2.2 0-3.9-1.8-3.9-3.9v-7.6c0-2.2 1.8-3.9 3.9-3.9h15.7m0-2.2H26.8c-3.4 0-6.1 2.7-6.1 6.1v7.6c0 3.4 2.7 6.1 6.1 6.1h7.4l6.2 4.3c.4.3.8.4 1.3.4.4 0 .7-.1 1-.3.7-.4 1.2-1.2 1.2-2v-2.7c2.7-.7 4.7-3.1 4.7-5.9v-7.6c-.1-3.3-2.8-6-6.2-6z" fill="#FFF"/></symbol><symbol viewBox="0 0 52 52" id="i--Mobile-Arrow-Colors-Alt"><title>Mobile-Arrow-Colors-Alt</title><path d="m29.6 23.5-4.1-3.2c-.4-.3-1.1-.3-1.4.2s-.3 1.1.2 1.4l2 1.5h-16.2c-.5 0-.9.4-.9.9s.4.9.9.9h16.1l-1.9 1.5c-.4.3-.5 1-.2 1.4.2.3.5.4.8.4.2 0 .4-.1.6-.2l4.1-3.2c.2-.2.4-.5.4-.8 0-.4-.1-.6-.4-.8z" fill="#e31b23"/><path d="m36.9 12.5v-3.6c0-1.8-1.4-3.2-3.2-3.2h-14.5c-1.8 0-3.2 1.4-3.2 3.2v3.6 2 8.9h2v-8.9h16.9v20.7h-16.9v-10h-2v14.7c0 1.8 1.4 3.2 3.2 3.2h14.5c1.8 0 3.2-1.4 3.2-3.2v-25.4zm-10.5 27.7c-.6 0-1.1-.5-1.1-1.1s.5-1.1 1.1-1.1 1.1.5 1.1 1.1-.5 1.1-1.1 1.1zm8.5-27.7h-16.9v-3.6c0-.6.5-1.2 1.2-1.2h14.5c.6 0 1.2.5 1.2 1.2z"/></symbol><symbol viewBox="0 0 200 200" id="i--Mobile-Black"><title>Mobile-Black</title><g fill="none"><path d="m71 150c0 1.8.7 3.5 2 4.8s3 2 4.8 2l44.2.1c1.8 0 3.5-.7 4.8-2s2-3 2-4.8v-13.4l-57.8-.1zm28.9-8.5c2.6 0 4.7 2.1 4.7 4.7s-2.1 4.7-4.7 4.7-4.7-2.1-4.7-4.7 2.1-4.7 4.7-4.7z"/><path d="m122.2 43.2-44.2-.1c-1.8 0-3.5.7-4.8 2s-2 3-2 4.8v4l57.8.1v-4c0-1.8-.7-3.5-2-4.8s-3-2-4.8-2z"/><path d="m71 130.7 57.8.1.2-70.9-57.8-.1z"/></g><path d="m131.2 41c-2.4-2.4-5.6-3.7-9-3.8h-44.2c-3.4 0-6.6 1.3-9 3.7s-3.7 5.6-3.8 9v6.8.2.2l-.2 93c0 3.4 1.3 6.6 3.7 9s5.6 3.7 9 3.8l44.2.1c3.4 0 6.6-1.3 9-3.7s3.7-5.6 3.8-9l.2-100.3c0-3.4-1.3-6.6-3.7-9zm-2.4 109.1c0 1.8-.7 3.5-2 4.8s-3 2-4.8 2l-44.2-.1c-1.8 0-3.5-.7-4.8-2s-2-3-2-4.8v-13.4l57.8.1zm0-19.3-57.8-.1.2-70.9 57.8.1zm.2-76.8-57.8-.1v-4c0-1.8.7-3.5 2-4.8s3-2 4.8-2l44.2.1c1.8 0 3.5.7 4.8 2s2 3 2 4.8z" fill="#231f20"/><path d="m99.9 150.8c2.6 0 4.7-2.1 4.7-4.7s-2.1-4.7-4.7-4.7-4.7 2.1-4.7 4.7 2.1 4.7 4.7 4.7z" fill="#231f20"/></symbol><symbol viewBox="0 0 200 200" id="i--Mobile-Check-Black"><title>Mobile-Check-Black</title><g fill="none"><path d="m71 150c0 1.8.7 3.5 2 4.8s3 2 4.8 2l44.2.1c1.8 0 3.5-.7 4.8-2s2-3 2-4.8v-13.4l-57.8-.1zm28.9-8.5c2.6 0 4.7 2.1 4.7 4.7s-2.1 4.7-4.7 4.7-4.7-2.1-4.7-4.7 2.1-4.7 4.7-4.7z"/><path d="m71 130.7 57.8.1.2-70.9-57.8-.1zm15.1-35c1.3-1 3.2-.7 4.1.6l6.4 8.6 17.9-25.5c.9-1.3 2.8-1.7 4.1-.7 1.3.9 1.7 2.8.7 4.1l-20.2 28.8c-.5.8-1.4 1.2-2.4 1.3-.9 0-1.8-.4-2.4-1.2l-8.8-11.8c-.9-1.4-.7-3.2.6-4.2z"/><path d="m122.2 43.2-44.2-.1c-1.8 0-3.5.7-4.8 2s-2 3-2 4.8v4l57.8.1v-4c0-1.8-.7-3.5-2-4.8s-3-2-4.8-2z"/></g><path d="m94.4 111.6c.6.7 1.4 1.2 2.4 1.2.9 0 1.8-.5 2.4-1.3l20.2-28.8c.9-1.3.6-3.2-.7-4.1s-3.2-.6-4.1.7l-17.9 25.5-6.4-8.6c-1-1.3-2.8-1.6-4.1-.6s-1.6 2.8-.6 4.1z" fill="#231f20"/><path d="m131.2 41c-2.4-2.4-5.6-3.7-9-3.8h-44.2c-3.4 0-6.6 1.3-9 3.7s-3.7 5.6-3.8 9v6.8.2.2l-.2 93c0 3.4 1.3 6.6 3.7 9s5.6 3.7 9 3.8l44.2.1c3.4 0 6.6-1.3 9-3.7s3.7-5.6 3.8-9l.2-100.3c0-3.4-1.3-6.6-3.7-9zm-2.4 109.1c0 1.8-.7 3.5-2 4.8s-3 2-4.8 2l-44.2-.1c-1.8 0-3.5-.7-4.8-2s-2-3-2-4.8v-13.4l57.8.1zm0-19.3-57.8-.1.2-70.9 57.8.1zm.2-76.8-57.8-.1v-4c0-1.8.7-3.5 2-4.8s3-2 4.8-2l44.2.1c1.8 0 3.5.7 4.8 2s2 3 2 4.8z" fill="#231f20"/><path d="m99.9 150.8c2.6 0 4.7-2.1 4.7-4.7s-2.1-4.7-4.7-4.7-4.7 2.1-4.7 4.7 2.1 4.7 4.7 4.7z" fill="#231f20"/></symbol><symbol viewBox="0 0 52 52" id="i--Mobile-Check-Colors-Alt"><title>Mobile-Check-Colors-Alt</title><path d="m23.9 30-3.3-4.4c-.3-.4-.2-1 .2-1.3s1-.2 1.3.2l1.8 2.4 5.2-7.4c.3-.4.8-.5 1.3-.2s.5.8.2 1.3z"/><path d="m32.8 5.6h-14.5c-1.8 0-3.2 1.4-3.2 3.2v3.6 2 25.3c0 1.8 1.4 3.2 3.2 3.2h14.5c1.8 0 3.2-1.4 3.2-3.2v-25.3-2-3.6c0-1.8-1.5-3.2-3.2-3.2zm-8.3 33.4c0-.6.5-1.1 1.1-1.1s1.1.5 1.1 1.1-.5 1.1-1.1 1.1-1.1-.5-1.1-1.1zm9.5-3.9h-16.9v-20.7h16.9zm-16.9-22.7v-3.6c0-.6.5-1.2 1.2-1.2h14.5c.6 0 1.2.5 1.2 1.2v3.6z" fill="#e31b23"/></symbol><symbol viewBox="0 0 200 200" id="i--Mobile-Check-Colors"><title>Mobile-Check-Colors</title><g fill="none"><path d="m71 150c0 1.8.7 3.5 2 4.8s3 2 4.8 2l44.2.1c1.8 0 3.5-.7 4.8-2s2-3 2-4.8v-13.4l-57.8-.1zm28.9-8.5c2.6 0 4.7 2.1 4.7 4.7s-2.1 4.7-4.7 4.7-4.7-2.1-4.7-4.7 2.1-4.7 4.7-4.7z"/><path d="m71 130.7 57.8.1.2-70.9-57.8-.1zm15.1-35c1.3-1 3.2-.7 4.1.6l6.4 8.6 17.9-25.5c.9-1.3 2.8-1.7 4.1-.7 1.3.9 1.7 2.8.7 4.1l-20.2 28.8c-.5.8-1.4 1.2-2.4 1.3-.9 0-1.8-.4-2.4-1.2l-8.8-11.8c-.9-1.4-.7-3.2.6-4.2z"/><path d="m122.2 43.2-44.2-.1c-1.8 0-3.5.7-4.8 2s-2 3-2 4.8v4l57.8.1v-4c0-1.8-.7-3.5-2-4.8s-3-2-4.8-2z"/></g><path d="m94.4 111.6c.6.7 1.4 1.2 2.4 1.2.9 0 1.8-.5 2.4-1.3l20.2-28.8c.9-1.3.6-3.2-.7-4.1s-3.2-.6-4.1.7l-17.9 25.5-6.4-8.6c-1-1.3-2.8-1.6-4.1-.6s-1.6 2.8-.6 4.1z" fill="#231f20"/><path d="m131.2 41c-2.4-2.4-5.6-3.7-9-3.8h-44.2c-3.4 0-6.6 1.3-9 3.7s-3.7 5.6-3.8 9v6.8.2.2l-.2 93c0 3.4 1.3 6.6 3.7 9s5.6 3.7 9 3.8l44.2.1c3.4 0 6.6-1.3 9-3.7s3.7-5.6 3.8-9l.2-100.3c0-3.4-1.3-6.6-3.7-9zm-2.4 109.1c0 1.8-.7 3.5-2 4.8s-3 2-4.8 2l-44.2-.1c-1.8 0-3.5-.7-4.8-2s-2-3-2-4.8v-13.4l57.8.1zm0-19.3-57.8-.1.2-70.9 57.8.1zm.2-76.8-57.8-.1v-4c0-1.8.7-3.5 2-4.8s3-2 4.8-2l44.2.1c1.8 0 3.5.7 4.8 2s2 3 2 4.8z" fill="#e31b23"/><path d="m99.9 150.8c2.6 0 4.7-2.1 4.7-4.7s-2.1-4.7-4.7-4.7-4.7 2.1-4.7 4.7 2.1 4.7 4.7 4.7z" fill="#e31b23"/></symbol><symbol viewBox="0 0 52 52" id="i--Mobile-Highlighted-Colors-Alt"><title>Mobile-Highlighted-Colors-Alt</title><path d="M12.4 16.7c-.2 0-.3 0-.5-.1l-3.9-2c-.5-.3-.8-.9-.5-1.5.3-.5.9-.8 1.5-.5l3.9 2c.5.3.8.9.5 1.5-.2.4-.6.6-1 .6zm5.6-6c-.4 0-.7-.2-.9-.5l-2.3-3.8c-.3-.5-.1-1.2.4-1.5.5-.3 1.2-.1 1.5.4L18.9 9c.3.5.1 1.2-.4 1.5-.1.1-.3.2-.5.2zm8-2.2s-.1 0 0 0c-.6 0-1.1-.5-1.1-1.1V3c0-.6.5-1.1 1.1-1.1.6 0 1.1.5 1.1 1.1v4.4c0 .6-.5 1.1-1.1 1.1zm7.9 2.4c-.2 0-.4-.1-.6-.2-.5-.3-.7-1-.3-1.5l2.4-3.7c.3-.5 1-.7 1.5-.3.5.3.7 1 .3 1.5l-2.4 3.7c-.2.3-.6.5-.9.5zm5.4 6.1c-.4 0-.8-.2-1-.6-.3-.5 0-1.2.5-1.5l4-1.9c.5-.3 1.2 0 1.5.5.3.5 0 1.2-.5 1.5l-4 1.9c-.1.1-.3.1-.5.1z"/><path d="M32.8 12.3H19.2c-1.6 0-3 1.4-3 3v29c0 1.6 1.4 3 3 3h13.6c1.6 0 3-1.4 3-3v-29c0-1.6-1.4-3-3-3zM25 43.7c0-.6.4-1 1-1s1 .4 1 1-.4 1-1 1-1-.4-1-1zm8.8-3.6H18.2V20.6h15.6v19.5zM18.2 18.6v-3.3c0-.5.5-1 1-1h13.6c.5 0 1 .5 1 1v3.3H18.2z" fill="#E31B23"/></symbol><symbol viewBox="0 0 200 200" id="i--Mobile-Highlighted-Colors"><title>Mobile-Highlighted-Colors</title><path d="m122.2 60.2-44.2-.1c-1.8 0-3.5.7-4.8 2s-2 3-2 4.8v4l57.8.1v-4c0-1.8-.7-3.5-2-4.8s-3-2-4.8-2z" fill="none"/><path d="m71 147.7 57.8.1.2-70.9-57.8-.1z" fill="none"/><path d="m71 167c0 1.8.7 3.5 2 4.8s3 2 4.8 2l44.2.1c1.8 0 3.5-.7 4.8-2s2-3 2-4.8v-13.4l-57.8-.1zm28.9-8.5c2.6 0 4.7 2.1 4.7 4.7s-2.1 4.7-4.7 4.7-4.7-2.1-4.7-4.7 2.1-4.7 4.7-4.7z" fill="none"/><g fill="#231f20"><path d="m54.9 55.5-13.6-6.9c-1.5-.7-3.2-.2-4 1.3-.7 1.5-.2 3.2 1.3 4l13.6 6.9c.4.2.9.3 1.3.3 1.1 0 2.1-.6 2.6-1.6.8-1.5.3-3.3-1.2-4z"/><path d="m72.9 40.3c.5 0 1.1-.1 1.5-.4 1.4-.8 1.8-2.7 1-4.1l-7.9-13c-.8-1.4-2.7-1.8-4.1-1s-1.8 2.7-1 4.1l7.9 13c.7.9 1.6 1.4 2.6 1.4z"/><path d="m100.3 32.9c1.6 0 3-1.3 3-2.9l.1-15.2c0-1.6-1.3-3-2.9-3-1.6 0-2.9 1.3-3 2.9l-.1 15.2c-.1 1.6 1.2 3 2.9 3z"/><path d="m137.2 22.6c-1.4-.9-3.2-.5-4.1.9l-8.1 12.9c-.9 1.4-.5 3.2.9 4.1.5.3 1 .5 1.6.5 1 0 1.9-.5 2.5-1.4l8.1-12.9c.8-1.4.4-3.2-.9-4.1z"/><path d="m162.6 51.2c-.7-1.5-2.5-2.1-4-1.4l-13.6 6.7c-1.5.7-2.1 2.5-1.4 4 .5 1 1.6 1.7 2.7 1.7.4 0 .9-.1 1.3-.3l13.7-6.7c1.4-.7 2.1-2.5 1.3-4z"/></g><path d="m122.2 54.3-44.2-.1c-3.4 0-6.6 1.3-9 3.7s-3.7 5.6-3.8 9v6.8.2.2l-.2 93c0 3.4 1.3 6.6 3.7 9s5.6 3.7 9 3.8l44.2.1c3.4 0 6.6-1.3 9-3.7s3.7-5.6 3.8-9l.2-100.3c0-3.4-1.3-6.6-3.7-9s-5.6-3.7-9-3.7zm6.6 112.8c0 1.8-.7 3.5-2 4.8s-3 2-4.8 2l-44.2-.1c-1.8 0-3.5-.7-4.8-2s-2-3-2-4.8v-13.4l57.8.1zm0-19.3-57.8-.1.2-70.9 57.8.1zm.2-76.8-57.8-.1v-4c0-1.8.7-3.5 2-4.8s3-2 4.8-2l44.2.1c1.8 0 3.5.7 4.8 2s2 3 2 4.8z" fill="#e31b23"/><path d="m99.9 167.8c2.6 0 4.7-2.1 4.7-4.7s-2.1-4.7-4.7-4.7-4.7 2.1-4.7 4.7 2.1 4.7 4.7 4.7z" fill="#e31b23"/></symbol><symbol viewBox="0 0 200 200" id="i--Mobile-Locked-Black"><title>Mobile-Locked-Black</title><g fill="none"><path d="m89.9 96.6h19.5v15.2h-19.5z"/><path d="m71 150c0 1.8.7 3.5 2 4.8s3 2 4.8 2l44.2.1c1.8 0 3.5-.7 4.8-2s2-3 2-4.8v-13.4l-57.8-.1zm28.9-8.5c2.6 0 4.7 2.1 4.7 4.7s-2.1 4.7-4.7 4.7-4.7-2.1-4.7-4.7 2.1-4.7 4.7-4.7z"/><path d="m104.5 84.3c0-2.5-2.1-4.6-4.6-4.6s-4.6 2.1-4.6 4.6v6.4h9.1v-6.4z"/><path d="m122.2 43.2-44.2-.1c-1.8 0-3.5.7-4.8 2s-2 3-2 4.8v4l57.8.1v-4c0-1.8-.7-3.5-2-4.8s-3-2-4.8-2z"/><path d="m71 130.7 57.8.1.2-70.9-57.8-.1zm13-37c0-1.6 1.3-3 3-3h2.5v-6.4c0-5.8 4.7-10.5 10.5-10.5s10.5 4.7 10.5 10.5v6.4h1.9c1.6 0 3 1.3 3 3v21.1c0 1.6-1.3 3-3 3h-25.5c-1.6 0-3-1.3-3-3v-21.1z"/></g><path d="m86.9 117.8h25.5c1.6 0 3-1.3 3-3v-21.1c0-1.6-1.3-3-3-3h-1.9v-6.4c0-5.8-4.7-10.5-10.5-10.5s-10.5 4.7-10.5 10.5v6.4h-2.5c-1.6 0-3 1.3-3 3v21.1c0 1.6 1.3 3 2.9 3zm8.5-33.5c0-2.5 2.1-4.6 4.6-4.6s4.6 2.1 4.6 4.6v6.4h-9.1v-6.4zm-5.5 12.3h19.5v15.2h-19.5z" fill="#231f20"/><path d="m131.2 41c-2.4-2.4-5.6-3.7-9-3.8h-44.2c-3.4 0-6.6 1.3-9 3.7s-3.7 5.6-3.8 9v6.8.2.2l-.2 93c0 3.4 1.3 6.6 3.7 9s5.6 3.7 9 3.8l44.2.1c3.4 0 6.6-1.3 9-3.7s3.7-5.6 3.8-9l.2-100.3c0-3.4-1.3-6.6-3.7-9zm-2.4 109.1c0 1.8-.7 3.5-2 4.8s-3 2-4.8 2l-44.2-.1c-1.8 0-3.5-.7-4.8-2s-2-3-2-4.8v-13.4l57.8.1zm0-19.3-57.8-.1.2-70.9 57.8.1zm.2-76.8-57.8-.1v-4c0-1.8.7-3.5 2-4.8s3-2 4.8-2l44.2.1c1.8 0 3.5.7 4.8 2s2 3 2 4.8z" fill="#231f20"/><path d="m99.9 150.8c2.6 0 4.7-2.1 4.7-4.7s-2.1-4.7-4.7-4.7-4.7 2.1-4.7 4.7 2.1 4.7 4.7 4.7z" fill="#231f20"/></symbol><symbol viewBox="0 0 50 50" id="i--Mobile-Network-Alt"><title>Mobile-Network-Alt</title><path d="M0 0h50v50H0z" fill="none"/><g fill="#231f20"><path d="M13.21 17.26a.85.85 0 0 1-.62-.26 7 7 0 0 1-.1-9.9l.1-.1a.88.88 0 1 1 1.24 1.24 5.29 5.29 0 0 0 0 7.48.87.87 0 0 1 0 1.24.86.86 0 0 1-.6.25z"/><path d="M10.8 20.86a.85.85 0 0 1-.62-.26 12 12 0 0 1 0-17 .88.88 0 0 1 1.24.11.87.87 0 0 1 0 1.13 10.3 10.3 0 0 0 0 14.56.87.87 0 0 1 0 1.24.86.86 0 0 1-.6.25zm18.02-10.12h1.76a12 12 0 0 0-3.43-7.17.88.88 0 0 0-1.24.11.87.87 0 0 0 0 1.13 10.25 10.25 0 0 1 2.91 5.93zm-3.89.37a3 3 0 0 1 1.42-.37h.31A7 7 0 0 0 24.73 7a.88.88 0 0 0-1.24 1.24 5.15 5.15 0 0 1 1.44 2.87z"/></g><path d="M42.94 17.07v-3.33a3 3 0 0 0-3-3h-13.6a3 3 0 0 0-3 3v29.07a3 3 0 0 0 3 3h13.6a3 3 0 0 0 3-3V19.07zm-16.6-4.33h13.6a1 1 0 0 1 1 1v3.33h-15.6v-3.33a1 1 0 0 1 1-1zm6.8 30.41a1 1 0 1 1 1-1 1 1 0 0 1-1 1zm7.8-4.67h-15.6V19.07h15.6z" fill="#e21b23"/><path d="M23.34 21.6l-1.81-6a1 1 0 0 0-.27-.42 4.12 4.12 0 1 0-5.79-.65 4.59 4.59 0 0 0 .53.55 1 1 0 0 0-.14.24L6.11 44.77A1 1 0 0 0 8 45.4l1.54-4.67L23.34 32zM17.73 16a3.94 3.94 0 0 0 1.87 0 .49.49 0 0 0 0 .17l.74 2.48-4.51 3zm-2.9 8.78L21 20.63l2.31 7.68-8.46-3.5zm-4.29 13l3.65-11 8.36 3.46z" fill="#231f20"/></symbol><symbol viewBox="0 0 200 200" id="i--Mobile-Number-Black"><title>Mobile-Number-Black</title><g fill="none"><path d="m95.8 91.7h8.6v8.6h-8.6z"/><path d="m71 130.7 57.8.1.2-70.9-57.8-.1zm12.1-39c-1.6 0-3-1.3-3-3s1.3-3 3-3h6.8v-6.5c0-1.6 1.3-3 3-3s3 1.3 3 3v6.5h8.6v-6.5c0-1.6 1.3-3 3-3s3 1.3 3 3v6.5h6.5c1.6 0 3 1.3 3 3s-1.3 3-3 3h-6.5v8.6h6.5c1.6 0 3 1.3 3 3s-1.3 3-3 3h-6.5v6.8c0 1.6-1.3 3-3 3s-3-1.3-3-3v-6.8h-8.6v6.8c0 1.6-1.3 3-3 3s-3-1.3-3-3v-6.8h-6.8c-1.6 0-3-1.3-3-3s1.3-3 3-3h6.8v-8.6z"/><path d="m71 150c0 1.8.7 3.5 2 4.8s3 2 4.8 2l44.2.1c1.8 0 3.5-.7 4.8-2s2-3 2-4.8v-13.4l-57.8-.1zm28.9-8.5c2.6 0 4.7 2.1 4.7 4.7s-2.1 4.7-4.7 4.7-4.7-2.1-4.7-4.7 2.1-4.7 4.7-4.7z"/><path d="m122.2 43.2-44.2-.1c-1.8 0-3.5.7-4.8 2s-2 3-2 4.8v4l57.8.1v-4c0-1.8-.7-3.5-2-4.8s-3-2-4.8-2z"/></g><path d="m83.1 100.3c-1.6 0-3 1.3-3 3s1.3 3 3 3h6.8v6.8c0 1.6 1.3 3 3 3s3-1.3 3-3v-6.8h8.6v6.8c0 1.6 1.3 3 3 3s3-1.3 3-3v-6.8h6.5c1.6 0 3-1.3 3-3s-1.3-3-3-3h-6.5v-8.6h6.5c1.6 0 3-1.3 3-3s-1.3-3-3-3h-6.5v-6.5c0-1.6-1.3-3-3-3s-3 1.3-3 3v6.5h-8.6v-6.5c0-1.6-1.3-3-3-3s-3 1.3-3 3v6.5h-6.8c-1.6 0-3 1.3-3 3s1.3 3 3 3h6.8v8.6zm12.7-8.6h8.6v8.6h-8.6z" fill="#231f20"/><path d="m131.2 41c-2.4-2.4-5.6-3.7-9-3.8h-44.2c-3.4 0-6.6 1.3-9 3.7s-3.7 5.6-3.8 9v6.8.2.2l-.2 93c0 3.4 1.3 6.6 3.7 9s5.6 3.7 9 3.8l44.2.1c3.4 0 6.6-1.3 9-3.7s3.7-5.6 3.8-9l.2-100.3c0-3.4-1.3-6.6-3.7-9zm-2.4 109.1c0 1.8-.7 3.5-2 4.8s-3 2-4.8 2l-44.2-.1c-1.8 0-3.5-.7-4.8-2s-2-3-2-4.8v-13.4l57.8.1zm0-19.3-57.8-.1.2-70.9 57.8.1zm.2-76.8-57.8-.1v-4c0-1.8.7-3.5 2-4.8s3-2 4.8-2l44.2.1c1.8 0 3.5.7 4.8 2s2 3 2 4.8z" fill="#231f20"/><path d="m99.9 150.8c2.6 0 4.7-2.1 4.7-4.7s-2.1-4.7-4.7-4.7-4.7 2.1-4.7 4.7 2.1 4.7 4.7 4.7z" fill="#231f20"/></symbol><symbol viewBox="0 0 52 52" id="i--Mobile-Number-Colors-Alt"><title>Mobile-Number-Colors-Alt</title><path d="M30.8 26.5h-1.9v-2.6h1.9c.4 0 .8-.4.8-.8s-.4-.8-.8-.8h-1.9v-1.9c0-.4-.4-.8-.8-.8s-.8.4-.8.8v1.9h-2.6v-1.9c0-.4-.4-.8-.8-.8s-.9.3-.9.7v1.9h-2c-.4 0-.8.4-.8.8s.4.8.8.8h2v2.6h-2c-.4 0-.8.4-.8.8s.4.8.8.8h2v2c0 .4.4.8.8.8s.8-.4.8-.8v-2h2.6v2c0 .4.4.8.8.8s.8-.4.8-.8v-2h1.9c.4 0 .8-.4.8-.8s-.3-.7-.7-.7zm-6.2 0v-2.6h2.6v2.6h-2.6z"/><path d="M33.1 5.5H18.6c-1.8 0-3.2 1.4-3.2 3.2v30.9c0 1.8 1.4 3.2 3.2 3.2h14.5c1.8 0 3.2-1.4 3.2-3.2V8.7c0-1.7-1.4-3.2-3.2-3.2zM24.8 39c0-.6.5-1.1 1.1-1.1s1.1.5 1.1 1.1c0 .6-.5 1.1-1.1 1.1s-1.1-.6-1.1-1.1zm9.5-3.9H17.5V14.3h16.9v20.8zM17.5 12.3V8.7c0-.6.5-1.2 1.2-1.2h14.5c.6 0 1.2.5 1.2 1.2v3.6H17.5z" fill="#E31B23"/></symbol><symbol viewBox="0 0 52 52" id="i--Mobile-Plus-Colors-Alt"><title>Mobile-Plus-Colors-Alt</title><path d="M30 23.5h-3.5V20c0-.6-.4-1-1-1s-1 .4-1 1v3.5H21c-.6 0-1 .4-1 1s.4 1 1 1h3.5V29c0 .6.4 1 1 1s1-.4 1-1v-3.5H30c.6 0 1-.4 1-1s-.5-1-1-1z" fill="#E31B23"/><path d="M32.7 5.8H18.2C16.4 5.8 15 7.2 15 9v31c0 1.8 1.4 3.2 3.2 3.2h14.5c1.8 0 3.2-1.4 3.2-3.2V9c0-1.7-1.4-3.2-3.2-3.2zm-8.3 33.5c0-.6.5-1.1 1.1-1.1s1.1.5 1.1 1.1c0 .6-.5 1.1-1.1 1.1s-1.1-.6-1.1-1.1zm9.5-3.9H17.1V14.6H34v20.8zM17.1 12.6V9c0-.6.5-1.2 1.2-1.2h14.5c.6 0 1.2.5 1.2 1.2v3.6H17.1z"/></symbol><symbol viewBox="0 0 200 200" id="i--Mobile-Question-Colors"><title>Mobile-Question-Colors</title><g fill="none"><path d="m71 130.7 57.8.1.2-70.9-57.8-.1zm31.4-14c-.7.7-1.6 1-2.5 1-1 0-1.9-.3-2.6-1-.7-.6-1.1-1.5-1.1-2.7 0-1 .4-1.9 1.1-2.6s1.6-1.1 2.6-1.1 1.9.4 2.6 1.1 1.1 1.6 1.1 2.6c-.1 1.2-.4 2-1.2 2.7zm-2.5-43.7c6.7 0 12.1 5.4 12.1 12.1 0 7.1-3.4 10.3-6 12.6-2.2 2-3.2 3.1-3.2 5.7 0 1.6-1.3 3-3 3s-3-1.3-3-3c0-5.3 2.8-7.9 5.1-10s4.1-3.8 4.1-8.3c0-3.4-2.8-6.2-6.2-6.2s-6.2 2.8-6.2 6.2c0 1.6-1.3 3-3 3s-3-1.3-3-3c.1-6.6 5.6-12.1 12.3-12.1z"/><path d="m71 150c0 1.8.7 3.5 2 4.8s3 2 4.8 2l44.2.1c1.8 0 3.5-.7 4.8-2s2-3 2-4.8v-13.4l-57.8-.1zm28.9-8.5c2.6 0 4.7 2.1 4.7 4.7s-2.1 4.7-4.7 4.7-4.7-2.1-4.7-4.7 2.1-4.7 4.7-4.7z"/><path d="m122.2 43.2-44.2-.1c-1.8 0-3.5.7-4.8 2s-2 3-2 4.8v4l57.8.1v-4c0-1.8-.7-3.5-2-4.8s-3-2-4.8-2z"/></g><path d="m99.9 110.4c-1 0-1.9.4-2.6 1.1s-1.1 1.6-1.1 2.6c0 1.2.4 2.1 1.1 2.7s1.6 1 2.6 1 1.8-.3 2.5-1 1.1-1.5 1.1-2.7c0-1-.4-1.9-1.1-2.6-.6-.8-1.5-1.1-2.5-1.1z"/><path d="m90.7 88.1c1.6 0 3-1.3 3-3 0-3.4 2.8-6.2 6.2-6.2s6.2 2.8 6.2 6.2c0 4.5-1.8 6.2-4.1 8.3s-5.1 4.8-5.1 10c0 1.6 1.3 3 3 3s3-1.3 3-3c0-2.6 1-3.7 3.2-5.7 2.5-2.3 6-5.6 6-12.6 0-6.7-5.4-12.1-12.1-12.1s-12.1 5.4-12.1 12.1c-.2 1.7 1.2 3 2.8 3z" fill="#231f20"/><path d="m131.2 41c-2.4-2.4-5.6-3.7-9-3.8h-44.2c-3.4 0-6.6 1.3-9 3.7s-3.7 5.6-3.8 9v6.8.2.2l-.2 93c0 3.4 1.3 6.6 3.7 9s5.6 3.7 9 3.8l44.2.1c3.4 0 6.6-1.3 9-3.7s3.7-5.6 3.8-9l.2-100.3c0-3.4-1.3-6.6-3.7-9zm-2.4 109.1c0 1.8-.7 3.5-2 4.8s-3 2-4.8 2l-44.2-.1c-1.8 0-3.5-.7-4.8-2s-2-3-2-4.8v-13.4l57.8.1zm0-19.3-57.8-.1.2-70.9 57.8.1zm.2-76.8-57.8-.1v-4c0-1.8.7-3.5 2-4.8s3-2 4.8-2l44.2.1c1.8 0 3.5.7 4.8 2s2 3 2 4.8z" fill="#e31b23"/><path d="m99.9 150.8c2.6 0 4.7-2.1 4.7-4.7s-2.1-4.7-4.7-4.7-4.7 2.1-4.7 4.7 2.1 4.7 4.7 4.7z" fill="#e31b23"/></symbol><symbol viewBox="0 0 200 200" id="i--Mobile-Red"><title>Mobile-Red</title><g fill="#e31b23"><path d="m131.2 41c-2.4-2.4-5.6-3.7-9-3.8h-44.2c-3.4 0-6.6 1.3-9 3.7s-3.7 5.6-3.8 9v6.8.2.2l-.2 93c0 3.4 1.3 6.6 3.7 9s5.6 3.7 9 3.8l44.2.1c3.4 0 6.6-1.3 9-3.7s3.7-5.6 3.8-9l.2-100.3c0-3.4-1.3-6.6-3.7-9zm-60 18.8 57.8.1-.2 70.9-57.8-.1zm2-14.7c1.3-1.3 3-2 4.8-2l44.2.1c1.8 0 3.5.7 4.8 2s2 3 2 4.8v4l-57.8-.1v-4c0-1.8.7-3.6 2-4.8zm53.6 109.8c-1.3 1.3-3 2-4.8 2l-44.2-.1c-1.8 0-3.5-.7-4.8-2s-2-3-2-4.8v-13.4l57.8.1v13.4c0 1.8-.7 3.6-2 4.8z"/><path d="m99.9 141.5c-2.6 0-4.7 2.1-4.7 4.7s2.1 4.7 4.7 4.7 4.7-2.1 4.7-4.7-2.1-4.7-4.7-4.7z"/></g></symbol><symbol viewBox="0 0 200 200" id="i--Mobile-TopUp-Colors"><title>Mobile-TopUp-Colors</title><g fill="none"><path d="m71 130.7 57.8.1.2-70.9-57.8-.1zm15.4-38.1 10.8-13c.4-.5 1-.9 1.6-1.1.4-.2.8-.3 1.3-.3.4 0 .9.1 1.3.3.6.2 1.2.6 1.6 1.1l10.8 13c1 1.3.9 3.1-.4 4.2-.6.5-1.2.7-1.9.7-.9 0-1.7-.4-2.3-1.1l-6.2-7.4v22.8c0 1.6-1.3 3-3 3s-3-1.3-3-3v-22.8l-6.1 7.4c-1 1.3-2.9 1.4-4.2.4-1.2-1.1-1.4-2.9-.3-4.2z"/><path d="m71 150c0 1.8.7 3.5 2 4.8s3 2 4.8 2l44.2.1c1.8 0 3.5-.7 4.8-2s2-3 2-4.8v-13.4l-57.8-.1zm28.9-8.5c2.6 0 4.7 2.1 4.7 4.7s-2.1 4.7-4.7 4.7-4.7-2.1-4.7-4.7 2.1-4.7 4.7-4.7z"/><path d="m122.2 43.2-44.2-.1c-1.8 0-3.5.7-4.8 2s-2 3-2 4.8v4l57.8.1v-4c0-1.8-.7-3.5-2-4.8s-3-2-4.8-2z"/></g><path d="m90.9 96.4 6.1-7.4v22.8c0 1.6 1.3 3 3 3s3-1.3 3-3v-22.8l6.1 7.4c.6.7 1.4 1.1 2.3 1.1.7 0 1.3-.2 1.9-.7 1.3-1 1.4-2.9.4-4.2l-10.8-13c-.4-.5-1-.9-1.6-1.1-.4-.2-.8-.3-1.3-.3s-.9.1-1.3.3c-.6.2-1.2.6-1.6 1.1l-10.8 13c-1 1.3-.9 3.1.4 4.2 1.3 1 3.2.8 4.2-.4z" fill="#231f20"/><path d="m131.2 41c-2.4-2.4-5.6-3.7-9-3.8h-44.2c-3.4 0-6.6 1.3-9 3.7s-3.7 5.6-3.8 9v6.8.2.2l-.2 93c0 3.4 1.3 6.6 3.7 9s5.6 3.7 9 3.8l44.2.1c3.4 0 6.6-1.3 9-3.7s3.7-5.6 3.8-9l.2-100.3c0-3.4-1.3-6.6-3.7-9zm-2.4 109.1c0 1.8-.7 3.5-2 4.8s-3 2-4.8 2l-44.2-.1c-1.8 0-3.5-.7-4.8-2s-2-3-2-4.8v-13.4l57.8.1zm0-19.3-57.8-.1.2-70.9 57.8.1zm.2-76.8-57.8-.1v-4c0-1.8.7-3.5 2-4.8s3-2 4.8-2l44.2.1c1.8 0 3.5.7 4.8 2s2 3 2 4.8z" fill="#e31b23"/><path d="m99.9 150.8c2.6 0 4.7-2.1 4.7-4.7s-2.1-4.7-4.7-4.7-4.7 2.1-4.7 4.7 2.1 4.7 4.7 4.7z" fill="#e31b23"/></symbol><symbol viewBox="0 0 200 200" id="i--Mobile-Unlocked-Black"><title>Mobile-Unlocked-Black</title><g fill="none"><path d="m85.9 96.7h19.4v15.1h-19.4z"/><path d="m71 150c0 1.8.7 3.5 2 4.8s3 2 4.8 2l44.2.1c1.8 0 3.5-.7 4.8-2s2-3 2-4.8v-13.4l-57.8-.1zm28.9-8.5c2.6 0 4.7 2.1 4.7 4.7s-2.1 4.7-4.7 4.7-4.7-2.1-4.7-4.7 2.1-4.7 4.7-4.7z"/><path d="m71 130.7 57.8.1.2-70.9-57.8-.1zm9-37c0-1.6 1.3-3 3-3h19v-6.4c0-5.8 4.7-10.4 10.4-10.4s10.4 4.7 10.4 10.4v6.5c0 1.6-1.3 3-3 3s-3-1.3-3-3v-6.5c0-2.5-2-4.5-4.5-4.5s-4.5 2-4.5 4.5v6.4h.4c1.6 0 3 1.3 3 3v21c0 1.6-1.3 3-3 3h-25.2c-1.6 0-3-1.3-3-3z"/><path d="m122.2 43.2-44.2-.1c-1.8 0-3.5.7-4.8 2s-2 3-2 4.8v4l57.8.1v-4c0-1.8-.7-3.5-2-4.8s-3-2-4.8-2z"/></g><path d="m83 117.7h25.3c1.6 0 3-1.3 3-3v-21c0-1.6-1.3-3-3-3h-.4v-6.4c0-2.5 2-4.5 4.5-4.5s4.5 2 4.5 4.5v6.5c0 1.6 1.3 3 3 3s3-1.3 3-3v-6.5c0-5.8-4.7-10.4-10.4-10.4s-10.4 4.7-10.4 10.4v6.4h-19.1c-1.6 0-3 1.3-3 3v21c0 1.6 1.3 3 3 3zm2.9-21h19.4v15.1h-19.4z" fill="#231f20"/><path d="m131.2 41c-2.4-2.4-5.6-3.7-9-3.8h-44.2c-3.4 0-6.6 1.3-9 3.7s-3.7 5.6-3.8 9v6.8.2.2l-.2 93c0 3.4 1.3 6.6 3.7 9s5.6 3.7 9 3.8l44.2.1c3.4 0 6.6-1.3 9-3.7s3.7-5.6 3.8-9l.2-100.3c0-3.4-1.3-6.6-3.7-9zm-2.4 109.1c0 1.8-.7 3.5-2 4.8s-3 2-4.8 2l-44.2-.1c-1.8 0-3.5-.7-4.8-2s-2-3-2-4.8v-13.4l57.8.1zm0-19.3-57.8-.1.2-70.9 57.8.1zm.2-76.8-57.8-.1v-4c0-1.8.7-3.5 2-4.8s3-2 4.8-2l44.2.1c1.8 0 3.5.7 4.8 2s2 3 2 4.8z" fill="#231f20"/><path d="m99.9 150.8c2.6 0 4.7-2.1 4.7-4.7s-2.1-4.7-4.7-4.7-4.7 2.1-4.7 4.7 2.1 4.7 4.7 4.7z" fill="#231f20"/></symbol><symbol viewBox="0 0 200 200" id="i--Mobile-X-Black"><title>Mobile-X-Black</title><g fill="none"><path d="m71 130.7 57.8.1.2-70.9-57.8-.1zm15.9-45.9c-1.1-1.2-1.1-3 .1-4.2 1.2-1.1 3-1.1 4.2.1l8.9 9.2 9.2-8.9c1.2-1.1 3-1.1 4.2.1 1.1 1.2 1.1 3-.1 4.2l-9.2 8.9 8.9 9.2c1.1 1.2 1.1 3-.1 4.2-.6.6-1.3.8-2 .8-.8 0-1.5-.3-2.1-.9l-8.9-9.2-9.2 8.9c-.6.6-1.3.8-2 .8-.8 0-1.5-.3-2.1-.9-1.1-1.2-1.1-3 .1-4.2l9.2-8.9z"/><path d="m71 150c0 1.8.7 3.5 2 4.8s3 2 4.8 2l44.2.1c1.8 0 3.5-.7 4.8-2s2-3 2-4.8v-13.4l-57.8-.1zm28.9-8.5c2.6 0 4.7 2.1 4.7 4.7s-2.1 4.7-4.7 4.7-4.7-2.1-4.7-4.7 2.1-4.7 4.7-4.7z"/><path d="m122.2 43.2-44.2-.1c-1.8 0-3.5.7-4.8 2s-2 3-2 4.8v4l57.8.1v-4c0-1.8-.7-3.5-2-4.8s-3-2-4.8-2z"/></g><path d="m86.5 107.1c.6.6 1.4.9 2.1.9s1.5-.3 2-.8l9.2-8.9 8.9 9.2c.6.6 1.4.9 2.1.9s1.5-.3 2-.8c1.2-1.1 1.2-3 .1-4.2l-8.9-9.2 9.2-8.9c1.2-1.1 1.2-3 .1-4.2s-3-1.2-4.2-.1l-9.2 8.9-8.9-9.2c-1.1-1.2-3-1.2-4.2-.1s-1.2 3-.1 4.2l8.9 9.2-9.2 8.9c-1 1.1-1.1 3 .1 4.2z" fill="#231f20"/><path d="m131.2 41c-2.4-2.4-5.6-3.7-9-3.8h-44.2c-3.4 0-6.6 1.3-9 3.7s-3.7 5.6-3.8 9v6.8.2.2l-.2 93c0 3.4 1.3 6.6 3.7 9s5.6 3.7 9 3.8l44.2.1c3.4 0 6.6-1.3 9-3.7s3.7-5.6 3.8-9l.2-100.3c0-3.4-1.3-6.6-3.7-9zm-2.4 109.1c0 1.8-.7 3.5-2 4.8s-3 2-4.8 2l-44.2-.1c-1.8 0-3.5-.7-4.8-2s-2-3-2-4.8v-13.4l57.8.1zm0-19.3-57.8-.1.2-70.9 57.8.1zm.2-76.8-57.8-.1v-4c0-1.8.7-3.5 2-4.8s3-2 4.8-2l44.2.1c1.8 0 3.5.7 4.8 2s2 3 2 4.8z" fill="#231f20"/><path d="m99.9 150.8c2.6 0 4.7-2.1 4.7-4.7s-2.1-4.7-4.7-4.7-4.7 2.1-4.7 4.7 2.1 4.7 4.7 4.7z" fill="#231f20"/></symbol><symbol viewBox="0 0 52 52" id="i--Mobile-X-Colors-Alt"><title>Mobile-X-Colors-Alt</title><path d="M30.5 26.8L28 24.3l2.5-2.5c.4-.4.4-1 0-1.4s-1-.4-1.4 0l-2.5 2.5-2.5-2.5c-.4-.4-1-.4-1.4 0s-.4 1 0 1.4l2.5 2.5-2.5 2.5c-.4.4-.4 1 0 1.4.2.2.5.3.7.3s.5-.1.7-.3l2.5-2.5 2.5 2.5c.2.2.5.3.7.3s.5-.1.7-.3c.4-.4.4-1 0-1.4z"/><path d="M33.8 5.6H19.4c-1.8 0-3.2 1.4-3.2 3.2v30.9c0 1.8 1.4 3.2 3.2 3.2h14.5c1.8 0 3.2-1.4 3.2-3.2V8.8C37 7 35.6 5.6 33.8 5.6zM25.5 39c0-.6.5-1.1 1.1-1.1s1.1.5 1.1 1.1c0 .6-.5 1.1-1.1 1.1s-1.1-.5-1.1-1.1zm9.5-3.9H18.2V14.4H35v20.7zM18.2 12.4V8.8c0-.6.5-1.2 1.2-1.2h14.5c.6 0 1.2.5 1.2 1.2v3.6H18.2z" fill="#E31B23"/></symbol><symbol viewBox="0 0 200 200" id="i--Mobiles-x2-Colors-A"><title>Mobiles-x2-Colors-A</title><g fill="none"><path d="m147 139.9c1.8 0 3.5-.7 4.8-2s2-3 2-4.8v-13.4h-19.1v-5.4l-.1 25.6z"/><path d="m71 150c0 1.8.7 3.5 2 4.8s3 2 4.8 2l44.2.1c1.8 0 3.5-.7 4.8-2s2-3 2-4.8v-13.4l-57.8-.1zm28.9-8.5c2.6 0 4.7 2.1 4.7 4.7s-2.1 4.7-4.7 4.7-4.7-2.1-4.7-4.7 2.1-4.7 4.7-4.7z"/><path d="m134.8 113.8h19.1l.2-70.9h-21.3c1.4 2.1 2.2 4.6 2.2 7.1z"/><path d="m131.2 41c.3.3.6.6.8.9-.2-.3-.5-.6-.8-.9z"/><path d="m147.2 26.2-44.2-.1c-1.8 0-3.5.7-4.8 2s-2 3-2 4.8v4l57.8.1v-4c0-1.8-.7-3.5-2-4.8s-3-2-4.8-2z"/><path d="m71 130.7 57.8.1.2-70.9-57.8-.1z"/><path d="m122.2 43.2-44.2-.1c-1.8 0-3.5.7-4.8 2s-2 3-2 4.8v4l57.8.1v-4c0-1.8-.7-3.5-2-4.8s-3-2-4.8-2z"/></g><path d="m134.7 139.9.1-25.6v-.5l.1-63.8c0-2.6-.8-5-2.2-7.1-.2-.3-.5-.6-.7-.9-.3-.3-.5-.6-.8-.9-2.4-2.4-5.6-3.7-9-3.8l-32-.1h-12.3c-3.4 0-6.6 1.3-9 3.7s-3.7 5.6-3.8 9v6.8.2.2l-.2 93c0 3.4 1.3 6.6 3.7 9s5.6 3.7 9 3.8l44.2.1c3.4 0 6.6-1.3 9-3.7s3.7-5.6 3.8-9v-4.3zm-5.9 10.2c0 1.8-.7 3.5-2 4.8s-3 2-4.8 2l-44.2-.1c-1.8 0-3.5-.7-4.8-2s-2-3-2-4.8v-13.4l57.8.1zm0-19.3-57.8-.1.2-70.9 57.8.1zm.2-76.8-57.8-.1v-4c0-1.8.7-3.5 2-4.8s3-2 4.8-2l44.2.1c1.8 0 3.5.7 4.8 2s2 3 2 4.8z" fill="#e31b23"/><path d="m99.9 150.8c2.6 0 4.7-2.1 4.7-4.7s-2.1-4.7-4.7-4.7-4.7 2.1-4.7 4.7 2.1 4.7 4.7 4.7z" fill="#e31b23"/><path d="m156.2 24c-2.4-2.4-5.6-3.7-9-3.8h-44.2c-3.4 0-6.6 1.3-9 3.7s-3.7 5.6-3.8 9v4.3l32 .1c3.4 0 6.6 1.3 9 3.8.3.3.6.6.8.9.3.3.5.6.7.9h21.3l-.2 70.9h-19.1v.5 5.4h19.1v13.4c0 1.8-.7 3.5-2 4.8s-3 2-4.8 2h-12.3v5.9h12.3c3.4 0 6.6-1.3 9-3.7s3.7-5.6 3.8-9l.1-100.1c0-3.4-1.3-6.6-3.7-9zm-2.2 13-57.8-.1v-4c0-1.8.7-3.5 2-4.8s3-2 4.8-2l44.2.1c1.8 0 3.5.7 4.8 2s2 3 2 4.8z" fill="#231f20"/></symbol><symbol viewBox="0 0 52 52" id="i--Mobiles-x2-Colors-Alt"><title>Mobiles-x2-Colors-Alt</title><path d="M29.6 11.3H15.2c-1.7 0-3.2 1.4-3.2 3.2V45.2c0 1.7 1.4 3.2 3.2 3.2h14.4c1.7 0 3.2-1.4 3.2-3.2V14.6c0-1.8-1.4-3.3-3.2-3.3zm-8.2 33.3c0-.6.5-1.1 1.1-1.1.6 0 1.1.5 1.1 1.1 0 .6-.5 1.1-1.1 1.1-.7 0-1.1-.5-1.1-1.1zm9.3-3.9H14.2V20.2h16.5v20.5zM14.2 18.1v-3.5c0-.6.5-1.1 1.1-1.1h14.4c.6 0 1.1.5 1.1 1.1v3.5H14.2z" fill="#E31B23"/><path d="M38.3 4.8H23.9c-1.7 0-3.2 1.4-3.2 3.2v3.4h2.1V7.9c0-.6.5-1.1 1.1-1.1h14.4c.6 0 1.1.5 1.1 1.1v3.5h-8.9c1 .3 1.9 1.1 2.2 2.1h6.7v20.6h-6.5v7.8h5.4c1.7 0 3.2-1.4 3.2-3.2V7.9c-.1-1.7-1.5-3.1-3.2-3.1z"/></symbol><symbol viewBox="0 0 200 200" id="i--Mobiles-x2-Colors-B"><title>Mobiles-x2-Colors-B</title><g fill="none"><path d="m71 150c0 1.8.7 3.5 2 4.8s3 2 4.8 2l44.2.1c1.8 0 3.5-.7 4.8-2s2-3 2-4.8v-13.4l-57.8-.1zm28.9-8.5c2.6 0 4.7 2.1 4.7 4.7s-2.1 4.7-4.7 4.7-4.7-2.1-4.7-4.7 2.1-4.7 4.7-4.7z"/><path d="m134.8 113.8h19.1l.2-70.9h-21.3c1.4 2.1 2.2 4.6 2.2 7.1z"/><path d="m131.2 41c.3.3.6.6.8.9-.2-.3-.5-.6-.8-.9z"/><path d="m147 139.9c1.8 0 3.5-.7 4.8-2s2-3 2-4.8v-13.4h-19.1v-5.4l-.1 25.6z"/><path d="m122.2 43.2-44.2-.1c-1.8 0-3.5.7-4.8 2s-2 3-2 4.8v4l57.8.1v-4c0-1.8-.7-3.5-2-4.8s-3-2-4.8-2z"/><path d="m147.2 26.2-44.2-.1c-1.8 0-3.5.7-4.8 2s-2 3-2 4.8v4l57.8.1v-4c0-1.8-.7-3.5-2-4.8s-3-2-4.8-2z"/><path d="m71 130.7 57.8.1.2-70.9-57.8-.1z"/></g><path d="m134.7 139.9.1-25.6v-.5l.1-63.8c0-2.6-.8-5-2.2-7.1-.2-.3-.5-.6-.7-.9-.3-.3-.5-.6-.8-.9-2.4-2.4-5.6-3.7-9-3.8l-32-.1h-12.3c-3.4 0-6.6 1.3-9 3.7s-3.7 5.6-3.8 9v6.8.2.2l-.2 93c0 3.4 1.3 6.6 3.7 9s5.6 3.7 9 3.8l44.2.1c3.4 0 6.6-1.3 9-3.7s3.7-5.6 3.8-9v-4.3zm-5.9 10.2c0 1.8-.7 3.5-2 4.8s-3 2-4.8 2l-44.2-.1c-1.8 0-3.5-.7-4.8-2s-2-3-2-4.8v-13.4l57.8.1zm0-19.3-57.8-.1.2-70.9 57.8.1zm.2-76.8-57.8-.1v-4c0-1.8.7-3.5 2-4.8s3-2 4.8-2l44.2.1c1.8 0 3.5.7 4.8 2s2 3 2 4.8z" fill="#231f20"/><path d="m99.9 150.8c2.6 0 4.7-2.1 4.7-4.7s-2.1-4.7-4.7-4.7-4.7 2.1-4.7 4.7 2.1 4.7 4.7 4.7z" fill="#231f20"/><path d="m156.2 24c-2.4-2.4-5.6-3.7-9-3.8h-44.2c-3.4 0-6.6 1.3-9 3.7s-3.7 5.6-3.8 9v4.3l32 .1c3.4 0 6.6 1.3 9 3.8.3.3.6.6.8.9.3.3.5.6.7.9h21.3l-.2 70.9h-19.1v.5 5.4h19.1v13.4c0 1.8-.7 3.5-2 4.8s-3 2-4.8 2h-12.3v5.9h12.3c3.4 0 6.6-1.3 9-3.7s3.7-5.6 3.8-9l.1-100.1c0-3.4-1.3-6.6-3.7-9zm-2.2 13-57.8-.1v-4c0-1.8.7-3.5 2-4.8s3-2 4.8-2l44.2.1c1.8 0 3.5.7 4.8 2s2 3 2 4.8z" fill="#e31b23"/></symbol><symbol viewBox="0 0 200 200" id="i--Mobiles-x2-Number-Colors"><title>Mobiles-x2-Number-Colors</title><g fill="none"><path d="m71 150c0 1.8.7 3.5 2 4.8s3 2 4.8 2l44.2.1c1.8 0 3.5-.7 4.8-2s2-3 2-4.8v-13.4l-57.8-.1zm28.9-8.5c2.6 0 4.7 2.1 4.7 4.7s-2.1 4.7-4.7 4.7-4.7-2.1-4.7-4.7 2.1-4.7 4.7-4.7z"/><path d="m147 139.9c1.8 0 3.5-.7 4.8-2s2-3 2-4.8v-13.4h-19.1v-5.4l-.1 25.6z"/><path d="m134.8 113.8h19.1l.2-70.9h-21.3c1.4 2.1 2.2 4.6 2.2 7.1z"/><path d="m131.2 41c.3.3.6.6.8.9-.2-.3-.5-.6-.8-.9z"/><path d="m95.8 91.7h8.6v8.6h-8.6z"/><path d="m147.2 26.2-44.2-.1c-1.8 0-3.5.7-4.8 2s-2 3-2 4.8v4l57.8.1v-4c0-1.8-.7-3.5-2-4.8s-3-2-4.8-2z"/><path d="m122.2 43.2-44.2-.1c-1.8 0-3.5.7-4.8 2s-2 3-2 4.8v4l57.8.1v-4c0-1.8-.7-3.5-2-4.8s-3-2-4.8-2z"/><path d="m71 130.7 57.8.1.2-70.9-57.8-.1zm12.1-39c-1.6 0-3-1.3-3-3s1.3-3 3-3h6.8v-6.5c0-1.6 1.3-3 3-3s3 1.3 3 3v6.5h8.6v-6.5c0-1.6 1.3-3 3-3s3 1.3 3 3v6.5h6.5c1.6 0 3 1.3 3 3s-1.3 3-3 3h-6.5v8.6h6.5c1.6 0 3 1.3 3 3s-1.3 3-3 3h-6.5v6.8c0 1.6-1.3 3-3 3s-3-1.3-3-3v-6.8h-8.6v6.8c0 1.6-1.3 3-3 3s-3-1.3-3-3v-6.8h-6.8c-1.6 0-3-1.3-3-3s1.3-3 3-3h6.8v-8.6z"/></g><path d="m83.1 100.3c-1.6 0-3 1.3-3 3s1.3 3 3 3h6.8v6.8c0 1.6 1.3 3 3 3s3-1.3 3-3v-6.8h8.6v6.8c0 1.6 1.3 3 3 3s3-1.3 3-3v-6.8h6.5c1.6 0 3-1.3 3-3s-1.3-3-3-3h-6.5v-8.6h6.5c1.6 0 3-1.3 3-3s-1.3-3-3-3h-6.5v-6.5c0-1.6-1.3-3-3-3s-3 1.3-3 3v6.5h-8.6v-6.5c0-1.6-1.3-3-3-3s-3 1.3-3 3v6.5h-6.8c-1.6 0-3 1.3-3 3s1.3 3 3 3h6.8v8.6zm12.7-8.6h8.6v8.6h-8.6z" fill="#231f20"/><path d="m134.7 139.9.1-25.6v-.5l.1-63.8c0-2.6-.8-5-2.2-7.1-.2-.3-.5-.6-.7-.9-.3-.3-.5-.6-.8-.9-2.4-2.4-5.6-3.7-9-3.8l-32-.1h-12.3c-3.4 0-6.6 1.3-9 3.7s-3.7 5.6-3.8 9v6.8.2.2l-.2 93c0 3.4 1.3 6.6 3.7 9s5.6 3.7 9 3.8l44.2.1c3.4 0 6.6-1.3 9-3.7s3.7-5.6 3.8-9v-4.3zm-5.9 10.2c0 1.8-.7 3.5-2 4.8s-3 2-4.8 2l-44.2-.1c-1.8 0-3.5-.7-4.8-2s-2-3-2-4.8v-13.4l57.8.1zm0-19.3-57.8-.1.2-70.9 57.8.1zm.2-76.8-57.8-.1v-4c0-1.8.7-3.5 2-4.8s3-2 4.8-2l44.2.1c1.8 0 3.5.7 4.8 2s2 3 2 4.8z" fill="#e31b23"/><path d="m99.9 150.8c2.6 0 4.7-2.1 4.7-4.7s-2.1-4.7-4.7-4.7-4.7 2.1-4.7 4.7 2.1 4.7 4.7 4.7z" fill="#e31b23"/><path d="m156.2 24c-2.4-2.4-5.6-3.7-9-3.8h-44.2c-3.4 0-6.6 1.3-9 3.7s-3.7 5.6-3.8 9v4.3l32 .1c3.4 0 6.6 1.3 9 3.8.3.3.6.6.8.9.3.3.5.6.7.9h21.3l-.2 70.9h-19.1v.5 5.4h19.1v13.4c0 1.8-.7 3.5-2 4.8s-3 2-4.8 2h-12.3v5.9h12.3c3.4 0 6.6-1.3 9-3.7s3.7-5.6 3.8-9l.1-100.1c0-3.4-1.3-6.6-3.7-9zm-2.2 13-57.8-.1v-4c0-1.8.7-3.5 2-4.8s3-2 4.8-2l44.2.1c1.8 0 3.5.7 4.8 2s2 3 2 4.8z" fill="#231f20"/></symbol><symbol viewBox="0 0 200 200" id="i--Mobiles-x3-Black"><title>Mobiles-x3-Black</title><g fill="none"><path d="m71 150c0 1.8.7 3.5 2 4.8s3 2 4.8 2l44.2.1c1.8 0 3.5-.7 4.8-2s2-3 2-4.8v-13.4l-57.8-.1zm28.9-8.5c2.6 0 4.7 2.1 4.7 4.7s-2.1 4.7-4.7 4.7-4.7-2.1-4.7-4.7 2.1-4.7 4.7-4.7z"/><path d="m36.4 127.4c0 .9.3 1.7 1 2.3.6.6 1.5 1 2.3 1h25.3v-14.7h-28.7zm17.6-7.4c1.7 0 3 1.3 3 3s-1.3 3-3 3-3-1.3-3-3c0-1.6 1.3-3 3-3z"/><path d="m36.4 110.2h28.8v-36.9h-28.8z"/><path d="m122.2 43.2-44.2-.1c-1.8 0-3.5.7-4.8 2s-2 3-2 4.8v4l57.8.1v-4c0-1.8-.7-3.5-2-4.8s-3-2-4.8-2z"/><path d="m39.8 59.7c-.9 0-1.7.3-2.3 1-.6.6-1 1.5-1 2.3v4.4h28.8v-7.7z"/><path d="m71 130.7 57.8.1.2-70.9-57.8-.1z"/><path d="m134.8 115.9v14.7l25.5-.1c.9 0 1.7-.4 2.3-1s1-1.5 1-2.3l-.1-11.4zm11.2 9.9c-1.7 0-3-1.3-3-3s1.3-3 3-3 3 1.3 3 3c0 1.6-1.3 3-3 3z"/><path d="m134.8 110 28.7-.2-.2-36.8-28.4.1z"/><path d="m163.3 67v-4.4c0-1.8-1.5-3.3-3.3-3.3l-25 .1v7.7z"/></g><path d="m146 119.8c-1.7 0-3 1.4-3 3 0 1.7 1.4 3 3 3 1.7 0 3-1.4 3-3 0-1.7-1.3-3-3-3z" fill="#231f20"/><path d="m54 126c1.7 0 3-1.3 3-3s-1.4-3-3-3c-1.7 0-3 1.3-3 3s1.3 3 3 3z" fill="#231f20"/><path d="m99.9 150.8c2.6 0 4.7-2.1 4.7-4.7s-2.1-4.7-4.7-4.7-4.7 2.1-4.7 4.7 2.1 4.7 4.7 4.7z" fill="#231f20"/><path d="m169.2 70v-7.4c0-5.1-4.2-9.2-9.2-9.2l-25 .1v-3.6c0-3.4-1.3-6.6-3.7-9s-5.6-3.7-9-3.8l-44.3.1c-3.4 0-6.6 1.3-9 3.7s-3.7 5.6-3.8 9v5.4-1.5h-25.5c-2.5 0-4.8 1-6.5 2.7s-2.7 4.1-2.7 6.5v7.3s0 0 0 0v57.1c0 5.1 4.1 9.2 9.2 9.2h25.3v13.3c0 3.4 1.3 6.6 3.7 9s5.6 3.7 9 3.8l44.2.1c3.4 0 6.6-1.3 9-3.7s3.7-5.6 3.8-9v-13.7l25.6-.1c2.5 0 4.8-1 6.5-2.7 1.7-1.8 2.7-4.1 2.7-6.5zm-104.1 60.8h-25.3c-.9 0-1.7-.3-2.3-1-.6-.6-1-1.5-1-2.3v-11.4h28.7zm.1-20.6h-28.7v-36.9h28.8zm-28.8-42.8v-4.4c0-.9.3-1.7 1-2.3.6-.6 1.5-1 2.3-1h25.5v7.7zm92.4 82.7c0 1.8-.7 3.5-2 4.8s-3 2-4.8 2l-44.2-.1c-1.8 0-3.5-.7-4.8-2s-2-3-2-4.8v-13.4l57.8.1zm0-19.3-57.8-.1.2-70.9 57.8.1zm.2-76.8-57.8-.1v-4c0-1.8.7-3.5 2-4.8s3-2 4.8-2l44.2.1c1.8 0 3.5.7 4.8 2s2 3 2 4.8zm34.5 55.8-28.7.1.1-36.9 28.4-.1zm-3.6-50.4c1.8 0 3.3 1.5 3.3 3.3v4.4l-28.4.1v-7.7zm2.7 70.1c-.6.6-1.5 1-2.3 1l-25.5.1v-14.7l28.7-.1.1 11.4c0 .8-.4 1.6-1 2.3z" fill="#231f20"/></symbol><symbol viewBox="0 0 52 52" id="i--Money-Black"><title>Money-Black</title><path d="m25.3 43.8c-10 0-18-8.1-18-18s8.1-18 18-18 18 8.1 18 18-8.1 18-18 18zm0-34c-8.8 0-16 7.2-16 16s7.2 16 16 16 16-7.2 16-16-7.2-16-16-16zm5.7 19.9c0-1.3-.7-3.8-4.9-5.5v-4.7c.7.3 1.3.8 1.4 1.6.2.7.8 1.1 1.5.9s1.1-.8.9-1.5c-.4-1.8-2-3.2-3.9-3.6v-1c0-.5-.4-.9-.9-.9s-.9.4-.9.9v1c-2.3.4-4 2.2-4 4.4 0 1.4.7 3.4 4 4.9v6c-1.2-.3-2.1-1.2-2.4-2.3-.1-.7-.8-1.1-1.5-.9s-1.1.8-.9 1.5c.5 2.3 2.5 4 4.8 4.3v.9c0 .5.4.9.9.9s.9-.4.9-.9v-.9c3.1-.4 5-2.3 5-5.1zm-8.1-8.4c0-.9.6-1.6 1.5-1.8v3.9c-.9-.5-1.5-1.2-1.5-2.1zm3.3 10.9v-5.2c1.5.8 2.4 1.8 2.4 2.8-.1 1.7-1.3 2.2-2.4 2.4z"/></symbol><symbol viewBox="0 0 52 52" id="i--Money-Colors-Alt"><title>Money-Colors-Alt</title><path d="m25.3 42.8c-10 0-18.1-8.1-18.1-18.1s8.1-18.1 18.1-18.1 18.1 8.1 18.1 18.1-8.1 18.1-18.1 18.1zm0-34c-8.8 0-15.9 7.2-15.9 15.9s7.1 15.9 15.9 15.9 15.9-7.1 15.9-15.9-7.2-15.9-15.9-15.9z" fill="#e31b23"/><path d="m31 28.8c0-1.3-.7-3.8-4.9-5.5v-4.7c.7.3 1.3.8 1.4 1.6.2.7.8 1.1 1.5.9s1.1-.8.9-1.5c-.4-1.8-2-3.2-3.9-3.6v-1c0-.5-.4-.9-.9-.9s-.9.4-.9.9v1c-2.3.4-4 2.2-4 4.4 0 1.4.7 3.4 4 4.9v6c-1.2-.3-2.1-1.2-2.4-2.3-.1-.7-.8-1.1-1.5-.9s-1.1.8-.9 1.5c.5 2.3 2.5 4 4.8 4.3v.9c0 .5.4.9.9.9s.9-.4.9-.9v-.9c3.1-.5 5-2.4 5-5.1zm-8.1-8.5c0-.9.6-1.6 1.5-1.8v3.9c-.9-.5-1.5-1.2-1.5-2.1zm3.3 10.9v-5.2c1.5.8 2.4 1.8 2.4 2.8-.1 1.7-1.3 2.2-2.4 2.4z"/></symbol><symbol viewBox="0 0 200 200" id="i--Money-Colors"><title>Money-Colors</title><path d="m100 45c-30.4 0-55 24.7-55 55 0 30.4 24.7 55 55 55 30.4 0 55-24.7 55-55 0-30.4-24.6-55-55-55zm2 80.6v4.1c0 1.6-1.3 3-3 3s-3-1.3-3-3v-4.5c-5.6-1.4-10.2-5.8-11.4-11.4-.4-1.6.6-3.2 2.2-3.5 1.6-.4 3.2.6 3.5 2.2 1 4.2 5.1 7.3 9.8 7.3 5.5 0 10-4.1 10-9.2 0-4.4-6.5-7.3-10.8-9.3l-.8-.4c-5.1-2.2-11.5-5.1-11.5-12 0-5.6 3.8-10.3 9.1-11.9v-4.5c0-1.6 1.3-3 3-3s3 1.3 3 3v4c5.4.7 9.9 4.6 11.1 9.8.4 1.6-.6 3.2-2.2 3.5-1.6.4-3.2-.6-3.5-2.2-.7-3.1-3.7-5.3-7.1-5.3-4 0-7.3 3-7.3 6.7 0 2.9 3 4.4 8 6.7l.8.4c5.3 2.4 14.3 6.5 14.3 14.6-.1 7.7-6.3 14-14.2 14.9z" fill="none"/><path d="m101.8 96-.8-.4c-5-2.3-8-3.8-8-6.7 0-3.7 3.3-6.7 7.3-6.7 3.4 0 6.4 2.2 7.1 5.3.4 1.6 1.9 2.6 3.5 2.2s2.6-1.9 2.2-3.5c-1.2-5.2-5.7-9-11.1-9.8v-4c0-1.6-1.3-3-3-3s-3 1.3-3 3v4.6c-5.3 1.7-9.1 6.4-9.1 11.9 0 6.9 6.4 9.8 11.5 12.1l.8.4c4.3 1.9 10.8 4.9 10.8 9.3 0 5.1-4.5 9.2-10 9.2-4.7 0-8.8-3.1-9.8-7.3-.4-1.6-1.9-2.6-3.5-2.2s-2.6 1.9-2.2 3.5c1.3 5.6 5.8 10 11.4 11.4v4.5c0 1.6 1.3 3 3 3s3-1.3 3-3v-4.1c7.9-.9 14.1-7.3 14.1-15 .1-8.3-8.9-12.3-14.2-14.7z" fill="#231f20"/><path d="m100 39c-33.6 0-61 27.3-61 61 0 33.6 27.3 61 61 61 33.6 0 61-27.3 61-61 0-33.6-27.4-61-61-61zm0 116c-30.4 0-55-24.7-55-55 0-30.4 24.7-55 55-55 30.4 0 55 24.7 55 55 0 30.4-24.6 55-55 55z" fill="#e31b23"/></symbol><symbol viewBox="0 0 24 24" id="i--Open-in-new-tab"><title>Open-in-new-tab</title><path d="M0 0h24v24H0z" fill="none"/><path d="M19 19H5V5h7V3H5a2 2 0 0 0-2 2v14a2 2 0 0 0 2 2h14c1.1 0 2-.9 2-2v-7h-2v7zM14 3v2h3.59l-9.83 9.83 1.41 1.41L19 6.41V10h2V3h-7z"/></symbol><symbol viewBox="0 0 1024 1024" id="i--OS-Android"><title>OS-Android</title><path fill="#a4c639" d="M944.896 393.685c0-34.773-28.075-63.061-62.976-63.061s-63.147 28.16-63.147 63.147v264.107c0 34.56 28.288 63.147 63.275 63.147 34.731 0 62.976-28.587 62.976-63.147V393.345h-.427zm-714.795-50.986l.171 409.6c0 37.76 30.037 67.84 67.115 67.84h45.355v139.947c0 34.987 28.16 63.232 62.72 63.232s62.592-28.16 63.147-62.635V820.736h85.035v139.947c0 35.115 28.16 63.275 62.72 63.275 35.115 0 63.232-28.16 63.232-63.573V820.438h45.995c37.12 0 67.115-30.293 67.115-67.328V342.23l-562.731.469zm411.648-125.014c-13.227 0-23.893-10.667-23.893-23.893 0-13.013 10.667-23.808 23.893-23.893 13.227 0 23.893 10.88 23.893 23.893 0 13.227-10.667 23.893-23.893 23.893zm-258.56 0c-13.227 0-23.893-10.667-23.893-23.893 0-13.099 10.667-23.808 23.893-23.808s23.893 10.88 23.893 24.32-10.752 24.192-24.32 24.192zM651.136 94.763L695.04 14.08c2.56-4.48.597-9.643-3.243-12.16-4.437-1.92-9.557-.64-12.117 3.84l-44.8 81.067c-37.035-17.28-79.189-26.88-123.307-26.88s-86.101 9.173-123.392 25.728L344.064 4.48c-2.261-4.181-7.68-5.76-11.861-3.413-4.267 1.92-5.803 7.68-3.413 11.52l43.947 80C286.124 137.259 227.67 222.294 227.67 320h568.661c0-97.707-58.368-182.741-144.896-227.413zM142.08 330.325c-34.859 0-63.147 28.373-63.147 63.275v264.192c0 34.987 28.331 63.147 63.317 63.147 34.731 0 63.019-28.16 63.019-63.147V393.685c0-34.773-28.16-63.061-62.72-63.061z"/></symbol><symbol viewBox="0 0 1024 1024" id="i--OS-Apple"><title>OS-Apple</title><path fill="#999" d="M301.995 1004.8c-20.181-13.483-38.101-29.995-53.077-49.067-16.341-19.755-31.488-40.533-45.397-62.037-32.683-47.787-58.24-100.053-75.947-155.136-21.333-64.085-31.701-125.44-31.701-185.472 0-66.987 14.507-125.44 42.752-174.507 20.907-38.4 52.053-70.528 89.6-93.099 36.267-22.613 78.507-34.987 121.173-35.84 14.933 0 31.147 2.133 48.213 6.4 12.373 3.413 27.307 8.96 45.653 15.787 23.467 8.96 36.267 14.507 40.533 15.787 13.653 5.12 25.173 7.253 34.133 7.253 6.827 0 16.64-2.133 27.52-5.547 6.187-2.133 17.92-5.973 34.56-13.227 16.469-5.973 29.525-11.093 39.893-14.933 15.787-4.693 31.061-8.96 44.8-11.093 16.64-2.56 33.152-3.413 48.981-2.133 30.293 2.133 58.027 8.533 82.773 17.92 43.52 17.493 78.635 44.8 104.832 83.627-11.093 6.827-21.333 14.763-30.933 23.467-20.779 18.347-38.4 40.107-52.48 64.213-18.347 32.853-27.733 69.973-27.477 107.52.64 46.208 12.373 86.827 35.84 122.027 16.512 25.6 38.571 47.531 65.451 65.536 13.227 8.96 24.832 15.147 35.84 19.2-5.12 16-10.752 31.573-17.28 46.933-14.805 34.432-32.427 67.413-53.333 98.56-18.432 26.88-32.939 46.933-43.947 60.16-17.152 20.48-33.707 35.84-50.347 46.805-18.347 12.16-39.893 18.603-61.952 18.603-14.933.64-29.867-1.28-44.117-5.419-12.373-4.053-24.576-8.619-36.523-13.781a296.24 296.24 0 0 0-38.613-14.507c-16.213-4.267-32.853-6.315-49.664-6.272-17.067 0-33.707 2.133-49.493 6.187-13.227 3.755-26.027 8.363-38.699 13.867-17.92 7.467-29.653 12.373-36.48 14.507a190.754 190.754 0 0 1-42.24 7.467c-22.187 0-42.837-6.4-63.403-19.2zm292.437-787.627c-29.013 14.507-56.576 20.651-84.181 18.603-4.267-27.563 0-55.893 11.52-86.912 10.24-26.453 23.893-50.347 42.667-71.68 19.627-22.187 43.093-40.533 69.547-53.76 28.16-14.507 55.04-22.187 80.64-23.467 3.413 29.013 0 57.6-10.667 88.32-9.728 27.307-24.235 52.48-42.667 75.093-18.56 22.187-41.6 40.533-67.669 53.76z"/></symbol><symbol viewBox="0 0 512 512" id="i--OS-Blackberry"><title>OS-Blackberry</title><path d="M433.266 211.625h-66.5l18.125-83.875h63.875c41.438 0 51.25 20.375 51.25 36.5 0 22.813-14.75 47.375-66.75 47.375zm42 72.125c0 22.813-14.75 47.375-66.75 47.375h-66.5l18.125-83.938h63.813c41.437.001 51.312 20.501 51.312 36.563zM278.453 136.563h-66.438l18.125-83.875h63.75c41.499 0 51.374 20.375 51.374 36.5.002 22.812-14.811 47.375-66.811 47.375zm43.688 78.875c0 22.813-14.75 47.375-66.75 47.375h-66.438L207.047 179h63.844c41.437 0 51.25 20.313 51.25 36.438zm-24.688 131.5c0 22.875-14.75 47.375-66.625 47.375h-66.594l18.125-83.938h63.875c41.407 0 51.219 20.438 51.219 36.563zM100.516 136.563H34.11l18.031-83.875h63.875c41.438 0 51.344 20.375 51.344 36.5-.001 22.812-14.844 47.375-66.844 47.375zm43.781 78.875c0 22.813-14.844 47.375-66.719 47.375H10.984L29.141 179h63.813c41.468 0 51.343 20.313 51.343 36.438z"/></symbol><symbol viewBox="0 0 1024 1024" id="i--OS-Windows"><title>OS-Windows</title><path fill="#0078d6" d="M0 147.157L416 89.6v403.243H0zm467.157-64L1024 0v486.4H467.157zM0 537.6h416v403.243L0 883.158zm467.157 0H1024V1024l-550.4-76.843z"/></symbol><symbol viewBox="0 0 52 52" id="i--Rates-Domestic"><title>Rates-Domestic</title><path d="m34.3 31.6c0-1.3-.7-3.8-4.9-5.5v-4.7c.7.3 1.3.8 1.4 1.6.2.7.8 1.1 1.5.9s1.1-.8.9-1.5c-.4-1.8-2-3.2-3.9-3.6v-1c0-.5-.4-.9-.9-.9s-.9.4-.9.9v1c-2.3.4-4 2.2-4 4.4 0 1.4.7 3.4 4 4.9v6c-1.2-.3-2.1-1.2-2.4-2.3-.1-.7-.8-1.1-1.5-.9s-1.1.8-.9 1.5c.5 2.3 2.5 4 4.8 4.3v.9c0 .5.4.9.9.9s.9-.4.9-.9v-.9c3.1-.4 5-2.3 5-5.1zm-8.2-8.4c0-.9.6-1.6 1.5-1.8v3.9c-.8-.5-1.5-1.2-1.5-2.1zm3.3 10.9v-5.2c1.5.8 2.4 1.8 2.4 2.8 0 1.7-1.2 2.2-2.4 2.4z"/><path d="m12.3 27.4c-.2 0-.4-.1-.6-.2-.3-.3-7.8-6.9-7.8-13.4.1-4.8 4-8.6 8.6-8.6 4.7.1 8.5 4 8.4 8.8-.1 6.5-7.8 12.9-8.1 13.2-.1.1-.3.2-.5.2zm.1-20.4c-3.7 0-6.7 3-6.7 6.8-.1 4.7 4.9 9.8 6.6 11.4 1.8-1.6 6.8-6.6 6.9-11.3 0-3.7-3-6.8-6.8-6.9.1 0 .1 0 0 0z"/><path d="m12.5 17.8c-2.3 0-4.1-1.9-4-4.1 0-1.1.4-2.1 1.2-2.8s1.8-1.2 2.9-1.1c2.2 0 4 1.9 4 4.1 0 1.1-.4 2.1-1.2 2.8s-1.8 1.1-2.9 1.1zm0-6.3c-.6 0-1.1.2-1.6.6-.4.4-.7 1-.7 1.6 0 1.2 1 2.3 2.2 2.3.6 0 1.2-.2 1.6-.6s.7-1 .7-1.6c.1-1.2-.9-2.3-2.2-2.3z"/><path d="m28.5 9.5c-2.8 0-5.5.6-8 1.8.2.7.3 1.5.4 2.3 2.3-1.3 4.9-1.9 7.6-1.9 8.8 0 15.9 7.1 15.9 15.9s-7.1 15.9-15.9 15.9-15.9-7.1-15.9-15.9c0-.1 0-.2 0-.3-.1.1-.2.1-.4.1s-.4-.1-.6-.2c-.1-.1-.5-.5-1.2-1.1-.1.5-.1.9-.1 1.6 0 10 8.1 18.1 18.1 18.1s18.1-8.1 18.1-18.1-8-18.2-18-18.2z" fill="#e31b23"/></symbol><symbol viewBox="0 0 52 52" id="i--Rates-International"><title>Rates-International</title><path d="M35.4 32.2c0-1.3-.7-3.8-4.9-5.5V22c.7.3 1.3.8 1.4 1.6.2.7.8 1.1 1.5.9s1.1-.8.9-1.5c-.4-1.8-2-3.2-3.9-3.6v-1c0-.5-.4-.9-.9-.9s-.9.4-.9.9v1c-2.3.4-4 2.2-4 4.4 0 1.4.7 3.4 4 4.9v6c-1.2-.3-2.1-1.2-2.4-2.3-.1-.7-.8-1.1-1.5-.9s-1.1.8-.9 1.5c.5 2.3 2.5 4 4.8 4.3v.7c0 .5.4.9.9.9s.9-.4.9-.9v-.9c3.1-.2 5-2.1 5-4.9zm-8.2-8.4c0-.9.6-1.6 1.5-1.8v3.9c-.8-.6-1.5-1.3-1.5-2.1zm3.3 10.9v-5.2c1.5.8 2.4 1.8 2.4 2.8 0 1.6-1.2 2.2-2.4 2.4zM19.8 9.2c-1.9-1.9-4.4-3-7-3h-.1c-2.6 0-5.1 1-6.9 2.8-1.9 1.9-3 4.4-3 7 0 2.7 1 5.2 2.9 7.1s4.4 3 7 3h.1c5.5 0 9.9-4.4 10-9.9-.1-2.5-1.1-5.1-3-7zm0 3h-3.4c-.2-1.4-.6-2.7-1.1-3.7 1.2.4 2.3 1.1 3.2 2 .5.5.9 1.1 1.3 1.7zm1.1 4.1c0 .7-.1 1.5-.3 2.1h-3.9c.1-.7.1-1.5.1-2.2s0-1.5-.1-2.2h3.9c.2.7.3 1.5.3 2.3zm-8.2 8.1c-.5 0-1.4-1.4-1.9-4.1h3.8c-.5 2.7-1.4 4.1-1.9 4.1zm-2.1-6c-.1-.7-.1-1.4-.1-2.2s0-1.5.1-2.2h4.2c.1.7.1 1.4.1 2.2s0 1.5-.1 2.2zm-6.1-2.3c0-.7.1-1.5.3-2.1h3.9c-.1.7-.1 1.5-.1 2.2s0 1.5.1 2.2H4.8c-.2-.7-.3-1.5-.3-2.3zm8.2-8c.5 0 1.4 1.4 1.9 4.2h-3.8c.5-2.8 1.4-4.2 1.9-4.2zM7 10.4c.9-.9 2-1.5 3.1-1.9-.5 1-.8 2.3-1.1 3.7H5.6c.3-.7.8-1.3 1.4-1.8zm-1.4 9.8H9c.2 1.4.6 2.7 1.1 3.7-1.2-.4-2.3-1.1-3.2-2-.6-.5-1-1-1.3-1.7zm9.7 3.8c.5-1 .8-2.3 1.1-3.7h3.4c-1 1.7-2.6 3-4.5 3.7z"/><path d="M29.6 10.1c-2.8 0-5.5.6-8 1.9.3.7.6 1.4.7 2.1 2.2-1.1 4.7-1.8 7.2-1.8 8.8 0 15.9 7.1 15.9 15.9s-7.1 15.9-15.9 15.9S13.6 37 13.6 28.2c0-.7.1-1.4.1-2-.4 0-.8.1-1.2.1h-.1c-.3 0-.6 0-.9-.1-.1.7-.1 1.3-.1 2 0 10 8.1 18.1 18.1 18.1s18.1-8.1 18.1-18.1-8-18.1-18-18.1z" fill="#e31b23"/></symbol><symbol viewBox="0 0 52 52" id="i--Savings-Calculator-Alt"><title>Savings-Calculator-Alt</title><path d="M34.4 13.4c0-.1-.1-.1-.1-.2l-.1-.1-.1-.1c-.1 0-.1-.1-.2-.1-.1-.1-.2-.1-.4-.1H18.6c-.1 0-.3 0-.4.1-.1 0-.1.1-.2.1l-.1.1-.1.1c0 .1-.1.1-.1.2-.1.1-.1.2-.1.4v3.1c0 .6.5 1 1 1H33.5c.5 0 1-.4 1-1v-3.1c0-.1 0-.3-.1-.4z" fill="#FFF"/><circle cx="19.7" cy="24.7" r="1.9"/><circle cx="19.7" cy="30.5" r="1.9"/><circle cx="19.7" cy="36.3" r="1.9"/><circle cx="26" cy="24.7" r="1.9"/><circle cx="26" cy="30.5" r="1.9"/><circle cx="26" cy="36.3" r="1.9"/><circle cx="32.3" cy="24.7" r="1.9"/><circle cx="32.3" cy="30.5" r="1.9"/><circle cx="32.3" cy="36.3" r="1.9"/><path d="M35.6 9.9c.5 0 1 .5 1 1V40c0 .5-.5 1-1 1H16.5c-.5 0-1-.5-1-1V10.9c0-.5.5-1 1-1h19.1m0-2H16.5c-1.6 0-3 1.3-3 3V40c0 1.7 1.4 3 3 3h19.1c1.6 0 3-1.3 3-3V10.9c0-1.7-1.4-3-3-3z"/></symbol><symbol viewBox="0 0 52 52" id="i--Savings-Calculator"><title>Savings-Calculator</title><path d="m34.4 13.4c0-.1-.1-.1-.1-.2 0 0-.1-.1-.1-.1s-.1-.1-.1-.1c-.1 0-.1-.1-.2-.1-.1-.1-.2-.1-.4-.1h-14.9c-.1 0-.3 0-.4.1-.1 0-.1.1-.2.1 0 0-.1.1-.1.1s-.1.1-.1.1c0 .1-.1.1-.1.2-.1.1-.1.2-.1.4v3.1c0 .6.5 1 1 1h.1 14.7.1c.5 0 1-.4 1-1v-3.1c0-.1 0-.3-.1-.4z"/><g fill="#e31b23"><circle cx="19.7" cy="24.7" r="1.9"/><circle cx="19.7" cy="30.5" r="1.9"/><circle cx="19.7" cy="36.3" r="1.9"/><circle cx="26" cy="24.7" r="1.9"/><circle cx="26" cy="30.5" r="1.9"/><circle cx="26" cy="36.3" r="1.9"/><circle cx="32.3" cy="24.7" r="1.9"/><circle cx="32.3" cy="30.5" r="1.9"/><circle cx="32.3" cy="36.3" r="1.9"/><path d="m35.6 9.9c.5 0 1 .5 1 1v29.1c0 .5-.5 1-1 1h-19.1c-.5 0-1-.5-1-1v-29.1c0-.5.5-1 1-1zm0-2h-19.1c-1.6 0-3 1.3-3 3v29.1c0 1.7 1.4 3 3 3h19.1c1.6 0 3-1.3 3-3v-29.1c0-1.7-1.4-3-3-3z"/></g></symbol><symbol viewBox="0 0 52 52" id="i--Services"><title>Services</title><path d="M37 35.8c.7-.7 2.3-3 3.2-4.5.9-1.4.3-2.2-1-2.5-1.3-.3-1.4-.6-2.3-1.3-.9-.7-2.6-.9-2.6-.9-1.6-.4-2.3 2.2-1.9 3.5.3 1.3 1.7 1.7 2 2.4.3.6-.2 3.2-.3 4.1-.2.9-.9 2.4 0 3.6.9 1.3 1.3.3 1.3.3-.8-.5-.6-1.2-.3-2.3.2-1.1 1.1-1.7 1.9-2.4z" fill="#E31B23"/><path d="M4.8 17.4c.8 0 1.8.1 2.5.1h9.4c1 .4 2.7.4 3.5 1.3.2.2.6 1.4.6 1.4h.1c.3 0 .5-.6.7-.6 1.5.2 2.8.5 4.4.5h.1c.2 0 2.4-.5 3.5-.5.3 0 .5 0 .6.2 0 0-1.6 1.9-1.7 2-.2.2.2.4.1.5-.2.1-.6.1-.7.2-.8.9-1.7 1.1-2 2.2-.3.8.3.9 0 1.5-.4.9-1.9 1.2-2.3 2-.3.5.6 4.3.2 4.3-.8 0-.7-1.3-.9-1.6-.5-.9-.2-.5-.8-1-.2-.2-.7-.2-1.1-.2h-.7c-.2 0-.5.4-.9.4h-.1c-.5 0-.9-.5-1.4-.5-1.7.1-1.8 1.1-1.8 2.5-.7-.3-1.8-2.5-2.5-2.5-.2 0-.4.2-.5.6-.9-.8-.8-1.3-1.9-1.6-.2-.1-.4-.1-.6-.1H8.9c-1.9-.4-3.4-1-4.4-2.5-.8-1.1-1.2-2-1.3-3.4-.1-.9.1-1.9 0-2.8-.1-.4-.5-1.6-.4-1.8 0 0 0-.1.1-.1.2 0 .5.4.7.4.2-.2.1-.8.2-.9h1m0-1.7c-.7 0-1.2.1-1.7.2-.3.1-.6.3-.8.5-.6.1-1.1.5-1.3 1.1-.3.7-.1 1.3.2 2.1.1.2.1.4.2.5v1.1c0 .5-.1 1 0 1.5.1 1.8.8 3 1.6 4.2 1.4 2.1 3.5 2.8 5.3 3.2.3.1.6.1.9.1h1.1c.2.1.2.1.4.3.2.2.5.6.9.9.3.3.7.4 1.2.4.1 0 .3 0 .4-.1 0 0 0 .1.1.1.6.8 1.1 1.5 1.9 1.8.2.1.4.1.6.1.3 0 .7-.1 1-.3.5-.3.8-.9.8-1.4v-.7h.1c.3.2.8.4 1.5.4h.2c.5 0 .9-.3 1.2-.4h.5c0 .1.1.1.1.2v.1c.4 2.1 1.6 2.5 2.5 2.5.5 0 1-.2 1.4-.6.7-.8.5-1.7.3-3.5 0-.3-.1-.8-.1-1.2.1-.1.2-.1.3-.2.6-.4 1.4-.9 1.9-1.8.4-.8.3-1.5.1-1.9.1-.1.2-.3.6-.5.2-.1.4-.3.6-.5.3-.1.6-.2.9-.4.4-.3.6-.8.6-1.3.1-.1.2-.3.4-.4.9-1 1.8-2 1-3.1-.3-.5-.9-.9-2-.9-.8 0-1.9.2-3.1.4-.2 0-.4.1-.5.1-1 0-1.9-.1-2.8-.3-.5-.1-.9-.1-1.4-.2h-.2c-.1-.2-.2-.3-.2-.3-.9-.9-2.2-1.2-3.2-1.4-.4-.1-.7-.2-1-.2-.2-.1-.4-.1-.6-.1H7.3c-.3 0-.6 0-1-.1H4.8z"/><path d="M30.4 26c.5 1 1.2 1.4 1.3 1.1.1-.3-.6-1.6-1.3-2-.8-.3-1.5 0-2-.8-.1 0-.1.1-.2.1-.3.3-.5.4-.6.5 0 .1.1.2.1.4.2.1.3.1.5.1.7.3 1.7-.4 2.2.6zm2.9-16.9c-5.6 0-10.9 2.7-14.2 7.3.8.2 1.7.5 2.4 1.3 0 0 .1.1.2.3h.2c.5.1.9.1 1.4.2 1 .2 1.8.3 2.8.3.1 0 .3-.1.5-.1 1.2-.2 2.3-.4 3.1-.4 1.1 0 1.7.5 2 .9.8 1.1 0 2.1-1 3.1-.1.1-.2.3-.4.4 0 .1 0 .2-.1.3.4 0 .7.2.8.3.2.3.5.8.9.7.3-.1-.3-.8-.2-1.7 0-.9 1.9-2.5 3.5-4 1.6-1.4 0-2-2-3s-1.2 1.3-1.4 1.6c-.3.3-1.6.3-2.6-.3s-.9-1.5.1-2.3c1-.8 1.3-1.6.3-1.5-.8.1-2.4.4-3.5.4 1.6-.9 3.4-1.4 5.3-1.6.5.5 1.1 1.2 1.2 1.3.3.8 1.2 1.7 1.7 1.4.5-.3 1.4-.9-.7-2-.5-.3-.8-.5-1-.7l-.1-.1h.7c1 0 2 .1 2.9.3l.7 2.1c.8 2.1 2 .7 2.4-.2 0-.1.4-.4.7-.7 2.4 1.2 4.5 3 6 5.2-.3.5-.7 1.3-.5 2 .2.9 1.2.9 1.1 1.6-.1.6-.9-.2-1.8 1.5s-.5 4 .9 4.2c1.1.1 2.5-.4 3-.6 0 8.5-6.9 15.4-15.4 15.4-6.5 0-12.3-4.1-14.5-10.2-.4-.1-.8-.2-1.1-.4h-.1v.7c0 .5-.2.9-.5 1.2 2.7 6.4 9.1 10.8 16.1 10.8 9.7 0 17.5-7.9 17.5-17.5S42.9 9.1 33.3 9.1z" fill="#E31B23"/></symbol><symbol viewBox="0 0 52 52" id="i--Signal-Black"><title>Signal-Black</title><path d="m26.2 41.8c-3.8 0-6.8-3.1-6.8-6.8 0-3.8 3.1-6.8 6.8-6.8 3.8 0 6.8 3.1 6.8 6.8 0 3.8-3 6.8-6.8 6.8zm0-11.4c-2.5 0-4.6 2.1-4.6 4.6s2.1 4.6 4.6 4.6 4.6-2.1 4.6-4.6-2-4.6-4.6-4.6zm16.7-11.7c-.3 0-.6-.1-.8-.3-4.2-4.2-9.9-6.6-15.9-6.6s-11.6 2.3-15.9 6.6c-.4.4-1.1.4-1.6 0s-.4-1.1 0-1.6c4.6-4.6 10.8-7.2 17.4-7.2s12.8 2.6 17.4 7.2c.4.4.4 1.1 0 1.6-.1.2-.4.3-.6.3zm-4.1 4.5c-.3 0-.6-.1-.8-.3-6.5-6.5-17-6.5-23.5 0-.4.4-1.1.4-1.6 0s-.4-1.1 0-1.6c7.3-7.3 19.3-7.3 26.6 0 .4.4.4 1.1 0 1.6-.2.2-.5.3-.7.3zm-20.6 4.2c-.3 0-.6-.1-.8-.3-.4-.4-.4-1.1 0-1.6 2.3-2.3 5.5-3.6 8.8-3.6 3.3 0 6.4 1.3 8.8 3.6.4.4.4 1.1 0 1.6s-1.1.4-1.6 0c-1.9-1.9-4.5-3-7.2-3s-5.3 1.1-7.2 3c-.2.2-.5.3-.8.3z"/></symbol><symbol viewBox="0 0 52 52" id="i--Signal"><title>Signal</title><path d="m25.9 41.5c-3.8 0-6.8-3.1-6.8-6.8 0-3.8 3.1-6.8 6.8-6.8 3.8 0 6.8 3.1 6.8 6.8 0 3.8-3.1 6.8-6.8 6.8zm0-11.4c-2.5 0-4.6 2.1-4.6 4.6s2.1 4.6 4.6 4.6 4.6-2.1 4.6-4.6-2.1-4.6-4.6-4.6z"/><g fill="#e31b23"><path d="m42.5 18.4c-.3 0-.6-.1-.8-.3-8.7-8.7-23-8.7-31.7 0-.4.4-1.1.4-1.6 0-.4-.4-.4-1.1 0-1.6 9.6-9.6 25.2-9.6 34.8 0 .4.4.4 1.1 0 1.6-.1.2-.4.3-.7.3z"/><path d="m38.4 22.9c-.3 0-.6-.1-.8-.3-6.5-6.5-17-6.5-23.5 0-.4.4-1.1.4-1.6 0-.4-.4-.4-1.1 0-1.6 7.3-7.3 19.3-7.3 26.6 0 .4.4.4 1.1 0 1.6-.1.2-.4.3-.7.3z"/><path d="m17.9 27.1c-.3 0-.6-.1-.8-.3-.4-.4-.4-1.1 0-1.6 2.3-2.3 5.5-3.6 8.8-3.6 3.3 0 6.4 1.3 8.8 3.6.4.4.4 1.1 0 1.6-.4.4-1.1.4-1.6 0-1.9-1.9-4.5-3-7.2-3s-5.3 1.1-7.2 3c-.2.2-.5.3-.8.3z"/></g></symbol><symbol viewBox="0 0 200 200" id="i--SIM-Black"><title>SIM-Black</title><path d="m80.3 96.5h39.9v38.7h-39.9z" fill="none"/><g fill="#231f20"><path d="m123 90.6h-45.5c-1.7 0-3.1 1.4-3.1 3.1v44.3c0 1.7 1.4 3.1 3.1 3.1h45.5c1.7 0 3.1-1.4 3.1-3.1v-44.3c0-1.7-1.4-3.1-3.1-3.1zm-2.8 44.7h-39.9v-38.8h39.9z"/><path d="m134.7 39h-49.6c-1 0-30.9 31-30.9 31.9v78.9c0 6.1 5 11.1 11.1 11.1h69.3c6.1 0 11.1-5 11.1-11.1v-99.6c.1-6.2-4.9-11.2-11-11.2zm5.2 110.8c0 2.9-2.3 5.2-5.2 5.2h-69.4c-2.9 0-5.2-2.3-5.2-5.2v-76.8c4.6-5.3 22-23.2 27.1-28h47.4c2.9 0 5.2 2.3 5.2 5.2v99.6z"/></g></symbol><symbol viewBox="0 0 200 200" id="i--SIM-Check-Black"><title>SIM-Check-Black</title><g fill="#231f20"><path d="m120.4 81c-1.3-.9-3.2-.6-4.1.8l-24 35.2-8.5-11.4c-1-1.3-2.8-1.6-4.1-.6s-1.6 2.8-.6 4.1l13.5 18 28.7-42c.7-1.4.4-3.2-.9-4.1z"/><path d="m134.7 39h-49.6c-1 0-30.9 31-30.9 31.9v78.9c0 6.1 5 11.1 11.1 11.1h69.3c6.1 0 11.1-5 11.1-11.1v-99.6c.1-6.2-4.9-11.2-11-11.2zm5.2 110.8c0 2.9-2.3 5.2-5.2 5.2h-69.4c-2.9 0-5.2-2.3-5.2-5.2v-76.8c4.6-5.3 22-23.2 27.1-28h47.4c2.9 0 5.2 2.3 5.2 5.2v99.6z"/></g></symbol><symbol viewBox="0 0 52 52" id="i--SIM-Number"><title>SIM-Number</title><path d="m34.8 10.5c.5 0 1 .4 1 1v28.6c0 .5-.4 1-1 1h-19.9c-.5 0-1-.4-1-1v-21.9c1.4-1.6 5.9-6.2 7.5-7.7zm0-2.2h-14.2c-.3 0-8.9 8.9-8.9 9.2v22.7c0 1.8 1.4 3.2 3.2 3.2h19.9c1.8 0 3.2-1.4 3.2-3.2v-28.7c0-1.8-1.4-3.2-3.2-3.2z" fill="#e31b23"/><path d="m31.1 29.1h-2.6v-3.5h2.6c.5 0 .9-.4.9-.9s-.4-.9-.9-.9h-2.6v-2.6c0-.5-.4-.9-.9-.9s-.9.4-.9.9v2.6h-3.6v-2.6c0-.5-.4-.9-.9-.9s-.9.4-.9.9v2.6h-2.8c-.5 0-.9.4-.9.9s.4.9.9.9h2.8v3.5h-2.8c-.5 0-.9.4-.9.9s.4.9.9.9h2.8v2.7c0 .5.4.9.9.9s.9-.4.9-.9v-2.7h3.6v2.7c0 .5.4.9.9.9s.9-.4.9-.9v-2.7h2.6c.5 0 .9-.4.9-.9s-.4-.9-.9-.9zm-8 0v-3.5h3.6v3.5z"/></symbol><symbol viewBox="0 0 52 52" id="i--SIM-X-Black-Alt"><title>SIM-X-Black-Alt</title><path d="m35.8 10.5c.5 0 1 .4 1 1v28.6c0 .5-.4 1-1 1h-19.9c-.5 0-1-.4-1-1v-21.9c1.4-1.6 5.9-6.2 7.5-7.7zm0-2.2h-14.2c-.3 0-8.9 8.9-8.9 9.2v22.7c0 1.8 1.4 3.2 3.2 3.2h19.9c1.8 0 3.2-1.4 3.2-3.2v-28.7c0-1.8-1.4-3.2-3.2-3.2z" fill="#e31b23"/><path d="m31.3 30.7-4-4 4-4c.4-.4.4-1 0-1.4s-1-.4-1.4 0l-4 4-4-4c-.4-.4-1-.4-1.4 0s-.4 1 0 1.4l4 4-4 4c-.4.4-.4 1 0 1.4.2.2.4.3.7.3s.5-.1.7-.3l4-4 4 4c.2.2.4.3.7.3s.5-.1.7-.3c.3-.4.3-1 0-1.4z"/></symbol><symbol viewBox="0 0 200 200" id="i--SIM-X-Black"><title>SIM-X-Black</title><path d="m134.7 44.9h-47.5c-5.2 4.9-22.5 22.7-27.1 28v76.9c0 2.9 2.3 5.2 5.2 5.2h69.3c2.9 0 5.2-2.3 5.2-5.2v-99.6c.1-2.9-2.3-5.3-5.1-5.3zm-16.3 72.5c1.2 1.2 1.2 3 0 4.2-.6.6-1.3.9-2.1.9s-1.5-.3-2.1-.9l-14.2-14.3-14.3 14.3c-.6.6-1.3.9-2.1.9s-1.5-.3-2.1-.9c-1.2-1.2-1.2-3 0-4.2l14.3-14.3-14.2-14.2c-1.2-1.2-1.2-3 0-4.2s3-1.2 4.2 0l14.2 14.3 14.3-14.3c1.2-1.2 3-1.2 4.2 0s1.2 3 0 4.2l-14.3 14.3z" fill="none"/><path d="m134.7 39h-49.6c-1 0-30.9 31-30.9 31.9v78.9c0 6.1 5 11.1 11.1 11.1h69.3c6.1 0 11.1-5 11.1-11.1v-99.6c.1-6.2-4.9-11.2-11-11.2zm5.2 110.8c0 2.9-2.3 5.2-5.2 5.2h-69.4c-2.9 0-5.2-2.3-5.2-5.2v-76.8c4.6-5.3 22-23.2 27.1-28h47.4c2.9 0 5.2 2.3 5.2 5.2v99.6z" fill="#e31b23"/><path d="m118.4 84.7c-1.2-1.2-3-1.2-4.2 0l-14.2 14.3-14.3-14.3c-1.2-1.2-3-1.2-4.2 0s-1.2 3 0 4.2l14.3 14.3-14.3 14.3c-1.2 1.2-1.2 3 0 4.2.6.6 1.3.9 2.1.9s1.5-.3 2.1-.9l14.3-14.3 14.3 14.3c.6.6 1.3.9 2.1.9s1.5-.3 2.1-.9c1.2-1.2 1.2-3 0-4.2l-14.3-14.3 14.3-14.3c1.1-1.2 1.1-3-.1-4.2z" fill="#231f20"/></symbol><symbol viewBox="0 0 52 52" id="i--ThumbsUp-Colors-Alt"><title>ThumbsUp-Colors-Alt</title><path d="M29.6 9.1c1.1 0 2.2.8 2.4 2.7.1.9-.2 3.1-1.4 5.2-.5.9-.5 2 0 2.9.5.9 1.5 1.5 2.6 1.5h7.5c.5 0 .9.2 1.3.5.3.3.5.8.5 1.3 0 1-.8 1.8-1.8 1.8h-.4c-.3 0-.5.2-.5.5s.2.5.5.5c1 0 1.8.8 1.8 1.8s-.8 1.8-1.8 1.8h-1c-.3 0-.5.2-.5.5s.2.5.5.5c1 0 1.8.8 1.8 1.8s-.8 1.8-1.8 1.8h-1.1c-.3 0-.5.2-.5.5s.2.5.5.5c.8 0 1.5.7 1.5 1.5 0 .4-.2.8-.4 1.1-.3.3-.7.4-1.1.4H24.3c-2.8 0-4.8-.9-6.5-2.3v-13h1.9c.5 0 1-.1 1.4-.4.4-.3.7-.6.9-1.1.4-.8.9-1.6 1.5-2.3 2.2-2.6 4.6-5.5 4.7-8.6 0-.7.6-1.3 1.3-1.3l.1-.1c-.1 0-.1 0 0 0m0-2h-.2c-1.8.1-3.2 1.5-3.3 3.2-.1 2.5-2.3 5.1-4.3 7.4-.7.8-1.3 1.7-1.8 2.7 0 .1-.1.2-.2.2-.1.1-.2.1-.3.1h-1.9c-1.1 0-2 .9-2 2v13.4c0 .6.3 1.2.8 1.6 2.3 1.9 4.8 2.7 7.8 2.7H38.1c.9 0 1.8-.4 2.5-1 .7-.7 1-1.6 1-2.5 0-.4-.1-.8-.2-1.2 1-.7 1.6-1.8 1.6-3.1 0-.6-.1-1.2-.4-1.7.9-.7 1.4-1.8 1.4-3 0-.8-.2-1.5-.6-2.1.6-.7 1-1.6 1-2.6s-.4-2-1.1-2.7c-.7-.7-1.7-1.1-2.7-1.1h-7.5c-.4 0-.7-.2-.8-.5-.2-.3-.2-.6 0-.9 1.4-2.4 1.8-5 1.7-6.4-.3-3-2.5-4.5-4.4-4.5z" fill="#E31B23"/><path d="M14.4 36.9c0 .5-.4.9-.9.9h-3.3c-.5 0-.9-.4-.9-.9V22.1c0-.5.4-.9.9-.9h3.3c.5 0 .9.4.9.9v14.8z"/></symbol><symbol viewBox="0 0 200 200" id="i--ThumbsUp-Colors"><title>ThumbsUp-Colors</title><style>.st0{fill:none}.st1{fill:#231f20}.st2{fill:#e31b23}.st3{fill:#fff}</style><path class="st0" d="M65.8 140.4c0 .1 0 .1 0 0 0 .1 0 .1 0 0zm0-55.6v0zm-.3 56.7s0 .1 0 0c0 .1 0 0 0 0zm.1-57.4zm24 61.4c.8 0 1.6 0 2.4-.1h48.3c1.5 0 2.8-.6 3.9-1.6 1-1.1 1.6-2.5 1.6-3.9 0-3-2.6-5.4-5.6-5.4-1.1 0-1.9-.8-1.9-1.9 0-1.1.9-1.9 1.9-1.9h4c3.7 0 6.6-3 6.6-6.6 0-3.6-3-6.6-6.6-6.6-1 0-1.9-.9-1.9-1.9 0-1.1.9-1.9 1.9-1.9h3.6c3.6 0 6.6-3 6.6-6.6 0-3.6-3-6.6-6.6-6.6-1.1 0-1.9-.9-1.9-1.9 0-1.1.8-1.9 1.9-1.9h1.5c3.6 0 6.6-3 6.6-6.6 0-1.8-.7-3.4-1.9-4.7-1.2-1.2-2.9-1.9-4.7-1.9H122c-3.9 0-7.4-2-9.3-5.3-1.9-3.3-2-7.3-.1-10.6 4.4-7.9 5.6-15.9 5.3-19.1-.6-6.8-4.8-9.8-8.7-9.8h-.5c-2.6.1-4.8 2.2-4.9 4.9-.7 11.2-9.2 22.1-17.2 31.4-2.2 2.5-4 5.3-5.4 8.3-.7 1.6-1.9 2.9-3.4 3.9-1.5.9-3.2 1.4-4.9 1.4h-6.8v48.8c6.1 4.8 13.4 8.1 23.5 8.1zm-24.6-3zm-5.3-57H47.5c-.1 0-.3.1-.3.3v53.6c0 .1.1.3.3.3h12.2c.2 0 .3-.1.3-.3V85.8c0-.2-.1-.3-.3-.3z"/><path class="st1" d="M161.8 90c0-3.3-1.3-6.5-3.7-8.8-2.4-2.4-5.5-3.7-8.8-3.7H122c-1.8 0-3.3-.9-4.2-2.4-.9-1.5-.9-3.3-.1-4.8 4.8-8.5 6.5-17.6 6-22.5-.4-4.5-2.1-8.4-4.9-11.1-2.6-2.6-6.1-4-9.8-4H108.4h-.1c-5.7.2-10.3 4.7-10.6 10.5-.5 9.4-8.4 19.3-15.8 27.9-2.5 2.9-4.6 6.2-6.2 9.6-.3.6-.7 1.1-1.2 1.4-.5.3-1.1.5-1.8.5h-6.8c-.3 0-.6 0-.9.1.3.5.5 1 .7 1.5v.1c.1.2.1.5.1.7v.2c0 .3.1.5.1.8v2.6h6.8c1.8 0 3.5-.5 4.9-1.4 1.5-.9 2.7-2.3 3.4-3.9 1.4-3 3.2-5.8 5.4-8.3 8-9.3 16.6-20.2 17.2-31.4.1-2.7 2.3-4.8 4.9-4.9h.5c3.9 0 8.1 3 8.7 9.8.3 3.2-.9 11.2-5.3 19.1-1.9 3.3-1.8 7.3.1 10.6 1.9 3.3 5.4 5.3 9.3 5.3h27.3c1.8 0 3.4.7 4.7 1.9 1.2 1.2 1.9 2.9 1.9 4.7 0 3.6-3 6.6-6.6 6.6h-1.5c-1.1 0-1.9.9-1.9 1.9 0 1.1.8 1.9 1.9 1.9 3.6 0 6.6 3 6.6 6.6 0 3.6-3 6.6-6.6 6.6H144c-1 0-1.9.9-1.9 1.9 0 1.1.9 1.9 1.9 1.9 3.7 0 6.6 3 6.6 6.6 0 3.6-3 6.6-6.6 6.6h-4c-1.1 0-1.9.9-1.9 1.9 0 1.1.9 1.9 1.9 1.9 3.1 0 5.6 2.4 5.6 5.4 0 1.5-.6 2.9-1.6 3.9s-2.4 1.6-3.9 1.6H92c-.8 0-1.6.1-2.4.1-10.1 0-17.4-3.2-23.7-8.3v2.2c0 .4 0 .7-.1 1.1v.1c-.1.3-.2.7-.3 1v.1c-.1.3-.3.6-.5.9l-.6.9c7.6 5.4 15.7 8 25.3 8 .8 0 1.7 0 2.5-.1h48.1c3 0 5.9-1.2 8.1-3.3 2.2-2.2 3.4-5.1 3.3-8.2 0-1.8-.5-3.5-1.2-4.9 3.7-2.2 6.2-6.2 6.2-10.8 0-2.4-.7-4.7-1.9-6.7 3.3-2.2 5.5-6.1 5.5-10.4 0-2.9-1-5.6-2.7-7.7 2.5-2.4 4.2-5.7 4.2-9.4z"/><path class="st2" d="M65 142.5c.2-.3.3-.6.5-.9v-.1c.1-.3.2-.6.3-1v-.1c.1-.3.1-.7.1-1.1V85.8c0-.3 0-.5-.1-.8v-.2c0-.2-.1-.5-.1-.7V84c-.2-.5-.4-1-.7-1.5-1.1-1.8-3-2.9-5.3-2.9H47.5c-3.4 0-6.2 2.8-6.2 6.2v53.6c0 3.4 2.8 6.2 6.2 6.2h12.2c1.9 0 3.5-.8 4.7-2.1.2-.4.4-.6.6-1zm-5-3.1c0 .2-.1.3-.3.3H47.5c-.1 0-.3-.1-.3-.3V85.8c0-.1.1-.3.3-.3h12.2c.2 0 .3.1.3.3v53.6z"/></symbol><symbol viewBox="0 0 52 52" id="i--TopUp-Green"><title>TopUp-Green</title><g fill="#3b9d4a"><path d="m24.5 19.7c-.5.3-.8.8-.8 1.5 0 .6.3 1.1.8 1.5z"/><path d="m28.8 28.5c0-.9-.8-1.8-2.3-2.6v4.8c1.1-.1 2.3-.6 2.3-2.2z"/><path d="m25.9 6.6c-10 0-18.1 8.1-18.1 18.1s8.1 18.1 18.1 18.1 18.1-8.1 18.1-18.1-8.1-18.1-18.1-18.1zm0 33.1c-3 0-5.9-.9-8.3-2.6-.3-.2-.4-.7-.2-1s.7-.4 1-.2c2.2 1.5 4.8 2.4 7.5 2.4 7.2 0 13.1-5.9 13.1-13.1s-5.9-13.2-13.1-13.2c-3.6 0-7.1 1.5-9.5 4.2l.6-.1c.4-.1.8.2.9.6s-.2.8-.6.9l-2.9.4h-.1c-.2 0-.4-.1-.5-.2-.2-.2-.3-.4-.2-.6l.3-2.7c0-.4.4-.7.8-.7s.7.4.7.8l-.1.5c2.7-2.9 6.6-4.6 10.6-4.6 8 0 14.6 6.5 14.6 14.6s-6.6 14.6-14.6 14.6zm-4.2-18.6c0-1.7 1.2-3.1 2.8-3.6v-1.5c0-.6.4-1 1-1s1 .4 1 1v1.4c1.6.3 3 1.5 3.4 3.1.1.5-.2 1.1-.8 1.2-.5.1-1.1-.2-1.2-.8-.2-.7-.7-1.2-1.4-1.5v4.3c3.7 1.5 4.3 3.6 4.3 4.8 0 2.4-1.7 4-4.3 4.3v1.2c0 .6-.4 1-1 1s-1-.4-1-1v-1.4c-1.8-.5-3.2-1.8-3.6-3.6-.1-.5.2-1.1.8-1.2s1.1.2 1.2.8c.2.9.8 1.5 1.6 1.9v-5.5c-2.3-1.2-2.8-2.7-2.8-3.9z"/></g></symbol><symbol viewBox="0 0 52 52" id="i--TopUp"><title>TopUp</title><path d="m25.4 7.1c-4.9 0-9.5 2-12.9 5.4v-.2c.1-.6-.4-1.1-1-1.2s-1.1.4-1.2 1l-.3 3.4c0 .3.1.7.3.9s.5.3.8.3h.2l3.4-.5c.6-.1 1-.7.9-1.3s-.7-1-1.3-.9h-.3c3-3 7.1-4.8 11.4-4.8 8.9 0 16.1 7.2 16.1 16.1s-7.2 16.1-16.1 16.1c-3.3 0-6.5-1-9.2-2.9-.5-.3-1.2-.2-1.5.3s-.2 1.2.3 1.5c3.1 2.2 6.7 3.3 10.5 3.3 10.1 0 18.3-8.2 18.3-18.3s-8.2-18.2-18.4-18.2z" fill="#e31b23"/><path d="m31 29.6c0-1.3-.7-3.8-4.9-5.5v-4.7c.7.3 1.3.8 1.4 1.6.2.7.8 1.1 1.5.9s1.1-.8.9-1.5c-.4-1.8-2-3.2-3.9-3.6v-1c0-.5-.4-.9-.9-.9s-.9.4-.9.9v1c-2.3.4-4 2.2-4 4.4 0 1.4.7 3.4 4 4.9v6c-1.2-.3-2.1-1.2-2.4-2.3-.1-.7-.8-1.1-1.5-.9s-1.1.8-.9 1.5c.5 2.3 2.5 4 4.8 4.3v.9c0 .5.4.9.9.9s.9-.4.9-.9v-.9c3.1-.5 5-2.4 5-5.1zm-8.2-8.5c0-.9.6-1.6 1.5-1.8v3.9c-.8-.5-1.5-1.2-1.5-2.1zm3.3 10.9v-5.2c1.5.8 2.4 1.8 2.4 2.8 0 1.7-1.2 2.2-2.4 2.4z"/></symbol><symbol viewBox="0 0 52 52" id="i--Usage-Cap"><title>Usage-Cap</title><path d="M43.5 14.4H8.9c-2 0-3.6 1.6-3.6 3.6v16.2c0 2 1.6 3.6 3.6 3.6h34.6c2 0 3.6-1.6 3.6-3.6V17.9c0-1.9-1.6-3.5-3.6-3.5zm1.7 3.5V21c-1.1-.3-3.7-1.2-4.3-4.8h2.6c1 .1 1.7.8 1.7 1.7zM39 35.8H13.4c-.8-5.1-4.9-6.3-6.2-6.5v-6.2c1.2-.2 5.6-1.4 6.2-6.8H39c.7 5.3 5 6.5 6.2 6.7v6.5c-1.2.1-5.3 1.3-6.2 6.3zM8.9 16.3h2.6c-.5 3.6-3.2 4.6-4.3 4.9V18c.1-1 .8-1.7 1.7-1.7zM7.3 34.1v-2.9c1.1.3 3.6 1.2 4.2 4.6H8.9c-.9 0-1.6-.8-1.6-1.7zm36.2 1.7H41c.7-3.3 3.2-4.2 4.2-4.4v2.8c0 .8-.7 1.6-1.7 1.6zM17.5 21c-.4 0-.8-.3-.8-.8v-4.7c0-.4.3-.8.8-.8s.8.3.8.8v4.7c0 .4-.3.8-.8.8zm0 8.3c-.4 0-.8-.3-.8-.8v-4.8c0-.4.3-.8.8-.8s.8.3.8.8v4.8c0 .5-.3.8-.8.8zm0 8.1c-.4 0-.8-.3-.8-.8v-5.1c0-.4.3-.8.8-.8s.8.3.8.8v5.1c0 .4-.3.8-.8.8zm0 6.8c-.4 0-.8-.3-.8-.8v-3.3c0-.4.3-.8.8-.8s.8.3.8.8v3.3c0 .5-.3.8-.8.8zM30 28.4c0-.8-.4-2.3-2.9-3.3v-2.7c.4.2.7.5.8.9.1.4.5.7 1 .6.4-.1.7-.5.6-1-.3-1.1-1.2-1.9-2.3-2.2v-.6c0-.3-.3-.6-.6-.6s-.6.3-.6.6v.6c-1.4.2-2.4 1.3-2.4 2.7 0 .9.4 2.1 2.4 2.9v3.5c-.7-.2-1.2-.7-1.3-1.3-.1-.4-.5-.7-.9-.6-.4.1-.7.5-.6.9.3 1.4 1.5 2.4 2.9 2.6v.5c0 .3.3.6.6.6s.6-.3.6-.6v-.5c1.6-.2 2.7-1.4 2.7-3zm-4.9-5.1c0-.5.3-.8.8-1v2.2c-.4-.3-.8-.7-.8-1.2zm2 6.5v-3c.8.5 1.3 1 1.3 1.6 0 .9-.6 1.3-1.3 1.4zm-9.6-17.2c-.4 0-.8-.3-.8-.8V8.6c0-.4.3-.8.8-.8s.8.3.8.8v3.3c0 .3-.3.7-.8.7z"/></symbol><symbol viewBox="0 0 52 52" id="i--Usage"><title>Usage</title><path d="M24.3 14.4c0 1.6-1.3 2.9-3 2.9h-8.6c-1.6 0-3-1.3-3-2.9 0-1.6 1.3-2.9 3-2.9h8.6c1.6 0 3 1.3 3 2.9zm6.2 11.7c0 1.6-1.3 2.9-3 2.9h-15c-1.6 0-3-1.3-3-2.9 0-1.6 1.3-2.9 3-2.9h15c1.7.1 3 1.4 3 2.9zM21.2 38c0 1.6-1.3 2.9-3 2.9h-5.6c-1.6 0-3-1.3-3-2.9 0-1.6 1.3-2.9 3-2.9h5.6c1.7 0 3 1.3 3 2.9z" fill="#E31B23"/><path d="M39.2 30.7H12.5c-2.5 0-4.5-2-4.5-4.5s2-4.5 4.5-4.5h26.7c2.5 0 4.5 2 4.5 4.5 0 2.4-2 4.5-4.5 4.5zm-26.7-7.4c-1.6 0-2.9 1.3-2.9 2.9 0 1.6 1.3 2.9 2.9 2.9h26.7c1.6 0 2.9-1.3 2.9-2.9 0-1.6-1.3-2.9-2.9-2.9H12.5zm26.7-4.5H12.5c-2.5 0-4.5-2-4.5-4.5s2-4.5 4.5-4.5h26.7c2.5 0 4.5 2 4.5 4.5s-2 4.5-4.5 4.5zm-26.7-7.3c-1.6 0-2.9 1.3-2.9 2.9s1.3 2.9 2.9 2.9h26.7c1.6 0 2.9-1.3 2.9-2.9s-1.3-2.9-2.9-2.9H12.5zm26.7 31H12.5C10 42.5 8 40.5 8 38s2-4.5 4.5-4.5h26.7c2.5 0 4.5 2 4.5 4.5s-2 4.5-4.5 4.5zm-26.7-7.4c-1.6 0-2.9 1.3-2.9 2.9s1.3 2.9 2.9 2.9h26.7c1.6 0 2.9-1.3 2.9-2.9s-1.3-2.9-2.9-2.9H12.5z"/></symbol><symbol viewBox="0 0 200 200" id="i--X-Colors"><title>X-Colors</title><path d="m100 45c-30.4 0-55 24.7-55 55 0 30.4 24.7 55 55 55 30.4 0 55-24.7 55-55 0-30.4-24.6-55-55-55zm23 73.9c1.2 1.2 1.2 3 0 4.2-.6.6-1.3.9-2.1.9s-1.5-.3-2.1-.9l-18.9-18.9-18.9 18.8c-.6.6-1.3.9-2.1.9s-1.5-.3-2.1-.9c-1.2-1.2-1.2-3 0-4.2l18.9-18.8-18.8-18.9c-1.2-1.2-1.2-3 0-4.2s3-1.2 4.2 0l18.9 18.9 18.8-18.8c1.2-1.2 3-1.2 4.2 0s1.2 3 0 4.2l-18.9 18.8z" fill="none"/><path d="m100 39c-33.6 0-61 27.3-61 61 0 33.6 27.3 61 61 61 33.6 0 61-27.3 61-61 0-33.6-27.4-61-61-61zm0 116c-30.4 0-55-24.7-55-55 0-30.4 24.7-55 55-55 30.4 0 55 24.7 55 55 0 30.4-24.6 55-55 55z" fill="#e31b23"/><path d="m123 77c-1.2-1.2-3-1.2-4.2 0l-18.9 18.8-18.8-18.8c-1.2-1.2-3-1.2-4.2 0s-1.2 3 0 4.2l18.8 18.8-18.9 18.9c-1.2 1.2-1.2 3 0 4.2.6.6 1.3.9 2.1.9s1.5-.3 2.1-.9l18.9-18.9 18.9 18.9c.6.6 1.3.9 2.1.9s1.5-.3 2.1-.9c1.2-1.2 1.2-3 0-4.2l-18.9-18.9 18.9-18.9c1.1-1.1 1.1-3 0-4.1z" fill="#231f20"/></symbol></svg>