<svg xmlns="http://www.w3.org/2000/svg"><symbol viewBox="0 0 24 24" id="i--v4-about"><title>v4-about</title>
<path d="M12 17C12.2833 17 12.5208 16.9042 12.7125 16.7125C12.9042 16.5208 13 16.2833 13 16V12C13 11.7167 12.9042 11.4792 12.7125 11.2875C12.5208 11.0958 12.2833 11 12 11C11.7167 11 11.4792 11.0958 11.2875 11.2875C11.0958 11.4792 11 11.7167 11 12V16C11 16.2833 11.0958 16.5208 11.2875 16.7125C11.4792 16.9042 11.7167 17 12 17ZM12 9C12.2833 9 12.5208 8.90417 12.7125 8.7125C12.9042 8.52083 13 8.28333 13 8C13 7.71667 12.9042 7.47917 12.7125 7.2875C12.5208 7.09583 12.2833 7 12 7C11.7167 7 11.4792 7.09583 11.2875 7.2875C11.0958 7.47917 11 7.71667 11 8C11 8.28333 11.0958 8.52083 11.2875 8.7125C11.4792 8.90417 11.7167 9 12 9ZM12 22C10.6167 22 9.31667 21.7375 8.1 21.2125C6.88333 20.6875 5.825 19.975 4.925 19.075C4.025 18.175 3.3125 17.1167 2.7875 15.9C2.2625 14.6833 2 13.3833 2 12C2 10.6167 2.2625 9.31667 2.7875 8.1C3.3125 6.88333 4.025 5.825 4.925 4.925C5.825 4.025 6.88333 3.3125 8.1 2.7875C9.31667 2.2625 10.6167 2 12 2C13.3833 2 14.6833 2.2625 15.9 2.7875C17.1167 3.3125 18.175 4.025 19.075 4.925C19.975 5.825 20.6875 6.88333 21.2125 8.1C21.7375 9.31667 22 10.6167 22 12C22 13.3833 21.7375 14.6833 21.2125 15.9C20.6875 17.1167 19.975 18.175 19.075 19.075C18.175 19.975 17.1167 20.6875 15.9 21.2125C14.6833 21.7375 13.3833 22 12 22Z"/>
</symbol><symbol viewBox="0 0 24 24" id="i--v4-access-numbers"><title>v4-access-numbers</title>
<path d="M21 5H13.618L13.17 4.105C12.831 3.428 12.139 3 11.382 3H3C1.895 3 1 3.895 1 5V19C1 20.105 1.895 21 3 21H4C4.552 21 5 20.552 5 20V19C5 18.448 5.448 18 6 18C6.552 18 7 18.448 7 19V20C7 20.552 7.448 21 8 21H16C16.552 21 17 20.552 17 20V19C17 18.448 17.448 18 18 18C18.552 18 19 18.448 19 19V20C19 20.552 19.448 21 20 21H21C22.105 21 23 20.105 23 19V7C23 5.895 22.105 5 21 5ZM16.962 15.772C16.754 16.355 15.735 16.917 15.277 16.958C14.819 17 14.39 17.165 12.282 16.334C9.745 15.334 8.143 12.733 8.019 12.567C7.894 12.4 7 11.214 7 9.986C7 8.758 7.645 8.154 7.874 7.905C8.103 7.655 8.373 7.593 8.54 7.593C8.706 7.593 8.873 7.593 9.018 7.599C9.196 7.606 9.393 7.615 9.58 8.03C9.802 8.524 10.287 9.758 10.349 9.883C10.411 10.008 10.453 10.154 10.37 10.32C10.287 10.486 10.245 10.59 10.121 10.736C9.996 10.882 9.859 11.061 9.747 11.173C9.622 11.297 9.492 11.433 9.637 11.682C9.783 11.932 10.283 12.749 11.025 13.41C11.979 14.26 12.782 14.523 13.032 14.649C13.282 14.774 13.427 14.753 13.573 14.586C13.719 14.42 14.197 13.858 14.363 13.608C14.529 13.358 14.696 13.4 14.925 13.483C15.154 13.566 16.381 14.17 16.63 14.295C16.88 14.42 17.046 14.482 17.108 14.586C17.17 14.689 17.17 15.189 16.962 15.772Z"/>
</symbol><symbol viewBox="0 0 24 24" id="i--v4-account-info"><title>v4-account-info</title>
<path d="M5 21C4.45 21 3.97917 20.8042 3.5875 20.4125C3.19583 20.0208 3 19.55 3 19V5C3 4.45 3.19583 3.97917 3.5875 3.5875C3.97917 3.19583 4.45 3 5 3H9.2C9.43333 2.4 9.8 1.91667 10.3 1.55C10.8 1.18333 11.3667 1 12 1C12.6333 1 13.2 1.18333 13.7 1.55C14.2 1.91667 14.5667 2.4 14.8 3H19C19.55 3 20.0208 3.19583 20.4125 3.5875C20.8042 3.97917 21 4.45 21 5V19C21 19.55 20.8042 20.0208 20.4125 20.4125C20.0208 20.8042 19.55 21 19 21H5ZM12 4.25C12.2167 4.25 12.3958 4.17917 12.5375 4.0375C12.6792 3.89583 12.75 3.71667 12.75 3.5C12.75 3.28333 12.6792 3.10417 12.5375 2.9625C12.3958 2.82083 12.2167 2.75 12 2.75C11.7833 2.75 11.6042 2.82083 11.4625 2.9625C11.3208 3.10417 11.25 3.28333 11.25 3.5C11.25 3.71667 11.3208 3.89583 11.4625 4.0375C11.6042 4.17917 11.7833 4.25 12 4.25ZM12 13C12.9667 13 13.7917 12.6583 14.475 11.975C15.1583 11.2917 15.5 10.4667 15.5 9.5C15.5 8.53333 15.1583 7.70833 14.475 7.025C13.7917 6.34167 12.9667 6 12 6C11.0333 6 10.2083 6.34167 9.525 7.025C8.84167 7.70833 8.5 8.53333 8.5 9.5C8.5 10.4667 8.84167 11.2917 9.525 11.975C10.2083 12.6583 11.0333 13 12 13ZM5 19H19V17.85C18.1 16.9667 17.0542 16.2708 15.8625 15.7625C14.6708 15.2542 13.3833 15 12 15C10.6167 15 9.32917 15.2542 8.1375 15.7625C6.94583 16.2708 5.9 16.9667 5 17.85V19Z"/>
</symbol><symbol viewBox="0 0 24 24" id="i--v4-app"><title>v4-app</title>
<path fill-rule="evenodd" clip-rule="evenodd" d="M5.5875 22.4125C5.97917 22.8042 6.45 23 7 23H17C17.55 23 18.0208 22.8042 18.4125 22.4125C18.8042 22.0208 19 21.55 19 21V3C19 2.45 18.8042 1.97917 18.4125 1.5875C18.0208 1.19583 17.55 1 17 1H7C6.45 1 5.97917 1.19583 5.5875 1.5875C5.19583 1.97917 5 2.45 5 3V21C5 21.55 5.19583 22.0208 5.5875 22.4125ZM17 18H7V6H17V18ZM11.1207 13.7733C10.9483 13.8711 10.7314 13.92 10.4701 13.92H8.76874V10.08H10.3047C10.5785 10.08 10.7998 10.1351 10.9687 10.2453C11.1376 10.3538 11.2612 10.4907 11.3394 10.656C11.4176 10.8213 11.4567 10.9884 11.4567 11.1573C11.4567 11.3724 11.4078 11.5511 11.3101 11.6933C11.252 11.7794 11.1805 11.8482 11.0957 11.8998C11.2462 11.9603 11.3648 12.0533 11.4514 12.1787C11.5723 12.3511 11.6327 12.544 11.6327 12.7573C11.6327 12.9867 11.5901 13.1884 11.5047 13.3627C11.4212 13.5369 11.2932 13.6738 11.1207 13.7733ZM10.6754 12.32C10.6007 12.2773 10.5074 12.256 10.3954 12.256H9.50474V13.2373H10.3954C10.4932 13.2373 10.5803 13.2169 10.6567 13.176C10.7332 13.1333 10.7927 13.0747 10.8354 13C10.8798 12.9235 10.9021 12.8338 10.9021 12.7307C10.9021 12.64 10.8834 12.5591 10.8461 12.488C10.8087 12.4169 10.7518 12.3609 10.6754 12.32ZM10.6114 10.8773C10.5385 10.7973 10.4327 10.7573 10.2941 10.7573H9.50474V11.5787H10.2941C10.3758 11.5787 10.4487 11.5644 10.5127 11.536C10.5767 11.5075 10.6274 11.464 10.6647 11.4053C10.7021 11.3449 10.7207 11.2675 10.7207 11.1733C10.7207 11.056 10.6843 10.9573 10.6114 10.8773ZM14.4099 13.92L13.7792 12.6187H12.9699V13.92H12.2446V10.08H13.8659C13.9032 10.08 13.953 10.0818 14.0152 10.0853C14.0792 10.0871 14.1361 10.0924 14.1859 10.1013C14.4152 10.1369 14.6028 10.2124 14.7486 10.328C14.8961 10.4435 15.0046 10.5893 15.0739 10.7653C15.1432 10.9395 15.1779 11.1342 15.1779 11.3493C15.1779 11.6711 15.0979 11.9467 14.9379 12.176C14.8391 12.3165 14.7058 12.4237 14.5379 12.4978L15.2312 13.92H14.4099ZM13.9566 10.7627C13.9121 10.7591 13.8712 10.7573 13.8339 10.7573H12.9699V11.9413H13.8339C13.8712 11.9413 13.9121 11.9395 13.9566 11.936C14.001 11.9324 14.0419 11.9253 14.0792 11.9147C14.177 11.888 14.2526 11.8435 14.3059 11.7813C14.3592 11.7173 14.3957 11.6471 14.4152 11.5707C14.4366 11.4924 14.4472 11.4187 14.4472 11.3493C14.4472 11.28 14.4366 11.2071 14.4152 11.1307C14.3957 11.0524 14.3592 10.9822 14.3059 10.92C14.2526 10.856 14.177 10.8107 14.0792 10.784C14.0419 10.7733 14.001 10.7662 13.9566 10.7627Z"/>
</symbol><symbol viewBox="0 0 24 24" id="i--v4-billpay"><title>v4-billpay</title>
<g id="v4-billpay-Bill Pay">
<path id="v4-billpay-Vector" d="M19 2C19 2.552 18.552 3 18 3C17.448 3 17 2.552 17 2H15C15 2.552 14.552 3 14 3C13.448 3 13 2.552 13 2H11C11 2.552 10.552 3 10 3C9.448 3 9 2.552 9 2H7C7 2.552 6.552 3 6 3C5.448 3 5 2.552 5 2H4C3.448 2 3 2.448 3 3V20C3 21.105 3.895 22 5 22H19C20.105 22 21 21.105 21 20V3C21 2.448 20.552 2 20 2H19ZM13 18H7C6.448 18 6 17.552 6 17C6 16.448 6.448 16 7 16H13C13.552 16 14 16.448 14 17C14 17.552 13.552 18 13 18ZM13 14H7C6.448 14 6 13.552 6 13C6 12.448 6.448 12 7 12H13C13.552 12 14 12.448 14 13C14 13.552 13.552 14 13 14ZM17.5 18H16.5C16.224 18 16 17.776 16 17.5V16.5C16 16.224 16.224 16 16.5 16H17.5C17.776 16 18 16.224 18 16.5V17.5C18 17.776 17.776 18 17.5 18ZM17.5 14H16.5C16.224 14 16 13.776 16 13.5V12.5C16 12.224 16.224 12 16.5 12H17.5C17.776 12 18 12.224 18 12.5V13.5C18 13.776 17.776 14 17.5 14ZM17 9H7C6.448 9 6 8.552 6 8C6 7.448 6.448 7 7 7H17C17.552 7 18 7.448 18 8C18 8.552 17.552 9 17 9Z"/>
</g>
</symbol><symbol viewBox="0 0 24 24" id="i--v4-boss-bonus"><title>v4-boss-bonus</title>
<path fill-rule="evenodd" clip-rule="evenodd" d="M8.17409 2.54816C8.36984 2.17917 8.75928 1.97641 9.1526 2.00129C9.28371 2.00959 9.41432 2.04355 9.53932 2.1048L12.0003 3.30597L14.4612 2.1048C14.9612 1.85981 15.5645 2.05716 15.8245 2.54816L17.1077 4.96613L19.8049 5.43879C20.3539 5.5358 20.7286 6.04889 20.6507 6.60089L20.2678 9.31183L22.1721 11.2806C22.5591 11.6816 22.5591 12.3181 22.1741 12.7181L20.2698 14.6849L20.6526 17.3958C20.7306 17.9478 20.3559 18.4639 19.8069 18.5599L17.1096 19.0325L15.8264 21.4505C15.5644 21.9425 14.9622 22.1389 14.4612 21.8939L12.0003 20.6927L9.54128 21.8958C9.04027 22.1408 8.43509 21.9425 8.17409 21.4505L6.89088 19.0325L4.19362 18.5599C3.64462 18.4629 3.27187 17.9498 3.34987 17.3978L3.73268 14.6868L1.82838 12.7181C1.44038 12.3171 1.44038 11.6816 1.82838 11.2806L3.73268 9.31379L3.34987 6.60285C3.27187 6.05085 3.64462 5.53675 4.19362 5.44074L6.89088 4.96808L8.17409 2.54816ZM12.5257 17.6378V16.8783C12.8363 16.8401 14.5894 16.5486 14.5894 14.4181C14.5894 12.7661 13.5897 12.2176 12.7128 11.7365C12.0277 11.3607 11.4175 11.0259 11.4175 10.2381C11.4175 9.20151 11.9859 9.17286 12.1101 9.17286C12.2869 9.17286 12.6738 9.29227 12.8076 9.98972C12.884 10.3575 13.1754 10.6203 13.5433 10.6203H13.7821C14.2694 10.6203 14.6181 10.1712 14.5082 9.7031C14.1595 8.1171 12.9079 7.83527 12.6643 7.78748V6.90851C12.6643 6.65055 12.4493 6.44992 12.2057 6.44992H12.1961C11.9382 6.44992 11.7375 6.65055 11.7375 6.90851V7.75882C11.4222 7.79703 9.68339 8.12665 9.68339 10.2286C9.68339 11.9137 10.644 12.3966 11.508 12.8309C12.2139 13.1858 12.8554 13.5082 12.8554 14.4276C12.8554 15.4547 12.1961 15.4738 12.0576 15.4738L12.0417 15.474C11.9046 15.4768 11.334 15.4884 11.1786 14.5471C11.1117 14.2079 10.7917 13.9786 10.4525 13.9786H10.2041C9.75504 13.9786 9.38721 14.3846 9.46842 14.8337C9.82573 16.6249 11.2648 16.8294 11.5834 16.8746L11.6085 16.8783V17.6378C11.6085 17.8958 11.8092 18.0964 12.0671 18.0964C12.3251 18.0964 12.5257 17.8958 12.5257 17.6378Z"/>
</symbol><symbol viewBox="0 0 24 24" id="i--v4-br-link"><title>v4-br-link</title>
<path d="M5.02931 3.00977C3.89931 3.00977 2.95931 3.95008 3.02931 5.08008C3.29431 9.34908 5.13367 13.1883 7.97267 16.0273C10.8117 18.8663 14.6509 20.7057 18.9199 20.9707C20.0499 21.0407 20.9902 20.1007 20.9902 18.9707V17.2402C20.9902 16.2202 20.2307 15.37 19.2207 15.25L16.6992 14.9609C16.0892 14.8909 15.4906 15.0993 15.0606 15.5293L13.2109 17.3809C11.7919 16.6609 10.5046 15.7204 9.39259 14.6074C8.27959 13.4954 7.33915 12.2081 6.61915 10.7891L8.47071 8.93945C8.90071 8.50945 9.10907 7.91078 9.03907 7.30078L8.75001 4.7793C8.63001 3.7693 7.77978 3.00977 6.75978 3.00977H5.02931ZM13.3652 4.50781C13.2636 4.52547 13.1626 4.5737 13.0781 4.6582L11.1563 6.58008C10.9473 6.79008 10.9473 7.12984 11.1563 7.33984L13.0781 9.26172C13.4161 9.59972 13.9942 9.36081 13.9942 8.88281V8H18.0059V8.88281C18.0059 9.36081 18.5839 9.59972 18.9219 9.26172L20.8438 7.33984C21.0528 7.12984 21.0528 6.79008 20.8438 6.58008L18.9219 4.6582C18.5839 4.3202 18.0059 4.55911 18.0059 5.03711V6H13.9942V5.03711C13.9942 4.67861 13.6701 4.45484 13.3652 4.50781Z"/>
</symbol><symbol viewBox="0 0 24 24" id="i--v4-br"><title>v4-br</title>
<g id="v4-br-BR Account">
<path id="v4-br-Vector" d="M19.22 15.25L16.7 14.96C16.09 14.89 15.49 15.1 15.06 15.53L13.21 17.38C11.791 16.66 10.504 15.721 9.39199 14.608C8.27899 13.496 7.33999 12.209 6.61999 10.79L8.47 8.94C8.9 8.51 9.10999 7.91 9.03999 7.3L8.74999 4.78C8.62999 3.77 7.78 3.01 6.76 3.01H5.03C3.9 3.01 2.95999 3.95 3.02999 5.08C3.29499 9.349 5.13399 13.188 7.97299 16.027C10.812 18.866 14.651 20.705 18.92 20.97C20.05 21.04 20.99 20.1 20.99 18.97V17.24C20.99 16.22 20.23 15.37 19.22 15.25Z"/>
</g>
</symbol><symbol viewBox="0 0 24 24" id="i--v4-brclub"><title>v4-brclub</title>
<path fill-rule="evenodd" clip-rule="evenodd" d="M11.4786 1.95224L11.9998 1.64656L12.5209 1.95224L12.6106 2.00164C14.926 3.27715 16.2961 4.03192 19.1432 4.43242L20.7657 4.60096V6.11448C20.7657 6.11448 21.2366 6.12149 21.3923 6.14008C21.5047 6.1535 21.8362 6.22835 21.8362 6.22835L21.8298 4.44916C21.8298 4.4412 21.8298 4.42987 21.8299 4.41617C21.8302 4.3364 21.8309 4.1761 21.8245 4.13019L21.8182 4.08562C21.8043 3.98664 21.7646 3.89221 21.7001 3.81588C21.6948 3.80961 21.6893 3.80333 21.6837 3.7973C21.6206 3.72897 21.5308 3.67554 21.442 3.64809L21.3927 3.63257C21.3472 3.61854 21.2943 3.6098 21.2469 3.6045L19.5367 3.40974C17.3789 3.14641 16.4178 2.80441 14.5272 1.83861L13.4291 1.24387C13.0679 1.04675 12.7354 0.847968 12.4991 0.706698C12.4151 0.656501 12.3433 0.613565 12.2866 0.580547C12.2352 0.550508 12.18 0.527487 12.1225 0.512098C12.1032 0.506927 12.0832 0.503603 12.0633 0.501756C12.0577 0.501264 12.0522 0.501141 12.0465 0.501018L12 0.500648H11.9995L11.953 0.501018C11.9473 0.501141 11.9418 0.501264 11.9362 0.501756C11.9163 0.503603 11.8964 0.506927 11.877 0.512098C11.8195 0.527487 11.7644 0.550508 11.7129 0.580547C11.6563 0.613565 11.5844 0.6565 11.5005 0.706696C11.2642 0.847967 10.9316 1.04675 10.5705 1.24387L9.47231 1.83861C7.58171 2.80441 6.62058 3.14641 4.46283 3.40974L2.75258 3.6045C2.70518 3.6098 2.65237 3.61854 2.60682 3.63257L2.55757 3.64809C2.46869 3.67554 2.37894 3.72897 2.31579 3.7973C2.31025 3.80333 2.30471 3.80961 2.29941 3.81588C2.2349 3.89221 2.19526 3.98664 2.18135 4.08562L2.17507 4.13019C2.16866 4.1761 2.16934 4.33641 2.16967 4.41617C2.16973 4.42988 2.16978 4.4412 2.16978 4.44916L2.16374 6.11448H3.23382V4.60096L4.85629 4.43242C7.70346 4.03192 9.07357 3.27715 11.389 2.00164L11.4786 1.95224ZM11.9998 1.93907L10.6009 2.72353L10.4727 2.79175C8.66603 3.75366 7.65402 4.29247 4.96721 4.67249L3.48029 4.83425V6.1146H11.9998H20.5192V4.83425L19.0323 4.67249C16.3455 4.29247 15.3335 3.75366 13.5268 2.79175L13.3987 2.72353L11.9998 1.93907ZM9.60613 6.5674C10.6401 6.58291 11.4906 6.88847 12.1974 7.55216C12.7592 8.07981 13.1124 8.72626 13.2262 9.49065C13.3915 10.6018 13.0828 11.572 12.3093 12.3855C11.7679 12.9549 11.0972 13.2927 10.324 13.4229C9.5122 13.5597 8.72836 13.4616 7.994 13.085C7.00826 12.5796 6.357 11.788 6.1519 10.6945C5.89005 9.29811 6.35737 8.15207 7.47805 7.2823C7.96827 6.90177 8.53544 6.68817 9.15087 6.60815C9.27708 6.59175 9.40425 6.58245 9.50465 6.57511L9.50466 6.5751C9.54293 6.57231 9.57731 6.56979 9.60625 6.56728L9.60613 6.5674ZM11.8064 10.0301C11.8064 8.84359 10.8639 7.89416 9.68505 7.89305C8.50171 7.89194 7.5444 8.83706 7.54108 10.0045C7.53751 11.2031 8.48004 12.1474 9.6438 12.1559C10.8561 12.1647 11.8062 11.2233 11.8064 10.0301ZM5.3885 10.191C5.201 10.0344 4.989 9.92068 4.745 9.83721H4.74488C4.75543 9.83148 4.76423 9.82659 4.77199 9.82228L4.77216 9.82219L4.77218 9.82217C4.78416 9.81552 4.79367 9.81024 4.80335 9.80533C5.43971 9.48536 5.71892 8.87757 5.61563 8.21006C5.53635 7.69792 5.25234 7.3185 4.81665 7.04901C4.41777 6.80217 3.97494 6.7139 3.5134 6.71194C2.86279 6.7092 2.21217 6.70982 1.56155 6.71043C1.30374 6.71067 1.04592 6.71092 0.788111 6.71095C0.772756 6.71095 0.757401 6.71191 0.741422 6.71291H0.741419H0.741415H0.741412H0.741408H0.741404H0.7414H0.741395H0.741389H0.741384H0.741378H0.741371H0.741364C0.734428 6.71334 0.727376 6.71378 0.720154 6.71415V13.3361H0.801653C1.06295 13.3361 1.32425 13.3362 1.58554 13.3362H1.58807C2.30614 13.3363 3.0242 13.3364 3.74227 13.3358C4.05373 13.3355 4.35819 13.2882 4.6534 13.1872C5.47036 12.9072 5.98977 12.2339 5.96662 11.3916C5.9532 10.9053 5.76287 10.5035 5.3885 10.191ZM2.15665 12.108C2.14929 12.1076 2.14158 12.1071 2.13334 12.1068L2.13321 12.1069C2.1328 12.0981 2.13231 12.0898 2.13183 12.0818C2.13088 12.066 2.13001 12.0514 2.13001 12.0367C2.12998 11.9118 2.13004 11.7869 2.1301 11.6621C2.13026 11.2988 2.13043 10.9356 2.12841 10.5724C2.12804 10.5079 2.14897 10.4944 2.20917 10.4946C2.40747 10.4955 2.60577 10.4953 2.80407 10.4951C3.0795 10.4947 3.35493 10.4944 3.63036 10.4972C3.8948 10.4999 4.1356 10.5727 4.32051 10.7781C4.63272 11.1249 4.60034 11.9309 3.86304 12.0832C3.78338 12.0996 3.70065 12.1082 3.61928 12.1086C3.25774 12.1104 2.8962 12.1101 2.53466 12.1098C2.42247 12.1097 2.31028 12.1096 2.19809 12.1096C2.18484 12.1096 2.17164 12.1088 2.15707 12.108L2.15689 12.108L2.15665 12.108ZM3.01697 9.26797C2.95876 9.26765 2.90054 9.26733 2.84233 9.26733L2.84245 9.26746C2.78583 9.26746 2.7292 9.26737 2.67258 9.26729C2.51401 9.26705 2.35543 9.26681 2.19686 9.26844C2.1486 9.26906 2.12866 9.25946 2.1289 9.20541C2.131 8.8037 2.13063 8.40199 2.12927 8.00028C2.12903 7.95362 2.14109 7.9354 2.19132 7.93565C2.3784 7.93646 2.5655 7.9364 2.75262 7.93634H2.75305C2.9634 7.93627 3.17377 7.9362 3.38414 7.93737C3.52165 7.93811 3.65769 7.95461 3.78585 8.01136C4.04425 8.12586 4.19051 8.36703 4.17278 8.65104C4.15579 8.92398 3.97827 9.14693 3.70447 9.22659C3.621 9.25084 3.53187 9.26315 3.44483 9.26561C3.3023 9.26955 3.15965 9.26876 3.01697 9.26797ZM2.37906 13.8815H3.45542C3.47472 13.9428 3.49343 14.0039 3.51208 14.0649C3.55314 14.1991 3.5939 14.3323 3.63996 14.4637C3.86747 15.1133 4.20085 15.7008 4.67458 16.2047C4.80712 16.3457 4.93883 16.4875 5.07054 16.6293L5.07067 16.6294L5.07081 16.6296L5.07095 16.6297L5.07109 16.6299C5.34231 16.9219 5.61354 17.2139 5.89202 17.4988C6.91851 18.5489 7.99092 19.5505 9.10938 20.502C9.76384 21.0588 10.4308 21.6001 11.1602 22.0579C11.3131 22.1539 11.4749 22.2362 11.6365 22.3184C11.683 22.3421 11.7295 22.3657 11.7757 22.3897C11.9239 22.4665 12.0741 22.4561 12.2262 22.3915C12.4688 22.2885 12.6931 22.1535 12.9116 22.0084C13.5171 21.6063 14.0828 21.1519 14.64 20.6868C15.4569 20.0048 16.2473 19.2931 17.0187 18.5601C17.7768 17.8399 18.5204 17.1055 19.2143 16.3222C19.5388 15.9559 19.8359 15.5714 20.0544 15.1298C20.245 14.7447 20.3944 14.3451 20.5025 13.9299C20.5128 13.8904 20.5275 13.8761 20.5679 13.8779C20.9154 13.8939 21.2599 13.8698 21.6002 13.795C21.6022 13.7945 21.6046 13.7954 21.6091 13.797C21.6119 13.798 21.6155 13.7993 21.6203 13.8007C21.6115 13.8384 21.6028 13.8762 21.5941 13.914C21.5761 13.9928 21.5579 14.0718 21.538 14.1502C21.352 14.8799 21.0789 15.5745 20.6529 16.1979C20.4729 16.4614 20.2598 16.7035 20.048 16.944L20.017 16.9793C19.4223 17.6553 18.7925 18.2983 18.1513 18.93C17.2049 19.8626 16.2318 20.7662 15.2043 21.6097C14.5845 22.1186 13.9501 22.6077 13.2598 23.0194C13.008 23.1696 12.747 23.3008 12.4725 23.4064C12.1493 23.5308 11.8321 23.5299 11.5084 23.4064C11.1076 23.2535 10.7392 23.0416 10.382 22.8083C9.62878 22.3163 8.93099 21.7517 8.24872 21.1673C7.51375 20.5378 6.80414 19.8805 6.11078 19.2056C5.31438 18.4304 4.54457 17.6301 3.80013 16.8044C3.15934 16.0937 2.75652 15.2632 2.49442 14.3545C2.46652 14.2577 2.44283 14.1596 2.41914 14.0616L2.41913 14.0615C2.40916 14.0203 2.39919 13.979 2.38891 13.9379C2.38602 13.9263 2.38418 13.9144 2.38216 13.9014C2.38118 13.8951 2.38015 13.8885 2.37894 13.8815H2.37906ZM17.1431 18.1307C17.0659 18.2034 16.9899 18.2753 16.9147 18.3465C16.7594 18.4934 16.607 18.6376 16.4534 18.7802C15.6555 19.5208 14.8421 20.2438 13.9926 20.9253C13.508 21.3139 13.0176 21.6949 12.4817 22.0122C12.3973 22.0622 12.3099 22.1076 12.2214 22.15C12.0778 22.2187 11.9321 22.2159 11.7884 22.1485C11.4214 21.976 11.0871 21.7497 10.7592 21.5142C9.95884 20.9394 9.20812 20.3034 8.47869 19.6426C8.10369 19.3028 7.73489 18.9562 7.36608 18.6097C7.20467 18.458 7.04326 18.3064 6.88133 18.1553C6.87775 18.1519 6.87469 18.148 6.87047 18.1426L6.87042 18.1426C6.86782 18.1392 6.86478 18.1353 6.86089 18.1307H17.1428H17.1431ZM18.8537 11.819C18.645 12.0276 18.4361 12.2364 18.2251 12.4474L18.2256 12.4473C18.2288 12.451 18.2321 12.4549 18.2354 12.4588L18.2355 12.4588C18.2438 12.4685 18.2522 12.4785 18.2613 12.4879C18.5293 12.7658 18.8443 12.9771 19.193 13.1393C19.7558 13.401 20.3491 13.5034 20.9674 13.473C21.3349 13.4549 21.6898 13.3819 22.0278 13.2349C22.8139 12.8932 23.3664 12.1575 23.2687 11.2226C23.221 10.7666 23.0301 10.3886 22.6784 10.0935C22.3966 9.85703 22.0699 9.7008 21.7282 9.57548C21.5465 9.50886 21.3636 9.44543 21.1806 9.382L21.1805 9.38197L21.1804 9.38194L21.1804 9.38191L21.1803 9.38188L21.1802 9.38185L21.1801 9.38182L21.18 9.38179L21.1799 9.38176L21.1798 9.38173L21.1798 9.3817C21.0131 9.32391 20.8464 9.26613 20.6806 9.2059C20.4877 9.13585 20.3017 9.04881 20.1478 8.9076C19.991 8.76381 19.9366 8.5853 19.9788 8.37811C20.0289 8.13213 20.1953 7.99019 20.4225 7.92272C21.0023 7.75061 21.5318 7.85636 22.0043 8.23579C22.0504 8.27291 22.0939 8.31338 22.1343 8.35099C22.1519 8.36739 22.1689 8.38325 22.1853 8.39805C22.4894 8.09398 22.7918 7.79165 23.1051 7.47844L23.1368 7.44678C23.0942 7.41258 23.052 7.37694 23.0094 7.34107L23.0094 7.34104L23.0093 7.34098C22.9161 7.26232 22.8215 7.18255 22.7191 7.1145C21.9002 6.56986 21.0075 6.44897 20.062 6.6798C19.6522 6.77989 19.2899 6.97637 18.9974 7.2855C18.6344 7.66899 18.4735 8.12647 18.5065 8.65449C18.5382 9.16133 18.7439 9.57621 19.1419 9.89396C19.3632 10.0706 19.6088 10.2072 19.8722 10.3066C20.1044 10.3945 20.3389 10.4766 20.5733 10.5588L20.5734 10.5588L20.5734 10.5588L20.5735 10.5588L20.5735 10.5589L20.5735 10.5589L20.5736 10.5589L20.5736 10.5589L20.5736 10.5589L20.5736 10.5589L20.5737 10.5589L20.5737 10.5589C20.7098 10.6066 20.8459 10.6543 20.9816 10.7032C21.1725 10.7717 21.3609 10.8473 21.5289 10.9642C21.6506 11.0489 21.7521 11.1513 21.7947 11.2991C21.8721 11.5684 21.7491 11.8663 21.4956 12.0254C21.2873 12.156 21.0537 12.1954 20.8145 12.2038C20.2541 12.2233 19.7651 12.0387 19.3422 11.6743C19.299 11.6371 19.2582 11.5972 19.219 11.5587C19.2009 11.541 19.1832 11.5237 19.1658 11.5071L18.8537 11.819ZM13.0972 12.4457L14.0402 11.5026C14.1929 11.6734 14.373 11.8179 14.5766 11.9314C15.0529 12.197 15.5573 12.2761 16.0889 12.1448C16.2734 12.0992 16.437 12.0117 16.5556 11.8561C16.7739 11.5696 16.7261 11.2093 16.4399 10.9922C16.253 10.8504 16.0361 10.7685 15.8182 10.69C15.6932 10.645 15.5678 10.6011 15.4424 10.5571C15.199 10.4719 14.9557 10.3866 14.7153 10.2936C14.4062 10.1738 14.121 10.0078 13.8797 9.77541C13.5939 9.50001 13.4346 9.16269 13.3896 8.76948C13.3491 8.41578 13.3889 8.07476 13.5462 7.75172C13.7543 7.32404 14.0897 7.02882 14.515 6.82987C14.8361 6.67968 15.1761 6.60569 15.5287 6.5807C16.065 6.54266 16.5823 6.61812 17.0779 6.82987C17.3916 6.96394 17.6751 7.14516 17.9246 7.3787C17.944 7.39692 17.9625 7.41625 17.9807 7.43558C17.9869 7.44214 17.9923 7.44961 17.9955 7.45417C17.9966 7.45568 17.9975 7.45688 17.9981 7.45761C17.7089 7.74646 17.4216 8.03353 17.1418 8.31311L17.1326 8.32229L17.068 8.38685C17.0244 8.3548 16.9807 8.32092 16.9366 8.28664C16.8376 8.20967 16.736 8.13071 16.626 8.06615C16.1931 7.81205 15.731 7.77647 15.2586 7.93602C14.9715 8.03303 14.8267 8.25377 14.8389 8.53889C14.8463 8.71063 14.9342 8.84027 15.0637 8.94515C15.2171 9.06925 15.3945 9.15001 15.5778 9.216C15.7415 9.27496 15.9059 9.33185 16.0703 9.38874L16.0704 9.38878C16.2481 9.4503 16.4259 9.51182 16.6027 9.57597C16.8688 9.67249 17.1242 9.79265 17.3608 9.95035C17.9145 10.3194 18.1751 10.8401 18.1489 11.5004C18.1195 12.2379 17.7425 12.7632 17.1187 13.1247C16.7732 13.325 16.3946 13.4249 15.9984 13.461C15.3368 13.5212 14.6998 13.4267 14.0928 13.1516C13.7425 12.9928 13.4264 12.7832 13.1545 12.5093C13.152 12.5068 13.1495 12.5042 13.1469 12.5017C13.1393 12.4941 13.1317 12.4865 13.1245 12.4784C13.1179 12.471 13.1116 12.4632 13.1054 12.4555L13.1054 12.4555L13.1004 12.4493L13.0974 12.4455L13.0972 12.4457ZM15.0208 14.2268V17.3617H15.0209H15.0982C15.2074 17.3617 15.3167 17.3617 15.4259 17.3618C15.7534 17.3619 16.0809 17.362 16.4083 17.3611C16.4881 17.3608 16.5685 17.3581 16.6473 17.3472C16.909 17.3107 17.1404 17.211 17.3142 17.0038C17.5815 16.6851 17.5711 16.2098 17.2926 15.9265C17.1934 15.8257 17.0742 15.7565 16.9361 15.7054C16.939 15.7035 16.9417 15.7018 16.9442 15.7001L16.949 15.6968L16.9506 15.6957L16.9507 15.6957L16.9507 15.6956C16.954 15.6934 16.957 15.6914 16.9599 15.6895C16.9611 15.6887 16.9623 15.6879 16.9635 15.6872C16.9647 15.6865 16.9658 15.6858 16.9669 15.6851C16.9681 15.6844 16.9694 15.6837 16.9706 15.6831C17.4138 15.4473 17.4412 14.9191 17.2009 14.6006C17.0026 14.3379 16.7222 14.2338 16.4066 14.2269C16.0922 14.2202 15.7775 14.2212 15.4628 14.2223C15.3326 14.2228 15.2023 14.2232 15.072 14.2231C15.0611 14.2231 15.0504 14.2241 15.0385 14.2253C15.0329 14.2258 15.027 14.2263 15.0208 14.2268ZM15.6947 16.7779V16.0298C15.7765 16.0298 15.8581 16.0284 15.9395 16.027C16.1279 16.0238 16.3153 16.0206 16.5013 16.0347C16.7021 16.05 16.8161 16.2132 16.811 16.4129C16.8062 16.6036 16.6772 16.7476 16.4801 16.7708C16.3964 16.7806 16.3116 16.7811 16.2269 16.7816C16.2111 16.7817 16.1953 16.7818 16.1795 16.782C16.0663 16.7831 15.9533 16.7826 15.8401 16.7821H15.8401H15.8401H15.84H15.84H15.84H15.84H15.8399H15.8395C15.797 16.7819 15.7545 16.7817 15.712 16.7816C15.7111 16.7816 15.7101 16.7815 15.709 16.7813C15.7084 16.7812 15.7077 16.7811 15.707 16.7809L15.7048 16.7804L15.7032 16.78C15.7009 16.7794 15.6982 16.7787 15.6947 16.7779ZM15.8935 15.4312C15.8267 15.4306 15.7594 15.43 15.6916 15.43V15.4299V14.8162C15.6935 14.8151 15.6953 14.8139 15.697 14.8127C15.7007 14.8102 15.7041 14.8078 15.7075 14.8078C15.7723 14.8081 15.8371 14.8076 15.902 14.8071H15.902C16.0565 14.806 16.211 14.8048 16.3648 14.8147C16.578 14.8283 16.7034 15.0243 16.6382 15.2188C16.5941 15.3502 16.4928 15.4217 16.3612 15.4274C16.2063 15.434 16.051 15.4326 15.8935 15.4312ZM12.5859 14.2283V14.2285H11.9141V14.3073C11.9141 14.4562 11.914 14.6051 11.914 14.754V14.7541V14.7541C11.9139 15.171 11.9138 15.588 11.9146 16.005C11.9148 16.0929 11.9165 16.1816 11.9273 16.2687C11.966 16.584 12.0895 16.8602 12.3251 17.0784C12.758 17.4795 13.5031 17.5518 14.0217 17.2393C14.4499 16.9814 14.6406 16.5846 14.6466 16.0974C14.6518 15.6756 14.6506 15.2539 14.6493 14.8321L14.6493 14.8312C14.6488 14.6525 14.6483 14.4738 14.6482 14.295C14.6482 14.2806 14.6474 14.2662 14.6465 14.2511L14.6465 14.251L14.6465 14.2509L14.6465 14.2508L14.6465 14.2508C14.646 14.243 14.6455 14.235 14.6452 14.2267H13.9795V14.3027C13.9795 14.4398 13.9796 14.5769 13.9796 14.714V14.714V14.714V14.714V14.714V14.714V14.714V14.714C13.9798 15.1428 13.98 15.5715 13.9784 16.0004C13.978 16.0879 13.9729 16.1775 13.9538 16.2626C13.8943 16.5284 13.7365 16.713 13.4679 16.7782C13.196 16.8442 12.9491 16.7885 12.758 16.5708C12.6209 16.4145 12.585 16.2229 12.5855 16.0207C12.5863 15.612 12.5862 15.2035 12.586 14.7949V14.7948V14.7948V14.7948V14.7948V14.7948V14.7948V14.7948L12.586 14.788C12.586 14.6268 12.5859 14.4657 12.5859 14.3045V14.2285H12.5861L12.5859 14.2283ZM9.09128 16.8096C8.93715 16.6553 8.7909 16.509 8.64058 16.3589V16.3586L8.63537 16.3647L8.62971 16.3714C8.62157 16.3811 8.6134 16.3907 8.60488 16.4001C8.35312 16.6759 8.0462 16.8241 7.66739 16.7979C6.93919 16.7475 6.50585 15.9448 6.86077 15.3066C7.17483 14.7419 7.91103 14.6114 8.42107 15.0317C8.47031 15.0724 8.51591 15.1173 8.56025 15.1611L8.56028 15.1611C8.58067 15.1812 8.60079 15.201 8.62088 15.2201C8.70203 15.1395 8.78368 15.0583 8.86596 14.9766L9.06568 14.7781C9.05992 14.7713 9.05415 14.7641 9.04826 14.7568C9.03563 14.7411 9.02251 14.7247 9.00806 14.7098C8.51501 14.2 7.91927 14.0433 7.24303 14.2286C6.21469 14.5104 5.72914 15.6767 6.25088 16.5864C6.805 17.5522 8.14998 17.7043 8.93801 16.969C8.97531 16.9341 9.01013 16.8966 9.04424 16.8598L9.04426 16.8597C9.06003 16.8427 9.07564 16.8259 9.09128 16.8096ZM10.1715 16.7346H11.6256V17.3563H9.50604V14.2263H10.1715V16.7346ZM17.2143 14.3227H17.3354V14.6368H17.4273V14.3227H17.5485V14.2308H17.2143V14.3227ZM17.669 14.418V14.6368H17.5772V14.2308H17.669H17.6788H17.7213L17.7797 14.4945L17.839 14.2308H17.8862H17.9732V14.6368H17.8814V14.459L17.8436 14.6368H17.7166L17.669 14.418Z"/>

</symbol><symbol viewBox="0 0 24 24" id="i--v4-brmarket"><title>v4-brmarket</title>
<g id="v4-brmarket-BR Market">
<path id="v4-brmarket-Vector" d="M12.1 21C11.8167 21 11.5792 20.9042 11.3875 20.7125C11.1958 20.5208 11.1 20.2833 11.1 20C11.1 19.8833 11.125 19.7625 11.175 19.6375C11.225 19.5125 11.3 19.4 11.4 19.3L16.025 14.675L15.3 13.95L10.7 18.575C10.6 18.675 10.4917 18.75 10.375 18.8C10.2583 18.85 10.1333 18.875 10 18.875C9.71667 18.875 9.47917 18.7792 9.2875 18.5875C9.09583 18.3958 9 18.1583 9 17.875C9 17.7083 9.025 17.5708 9.075 17.4625C9.125 17.3542 9.19167 17.2583 9.275 17.175L13.9 12.55L13.2 11.85L8.575 16.45C8.475 16.55 8.36667 16.625 8.25 16.675C8.13333 16.725 8 16.75 7.85 16.75C7.58333 16.75 7.35 16.65 7.15 16.45C6.95 16.25 6.85 16.0167 6.85 15.75C6.85 15.6167 6.875 15.4917 6.925 15.375C6.975 15.2583 7.05 15.15 7.15 15.05L11.775 10.425L11.05 9.725L6.45 14.35C6.36667 14.4333 6.26667 14.5 6.15 14.55C6.03333 14.6 5.89167 14.625 5.725 14.625C5.44167 14.625 5.20417 14.5292 5.0125 14.3375C4.82083 14.1458 4.725 13.9083 4.725 13.625C4.725 13.4917 4.75 13.3667 4.8 13.25C4.85 13.1333 4.925 13.025 5.025 12.925L10.6 7.35L14.35 11.125C14.5333 11.3083 14.75 11.4542 15 11.5625C15.25 11.6708 15.5 11.725 15.75 11.725C16.2833 11.725 16.75 11.5375 17.15 11.1625C17.55 10.7875 17.75 10.3083 17.75 9.725C17.75 9.49167 17.7083 9.25 17.625 9C17.5417 8.75 17.3917 8.51667 17.175 8.3L12.7 3.825C12.9833 3.55833 13.3 3.35417 13.65 3.2125C14 3.07083 14.35 3 14.7 3C15.1333 3 15.5333 3.07083 15.9 3.2125C16.2667 3.35417 16.6 3.575 16.9 3.875L21.125 8.125C21.425 8.425 21.6458 8.75833 21.7875 9.125C21.9292 9.49167 22 9.91667 22 10.4C22 10.7333 21.925 11.0708 21.775 11.4125C21.625 11.7542 21.4083 12.0667 21.125 12.35L12.8 20.7C12.6667 20.8333 12.55 20.9167 12.45 20.95C12.35 20.9833 12.2333 21 12.1 21ZM3.525 13L2.875 12.35C2.59167 12.0833 2.375 11.7667 2.225 11.4C2.075 11.0333 2 10.65 2 10.25C2 9.81667 2.08333 9.41667 2.25 9.05C2.41667 8.68333 2.625 8.375 2.875 8.125L7.1 3.875C7.36667 3.60833 7.68333 3.39583 8.05 3.2375C8.41667 3.07917 8.775 3 9.125 3C9.575 3 9.975 3.0625 10.325 3.1875C10.675 3.3125 11.0167 3.54167 11.35 3.875L16.475 9C16.575 9.1 16.65 9.20833 16.7 9.325C16.75 9.44167 16.775 9.56667 16.775 9.7C16.775 9.96667 16.675 10.2 16.475 10.4C16.275 10.6 16.0417 10.7 15.775 10.7C15.625 10.7 15.5 10.6792 15.4 10.6375C15.3 10.5958 15.1917 10.5167 15.075 10.4L10.575 5.95L3.525 13Z"/>
</g>
</symbol><symbol viewBox="0 0 24 24" id="i--v4-byod"><title>v4-byod</title>
<path d="M10 2C9.621 2 9.27075 2.11192 8.96875 2.29492C9.09575 2.36192 9.21703 2.43739 9.33203 2.52539C10.157 3.16239 10.6835 4.049 10.8945 5H17C17.552 5 18 5.448 18 6H20V4C20 2.895 19.105 2 18 2H10ZM7.76367 4.00391C7.64255 4.01291 7.52359 4.0647 7.43359 4.1582L3.33789 8.56055C2.47689 9.48555 2 10.7018 2 11.9668V18C2 19.105 2.895 20 4 20H6V11.7246L8.67578 7.08789C9.27078 6.09489 9.02733 4.81537 8.11133 4.10938C8.00883 4.02988 7.8848 3.99491 7.76367 4.00391ZM18 7C17.448 7 17 7.448 17 8C17 8.552 17.448 9 18 9H20C20.552 9 21 8.552 21 8C21 7.448 20.552 7 20 7H18ZM10 8.79492L8 12.2598V20C8 21.105 8.895 22 10 22H18C19.105 22 20 21.105 20 20V19H18H13H11C10.448 19 10 18.552 10 18V8.79492ZM17 10C16.448 10 16 10.448 16 11C16 11.552 16.448 12 17 12H21C21.552 12 22 11.552 22 11C22 10.448 21.552 10 21 10H17ZM17 13C16.448 13 16 13.448 16 14C16 14.552 16.448 15 17 15H21C21.552 15 22 14.552 22 14C22 13.448 21.552 13 21 13H17ZM18 16C17.448 16 17 16.448 17 17C17 17.552 17.448 18 18 18H20C20.552 18 21 17.552 21 17C21 16.448 20.552 16 20 16H18Z"/>
</symbol><symbol viewBox="0 0 24 24" id="i--v4-combo"><title>v4-combo</title>
<path fill-rule="evenodd" clip-rule="evenodd" d="M15.2392 10.0404C15.5637 10.3848 15.9704 10.618 16.4592 10.74V11.9039H17.601V10.7662C18.1299 10.6703 18.5706 10.448 18.9231 10.0993C19.2757 9.75054 19.452 9.24926 19.452 8.5954C19.452 8.03745 19.2957 7.55795 18.9832 7.15692C18.6707 6.75589 18.222 6.45948 17.6371 6.26768C17.0121 6.06717 16.6094 5.89717 16.4291 5.75768C16.4066 5.74024 16.3854 5.72213 16.3657 5.70333C16.2277 5.57174 16.1587 5.40678 16.1587 5.20844C16.1587 5.03408 16.2248 4.88805 16.357 4.77036C16.4892 4.65267 16.7036 4.59382 17 4.59382C17.2805 4.59382 17.5109 4.66792 17.6911 4.81613C17.8714 4.96434 18.0056 5.16921 18.0938 5.43075L19.3077 4.88152C19.2992 4.85482 19.2904 4.8284 19.2813 4.80226C19.1449 4.4102 18.9434 4.08136 18.6767 3.81573C18.3923 3.5324 18.0337 3.33842 17.601 3.2338V2.0961H16.4592V3.2338C16.0024 3.3297 15.6158 3.55637 15.2993 3.91381C14.9828 4.27125 14.8245 4.71587 14.8245 5.24767C14.8245 5.75332 14.9607 6.18922 15.2332 6.55538C15.5056 6.92154 15.9704 7.21359 16.6274 7.43154C17.2524 7.63206 17.6571 7.8195 17.8414 7.99386C18.0257 8.16822 18.1178 8.37745 18.1178 8.62156C18.1178 8.8831 18.0297 9.07489 17.8534 9.19695C17.6771 9.319 17.4367 9.38003 17.1322 9.38003C16.7957 9.38003 16.5152 9.27977 16.2909 9.07925C16.0665 8.87874 15.8983 8.55181 15.7861 8.09847L14.5481 8.60848C14.6843 9.21874 14.9147 9.69606 15.2392 10.0404ZM19.22 15.25L16.7 14.96C16.09 14.89 15.49 15.1 15.06 15.53L13.21 17.38C11.791 16.66 10.504 15.721 9.39204 14.608C8.27904 13.496 7.34004 12.209 6.62004 10.79L8.47004 8.94001C8.90004 8.51001 9.11004 7.91001 9.04004 7.30001L8.75004 4.78001C8.63004 3.77001 7.78004 3.01001 6.76004 3.01001H5.03004C3.90004 3.01001 2.96004 3.95001 3.03004 5.08001C3.29504 9.34901 5.13404 13.188 7.97304 16.027C10.812 18.866 14.651 20.705 18.92 20.97C20.05 21.04 20.99 20.1 20.99 18.97V17.24C20.99 16.22 20.23 15.37 19.22 15.25Z"/>
</symbol><symbol viewBox="0 0 24 24" id="i--v4-compliance"><title>v4-compliance</title>
<path d="M6 22C5.45 22 4.97917 21.8042 4.5875 21.4125C4.19583 21.0208 4 20.55 4 20V4C4 3.45 4.19583 2.97917 4.5875 2.5875C4.97917 2.19583 5.45 2 6 2H13.175C13.4417 2 13.6958 2.05 13.9375 2.15C14.1792 2.25 14.3917 2.39167 14.575 2.575L19.425 7.425C19.6083 7.60833 19.75 7.82083 19.85 8.0625C19.95 8.30417 20 8.55833 20 8.825V20C20 20.55 19.8042 21.0208 19.4125 21.4125C19.0208 21.8042 18.55 22 18 22H6ZM13 8C13 8.28333 13.0958 8.52083 13.2875 8.7125C13.4792 8.90417 13.7167 9 14 9H18L13 4V8ZM10.925 15.125L9.525 13.725C9.425 13.625 9.31667 13.55 9.2 13.5C9.08333 13.45 8.9625 13.425 8.8375 13.425C8.7125 13.425 8.5875 13.45 8.4625 13.5C8.3375 13.55 8.225 13.625 8.125 13.725C7.925 13.925 7.825 14.1625 7.825 14.4375C7.825 14.7125 7.925 14.95 8.125 15.15L10.25 17.3C10.35 17.4 10.4583 17.4708 10.575 17.5125C10.6917 17.5542 10.8167 17.575 10.95 17.575C11.0833 17.575 11.2083 17.5542 11.325 17.5125C11.4417 17.4708 11.55 17.4 11.65 17.3L15.875 13.075C16.075 12.875 16.175 12.6333 16.175 12.35C16.175 12.0667 16.075 11.825 15.875 11.625C15.675 11.425 15.4333 11.325 15.15 11.325C14.8667 11.325 14.625 11.425 14.425 11.625L10.925 15.125Z"/>
</symbol><symbol viewBox="0 0 24 24" id="i--v4-dmtu"><title>v4-dmtu</title>
<g id="v4-dmtu-Mobile Recharges">
<path id="v4-dmtu-Vector" d="M7 1C5.895 1 5 1.895 5 3V21C5 22.105 5.895 23 7 23H17C18.105 23 19 22.105 19 21V3C19 1.895 18.105 1 17 1H7ZM8 4H16C16.552 4 17 4.448 17 5V19C17 19.552 16.552 20 16 20H8C7.448 20 7 19.552 7 19V5C7 4.448 7.448 4 8 4ZM12.2148 5.59961C11.9378 5.59961 11.7129 5.82456 11.7129 6.10156V7.0293C11.3739 7.0723 9.47656 7.42875 9.47656 9.71875C9.47656 13.0598 12.9355 12.0718 12.9355 14.3008C12.9355 15.4168 12.2134 15.4434 12.0664 15.4434C11.9514 15.4434 11.2886 15.4946 11.1016 14.4336C11.0366 14.0626 10.6885 13.8066 10.3105 13.8066H10.0488C9.55383 13.8066 9.15109 14.2513 9.24609 14.7363C9.64109 16.7503 11.2983 16.9327 11.5723 16.9707V17.8008C11.5723 18.0778 11.7972 18.3008 12.0742 18.3008C12.3512 18.3008 12.5742 18.0778 12.5742 17.8008V16.9707C12.9122 16.9287 14.8242 16.6132 14.8242 14.2852C14.8242 11.0802 11.3662 11.6936 11.3672 9.72656C11.3672 8.59956 11.9871 8.56445 12.1211 8.56445C12.3171 8.56445 12.7297 8.70489 12.8867 9.46289C12.9677 9.85689 13.2855 10.1543 13.6875 10.1543H13.9453C14.4693 10.1543 14.8503 9.66044 14.7363 9.14844C14.3513 7.41544 12.9967 7.10964 12.7227 7.05664V6.10156C12.7227 5.82456 12.4977 5.59961 12.2207 5.59961H12.2148Z"/>
</g>
</symbol><symbol viewBox="0 0 24 24" id="i--v4-files"><title>v4-files</title>
<path d="M4 20C3.45 20 2.97917 19.8042 2.5875 19.4125C2.19583 19.0208 2 18.55 2 18V6C2 5.45 2.19583 4.97917 2.5875 4.5875C2.97917 4.19583 3.45 4 4 4H9.175C9.44167 4 9.69583 4.05 9.9375 4.15C10.1792 4.25 10.3917 4.39167 10.575 4.575L12 6H20C20.55 6 21.0208 6.19583 21.4125 6.5875C21.8042 6.97917 22 7.45 22 8H6C5.45 8 4.97917 8.19583 4.5875 8.5875C4.19583 8.97917 4 9.45 4 10V18L5.975 11.425C6.10833 10.9917 6.35417 10.6458 6.7125 10.3875C7.07083 10.1292 7.46667 10 7.9 10H20.8C21.4833 10 22.0208 10.2708 22.4125 10.8125C22.8042 11.3542 22.9083 11.9417 22.725 12.575L20.925 18.575C20.7917 19.0083 20.5458 19.3542 20.1875 19.6125C19.8292 19.8708 19.4333 20 19 20H4Z"/>
</symbol><symbol viewBox="0 0 24 24" id="i--v4-hc"><title>v4-hc</title>
<g id="v4-hc-Hard Card">
<path id="v4-hc-Subtract" fill-rule="evenodd" clip-rule="evenodd" d="M11.4031 18.4531L14.9244 21.9744C14.9385 21.9885 14.9615 21.9885 14.9756 21.9744L21.2999 15.6501C21.6885 15.2615 21.694 14.6331 21.3123 14.2377C20.9209 13.8324 20.2733 13.8267 19.8749 14.2251L14.95 19.15L12.803 17.0407C12.4138 16.6583 11.789 16.661 11.4031 17.0469C11.0148 17.4352 11.0148 18.0648 11.4031 18.4531ZM2.5875 4.5875C2.19583 4.97917 2 5.45 2 6V18C2 18.55 2.19583 19.0208 2.5875 19.4125C2.97917 19.8042 3.45 20 4 20H7.1C7.65228 20 8.1 19.5523 8.1 19V18V17.75L11.4184 14.2461C11.8055 13.8374 12.4535 13.8285 12.8516 14.2266L14.2429 15.6179C14.6334 16.0084 15.2666 16.0084 15.6571 15.6179L19.275 12H21C21.5523 12 22 11.5523 22 11V6C22 5.45 21.8042 4.97917 21.4125 4.5875C21.0208 4.19583 20.55 4 20 4H4C3.45 4 2.97917 4.19583 2.5875 4.5875ZM11.8135 9.43361C11.9936 9.10022 12.0837 8.6959 12.0837 8.22064C12.0837 7.74538 11.9936 7.34105 11.8135 7.00766C11.6347 6.67427 11.3907 6.42032 11.0814 6.24583C10.7736 6.06991 10.4274 5.98195 10.0429 5.98195C9.65564 5.98195 9.30806 6.06991 9.00021 6.24583C8.69236 6.42032 8.44905 6.67427 8.2703 7.00766C8.09154 7.34105 8.00216 7.74538 8.00216 8.22064C8.00216 8.69448 8.09154 9.09809 8.2703 9.43149C8.44905 9.76488 8.69236 10.0195 9.00021 10.1954C9.30806 10.3714 9.65564 10.4593 10.0429 10.4593C10.4274 10.4593 10.7736 10.3721 11.0814 10.1976C11.3907 10.0217 11.6347 9.76701 11.8135 9.43361ZM11.0112 7.44178C11.1034 7.65316 11.1495 7.91278 11.1495 8.22064C11.1495 8.52849 11.1034 8.78811 11.0112 8.9995C10.9204 9.21088 10.792 9.37119 10.626 9.48043C10.46 9.58967 10.2657 9.64429 10.0429 9.64429C9.82021 9.64429 9.62585 9.58967 9.45986 9.48043C9.29388 9.37119 9.16478 9.21088 9.07256 8.9995C8.98177 8.78811 8.93637 8.52849 8.93637 8.22064C8.93637 7.91278 8.98177 7.65316 9.07256 7.44178C9.16478 7.23039 9.29388 7.07008 9.45986 6.96084C9.62585 6.8516 9.82021 6.79698 10.0429 6.79698C10.2657 6.79698 10.46 6.8516 10.626 6.96084C10.792 7.07008 10.9204 7.23039 11.0112 7.44178ZM4.11691 6.04153V10.3997H5.97894C6.30524 10.3997 6.57975 10.3472 6.80249 10.2423C7.02522 10.1373 7.19334 9.99471 7.30683 9.81453C7.42174 9.63294 7.4792 9.42652 7.4792 9.19528C7.4792 8.98105 7.4338 8.79662 7.34301 8.64199C7.25221 8.48593 7.13375 8.36463 6.98763 8.27809C6.84292 8.19155 6.68757 8.14474 6.52159 8.13764V8.09508C6.67339 8.06103 6.80816 8.00358 6.92591 7.92271C7.04508 7.84043 7.13872 7.73545 7.20681 7.60776C7.27491 7.47866 7.30896 7.32899 7.30896 7.15875C7.30896 6.94027 7.25505 6.74733 7.14723 6.57993C7.03941 6.4111 6.87839 6.27916 6.66417 6.18411C6.44994 6.08906 6.18252 6.04153 5.8619 6.04153H4.11691ZM5.78954 9.64642H5.03835V8.48877H5.81082C5.95837 8.48877 6.08534 8.51501 6.19174 8.56751C6.29956 8.62 6.38256 8.69235 6.44072 8.78456C6.49889 8.87678 6.52797 8.98318 6.52797 9.10377C6.52797 9.26834 6.4691 9.40028 6.35134 9.49958C6.23359 9.59747 6.04633 9.64642 5.78954 9.64642ZM5.72145 7.86526H5.03835V6.78634H5.73847C5.94276 6.78634 6.10024 6.83458 6.21089 6.93105C6.32297 7.02752 6.37901 7.15449 6.37901 7.31197C6.37901 7.42688 6.34993 7.52548 6.29176 7.60776C6.23501 7.69005 6.15698 7.75389 6.05768 7.79929C5.95979 7.84327 5.84771 7.86526 5.72145 7.86526ZM15.1305 7.29494C15.1135 7.12328 15.0404 6.98993 14.9113 6.89487C14.7822 6.79982 14.607 6.7523 14.3857 6.7523C14.2353 6.7523 14.1084 6.77358 14.0048 6.81614C13.9012 6.85728 13.8218 6.91474 13.7665 6.98851C13.7126 7.06228 13.6856 7.14598 13.6856 7.23961C13.6828 7.31764 13.6991 7.38574 13.7345 7.44391C13.7714 7.50207 13.8218 7.55244 13.8856 7.595C13.9495 7.63614 14.0232 7.67231 14.107 7.70353C14.1907 7.73332 14.28 7.75885 14.3751 7.78013L14.7666 7.87377C14.9567 7.91633 15.1312 7.97308 15.2901 8.04401C15.449 8.11494 15.5866 8.20219 15.703 8.30576C15.8193 8.40932 15.9094 8.53133 15.9732 8.67178C16.0385 8.81223 16.0718 8.97325 16.0733 9.15484C16.0718 9.42156 16.0037 9.6528 15.869 9.84858C15.7356 10.0429 15.5427 10.194 15.2901 10.3019C15.039 10.4083 14.7361 10.4615 14.3815 10.4615C14.0296 10.4615 13.7232 10.4075 13.4622 10.2997C13.2025 10.1919 12.9997 10.0323 12.8535 9.82092C12.7088 9.60811 12.6329 9.34495 12.6258 9.03142H13.5175C13.5274 9.17754 13.5693 9.29955 13.643 9.39744C13.7182 9.49391 13.8182 9.56697 13.9431 9.61662C14.0694 9.66486 14.2119 9.68898 14.3708 9.68898C14.5269 9.68898 14.6624 9.66628 14.7773 9.62088C14.8936 9.57548 14.9837 9.51235 15.0475 9.43149C15.1114 9.35062 15.1433 9.2577 15.1433 9.15271C15.1433 9.05482 15.1142 8.97254 15.0561 8.90586C14.9993 8.83918 14.9156 8.78244 14.8049 8.73562C14.6957 8.6888 14.5616 8.64624 14.4027 8.60794L13.9282 8.48877C13.5608 8.39939 13.2706 8.25965 13.0578 8.06955C12.845 7.87944 12.7393 7.62337 12.7408 7.30133C12.7393 7.03745 12.8096 6.80692 12.9514 6.60972C13.0947 6.41252 13.2912 6.25859 13.5409 6.14794C13.7906 6.03728 14.0743 5.98195 14.3921 5.98195C14.7156 5.98195 14.9979 6.03728 15.2391 6.14794C15.4817 6.25859 15.6703 6.41252 15.8051 6.60972C15.9399 6.80692 16.0094 7.03532 16.0137 7.29494H15.1305ZM18.8381 6.89487C18.9672 6.98993 19.0403 7.12328 19.0573 7.29494H19.9404C19.9362 7.03532 19.8666 6.80692 19.7319 6.60972C19.5971 6.41252 19.4084 6.25859 19.1658 6.14794C18.9246 6.03728 18.6423 5.98195 18.3189 5.98195C18.0011 5.98195 17.7173 6.03728 17.4676 6.14794C17.218 6.25859 17.0215 6.41252 16.8782 6.60972C16.7363 6.80692 16.6661 7.03745 16.6675 7.30133C16.6661 7.62337 16.7718 7.87944 16.9846 8.06955C17.1974 8.25965 17.4875 8.39939 17.8549 8.48877L18.3295 8.60794C18.4884 8.64624 18.6225 8.6888 18.7317 8.73562C18.8424 8.78244 18.9261 8.83918 18.9828 8.90586C19.041 8.97254 19.07 9.05482 19.07 9.15271C19.07 9.2577 19.0381 9.35062 18.9743 9.43149C18.9104 9.51235 18.8204 9.57548 18.704 9.62088C18.5891 9.66628 18.4536 9.68898 18.2976 9.68898C18.1387 9.68898 17.9961 9.66486 17.8698 9.61662C17.745 9.56697 17.645 9.49391 17.5698 9.39744C17.496 9.29955 17.4542 9.17754 17.4442 9.03142H16.5526C16.5597 9.34495 16.6356 9.60811 16.7803 9.82092C16.9264 10.0323 17.1293 10.1919 17.3889 10.2997C17.6499 10.4075 17.9564 10.4615 18.3082 10.4615C18.6629 10.4615 18.9658 10.4083 19.2169 10.3019C19.4694 10.194 19.6624 10.0429 19.7957 9.84858C19.9305 9.6528 19.9986 9.42156 20 9.15484C19.9986 8.97325 19.9652 8.81223 19.9 8.67178C19.8361 8.53133 19.7461 8.40932 19.6297 8.30576C19.5134 8.20219 19.3758 8.11494 19.2169 8.04401C19.058 7.97308 18.8835 7.91633 18.6934 7.87377L18.3018 7.78013C18.2068 7.75885 18.1174 7.73332 18.0337 7.70353C17.95 7.67231 17.8762 7.63614 17.8124 7.595C17.7485 7.55244 17.6982 7.50207 17.6613 7.44391C17.6258 7.38574 17.6095 7.31764 17.6123 7.23961C17.6123 7.14598 17.6393 7.06228 17.6932 6.98851C17.7485 6.91474 17.828 6.85728 17.9316 6.81614C18.0351 6.77358 18.1621 6.7523 18.3125 6.7523C18.5338 6.7523 18.709 6.79982 18.8381 6.89487Z"/>
</g>
</symbol><symbol viewBox="0 0 24 24" id="i--v4-home"><title>v4-home</title>
<path d="M6 21C5.45 21 4.97917 20.8042 4.5875 20.4125C4.19583 20.0208 4 19.55 4 19V10C4 9.68333 4.07083 9.38333 4.2125 9.1C4.35417 8.81667 4.55 8.58333 4.8 8.4L10.8 3.9C10.9833 3.76667 11.175 3.66667 11.375 3.6C11.575 3.53333 11.7833 3.5 12 3.5C12.2167 3.5 12.425 3.53333 12.625 3.6C12.825 3.66667 13.0167 3.76667 13.2 3.9L19.2 8.4C19.45 8.58333 19.6458 8.81667 19.7875 9.1C19.9292 9.38333 20 9.68333 20 10V19C20 19.55 19.8042 20.0208 19.4125 20.4125C19.0208 20.8042 18.55 21 18 21H14V14H10V21H6Z"/>
</symbol><symbol viewBox="0 0 24 24" id="i--v4-imtu"><title>v4-imtu</title>
<g id="v4-imtu-Mobile Recharges">
<path id="v4-imtu-Vector" d="M7 1C5.895 1 5 1.895 5 3V21C5 22.105 5.895 23 7 23H17C18.105 23 19 22.105 19 21V3C19 1.895 18.105 1 17 1H7ZM8 4H16C16.552 4 17 4.448 17 5V19C17 19.552 16.552 20 16 20H8C7.448 20 7 19.552 7 19V5C7 4.448 7.448 4 8 4ZM12.2148 5.59961C11.9378 5.59961 11.7129 5.82456 11.7129 6.10156V7.0293C11.3739 7.0723 9.47656 7.42875 9.47656 9.71875C9.47656 13.0598 12.9355 12.0718 12.9355 14.3008C12.9355 15.4168 12.2134 15.4434 12.0664 15.4434C11.9514 15.4434 11.2886 15.4946 11.1016 14.4336C11.0366 14.0626 10.6885 13.8066 10.3105 13.8066H10.0488C9.55383 13.8066 9.15109 14.2513 9.24609 14.7363C9.64109 16.7503 11.2983 16.9327 11.5723 16.9707V17.8008C11.5723 18.0778 11.7972 18.3008 12.0742 18.3008C12.3512 18.3008 12.5742 18.0778 12.5742 17.8008V16.9707C12.9122 16.9287 14.8242 16.6132 14.8242 14.2852C14.8242 11.0802 11.3662 11.6936 11.3672 9.72656C11.3672 8.59956 11.9871 8.56445 12.1211 8.56445C12.3171 8.56445 12.7297 8.70489 12.8867 9.46289C12.9677 9.85689 13.2855 10.1543 13.6875 10.1543H13.9453C14.4693 10.1543 14.8503 9.66044 14.7363 9.14844C14.3513 7.41544 12.9967 7.10964 12.7227 7.05664V6.10156C12.7227 5.82456 12.4977 5.59961 12.2207 5.59961H12.2148Z"/>
</g>
</symbol><symbol viewBox="0 0 24 24" id="i--v4-kiosk"><title>v4-kiosk</title>
<path d="M12.32 19.6804C13.28 19.6804 14.16 19.6804 15.12 19.6804C15.6 19.6804 16.08 19.5204 16.4 19.1204C16.72 18.7205 16.64 18.1606 16.48 17.7606C16.32 17.2807 15.92 17.0407 15.44 17.0407C14.08 16.8808 12.72 16.8008 11.36 16.6408C11.28 16.6408 11.12 16.5608 11.12 16.4808C10.8 15.7609 10.56 15.121 10.24 14.4011C9.84 13.5213 9.52 12.6414 9.04 11.7615C7.76 9.44189 5.44 9.44189 4.08 10.2418C3.12 10.7217 2.8 11.7615 2.48 12.8014C2 14.3212 2 20.8002 2 22H7.84C7.84 21.3601 7.84 20.7202 7.84 20.0803C7.84 19.9203 7.84 19.8403 7.76 19.6804C7.28 18.8005 6.8 17.9206 6.4 17.0407C6.08 16.4808 5.84 15.8409 5.6 15.281C5.52 15.121 5.44 14.9611 5.36 14.8011C5.6 14.7211 5.84 14.6411 6.08 14.5611C6.24 14.4811 6.32 14.5611 6.4 14.7211C6.96 15.9209 7.6 17.2007 8.16 18.4005C8.56 19.2004 9.12 19.6004 10 19.6004C10.88 19.6004 11.6 19.6804 12.32 19.6804ZM22 17.2807C22 15.601 22 13.9212 22 12.1615C22 12.0015 22 11.8415 21.92 11.7615C21.6 10.9617 21.28 10.2418 20.96 9.44189C20.8 9.12194 20.64 8.96197 20.32 8.96197C19.36 8.96197 18.48 8.96197 17.52 8.96197C16.72 8.96197 15.84 8.96197 15.04 9.04195C14.56 9.04195 14 9.04195 13.52 9.04195C13.2 9.04195 12.96 9.12194 12.88 9.44189C12.8 9.60187 12.72 9.76185 12.64 9.84183C12.08 10.8017 11.6 11.7615 11.04 12.8014C11.04 12.8814 10.96 12.9614 11.04 13.0414C11.2 13.4413 11.36 13.7612 11.52 14.1612C11.68 13.9212 11.76 13.7612 11.84 13.5213C12.4 12.4014 13.04 11.2816 13.6 10.1618C13.68 10.0818 13.76 10.0018 13.92 10.0018C14.4 10.0018 14.88 10.0018 15.36 10.0018C16.72 10.0018 18 10.0018 19.36 10.0018H19.68C18.56 12.0015 17.44 14.0012 16.24 16.0009C16.32 16.0009 16.4 16.0809 16.48 16.0809C16.96 16.3209 17.36 16.5608 17.6 17.1207C18 18.2406 17.84 19.5204 16.96 20.1603C16.4 20.5602 15.84 20.6402 15.2 20.6402C13.52 20.6402 11.84 20.6402 10.16 20.6402C10 20.6402 10 20.6402 9.84 20.6402V22H22C22 21.92 22 21.84 22 21.68C22 20.2403 22 18.7205 22 17.2807ZM9.04 9.20193C10.96 9.12194 12.56 7.36221 12.4 5.52249C12.32 3.4428 10.64 1.92303 8.64 2.00302C6.64 2.083 5.12 3.84274 5.2 5.84244C5.36 7.84214 7.04 9.28192 9.04 9.20193Z"/>
</symbol><symbol viewBox="0 0 24 24" id="i--v4-login"><title>v4-login</title>
<path d="M9.325 16.275C9.14167 16.0583 9.05 15.8125 9.05 15.5375C9.05 15.2625 9.14167 15.0333 9.325 14.85L11.175 13H4C3.71667 13 3.47917 12.9042 3.2875 12.7125C3.09583 12.5208 3 12.2833 3 12C3 11.7167 3.09583 11.4792 3.2875 11.2875C3.47917 11.0958 3.71667 11 4 11H11.175L9.325 9.15C9.125 8.95 9.025 8.7125 9.025 8.4375C9.025 8.1625 9.125 7.925 9.325 7.725C9.50833 7.525 9.7375 7.425 10.0125 7.425C10.2875 7.425 10.5167 7.51667 10.7 7.7L14.3 11.3C14.4 11.4 14.4708 11.5083 14.5125 11.625C14.5542 11.7417 14.575 11.8667 14.575 12C14.575 12.1333 14.5542 12.2583 14.5125 12.375C14.4708 12.4917 14.4 12.6 14.3 12.7L10.7 16.3C10.5 16.5 10.2667 16.5917 10 16.575C9.73333 16.5583 9.50833 16.4583 9.325 16.275ZM13 21C12.7167 21 12.4792 20.9042 12.2875 20.7125C12.0958 20.5208 12 20.2833 12 20C12 19.7167 12.0958 19.4792 12.2875 19.2875C12.4792 19.0958 12.7167 19 13 19H19V5H13C12.7167 5 12.4792 4.90417 12.2875 4.7125C12.0958 4.52083 12 4.28333 12 4C12 3.71667 12.0958 3.47917 12.2875 3.2875C12.4792 3.09583 12.7167 3 13 3H19C19.55 3 20.0208 3.19583 20.4125 3.5875C20.8042 3.97917 21 4.45 21 5V19C21 19.55 20.8042 20.0208 20.4125 20.4125C20.0208 20.8042 19.55 21 19 21H13Z"/>
</symbol><symbol viewBox="0 0 24 24" id="i--v4-manage-agents"><title>v4-manage-agents</title>
<path d="M2 20C1.71667 20 1.47917 19.9042 1.2875 19.7125C1.09583 19.5208 1 19.2833 1 19V17.2C1 16.6333 1.14583 16.1125 1.4375 15.6375C1.72917 15.1625 2.11667 14.8 2.6 14.55C3.63333 14.0333 4.68333 13.6458 5.75 13.3875C6.81667 13.1292 7.9 13 9 13C10.1 13 11.1833 13.1292 12.25 13.3875C13.3167 13.6458 14.3667 14.0333 15.4 14.55C15.8833 14.8 16.2708 15.1625 16.5625 15.6375C16.8542 16.1125 17 16.6333 17 17.2V19C17 19.2833 16.9042 19.5208 16.7125 19.7125C16.5208 19.9042 16.2833 20 16 20H2ZM18.525 20C18.675 19.8833 18.7917 19.7375 18.875 19.5625C18.9583 19.3875 19 19.1917 19 18.975V17C19 16.2667 18.7958 15.5625 18.3875 14.8875C17.9792 14.2125 17.4 13.6333 16.65 13.15C17.5 13.25 18.3 13.4208 19.05 13.6625C19.8 13.9042 20.5 14.2 21.15 14.55C21.75 14.8833 22.2083 15.2542 22.525 15.6625C22.8417 16.0708 23 16.5167 23 17V19C23 19.2833 22.9042 19.5208 22.7125 19.7125C22.5208 19.9042 22.2833 20 22 20H18.525ZM9 12C7.9 12 6.95833 11.6083 6.175 10.825C5.39167 10.0417 5 9.1 5 8C5 6.9 5.39167 5.95833 6.175 5.175C6.95833 4.39167 7.9 4 9 4C10.1 4 11.0417 4.39167 11.825 5.175C12.6083 5.95833 13 6.9 13 8C13 9.1 12.6083 10.0417 11.825 10.825C11.0417 11.6083 10.1 12 9 12ZM19 8C19 9.1 18.6083 10.0417 17.825 10.825C17.0417 11.6083 16.1 12 15 12C14.8167 12 14.5833 11.9792 14.3 11.9375C14.0167 11.8958 13.7833 11.85 13.6 11.8C14.05 11.2667 14.3958 10.675 14.6375 10.025C14.8792 9.375 15 8.7 15 8C15 7.3 14.8792 6.625 14.6375 5.975C14.3958 5.325 14.05 4.73333 13.6 4.2C13.8333 4.11667 14.0667 4.0625 14.3 4.0375C14.5333 4.0125 14.7667 4 15 4C16.1 4 17.0417 4.39167 17.825 5.175C18.6083 5.95833 19 6.9 19 8Z"/>
</symbol><symbol viewBox="0 0 24 24" id="i--v4-manage-stores"><title>v4-manage-stores</title>
<path d="M4 4C2.897 4 2 4.897 2 6V18C2 19.103 2.897 20 4 20H20C21.103 20 22 19.103 22 18V6C22 4.897 21.103 4 20 4H4ZM6 6H20V18H19.9961H6V6ZM9 7C8.86749 6.99813 8.73593 7.02261 8.61296 7.07202C8.48999 7.12143 8.37807 7.1948 8.2837 7.28784C8.18933 7.38088 8.11439 7.49176 8.06324 7.61401C8.0121 7.73627 7.98576 7.86747 7.98576 8C7.98576 8.13252 8.0121 8.26373 8.06324 8.38599C8.11439 8.50824 8.18933 8.61912 8.2837 8.71216C8.37807 8.8052 8.48999 8.87857 8.61296 8.92798C8.73593 8.97739 8.86749 9.00187 9 9H9.32227L11.0723 13.3711C11.1464 13.5566 11.2744 13.7156 11.4398 13.8277C11.6051 13.9398 11.8002 13.9998 12 14H16C16.2099 14.0001 16.4146 13.9341 16.585 13.8115C16.7553 13.6888 16.8828 13.5156 16.9492 13.3164L17.9492 10.3164C17.9994 10.166 18.013 10.0059 17.9891 9.8492C17.9652 9.6925 17.9044 9.54374 17.8117 9.41517C17.719 9.28659 17.597 9.1819 17.4559 9.10972C17.3148 9.03753 17.1585 8.99993 17 9H16H11.4766L10.9277 7.62891C10.8536 7.44341 10.7256 7.28437 10.5602 7.17228C10.3949 7.06019 10.1998 7.00019 10 7H9ZM4 11C4.552 11 5 11.448 5 12C5 12.552 4.552 13 4 13C3.448 13 3 12.552 3 12C3 11.448 3.448 11 4 11ZM12 15C11.7348 15 11.4804 15.1054 11.2929 15.2929C11.1054 15.4804 11 15.7348 11 16C11 16.2652 11.1054 16.5196 11.2929 16.7071C11.4804 16.8946 11.7348 17 12 17C12.2652 17 12.5196 16.8946 12.7071 16.7071C12.8946 16.5196 13 16.2652 13 16C13 15.7348 12.8946 15.4804 12.7071 15.2929C12.5196 15.1054 12.2652 15 12 15ZM16 15C15.7348 15 15.4804 15.1054 15.2929 15.2929C15.1054 15.4804 15 15.7348 15 16C15 16.2652 15.1054 16.5196 15.2929 16.7071C15.4804 16.8946 15.7348 17 16 17C16.2652 17 16.5196 16.8946 16.7071 16.7071C16.8946 16.5196 17 16.2652 17 16C17 15.7348 16.8946 15.4804 16.7071 15.2929C16.5196 15.1054 16.2652 15 16 15Z"/>
</symbol><symbol viewBox="0 0 24 24" id="i--v4-money_transfer"><title>v4-money_transfer</title>
<g id="v4-money_transfer-Money Transfer">
<path id="v4-money_transfer-Vector" d="M3 3C2.448 3 2 3.448 2 4V14C2 14.552 2.448 15 3 15H21C21.552 15 22 14.552 22 14V4C22 3.448 21.552 3 21 3H3ZM4.91211 5H19.0879C19.1625 5.21031 19.2831 5.40132 19.4409 5.55911C19.5987 5.7169 19.7897 5.83749 20 5.91211V12.0879C19.7897 12.1625 19.5987 12.2831 19.4409 12.4409C19.2831 12.5987 19.1625 12.7897 19.0879 13H4.91211C4.83749 12.7897 4.7169 12.5987 4.55911 12.4409C4.40132 12.2831 4.21031 12.1625 4 12.0879V5.91211C4.21031 5.83749 4.40132 5.7169 4.55911 5.55911C4.7169 5.40132 4.83749 5.21031 4.91211 5ZM12 6C11.2044 6 10.4413 6.31607 9.87868 6.87868C9.31607 7.44129 9 8.20435 9 9C9 9.79565 9.31607 10.5587 9.87868 11.1213C10.4413 11.6839 11.2044 12 12 12C12.7956 12 13.5587 11.6839 14.1213 11.1213C14.6839 10.5587 15 9.79565 15 9C15 8.20435 14.6839 7.44129 14.1213 6.87868C13.5587 6.31607 12.7956 6 12 6ZM7 8C6.448 8 6 8.447 6 9C6 9.553 6.448 10 7 10C7.552 10 8 9.553 8 9C8 8.447 7.552 8 7 8ZM17 8C16.448 8 16 8.447 16 9C16 9.553 16.448 10 17 10C17.552 10 18 9.553 18 9C18 8.447 17.552 8 17 8ZM3.99023 17L19.2285 20.9688C19.7635 21.1077 20.3083 20.786 20.4473 20.252L21.2949 17H19.2285L18.9922 17.9004C18.5432 17.9394 18.1378 18.1788 17.8848 18.5508L11.9277 17H3.99023Z"/>
</g>
</symbol><symbol viewBox="0 0 24 24" id="i--v4-money-widget"><title>v4-money-widget</title>
  <path d="M3.00002 3C2.44802 3 2.00002 3.448 2.00002 4V14C2.00002 14.552 2.44802 15 3.00002 15H21C21.552 15 22 14.552 22 14V4C22 3.448 21.552 3 21 3H3.00002ZM4.91213 5H19.0879C19.1625 5.21031 19.2831 5.40132 19.4409 5.55911C19.5987 5.7169 19.7897 5.83749 20 5.91211V12.0879C19.7897 12.1625 19.5987 12.2831 19.4409 12.4409C19.2831 12.5987 19.1625 12.7897 19.0879 13H4.91213C4.83752 12.7897 4.71692 12.5987 4.55913 12.4409C4.40134 12.2831 4.21033 12.1625 4.00002 12.0879V5.91211C4.21033 5.83749 4.40134 5.7169 4.55913 5.55911C4.71692 5.40132 4.83752 5.21031 4.91213 5ZM12 6C11.2044 6 10.4413 6.31607 9.8787 6.87868C9.31609 7.44129 9.00002 8.20435 9.00002 9C9.00002 9.79565 9.31609 10.5587 9.8787 11.1213C10.4413 11.6839 11.2044 12 12 12C12.7957 12 13.5587 11.6839 14.1213 11.1213C14.684 10.5587 15 9.79565 15 9C15 8.20435 14.684 7.44129 14.1213 6.87868C13.5587 6.31607 12.7957 6 12 6ZM7.00002 8C6.44802 8 6.00002 8.447 6.00002 9C6.00002 9.553 6.44802 10 7.00002 10C7.55202 10 8.00002 9.553 8.00002 9C8.00002 8.447 7.55202 8 7.00002 8ZM17 8C16.448 8 16 8.447 16 9C16 9.553 16.448 10 17 10C17.552 10 18 9.553 18 9C18 8.447 17.552 8 17 8ZM3.00002 16C2.86751 15.9981 2.73595 16.0226 2.61298 16.072C2.49001 16.1214 2.37809 16.1948 2.28372 16.2878C2.18935 16.3809 2.11441 16.4918 2.06327 16.614C2.01212 16.7363 1.98578 16.8675 1.98578 17C1.98578 17.1325 2.01212 17.2637 2.06327 17.386C2.11441 17.5082 2.18935 17.6191 2.28372 17.7122C2.37809 17.8052 2.49001 17.8786 2.61298 17.928C2.73595 17.9774 2.86751 18.0019 3.00002 18H21C21.1325 18.0019 21.2641 17.9774 21.3871 17.928C21.51 17.8786 21.622 17.8052 21.7163 17.7122C21.8107 17.6191 21.8856 17.5082 21.9368 17.386C21.9879 17.2637 22.0143 17.1325 22.0143 17C22.0143 16.8675 21.9879 16.7363 21.9368 16.614C21.8856 16.4918 21.8107 16.3809 21.7163 16.2878C21.622 16.1948 21.51 16.1214 21.3871 16.072C21.2641 16.0226 21.1325 15.9981 21 16H3.00002ZM3.00002 19C2.86751 18.9981 2.73595 19.0226 2.61298 19.072C2.49001 19.1214 2.37809 19.1948 2.28372 19.2878C2.18935 19.3809 2.11441 19.4918 2.06327 19.614C2.01212 19.7363 1.98578 19.8675 1.98578 20C1.98578 20.1325 2.01212 20.2637 2.06327 20.386C2.11441 20.5082 2.18935 20.6191 2.28372 20.7122C2.37809 20.8052 2.49001 20.8786 2.61298 20.928C2.73595 20.9774 2.86751 21.0019 3.00002 21H21C21.1325 21.0019 21.2641 20.9774 21.3871 20.928C21.51 20.8786 21.622 20.8052 21.7163 20.7122C21.8107 20.6191 21.8856 20.5082 21.9368 20.386C21.9879 20.2637 22.0143 20.1325 22.0143 20C22.0143 19.8675 21.9879 19.7363 21.9368 19.614C21.8856 19.4918 21.8107 19.3809 21.7163 19.2878C21.622 19.1948 21.51 19.1214 21.3871 19.072C21.2641 19.0226 21.1325 18.9981 21 19H3.00002Z"/>
</symbol><symbol viewBox="0 0 24 24" id="i--v4-mvno-activation"><title>v4-mvno-activation</title>
<path d="M7.5 1C6.12 1 5 2.12 5 3.5V20.5C5 21.88 6.12 23 7.5 23H16.5C17.88 23 19 21.88 19 20.5V3.5C19 2.12 17.88 1 16.5 1H7.5ZM7.5 4H16.5C16.776 4 17 4.224 17 4.5V17.5C17 17.776 16.776 18 16.5 18H7.5C7.224 18 7 17.776 7 17.5V4.5C7 4.224 7.224 4 7.5 4ZM14.5859 8.41406C14.3301 8.41406 14.0739 8.51203 13.8789 8.70703L11 11.5859L10.1211 10.707C9.73009 10.316 9.09703 10.316 8.70703 10.707C8.31603 11.098 8.31603 11.7311 8.70703 12.1211L10.293 13.707C10.684 14.098 11.317 14.098 11.707 13.707L15.293 10.1211C15.684 9.73009 15.684 9.09703 15.293 8.70703C15.0975 8.51203 14.8418 8.41406 14.5859 8.41406ZM12 18.875C12.622 18.875 13.125 19.378 13.125 20C13.125 20.622 12.622 21.125 12 21.125C11.378 21.125 10.875 20.622 10.875 20C10.875 19.378 11.378 18.875 12 18.875Z"/>
</symbol><symbol viewBox="0 0 24 24" id="i--v4-mvno"><title>v4-mvno</title>
<path d="M13.3148 23.902C15.8127 23.902 17.8376 21.8771 17.8376 19.3792C17.8376 16.8814 15.8127 14.8565 13.3148 14.8565C10.817 14.8565 8.79205 16.8814 8.79205 19.3792C8.79205 21.8771 10.817 23.902 13.3148 23.902Z"/>
<path d="M5.6409 16.5618C7.46312 16.5618 8.94032 15.0846 8.94032 13.2623C8.94032 11.4402 7.46312 9.96293 5.6409 9.96293C3.81869 9.96293 2.34149 11.4402 2.34149 13.2623C2.34149 15.0846 3.81869 16.5618 5.6409 16.5618Z"/>
<path d="M15.199 12.8415C18.7374 12.8415 21.6059 9.97305 21.6059 6.43463C21.6059 2.89619 18.7374 0.0277252 15.199 0.0277252C11.6605 0.0277252 8.79205 2.89619 8.79205 6.43463C8.79205 9.97305 11.6605 12.8415 15.199 12.8415Z"/>
</symbol><symbol viewBox="0 0 24 24" id="i--v4-pay-at-store"><title>v4-pay-at-store</title>
<g id="v4-pay-at-store-Pay&amp;Store">
<path id="v4-pay-at-store-Union" fill-rule="evenodd" clip-rule="evenodd" d="M3.42498 20.55C3.72498 20.85 4.07498 21 4.47498 21H19.5C19.9 21 20.25 20.85 20.55 20.55C20.85 20.25 21 19.9 21 19.5V11.025C21.4666 10.625 21.7791 10.1333 21.9375 9.55C22.0958 8.96667 22.0833 8.38333 21.9 7.8L20.8 4.425C20.6666 3.99167 20.425 3.64583 20.075 3.3875C19.725 3.12917 19.3166 3 18.85 3H5.02498C4.59165 3 4.20831 3.125 3.87498 3.375C3.54165 3.625 3.30831 3.975 3.17498 4.425L2.09998 7.8C1.91665 8.38333 1.89998 8.96667 2.04998 9.55C2.19998 10.1333 2.50831 10.625 2.97498 11.025V19.5C2.97498 19.9 3.12498 20.25 3.42498 20.55ZM15.475 9.775C15.1416 10.0917 14.7333 10.25 14.25 10.25C13.8166 10.25 13.4583 10.0875 13.175 9.7625C12.8916 9.4375 12.75 9.05833 12.75 8.625V4.5H15.25L15.875 8.625C15.9416 9.075 15.8083 9.45833 15.475 9.775ZM10.7625 9.775C10.4375 10.0917 10.0416 10.25 9.57498 10.25C9.14165 10.25 8.77498 10.0875 8.47498 9.7625C8.17498 9.4375 8.05831 9.05833 8.12498 8.625L8.74998 4.5H11.25V8.625C11.25 9.075 11.0875 9.45833 10.7625 9.775ZM6.06248 9.8375C5.77081 10.1125 5.42498 10.25 5.02498 10.25C4.49165 10.25 4.07498 10.0292 3.77498 9.5875C3.47498 9.14583 3.40831 8.66667 3.57498 8.15L4.72498 4.5H7.22498L6.57498 8.825C6.52498 9.225 6.35415 9.5625 6.06248 9.8375ZM20.2125 9.6C19.9041 10.0333 19.4833 10.25 18.95 10.25C18.5666 10.25 18.2291 10.1125 17.9375 9.8375C17.6458 9.5625 17.475 9.225 17.425 8.825L16.775 4.5H19.275L20.425 8.15C20.5916 8.68333 20.5208 9.16667 20.2125 9.6ZM11.9924 9.50006C11.86 9.50213 11.7338 9.55666 11.6415 9.65168C11.5492 9.74671 11.4984 9.87446 11.5002 10.0069V10.5401C11.06 10.5968 10.6483 10.7316 10.302 10.9708C9.82702 11.2989 9.50025 11.8576 9.50025 12.5069C9.50025 13.1736 9.86277 13.7097 10.3049 14.0782C10.7273 14.4302 11.2294 14.6809 11.7094 14.9206C11.7319 14.9318 11.7543 14.943 11.7766 14.9542C12.2766 15.2042 12.7471 15.4467 13.0549 15.7032C13.3628 15.9597 13.5002 16.1736 13.5002 16.5069C13.5002 16.8576 13.379 17.0489 13.1301 17.2208C12.891 17.3859 12.5065 17.4955 12.054 17.504C12.0336 17.5014 12.013 17.5001 11.9924 17.5001C11.9781 17.5004 11.9637 17.5014 11.9495 17.503C11.2654 17.4794 10.6411 16.9899 10.4846 16.3819C10.4682 16.3183 10.4394 16.2585 10.3999 16.206C10.3604 16.1535 10.311 16.1093 10.2544 16.0759C10.1978 16.0425 10.1352 16.0206 10.0701 16.0114C10.0051 16.0022 9.93883 16.006 9.87521 16.0224C9.81159 16.0388 9.75183 16.0676 9.69934 16.1071C9.64685 16.1466 9.60265 16.1961 9.56929 16.2527C9.53592 16.3093 9.51402 16.3719 9.50486 16.437C9.4957 16.5021 9.49944 16.5683 9.51587 16.6319C9.7578 17.5718 10.5524 18.2685 11.5002 18.4542V19.0069C11.4993 19.0732 11.5116 19.1389 11.5363 19.2004C11.561 19.2619 11.5976 19.3179 11.6442 19.365C11.6907 19.4122 11.7461 19.4497 11.8073 19.4753C11.8684 19.5008 11.934 19.514 12.0002 19.514C12.0665 19.514 12.1321 19.5008 12.1932 19.4753C12.2544 19.4497 12.3098 19.4122 12.3563 19.365C12.4029 19.3179 12.4395 19.2619 12.4642 19.2004C12.4889 19.1389 12.5012 19.0732 12.5002 19.0069V18.4737C12.9405 18.417 13.3522 18.2822 13.6985 18.043C14.1735 17.7149 14.5002 17.1561 14.5002 16.5069C14.5002 15.8402 14.1377 15.3041 13.6956 14.9356C13.2732 14.5836 12.771 14.3329 12.2911 14.0932C12.2686 14.082 12.2462 14.0708 12.2239 14.0596C11.7239 13.8096 11.2534 13.5671 10.9456 13.3106C10.6377 13.0541 10.5002 12.8402 10.5002 12.5069C10.5002 12.1561 10.6215 11.9649 10.8704 11.793C11.1092 11.6281 11.4929 11.5186 11.9446 11.5098C11.9799 11.5139 12.0156 11.5143 12.051 11.5108C12.7351 11.5344 13.3594 12.0239 13.5159 12.6319C13.5323 12.6955 13.561 12.7553 13.6006 12.8078C13.6401 12.8603 13.6895 12.9045 13.7461 12.9379C13.8027 12.9713 13.8653 12.9932 13.9304 13.0024C13.9954 13.0115 14.0617 13.0078 14.1253 12.9914C14.1889 12.975 14.2487 12.9462 14.3012 12.9067C14.3536 12.8672 14.3978 12.8177 14.4312 12.7611C14.4646 12.7045 14.4865 12.6419 14.4956 12.5768C14.5048 12.5117 14.5011 12.4455 14.4846 12.3819C14.2427 11.442 13.4481 10.7453 12.5002 10.5596V10.0069C12.5012 9.94 12.4886 9.8736 12.4634 9.81163C12.4382 9.74966 12.4008 9.69338 12.3535 9.64612C12.3061 9.59886 12.2498 9.56158 12.1878 9.53649C12.1258 9.5114 12.0593 9.49902 11.9924 9.50006Z"/>
</g>
</symbol><symbol viewBox="0 0 24 24" id="i--v4-percent"><title>v4-percent</title>
<path d="M7.5 11C6.53333 11 5.70833 10.6583 5.025 9.975C4.34167 9.29167 4 8.46667 4 7.5C4 6.53333 4.34167 5.70833 5.025 5.025C5.70833 4.34167 6.53333 4 7.5 4C8.46667 4 9.29167 4.34167 9.975 5.025C10.6583 5.70833 11 6.53333 11 7.5C11 8.46667 10.6583 9.29167 9.975 9.975C9.29167 10.6583 8.46667 11 7.5 11ZM7.5 9C7.91667 9 8.27083 8.85417 8.5625 8.5625C8.85417 8.27083 9 7.91667 9 7.5C9 7.08333 8.85417 6.72917 8.5625 6.4375C8.27083 6.14583 7.91667 6 7.5 6C7.08333 6 6.72917 6.14583 6.4375 6.4375C6.14583 6.72917 6 7.08333 6 7.5C6 7.91667 6.14583 8.27083 6.4375 8.5625C6.72917 8.85417 7.08333 9 7.5 9ZM16.5 20C15.5333 20 14.7083 19.6583 14.025 18.975C13.3417 18.2917 13 17.4667 13 16.5C13 15.5333 13.3417 14.7083 14.025 14.025C14.7083 13.3417 15.5333 13 16.5 13C17.4667 13 18.2917 13.3417 18.975 14.025C19.6583 14.7083 20 15.5333 20 16.5C20 17.4667 19.6583 18.2917 18.975 18.975C18.2917 19.6583 17.4667 20 16.5 20ZM16.5 18C16.9167 18 17.2708 17.8542 17.5625 17.5625C17.8542 17.2708 18 16.9167 18 16.5C18 16.0833 17.8542 15.7292 17.5625 15.4375C17.2708 15.1458 16.9167 15 16.5 15C16.0833 15 15.7292 15.1458 15.4375 15.4375C15.1458 15.7292 15 16.0833 15 16.5C15 16.9167 15.1458 17.2708 15.4375 17.5625C15.7292 17.8542 16.0833 18 16.5 18ZM4.7 19.3C4.51667 19.1167 4.425 18.8833 4.425 18.6C4.425 18.3167 4.51667 18.0833 4.7 17.9L17.9 4.7C18.0833 4.51667 18.3167 4.425 18.6 4.425C18.8833 4.425 19.1167 4.51667 19.3 4.7C19.4833 4.88333 19.575 5.11667 19.575 5.4C19.575 5.68333 19.4833 5.91667 19.3 6.1L6.1 19.3C5.91667 19.4833 5.68333 19.575 5.4 19.575C5.11667 19.575 4.88333 19.4833 4.7 19.3Z"/>
</symbol><symbol viewBox="0 0 24 24" id="i--v4-portal"><title>v4-portal</title>
<path d="M9 22C8.71667 22 8.47917 21.9042 8.2875 21.7125C8.09583 21.5208 8 21.2833 8 21C8 20.7167 8.09583 20.4792 8.2875 20.2875C8.47917 20.0958 8.71667 20 9 20H10V18H4C3.45 18 2.97917 17.8042 2.5875 17.4125C2.19583 17.0208 2 16.55 2 16V5C2 4.45 2.19583 3.97917 2.5875 3.5875C2.97917 3.19583 3.45 3 4 3H20C20.55 3 21.0208 3.19583 21.4125 3.5875C21.8042 3.97917 22 4.45 22 5V16C22 16.55 21.8042 17.0208 21.4125 17.4125C21.0208 17.8042 20.55 18 20 18H14V20H15C15.2833 20 15.5208 20.0958 15.7125 20.2875C15.9042 20.4792 16 20.7167 16 21C16 21.2833 15.9042 21.5208 15.7125 21.7125C15.5208 21.9042 15.2833 22 15 22H9Z"/>
</symbol><symbol viewBox="0 0 24 24" id="i--v4-pos"><title>v4-pos</title>
<path d="M9 2C7.90694 2 7 2.90694 7 4V5H5C3.895 5 3 5.895 3 7V15H21V7C21 5.895 20.105 5 19 5H17V4C17 2.90694 16.0931 2 15 2H9ZM9 4H15V5V6V9H9V6V5V4ZM8 11C8.552 11 9 11.448 9 12C9 12.552 8.552 13 8 13C7.448 13 7 12.552 7 12C7 11.448 7.448 11 8 11ZM12 11C12.552 11 13 11.448 13 12C13 12.552 12.552 13 12 13C11.448 13 11 12.552 11 12C11 11.448 11.448 11 12 11ZM16 11C16.552 11 17 11.448 17 12C17 12.552 16.552 13 16 13C15.448 13 15 12.552 15 12C15 11.448 15.448 11 16 11ZM3 17V19C3 20.105 3.895 21 5 21H19C20.105 21 21 20.105 21 19V17H13C13 17.552 12.552 18 12 18C11.448 18 11 17.552 11 17H3Z"/>
</symbol><symbol viewBox="0 0 24 24" id="i--v4-products"><title>v4-products</title>
<path d="M6 20C5.45 20 4.97917 19.8042 4.5875 19.4125C4.19583 19.0208 4 18.55 4 18C4 17.45 4.19583 16.9792 4.5875 16.5875C4.97917 16.1958 5.45 16 6 16C6.55 16 7.02083 16.1958 7.4125 16.5875C7.80417 16.9792 8 17.45 8 18C8 18.55 7.80417 19.0208 7.4125 19.4125C7.02083 19.8042 6.55 20 6 20ZM12 20C11.45 20 10.9792 19.8042 10.5875 19.4125C10.1958 19.0208 10 18.55 10 18C10 17.45 10.1958 16.9792 10.5875 16.5875C10.9792 16.1958 11.45 16 12 16C12.55 16 13.0208 16.1958 13.4125 16.5875C13.8042 16.9792 14 17.45 14 18C14 18.55 13.8042 19.0208 13.4125 19.4125C13.0208 19.8042 12.55 20 12 20ZM18 20C17.45 20 16.9792 19.8042 16.5875 19.4125C16.1958 19.0208 16 18.55 16 18C16 17.45 16.1958 16.9792 16.5875 16.5875C16.9792 16.1958 17.45 16 18 16C18.55 16 19.0208 16.1958 19.4125 16.5875C19.8042 16.9792 20 17.45 20 18C20 18.55 19.8042 19.0208 19.4125 19.4125C19.0208 19.8042 18.55 20 18 20ZM6 14C5.45 14 4.97917 13.8042 4.5875 13.4125C4.19583 13.0208 4 12.55 4 12C4 11.45 4.19583 10.9792 4.5875 10.5875C4.97917 10.1958 5.45 10 6 10C6.55 10 7.02083 10.1958 7.4125 10.5875C7.80417 10.9792 8 11.45 8 12C8 12.55 7.80417 13.0208 7.4125 13.4125C7.02083 13.8042 6.55 14 6 14ZM12 14C11.45 14 10.9792 13.8042 10.5875 13.4125C10.1958 13.0208 10 12.55 10 12C10 11.45 10.1958 10.9792 10.5875 10.5875C10.9792 10.1958 11.45 10 12 10C12.55 10 13.0208 10.1958 13.4125 10.5875C13.8042 10.9792 14 11.45 14 12C14 12.55 13.8042 13.0208 13.4125 13.4125C13.0208 13.8042 12.55 14 12 14ZM18 14C17.45 14 16.9792 13.8042 16.5875 13.4125C16.1958 13.0208 16 12.55 16 12C16 11.45 16.1958 10.9792 16.5875 10.5875C16.9792 10.1958 17.45 10 18 10C18.55 10 19.0208 10.1958 19.4125 10.5875C19.8042 10.9792 20 11.45 20 12C20 12.55 19.8042 13.0208 19.4125 13.4125C19.0208 13.8042 18.55 14 18 14ZM6 8C5.45 8 4.97917 7.80417 4.5875 7.4125C4.19583 7.02083 4 6.55 4 6C4 5.45 4.19583 4.97917 4.5875 4.5875C4.97917 4.19583 5.45 4 6 4C6.55 4 7.02083 4.19583 7.4125 4.5875C7.80417 4.97917 8 5.45 8 6C8 6.55 7.80417 7.02083 7.4125 7.4125C7.02083 7.80417 6.55 8 6 8ZM12 8C11.45 8 10.9792 7.80417 10.5875 7.4125C10.1958 7.02083 10 6.55 10 6C10 5.45 10.1958 4.97917 10.5875 4.5875C10.9792 4.19583 11.45 4 12 4C12.55 4 13.0208 4.19583 13.4125 4.5875C13.8042 4.97917 14 5.45 14 6C14 6.55 13.8042 7.02083 13.4125 7.4125C13.0208 7.80417 12.55 8 12 8ZM18 8C17.45 8 16.9792 7.80417 16.5875 7.4125C16.1958 7.02083 16 6.55 16 6C16 5.45 16.1958 4.97917 16.5875 4.5875C16.9792 4.19583 17.45 4 18 4C18.55 4 19.0208 4.19583 19.4125 4.5875C19.8042 4.97917 20 5.45 20 6C20 6.55 19.8042 7.02083 19.4125 7.4125C19.0208 7.80417 18.55 8 18 8Z"/>
</symbol><symbol viewBox="0 0 24 24" id="i--v4-rates"><title>v4-rates</title>
<path d="M18 2H6C4.9 2 4 2.9 4 4V20C4 21.1 4.9 22 6 22H18C19.1 22 20 21.1 20 20V4C20 2.9 19.1 2 18 2ZM10 16.5C10 16.776 9.776 17 9.5 17H8.5C8.224 17 8 16.776 8 16.5V15.5C8 15.224 8.224 15 8.5 15H9.5C9.776 15 10 15.224 10 15.5V16.5ZM10 12.5C10 12.776 9.776 13 9.5 13H8.5C8.224 13 8 12.776 8 12.5V11.5C8 11.224 8.224 11 8.5 11H9.5C9.776 11 10 11.224 10 11.5V12.5ZM10 8.5C10 8.776 9.776 9 9.5 9H8.5C8.224 9 8 8.776 8 8.5V7.5C8 7.224 8.224 7 8.5 7H9.5C9.776 7 10 7.224 10 7.5V8.5ZM15 17H13C12.448 17 12 16.552 12 16C12 15.448 12.448 15 13 15H15C15.552 15 16 15.448 16 16C16 16.552 15.552 17 15 17ZM15 13H13C12.448 13 12 12.552 12 12C12 11.448 12.448 11 13 11H15C15.552 11 16 11.448 16 12C16 12.552 15.552 13 15 13ZM15 9H13C12.448 9 12 8.552 12 8C12 7.448 12.448 7 13 7H15C15.552 7 16 7.448 16 8C16 8.552 15.552 9 15 9Z"/>
</symbol><symbol viewBox="0 0 24 24" id="i--v4-reports"><title>v4-reports</title>
<path d="M6.89475 15.6C7.14827 15.6 7.36252 15.5143 7.53752 15.3428C7.71252 15.1713 7.80002 14.9588 7.80002 14.7053C7.80002 14.4518 7.71428 14.2375 7.5428 14.0625C7.3713 13.8875 7.1588 13.8 6.9053 13.8C6.65178 13.8 6.43752 13.8857 6.26252 14.0572C6.08752 14.2287 6.00002 14.4412 6.00002 14.6947C6.00002 14.9482 6.08577 15.1625 6.25725 15.3375C6.42875 15.5125 6.64125 15.6 6.89475 15.6ZM6.00002 12.6H7.80002V8.4H6.00002V12.6ZM10.8 15H18V13.2H10.8V15ZM10.8 10.8H18V9H10.8V10.8ZM4.20002 19.2C3.70502 19.2 3.28127 19.0237 2.92877 18.671C2.57627 18.3183 2.40002 17.8943 2.40002 17.399V6.59293C2.40002 6.09764 2.57627 5.675 2.92877 5.325C3.28127 4.975 3.70502 4.8 4.20002 4.8H19.8C20.295 4.8 20.7188 4.97635 21.0713 5.32905C21.4238 5.68175 21.6 6.10574 21.6 6.601V17.4071C21.6 17.9024 21.4238 18.325 21.0713 18.675C20.7188 19.025 20.295 19.2 19.8 19.2H4.20002Z"/>
</symbol><symbol viewBox="0 0 24 24" id="i--v4-rewards"><title>v4-rewards</title>
<path d="M19.9631 9.48868C19.9642 8.14273 19.6241 6.81847 18.9746 5.63959C18.3252 4.46072 17.3875 3.4657 16.2492 2.74749C15.1109 2.02929 13.8091 1.61133 12.4655 1.53266C11.1218 1.45399 9.78015 1.71718 8.56581 2.29765C7.35147 2.87811 6.30408 3.75691 5.52147 4.85194C4.73887 5.94697 4.24659 7.2225 4.09063 8.55938C3.93467 9.89625 4.12012 11.2508 4.62964 12.4966C5.13917 13.7424 5.95615 14.8387 7.00427 15.6831L4.65727 21.1147L8.161 19.2706L9.46862 22.481L11.648 17.4517C11.8793 17.4758 12.1124 17.4758 12.3437 17.4517L14.5231 22.481L15.8391 19.2706L19.3428 21.1147L16.9958 15.6831C17.9222 14.9383 18.6697 13.9951 19.1833 12.923C19.6968 11.851 19.9633 10.6774 19.9631 9.48868ZM12 15.7753C10.7567 15.7753 9.5412 15.4066 8.50737 14.7158C7.47355 14.025 6.66778 13.0432 6.19196 11.8945C5.71614 10.7457 5.59164 9.4817 5.83421 8.26222C6.07678 7.04274 6.67552 5.92257 7.55472 5.04337C8.43392 4.16417 9.55409 3.56543 10.7736 3.32286C11.9931 3.08029 13.2571 3.20479 14.4058 3.6806C15.5545 4.15642 16.5364 4.96219 17.2272 5.99602C17.9179 7.02985 18.2866 8.2453 18.2866 9.48868C18.2866 11.156 17.6243 12.755 16.4453 13.934C15.2664 15.113 13.6673 15.7753 12 15.7753ZM8.22806 12.4224H11.5809V9.90778H10.7427V11.5842H9.06628V9.90778H10.7427V9.06957H9.06628V7.39314H10.7427V9.06957H11.5809V6.55492H8.22806V12.4224ZM13.2574 9.06957V7.39314H14.9338V9.06957H15.772V6.55492H12.4191V12.4224H13.2574V9.90778H14.9338V9.06957H13.2574ZM15.772 11.5842V9.90778H14.9338V12.4224H16.6102V11.5842H15.772Z"/>
</symbol><symbol viewBox="0 0 24 24" id="i--v4-security"><title>v4-security</title>
<path d="M10.95 12.7L9.575 11.3C9.375 11.1 9.1375 11 8.8625 11C8.5875 11 8.35 11.1 8.15 11.3C7.95 11.5 7.84583 11.7375 7.8375 12.0125C7.82917 12.2875 7.925 12.525 8.125 12.725L10.25 14.85C10.45 15.05 10.6833 15.15 10.95 15.15C11.2167 15.15 11.45 15.05 11.65 14.85L15.9 10.6C16.1 10.4 16.2 10.1625 16.2 9.88749C16.2 9.61249 16.1 9.37499 15.9 9.17499C15.7 8.97499 15.4625 8.87499 15.1875 8.87499C14.9125 8.87499 14.675 8.97499 14.475 9.17499L10.95 12.7ZM12 21.925H11.75C11.6667 21.925 11.5917 21.9083 11.525 21.875C9.34167 21.1917 7.54167 19.8375 6.125 17.8125C4.70833 15.7875 4 13.55 4 11.1V6.37499C4 5.95833 4.12083 5.58333 4.3625 5.24999C4.60417 4.91666 4.91667 4.67499 5.3 4.52499L11.3 2.27499C11.5333 2.19166 11.7667 2.14999 12 2.14999C12.2333 2.14999 12.4667 2.19166 12.7 2.27499L18.7 4.52499C19.0833 4.67499 19.3958 4.91666 19.6375 5.24999C19.8792 5.58333 20 5.95833 20 6.37499V11.1C20 13.55 19.2917 15.7875 17.875 17.8125C16.4583 19.8375 14.6583 21.1917 12.475 21.875C12.3917 21.9083 12.2333 21.925 12 21.925Z"/>
</symbol><symbol viewBox="0 0 24 24" id="i--v4-tigo"><title>v4-tigo</title>
<path d="M6.48545 7.0137C6.48545 7.75342 7.08618 7.9589 7.40657 7.9589C7.44662 7.9589 7.48667 7.9589 7.56677 7.9589C7.84711 7.9589 8.40779 7.67123 8.36774 6.84932C8.32769 6.39726 8.0073 6.19178 7.60682 6.10959C7.56677 6.10959 7.44662 6.10959 7.40657 6.10959C7.00608 6.15068 6.48545 6.43836 6.48545 7.0137ZM19.1008 16.9589C19.5413 16.5069 19.7416 16.137 19.7416 16.137C19.7416 16.137 19.9018 17.1233 19.301 18.3562C19.261 18.4384 19.2209 18.5616 19.1008 18.6438C18.42 19.589 16.8981 20 15.5365 20C14.7355 20 14.0146 19.8356 13.5741 19.7123C13.1736 19.5479 12.8932 19.4247 12.8932 19.4247C11.3714 18.726 11.4915 16.1781 11.4915 16.1781C11.4915 16.1781 12.3726 18.2329 15.4163 18.3973C17.2185 18.4795 18.42 17.6575 19.1008 16.9589ZM19.1008 13.6301C19.1809 13.6301 19.301 13.6301 19.3411 13.6301C19.6214 13.589 20.6627 13.1781 20.5826 11.6164C20.5425 10.0959 19.7416 9.64384 19.1008 9.64384C19.1008 9.64384 19.1008 9.64384 19.0607 9.64384C19.0607 9.64384 18.7804 9.64384 18.46 9.84932C18.0595 10.0959 17.619 10.6712 17.619 11.6986C17.619 13.0959 18.46 13.5479 18.9806 13.6712C19.0207 13.6301 19.0607 13.6301 19.1008 13.6301ZM19.1008 8.32877C21.2234 8.36986 21.9042 10.3014 21.9843 11C22.0243 11.4932 22.0644 13.1781 21.0632 14.1644C20.6226 14.5753 20.0219 14.9041 19.1408 14.9041H19.1008C18.1396 14.9041 17.4988 14.4521 17.0583 14C16.1372 13.0137 16.2173 11.4932 16.2173 11.4932C16.2173 11 16.3775 10.3836 16.6979 9.76712C17.0583 9.0274 17.8593 8.32877 19.1008 8.32877C19.0607 8.32877 19.0607 8.32877 19.1008 8.32877ZM19.1008 5C19.1408 5 19.261 5 19.301 5C21.1433 5 21.9042 6.56164 21.9042 6.56164V7.63014C21.9042 7.63014 21.3035 6.31507 19.301 6.23288C19.261 6.23288 19.2209 6.23288 19.1408 6.23288C17.2986 6.19178 16.5377 7.54795 16.5377 7.54795V6.64384C16.778 5.9863 17.3386 5.08219 19.1008 5ZM3.4017 8.57534V7.05479C3.4017 7.05479 2.48058 6.89041 2 8.12329V13.0959C2 13.0959 2.04005 13.6301 2.40049 14.0822C2.64078 14.5342 3.20146 14.9041 3.92234 14.9041C5.44419 14.9452 5.72453 14.2055 5.60438 13.3425C5.60438 13.3425 3.88229 14.2877 3.4818 12.8493V9.89041H5.00365C5.00365 9.89041 5.68448 9.84932 5.60438 8.57534H3.4017ZM6.6857 8.49315V13.2192C6.6857 13.2192 6.84589 14.7808 7.9272 14.8219C9.04857 14.863 9.40901 14.3699 9.40901 13.5479C9.40901 13.5479 8.88837 13.7534 8.48789 13.5068C8.12745 13.2603 8.12745 12.8493 8.12745 12.8493V9.27397C8.1675 9.31507 7.9272 8.45205 6.6857 8.49315ZM15.2161 10.2192C15.2161 10.2192 15.3763 10.2603 15.4163 10.137C15.4564 9.9726 15.5765 8.82192 14.2949 8.49315C12.7731 8.08219 11.011 8.65753 10.3702 9.93151C10.1699 10.3836 9.92964 11.0411 9.88959 11.6986C9.84954 12.8904 10.2901 14.2055 11.4915 14.863C11.4915 14.863 12.9733 15.5616 14.375 15.0685C14.375 15.0685 15.4564 14.6164 15.4564 13.7945C15.4564 12.9726 15.5365 11.8219 14.8556 11.8219C14.1748 11.8219 13.9345 11.8219 13.9345 11.8219C13.9345 11.8219 14.0947 13.1781 14.0146 13.3425C13.9746 13.5479 13.5741 14 12.4527 13.6301C11.3313 13.2603 11.1711 11.8219 11.4915 10.8767C11.8119 9.93151 12.8932 9.56164 13.6141 9.60274C14.335 9.72603 15.2161 10.2192 15.2161 10.2192Z"/>
</symbol><symbol viewBox="0 0 24 24" id="i--v4-tools"><title>v4-tools</title>
<path d="M17.85 19.55L13.275 14.975L14.975 13.275L19.55 17.85C19.7834 18.0833 19.9 18.3667 19.9 18.7C19.9 19.0333 19.7834 19.3167 19.55 19.55C19.3167 19.7833 19.0334 19.9 18.7 19.9C18.3667 19.9 18.0834 19.7833 17.85 19.55ZM4.45003 19.55C4.2167 19.3167 4.10003 19.0333 4.10003 18.7C4.10003 18.3667 4.2167 18.0833 4.45003 17.85L10.3 12L8.70003 10.4L8.37503 10.725C8.1917 10.9083 7.98337 11 7.75003 11C7.5167 11 7.30837 10.9083 7.12503 10.725L6.45003 10.05V12.025C6.45003 12.225 6.3542 12.3583 6.16253 12.425C5.97087 12.4917 5.80837 12.4583 5.67503 12.325L3.12503 9.77501C2.9917 9.64167 2.95837 9.47917 3.02503 9.28751C3.0917 9.09584 3.22503 9.00001 3.42503 9.00001H5.40003L5.12503 8.70001C4.9417 8.51667 4.85003 8.30834 4.85003 8.07501C4.85003 7.84167 4.9417 7.63334 5.12503 7.45001L8.10003 4.47501C8.38337 4.19167 8.7042 3.97501 9.06253 3.82501C9.42087 3.67501 9.80003 3.60001 10.2 3.60001C10.5167 3.60001 10.8125 3.64584 11.0875 3.73751C11.3625 3.82917 11.625 3.96667 11.875 4.15001C11.9917 4.23334 12.0542 4.34584 12.0625 4.48751C12.0709 4.62917 12.025 4.75001 11.925 4.85001L10.125 6.62501L10.675 7.17501C10.8584 7.35834 10.95 7.56667 10.95 7.80001C10.95 8.03334 10.8584 8.24167 10.675 8.42501L10.4 8.70001L12 10.3L14.075 8.22501C13.9917 8.00834 13.925 7.79167 13.875 7.57501C13.825 7.35834 13.8 7.13334 13.8 6.90001C13.8 5.98334 14.1209 5.20417 14.7625 4.56251C15.4042 3.92084 16.1834 3.60001 17.1 3.60001C17.2167 3.60001 17.3292 3.60417 17.4375 3.61251C17.5459 3.62084 17.6584 3.64167 17.775 3.67501C17.925 3.72501 18.0209 3.82084 18.0625 3.96251C18.1042 4.10417 18.0667 4.23334 17.95 4.35001L16.575 5.72501C16.4917 5.80834 16.45 5.91667 16.45 6.05001C16.45 6.18334 16.4917 6.29167 16.575 6.37501L17.625 7.42501C17.7084 7.50834 17.8167 7.55001 17.95 7.55001C18.0834 7.55001 18.1917 7.50834 18.275 7.42501L19.65 6.05001C19.7667 5.93334 19.8959 5.89584 20.0375 5.93751C20.1792 5.97917 20.275 6.07501 20.325 6.22501C20.3584 6.34167 20.3792 6.45417 20.3875 6.56251C20.3959 6.67084 20.4 6.78334 20.4 6.90001C20.4 7.81667 20.0792 8.59167 19.4375 9.22501C18.7959 9.85834 18.0167 10.175 17.1 10.175C16.8667 10.175 16.6417 10.1542 16.425 10.1125C16.2084 10.0708 15.9917 10 15.775 9.90001L6.15003 19.55C5.9167 19.7833 5.63337 19.9 5.30003 19.9C4.9667 19.9 4.68337 19.7833 4.45003 19.55Z"/>
</symbol><symbol viewBox="0 0 24 24" id="i--v4-transaction-history"><title>v4-transaction-history</title>
<path d="M11.9844 1.98633C11.7195 1.99047 11.4671 2.09953 11.2826 2.28957C11.098 2.47962 10.9964 2.73512 11 3V4.06641C10.1196 4.17973 9.29616 4.44933 8.60355 4.92773C7.65357 5.58391 7.00003 6.7015 7.00003 8C7.00003 9.33333 7.72507 10.4056 8.60941 11.1426C9.49374 11.8795 10.5528 12.3945 11.5528 12.8945C12.5528 13.3945 13.4937 13.8795 14.1094 14.3926C14.7251 14.9056 15 15.3333 15 16C15 16.7015 14.7576 17.0839 14.2598 17.4277C13.7815 17.7581 13.0125 17.9771 12.1075 17.9941C12.0666 17.989 12.0255 17.9864 11.9844 17.9863C11.9557 17.987 11.927 17.989 11.8985 17.9922C10.5302 17.945 9.28176 16.966 8.96878 15.75C8.93598 15.6228 8.87843 15.5032 8.79942 15.3982C8.72042 15.2932 8.6215 15.2048 8.50831 15.138C8.39513 15.0712 8.26991 15.0274 8.13979 15.0091C8.00967 14.9907 7.8772 14.9981 7.74996 15.031C7.62272 15.0638 7.5032 15.1214 7.39821 15.2004C7.29323 15.2795 7.20484 15.3784 7.13811 15.4916C7.07137 15.6048 7.02758 15.7301 7.00925 15.8602C6.99093 15.9903 6.99841 16.1228 7.03128 16.25C7.51513 18.1298 9.10436 19.5232 11 19.8945V21C10.9982 21.1325 11.0226 21.2641 11.0721 21.387C11.1215 21.51 11.1948 21.6219 11.2879 21.7163C11.3809 21.8107 11.4918 21.8856 11.614 21.9368C11.7363 21.9879 11.8675 22.0142 12 22.0142C12.1326 22.0142 12.2638 21.9879 12.386 21.9368C12.5083 21.8856 12.6191 21.8107 12.7122 21.7163C12.8052 21.6219 12.8786 21.51 12.928 21.387C12.9774 21.2641 13.0019 21.1325 13 21V19.9336C13.8805 19.8203 14.7039 19.5507 15.3965 19.0723C16.3465 18.4161 17 17.2985 17 16C17 14.6667 16.275 13.5944 15.3907 12.8574C14.5063 12.1205 13.4473 11.6055 12.4473 11.1055C11.4473 10.6055 10.5063 10.1205 9.89066 9.60742C9.27499 9.09437 9.00003 8.66667 9.00003 8C9.00003 7.2985 9.24249 6.91609 9.74027 6.57227C10.2178 6.24239 10.9854 6.02347 11.8887 6.00586C11.9594 6.01408 12.0308 6.01474 12.1016 6.00781C13.4698 6.05502 14.7183 7.03405 15.0313 8.25C15.0641 8.37725 15.1216 8.49679 15.2006 8.6018C15.2796 8.7068 15.3786 8.79521 15.4917 8.86198C15.6049 8.92875 15.7302 8.97257 15.8603 8.99094C15.9904 9.0093 16.1229 9.00185 16.2501 8.96902C16.3773 8.93618 16.4969 8.8786 16.6018 8.79956C16.7068 8.72053 16.7952 8.62158 16.862 8.50838C16.9287 8.39518 16.9725 8.26994 16.9908 8.13982C17.0091 8.00969 17.0017 7.87723 16.9688 7.75C16.4849 5.87019 14.8957 4.47684 13 4.10547V3C13.0019 2.86621 12.9768 2.73341 12.9264 2.60947C12.876 2.48553 12.8012 2.37297 12.7065 2.27845C12.6118 2.18393 12.4991 2.10937 12.3751 2.05919C12.251 2.00902 12.1182 1.98424 11.9844 1.98633ZM19.4805 3.00586C19.2483 2.96569 19 3.1352 19 3.4082V8.5918C19 8.9558 19.4403 9.13786 19.6973 8.88086L21.9434 6.63281C22.2924 6.28381 22.2924 5.71814 21.9434 5.36914L19.6973 3.11914C19.633 3.05489 19.5579 3.01925 19.4805 3.00586ZM4.51956 16.0059C4.44217 16.0195 4.36702 16.0563 4.30277 16.1211L2.05667 18.3691C1.70767 18.7181 1.70767 19.2838 2.05667 19.6328L4.30277 21.8809C4.55977 22.1379 5.00003 21.9558 5.00003 21.5918V16.4082C5.00003 16.1352 4.75173 15.9648 4.51956 16.0059Z"/>
</symbol><symbol viewBox="0 0 24 24" id="i--v4-university"><title>v4-university</title>
<path d="M21 15.9V9.9L12.8 14C12.5466 14.1333 12.2791 14.2 11.9975 14.2C11.7159 14.2 11.45 14.1333 11.2 14L2.80005 9.8C2.63338 9.71667 2.50838 9.60563 2.42505 9.46688C2.34172 9.32813 2.30005 9.17396 2.30005 9.00438C2.30005 8.83479 2.34172 8.67917 2.42505 8.5375C2.50838 8.39584 2.63338 8.28334 2.80005 8.2L11.2 4C11.3264 3.93334 11.4562 3.88334 11.5895 3.85C11.7229 3.81667 11.8597 3.8 12 3.8C12.1404 3.8 12.2772 3.81667 12.4106 3.85C12.5439 3.88334 12.6737 3.93334 12.8 4L22.3 8.75C22.45 8.83334 22.5709 8.94167 22.6625 9.075C22.7542 9.20834 22.8 9.36599 22.8 9.54795V15.9C22.8 16.155 22.7143 16.3688 22.5428 16.5413C22.3713 16.7138 22.1588 16.8 21.9053 16.8C21.6518 16.8 21.4375 16.7138 21.2625 16.5413C21.0875 16.3688 21 16.155 21 15.9ZM11.2 20L6.40005 17.6C6.10005 17.45 5.85838 17.2299 5.67505 16.9396C5.49172 16.6493 5.40005 16.3361 5.40005 16V13.125L11.2 16.025C11.4535 16.1583 11.721 16.225 12.0026 16.225C12.2842 16.225 12.55 16.1583 12.8 16.025L18.6 13.125V16C18.6 16.3361 18.5084 16.6493 18.325 16.9396C18.1417 17.2299 17.9 17.45 17.6 17.6L12.8 20C12.6737 20.0667 12.5439 20.1167 12.4106 20.15C12.2772 20.1833 12.1404 20.2 12 20.2C11.8597 20.2 11.7229 20.1833 11.5895 20.15C11.4562 20.1167 11.3264 20.0667 11.2 20Z"/>
</symbol><symbol viewBox="0 0 24 24" id="i--v4-vip"><title>v4-vip</title>
<path d="M4 4C2.895 4 2 4.895 2 6V18C2 19.105 2.895 20 4 20H20C21.105 20 22 19.105 22 18V6C22 4.895 21.105 4 20 4H4ZM5.98438 9C6.27938 9 6.53456 9.20223 6.60156 9.49023L7.49414 13.3516L8.39062 9.49023C8.45662 9.20323 8.71186 9 9.00586 9H9.01367C9.43467 9 9.73809 9.40359 9.62109 9.80859L8.29883 14.3945C8.19683 14.7525 7.86714 15 7.49414 15C7.12014 15 6.79245 14.7516 6.68945 14.3926L5.37695 9.80664C5.26095 9.40264 5.56337 9 5.98438 9ZM12 9C12.335 9 12.6055 9.27047 12.6055 9.60547V14.3945C12.6055 14.7295 12.335 15 12 15C11.665 15 11.3945 14.7295 11.3945 14.3945V9.60547C11.3945 9.27047 11.665 9 12 9ZM15.5977 9H17.0371C17.3421 9 17.6155 9.04944 17.8555 9.14844C18.0955 9.24744 18.2988 9.3855 18.4668 9.5625C18.6348 9.7395 18.7635 9.94841 18.8535 10.1914C18.9425 10.4344 18.9863 10.6994 18.9863 10.9844C18.9863 11.2774 18.9425 11.5414 18.8535 11.7754C18.7635 12.0104 18.6348 12.21 18.4668 12.375C18.2998 12.54 18.0955 12.6669 17.8535 12.7559C17.6125 12.8449 17.3401 12.8906 17.0371 12.8906H16.2051V14.3945C16.2051 14.7295 15.9346 15 15.5996 15C15.2646 15 14.9922 14.7295 14.9922 14.3945V9.60547C14.9922 9.27147 15.2637 9 15.5977 9ZM16.4551 10.0098C16.3171 10.0098 16.2051 10.1218 16.2051 10.2598V11.6309C16.2051 11.7689 16.3171 11.8809 16.4551 11.8809H17.0371C17.1631 11.8809 17.2742 11.8585 17.3652 11.8145C17.4572 11.7705 17.5328 11.7108 17.5918 11.6328C17.6498 11.5548 17.6937 11.4596 17.7207 11.3516C17.7477 11.2436 17.7617 11.1251 17.7617 10.9961C17.7617 10.8671 17.7477 10.743 17.7207 10.625C17.6937 10.505 17.6498 10.4015 17.5918 10.3105C17.5328 10.2195 17.4572 10.1458 17.3652 10.0918C17.2742 10.0368 17.1631 10.0098 17.0371 10.0098H16.4551Z"/>
</symbol><symbol viewBox="0 0 24 24" id="i--v4-voucher"><title>v4-voucher</title>
<path d="M10.4 2C9.08405 2 8.00002 3.08402 8.00002 4.4C8.00002 4.68147 8.05918 4.94809 8.15002 5.2H4.00002C3.11602 5.2 2.40002 5.916 2.40002 6.8V8.4H21.6V6.8C21.6 5.916 20.884 5.2 20 5.2H15.85C15.9409 4.94809 16 4.68147 16 4.4C16 3.08402 14.916 2 13.6 2C12.9852 2 12.4267 2.2433 12 2.62969C11.5733 2.2433 11.0149 2 10.4 2ZM10.4 3.6C10.852 3.6 11.2 3.94798 11.2 4.4V5.2H10.4C9.948 5.2 9.60002 4.85202 9.60002 4.4C9.60002 3.94798 9.948 3.6 10.4 3.6ZM13.6 3.6C14.052 3.6 14.4 3.94798 14.4 4.4C14.4 4.85202 14.052 5.2 13.6 5.2H12.8V4.4C12.8 3.94798 13.148 3.6 13.6 3.6ZM3.20002 10V20.4C3.20002 21.284 3.91602 22 4.80002 22H11.2V10H3.20002ZM12.8 10V22H19.2C20.084 22 20.8 21.284 20.8 20.4V10H12.8Z"/>
</symbol><symbol viewBox="0 0 24 24" id="i--v4-wallet"><title>v4-wallet</title>
<path d="M6 20C4.9 20 3.95833 19.6083 3.175 18.825C2.39167 18.0417 2 17.1 2 16V8C2 6.9 2.39167 5.95833 3.175 5.175C3.95833 4.39167 4.9 4 6 4H18C19.1 4 20.0417 4.39167 20.825 5.175C21.6083 5.95833 22 6.9 22 8V16C22 17.1 21.6083 18.0417 20.825 18.825C20.0417 19.6083 19.1 20 18 20H6ZM6 8H18C18.3667 8 18.7167 8.04167 19.05 8.125C19.3833 8.20833 19.7 8.34167 20 8.525V8C20 7.45 19.8042 6.97917 19.4125 6.5875C19.0208 6.19583 18.55 6 18 6H6C5.45 6 4.97917 6.19583 4.5875 6.5875C4.19583 6.97917 4 7.45 4 8V8.525C4.3 8.34167 4.61667 8.20833 4.95 8.125C5.28333 8.04167 5.63333 8 6 8ZM4.15 11.25L15.275 13.95C15.425 13.9833 15.575 13.9833 15.725 13.95C15.875 13.9167 16.0167 13.85 16.15 13.75L19.625 10.85C19.4417 10.6 19.2083 10.3958 18.925 10.2375C18.6417 10.0792 18.3333 10 18 10H6C5.56667 10 5.1875 10.1125 4.8625 10.3375C4.5375 10.5625 4.3 10.8667 4.15 11.25Z"/>
</symbol></svg>